<svg width="772" height="184" viewBox="0 0 772 184" fill="none" xmlns="http://www.w3.org/2000/svg">
<rect width="772" height="184" fill="white"/>
<path d="M40.5039 124.197C39.5391 123.92 38.8359 123.58 38.3945 123.178C37.957 122.771 37.7383 122.271 37.7383 121.678C37.7383 121.006 38.0059 120.451 38.541 120.014C39.0801 119.572 39.7793 119.352 40.6387 119.352C41.2246 119.352 41.7461 119.465 42.2031 119.691C42.6641 119.918 43.0195 120.23 43.2695 120.629C43.5234 121.027 43.6504 121.463 43.6504 121.936H42.5195C42.5195 121.42 42.3555 121.016 42.0273 120.723C41.6992 120.426 41.2363 120.277 40.6387 120.277C40.084 120.277 39.6504 120.4 39.3379 120.646C39.0293 120.889 38.875 121.227 38.875 121.66C38.875 122.008 39.0215 122.303 39.3145 122.545C39.6113 122.783 40.1133 123.002 40.8203 123.201C41.5312 123.4 42.0859 123.621 42.4844 123.863C42.8867 124.102 43.1836 124.381 43.375 124.701C43.5703 125.021 43.668 125.398 43.668 125.832C43.668 126.523 43.3984 127.078 42.8594 127.496C42.3203 127.91 41.5996 128.117 40.6973 128.117C40.1113 128.117 39.5645 128.006 39.0566 127.783C38.5488 127.557 38.1562 127.248 37.8789 126.857C37.6055 126.467 37.4688 126.023 37.4688 125.527H38.5996C38.5996 126.043 38.7891 126.451 39.168 126.752C39.5508 127.049 40.0605 127.197 40.6973 127.197C41.291 127.197 41.7461 127.076 42.0625 126.834C42.3789 126.592 42.5371 126.262 42.5371 125.844C42.5371 125.426 42.3906 125.104 42.0977 124.877C41.8047 124.646 41.2734 124.42 40.5039 124.197ZM48.8594 127.373C48.4375 127.869 47.8184 128.117 47.002 128.117C46.3262 128.117 45.8105 127.922 45.4551 127.531C45.1035 127.137 44.9258 126.555 44.9219 125.785V121.66H46.0059V125.756C46.0059 126.717 46.3965 127.197 47.1777 127.197C48.0059 127.197 48.5566 126.889 48.8301 126.271V121.66H49.9141V128H48.8828L48.8594 127.373ZM54.6309 122.633C54.4668 122.605 54.2891 122.592 54.0977 122.592C53.3867 122.592 52.9043 122.895 52.6504 123.5V128H51.5664V121.66H52.6211L52.6387 122.393C52.9941 121.826 53.498 121.543 54.1504 121.543C54.3613 121.543 54.5215 121.57 54.6309 121.625V122.633ZM57.8301 126.529L59.4004 121.66H60.5078L58.2344 128H57.4082L55.1113 121.66H56.2188L57.8301 126.529ZM64.0996 128.117C63.2402 128.117 62.541 127.836 62.002 127.273C61.4629 126.707 61.1934 125.951 61.1934 125.006V124.807C61.1934 124.178 61.3125 123.617 61.5508 123.125C61.793 122.629 62.1289 122.242 62.5586 121.965C62.9922 121.684 63.4609 121.543 63.9648 121.543C64.7891 121.543 65.4297 121.814 65.8867 122.357C66.3438 122.9 66.5723 123.678 66.5723 124.689V125.141H62.2773C62.293 125.766 62.4746 126.271 62.8223 126.658C63.1738 127.041 63.6191 127.232 64.1582 127.232C64.541 127.232 64.8652 127.154 65.1309 126.998C65.3965 126.842 65.6289 126.635 65.8281 126.377L66.4902 126.893C65.959 127.709 65.1621 128.117 64.0996 128.117ZM63.9648 122.434C63.5273 122.434 63.1602 122.594 62.8633 122.914C62.5664 123.23 62.3828 123.676 62.3125 124.25H65.4883V124.168C65.457 123.617 65.3086 123.191 65.043 122.891C64.7773 122.586 64.418 122.434 63.9648 122.434ZM70.8965 122.633C70.7324 122.605 70.5547 122.592 70.3633 122.592C69.6523 122.592 69.1699 122.895 68.916 123.5V128H67.832V121.66H68.8867L68.9043 122.393C69.2598 121.826 69.7637 121.543 70.416 121.543C70.627 121.543 70.7871 121.57 70.8965 121.625V122.633ZM74.0781 126.412L75.5547 121.66H76.7148L74.166 128.979C73.7715 130.033 73.1445 130.561 72.2852 130.561L72.0801 130.543L71.6758 130.467V129.588L71.9688 129.611C72.3359 129.611 72.6211 129.537 72.8242 129.389C73.0312 129.24 73.2012 128.969 73.334 128.574L73.5742 127.93L71.3125 121.66H72.4961L74.0781 126.412Z" fill="black"/>
<path d="M229.996 119.469V125.27C229.992 126.074 229.738 126.732 229.234 127.244C228.734 127.756 228.055 128.043 227.195 128.105L226.896 128.117C225.963 128.117 225.219 127.865 224.664 127.361C224.109 126.857 223.828 126.164 223.82 125.281V119.469H224.934V125.246C224.934 125.863 225.104 126.344 225.443 126.688C225.783 127.027 226.268 127.197 226.896 127.197C227.533 127.197 228.02 127.027 228.355 126.688C228.695 126.348 228.865 125.869 228.865 125.252V119.469H229.996ZM235.293 126.318C235.293 126.025 235.182 125.799 234.959 125.639C234.74 125.475 234.355 125.334 233.805 125.217C233.258 125.1 232.822 124.959 232.498 124.795C232.178 124.631 231.939 124.436 231.783 124.209C231.631 123.982 231.555 123.713 231.555 123.4C231.555 122.881 231.773 122.441 232.211 122.082C232.652 121.723 233.215 121.543 233.898 121.543C234.617 121.543 235.199 121.729 235.645 122.1C236.094 122.471 236.318 122.945 236.318 123.523H235.229C235.229 123.227 235.102 122.971 234.848 122.756C234.598 122.541 234.281 122.434 233.898 122.434C233.504 122.434 233.195 122.52 232.973 122.691C232.75 122.863 232.639 123.088 232.639 123.365C232.639 123.627 232.742 123.824 232.949 123.957C233.156 124.09 233.529 124.217 234.068 124.338C234.611 124.459 235.051 124.604 235.387 124.771C235.723 124.939 235.971 125.143 236.131 125.381C236.295 125.615 236.377 125.902 236.377 126.242C236.377 126.809 236.15 127.264 235.697 127.607C235.244 127.947 234.656 128.117 233.934 128.117C233.426 128.117 232.977 128.027 232.586 127.848C232.195 127.668 231.889 127.418 231.666 127.098C231.447 126.773 231.338 126.424 231.338 126.049H232.422C232.441 126.412 232.586 126.701 232.855 126.916C233.129 127.127 233.488 127.232 233.934 127.232C234.344 127.232 234.672 127.15 234.918 126.986C235.168 126.818 235.293 126.596 235.293 126.318ZM240.42 128.117C239.561 128.117 238.861 127.836 238.322 127.273C237.783 126.707 237.514 125.951 237.514 125.006V124.807C237.514 124.178 237.633 123.617 237.871 123.125C238.113 122.629 238.449 122.242 238.879 121.965C239.312 121.684 239.781 121.543 240.285 121.543C241.109 121.543 241.75 121.814 242.207 122.357C242.664 122.9 242.893 123.678 242.893 124.689V125.141H238.598C238.613 125.766 238.795 126.271 239.143 126.658C239.494 127.041 239.939 127.232 240.479 127.232C240.861 127.232 241.186 127.154 241.451 126.998C241.717 126.842 241.949 126.635 242.148 126.377L242.811 126.893C242.279 127.709 241.482 128.117 240.42 128.117ZM240.285 122.434C239.848 122.434 239.48 122.594 239.184 122.914C238.887 123.23 238.703 123.676 238.633 124.25H241.809V124.168C241.777 123.617 241.629 123.191 241.363 122.891C241.098 122.586 240.738 122.434 240.285 122.434ZM247.217 122.633C247.053 122.605 246.875 122.592 246.684 122.592C245.973 122.592 245.49 122.895 245.236 123.5V128H244.152V121.66H245.207L245.225 122.393C245.58 121.826 246.084 121.543 246.736 121.543C246.947 121.543 247.107 121.57 247.217 121.625V122.633ZM252.49 124.66V128H251.365V119.469H254.512C255.445 119.469 256.176 119.707 256.703 120.184C257.234 120.66 257.5 121.291 257.5 122.076C257.5 122.904 257.24 123.543 256.721 123.992C256.205 124.438 255.465 124.66 254.5 124.66H252.49ZM252.49 123.74H254.512C255.113 123.74 255.574 123.6 255.895 123.318C256.215 123.033 256.375 122.623 256.375 122.088C256.375 121.58 256.215 121.174 255.895 120.869C255.574 120.564 255.135 120.406 254.576 120.395H252.49V123.74ZM261.314 128.117C260.455 128.117 259.756 127.836 259.217 127.273C258.678 126.707 258.408 125.951 258.408 125.006V124.807C258.408 124.178 258.527 123.617 258.766 123.125C259.008 122.629 259.344 122.242 259.773 121.965C260.207 121.684 260.676 121.543 261.18 121.543C262.004 121.543 262.645 121.814 263.102 122.357C263.559 122.9 263.787 123.678 263.787 124.689V125.141H259.492C259.508 125.766 259.689 126.271 260.037 126.658C260.389 127.041 260.834 127.232 261.373 127.232C261.756 127.232 262.08 127.154 262.346 126.998C262.611 126.842 262.844 126.635 263.043 126.377L263.705 126.893C263.174 127.709 262.377 128.117 261.314 128.117ZM261.18 122.434C260.742 122.434 260.375 122.594 260.078 122.914C259.781 123.23 259.598 123.676 259.527 124.25H262.703V124.168C262.672 123.617 262.523 123.191 262.258 122.891C261.992 122.586 261.633 122.434 261.18 122.434ZM268.111 122.633C267.947 122.605 267.77 122.592 267.578 122.592C266.867 122.592 266.385 122.895 266.131 123.5V128H265.047V121.66H266.102L266.119 122.393C266.475 121.826 266.979 121.543 267.631 121.543C267.842 121.543 268.002 121.57 268.111 121.625V122.633ZM272.805 126.318C272.805 126.025 272.693 125.799 272.471 125.639C272.252 125.475 271.867 125.334 271.316 125.217C270.77 125.1 270.334 124.959 270.01 124.795C269.689 124.631 269.451 124.436 269.295 124.209C269.143 123.982 269.066 123.713 269.066 123.4C269.066 122.881 269.285 122.441 269.723 122.082C270.164 121.723 270.727 121.543 271.41 121.543C272.129 121.543 272.711 121.729 273.156 122.1C273.605 122.471 273.83 122.945 273.83 123.523H272.74C272.74 123.227 272.613 122.971 272.359 122.756C272.109 122.541 271.793 122.434 271.41 122.434C271.016 122.434 270.707 122.52 270.484 122.691C270.262 122.863 270.15 123.088 270.15 123.365C270.15 123.627 270.254 123.824 270.461 123.957C270.668 124.09 271.041 124.217 271.58 124.338C272.123 124.459 272.562 124.604 272.898 124.771C273.234 124.939 273.482 125.143 273.643 125.381C273.807 125.615 273.889 125.902 273.889 126.242C273.889 126.809 273.662 127.264 273.209 127.607C272.756 127.947 272.168 128.117 271.445 128.117C270.938 128.117 270.488 128.027 270.098 127.848C269.707 127.668 269.4 127.418 269.178 127.098C268.959 126.773 268.85 126.424 268.85 126.049H269.934C269.953 126.412 270.098 126.701 270.367 126.916C270.641 127.127 271 127.232 271.445 127.232C271.855 127.232 272.184 127.15 272.43 126.986C272.68 126.818 272.805 126.596 272.805 126.318ZM275.014 124.771C275.014 124.15 275.135 123.592 275.377 123.096C275.623 122.6 275.963 122.217 276.396 121.947C276.834 121.678 277.332 121.543 277.891 121.543C278.754 121.543 279.451 121.842 279.982 122.439C280.518 123.037 280.785 123.832 280.785 124.824V124.9C280.785 125.518 280.666 126.072 280.428 126.564C280.193 127.053 279.855 127.434 279.414 127.707C278.977 127.98 278.473 128.117 277.902 128.117C277.043 128.117 276.346 127.818 275.811 127.221C275.279 126.623 275.014 125.832 275.014 124.848V124.771ZM276.104 124.9C276.104 125.604 276.266 126.168 276.59 126.594C276.918 127.02 277.355 127.232 277.902 127.232C278.453 127.232 278.891 127.018 279.215 126.588C279.539 126.154 279.701 125.549 279.701 124.771C279.701 124.076 279.535 123.514 279.203 123.084C278.875 122.65 278.438 122.434 277.891 122.434C277.355 122.434 276.924 122.646 276.596 123.072C276.268 123.498 276.104 124.107 276.104 124.9ZM283.17 121.66L283.205 122.457C283.689 121.848 284.322 121.543 285.104 121.543C286.443 121.543 287.119 122.299 287.131 123.811V128H286.047V123.805C286.043 123.348 285.938 123.01 285.73 122.791C285.527 122.572 285.209 122.463 284.775 122.463C284.424 122.463 284.115 122.557 283.85 122.744C283.584 122.932 283.377 123.178 283.229 123.482V128H282.145V121.66H283.17ZM292.68 128C292.617 127.875 292.566 127.652 292.527 127.332C292.023 127.855 291.422 128.117 290.723 128.117C290.098 128.117 289.584 127.941 289.182 127.59C288.783 127.234 288.584 126.785 288.584 126.242C288.584 125.582 288.834 125.07 289.334 124.707C289.838 124.34 290.545 124.156 291.455 124.156H292.51V123.658C292.51 123.279 292.396 122.979 292.17 122.756C291.943 122.529 291.609 122.416 291.168 122.416C290.781 122.416 290.457 122.514 290.195 122.709C289.934 122.904 289.803 123.141 289.803 123.418H288.713C288.713 123.102 288.824 122.797 289.047 122.504C289.273 122.207 289.578 121.973 289.961 121.801C290.348 121.629 290.771 121.543 291.232 121.543C291.963 121.543 292.535 121.727 292.949 122.094C293.363 122.457 293.578 122.959 293.594 123.6V126.518C293.594 127.1 293.668 127.562 293.816 127.906V128H292.68ZM290.881 127.174C291.221 127.174 291.543 127.086 291.848 126.91C292.152 126.734 292.373 126.506 292.51 126.225V124.924H291.66C290.332 124.924 289.668 125.312 289.668 126.09C289.668 126.43 289.781 126.695 290.008 126.887C290.234 127.078 290.525 127.174 290.881 127.174Z" fill="black"/>
<path d="M102.266 125.293C102.16 126.195 101.826 126.893 101.264 127.385C100.705 127.873 99.9609 128.117 99.0312 128.117C98.0234 128.117 97.2148 127.756 96.6055 127.033C96 126.311 95.6973 125.344 95.6973 124.133V123.312C95.6973 122.52 95.8379 121.822 96.1191 121.221C96.4043 120.619 96.8066 120.158 97.3262 119.838C97.8457 119.514 98.4473 119.352 99.1309 119.352C100.037 119.352 100.764 119.605 101.311 120.113C101.857 120.617 102.176 121.316 102.266 122.211H101.135C101.037 121.531 100.824 121.039 100.496 120.734C100.172 120.43 99.7168 120.277 99.1309 120.277C98.4121 120.277 97.8477 120.543 97.4375 121.074C97.0312 121.605 96.8281 122.361 96.8281 123.342V124.168C96.8281 125.094 97.0215 125.83 97.4082 126.377C97.7949 126.924 98.3359 127.197 99.0312 127.197C99.6562 127.197 100.135 127.057 100.467 126.775C100.803 126.49 101.025 125.996 101.135 125.293H102.266ZM103.35 124.771C103.35 124.15 103.471 123.592 103.713 123.096C103.959 122.6 104.299 122.217 104.732 121.947C105.17 121.678 105.668 121.543 106.227 121.543C107.09 121.543 107.787 121.842 108.318 122.439C108.854 123.037 109.121 123.832 109.121 124.824V124.9C109.121 125.518 109.002 126.072 108.764 126.564C108.529 127.053 108.191 127.434 107.75 127.707C107.312 127.98 106.809 128.117 106.238 128.117C105.379 128.117 104.682 127.818 104.146 127.221C103.615 126.623 103.35 125.832 103.35 124.848V124.771ZM104.439 124.9C104.439 125.604 104.602 126.168 104.926 126.594C105.254 127.02 105.691 127.232 106.238 127.232C106.789 127.232 107.227 127.018 107.551 126.588C107.875 126.154 108.037 125.549 108.037 124.771C108.037 124.076 107.871 123.514 107.539 123.084C107.211 122.65 106.773 122.434 106.227 122.434C105.691 122.434 105.26 122.646 104.932 123.072C104.604 123.498 104.439 124.107 104.439 124.9ZM111.5 121.66L111.529 122.363C111.994 121.816 112.621 121.543 113.41 121.543C114.297 121.543 114.9 121.883 115.221 122.562C115.432 122.258 115.705 122.012 116.041 121.824C116.381 121.637 116.781 121.543 117.242 121.543C118.633 121.543 119.34 122.279 119.363 123.752V128H118.279V123.816C118.279 123.363 118.176 123.025 117.969 122.803C117.762 122.576 117.414 122.463 116.926 122.463C116.523 122.463 116.189 122.584 115.924 122.826C115.658 123.064 115.504 123.387 115.461 123.793V128H114.371V123.846C114.371 122.924 113.92 122.463 113.018 122.463C112.307 122.463 111.82 122.766 111.559 123.371V128H110.475V121.66H111.5ZM126.359 124.9C126.359 125.865 126.139 126.643 125.697 127.232C125.256 127.822 124.658 128.117 123.904 128.117C123.135 128.117 122.529 127.873 122.088 127.385V130.438H121.004V121.66H121.994L122.047 122.363C122.488 121.816 123.102 121.543 123.887 121.543C124.648 121.543 125.25 121.83 125.691 122.404C126.137 122.979 126.359 123.777 126.359 124.801V124.9ZM125.275 124.777C125.275 124.062 125.123 123.498 124.818 123.084C124.514 122.67 124.096 122.463 123.564 122.463C122.908 122.463 122.416 122.754 122.088 123.336V126.365C122.412 126.943 122.908 127.232 123.576 127.232C124.096 127.232 124.508 127.027 124.812 126.617C125.121 126.203 125.275 125.59 125.275 124.777ZM131.656 128C131.594 127.875 131.543 127.652 131.504 127.332C131 127.855 130.398 128.117 129.699 128.117C129.074 128.117 128.561 127.941 128.158 127.59C127.76 127.234 127.561 126.785 127.561 126.242C127.561 125.582 127.811 125.07 128.311 124.707C128.814 124.34 129.521 124.156 130.432 124.156H131.486V123.658C131.486 123.279 131.373 122.979 131.146 122.756C130.92 122.529 130.586 122.416 130.145 122.416C129.758 122.416 129.434 122.514 129.172 122.709C128.91 122.904 128.779 123.141 128.779 123.418H127.689C127.689 123.102 127.801 122.797 128.023 122.504C128.25 122.207 128.555 121.973 128.938 121.801C129.324 121.629 129.748 121.543 130.209 121.543C130.939 121.543 131.512 121.727 131.926 122.094C132.34 122.457 132.555 122.959 132.57 123.6V126.518C132.57 127.1 132.645 127.562 132.793 127.906V128H131.656ZM129.857 127.174C130.197 127.174 130.52 127.086 130.824 126.91C131.129 126.734 131.35 126.506 131.486 126.225V124.924H130.637C129.309 124.924 128.645 125.312 128.645 126.09C128.645 126.43 128.758 126.695 128.984 126.887C129.211 127.078 129.502 127.174 129.857 127.174ZM137.334 122.633C137.17 122.605 136.992 122.592 136.801 122.592C136.09 122.592 135.607 122.895 135.354 123.5V128H134.27V121.66H135.324L135.342 122.393C135.697 121.826 136.201 121.543 136.854 121.543C137.064 121.543 137.225 121.57 137.334 121.625V122.633ZM142.016 128C141.953 127.875 141.902 127.652 141.863 127.332C141.359 127.855 140.758 128.117 140.059 128.117C139.434 128.117 138.92 127.941 138.518 127.59C138.119 127.234 137.92 126.785 137.92 126.242C137.92 125.582 138.17 125.07 138.67 124.707C139.174 124.34 139.881 124.156 140.791 124.156H141.846V123.658C141.846 123.279 141.732 122.979 141.506 122.756C141.279 122.529 140.945 122.416 140.504 122.416C140.117 122.416 139.793 122.514 139.531 122.709C139.27 122.904 139.139 123.141 139.139 123.418H138.049C138.049 123.102 138.16 122.797 138.383 122.504C138.609 122.207 138.914 121.973 139.297 121.801C139.684 121.629 140.107 121.543 140.568 121.543C141.299 121.543 141.871 121.727 142.285 122.094C142.699 122.457 142.914 122.959 142.93 123.6V126.518C142.93 127.1 143.004 127.562 143.152 127.906V128H142.016ZM140.217 127.174C140.557 127.174 140.879 127.086 141.184 126.91C141.488 126.734 141.709 126.506 141.846 126.225V124.924H140.996C139.668 124.924 139.004 125.312 139.004 126.09C139.004 126.43 139.117 126.695 139.344 126.887C139.57 127.078 139.861 127.174 140.217 127.174ZM146.1 120.125V121.66H147.283V122.498H146.1V126.43C146.1 126.684 146.152 126.875 146.258 127.004C146.363 127.129 146.543 127.191 146.797 127.191C146.922 127.191 147.094 127.168 147.312 127.121V128C147.027 128.078 146.75 128.117 146.48 128.117C145.996 128.117 145.631 127.971 145.385 127.678C145.139 127.385 145.016 126.969 145.016 126.43V122.498H143.861V121.66H145.016V120.125H146.1ZM149.732 128H148.648V121.66H149.732V128ZM148.561 119.979C148.561 119.803 148.613 119.654 148.719 119.533C148.828 119.412 148.988 119.352 149.199 119.352C149.41 119.352 149.57 119.412 149.68 119.533C149.789 119.654 149.844 119.803 149.844 119.979C149.844 120.154 149.789 120.301 149.68 120.418C149.57 120.535 149.41 120.594 149.199 120.594C148.988 120.594 148.828 120.535 148.719 120.418C148.613 120.301 148.561 120.154 148.561 119.979ZM153.564 126.529L155.135 121.66H156.242L153.969 128H153.143L150.846 121.66H151.953L153.564 126.529ZM159.834 128.117C158.975 128.117 158.275 127.836 157.736 127.273C157.197 126.707 156.928 125.951 156.928 125.006V124.807C156.928 124.178 157.047 123.617 157.285 123.125C157.527 122.629 157.863 122.242 158.293 121.965C158.727 121.684 159.195 121.543 159.699 121.543C160.523 121.543 161.164 121.814 161.621 122.357C162.078 122.9 162.307 123.678 162.307 124.689V125.141H158.012C158.027 125.766 158.209 126.271 158.557 126.658C158.908 127.041 159.354 127.232 159.893 127.232C160.275 127.232 160.6 127.154 160.865 126.998C161.131 126.842 161.363 126.635 161.562 126.377L162.225 126.893C161.693 127.709 160.896 128.117 159.834 128.117ZM159.699 122.434C159.262 122.434 158.895 122.594 158.598 122.914C158.301 123.23 158.117 123.676 158.047 124.25H161.223V124.168C161.191 123.617 161.043 123.191 160.777 122.891C160.512 122.586 160.152 122.434 159.699 122.434ZM171.424 125.773H167.85L167.047 128H165.887L169.145 119.469H170.129L173.393 128H172.238L171.424 125.773ZM168.189 124.848H171.09L169.637 120.857L168.189 124.848ZM175.396 121.66L175.432 122.457C175.916 121.848 176.549 121.543 177.33 121.543C178.67 121.543 179.346 122.299 179.357 123.811V128H178.273V123.805C178.27 123.348 178.164 123.01 177.957 122.791C177.754 122.572 177.436 122.463 177.002 122.463C176.65 122.463 176.342 122.557 176.076 122.744C175.811 122.932 175.604 123.178 175.455 123.482V128H174.371V121.66H175.396ZM184.906 128C184.844 127.875 184.793 127.652 184.754 127.332C184.25 127.855 183.648 128.117 182.949 128.117C182.324 128.117 181.811 127.941 181.408 127.59C181.01 127.234 180.811 126.785 180.811 126.242C180.811 125.582 181.061 125.07 181.561 124.707C182.064 124.34 182.771 124.156 183.682 124.156H184.736V123.658C184.736 123.279 184.623 122.979 184.396 122.756C184.17 122.529 183.836 122.416 183.395 122.416C183.008 122.416 182.684 122.514 182.422 122.709C182.16 122.904 182.029 123.141 182.029 123.418H180.939C180.939 123.102 181.051 122.797 181.273 122.504C181.5 122.207 181.805 121.973 182.188 121.801C182.574 121.629 182.998 121.543 183.459 121.543C184.189 121.543 184.762 121.727 185.176 122.094C185.59 122.457 185.805 122.959 185.82 123.6V126.518C185.82 127.1 185.895 127.562 186.043 127.906V128H184.906ZM183.107 127.174C183.447 127.174 183.77 127.086 184.074 126.91C184.379 126.734 184.6 126.506 184.736 126.225V124.924H183.887C182.559 124.924 181.895 125.312 181.895 126.09C181.895 126.43 182.008 126.695 182.234 126.887C182.461 127.078 182.752 127.174 183.107 127.174ZM188.697 128H187.613V119H188.697V128ZM192.512 126.412L193.988 121.66H195.148L192.6 128.979C192.205 130.033 191.578 130.561 190.719 130.561L190.514 130.543L190.109 130.467V129.588L190.402 129.611C190.77 129.611 191.055 129.537 191.258 129.389C191.465 129.24 191.635 128.969 191.768 128.574L192.008 127.93L189.746 121.66H190.93L192.512 126.412ZM199.812 126.318C199.812 126.025 199.701 125.799 199.479 125.639C199.26 125.475 198.875 125.334 198.324 125.217C197.777 125.1 197.342 124.959 197.018 124.795C196.697 124.631 196.459 124.436 196.303 124.209C196.15 123.982 196.074 123.713 196.074 123.4C196.074 122.881 196.293 122.441 196.73 122.082C197.172 121.723 197.734 121.543 198.418 121.543C199.137 121.543 199.719 121.729 200.164 122.1C200.613 122.471 200.838 122.945 200.838 123.523H199.748C199.748 123.227 199.621 122.971 199.367 122.756C199.117 122.541 198.801 122.434 198.418 122.434C198.023 122.434 197.715 122.52 197.492 122.691C197.27 122.863 197.158 123.088 197.158 123.365C197.158 123.627 197.262 123.824 197.469 123.957C197.676 124.09 198.049 124.217 198.588 124.338C199.131 124.459 199.57 124.604 199.906 124.771C200.242 124.939 200.49 125.143 200.65 125.381C200.814 125.615 200.896 125.902 200.896 126.242C200.896 126.809 200.67 127.264 200.217 127.607C199.764 127.947 199.176 128.117 198.453 128.117C197.945 128.117 197.496 128.027 197.105 127.848C196.715 127.668 196.408 127.418 196.186 127.098C195.967 126.773 195.857 126.424 195.857 126.049H196.941C196.961 126.412 197.105 126.701 197.375 126.916C197.648 127.127 198.008 127.232 198.453 127.232C198.863 127.232 199.191 127.15 199.438 126.986C199.688 126.818 199.812 126.596 199.812 126.318ZM203.486 128H202.402V121.66H203.486V128ZM202.314 119.979C202.314 119.803 202.367 119.654 202.473 119.533C202.582 119.412 202.742 119.352 202.953 119.352C203.164 119.352 203.324 119.412 203.434 119.533C203.543 119.654 203.598 119.803 203.598 119.979C203.598 120.154 203.543 120.301 203.434 120.418C203.324 120.535 203.164 120.594 202.953 120.594C202.742 120.594 202.582 120.535 202.473 120.418C202.367 120.301 202.314 120.154 202.314 119.979ZM208.918 126.318C208.918 126.025 208.807 125.799 208.584 125.639C208.365 125.475 207.98 125.334 207.43 125.217C206.883 125.1 206.447 124.959 206.123 124.795C205.803 124.631 205.564 124.436 205.408 124.209C205.256 123.982 205.18 123.713 205.18 123.4C205.18 122.881 205.398 122.441 205.836 122.082C206.277 121.723 206.84 121.543 207.523 121.543C208.242 121.543 208.824 121.729 209.27 122.1C209.719 122.471 209.943 122.945 209.943 123.523H208.854C208.854 123.227 208.727 122.971 208.473 122.756C208.223 122.541 207.906 122.434 207.523 122.434C207.129 122.434 206.82 122.52 206.598 122.691C206.375 122.863 206.264 123.088 206.264 123.365C206.264 123.627 206.367 123.824 206.574 123.957C206.781 124.09 207.154 124.217 207.693 124.338C208.236 124.459 208.676 124.604 209.012 124.771C209.348 124.939 209.596 125.143 209.756 125.381C209.92 125.615 210.002 125.902 210.002 126.242C210.002 126.809 209.775 127.264 209.322 127.607C208.869 127.947 208.281 128.117 207.559 128.117C207.051 128.117 206.602 128.027 206.211 127.848C205.82 127.668 205.514 127.418 205.291 127.098C205.072 126.773 204.963 126.424 204.963 126.049H206.047C206.066 126.412 206.211 126.701 206.48 126.916C206.754 127.127 207.113 127.232 207.559 127.232C207.969 127.232 208.297 127.15 208.543 126.986C208.793 126.818 208.918 126.596 208.918 126.318Z" fill="black"/>
<path d="M416.889 52V42.0469H419.951C420.826 42.0469 421.608 42.2451 422.296 42.6416C422.989 43.0335 423.529 43.5941 423.916 44.3232C424.303 45.0479 424.497 45.8727 424.497 46.7979V47.2559C424.497 48.181 424.306 49.0036 423.923 49.7236C423.545 50.4437 423.009 51.002 422.316 51.3984C421.624 51.7949 420.842 51.9954 419.972 52H416.889ZM418.939 43.708V50.3525H419.931C420.733 50.3525 421.346 50.0905 421.77 49.5664C422.193 49.0423 422.41 48.2926 422.419 47.3174V46.791C422.419 45.7793 422.209 45.0137 421.79 44.4941C421.371 43.9701 420.758 43.708 419.951 43.708H418.939ZM429.269 52.1367C428.184 52.1367 427.3 51.804 426.616 51.1387C425.937 50.4733 425.598 49.5869 425.598 48.4795V48.2881C425.598 47.5452 425.741 46.8822 426.028 46.2988C426.315 45.7109 426.721 45.2598 427.245 44.9453C427.774 44.6263 428.375 44.4668 429.05 44.4668C430.062 44.4668 430.857 44.7858 431.436 45.4238C432.019 46.0618 432.311 46.9665 432.311 48.1377V48.9443H427.601C427.664 49.4274 427.856 49.8148 428.175 50.1064C428.498 50.3981 428.906 50.5439 429.398 50.5439C430.16 50.5439 430.754 50.2682 431.183 49.7168L432.153 50.8037C431.857 51.223 431.456 51.5511 430.95 51.7881C430.444 52.0205 429.884 52.1367 429.269 52.1367ZM429.043 46.0664C428.651 46.0664 428.332 46.1986 428.086 46.4629C427.844 46.7272 427.689 47.1055 427.621 47.5977H430.369V47.4404C430.36 47.0029 430.242 46.6657 430.014 46.4287C429.786 46.1872 429.462 46.0664 429.043 46.0664ZM437.444 49.9561C437.444 49.7145 437.324 49.5254 437.082 49.3887C436.845 49.2474 436.462 49.1221 435.934 49.0127C434.174 48.6436 433.295 47.8962 433.295 46.7705C433.295 46.1143 433.566 45.5674 434.108 45.1299C434.655 44.6878 435.368 44.4668 436.248 44.4668C437.187 44.4668 437.937 44.6878 438.497 45.1299C439.062 45.5719 439.345 46.1462 439.345 46.8525H437.369C437.369 46.57 437.278 46.3376 437.096 46.1553C436.913 45.9684 436.629 45.875 436.241 45.875C435.909 45.875 435.651 45.9502 435.469 46.1006C435.286 46.251 435.195 46.4424 435.195 46.6748C435.195 46.8936 435.298 47.0713 435.503 47.208C435.713 47.3402 436.063 47.4564 436.556 47.5566C437.048 47.6523 437.463 47.7617 437.8 47.8848C438.843 48.2676 439.365 48.9307 439.365 49.874C439.365 50.5485 439.076 51.0954 438.497 51.5146C437.918 51.9294 437.171 52.1367 436.255 52.1367C435.635 52.1367 435.084 52.0273 434.601 51.8086C434.122 51.5853 433.746 51.2822 433.473 50.8994C433.199 50.512 433.062 50.0951 433.062 49.6484H434.936C434.954 49.9993 435.084 50.2682 435.325 50.4551C435.567 50.6419 435.89 50.7354 436.296 50.7354C436.674 50.7354 436.959 50.6647 437.15 50.5234C437.346 50.3776 437.444 50.1885 437.444 49.9561ZM442.729 52H440.746V44.6035H442.729V52ZM440.63 42.6895C440.63 42.3932 440.728 42.1494 440.924 41.958C441.124 41.7666 441.396 41.6709 441.737 41.6709C442.075 41.6709 442.343 41.7666 442.544 41.958C442.744 42.1494 442.845 42.3932 442.845 42.6895C442.845 42.9902 442.742 43.2363 442.537 43.4277C442.337 43.6191 442.07 43.7148 441.737 43.7148C441.405 43.7148 441.136 43.6191 440.931 43.4277C440.73 43.2363 440.63 42.9902 440.63 42.6895ZM444.075 48.2471C444.075 47.1123 444.344 46.1986 444.882 45.5059C445.424 44.8132 446.153 44.4668 447.069 44.4668C447.881 44.4668 448.512 44.7448 448.963 45.3008L449.045 44.6035H450.836V51.7539C450.836 52.401 450.688 52.9639 450.392 53.4424C450.1 53.9209 449.688 54.2855 449.154 54.5361C448.621 54.7868 447.997 54.9121 447.281 54.9121C446.739 54.9121 446.21 54.8027 445.695 54.584C445.18 54.3698 444.791 54.0918 444.526 53.75L445.401 52.5469C445.894 53.0983 446.491 53.374 447.192 53.374C447.716 53.374 448.124 53.2327 448.416 52.9502C448.708 52.6722 448.854 52.2757 448.854 51.7607V51.3643C448.398 51.8792 447.799 52.1367 447.056 52.1367C446.167 52.1367 445.447 51.7904 444.896 51.0977C444.349 50.4004 444.075 49.4775 444.075 48.3291V48.2471ZM446.051 48.3906C446.051 49.0605 446.185 49.5869 446.454 49.9697C446.723 50.348 447.092 50.5371 447.562 50.5371C448.163 50.5371 448.594 50.3115 448.854 49.8604V46.75C448.589 46.2988 448.163 46.0732 447.575 46.0732C447.101 46.0732 446.728 46.2669 446.454 46.6543C446.185 47.0417 446.051 47.6204 446.051 48.3906ZM454.179 44.6035L454.24 45.458C454.769 44.7972 455.478 44.4668 456.366 44.4668C457.15 44.4668 457.733 44.6969 458.116 45.1572C458.499 45.6175 458.695 46.3057 458.704 47.2217V52H456.729V47.2695C456.729 46.8503 456.637 46.5472 456.455 46.3604C456.273 46.1689 455.97 46.0732 455.546 46.0732C454.99 46.0732 454.573 46.3102 454.295 46.7842V52H452.319V44.6035H454.179ZM462.293 52H460.311V44.6035H462.293V52ZM460.194 42.6895C460.194 42.3932 460.292 42.1494 460.488 41.958C460.689 41.7666 460.96 41.6709 461.302 41.6709C461.639 41.6709 461.908 41.7666 462.108 41.958C462.309 42.1494 462.409 42.3932 462.409 42.6895C462.409 42.9902 462.307 43.2363 462.102 43.4277C461.901 43.6191 461.634 43.7148 461.302 43.7148C460.969 43.7148 460.7 43.6191 460.495 43.4277C460.295 43.2363 460.194 42.9902 460.194 42.6895ZM465.745 44.6035L465.807 45.458C466.335 44.7972 467.044 44.4668 467.933 44.4668C468.716 44.4668 469.3 44.6969 469.683 45.1572C470.065 45.6175 470.261 46.3057 470.271 47.2217V52H468.295V47.2695C468.295 46.8503 468.204 46.5472 468.021 46.3604C467.839 46.1689 467.536 46.0732 467.112 46.0732C466.556 46.0732 466.139 46.3102 465.861 46.7842V52H463.886V44.6035H465.745ZM471.487 48.2471C471.487 47.1123 471.756 46.1986 472.294 45.5059C472.836 44.8132 473.565 44.4668 474.481 44.4668C475.293 44.4668 475.924 44.7448 476.375 45.3008L476.457 44.6035H478.248V51.7539C478.248 52.401 478.1 52.9639 477.804 53.4424C477.512 53.9209 477.1 54.2855 476.566 54.5361C476.033 54.7868 475.409 54.9121 474.693 54.9121C474.151 54.9121 473.622 54.8027 473.107 54.584C472.592 54.3698 472.203 54.0918 471.938 53.75L472.813 52.5469C473.306 53.0983 473.903 53.374 474.604 53.374C475.129 53.374 475.536 53.2327 475.828 52.9502C476.12 52.6722 476.266 52.2757 476.266 51.7607V51.3643C475.81 51.8792 475.211 52.1367 474.468 52.1367C473.579 52.1367 472.859 51.7904 472.308 51.0977C471.761 50.4004 471.487 49.4775 471.487 48.3291V48.2471ZM473.463 48.3906C473.463 49.0605 473.597 49.5869 473.866 49.9697C474.135 50.348 474.504 50.5371 474.974 50.5371C475.575 50.5371 476.006 50.3115 476.266 49.8604V46.75C476.001 46.2988 475.575 46.0732 474.987 46.0732C474.513 46.0732 474.14 46.2669 473.866 46.6543C473.597 47.0417 473.463 47.6204 473.463 48.3906Z" fill="#657B83"/>
<path d="M644.939 48.4932V52H642.889V42.0469H646.771C647.519 42.0469 648.175 42.1836 648.74 42.457C649.31 42.7305 649.747 43.1201 650.053 43.626C650.358 44.1273 650.511 44.6992 650.511 45.3418C650.511 46.3171 650.176 47.0872 649.506 47.6523C648.84 48.2129 647.918 48.4932 646.737 48.4932H644.939ZM644.939 46.832H646.771C647.314 46.832 647.726 46.7044 648.009 46.4492C648.296 46.194 648.439 45.8294 648.439 45.3555C648.439 44.8678 648.296 44.4736 648.009 44.1729C647.722 43.8721 647.325 43.7171 646.819 43.708H644.939V46.832ZM655.952 46.4561C655.683 46.4196 655.446 46.4014 655.241 46.4014C654.494 46.4014 654.004 46.6543 653.771 47.1602V52H651.796V44.6035H653.662L653.717 45.4854C654.113 44.8063 654.662 44.4668 655.364 44.4668C655.583 44.4668 655.788 44.4964 655.979 44.5557L655.952 46.4561ZM656.355 48.2334C656.355 47.4997 656.497 46.8457 656.779 46.2715C657.062 45.6973 657.467 45.2529 657.996 44.9385C658.529 44.624 659.147 44.4668 659.849 44.4668C660.847 44.4668 661.66 44.7721 662.289 45.3828C662.923 45.9935 663.276 46.8229 663.349 47.8711L663.362 48.377C663.362 49.5117 663.046 50.4232 662.412 51.1113C661.779 51.7949 660.929 52.1367 659.862 52.1367C658.796 52.1367 657.944 51.7949 657.306 51.1113C656.672 50.4277 656.355 49.498 656.355 48.3223V48.2334ZM658.331 48.377C658.331 49.0788 658.463 49.6165 658.728 49.9902C658.992 50.3594 659.37 50.5439 659.862 50.5439C660.341 50.5439 660.715 50.3617 660.983 49.9971C661.252 49.6279 661.387 49.04 661.387 48.2334C661.387 47.5452 661.252 47.012 660.983 46.6338C660.715 46.2555 660.336 46.0664 659.849 46.0664C659.366 46.0664 658.992 46.2555 658.728 46.6338C658.463 47.0075 658.331 47.5885 658.331 48.377ZM666.944 42.7852V44.6035H668.209V46.0527H666.944V49.7441C666.944 50.0176 666.997 50.2135 667.102 50.332C667.206 50.4505 667.407 50.5098 667.703 50.5098C667.922 50.5098 668.116 50.4938 668.284 50.4619V51.959C667.897 52.0775 667.498 52.1367 667.088 52.1367C665.702 52.1367 664.996 51.4372 664.969 50.0381V46.0527H663.889V44.6035H664.969V42.7852H666.944ZM668.797 48.2334C668.797 47.4997 668.938 46.8457 669.221 46.2715C669.503 45.6973 669.909 45.2529 670.438 44.9385C670.971 44.624 671.588 44.4668 672.29 44.4668C673.288 44.4668 674.102 44.7721 674.73 45.3828C675.364 45.9935 675.717 46.8229 675.79 47.8711L675.804 48.377C675.804 49.5117 675.487 50.4232 674.854 51.1113C674.22 51.7949 673.37 52.1367 672.304 52.1367C671.237 52.1367 670.385 51.7949 669.747 51.1113C669.114 50.4277 668.797 49.498 668.797 48.3223V48.2334ZM670.772 48.377C670.772 49.0788 670.905 49.6165 671.169 49.9902C671.433 50.3594 671.812 50.5439 672.304 50.5439C672.782 50.5439 673.156 50.3617 673.425 49.9971C673.694 49.6279 673.828 49.04 673.828 48.2334C673.828 47.5452 673.694 47.012 673.425 46.6338C673.156 46.2555 672.778 46.0664 672.29 46.0664C671.807 46.0664 671.433 46.2555 671.169 46.6338C670.905 47.0075 670.772 47.5885 670.772 48.377ZM679.386 42.7852V44.6035H680.65V46.0527H679.386V49.7441C679.386 50.0176 679.438 50.2135 679.543 50.332C679.648 50.4505 679.848 50.5098 680.145 50.5098C680.363 50.5098 680.557 50.4938 680.726 50.4619V51.959C680.338 52.0775 679.939 52.1367 679.529 52.1367C678.144 52.1367 677.438 51.4372 677.41 50.0381V46.0527H676.33V44.6035H677.41V42.7852H679.386ZM684.513 49.2041L685.88 44.6035H687.999L685.025 53.1484L684.861 53.5381C684.419 54.5042 683.69 54.9873 682.674 54.9873C682.387 54.9873 682.095 54.944 681.799 54.8574V53.3604L682.1 53.3672C682.473 53.3672 682.751 53.3102 682.934 53.1963C683.12 53.0824 683.266 52.8932 683.371 52.6289L683.604 52.0205L681.013 44.6035H683.139L684.513 49.2041ZM695.437 48.3701C695.437 49.5094 695.177 50.4232 694.657 51.1113C694.142 51.7949 693.445 52.1367 692.565 52.1367C691.818 52.1367 691.214 51.877 690.754 51.3574V54.8438H688.778V44.6035H690.61L690.679 45.3281C691.157 44.7539 691.782 44.4668 692.552 44.4668C693.463 44.4668 694.172 44.804 694.678 45.4785C695.184 46.153 695.437 47.0827 695.437 48.2676V48.3701ZM693.461 48.2266C693.461 47.5384 693.338 47.0075 693.092 46.6338C692.85 46.2601 692.497 46.0732 692.032 46.0732C691.412 46.0732 690.986 46.3102 690.754 46.7842V49.8125C690.995 50.3001 691.426 50.5439 692.046 50.5439C692.989 50.5439 693.461 49.7715 693.461 48.2266ZM698.752 52H696.77V44.6035H698.752V52ZM696.653 42.6895C696.653 42.3932 696.751 42.1494 696.947 41.958C697.148 41.7666 697.419 41.6709 697.761 41.6709C698.098 41.6709 698.367 41.7666 698.567 41.958C698.768 42.1494 698.868 42.3932 698.868 42.6895C698.868 42.9902 698.766 43.2363 698.561 43.4277C698.36 43.6191 698.093 43.7148 697.761 43.7148C697.428 43.7148 697.159 43.6191 696.954 43.4277C696.754 43.2363 696.653 42.9902 696.653 42.6895ZM702.204 44.6035L702.266 45.458C702.794 44.7972 703.503 44.4668 704.392 44.4668C705.175 44.4668 705.759 44.6969 706.142 45.1572C706.524 45.6175 706.72 46.3057 706.729 47.2217V52H704.754V47.2695C704.754 46.8503 704.663 46.5472 704.48 46.3604C704.298 46.1689 703.995 46.0732 703.571 46.0732C703.015 46.0732 702.598 46.3102 702.32 46.7842V52H700.345V44.6035H702.204ZM707.946 48.2471C707.946 47.1123 708.215 46.1986 708.753 45.5059C709.295 44.8132 710.024 44.4668 710.94 44.4668C711.752 44.4668 712.383 44.7448 712.834 45.3008L712.916 44.6035H714.707V51.7539C714.707 52.401 714.559 52.9639 714.263 53.4424C713.971 53.9209 713.559 54.2855 713.025 54.5361C712.492 54.7868 711.868 54.9121 711.152 54.9121C710.61 54.9121 710.081 54.8027 709.566 54.584C709.051 54.3698 708.662 54.0918 708.397 53.75L709.272 52.5469C709.765 53.0983 710.362 53.374 711.063 53.374C711.588 53.374 711.995 53.2327 712.287 52.9502C712.579 52.6722 712.725 52.2757 712.725 51.7607V51.3643C712.269 51.8792 711.67 52.1367 710.927 52.1367C710.038 52.1367 709.318 51.7904 708.767 51.0977C708.22 50.4004 707.946 49.4775 707.946 48.3291V48.2471ZM709.922 48.3906C709.922 49.0605 710.056 49.5869 710.325 49.9697C710.594 50.348 710.963 50.5371 711.433 50.5371C712.034 50.5371 712.465 50.3115 712.725 49.8604V46.75C712.46 46.2988 712.034 46.0732 711.446 46.0732C710.972 46.0732 710.599 46.2669 710.325 46.6543C710.056 47.0417 709.922 47.6204 709.922 48.3906Z" fill="#657B83"/>
<path d="M109.939 48.4932V52H107.889V42.0469H111.771C112.519 42.0469 113.175 42.1836 113.74 42.457C114.31 42.7305 114.747 43.1201 115.053 43.626C115.358 44.1273 115.511 44.6992 115.511 45.3418C115.511 46.3171 115.176 47.0872 114.506 47.6523C113.84 48.2129 112.918 48.4932 111.737 48.4932H109.939ZM109.939 46.832H111.771C112.314 46.832 112.726 46.7044 113.009 46.4492C113.296 46.194 113.439 45.8294 113.439 45.3555C113.439 44.8678 113.296 44.4736 113.009 44.1729C112.722 43.8721 112.325 43.7171 111.819 43.708H109.939V46.832ZM120.952 46.4561C120.683 46.4196 120.446 46.4014 120.241 46.4014C119.494 46.4014 119.004 46.6543 118.771 47.1602V52H116.796V44.6035H118.662L118.717 45.4854C119.113 44.8063 119.662 44.4668 120.364 44.4668C120.583 44.4668 120.788 44.4964 120.979 44.5557L120.952 46.4561ZM121.355 48.2334C121.355 47.4997 121.497 46.8457 121.779 46.2715C122.062 45.6973 122.467 45.2529 122.996 44.9385C123.529 44.624 124.147 44.4668 124.849 44.4668C125.847 44.4668 126.66 44.7721 127.289 45.3828C127.923 45.9935 128.276 46.8229 128.349 47.8711L128.362 48.377C128.362 49.5117 128.046 50.4232 127.412 51.1113C126.779 51.7949 125.929 52.1367 124.862 52.1367C123.796 52.1367 122.944 51.7949 122.306 51.1113C121.672 50.4277 121.355 49.498 121.355 48.3223V48.2334ZM123.331 48.377C123.331 49.0788 123.463 49.6165 123.728 49.9902C123.992 50.3594 124.37 50.5439 124.862 50.5439C125.341 50.5439 125.715 50.3617 125.983 49.9971C126.252 49.6279 126.387 49.04 126.387 48.2334C126.387 47.5452 126.252 47.012 125.983 46.6338C125.715 46.2555 125.336 46.0664 124.849 46.0664C124.366 46.0664 123.992 46.2555 123.728 46.6338C123.463 47.0075 123.331 47.5885 123.331 48.377ZM136.244 48.3701C136.244 49.555 135.991 50.4801 135.485 51.1455C134.979 51.8063 134.273 52.1367 133.366 52.1367C132.564 52.1367 131.924 51.8291 131.445 51.2139L131.356 52H129.579V41.5H131.555V45.2666C132.01 44.7334 132.61 44.4668 133.353 44.4668C134.255 44.4668 134.961 44.7995 135.472 45.4648C135.987 46.1257 136.244 47.0576 136.244 48.2607V48.3701ZM134.269 48.2266C134.269 47.4792 134.15 46.9346 133.913 46.5928C133.676 46.2464 133.323 46.0732 132.854 46.0732C132.225 46.0732 131.792 46.3307 131.555 46.8457V49.7646C131.796 50.2842 132.234 50.5439 132.867 50.5439C133.505 50.5439 133.924 50.2295 134.125 49.6006C134.221 49.2998 134.269 48.8418 134.269 48.2266ZM139.553 52H137.57V41.5H139.553V52ZM144.591 52.1367C143.506 52.1367 142.622 51.804 141.938 51.1387C141.259 50.4733 140.92 49.5869 140.92 48.4795V48.2881C140.92 47.5452 141.063 46.8822 141.351 46.2988C141.638 45.7109 142.043 45.2598 142.567 44.9453C143.096 44.6263 143.698 44.4668 144.372 44.4668C145.384 44.4668 146.179 44.7858 146.758 45.4238C147.341 46.0618 147.633 46.9665 147.633 48.1377V48.9443H142.923C142.987 49.4274 143.178 49.8148 143.497 50.1064C143.821 50.3981 144.229 50.5439 144.721 50.5439C145.482 50.5439 146.076 50.2682 146.505 49.7168L147.476 50.8037C147.179 51.223 146.778 51.5511 146.272 51.7881C145.767 52.0205 145.206 52.1367 144.591 52.1367ZM144.365 46.0664C143.973 46.0664 143.654 46.1986 143.408 46.4629C143.167 46.7272 143.012 47.1055 142.943 47.5977H145.691V47.4404C145.682 47.0029 145.564 46.6657 145.336 46.4287C145.108 46.1872 144.785 46.0664 144.365 46.0664ZM150.613 44.6035L150.675 45.4307C151.199 44.7881 151.908 44.4668 152.801 44.4668C153.753 44.4668 154.407 44.8428 154.763 45.5947C155.282 44.8428 156.023 44.4668 156.984 44.4668C157.786 44.4668 158.383 44.7015 158.775 45.1709C159.167 45.6357 159.363 46.3376 159.363 47.2764V52H157.381V47.2832C157.381 46.8639 157.299 46.5586 157.135 46.3672C156.971 46.1712 156.681 46.0732 156.267 46.0732C155.674 46.0732 155.264 46.3558 155.036 46.9209L155.043 52H153.067V47.29C153.067 46.8617 152.983 46.5518 152.814 46.3604C152.646 46.1689 152.359 46.0732 151.953 46.0732C151.393 46.0732 150.987 46.3057 150.736 46.7705V52H148.761V44.6035H150.613ZM169.665 49.3887C169.665 49.0013 169.528 48.7051 169.255 48.5C168.981 48.2904 168.489 48.0716 167.778 47.8438C167.067 47.6113 166.505 47.3835 166.09 47.1602C164.96 46.5495 164.395 45.7269 164.395 44.6924C164.395 44.1546 164.545 43.6761 164.846 43.2568C165.151 42.833 165.586 42.5026 166.151 42.2656C166.721 42.0286 167.359 41.9102 168.065 41.9102C168.776 41.9102 169.41 42.04 169.966 42.2998C170.522 42.555 170.952 42.9173 171.258 43.3867C171.568 43.8561 171.723 44.3893 171.723 44.9863H169.672C169.672 44.5306 169.528 44.1774 169.241 43.9268C168.954 43.6715 168.551 43.5439 168.031 43.5439C167.53 43.5439 167.14 43.651 166.862 43.8652C166.584 44.0749 166.445 44.3529 166.445 44.6992C166.445 45.0228 166.607 45.2939 166.931 45.5127C167.259 45.7314 167.74 45.9365 168.373 46.1279C169.54 46.4788 170.39 46.9141 170.923 47.4336C171.456 47.9531 171.723 48.6003 171.723 49.375C171.723 50.2363 171.397 50.9131 170.745 51.4053C170.093 51.8929 169.216 52.1367 168.113 52.1367C167.348 52.1367 166.65 51.9977 166.021 51.7197C165.393 51.4372 164.912 51.0521 164.579 50.5645C164.251 50.0768 164.087 49.5117 164.087 48.8691H166.145C166.145 49.9674 166.801 50.5166 168.113 50.5166C168.601 50.5166 168.981 50.4186 169.255 50.2227C169.528 50.0221 169.665 49.7441 169.665 49.3887ZM176.063 50.5439C176.428 50.5439 176.724 50.4437 176.952 50.2432C177.18 50.0426 177.299 49.776 177.308 49.4434H179.16C179.156 49.9447 179.019 50.4049 178.75 50.8242C178.481 51.2389 178.112 51.5625 177.643 51.7949C177.178 52.0228 176.663 52.1367 176.098 52.1367C175.04 52.1367 174.206 51.8018 173.596 51.1318C172.985 50.4574 172.68 49.5277 172.68 48.3428V48.2129C172.68 47.0736 172.983 46.1644 173.589 45.4854C174.195 44.8063 175.027 44.4668 176.084 44.4668C177.009 44.4668 177.75 44.7311 178.306 45.2598C178.866 45.7839 179.151 46.4834 179.16 47.3584H177.308C177.299 46.9756 177.18 46.6657 176.952 46.4287C176.724 46.1872 176.424 46.0664 176.05 46.0664C175.59 46.0664 175.241 46.235 175.004 46.5723C174.771 46.9049 174.655 47.4473 174.655 48.1992V48.4043C174.655 49.1654 174.771 49.7122 175.004 50.0449C175.236 50.3776 175.59 50.5439 176.063 50.5439ZM179.98 48.2334C179.98 47.4997 180.122 46.8457 180.404 46.2715C180.687 45.6973 181.092 45.2529 181.621 44.9385C182.154 44.624 182.772 44.4668 183.474 44.4668C184.472 44.4668 185.285 44.7721 185.914 45.3828C186.548 45.9935 186.901 46.8229 186.974 47.8711L186.987 48.377C186.987 49.5117 186.671 50.4232 186.037 51.1113C185.404 51.7949 184.554 52.1367 183.487 52.1367C182.421 52.1367 181.569 51.7949 180.931 51.1113C180.297 50.4277 179.98 49.498 179.98 48.3223V48.2334ZM181.956 48.377C181.956 49.0788 182.088 49.6165 182.353 49.9902C182.617 50.3594 182.995 50.5439 183.487 50.5439C183.966 50.5439 184.34 50.3617 184.608 49.9971C184.877 49.6279 185.012 49.04 185.012 48.2334C185.012 47.5452 184.877 47.012 184.608 46.6338C184.34 46.2555 183.961 46.0664 183.474 46.0664C182.991 46.0664 182.617 46.2555 182.353 46.6338C182.088 47.0075 181.956 47.5885 181.956 48.377ZM194.862 48.3701C194.862 49.5094 194.603 50.4232 194.083 51.1113C193.568 51.7949 192.871 52.1367 191.991 52.1367C191.244 52.1367 190.64 51.877 190.18 51.3574V54.8438H188.204V44.6035H190.036L190.104 45.3281C190.583 44.7539 191.207 44.4668 191.978 44.4668C192.889 44.4668 193.598 44.804 194.104 45.4785C194.609 46.153 194.862 47.0827 194.862 48.2676V48.3701ZM192.887 48.2266C192.887 47.5384 192.764 47.0075 192.518 46.6338C192.276 46.2601 191.923 46.0732 191.458 46.0732C190.838 46.0732 190.412 46.3102 190.18 46.7842V49.8125C190.421 50.3001 190.852 50.5439 191.472 50.5439C192.415 50.5439 192.887 49.7715 192.887 48.2266ZM198.178 52H196.195V44.6035H198.178V52ZM196.079 42.6895C196.079 42.3932 196.177 42.1494 196.373 41.958C196.574 41.7666 196.845 41.6709 197.187 41.6709C197.524 41.6709 197.793 41.7666 197.993 41.958C198.194 42.1494 198.294 42.3932 198.294 42.6895C198.294 42.9902 198.191 43.2363 197.986 43.4277C197.786 43.6191 197.519 43.7148 197.187 43.7148C196.854 43.7148 196.585 43.6191 196.38 43.4277C196.179 43.2363 196.079 42.9902 196.079 42.6895ZM201.63 44.6035L201.691 45.458C202.22 44.7972 202.929 44.4668 203.817 44.4668C204.601 44.4668 205.185 44.6969 205.567 45.1572C205.95 45.6175 206.146 46.3057 206.155 47.2217V52H204.18V47.2695C204.18 46.8503 204.089 46.5472 203.906 46.3604C203.724 46.1689 203.421 46.0732 202.997 46.0732C202.441 46.0732 202.024 46.3102 201.746 46.7842V52H199.771V44.6035H201.63ZM207.372 48.2471C207.372 47.1123 207.641 46.1986 208.179 45.5059C208.721 44.8132 209.45 44.4668 210.366 44.4668C211.177 44.4668 211.809 44.7448 212.26 45.3008L212.342 44.6035H214.133V51.7539C214.133 52.401 213.985 52.9639 213.688 53.4424C213.397 53.9209 212.984 54.2855 212.451 54.5361C211.918 54.7868 211.294 54.9121 210.578 54.9121C210.036 54.9121 209.507 54.8027 208.992 54.584C208.477 54.3698 208.088 54.0918 207.823 53.75L208.698 52.5469C209.19 53.0983 209.787 53.374 210.489 53.374C211.013 53.374 211.421 53.2327 211.713 52.9502C212.005 52.6722 212.15 52.2757 212.15 51.7607V51.3643C211.695 51.8792 211.095 52.1367 210.353 52.1367C209.464 52.1367 208.744 51.7904 208.192 51.0977C207.646 50.4004 207.372 49.4775 207.372 48.3291V48.2471ZM209.348 48.3906C209.348 49.0605 209.482 49.5869 209.751 49.9697C210.02 50.348 210.389 50.5371 210.858 50.5371C211.46 50.5371 211.891 50.3115 212.15 49.8604V46.75C211.886 46.2988 211.46 46.0732 210.872 46.0732C210.398 46.0732 210.024 46.2669 209.751 46.6543C209.482 47.0417 209.348 47.6204 209.348 48.3906Z" fill="#657B83"/>
<path d="M461.121 126.08H465.164V127H459.99V118.469H461.121V126.08ZM471.152 123.232H467.572V127H466.447V118.469H471.732V119.395H467.572V122.312H471.152V123.232ZM477.896 124.311L478.061 125.436L478.301 124.422L479.988 118.469H480.938L482.584 124.422L482.818 125.453L483 124.305L484.324 118.469H485.455L483.387 127H482.361L480.604 120.783L480.469 120.133L480.334 120.783L478.512 127H477.486L475.424 118.469H476.549L477.896 124.311ZM487.717 127H486.633V120.66H487.717V127ZM486.545 118.979C486.545 118.803 486.598 118.654 486.703 118.533C486.812 118.412 486.973 118.352 487.184 118.352C487.395 118.352 487.555 118.412 487.664 118.533C487.773 118.654 487.828 118.803 487.828 118.979C487.828 119.154 487.773 119.301 487.664 119.418C487.555 119.535 487.395 119.594 487.184 119.594C486.973 119.594 486.812 119.535 486.703 119.418C486.598 119.301 486.545 119.154 486.545 118.979ZM492.521 121.633C492.357 121.605 492.18 121.592 491.988 121.592C491.277 121.592 490.795 121.895 490.541 122.5V127H489.457V120.66H490.512L490.529 121.393C490.885 120.826 491.389 120.543 492.041 120.543C492.252 120.543 492.412 120.57 492.521 120.625V121.633ZM496.037 127.117C495.178 127.117 494.479 126.836 493.939 126.273C493.4 125.707 493.131 124.951 493.131 124.006V123.807C493.131 123.178 493.25 122.617 493.488 122.125C493.73 121.629 494.066 121.242 494.496 120.965C494.93 120.684 495.398 120.543 495.902 120.543C496.727 120.543 497.367 120.814 497.824 121.357C498.281 121.9 498.51 122.678 498.51 123.689V124.141H494.215C494.23 124.766 494.412 125.271 494.76 125.658C495.111 126.041 495.557 126.232 496.096 126.232C496.479 126.232 496.803 126.154 497.068 125.998C497.334 125.842 497.566 125.635 497.766 125.377L498.428 125.893C497.896 126.709 497.1 127.117 496.037 127.117ZM495.902 121.434C495.465 121.434 495.098 121.594 494.801 121.914C494.504 122.23 494.32 122.676 494.25 123.25H497.426V123.168C497.395 122.617 497.246 122.191 496.98 121.891C496.715 121.586 496.355 121.434 495.902 121.434ZM500.303 127V121.498H499.301V120.66H500.303V120.01C500.303 119.33 500.484 118.805 500.848 118.434C501.211 118.062 501.725 117.877 502.389 117.877C502.639 117.877 502.887 117.91 503.133 117.977L503.074 118.855C502.891 118.82 502.695 118.803 502.488 118.803C502.137 118.803 501.865 118.906 501.674 119.113C501.482 119.316 501.387 119.609 501.387 119.992V120.66H502.74V121.498H501.387V127H500.303ZM507.006 121.633C506.842 121.605 506.664 121.592 506.473 121.592C505.762 121.592 505.279 121.895 505.025 122.5V127H503.941V120.66H504.996L505.014 121.393C505.369 120.826 505.873 120.543 506.525 120.543C506.736 120.543 506.896 120.57 507.006 120.625V121.633ZM511.688 127C511.625 126.875 511.574 126.652 511.535 126.332C511.031 126.855 510.43 127.117 509.73 127.117C509.105 127.117 508.592 126.941 508.189 126.59C507.791 126.234 507.592 125.785 507.592 125.242C507.592 124.582 507.842 124.07 508.342 123.707C508.846 123.34 509.553 123.156 510.463 123.156H511.518V122.658C511.518 122.279 511.404 121.979 511.178 121.756C510.951 121.529 510.617 121.416 510.176 121.416C509.789 121.416 509.465 121.514 509.203 121.709C508.941 121.904 508.811 122.141 508.811 122.418H507.721C507.721 122.102 507.832 121.797 508.055 121.504C508.281 121.207 508.586 120.973 508.969 120.801C509.355 120.629 509.779 120.543 510.24 120.543C510.971 120.543 511.543 120.727 511.957 121.094C512.371 121.457 512.586 121.959 512.602 122.6V125.518C512.602 126.1 512.676 126.562 512.824 126.906V127H511.688ZM509.889 126.174C510.229 126.174 510.551 126.086 510.855 125.91C511.16 125.734 511.381 125.506 511.518 125.225V123.924H510.668C509.34 123.924 508.676 124.312 508.676 125.09C508.676 125.43 508.789 125.695 509.016 125.887C509.242 126.078 509.533 126.174 509.889 126.174ZM515.32 120.66L515.35 121.363C515.814 120.816 516.441 120.543 517.23 120.543C518.117 120.543 518.721 120.883 519.041 121.562C519.252 121.258 519.525 121.012 519.861 120.824C520.201 120.637 520.602 120.543 521.062 120.543C522.453 120.543 523.16 121.279 523.184 122.752V127H522.1V122.816C522.1 122.363 521.996 122.025 521.789 121.803C521.582 121.576 521.234 121.463 520.746 121.463C520.344 121.463 520.01 121.584 519.744 121.826C519.479 122.064 519.324 122.387 519.281 122.793V127H518.191V122.846C518.191 121.924 517.74 121.463 516.838 121.463C516.127 121.463 515.641 121.766 515.379 122.371V127H514.295V120.66H515.32ZM526.002 127H524.918V120.66H526.002V127ZM524.83 118.979C524.83 118.803 524.883 118.654 524.988 118.533C525.098 118.412 525.258 118.352 525.469 118.352C525.68 118.352 525.84 118.412 525.949 118.533C526.059 118.654 526.113 118.803 526.113 118.979C526.113 119.154 526.059 119.301 525.949 119.418C525.84 119.535 525.68 119.594 525.469 119.594C525.258 119.594 525.098 119.535 524.988 119.418C524.883 119.301 524.83 119.154 524.83 118.979ZM528.768 120.66L528.803 121.457C529.287 120.848 529.92 120.543 530.701 120.543C532.041 120.543 532.717 121.299 532.729 122.811V127H531.645V122.805C531.641 122.348 531.535 122.01 531.328 121.791C531.125 121.572 530.807 121.463 530.373 121.463C530.021 121.463 529.713 121.557 529.447 121.744C529.182 121.932 528.975 122.178 528.826 122.482V127H527.742V120.66H528.768ZM534.105 123.777C534.105 122.789 534.334 122.004 534.791 121.422C535.248 120.836 535.854 120.543 536.607 120.543C537.381 120.543 537.984 120.816 538.418 121.363L538.471 120.66H539.461V126.848C539.461 127.668 539.217 128.314 538.729 128.787C538.244 129.26 537.592 129.496 536.771 129.496C536.314 129.496 535.867 129.398 535.43 129.203C534.992 129.008 534.658 128.74 534.428 128.4L534.99 127.75C535.455 128.324 536.023 128.611 536.695 128.611C537.223 128.611 537.633 128.463 537.926 128.166C538.223 127.869 538.371 127.451 538.371 126.912V126.367C537.938 126.867 537.346 127.117 536.596 127.117C535.854 127.117 535.252 126.818 534.791 126.221C534.334 125.623 534.105 124.809 534.105 123.777ZM535.195 123.9C535.195 124.615 535.342 125.178 535.635 125.588C535.928 125.994 536.338 126.197 536.865 126.197C537.549 126.197 538.051 125.887 538.371 125.266V122.371C538.039 121.766 537.541 121.463 536.877 121.463C536.35 121.463 535.938 121.668 535.641 122.078C535.344 122.488 535.195 123.096 535.195 123.9Z" fill="black"/>
<path d="M392.996 118.469V124.27C392.992 125.074 392.738 125.732 392.234 126.244C391.734 126.756 391.055 127.043 390.195 127.105L389.896 127.117C388.963 127.117 388.219 126.865 387.664 126.361C387.109 125.857 386.828 125.164 386.82 124.281V118.469H387.934V124.246C387.934 124.863 388.104 125.344 388.443 125.688C388.783 126.027 389.268 126.197 389.896 126.197C390.533 126.197 391.02 126.027 391.355 125.688C391.695 125.348 391.865 124.869 391.865 124.252V118.469H392.996ZM398.293 125.318C398.293 125.025 398.182 124.799 397.959 124.639C397.74 124.475 397.355 124.334 396.805 124.217C396.258 124.1 395.822 123.959 395.498 123.795C395.178 123.631 394.939 123.436 394.783 123.209C394.631 122.982 394.555 122.713 394.555 122.4C394.555 121.881 394.773 121.441 395.211 121.082C395.652 120.723 396.215 120.543 396.898 120.543C397.617 120.543 398.199 120.729 398.645 121.1C399.094 121.471 399.318 121.945 399.318 122.523H398.229C398.229 122.227 398.102 121.971 397.848 121.756C397.598 121.541 397.281 121.434 396.898 121.434C396.504 121.434 396.195 121.52 395.973 121.691C395.75 121.863 395.639 122.088 395.639 122.365C395.639 122.627 395.742 122.824 395.949 122.957C396.156 123.09 396.529 123.217 397.068 123.338C397.611 123.459 398.051 123.604 398.387 123.771C398.723 123.939 398.971 124.143 399.131 124.381C399.295 124.615 399.377 124.902 399.377 125.242C399.377 125.809 399.15 126.264 398.697 126.607C398.244 126.947 397.656 127.117 396.934 127.117C396.426 127.117 395.977 127.027 395.586 126.848C395.195 126.668 394.889 126.418 394.666 126.098C394.447 125.773 394.338 125.424 394.338 125.049H395.422C395.441 125.412 395.586 125.701 395.855 125.916C396.129 126.127 396.488 126.232 396.934 126.232C397.344 126.232 397.672 126.15 397.918 125.986C398.168 125.818 398.293 125.596 398.293 125.318ZM403.42 127.117C402.561 127.117 401.861 126.836 401.322 126.273C400.783 125.707 400.514 124.951 400.514 124.006V123.807C400.514 123.178 400.633 122.617 400.871 122.125C401.113 121.629 401.449 121.242 401.879 120.965C402.312 120.684 402.781 120.543 403.285 120.543C404.109 120.543 404.75 120.814 405.207 121.357C405.664 121.9 405.893 122.678 405.893 123.689V124.141H401.598C401.613 124.766 401.795 125.271 402.143 125.658C402.494 126.041 402.939 126.232 403.479 126.232C403.861 126.232 404.186 126.154 404.451 125.998C404.717 125.842 404.949 125.635 405.148 125.377L405.811 125.893C405.279 126.709 404.482 127.117 403.42 127.117ZM403.285 121.434C402.848 121.434 402.48 121.594 402.184 121.914C401.887 122.23 401.703 122.676 401.633 123.25H404.809V123.168C404.777 122.617 404.629 122.191 404.363 121.891C404.098 121.586 403.738 121.434 403.285 121.434ZM410.217 121.633C410.053 121.605 409.875 121.592 409.684 121.592C408.973 121.592 408.49 121.895 408.236 122.5V127H407.152V120.66H408.207L408.225 121.393C408.58 120.826 409.084 120.543 409.736 120.543C409.947 120.543 410.107 120.57 410.217 120.625V121.633ZM418.156 118.92C417.672 118.842 417.281 118.803 416.984 118.803C416.203 118.803 415.812 119.213 415.812 120.033V120.66H417.166V121.498H415.812V127H414.729V121.498H413.727V120.66H414.729V119.969C414.732 119.293 414.922 118.775 415.297 118.416C415.672 118.057 416.205 117.877 416.896 117.877C417.291 117.877 418.072 117.996 419.24 118.234V127H418.156V118.92ZM420.729 123.771C420.729 123.15 420.85 122.592 421.092 122.096C421.338 121.6 421.678 121.217 422.111 120.947C422.549 120.678 423.047 120.543 423.605 120.543C424.469 120.543 425.166 120.842 425.697 121.439C426.232 122.037 426.5 122.832 426.5 123.824V123.9C426.5 124.518 426.381 125.072 426.143 125.564C425.908 126.053 425.57 126.434 425.129 126.707C424.691 126.98 424.188 127.117 423.617 127.117C422.758 127.117 422.061 126.818 421.525 126.221C420.994 125.623 420.729 124.832 420.729 123.848V123.771ZM421.818 123.9C421.818 124.604 421.98 125.168 422.305 125.594C422.633 126.02 423.07 126.232 423.617 126.232C424.168 126.232 424.605 126.018 424.93 125.588C425.254 125.154 425.416 124.549 425.416 123.771C425.416 123.076 425.25 122.514 424.918 122.084C424.59 121.65 424.152 121.434 423.605 121.434C423.07 121.434 422.639 121.646 422.311 122.072C421.982 122.498 421.818 123.107 421.818 123.9ZM433.473 125.506L434.691 120.66H435.775L433.93 127H433.051L431.51 122.195L430.01 127H429.131L427.291 120.66H428.369L429.617 125.406L431.094 120.66H431.967L433.473 125.506Z" fill="black"/>
<path d="M649.547 128H648.416V124.057H644.115V128H642.99V119.469H644.115V123.137H648.416V119.469H649.547V128ZM656.25 124.232H652.67V128H651.545V119.469H656.83V120.395H652.67V123.312H656.25V124.232ZM662.994 125.311L663.158 126.436L663.398 125.422L665.086 119.469H666.035L667.682 125.422L667.916 126.453L668.098 125.305L669.422 119.469H670.553L668.484 128H667.459L665.701 121.783L665.566 121.133L665.432 121.783L663.609 128H662.584L660.521 119.469H661.646L662.994 125.311ZM672.814 128H671.73V121.66H672.814V128ZM671.643 119.979C671.643 119.803 671.695 119.654 671.801 119.533C671.91 119.412 672.07 119.352 672.281 119.352C672.492 119.352 672.652 119.412 672.762 119.533C672.871 119.654 672.926 119.803 672.926 119.979C672.926 120.154 672.871 120.301 672.762 120.418C672.652 120.535 672.492 120.594 672.281 120.594C672.07 120.594 671.91 120.535 671.801 120.418C671.695 120.301 671.643 120.154 671.643 119.979ZM677.619 122.633C677.455 122.605 677.277 122.592 677.086 122.592C676.375 122.592 675.893 122.895 675.639 123.5V128H674.555V121.66H675.609L675.627 122.393C675.982 121.826 676.486 121.543 677.139 121.543C677.35 121.543 677.51 121.57 677.619 121.625V122.633ZM681.135 128.117C680.275 128.117 679.576 127.836 679.037 127.273C678.498 126.707 678.229 125.951 678.229 125.006V124.807C678.229 124.178 678.348 123.617 678.586 123.125C678.828 122.629 679.164 122.242 679.594 121.965C680.027 121.684 680.496 121.543 681 121.543C681.824 121.543 682.465 121.814 682.922 122.357C683.379 122.9 683.607 123.678 683.607 124.689V125.141H679.312C679.328 125.766 679.51 126.271 679.857 126.658C680.209 127.041 680.654 127.232 681.193 127.232C681.576 127.232 681.9 127.154 682.166 126.998C682.432 126.842 682.664 126.635 682.863 126.377L683.525 126.893C682.994 127.709 682.197 128.117 681.135 128.117ZM681 122.434C680.562 122.434 680.195 122.594 679.898 122.914C679.602 123.23 679.418 123.676 679.348 124.25H682.523V124.168C682.492 123.617 682.344 123.191 682.078 122.891C681.812 122.586 681.453 122.434 681 122.434ZM685.4 128V122.498H684.398V121.66H685.4V121.01C685.4 120.33 685.582 119.805 685.945 119.434C686.309 119.062 686.822 118.877 687.486 118.877C687.736 118.877 687.984 118.91 688.23 118.977L688.172 119.855C687.988 119.82 687.793 119.803 687.586 119.803C687.234 119.803 686.963 119.906 686.771 120.113C686.58 120.316 686.484 120.609 686.484 120.992V121.66H687.838V122.498H686.484V128H685.4ZM692.953 128C692.891 127.875 692.84 127.652 692.801 127.332C692.297 127.855 691.695 128.117 690.996 128.117C690.371 128.117 689.857 127.941 689.455 127.59C689.057 127.234 688.857 126.785 688.857 126.242C688.857 125.582 689.107 125.07 689.607 124.707C690.111 124.34 690.818 124.156 691.729 124.156H692.783V123.658C692.783 123.279 692.67 122.979 692.443 122.756C692.217 122.529 691.883 122.416 691.441 122.416C691.055 122.416 690.73 122.514 690.469 122.709C690.207 122.904 690.076 123.141 690.076 123.418H688.986C688.986 123.102 689.098 122.797 689.32 122.504C689.547 122.207 689.852 121.973 690.234 121.801C690.621 121.629 691.045 121.543 691.506 121.543C692.236 121.543 692.809 121.727 693.223 122.094C693.637 122.457 693.852 122.959 693.867 123.6V126.518C693.867 127.1 693.941 127.562 694.09 127.906V128H692.953ZM691.154 127.174C691.494 127.174 691.816 127.086 692.121 126.91C692.426 126.734 692.646 126.506 692.783 126.225V124.924H691.934C690.605 124.924 689.941 125.312 689.941 126.09C689.941 126.43 690.055 126.695 690.281 126.887C690.508 127.078 690.799 127.174 691.154 127.174ZM696.586 121.66L696.615 122.363C697.08 121.816 697.707 121.543 698.496 121.543C699.383 121.543 699.986 121.883 700.307 122.562C700.518 122.258 700.791 122.012 701.127 121.824C701.467 121.637 701.867 121.543 702.328 121.543C703.719 121.543 704.426 122.279 704.449 123.752V128H703.365V123.816C703.365 123.363 703.262 123.025 703.055 122.803C702.848 122.576 702.5 122.463 702.012 122.463C701.609 122.463 701.275 122.584 701.01 122.826C700.744 123.064 700.59 123.387 700.547 123.793V128H699.457V123.846C699.457 122.924 699.006 122.463 698.104 122.463C697.393 122.463 696.906 122.766 696.645 123.371V128H695.561V121.66H696.586ZM707.268 128H706.184V121.66H707.268V128ZM706.096 119.979C706.096 119.803 706.148 119.654 706.254 119.533C706.363 119.412 706.523 119.352 706.734 119.352C706.945 119.352 707.105 119.412 707.215 119.533C707.324 119.654 707.379 119.803 707.379 119.979C707.379 120.154 707.324 120.301 707.215 120.418C707.105 120.535 706.945 120.594 706.734 120.594C706.523 120.594 706.363 120.535 706.254 120.418C706.148 120.301 706.096 120.154 706.096 119.979ZM710.033 121.66L710.068 122.457C710.553 121.848 711.186 121.543 711.967 121.543C713.307 121.543 713.982 122.299 713.994 123.811V128H712.91V123.805C712.906 123.348 712.801 123.01 712.594 122.791C712.391 122.572 712.072 122.463 711.639 122.463C711.287 122.463 710.979 122.557 710.713 122.744C710.447 122.932 710.24 123.178 710.092 123.482V128H709.008V121.66H710.033ZM715.371 124.777C715.371 123.789 715.6 123.004 716.057 122.422C716.514 121.836 717.119 121.543 717.873 121.543C718.646 121.543 719.25 121.816 719.684 122.363L719.736 121.66H720.727V127.848C720.727 128.668 720.482 129.314 719.994 129.787C719.51 130.26 718.857 130.496 718.037 130.496C717.58 130.496 717.133 130.398 716.695 130.203C716.258 130.008 715.924 129.74 715.693 129.4L716.256 128.75C716.721 129.324 717.289 129.611 717.961 129.611C718.488 129.611 718.898 129.463 719.191 129.166C719.488 128.869 719.637 128.451 719.637 127.912V127.367C719.203 127.867 718.611 128.117 717.861 128.117C717.119 128.117 716.518 127.818 716.057 127.221C715.6 126.623 715.371 125.809 715.371 124.777ZM716.461 124.9C716.461 125.615 716.607 126.178 716.9 126.588C717.193 126.994 717.604 127.197 718.131 127.197C718.814 127.197 719.316 126.887 719.637 126.266V123.371C719.305 122.766 718.807 122.463 718.143 122.463C717.615 122.463 717.203 122.668 716.906 123.078C716.609 123.488 716.461 124.096 716.461 124.9Z" fill="black"/>
<path d="M166 81H152C150.9 81 150 81.9 150 83V97C150 98.1 150.9 99 152 99H166C167.1 99 168 98.1 168 97V83C168 81.9 167.1 81 166 81ZM156 95H154V88H156V95ZM160 95H158V85H160V95ZM164 95H162V91H164V95Z" fill="#657B83"/>
<path d="M64 83H59.82C59.4 81.84 58.3 81 57 81C55.7 81 54.6 81.84 54.18 83H50C48.9 83 48 83.9 48 85V99C48 100.1 48.9 101 50 101H64C65.1 101 66 100.1 66 99V85C66 83.9 65.1 83 64 83ZM57 83C57.55 83 58 83.45 58 84C58 84.55 57.55 85 57 85C56.45 85 56 84.55 56 84C56 83.45 56.45 83 57 83ZM59 97H52V95H59V97ZM62 93H52V91H62V93ZM62 89H52V87H62V89Z" fill="#657B83"/>
<path d="M676.52 104.48C673.25 102.94 670.91 99.76 670.55 96H669.05C669.56 102.16 674.71 107 681 107L681.66 106.97L677.85 103.16L676.52 104.48ZM677.41 97.96C677.22 97.96 677.04 97.93 676.89 97.88C676.73 97.82 676.6 97.75 676.49 97.64C676.38 97.54 676.29 97.42 676.23 97.27C676.17 97.13 676.14 96.97 676.14 96.8H674.84C674.84 97.16 674.91 97.48 675.05 97.75C675.19 98.02 675.38 98.25 675.61 98.44C675.85 98.62 676.12 98.76 676.43 98.85C676.73 98.95 677.05 99 677.39 99C677.76 99 678.11 98.95 678.42 98.85C678.74 98.75 679.02 98.6 679.25 98.41C679.48 98.22 679.67 97.98 679.8 97.69C679.93 97.4 680 97.08 680 96.72C680 96.53 679.98 96.34 679.93 96.16C679.88 95.98 679.81 95.81 679.7 95.65C679.6 95.49 679.46 95.35 679.3 95.22C679.13 95.09 678.93 94.99 678.69 94.91C678.89 94.82 679.06 94.71 679.21 94.58C679.36 94.45 679.48 94.31 679.58 94.16C679.68 94.01 679.75 93.86 679.8 93.7C679.85 93.54 679.87 93.38 679.87 93.22C679.87 92.86 679.81 92.54 679.69 92.26C679.57 91.98 679.4 91.75 679.18 91.57C678.98 91.38 678.71 91.24 678.41 91.14C678.1 91.05 677.76 91 677.39 91C677.03 91 676.7 91.05 676.39 91.16C676.09 91.27 675.82 91.42 675.6 91.61C675.39 91.8 675.22 92.02 675.09 92.28C674.97 92.54 674.91 92.82 674.91 93.13H676.21C676.21 92.96 676.24 92.81 676.3 92.68C676.36 92.55 676.44 92.43 676.55 92.34C676.66 92.25 676.78 92.17 676.93 92.12C677.08 92.07 677.23 92.04 677.41 92.04C677.81 92.04 678.11 92.14 678.3 92.35C678.49 92.55 678.59 92.84 678.59 93.21C678.59 93.39 678.56 93.55 678.51 93.7C678.46 93.85 678.37 93.97 678.26 94.07C678.15 94.17 678.01 94.25 677.85 94.31C677.69 94.37 677.49 94.4 677.27 94.4H676.5V95.43H677.27C677.49 95.43 677.69 95.45 677.87 95.5C678.05 95.55 678.2 95.63 678.32 95.73C678.44 95.84 678.54 95.97 678.61 96.13C678.68 96.29 678.71 96.48 678.71 96.7C678.71 97.11 678.59 97.42 678.36 97.63C678.13 97.86 677.81 97.96 677.41 97.96ZM685.96 92.04C685.64 91.71 685.26 91.45 684.82 91.27C684.39 91.09 683.9 91 683.36 91H681V99H683.3C683.85 99 684.36 98.91 684.81 98.73C685.26 98.55 685.65 98.3 685.97 97.97C686.29 97.64 686.54 97.24 686.71 96.78C686.88 96.31 686.97 95.79 686.97 95.21V94.81C686.97 94.23 686.88 93.71 686.71 93.24C686.53 92.77 686.28 92.37 685.96 92.04ZM685.57 95.2C685.57 95.62 685.52 95.99 685.43 96.33C685.33 96.66 685.19 96.95 685 97.18C684.81 97.41 684.57 97.59 684.29 97.71C684 97.83 683.67 97.89 683.3 97.89H682.39V92.12H683.36C684.08 92.12 684.63 92.35 685 92.81C685.38 93.27 685.57 93.93 685.57 94.8V95.2ZM681 83L680.34 83.03L684.15 86.84L685.48 85.51C688.75 87.06 691.09 90.23 691.44 93.99H692.94C692.44 87.84 687.29 83 681 83Z" fill="#657B83"/>
<path d="M495 102H507L501 96L495 102ZM510 83H492C490.9 83 490 83.9 490 85V97C490 98.1 490.9 99 492 99H496V97H492V85H510V97H506V99H510C511.1 99 512 98.1 512 97V85C512 83.9 511.1 83 510 83Z" fill="#657B83"/>
<path d="M269.5 83C266.89 83.7 263.83 84 261 84C258.17 84 255.11 83.7 252.5 83L252 85C253.86 85.5 256 85.83 258 86V99H260V93H262V99H264V86C266 85.83 268.14 85.5 270 85L269.5 83ZM261 83C262.1 83 263 82.1 263 81C263 79.9 262.1 79 261 79C259.9 79 259 79.9 259 81C259 82.1 259.9 83 261 83Z" fill="#657B83"/>
<line x1="73" y1="157" x2="231" y2="157" stroke="#E5E5E5" stroke-width="2"/>
<line x1="378" y1="157" x2="536" y2="157" stroke="#E5E5E5" stroke-width="2"/>
<line x1="600" y1="157" x2="758" y2="157" stroke="#E5E5E5" stroke-width="2"/>
<path d="M416.839 89H405V91H416.839V94L420.772 90L416.839 86V89Z" fill="#657B83"/>
</svg>
