<svg width="772" height="184" viewBox="0 0 772 184" fill="none" xmlns="http://www.w3.org/2000/svg">
<rect width="772" height="184" fill="white"/>
<path d="M159.996 119.469V125.27C159.992 126.074 159.738 126.732 159.234 127.244C158.734 127.756 158.055 128.043 157.195 128.105L156.896 128.117C155.963 128.117 155.219 127.865 154.664 127.361C154.109 126.857 153.828 126.164 153.82 125.281V119.469H154.934V125.246C154.934 125.863 155.104 126.344 155.443 126.688C155.783 127.027 156.268 127.197 156.896 127.197C157.533 127.197 158.02 127.027 158.355 126.688C158.695 126.348 158.865 125.869 158.865 125.252V119.469H159.996ZM165.293 126.318C165.293 126.025 165.182 125.799 164.959 125.639C164.74 125.475 164.355 125.334 163.805 125.217C163.258 125.1 162.822 124.959 162.498 124.795C162.178 124.631 161.939 124.436 161.783 124.209C161.631 123.982 161.555 123.713 161.555 123.4C161.555 122.881 161.773 122.441 162.211 122.082C162.652 121.723 163.215 121.543 163.898 121.543C164.617 121.543 165.199 121.729 165.645 122.1C166.094 122.471 166.318 122.945 166.318 123.523H165.229C165.229 123.227 165.102 122.971 164.848 122.756C164.598 122.541 164.281 122.434 163.898 122.434C163.504 122.434 163.195 122.52 162.973 122.691C162.75 122.863 162.639 123.088 162.639 123.365C162.639 123.627 162.742 123.824 162.949 123.957C163.156 124.09 163.529 124.217 164.068 124.338C164.611 124.459 165.051 124.604 165.387 124.771C165.723 124.939 165.971 125.143 166.131 125.381C166.295 125.615 166.377 125.902 166.377 126.242C166.377 126.809 166.15 127.264 165.697 127.607C165.244 127.947 164.656 128.117 163.934 128.117C163.426 128.117 162.977 128.027 162.586 127.848C162.195 127.668 161.889 127.418 161.666 127.098C161.447 126.773 161.338 126.424 161.338 126.049H162.422C162.441 126.412 162.586 126.701 162.855 126.916C163.129 127.127 163.488 127.232 163.934 127.232C164.344 127.232 164.672 127.15 164.918 126.986C165.168 126.818 165.293 126.596 165.293 126.318ZM170.42 128.117C169.561 128.117 168.861 127.836 168.322 127.273C167.783 126.707 167.514 125.951 167.514 125.006V124.807C167.514 124.178 167.633 123.617 167.871 123.125C168.113 122.629 168.449 122.242 168.879 121.965C169.312 121.684 169.781 121.543 170.285 121.543C171.109 121.543 171.75 121.814 172.207 122.357C172.664 122.9 172.893 123.678 172.893 124.689V125.141H168.598C168.613 125.766 168.795 126.271 169.143 126.658C169.494 127.041 169.939 127.232 170.479 127.232C170.861 127.232 171.186 127.154 171.451 126.998C171.717 126.842 171.949 126.635 172.148 126.377L172.811 126.893C172.279 127.709 171.482 128.117 170.42 128.117ZM170.285 122.434C169.848 122.434 169.48 122.594 169.184 122.914C168.887 123.23 168.703 123.676 168.633 124.25H171.809V124.168C171.777 123.617 171.629 123.191 171.363 122.891C171.098 122.586 170.738 122.434 170.285 122.434ZM177.217 122.633C177.053 122.605 176.875 122.592 176.684 122.592C175.973 122.592 175.49 122.895 175.236 123.5V128H174.152V121.66H175.207L175.225 122.393C175.58 121.826 176.084 121.543 176.736 121.543C176.947 121.543 177.107 121.57 177.217 121.625V122.633ZM182.49 124.66V128H181.365V119.469H184.512C185.445 119.469 186.176 119.707 186.703 120.184C187.234 120.66 187.5 121.291 187.5 122.076C187.5 122.904 187.24 123.543 186.721 123.992C186.205 124.438 185.465 124.66 184.5 124.66H182.49ZM182.49 123.74H184.512C185.113 123.74 185.574 123.6 185.895 123.318C186.215 123.033 186.375 122.623 186.375 122.088C186.375 121.58 186.215 121.174 185.895 120.869C185.574 120.564 185.135 120.406 184.576 120.395H182.49V123.74ZM191.314 128.117C190.455 128.117 189.756 127.836 189.217 127.273C188.678 126.707 188.408 125.951 188.408 125.006V124.807C188.408 124.178 188.527 123.617 188.766 123.125C189.008 122.629 189.344 122.242 189.773 121.965C190.207 121.684 190.676 121.543 191.18 121.543C192.004 121.543 192.645 121.814 193.102 122.357C193.559 122.9 193.787 123.678 193.787 124.689V125.141H189.492C189.508 125.766 189.689 126.271 190.037 126.658C190.389 127.041 190.834 127.232 191.373 127.232C191.756 127.232 192.08 127.154 192.346 126.998C192.611 126.842 192.844 126.635 193.043 126.377L193.705 126.893C193.174 127.709 192.377 128.117 191.314 128.117ZM191.18 122.434C190.742 122.434 190.375 122.594 190.078 122.914C189.781 123.23 189.598 123.676 189.527 124.25H192.703V124.168C192.672 123.617 192.523 123.191 192.258 122.891C191.992 122.586 191.633 122.434 191.18 122.434ZM198.111 122.633C197.947 122.605 197.77 122.592 197.578 122.592C196.867 122.592 196.385 122.895 196.131 123.5V128H195.047V121.66H196.102L196.119 122.393C196.475 121.826 196.979 121.543 197.631 121.543C197.842 121.543 198.002 121.57 198.111 121.625V122.633ZM202.805 126.318C202.805 126.025 202.693 125.799 202.471 125.639C202.252 125.475 201.867 125.334 201.316 125.217C200.77 125.1 200.334 124.959 200.01 124.795C199.689 124.631 199.451 124.436 199.295 124.209C199.143 123.982 199.066 123.713 199.066 123.4C199.066 122.881 199.285 122.441 199.723 122.082C200.164 121.723 200.727 121.543 201.41 121.543C202.129 121.543 202.711 121.729 203.156 122.1C203.605 122.471 203.83 122.945 203.83 123.523H202.74C202.74 123.227 202.613 122.971 202.359 122.756C202.109 122.541 201.793 122.434 201.41 122.434C201.016 122.434 200.707 122.52 200.484 122.691C200.262 122.863 200.15 123.088 200.15 123.365C200.15 123.627 200.254 123.824 200.461 123.957C200.668 124.09 201.041 124.217 201.58 124.338C202.123 124.459 202.562 124.604 202.898 124.771C203.234 124.939 203.482 125.143 203.643 125.381C203.807 125.615 203.889 125.902 203.889 126.242C203.889 126.809 203.662 127.264 203.209 127.607C202.756 127.947 202.168 128.117 201.445 128.117C200.938 128.117 200.488 128.027 200.098 127.848C199.707 127.668 199.4 127.418 199.178 127.098C198.959 126.773 198.85 126.424 198.85 126.049H199.934C199.953 126.412 200.098 126.701 200.367 126.916C200.641 127.127 201 127.232 201.445 127.232C201.855 127.232 202.184 127.15 202.43 126.986C202.68 126.818 202.805 126.596 202.805 126.318ZM205.014 124.771C205.014 124.15 205.135 123.592 205.377 123.096C205.623 122.6 205.963 122.217 206.396 121.947C206.834 121.678 207.332 121.543 207.891 121.543C208.754 121.543 209.451 121.842 209.982 122.439C210.518 123.037 210.785 123.832 210.785 124.824V124.9C210.785 125.518 210.666 126.072 210.428 126.564C210.193 127.053 209.855 127.434 209.414 127.707C208.977 127.98 208.473 128.117 207.902 128.117C207.043 128.117 206.346 127.818 205.811 127.221C205.279 126.623 205.014 125.832 205.014 124.848V124.771ZM206.104 124.9C206.104 125.604 206.266 126.168 206.59 126.594C206.918 127.02 207.355 127.232 207.902 127.232C208.453 127.232 208.891 127.018 209.215 126.588C209.539 126.154 209.701 125.549 209.701 124.771C209.701 124.076 209.535 123.514 209.203 123.084C208.875 122.65 208.438 122.434 207.891 122.434C207.355 122.434 206.924 122.646 206.596 123.072C206.268 123.498 206.104 124.107 206.104 124.9ZM213.17 121.66L213.205 122.457C213.689 121.848 214.322 121.543 215.104 121.543C216.443 121.543 217.119 122.299 217.131 123.811V128H216.047V123.805C216.043 123.348 215.938 123.01 215.73 122.791C215.527 122.572 215.209 122.463 214.775 122.463C214.424 122.463 214.115 122.557 213.85 122.744C213.584 122.932 213.377 123.178 213.229 123.482V128H212.145V121.66H213.17ZM222.68 128C222.617 127.875 222.566 127.652 222.527 127.332C222.023 127.855 221.422 128.117 220.723 128.117C220.098 128.117 219.584 127.941 219.182 127.59C218.783 127.234 218.584 126.785 218.584 126.242C218.584 125.582 218.834 125.07 219.334 124.707C219.838 124.34 220.545 124.156 221.455 124.156H222.51V123.658C222.51 123.279 222.396 122.979 222.17 122.756C221.943 122.529 221.609 122.416 221.168 122.416C220.781 122.416 220.457 122.514 220.195 122.709C219.934 122.904 219.803 123.141 219.803 123.418H218.713C218.713 123.102 218.824 122.797 219.047 122.504C219.273 122.207 219.578 121.973 219.961 121.801C220.348 121.629 220.771 121.543 221.232 121.543C221.963 121.543 222.535 121.727 222.949 122.094C223.363 122.457 223.578 122.959 223.594 123.6V126.518C223.594 127.1 223.668 127.562 223.816 127.906V128H222.68ZM220.881 127.174C221.221 127.174 221.543 127.086 221.848 126.91C222.152 126.734 222.373 126.506 222.51 126.225V124.924H221.66C220.332 124.924 219.668 125.312 219.668 126.09C219.668 126.43 219.781 126.695 220.008 126.887C220.234 127.078 220.525 127.174 220.881 127.174Z" fill="black"/>
<path d="M32.2656 125.293C32.1602 126.195 31.8262 126.893 31.2637 127.385C30.7051 127.873 29.9609 128.117 29.0312 128.117C28.0234 128.117 27.2148 127.756 26.6055 127.033C26 126.311 25.6973 125.344 25.6973 124.133V123.312C25.6973 122.52 25.8379 121.822 26.1191 121.221C26.4043 120.619 26.8066 120.158 27.3262 119.838C27.8457 119.514 28.4473 119.352 29.1309 119.352C30.0371 119.352 30.7637 119.605 31.3105 120.113C31.8574 120.617 32.1758 121.316 32.2656 122.211H31.1348C31.0371 121.531 30.8242 121.039 30.4961 120.734C30.1719 120.43 29.7168 120.277 29.1309 120.277C28.4121 120.277 27.8477 120.543 27.4375 121.074C27.0312 121.605 26.8281 122.361 26.8281 123.342V124.168C26.8281 125.094 27.0215 125.83 27.4082 126.377C27.7949 126.924 28.3359 127.197 29.0312 127.197C29.6562 127.197 30.1348 127.057 30.4668 126.775C30.8027 126.49 31.0254 125.996 31.1348 125.293H32.2656ZM33.3496 124.771C33.3496 124.15 33.4707 123.592 33.7129 123.096C33.959 122.6 34.2988 122.217 34.7324 121.947C35.1699 121.678 35.668 121.543 36.2266 121.543C37.0898 121.543 37.7871 121.842 38.3184 122.439C38.8535 123.037 39.1211 123.832 39.1211 124.824V124.9C39.1211 125.518 39.002 126.072 38.7637 126.564C38.5293 127.053 38.1914 127.434 37.75 127.707C37.3125 127.98 36.8086 128.117 36.2383 128.117C35.3789 128.117 34.6816 127.818 34.1465 127.221C33.6152 126.623 33.3496 125.832 33.3496 124.848V124.771ZM34.4395 124.9C34.4395 125.604 34.6016 126.168 34.9258 126.594C35.2539 127.02 35.6914 127.232 36.2383 127.232C36.7891 127.232 37.2266 127.018 37.5508 126.588C37.875 126.154 38.0371 125.549 38.0371 124.771C38.0371 124.076 37.8711 123.514 37.5391 123.084C37.2109 122.65 36.7734 122.434 36.2266 122.434C35.6914 122.434 35.2598 122.646 34.9316 123.072C34.6035 123.498 34.4395 124.107 34.4395 124.9ZM41.5 121.66L41.5293 122.363C41.9941 121.816 42.6211 121.543 43.4102 121.543C44.2969 121.543 44.9004 121.883 45.2207 122.562C45.4316 122.258 45.7051 122.012 46.041 121.824C46.3809 121.637 46.7812 121.543 47.2422 121.543C48.6328 121.543 49.3398 122.279 49.3633 123.752V128H48.2793V123.816C48.2793 123.363 48.1758 123.025 47.9688 122.803C47.7617 122.576 47.4141 122.463 46.9258 122.463C46.5234 122.463 46.1895 122.584 45.9238 122.826C45.6582 123.064 45.5039 123.387 45.4609 123.793V128H44.3711V123.846C44.3711 122.924 43.9199 122.463 43.0176 122.463C42.3066 122.463 41.8203 122.766 41.5586 123.371V128H40.4746V121.66H41.5ZM56.3594 124.9C56.3594 125.865 56.1387 126.643 55.6973 127.232C55.2559 127.822 54.6582 128.117 53.9043 128.117C53.1348 128.117 52.5293 127.873 52.0879 127.385V130.438H51.0039V121.66H51.9941L52.0469 122.363C52.4883 121.816 53.1016 121.543 53.8867 121.543C54.6484 121.543 55.25 121.83 55.6914 122.404C56.1367 122.979 56.3594 123.777 56.3594 124.801V124.9ZM55.2754 124.777C55.2754 124.062 55.123 123.498 54.8184 123.084C54.5137 122.67 54.0957 122.463 53.5645 122.463C52.9082 122.463 52.416 122.754 52.0879 123.336V126.365C52.4121 126.943 52.9082 127.232 53.5762 127.232C54.0957 127.232 54.5078 127.027 54.8125 126.617C55.1211 126.203 55.2754 125.59 55.2754 124.777ZM61.6562 128C61.5938 127.875 61.543 127.652 61.5039 127.332C61 127.855 60.3984 128.117 59.6992 128.117C59.0742 128.117 58.5605 127.941 58.1582 127.59C57.7598 127.234 57.5605 126.785 57.5605 126.242C57.5605 125.582 57.8105 125.07 58.3105 124.707C58.8145 124.34 59.5215 124.156 60.4316 124.156H61.4863V123.658C61.4863 123.279 61.373 122.979 61.1465 122.756C60.9199 122.529 60.5859 122.416 60.1445 122.416C59.7578 122.416 59.4336 122.514 59.1719 122.709C58.9102 122.904 58.7793 123.141 58.7793 123.418H57.6895C57.6895 123.102 57.8008 122.797 58.0234 122.504C58.25 122.207 58.5547 121.973 58.9375 121.801C59.3242 121.629 59.748 121.543 60.209 121.543C60.9395 121.543 61.5117 121.727 61.9258 122.094C62.3398 122.457 62.5547 122.959 62.5703 123.6V126.518C62.5703 127.1 62.6445 127.562 62.793 127.906V128H61.6562ZM59.8574 127.174C60.1973 127.174 60.5195 127.086 60.8242 126.91C61.1289 126.734 61.3496 126.506 61.4863 126.225V124.924H60.6367C59.3086 124.924 58.6445 125.312 58.6445 126.09C58.6445 126.43 58.7578 126.695 58.9844 126.887C59.2109 127.078 59.502 127.174 59.8574 127.174ZM67.334 122.633C67.1699 122.605 66.9922 122.592 66.8008 122.592C66.0898 122.592 65.6074 122.895 65.3535 123.5V128H64.2695V121.66H65.3242L65.3418 122.393C65.6973 121.826 66.2012 121.543 66.8535 121.543C67.0645 121.543 67.2246 121.57 67.334 121.625V122.633ZM72.0156 128C71.9531 127.875 71.9023 127.652 71.8633 127.332C71.3594 127.855 70.7578 128.117 70.0586 128.117C69.4336 128.117 68.9199 127.941 68.5176 127.59C68.1191 127.234 67.9199 126.785 67.9199 126.242C67.9199 125.582 68.1699 125.07 68.6699 124.707C69.1738 124.34 69.8809 124.156 70.791 124.156H71.8457V123.658C71.8457 123.279 71.7324 122.979 71.5059 122.756C71.2793 122.529 70.9453 122.416 70.5039 122.416C70.1172 122.416 69.793 122.514 69.5312 122.709C69.2695 122.904 69.1387 123.141 69.1387 123.418H68.0488C68.0488 123.102 68.1602 122.797 68.3828 122.504C68.6094 122.207 68.9141 121.973 69.2969 121.801C69.6836 121.629 70.1074 121.543 70.5684 121.543C71.2988 121.543 71.8711 121.727 72.2852 122.094C72.6992 122.457 72.9141 122.959 72.9297 123.6V126.518C72.9297 127.1 73.0039 127.562 73.1523 127.906V128H72.0156ZM70.2168 127.174C70.5566 127.174 70.8789 127.086 71.1836 126.91C71.4883 126.734 71.709 126.506 71.8457 126.225V124.924H70.9961C69.668 124.924 69.0039 125.312 69.0039 126.09C69.0039 126.43 69.1172 126.695 69.3438 126.887C69.5703 127.078 69.8613 127.174 70.2168 127.174ZM76.0996 120.125V121.66H77.2832V122.498H76.0996V126.43C76.0996 126.684 76.1523 126.875 76.2578 127.004C76.3633 127.129 76.543 127.191 76.7969 127.191C76.9219 127.191 77.0938 127.168 77.3125 127.121V128C77.0273 128.078 76.75 128.117 76.4805 128.117C75.9961 128.117 75.6309 127.971 75.3848 127.678C75.1387 127.385 75.0156 126.969 75.0156 126.43V122.498H73.8613V121.66H75.0156V120.125H76.0996ZM79.7324 128H78.6484V121.66H79.7324V128ZM78.5605 119.979C78.5605 119.803 78.6133 119.654 78.7188 119.533C78.8281 119.412 78.9883 119.352 79.1992 119.352C79.4102 119.352 79.5703 119.412 79.6797 119.533C79.7891 119.654 79.8438 119.803 79.8438 119.979C79.8438 120.154 79.7891 120.301 79.6797 120.418C79.5703 120.535 79.4102 120.594 79.1992 120.594C78.9883 120.594 78.8281 120.535 78.7188 120.418C78.6133 120.301 78.5605 120.154 78.5605 119.979ZM83.5645 126.529L85.1348 121.66H86.2422L83.9688 128H83.1426L80.8457 121.66H81.9531L83.5645 126.529ZM89.834 128.117C88.9746 128.117 88.2754 127.836 87.7363 127.273C87.1973 126.707 86.9277 125.951 86.9277 125.006V124.807C86.9277 124.178 87.0469 123.617 87.2852 123.125C87.5273 122.629 87.8633 122.242 88.293 121.965C88.7266 121.684 89.1953 121.543 89.6992 121.543C90.5234 121.543 91.1641 121.814 91.6211 122.357C92.0781 122.9 92.3066 123.678 92.3066 124.689V125.141H88.0117C88.0273 125.766 88.209 126.271 88.5566 126.658C88.9082 127.041 89.3535 127.232 89.8926 127.232C90.2754 127.232 90.5996 127.154 90.8652 126.998C91.1309 126.842 91.3633 126.635 91.5625 126.377L92.2246 126.893C91.6934 127.709 90.8965 128.117 89.834 128.117ZM89.6992 122.434C89.2617 122.434 88.8945 122.594 88.5977 122.914C88.3008 123.23 88.1172 123.676 88.0469 124.25H91.2227V124.168C91.1914 123.617 91.043 123.191 90.7773 122.891C90.5117 122.586 90.1523 122.434 89.6992 122.434ZM101.424 125.773H97.8496L97.0469 128H95.8867L99.1445 119.469H100.129L103.393 128H102.238L101.424 125.773ZM98.1895 124.848H101.09L99.6367 120.857L98.1895 124.848ZM105.396 121.66L105.432 122.457C105.916 121.848 106.549 121.543 107.33 121.543C108.67 121.543 109.346 122.299 109.357 123.811V128H108.273V123.805C108.27 123.348 108.164 123.01 107.957 122.791C107.754 122.572 107.436 122.463 107.002 122.463C106.65 122.463 106.342 122.557 106.076 122.744C105.811 122.932 105.604 123.178 105.455 123.482V128H104.371V121.66H105.396ZM114.906 128C114.844 127.875 114.793 127.652 114.754 127.332C114.25 127.855 113.648 128.117 112.949 128.117C112.324 128.117 111.811 127.941 111.408 127.59C111.01 127.234 110.811 126.785 110.811 126.242C110.811 125.582 111.061 125.07 111.561 124.707C112.064 124.34 112.771 124.156 113.682 124.156H114.736V123.658C114.736 123.279 114.623 122.979 114.396 122.756C114.17 122.529 113.836 122.416 113.395 122.416C113.008 122.416 112.684 122.514 112.422 122.709C112.16 122.904 112.029 123.141 112.029 123.418H110.939C110.939 123.102 111.051 122.797 111.273 122.504C111.5 122.207 111.805 121.973 112.188 121.801C112.574 121.629 112.998 121.543 113.459 121.543C114.189 121.543 114.762 121.727 115.176 122.094C115.59 122.457 115.805 122.959 115.82 123.6V126.518C115.82 127.1 115.895 127.562 116.043 127.906V128H114.906ZM113.107 127.174C113.447 127.174 113.77 127.086 114.074 126.91C114.379 126.734 114.6 126.506 114.736 126.225V124.924H113.887C112.559 124.924 111.895 125.312 111.895 126.09C111.895 126.43 112.008 126.695 112.234 126.887C112.461 127.078 112.752 127.174 113.107 127.174ZM118.697 128H117.613V119H118.697V128ZM122.512 126.412L123.988 121.66H125.148L122.6 128.979C122.205 130.033 121.578 130.561 120.719 130.561L120.514 130.543L120.109 130.467V129.588L120.402 129.611C120.77 129.611 121.055 129.537 121.258 129.389C121.465 129.24 121.635 128.969 121.768 128.574L122.008 127.93L119.746 121.66H120.93L122.512 126.412ZM129.812 126.318C129.812 126.025 129.701 125.799 129.479 125.639C129.26 125.475 128.875 125.334 128.324 125.217C127.777 125.1 127.342 124.959 127.018 124.795C126.697 124.631 126.459 124.436 126.303 124.209C126.15 123.982 126.074 123.713 126.074 123.4C126.074 122.881 126.293 122.441 126.73 122.082C127.172 121.723 127.734 121.543 128.418 121.543C129.137 121.543 129.719 121.729 130.164 122.1C130.613 122.471 130.838 122.945 130.838 123.523H129.748C129.748 123.227 129.621 122.971 129.367 122.756C129.117 122.541 128.801 122.434 128.418 122.434C128.023 122.434 127.715 122.52 127.492 122.691C127.27 122.863 127.158 123.088 127.158 123.365C127.158 123.627 127.262 123.824 127.469 123.957C127.676 124.09 128.049 124.217 128.588 124.338C129.131 124.459 129.57 124.604 129.906 124.771C130.242 124.939 130.49 125.143 130.65 125.381C130.814 125.615 130.896 125.902 130.896 126.242C130.896 126.809 130.67 127.264 130.217 127.607C129.764 127.947 129.176 128.117 128.453 128.117C127.945 128.117 127.496 128.027 127.105 127.848C126.715 127.668 126.408 127.418 126.186 127.098C125.967 126.773 125.857 126.424 125.857 126.049H126.941C126.961 126.412 127.105 126.701 127.375 126.916C127.648 127.127 128.008 127.232 128.453 127.232C128.863 127.232 129.191 127.15 129.438 126.986C129.688 126.818 129.812 126.596 129.812 126.318ZM133.486 128H132.402V121.66H133.486V128ZM132.314 119.979C132.314 119.803 132.367 119.654 132.473 119.533C132.582 119.412 132.742 119.352 132.953 119.352C133.164 119.352 133.324 119.412 133.434 119.533C133.543 119.654 133.598 119.803 133.598 119.979C133.598 120.154 133.543 120.301 133.434 120.418C133.324 120.535 133.164 120.594 132.953 120.594C132.742 120.594 132.582 120.535 132.473 120.418C132.367 120.301 132.314 120.154 132.314 119.979ZM138.918 126.318C138.918 126.025 138.807 125.799 138.584 125.639C138.365 125.475 137.98 125.334 137.43 125.217C136.883 125.1 136.447 124.959 136.123 124.795C135.803 124.631 135.564 124.436 135.408 124.209C135.256 123.982 135.18 123.713 135.18 123.4C135.18 122.881 135.398 122.441 135.836 122.082C136.277 121.723 136.84 121.543 137.523 121.543C138.242 121.543 138.824 121.729 139.27 122.1C139.719 122.471 139.943 122.945 139.943 123.523H138.854C138.854 123.227 138.727 122.971 138.473 122.756C138.223 122.541 137.906 122.434 137.523 122.434C137.129 122.434 136.82 122.52 136.598 122.691C136.375 122.863 136.264 123.088 136.264 123.365C136.264 123.627 136.367 123.824 136.574 123.957C136.781 124.09 137.154 124.217 137.693 124.338C138.236 124.459 138.676 124.604 139.012 124.771C139.348 124.939 139.596 125.143 139.756 125.381C139.92 125.615 140.002 125.902 140.002 126.242C140.002 126.809 139.775 127.264 139.322 127.607C138.869 127.947 138.281 128.117 137.559 128.117C137.051 128.117 136.602 128.027 136.211 127.848C135.82 127.668 135.514 127.418 135.291 127.098C135.072 126.773 134.963 126.424 134.963 126.049H136.047C136.066 126.412 136.211 126.701 136.48 126.916C136.754 127.127 137.113 127.232 137.559 127.232C137.969 127.232 138.297 127.15 138.543 126.986C138.793 126.818 138.918 126.596 138.918 126.318Z" fill="black"/>
<path d="M369.889 52V42.0469H372.951C373.826 42.0469 374.608 42.2451 375.296 42.6416C375.989 43.0335 376.529 43.5941 376.916 44.3232C377.303 45.0479 377.497 45.8727 377.497 46.7979V47.2559C377.497 48.181 377.306 49.0036 376.923 49.7236C376.545 50.4437 376.009 51.002 375.316 51.3984C374.624 51.7949 373.842 51.9954 372.972 52H369.889ZM371.939 43.708V50.3525H372.931C373.733 50.3525 374.346 50.0905 374.77 49.5664C375.193 49.0423 375.41 48.2926 375.419 47.3174V46.791C375.419 45.7793 375.209 45.0137 374.79 44.4941C374.371 43.9701 373.758 43.708 372.951 43.708H371.939ZM382.269 52.1367C381.184 52.1367 380.3 51.804 379.616 51.1387C378.937 50.4733 378.598 49.5869 378.598 48.4795V48.2881C378.598 47.5452 378.741 46.8822 379.028 46.2988C379.315 45.7109 379.721 45.2598 380.245 44.9453C380.774 44.6263 381.375 44.4668 382.05 44.4668C383.062 44.4668 383.857 44.7858 384.436 45.4238C385.019 46.0618 385.311 46.9665 385.311 48.1377V48.9443H380.601C380.664 49.4274 380.856 49.8148 381.175 50.1064C381.498 50.3981 381.906 50.5439 382.398 50.5439C383.16 50.5439 383.754 50.2682 384.183 49.7168L385.153 50.8037C384.857 51.223 384.456 51.5511 383.95 51.7881C383.444 52.0205 382.884 52.1367 382.269 52.1367ZM382.043 46.0664C381.651 46.0664 381.332 46.1986 381.086 46.4629C380.844 46.7272 380.689 47.1055 380.621 47.5977H383.369V47.4404C383.36 47.0029 383.242 46.6657 383.014 46.4287C382.786 46.1872 382.462 46.0664 382.043 46.0664ZM390.444 49.9561C390.444 49.7145 390.324 49.5254 390.082 49.3887C389.845 49.2474 389.462 49.1221 388.934 49.0127C387.174 48.6436 386.295 47.8962 386.295 46.7705C386.295 46.1143 386.566 45.5674 387.108 45.1299C387.655 44.6878 388.368 44.4668 389.248 44.4668C390.187 44.4668 390.937 44.6878 391.497 45.1299C392.062 45.5719 392.345 46.1462 392.345 46.8525H390.369C390.369 46.57 390.278 46.3376 390.096 46.1553C389.913 45.9684 389.629 45.875 389.241 45.875C388.909 45.875 388.651 45.9502 388.469 46.1006C388.286 46.251 388.195 46.4424 388.195 46.6748C388.195 46.8936 388.298 47.0713 388.503 47.208C388.713 47.3402 389.063 47.4564 389.556 47.5566C390.048 47.6523 390.463 47.7617 390.8 47.8848C391.843 48.2676 392.365 48.9307 392.365 49.874C392.365 50.5485 392.076 51.0954 391.497 51.5146C390.918 51.9294 390.171 52.1367 389.255 52.1367C388.635 52.1367 388.084 52.0273 387.601 51.8086C387.122 51.5853 386.746 51.2822 386.473 50.8994C386.199 50.512 386.062 50.0951 386.062 49.6484H387.936C387.954 49.9993 388.084 50.2682 388.325 50.4551C388.567 50.6419 388.89 50.7354 389.296 50.7354C389.674 50.7354 389.959 50.6647 390.15 50.5234C390.346 50.3776 390.444 50.1885 390.444 49.9561ZM395.729 52H393.746V44.6035H395.729V52ZM393.63 42.6895C393.63 42.3932 393.728 42.1494 393.924 41.958C394.124 41.7666 394.396 41.6709 394.737 41.6709C395.075 41.6709 395.343 41.7666 395.544 41.958C395.744 42.1494 395.845 42.3932 395.845 42.6895C395.845 42.9902 395.742 43.2363 395.537 43.4277C395.337 43.6191 395.07 43.7148 394.737 43.7148C394.405 43.7148 394.136 43.6191 393.931 43.4277C393.73 43.2363 393.63 42.9902 393.63 42.6895ZM397.075 48.2471C397.075 47.1123 397.344 46.1986 397.882 45.5059C398.424 44.8132 399.153 44.4668 400.069 44.4668C400.881 44.4668 401.512 44.7448 401.963 45.3008L402.045 44.6035H403.836V51.7539C403.836 52.401 403.688 52.9639 403.392 53.4424C403.1 53.9209 402.688 54.2855 402.154 54.5361C401.621 54.7868 400.997 54.9121 400.281 54.9121C399.739 54.9121 399.21 54.8027 398.695 54.584C398.18 54.3698 397.791 54.0918 397.526 53.75L398.401 52.5469C398.894 53.0983 399.491 53.374 400.192 53.374C400.716 53.374 401.124 53.2327 401.416 52.9502C401.708 52.6722 401.854 52.2757 401.854 51.7607V51.3643C401.398 51.8792 400.799 52.1367 400.056 52.1367C399.167 52.1367 398.447 51.7904 397.896 51.0977C397.349 50.4004 397.075 49.4775 397.075 48.3291V48.2471ZM399.051 48.3906C399.051 49.0605 399.185 49.5869 399.454 49.9697C399.723 50.348 400.092 50.5371 400.562 50.5371C401.163 50.5371 401.594 50.3115 401.854 49.8604V46.75C401.589 46.2988 401.163 46.0732 400.575 46.0732C400.101 46.0732 399.728 46.2669 399.454 46.6543C399.185 47.0417 399.051 47.6204 399.051 48.3906ZM407.179 44.6035L407.24 45.458C407.769 44.7972 408.478 44.4668 409.366 44.4668C410.15 44.4668 410.733 44.6969 411.116 45.1572C411.499 45.6175 411.695 46.3057 411.704 47.2217V52H409.729V47.2695C409.729 46.8503 409.637 46.5472 409.455 46.3604C409.273 46.1689 408.97 46.0732 408.546 46.0732C407.99 46.0732 407.573 46.3102 407.295 46.7842V52H405.319V44.6035H407.179ZM415.293 52H413.311V44.6035H415.293V52ZM413.194 42.6895C413.194 42.3932 413.292 42.1494 413.488 41.958C413.689 41.7666 413.96 41.6709 414.302 41.6709C414.639 41.6709 414.908 41.7666 415.108 41.958C415.309 42.1494 415.409 42.3932 415.409 42.6895C415.409 42.9902 415.307 43.2363 415.102 43.4277C414.901 43.6191 414.634 43.7148 414.302 43.7148C413.969 43.7148 413.7 43.6191 413.495 43.4277C413.295 43.2363 413.194 42.9902 413.194 42.6895ZM418.745 44.6035L418.807 45.458C419.335 44.7972 420.044 44.4668 420.933 44.4668C421.716 44.4668 422.3 44.6969 422.683 45.1572C423.065 45.6175 423.261 46.3057 423.271 47.2217V52H421.295V47.2695C421.295 46.8503 421.204 46.5472 421.021 46.3604C420.839 46.1689 420.536 46.0732 420.112 46.0732C419.556 46.0732 419.139 46.3102 418.861 46.7842V52H416.886V44.6035H418.745ZM424.487 48.2471C424.487 47.1123 424.756 46.1986 425.294 45.5059C425.836 44.8132 426.565 44.4668 427.481 44.4668C428.293 44.4668 428.924 44.7448 429.375 45.3008L429.457 44.6035H431.248V51.7539C431.248 52.401 431.1 52.9639 430.804 53.4424C430.512 53.9209 430.1 54.2855 429.566 54.5361C429.033 54.7868 428.409 54.9121 427.693 54.9121C427.151 54.9121 426.622 54.8027 426.107 54.584C425.592 54.3698 425.203 54.0918 424.938 53.75L425.813 52.5469C426.306 53.0983 426.903 53.374 427.604 53.374C428.129 53.374 428.536 53.2327 428.828 52.9502C429.12 52.6722 429.266 52.2757 429.266 51.7607V51.3643C428.81 51.8792 428.211 52.1367 427.468 52.1367C426.579 52.1367 425.859 51.7904 425.308 51.0977C424.761 50.4004 424.487 49.4775 424.487 48.3291V48.2471ZM426.463 48.3906C426.463 49.0605 426.597 49.5869 426.866 49.9697C427.135 50.348 427.504 50.5371 427.974 50.5371C428.575 50.5371 429.006 50.3115 429.266 49.8604V46.75C429.001 46.2988 428.575 46.0732 427.987 46.0732C427.513 46.0732 427.14 46.2669 426.866 46.6543C426.597 47.0417 426.463 47.6204 426.463 48.3906Z" fill="#657B83"/>
<path d="M639.939 48.4932V52H637.889V42.0469H641.771C642.519 42.0469 643.175 42.1836 643.74 42.457C644.31 42.7305 644.747 43.1201 645.053 43.626C645.358 44.1273 645.511 44.6992 645.511 45.3418C645.511 46.3171 645.176 47.0872 644.506 47.6523C643.84 48.2129 642.918 48.4932 641.737 48.4932H639.939ZM639.939 46.832H641.771C642.314 46.832 642.726 46.7044 643.009 46.4492C643.296 46.194 643.439 45.8294 643.439 45.3555C643.439 44.8678 643.296 44.4736 643.009 44.1729C642.722 43.8721 642.325 43.7171 641.819 43.708H639.939V46.832ZM650.952 46.4561C650.683 46.4196 650.446 46.4014 650.241 46.4014C649.494 46.4014 649.004 46.6543 648.771 47.1602V52H646.796V44.6035H648.662L648.717 45.4854C649.113 44.8063 649.662 44.4668 650.364 44.4668C650.583 44.4668 650.788 44.4964 650.979 44.5557L650.952 46.4561ZM651.355 48.2334C651.355 47.4997 651.497 46.8457 651.779 46.2715C652.062 45.6973 652.467 45.2529 652.996 44.9385C653.529 44.624 654.147 44.4668 654.849 44.4668C655.847 44.4668 656.66 44.7721 657.289 45.3828C657.923 45.9935 658.276 46.8229 658.349 47.8711L658.362 48.377C658.362 49.5117 658.046 50.4232 657.412 51.1113C656.779 51.7949 655.929 52.1367 654.862 52.1367C653.796 52.1367 652.944 51.7949 652.306 51.1113C651.672 50.4277 651.355 49.498 651.355 48.3223V48.2334ZM653.331 48.377C653.331 49.0788 653.463 49.6165 653.728 49.9902C653.992 50.3594 654.37 50.5439 654.862 50.5439C655.341 50.5439 655.715 50.3617 655.983 49.9971C656.252 49.6279 656.387 49.04 656.387 48.2334C656.387 47.5452 656.252 47.012 655.983 46.6338C655.715 46.2555 655.336 46.0664 654.849 46.0664C654.366 46.0664 653.992 46.2555 653.728 46.6338C653.463 47.0075 653.331 47.5885 653.331 48.377ZM661.944 42.7852V44.6035H663.209V46.0527H661.944V49.7441C661.944 50.0176 661.997 50.2135 662.102 50.332C662.206 50.4505 662.407 50.5098 662.703 50.5098C662.922 50.5098 663.116 50.4938 663.284 50.4619V51.959C662.897 52.0775 662.498 52.1367 662.088 52.1367C660.702 52.1367 659.996 51.4372 659.969 50.0381V46.0527H658.889V44.6035H659.969V42.7852H661.944ZM663.797 48.2334C663.797 47.4997 663.938 46.8457 664.221 46.2715C664.503 45.6973 664.909 45.2529 665.438 44.9385C665.971 44.624 666.588 44.4668 667.29 44.4668C668.288 44.4668 669.102 44.7721 669.73 45.3828C670.364 45.9935 670.717 46.8229 670.79 47.8711L670.804 48.377C670.804 49.5117 670.487 50.4232 669.854 51.1113C669.22 51.7949 668.37 52.1367 667.304 52.1367C666.237 52.1367 665.385 51.7949 664.747 51.1113C664.114 50.4277 663.797 49.498 663.797 48.3223V48.2334ZM665.772 48.377C665.772 49.0788 665.905 49.6165 666.169 49.9902C666.433 50.3594 666.812 50.5439 667.304 50.5439C667.782 50.5439 668.156 50.3617 668.425 49.9971C668.694 49.6279 668.828 49.04 668.828 48.2334C668.828 47.5452 668.694 47.012 668.425 46.6338C668.156 46.2555 667.778 46.0664 667.29 46.0664C666.807 46.0664 666.433 46.2555 666.169 46.6338C665.905 47.0075 665.772 47.5885 665.772 48.377ZM674.386 42.7852V44.6035H675.65V46.0527H674.386V49.7441C674.386 50.0176 674.438 50.2135 674.543 50.332C674.648 50.4505 674.848 50.5098 675.145 50.5098C675.363 50.5098 675.557 50.4938 675.726 50.4619V51.959C675.338 52.0775 674.939 52.1367 674.529 52.1367C673.144 52.1367 672.438 51.4372 672.41 50.0381V46.0527H671.33V44.6035H672.41V42.7852H674.386ZM679.513 49.2041L680.88 44.6035H682.999L680.025 53.1484L679.861 53.5381C679.419 54.5042 678.69 54.9873 677.674 54.9873C677.387 54.9873 677.095 54.944 676.799 54.8574V53.3604L677.1 53.3672C677.473 53.3672 677.751 53.3102 677.934 53.1963C678.12 53.0824 678.266 52.8932 678.371 52.6289L678.604 52.0205L676.013 44.6035H678.139L679.513 49.2041ZM690.437 48.3701C690.437 49.5094 690.177 50.4232 689.657 51.1113C689.142 51.7949 688.445 52.1367 687.565 52.1367C686.818 52.1367 686.214 51.877 685.754 51.3574V54.8438H683.778V44.6035H685.61L685.679 45.3281C686.157 44.7539 686.782 44.4668 687.552 44.4668C688.463 44.4668 689.172 44.804 689.678 45.4785C690.184 46.153 690.437 47.0827 690.437 48.2676V48.3701ZM688.461 48.2266C688.461 47.5384 688.338 47.0075 688.092 46.6338C687.85 46.2601 687.497 46.0732 687.032 46.0732C686.412 46.0732 685.986 46.3102 685.754 46.7842V49.8125C685.995 50.3001 686.426 50.5439 687.046 50.5439C687.989 50.5439 688.461 49.7715 688.461 48.2266ZM693.752 52H691.77V44.6035H693.752V52ZM691.653 42.6895C691.653 42.3932 691.751 42.1494 691.947 41.958C692.148 41.7666 692.419 41.6709 692.761 41.6709C693.098 41.6709 693.367 41.7666 693.567 41.958C693.768 42.1494 693.868 42.3932 693.868 42.6895C693.868 42.9902 693.766 43.2363 693.561 43.4277C693.36 43.6191 693.093 43.7148 692.761 43.7148C692.428 43.7148 692.159 43.6191 691.954 43.4277C691.754 43.2363 691.653 42.9902 691.653 42.6895ZM697.204 44.6035L697.266 45.458C697.794 44.7972 698.503 44.4668 699.392 44.4668C700.175 44.4668 700.759 44.6969 701.142 45.1572C701.524 45.6175 701.72 46.3057 701.729 47.2217V52H699.754V47.2695C699.754 46.8503 699.663 46.5472 699.48 46.3604C699.298 46.1689 698.995 46.0732 698.571 46.0732C698.015 46.0732 697.598 46.3102 697.32 46.7842V52H695.345V44.6035H697.204ZM702.946 48.2471C702.946 47.1123 703.215 46.1986 703.753 45.5059C704.295 44.8132 705.024 44.4668 705.94 44.4668C706.752 44.4668 707.383 44.7448 707.834 45.3008L707.916 44.6035H709.707V51.7539C709.707 52.401 709.559 52.9639 709.263 53.4424C708.971 53.9209 708.559 54.2855 708.025 54.5361C707.492 54.7868 706.868 54.9121 706.152 54.9121C705.61 54.9121 705.081 54.8027 704.566 54.584C704.051 54.3698 703.662 54.0918 703.397 53.75L704.272 52.5469C704.765 53.0983 705.362 53.374 706.063 53.374C706.588 53.374 706.995 53.2327 707.287 52.9502C707.579 52.6722 707.725 52.2757 707.725 51.7607V51.3643C707.269 51.8792 706.67 52.1367 705.927 52.1367C705.038 52.1367 704.318 51.7904 703.767 51.0977C703.22 50.4004 702.946 49.4775 702.946 48.3291V48.2471ZM704.922 48.3906C704.922 49.0605 705.056 49.5869 705.325 49.9697C705.594 50.348 705.963 50.5371 706.433 50.5371C707.034 50.5371 707.465 50.3115 707.725 49.8604V46.75C707.46 46.2988 707.034 46.0732 706.446 46.0732C705.972 46.0732 705.599 46.2669 705.325 46.6543C705.056 47.0417 704.922 47.6204 704.922 48.3906Z" fill="#657B83"/>
<path d="M69.9395 48.4932V52H67.8887V42.0469H71.7715C72.5189 42.0469 73.1751 42.1836 73.7402 42.457C74.3099 42.7305 74.7474 43.1201 75.0527 43.626C75.3581 44.1273 75.5107 44.6992 75.5107 45.3418C75.5107 46.3171 75.1758 47.0872 74.5059 47.6523C73.8405 48.2129 72.9176 48.4932 71.7373 48.4932H69.9395ZM69.9395 46.832H71.7715C72.3138 46.832 72.7262 46.7044 73.0088 46.4492C73.2959 46.194 73.4395 45.8294 73.4395 45.3555C73.4395 44.8678 73.2959 44.4736 73.0088 44.1729C72.7217 43.8721 72.3252 43.7171 71.8193 43.708H69.9395V46.832ZM80.9521 46.4561C80.6833 46.4196 80.4463 46.4014 80.2412 46.4014C79.4938 46.4014 79.0039 46.6543 78.7715 47.1602V52H76.7959V44.6035H78.6621L78.7168 45.4854C79.1133 44.8063 79.6624 44.4668 80.3643 44.4668C80.583 44.4668 80.7881 44.4964 80.9795 44.5557L80.9521 46.4561ZM81.3555 48.2334C81.3555 47.4997 81.4967 46.8457 81.7793 46.2715C82.0618 45.6973 82.4674 45.2529 82.9961 44.9385C83.5293 44.624 84.1468 44.4668 84.8486 44.4668C85.8467 44.4668 86.6602 44.7721 87.2891 45.3828C87.9225 45.9935 88.2757 46.8229 88.3486 47.8711L88.3623 48.377C88.3623 49.5117 88.0456 50.4232 87.4121 51.1113C86.7786 51.7949 85.9287 52.1367 84.8623 52.1367C83.7959 52.1367 82.9437 51.7949 82.3057 51.1113C81.6722 50.4277 81.3555 49.498 81.3555 48.3223V48.2334ZM83.3311 48.377C83.3311 49.0788 83.4632 49.6165 83.7275 49.9902C83.9919 50.3594 84.3701 50.5439 84.8623 50.5439C85.3408 50.5439 85.7145 50.3617 85.9834 49.9971C86.2523 49.6279 86.3867 49.04 86.3867 48.2334C86.3867 47.5452 86.2523 47.012 85.9834 46.6338C85.7145 46.2555 85.3363 46.0664 84.8486 46.0664C84.3656 46.0664 83.9919 46.2555 83.7275 46.6338C83.4632 47.0075 83.3311 47.5885 83.3311 48.377ZM96.2441 48.3701C96.2441 49.555 95.9912 50.4801 95.4854 51.1455C94.9795 51.8063 94.2731 52.1367 93.3662 52.1367C92.5641 52.1367 91.9238 51.8291 91.4453 51.2139L91.3564 52H89.5791V41.5H91.5547V45.2666C92.0104 44.7334 92.6097 44.4668 93.3525 44.4668C94.2549 44.4668 94.9613 44.7995 95.4717 45.4648C95.9867 46.1257 96.2441 47.0576 96.2441 48.2607V48.3701ZM94.2686 48.2266C94.2686 47.4792 94.1501 46.9346 93.9131 46.5928C93.6761 46.2464 93.3229 46.0732 92.8535 46.0732C92.2246 46.0732 91.7917 46.3307 91.5547 46.8457V49.7646C91.7962 50.2842 92.2337 50.5439 92.8672 50.5439C93.5052 50.5439 93.9245 50.2295 94.125 49.6006C94.2207 49.2998 94.2686 48.8418 94.2686 48.2266ZM99.5527 52H97.5703V41.5H99.5527V52ZM104.591 52.1367C103.506 52.1367 102.622 51.804 101.938 51.1387C101.259 50.4733 100.92 49.5869 100.92 48.4795V48.2881C100.92 47.5452 101.063 46.8822 101.351 46.2988C101.638 45.7109 102.043 45.2598 102.567 44.9453C103.096 44.6263 103.698 44.4668 104.372 44.4668C105.384 44.4668 106.179 44.7858 106.758 45.4238C107.341 46.0618 107.633 46.9665 107.633 48.1377V48.9443H102.923C102.987 49.4274 103.178 49.8148 103.497 50.1064C103.821 50.3981 104.229 50.5439 104.721 50.5439C105.482 50.5439 106.076 50.2682 106.505 49.7168L107.476 50.8037C107.179 51.223 106.778 51.5511 106.272 51.7881C105.767 52.0205 105.206 52.1367 104.591 52.1367ZM104.365 46.0664C103.973 46.0664 103.654 46.1986 103.408 46.4629C103.167 46.7272 103.012 47.1055 102.943 47.5977H105.691V47.4404C105.682 47.0029 105.564 46.6657 105.336 46.4287C105.108 46.1872 104.785 46.0664 104.365 46.0664ZM110.613 44.6035L110.675 45.4307C111.199 44.7881 111.908 44.4668 112.801 44.4668C113.753 44.4668 114.407 44.8428 114.763 45.5947C115.282 44.8428 116.023 44.4668 116.984 44.4668C117.786 44.4668 118.383 44.7015 118.775 45.1709C119.167 45.6357 119.363 46.3376 119.363 47.2764V52H117.381V47.2832C117.381 46.8639 117.299 46.5586 117.135 46.3672C116.971 46.1712 116.681 46.0732 116.267 46.0732C115.674 46.0732 115.264 46.3558 115.036 46.9209L115.043 52H113.067V47.29C113.067 46.8617 112.983 46.5518 112.814 46.3604C112.646 46.1689 112.359 46.0732 111.953 46.0732C111.393 46.0732 110.987 46.3057 110.736 46.7705V52H108.761V44.6035H110.613ZM129.665 49.3887C129.665 49.0013 129.528 48.7051 129.255 48.5C128.981 48.2904 128.489 48.0716 127.778 47.8438C127.067 47.6113 126.505 47.3835 126.09 47.1602C124.96 46.5495 124.395 45.7269 124.395 44.6924C124.395 44.1546 124.545 43.6761 124.846 43.2568C125.151 42.833 125.586 42.5026 126.151 42.2656C126.721 42.0286 127.359 41.9102 128.065 41.9102C128.776 41.9102 129.41 42.04 129.966 42.2998C130.522 42.555 130.952 42.9173 131.258 43.3867C131.568 43.8561 131.723 44.3893 131.723 44.9863H129.672C129.672 44.5306 129.528 44.1774 129.241 43.9268C128.954 43.6715 128.551 43.5439 128.031 43.5439C127.53 43.5439 127.14 43.651 126.862 43.8652C126.584 44.0749 126.445 44.3529 126.445 44.6992C126.445 45.0228 126.607 45.2939 126.931 45.5127C127.259 45.7314 127.74 45.9365 128.373 46.1279C129.54 46.4788 130.39 46.9141 130.923 47.4336C131.456 47.9531 131.723 48.6003 131.723 49.375C131.723 50.2363 131.397 50.9131 130.745 51.4053C130.093 51.8929 129.216 52.1367 128.113 52.1367C127.348 52.1367 126.65 51.9977 126.021 51.7197C125.393 51.4372 124.912 51.0521 124.579 50.5645C124.251 50.0768 124.087 49.5117 124.087 48.8691H126.145C126.145 49.9674 126.801 50.5166 128.113 50.5166C128.601 50.5166 128.981 50.4186 129.255 50.2227C129.528 50.0221 129.665 49.7441 129.665 49.3887ZM136.063 50.5439C136.428 50.5439 136.724 50.4437 136.952 50.2432C137.18 50.0426 137.299 49.776 137.308 49.4434H139.16C139.156 49.9447 139.019 50.4049 138.75 50.8242C138.481 51.2389 138.112 51.5625 137.643 51.7949C137.178 52.0228 136.663 52.1367 136.098 52.1367C135.04 52.1367 134.206 51.8018 133.596 51.1318C132.985 50.4574 132.68 49.5277 132.68 48.3428V48.2129C132.68 47.0736 132.983 46.1644 133.589 45.4854C134.195 44.8063 135.027 44.4668 136.084 44.4668C137.009 44.4668 137.75 44.7311 138.306 45.2598C138.866 45.7839 139.151 46.4834 139.16 47.3584H137.308C137.299 46.9756 137.18 46.6657 136.952 46.4287C136.724 46.1872 136.424 46.0664 136.05 46.0664C135.59 46.0664 135.241 46.235 135.004 46.5723C134.771 46.9049 134.655 47.4473 134.655 48.1992V48.4043C134.655 49.1654 134.771 49.7122 135.004 50.0449C135.236 50.3776 135.59 50.5439 136.063 50.5439ZM139.98 48.2334C139.98 47.4997 140.122 46.8457 140.404 46.2715C140.687 45.6973 141.092 45.2529 141.621 44.9385C142.154 44.624 142.772 44.4668 143.474 44.4668C144.472 44.4668 145.285 44.7721 145.914 45.3828C146.548 45.9935 146.901 46.8229 146.974 47.8711L146.987 48.377C146.987 49.5117 146.671 50.4232 146.037 51.1113C145.404 51.7949 144.554 52.1367 143.487 52.1367C142.421 52.1367 141.569 51.7949 140.931 51.1113C140.297 50.4277 139.98 49.498 139.98 48.3223V48.2334ZM141.956 48.377C141.956 49.0788 142.088 49.6165 142.353 49.9902C142.617 50.3594 142.995 50.5439 143.487 50.5439C143.966 50.5439 144.34 50.3617 144.608 49.9971C144.877 49.6279 145.012 49.04 145.012 48.2334C145.012 47.5452 144.877 47.012 144.608 46.6338C144.34 46.2555 143.961 46.0664 143.474 46.0664C142.991 46.0664 142.617 46.2555 142.353 46.6338C142.088 47.0075 141.956 47.5885 141.956 48.377ZM154.862 48.3701C154.862 49.5094 154.603 50.4232 154.083 51.1113C153.568 51.7949 152.871 52.1367 151.991 52.1367C151.244 52.1367 150.64 51.877 150.18 51.3574V54.8438H148.204V44.6035H150.036L150.104 45.3281C150.583 44.7539 151.207 44.4668 151.978 44.4668C152.889 44.4668 153.598 44.804 154.104 45.4785C154.609 46.153 154.862 47.0827 154.862 48.2676V48.3701ZM152.887 48.2266C152.887 47.5384 152.764 47.0075 152.518 46.6338C152.276 46.2601 151.923 46.0732 151.458 46.0732C150.838 46.0732 150.412 46.3102 150.18 46.7842V49.8125C150.421 50.3001 150.852 50.5439 151.472 50.5439C152.415 50.5439 152.887 49.7715 152.887 48.2266ZM158.178 52H156.195V44.6035H158.178V52ZM156.079 42.6895C156.079 42.3932 156.177 42.1494 156.373 41.958C156.574 41.7666 156.845 41.6709 157.187 41.6709C157.524 41.6709 157.793 41.7666 157.993 41.958C158.194 42.1494 158.294 42.3932 158.294 42.6895C158.294 42.9902 158.191 43.2363 157.986 43.4277C157.786 43.6191 157.519 43.7148 157.187 43.7148C156.854 43.7148 156.585 43.6191 156.38 43.4277C156.179 43.2363 156.079 42.9902 156.079 42.6895ZM161.63 44.6035L161.691 45.458C162.22 44.7972 162.929 44.4668 163.817 44.4668C164.601 44.4668 165.185 44.6969 165.567 45.1572C165.95 45.6175 166.146 46.3057 166.155 47.2217V52H164.18V47.2695C164.18 46.8503 164.089 46.5472 163.906 46.3604C163.724 46.1689 163.421 46.0732 162.997 46.0732C162.441 46.0732 162.024 46.3102 161.746 46.7842V52H159.771V44.6035H161.63ZM167.372 48.2471C167.372 47.1123 167.641 46.1986 168.179 45.5059C168.721 44.8132 169.45 44.4668 170.366 44.4668C171.177 44.4668 171.809 44.7448 172.26 45.3008L172.342 44.6035H174.133V51.7539C174.133 52.401 173.985 52.9639 173.688 53.4424C173.397 53.9209 172.984 54.2855 172.451 54.5361C171.918 54.7868 171.294 54.9121 170.578 54.9121C170.036 54.9121 169.507 54.8027 168.992 54.584C168.477 54.3698 168.088 54.0918 167.823 53.75L168.698 52.5469C169.19 53.0983 169.787 53.374 170.489 53.374C171.013 53.374 171.421 53.2327 171.713 52.9502C172.005 52.6722 172.15 52.2757 172.15 51.7607V51.3643C171.695 51.8792 171.095 52.1367 170.353 52.1367C169.464 52.1367 168.744 51.7904 168.192 51.0977C167.646 50.4004 167.372 49.4775 167.372 48.3291V48.2471ZM169.348 48.3906C169.348 49.0605 169.482 49.5869 169.751 49.9697C170.02 50.348 170.389 50.5371 170.858 50.5371C171.46 50.5371 171.891 50.3115 172.15 49.8604V46.75C171.886 46.2988 171.46 46.0732 170.872 46.0732C170.398 46.0732 170.024 46.2669 169.751 46.6543C169.482 47.0417 169.348 47.6204 169.348 48.3906Z" fill="#657B83"/>
<path d="M414.121 126.08H418.164V127H412.99V118.469H414.121V126.08ZM424.152 123.232H420.572V127H419.447V118.469H424.732V119.395H420.572V122.312H424.152V123.232ZM430.896 124.311L431.061 125.436L431.301 124.422L432.988 118.469H433.938L435.584 124.422L435.818 125.453L436 124.305L437.324 118.469H438.455L436.387 127H435.361L433.604 120.783L433.469 120.133L433.334 120.783L431.512 127H430.486L428.424 118.469H429.549L430.896 124.311ZM440.717 127H439.633V120.66H440.717V127ZM439.545 118.979C439.545 118.803 439.598 118.654 439.703 118.533C439.812 118.412 439.973 118.352 440.184 118.352C440.395 118.352 440.555 118.412 440.664 118.533C440.773 118.654 440.828 118.803 440.828 118.979C440.828 119.154 440.773 119.301 440.664 119.418C440.555 119.535 440.395 119.594 440.184 119.594C439.973 119.594 439.812 119.535 439.703 119.418C439.598 119.301 439.545 119.154 439.545 118.979ZM445.521 121.633C445.357 121.605 445.18 121.592 444.988 121.592C444.277 121.592 443.795 121.895 443.541 122.5V127H442.457V120.66H443.512L443.529 121.393C443.885 120.826 444.389 120.543 445.041 120.543C445.252 120.543 445.412 120.57 445.521 120.625V121.633ZM449.037 127.117C448.178 127.117 447.479 126.836 446.939 126.273C446.4 125.707 446.131 124.951 446.131 124.006V123.807C446.131 123.178 446.25 122.617 446.488 122.125C446.73 121.629 447.066 121.242 447.496 120.965C447.93 120.684 448.398 120.543 448.902 120.543C449.727 120.543 450.367 120.814 450.824 121.357C451.281 121.9 451.51 122.678 451.51 123.689V124.141H447.215C447.23 124.766 447.412 125.271 447.76 125.658C448.111 126.041 448.557 126.232 449.096 126.232C449.479 126.232 449.803 126.154 450.068 125.998C450.334 125.842 450.566 125.635 450.766 125.377L451.428 125.893C450.896 126.709 450.1 127.117 449.037 127.117ZM448.902 121.434C448.465 121.434 448.098 121.594 447.801 121.914C447.504 122.23 447.32 122.676 447.25 123.25H450.426V123.168C450.395 122.617 450.246 122.191 449.98 121.891C449.715 121.586 449.355 121.434 448.902 121.434ZM453.303 127V121.498H452.301V120.66H453.303V120.01C453.303 119.33 453.484 118.805 453.848 118.434C454.211 118.062 454.725 117.877 455.389 117.877C455.639 117.877 455.887 117.91 456.133 117.977L456.074 118.855C455.891 118.82 455.695 118.803 455.488 118.803C455.137 118.803 454.865 118.906 454.674 119.113C454.482 119.316 454.387 119.609 454.387 119.992V120.66H455.74V121.498H454.387V127H453.303ZM460.006 121.633C459.842 121.605 459.664 121.592 459.473 121.592C458.762 121.592 458.279 121.895 458.025 122.5V127H456.941V120.66H457.996L458.014 121.393C458.369 120.826 458.873 120.543 459.525 120.543C459.736 120.543 459.896 120.57 460.006 120.625V121.633ZM464.688 127C464.625 126.875 464.574 126.652 464.535 126.332C464.031 126.855 463.43 127.117 462.73 127.117C462.105 127.117 461.592 126.941 461.189 126.59C460.791 126.234 460.592 125.785 460.592 125.242C460.592 124.582 460.842 124.07 461.342 123.707C461.846 123.34 462.553 123.156 463.463 123.156H464.518V122.658C464.518 122.279 464.404 121.979 464.178 121.756C463.951 121.529 463.617 121.416 463.176 121.416C462.789 121.416 462.465 121.514 462.203 121.709C461.941 121.904 461.811 122.141 461.811 122.418H460.721C460.721 122.102 460.832 121.797 461.055 121.504C461.281 121.207 461.586 120.973 461.969 120.801C462.355 120.629 462.779 120.543 463.24 120.543C463.971 120.543 464.543 120.727 464.957 121.094C465.371 121.457 465.586 121.959 465.602 122.6V125.518C465.602 126.1 465.676 126.562 465.824 126.906V127H464.688ZM462.889 126.174C463.229 126.174 463.551 126.086 463.855 125.91C464.16 125.734 464.381 125.506 464.518 125.225V123.924H463.668C462.34 123.924 461.676 124.312 461.676 125.09C461.676 125.43 461.789 125.695 462.016 125.887C462.242 126.078 462.533 126.174 462.889 126.174ZM468.32 120.66L468.35 121.363C468.814 120.816 469.441 120.543 470.23 120.543C471.117 120.543 471.721 120.883 472.041 121.562C472.252 121.258 472.525 121.012 472.861 120.824C473.201 120.637 473.602 120.543 474.062 120.543C475.453 120.543 476.16 121.279 476.184 122.752V127H475.1V122.816C475.1 122.363 474.996 122.025 474.789 121.803C474.582 121.576 474.234 121.463 473.746 121.463C473.344 121.463 473.01 121.584 472.744 121.826C472.479 122.064 472.324 122.387 472.281 122.793V127H471.191V122.846C471.191 121.924 470.74 121.463 469.838 121.463C469.127 121.463 468.641 121.766 468.379 122.371V127H467.295V120.66H468.32ZM479.002 127H477.918V120.66H479.002V127ZM477.83 118.979C477.83 118.803 477.883 118.654 477.988 118.533C478.098 118.412 478.258 118.352 478.469 118.352C478.68 118.352 478.84 118.412 478.949 118.533C479.059 118.654 479.113 118.803 479.113 118.979C479.113 119.154 479.059 119.301 478.949 119.418C478.84 119.535 478.68 119.594 478.469 119.594C478.258 119.594 478.098 119.535 477.988 119.418C477.883 119.301 477.83 119.154 477.83 118.979ZM481.768 120.66L481.803 121.457C482.287 120.848 482.92 120.543 483.701 120.543C485.041 120.543 485.717 121.299 485.729 122.811V127H484.645V122.805C484.641 122.348 484.535 122.01 484.328 121.791C484.125 121.572 483.807 121.463 483.373 121.463C483.021 121.463 482.713 121.557 482.447 121.744C482.182 121.932 481.975 122.178 481.826 122.482V127H480.742V120.66H481.768ZM487.105 123.777C487.105 122.789 487.334 122.004 487.791 121.422C488.248 120.836 488.854 120.543 489.607 120.543C490.381 120.543 490.984 120.816 491.418 121.363L491.471 120.66H492.461V126.848C492.461 127.668 492.217 128.314 491.729 128.787C491.244 129.26 490.592 129.496 489.771 129.496C489.314 129.496 488.867 129.398 488.43 129.203C487.992 129.008 487.658 128.74 487.428 128.4L487.99 127.75C488.455 128.324 489.023 128.611 489.695 128.611C490.223 128.611 490.633 128.463 490.926 128.166C491.223 127.869 491.371 127.451 491.371 126.912V126.367C490.938 126.867 490.346 127.117 489.596 127.117C488.854 127.117 488.252 126.818 487.791 126.221C487.334 125.623 487.105 124.809 487.105 123.777ZM488.195 123.9C488.195 124.615 488.342 125.178 488.635 125.588C488.928 125.994 489.338 126.197 489.865 126.197C490.549 126.197 491.051 125.887 491.371 125.266V122.371C491.039 121.766 490.541 121.463 489.877 121.463C489.35 121.463 488.938 121.668 488.641 122.078C488.344 122.488 488.195 123.096 488.195 123.9Z" fill="black"/>
<path d="M345.996 118.469V124.27C345.992 125.074 345.738 125.732 345.234 126.244C344.734 126.756 344.055 127.043 343.195 127.105L342.896 127.117C341.963 127.117 341.219 126.865 340.664 126.361C340.109 125.857 339.828 125.164 339.82 124.281V118.469H340.934V124.246C340.934 124.863 341.104 125.344 341.443 125.688C341.783 126.027 342.268 126.197 342.896 126.197C343.533 126.197 344.02 126.027 344.355 125.688C344.695 125.348 344.865 124.869 344.865 124.252V118.469H345.996ZM351.293 125.318C351.293 125.025 351.182 124.799 350.959 124.639C350.74 124.475 350.355 124.334 349.805 124.217C349.258 124.1 348.822 123.959 348.498 123.795C348.178 123.631 347.939 123.436 347.783 123.209C347.631 122.982 347.555 122.713 347.555 122.4C347.555 121.881 347.773 121.441 348.211 121.082C348.652 120.723 349.215 120.543 349.898 120.543C350.617 120.543 351.199 120.729 351.645 121.1C352.094 121.471 352.318 121.945 352.318 122.523H351.229C351.229 122.227 351.102 121.971 350.848 121.756C350.598 121.541 350.281 121.434 349.898 121.434C349.504 121.434 349.195 121.52 348.973 121.691C348.75 121.863 348.639 122.088 348.639 122.365C348.639 122.627 348.742 122.824 348.949 122.957C349.156 123.09 349.529 123.217 350.068 123.338C350.611 123.459 351.051 123.604 351.387 123.771C351.723 123.939 351.971 124.143 352.131 124.381C352.295 124.615 352.377 124.902 352.377 125.242C352.377 125.809 352.15 126.264 351.697 126.607C351.244 126.947 350.656 127.117 349.934 127.117C349.426 127.117 348.977 127.027 348.586 126.848C348.195 126.668 347.889 126.418 347.666 126.098C347.447 125.773 347.338 125.424 347.338 125.049H348.422C348.441 125.412 348.586 125.701 348.855 125.916C349.129 126.127 349.488 126.232 349.934 126.232C350.344 126.232 350.672 126.15 350.918 125.986C351.168 125.818 351.293 125.596 351.293 125.318ZM356.42 127.117C355.561 127.117 354.861 126.836 354.322 126.273C353.783 125.707 353.514 124.951 353.514 124.006V123.807C353.514 123.178 353.633 122.617 353.871 122.125C354.113 121.629 354.449 121.242 354.879 120.965C355.312 120.684 355.781 120.543 356.285 120.543C357.109 120.543 357.75 120.814 358.207 121.357C358.664 121.9 358.893 122.678 358.893 123.689V124.141H354.598C354.613 124.766 354.795 125.271 355.143 125.658C355.494 126.041 355.939 126.232 356.479 126.232C356.861 126.232 357.186 126.154 357.451 125.998C357.717 125.842 357.949 125.635 358.148 125.377L358.811 125.893C358.279 126.709 357.482 127.117 356.42 127.117ZM356.285 121.434C355.848 121.434 355.48 121.594 355.184 121.914C354.887 122.23 354.703 122.676 354.633 123.25H357.809V123.168C357.777 122.617 357.629 122.191 357.363 121.891C357.098 121.586 356.738 121.434 356.285 121.434ZM363.217 121.633C363.053 121.605 362.875 121.592 362.684 121.592C361.973 121.592 361.49 121.895 361.236 122.5V127H360.152V120.66H361.207L361.225 121.393C361.58 120.826 362.084 120.543 362.736 120.543C362.947 120.543 363.107 120.57 363.217 120.625V121.633ZM371.156 118.92C370.672 118.842 370.281 118.803 369.984 118.803C369.203 118.803 368.812 119.213 368.812 120.033V120.66H370.166V121.498H368.812V127H367.729V121.498H366.727V120.66H367.729V119.969C367.732 119.293 367.922 118.775 368.297 118.416C368.672 118.057 369.205 117.877 369.896 117.877C370.291 117.877 371.072 117.996 372.24 118.234V127H371.156V118.92ZM373.729 123.771C373.729 123.15 373.85 122.592 374.092 122.096C374.338 121.6 374.678 121.217 375.111 120.947C375.549 120.678 376.047 120.543 376.605 120.543C377.469 120.543 378.166 120.842 378.697 121.439C379.232 122.037 379.5 122.832 379.5 123.824V123.9C379.5 124.518 379.381 125.072 379.143 125.564C378.908 126.053 378.57 126.434 378.129 126.707C377.691 126.98 377.188 127.117 376.617 127.117C375.758 127.117 375.061 126.818 374.525 126.221C373.994 125.623 373.729 124.832 373.729 123.848V123.771ZM374.818 123.9C374.818 124.604 374.98 125.168 375.305 125.594C375.633 126.02 376.07 126.232 376.617 126.232C377.168 126.232 377.605 126.018 377.93 125.588C378.254 125.154 378.416 124.549 378.416 123.771C378.416 123.076 378.25 122.514 377.918 122.084C377.59 121.65 377.152 121.434 376.605 121.434C376.07 121.434 375.639 121.646 375.311 122.072C374.982 122.498 374.818 123.107 374.818 123.9ZM386.473 125.506L387.691 120.66H388.775L386.93 127H386.051L384.51 122.195L383.01 127H382.131L380.291 120.66H381.369L382.617 125.406L384.094 120.66H384.967L386.473 125.506Z" fill="black"/>
<path d="M644.547 128H643.416V124.057H639.115V128H637.99V119.469H639.115V123.137H643.416V119.469H644.547V128ZM651.25 124.232H647.67V128H646.545V119.469H651.83V120.395H647.67V123.312H651.25V124.232ZM657.994 125.311L658.158 126.436L658.398 125.422L660.086 119.469H661.035L662.682 125.422L662.916 126.453L663.098 125.305L664.422 119.469H665.553L663.484 128H662.459L660.701 121.783L660.566 121.133L660.432 121.783L658.609 128H657.584L655.521 119.469H656.646L657.994 125.311ZM667.814 128H666.73V121.66H667.814V128ZM666.643 119.979C666.643 119.803 666.695 119.654 666.801 119.533C666.91 119.412 667.07 119.352 667.281 119.352C667.492 119.352 667.652 119.412 667.762 119.533C667.871 119.654 667.926 119.803 667.926 119.979C667.926 120.154 667.871 120.301 667.762 120.418C667.652 120.535 667.492 120.594 667.281 120.594C667.07 120.594 666.91 120.535 666.801 120.418C666.695 120.301 666.643 120.154 666.643 119.979ZM672.619 122.633C672.455 122.605 672.277 122.592 672.086 122.592C671.375 122.592 670.893 122.895 670.639 123.5V128H669.555V121.66H670.609L670.627 122.393C670.982 121.826 671.486 121.543 672.139 121.543C672.35 121.543 672.51 121.57 672.619 121.625V122.633ZM676.135 128.117C675.275 128.117 674.576 127.836 674.037 127.273C673.498 126.707 673.229 125.951 673.229 125.006V124.807C673.229 124.178 673.348 123.617 673.586 123.125C673.828 122.629 674.164 122.242 674.594 121.965C675.027 121.684 675.496 121.543 676 121.543C676.824 121.543 677.465 121.814 677.922 122.357C678.379 122.9 678.607 123.678 678.607 124.689V125.141H674.312C674.328 125.766 674.51 126.271 674.857 126.658C675.209 127.041 675.654 127.232 676.193 127.232C676.576 127.232 676.9 127.154 677.166 126.998C677.432 126.842 677.664 126.635 677.863 126.377L678.525 126.893C677.994 127.709 677.197 128.117 676.135 128.117ZM676 122.434C675.562 122.434 675.195 122.594 674.898 122.914C674.602 123.23 674.418 123.676 674.348 124.25H677.523V124.168C677.492 123.617 677.344 123.191 677.078 122.891C676.812 122.586 676.453 122.434 676 122.434ZM680.4 128V122.498H679.398V121.66H680.4V121.01C680.4 120.33 680.582 119.805 680.945 119.434C681.309 119.062 681.822 118.877 682.486 118.877C682.736 118.877 682.984 118.91 683.23 118.977L683.172 119.855C682.988 119.82 682.793 119.803 682.586 119.803C682.234 119.803 681.963 119.906 681.771 120.113C681.58 120.316 681.484 120.609 681.484 120.992V121.66H682.838V122.498H681.484V128H680.4ZM687.953 128C687.891 127.875 687.84 127.652 687.801 127.332C687.297 127.855 686.695 128.117 685.996 128.117C685.371 128.117 684.857 127.941 684.455 127.59C684.057 127.234 683.857 126.785 683.857 126.242C683.857 125.582 684.107 125.07 684.607 124.707C685.111 124.34 685.818 124.156 686.729 124.156H687.783V123.658C687.783 123.279 687.67 122.979 687.443 122.756C687.217 122.529 686.883 122.416 686.441 122.416C686.055 122.416 685.73 122.514 685.469 122.709C685.207 122.904 685.076 123.141 685.076 123.418H683.986C683.986 123.102 684.098 122.797 684.32 122.504C684.547 122.207 684.852 121.973 685.234 121.801C685.621 121.629 686.045 121.543 686.506 121.543C687.236 121.543 687.809 121.727 688.223 122.094C688.637 122.457 688.852 122.959 688.867 123.6V126.518C688.867 127.1 688.941 127.562 689.09 127.906V128H687.953ZM686.154 127.174C686.494 127.174 686.816 127.086 687.121 126.91C687.426 126.734 687.646 126.506 687.783 126.225V124.924H686.934C685.605 124.924 684.941 125.312 684.941 126.09C684.941 126.43 685.055 126.695 685.281 126.887C685.508 127.078 685.799 127.174 686.154 127.174ZM691.586 121.66L691.615 122.363C692.08 121.816 692.707 121.543 693.496 121.543C694.383 121.543 694.986 121.883 695.307 122.562C695.518 122.258 695.791 122.012 696.127 121.824C696.467 121.637 696.867 121.543 697.328 121.543C698.719 121.543 699.426 122.279 699.449 123.752V128H698.365V123.816C698.365 123.363 698.262 123.025 698.055 122.803C697.848 122.576 697.5 122.463 697.012 122.463C696.609 122.463 696.275 122.584 696.01 122.826C695.744 123.064 695.59 123.387 695.547 123.793V128H694.457V123.846C694.457 122.924 694.006 122.463 693.104 122.463C692.393 122.463 691.906 122.766 691.645 123.371V128H690.561V121.66H691.586ZM702.268 128H701.184V121.66H702.268V128ZM701.096 119.979C701.096 119.803 701.148 119.654 701.254 119.533C701.363 119.412 701.523 119.352 701.734 119.352C701.945 119.352 702.105 119.412 702.215 119.533C702.324 119.654 702.379 119.803 702.379 119.979C702.379 120.154 702.324 120.301 702.215 120.418C702.105 120.535 701.945 120.594 701.734 120.594C701.523 120.594 701.363 120.535 701.254 120.418C701.148 120.301 701.096 120.154 701.096 119.979ZM705.033 121.66L705.068 122.457C705.553 121.848 706.186 121.543 706.967 121.543C708.307 121.543 708.982 122.299 708.994 123.811V128H707.91V123.805C707.906 123.348 707.801 123.01 707.594 122.791C707.391 122.572 707.072 122.463 706.639 122.463C706.287 122.463 705.979 122.557 705.713 122.744C705.447 122.932 705.24 123.178 705.092 123.482V128H704.008V121.66H705.033ZM710.371 124.777C710.371 123.789 710.6 123.004 711.057 122.422C711.514 121.836 712.119 121.543 712.873 121.543C713.646 121.543 714.25 121.816 714.684 122.363L714.736 121.66H715.727V127.848C715.727 128.668 715.482 129.314 714.994 129.787C714.51 130.26 713.857 130.496 713.037 130.496C712.58 130.496 712.133 130.398 711.695 130.203C711.258 130.008 710.924 129.74 710.693 129.4L711.256 128.75C711.721 129.324 712.289 129.611 712.961 129.611C713.488 129.611 713.898 129.463 714.191 129.166C714.488 128.869 714.637 128.451 714.637 127.912V127.367C714.203 127.867 713.611 128.117 712.861 128.117C712.119 128.117 711.518 127.818 711.057 127.221C710.6 126.623 710.371 125.809 710.371 124.777ZM711.461 124.9C711.461 125.615 711.607 126.178 711.9 126.588C712.193 126.994 712.604 127.197 713.131 127.197C713.814 127.197 714.316 126.887 714.637 126.266V123.371C714.305 122.766 713.807 122.463 713.143 122.463C712.615 122.463 712.203 122.668 711.906 123.078C711.609 123.488 711.461 124.096 711.461 124.9Z" fill="black"/>
<path d="M106 81H92C90.9 81 90 81.9 90 83V97C90 98.1 90.9 99 92 99H106C107.1 99 108 98.1 108 97V83C108 81.9 107.1 81 106 81ZM96 95H94V88H96V95ZM100 95H98V85H100V95ZM104 95H102V91H104V95Z" fill="#657B83"/>
<path d="M676.47 95.48C673.2 93.94 670.86 90.76 670.5 87H669C669.51 93.16 674.66 98 680.95 98L681.61 97.97L677.8 94.16L676.47 95.48ZM677.36 88.96C677.17 88.96 676.99 88.93 676.84 88.88C676.68 88.82 676.55 88.75 676.44 88.64C676.33 88.54 676.24 88.42 676.18 88.27C676.12 88.13 676.09 87.97 676.09 87.8H674.79C674.79 88.16 674.86 88.48 675 88.75C675.14 89.02 675.33 89.25 675.56 89.44C675.8 89.62 676.07 89.76 676.38 89.85C676.68 89.95 677 90 677.34 90C677.71 90 678.06 89.95 678.37 89.85C678.69 89.75 678.97 89.6 679.2 89.41C679.43 89.22 679.62 88.98 679.75 88.69C679.88 88.4 679.95 88.08 679.95 87.72C679.95 87.53 679.93 87.34 679.88 87.16C679.83 86.98 679.76 86.81 679.65 86.65C679.55 86.49 679.41 86.35 679.25 86.22C679.08 86.09 678.88 85.99 678.64 85.91C678.84 85.82 679.01 85.71 679.16 85.58C679.31 85.45 679.43 85.31 679.53 85.16C679.63 85.01 679.7 84.86 679.75 84.7C679.8 84.54 679.82 84.38 679.82 84.22C679.82 83.86 679.76 83.54 679.64 83.26C679.52 82.98 679.35 82.75 679.13 82.57C678.93 82.38 678.66 82.24 678.36 82.14C678.05 82.05 677.71 82 677.34 82C676.98 82 676.65 82.05 676.34 82.16C676.04 82.27 675.77 82.42 675.55 82.61C675.34 82.8 675.17 83.02 675.04 83.28C674.92 83.54 674.86 83.82 674.86 84.13H676.16C676.16 83.96 676.19 83.81 676.25 83.68C676.31 83.55 676.39 83.43 676.5 83.34C676.61 83.25 676.73 83.17 676.88 83.12C677.03 83.07 677.18 83.04 677.36 83.04C677.76 83.04 678.06 83.14 678.25 83.35C678.44 83.55 678.54 83.84 678.54 84.21C678.54 84.39 678.51 84.55 678.46 84.7C678.41 84.85 678.32 84.97 678.21 85.07C678.1 85.17 677.96 85.25 677.8 85.31C677.64 85.37 677.44 85.4 677.22 85.4H676.45V86.43H677.22C677.44 86.43 677.64 86.45 677.82 86.5C678 86.55 678.15 86.63 678.27 86.73C678.39 86.84 678.49 86.97 678.56 87.13C678.63 87.29 678.66 87.48 678.66 87.7C678.66 88.11 678.54 88.42 678.31 88.63C678.08 88.86 677.76 88.96 677.36 88.96ZM685.91 83.04C685.59 82.71 685.21 82.45 684.77 82.27C684.34 82.09 683.85 82 683.31 82H680.95V90H683.25C683.8 90 684.31 89.91 684.76 89.73C685.21 89.55 685.6 89.3 685.92 88.97C686.24 88.64 686.49 88.24 686.66 87.78C686.83 87.31 686.92 86.79 686.92 86.21V85.81C686.92 85.23 686.83 84.71 686.66 84.24C686.48 83.77 686.23 83.37 685.91 83.04ZM685.52 86.2C685.52 86.62 685.47 86.99 685.38 87.33C685.28 87.66 685.14 87.95 684.95 88.18C684.76 88.41 684.52 88.59 684.24 88.71C683.95 88.83 683.62 88.89 683.25 88.89H682.34V83.12H683.31C684.03 83.12 684.58 83.35 684.95 83.81C685.33 84.27 685.52 84.93 685.52 85.8V86.2ZM680.95 74L680.29 74.03L684.1 77.84L685.43 76.51C688.7 78.06 691.04 81.23 691.39 84.99H692.89C692.39 78.84 687.24 74 680.95 74Z" fill="#657B83"/>
<path d="M448 100H460L454 94L448 100ZM463 81H445C443.9 81 443 81.9 443 83V95C443 96.1 443.9 97 445 97H449V95H445V83H463V95H459V97H463C464.1 97 465 96.1 465 95V83C465 81.9 464.1 81 463 81Z" fill="#657B83"/>
<path d="M192.5 83C189.89 83.7 186.83 84 184 84C181.17 84 178.11 83.7 175.5 83L175 85C176.86 85.5 179 85.83 181 86V99H183V93H185V99H187V86C189 85.83 191.14 85.5 193 85L192.5 83ZM184 83C185.1 83 186 82.1 186 81C186 79.9 185.1 79 184 79C182.9 79 182 79.9 182 81C182 82.1 182.9 83 184 83Z" fill="#657B83"/>
<line x1="57" y1="157" x2="215" y2="157" stroke="#E5E5E5" stroke-width="2"/>
<line x1="331" y1="157" x2="489" y2="157" stroke="#E5E5E5" stroke-width="2"/>
<line x1="603" y1="157" x2="761" y2="157" stroke="#E5E5E5" stroke-width="2"/>
<path d="M369.839 89H358V91H369.839V94L373.772 90L369.839 86V89Z" fill="#657B83"/>
</svg>
