<svg width="811" height="248" viewBox="0 0 811 248" fill="none" xmlns="http://www.w3.org/2000/svg">
<path d="M0 26H807V248H0V26Z" fill="white"/>
<path d="M77.9395 69.4932V73H75.8887V63.0469H79.7715C80.5189 63.0469 81.1751 63.1836 81.7402 63.457C82.3099 63.7305 82.7474 64.1201 83.0527 64.626C83.3581 65.1273 83.5107 65.6992 83.5107 66.3418C83.5107 67.3171 83.1758 68.0872 82.5059 68.6523C81.8405 69.2129 80.9176 69.4932 79.7373 69.4932H77.9395ZM77.9395 67.832H79.7715C80.3138 67.832 80.7262 67.7044 81.0088 67.4492C81.2959 67.194 81.4395 66.8294 81.4395 66.3555C81.4395 65.8678 81.2959 65.4736 81.0088 65.1729C80.7217 64.8721 80.3252 64.7171 79.8193 64.708H77.9395V67.832ZM88.9521 67.4561C88.6833 67.4196 88.4463 67.4014 88.2412 67.4014C87.4938 67.4014 87.0039 67.6543 86.7715 68.1602V73H84.7959V65.6035H86.6621L86.7168 66.4854C87.1133 65.8063 87.6624 65.4668 88.3643 65.4668C88.583 65.4668 88.7881 65.4964 88.9795 65.5557L88.9521 67.4561ZM89.3555 69.2334C89.3555 68.4997 89.4967 67.8457 89.7793 67.2715C90.0618 66.6973 90.4674 66.2529 90.9961 65.9385C91.5293 65.624 92.1468 65.4668 92.8486 65.4668C93.8467 65.4668 94.6602 65.7721 95.2891 66.3828C95.9225 66.9935 96.2757 67.8229 96.3486 68.8711L96.3623 69.377C96.3623 70.5117 96.0456 71.4232 95.4121 72.1113C94.7786 72.7949 93.9287 73.1367 92.8623 73.1367C91.7959 73.1367 90.9437 72.7949 90.3057 72.1113C89.6722 71.4277 89.3555 70.498 89.3555 69.3223V69.2334ZM91.3311 69.377C91.3311 70.0788 91.4632 70.6165 91.7275 70.9902C91.9919 71.3594 92.3701 71.5439 92.8623 71.5439C93.3408 71.5439 93.7145 71.3617 93.9834 70.9971C94.2523 70.6279 94.3867 70.04 94.3867 69.2334C94.3867 68.5452 94.2523 68.012 93.9834 67.6338C93.7145 67.2555 93.3363 67.0664 92.8486 67.0664C92.3656 67.0664 91.9919 67.2555 91.7275 67.6338C91.4632 68.0075 91.3311 68.5885 91.3311 69.377ZM104.244 69.3701C104.244 70.555 103.991 71.4801 103.485 72.1455C102.979 72.8063 102.273 73.1367 101.366 73.1367C100.564 73.1367 99.9238 72.8291 99.4453 72.2139L99.3564 73H97.5791V62.5H99.5547V66.2666C100.01 65.7334 100.61 65.4668 101.353 65.4668C102.255 65.4668 102.961 65.7995 103.472 66.4648C103.987 67.1257 104.244 68.0576 104.244 69.2607V69.3701ZM102.269 69.2266C102.269 68.4792 102.15 67.9346 101.913 67.5928C101.676 67.2464 101.323 67.0732 100.854 67.0732C100.225 67.0732 99.7917 67.3307 99.5547 67.8457V70.7646C99.7962 71.2842 100.234 71.5439 100.867 71.5439C101.505 71.5439 101.924 71.2295 102.125 70.6006C102.221 70.2998 102.269 69.8418 102.269 69.2266ZM107.553 73H105.57V62.5H107.553V73ZM112.591 73.1367C111.506 73.1367 110.622 72.804 109.938 72.1387C109.259 71.4733 108.92 70.5869 108.92 69.4795V69.2881C108.92 68.5452 109.063 67.8822 109.351 67.2988C109.638 66.7109 110.043 66.2598 110.567 65.9453C111.096 65.6263 111.698 65.4668 112.372 65.4668C113.384 65.4668 114.179 65.7858 114.758 66.4238C115.341 67.0618 115.633 67.9665 115.633 69.1377V69.9443H110.923C110.987 70.4274 111.178 70.8148 111.497 71.1064C111.821 71.3981 112.229 71.5439 112.721 71.5439C113.482 71.5439 114.076 71.2682 114.505 70.7168L115.476 71.8037C115.179 72.223 114.778 72.5511 114.272 72.7881C113.767 73.0205 113.206 73.1367 112.591 73.1367ZM112.365 67.0664C111.973 67.0664 111.654 67.1986 111.408 67.4629C111.167 67.7272 111.012 68.1055 110.943 68.5977H113.691V68.4404C113.682 68.0029 113.564 67.6657 113.336 67.4287C113.108 67.1872 112.785 67.0664 112.365 67.0664ZM118.613 65.6035L118.675 66.4307C119.199 65.7881 119.908 65.4668 120.801 65.4668C121.753 65.4668 122.407 65.8428 122.763 66.5947C123.282 65.8428 124.023 65.4668 124.984 65.4668C125.786 65.4668 126.383 65.7015 126.775 66.1709C127.167 66.6357 127.363 67.3376 127.363 68.2764V73H125.381V68.2832C125.381 67.8639 125.299 67.5586 125.135 67.3672C124.971 67.1712 124.681 67.0732 124.267 67.0732C123.674 67.0732 123.264 67.3558 123.036 67.9209L123.043 73H121.067V68.29C121.067 67.8617 120.983 67.5518 120.814 67.3604C120.646 67.1689 120.359 67.0732 119.953 67.0732C119.393 67.0732 118.987 67.3057 118.736 67.7705V73H116.761V65.6035H118.613ZM137.665 70.3887C137.665 70.0013 137.528 69.7051 137.255 69.5C136.981 69.2904 136.489 69.0716 135.778 68.8438C135.067 68.6113 134.505 68.3835 134.09 68.1602C132.96 67.5495 132.395 66.7269 132.395 65.6924C132.395 65.1546 132.545 64.6761 132.846 64.2568C133.151 63.833 133.586 63.5026 134.151 63.2656C134.721 63.0286 135.359 62.9102 136.065 62.9102C136.776 62.9102 137.41 63.04 137.966 63.2998C138.522 63.555 138.952 63.9173 139.258 64.3867C139.568 64.8561 139.723 65.3893 139.723 65.9863H137.672C137.672 65.5306 137.528 65.1774 137.241 64.9268C136.954 64.6715 136.551 64.5439 136.031 64.5439C135.53 64.5439 135.14 64.651 134.862 64.8652C134.584 65.0749 134.445 65.3529 134.445 65.6992C134.445 66.0228 134.607 66.2939 134.931 66.5127C135.259 66.7314 135.74 66.9365 136.373 67.1279C137.54 67.4788 138.39 67.9141 138.923 68.4336C139.456 68.9531 139.723 69.6003 139.723 70.375C139.723 71.2363 139.397 71.9131 138.745 72.4053C138.093 72.8929 137.216 73.1367 136.113 73.1367C135.348 73.1367 134.65 72.9977 134.021 72.7197C133.393 72.4372 132.912 72.0521 132.579 71.5645C132.251 71.0768 132.087 70.5117 132.087 69.8691H134.145C134.145 70.9674 134.801 71.5166 136.113 71.5166C136.601 71.5166 136.981 71.4186 137.255 71.2227C137.528 71.0221 137.665 70.7441 137.665 70.3887ZM144.063 71.5439C144.428 71.5439 144.724 71.4437 144.952 71.2432C145.18 71.0426 145.299 70.776 145.308 70.4434H147.16C147.156 70.9447 147.019 71.4049 146.75 71.8242C146.481 72.2389 146.112 72.5625 145.643 72.7949C145.178 73.0228 144.663 73.1367 144.098 73.1367C143.04 73.1367 142.206 72.8018 141.596 72.1318C140.985 71.4574 140.68 70.5277 140.68 69.3428V69.2129C140.68 68.0736 140.983 67.1644 141.589 66.4854C142.195 65.8063 143.027 65.4668 144.084 65.4668C145.009 65.4668 145.75 65.7311 146.306 66.2598C146.866 66.7839 147.151 67.4834 147.16 68.3584H145.308C145.299 67.9756 145.18 67.6657 144.952 67.4287C144.724 67.1872 144.424 67.0664 144.05 67.0664C143.59 67.0664 143.241 67.235 143.004 67.5723C142.771 67.9049 142.655 68.4473 142.655 69.1992V69.4043C142.655 70.1654 142.771 70.7122 143.004 71.0449C143.236 71.3776 143.59 71.5439 144.063 71.5439ZM147.98 69.2334C147.98 68.4997 148.122 67.8457 148.404 67.2715C148.687 66.6973 149.092 66.2529 149.621 65.9385C150.154 65.624 150.772 65.4668 151.474 65.4668C152.472 65.4668 153.285 65.7721 153.914 66.3828C154.548 66.9935 154.901 67.8229 154.974 68.8711L154.987 69.377C154.987 70.5117 154.671 71.4232 154.037 72.1113C153.404 72.7949 152.554 73.1367 151.487 73.1367C150.421 73.1367 149.569 72.7949 148.931 72.1113C148.297 71.4277 147.98 70.498 147.98 69.3223V69.2334ZM149.956 69.377C149.956 70.0788 150.088 70.6165 150.353 70.9902C150.617 71.3594 150.995 71.5439 151.487 71.5439C151.966 71.5439 152.34 71.3617 152.608 70.9971C152.877 70.6279 153.012 70.04 153.012 69.2334C153.012 68.5452 152.877 68.012 152.608 67.6338C152.34 67.2555 151.961 67.0664 151.474 67.0664C150.991 67.0664 150.617 67.2555 150.353 67.6338C150.088 68.0075 149.956 68.5885 149.956 69.377ZM162.862 69.3701C162.862 70.5094 162.603 71.4232 162.083 72.1113C161.568 72.7949 160.871 73.1367 159.991 73.1367C159.244 73.1367 158.64 72.877 158.18 72.3574V75.8438H156.204V65.6035H158.036L158.104 66.3281C158.583 65.7539 159.207 65.4668 159.978 65.4668C160.889 65.4668 161.598 65.804 162.104 66.4785C162.609 67.153 162.862 68.0827 162.862 69.2676V69.3701ZM160.887 69.2266C160.887 68.5384 160.764 68.0075 160.518 67.6338C160.276 67.2601 159.923 67.0732 159.458 67.0732C158.838 67.0732 158.412 67.3102 158.18 67.7842V70.8125C158.421 71.3001 158.852 71.5439 159.472 71.5439C160.415 71.5439 160.887 70.7715 160.887 69.2266ZM166.178 73H164.195V65.6035H166.178V73ZM164.079 63.6895C164.079 63.3932 164.177 63.1494 164.373 62.958C164.574 62.7666 164.845 62.6709 165.187 62.6709C165.524 62.6709 165.793 62.7666 165.993 62.958C166.194 63.1494 166.294 63.3932 166.294 63.6895C166.294 63.9902 166.191 64.2363 165.986 64.4277C165.786 64.6191 165.519 64.7148 165.187 64.7148C164.854 64.7148 164.585 64.6191 164.38 64.4277C164.179 64.2363 164.079 63.9902 164.079 63.6895ZM169.63 65.6035L169.691 66.458C170.22 65.7972 170.929 65.4668 171.817 65.4668C172.601 65.4668 173.185 65.6969 173.567 66.1572C173.95 66.6175 174.146 67.3057 174.155 68.2217V73H172.18V68.2695C172.18 67.8503 172.089 67.5472 171.906 67.3604C171.724 67.1689 171.421 67.0732 170.997 67.0732C170.441 67.0732 170.024 67.3102 169.746 67.7842V73H167.771V65.6035H169.63ZM175.372 69.2471C175.372 68.1123 175.641 67.1986 176.179 66.5059C176.721 65.8132 177.45 65.4668 178.366 65.4668C179.177 65.4668 179.809 65.7448 180.26 66.3008L180.342 65.6035H182.133V72.7539C182.133 73.401 181.985 73.9639 181.688 74.4424C181.397 74.9209 180.984 75.2855 180.451 75.5361C179.918 75.7868 179.294 75.9121 178.578 75.9121C178.036 75.9121 177.507 75.8027 176.992 75.584C176.477 75.3698 176.088 75.0918 175.823 74.75L176.698 73.5469C177.19 74.0983 177.787 74.374 178.489 74.374C179.013 74.374 179.421 74.2327 179.713 73.9502C180.005 73.6722 180.15 73.2757 180.15 72.7607V72.3643C179.695 72.8792 179.095 73.1367 178.353 73.1367C177.464 73.1367 176.744 72.7904 176.192 72.0977C175.646 71.4004 175.372 70.4775 175.372 69.3291V69.2471ZM177.348 69.3906C177.348 70.0605 177.482 70.5869 177.751 70.9697C178.02 71.348 178.389 71.5371 178.858 71.5371C179.46 71.5371 179.891 71.3115 180.15 70.8604V67.75C179.886 67.2988 179.46 67.0732 178.872 67.0732C178.398 67.0732 178.024 67.2669 177.751 67.6543C177.482 68.0417 177.348 68.6204 177.348 69.3906Z" fill="#657B83"/>
<path d="M361.889 73V63.0469H364.951C365.826 63.0469 366.608 63.2451 367.296 63.6416C367.989 64.0335 368.529 64.5941 368.916 65.3232C369.303 66.0479 369.497 66.8727 369.497 67.7979V68.2559C369.497 69.181 369.306 70.0036 368.923 70.7236C368.545 71.4437 368.009 72.002 367.316 72.3984C366.624 72.7949 365.842 72.9954 364.972 73H361.889ZM363.939 64.708V71.3525H364.931C365.733 71.3525 366.346 71.0905 366.77 70.5664C367.193 70.0423 367.41 69.2926 367.419 68.3174V67.791C367.419 66.7793 367.209 66.0137 366.79 65.4941C366.371 64.9701 365.758 64.708 364.951 64.708H363.939ZM374.269 73.1367C373.184 73.1367 372.3 72.804 371.616 72.1387C370.937 71.4733 370.598 70.5869 370.598 69.4795V69.2881C370.598 68.5452 370.741 67.8822 371.028 67.2988C371.315 66.7109 371.721 66.2598 372.245 65.9453C372.774 65.6263 373.375 65.4668 374.05 65.4668C375.062 65.4668 375.857 65.7858 376.436 66.4238C377.019 67.0618 377.311 67.9665 377.311 69.1377V69.9443H372.601C372.664 70.4274 372.856 70.8148 373.175 71.1064C373.498 71.3981 373.906 71.5439 374.398 71.5439C375.16 71.5439 375.754 71.2682 376.183 70.7168L377.153 71.8037C376.857 72.223 376.456 72.5511 375.95 72.7881C375.444 73.0205 374.884 73.1367 374.269 73.1367ZM374.043 67.0664C373.651 67.0664 373.332 67.1986 373.086 67.4629C372.844 67.7272 372.689 68.1055 372.621 68.5977H375.369V68.4404C375.36 68.0029 375.242 67.6657 375.014 67.4287C374.786 67.1872 374.462 67.0664 374.043 67.0664ZM382.444 70.9561C382.444 70.7145 382.324 70.5254 382.082 70.3887C381.845 70.2474 381.462 70.1221 380.934 70.0127C379.174 69.6436 378.295 68.8962 378.295 67.7705C378.295 67.1143 378.566 66.5674 379.108 66.1299C379.655 65.6878 380.368 65.4668 381.248 65.4668C382.187 65.4668 382.937 65.6878 383.497 66.1299C384.062 66.5719 384.345 67.1462 384.345 67.8525H382.369C382.369 67.57 382.278 67.3376 382.096 67.1553C381.913 66.9684 381.629 66.875 381.241 66.875C380.909 66.875 380.651 66.9502 380.469 67.1006C380.286 67.251 380.195 67.4424 380.195 67.6748C380.195 67.8936 380.298 68.0713 380.503 68.208C380.713 68.3402 381.063 68.4564 381.556 68.5566C382.048 68.6523 382.463 68.7617 382.8 68.8848C383.843 69.2676 384.365 69.9307 384.365 70.874C384.365 71.5485 384.076 72.0954 383.497 72.5146C382.918 72.9294 382.171 73.1367 381.255 73.1367C380.635 73.1367 380.084 73.0273 379.601 72.8086C379.122 72.5853 378.746 72.2822 378.473 71.8994C378.199 71.512 378.062 71.0951 378.062 70.6484H379.936C379.954 70.9993 380.084 71.2682 380.325 71.4551C380.567 71.6419 380.89 71.7354 381.296 71.7354C381.674 71.7354 381.959 71.6647 382.15 71.5234C382.346 71.3776 382.444 71.1885 382.444 70.9561ZM387.729 73H385.746V65.6035H387.729V73ZM385.63 63.6895C385.63 63.3932 385.728 63.1494 385.924 62.958C386.124 62.7666 386.396 62.6709 386.737 62.6709C387.075 62.6709 387.343 62.7666 387.544 62.958C387.744 63.1494 387.845 63.3932 387.845 63.6895C387.845 63.9902 387.742 64.2363 387.537 64.4277C387.337 64.6191 387.07 64.7148 386.737 64.7148C386.405 64.7148 386.136 64.6191 385.931 64.4277C385.73 64.2363 385.63 63.9902 385.63 63.6895ZM389.075 69.2471C389.075 68.1123 389.344 67.1986 389.882 66.5059C390.424 65.8132 391.153 65.4668 392.069 65.4668C392.881 65.4668 393.512 65.7448 393.963 66.3008L394.045 65.6035H395.836V72.7539C395.836 73.401 395.688 73.9639 395.392 74.4424C395.1 74.9209 394.688 75.2855 394.154 75.5361C393.621 75.7868 392.997 75.9121 392.281 75.9121C391.739 75.9121 391.21 75.8027 390.695 75.584C390.18 75.3698 389.791 75.0918 389.526 74.75L390.401 73.5469C390.894 74.0983 391.491 74.374 392.192 74.374C392.716 74.374 393.124 74.2327 393.416 73.9502C393.708 73.6722 393.854 73.2757 393.854 72.7607V72.3643C393.398 72.8792 392.799 73.1367 392.056 73.1367C391.167 73.1367 390.447 72.7904 389.896 72.0977C389.349 71.4004 389.075 70.4775 389.075 69.3291V69.2471ZM391.051 69.3906C391.051 70.0605 391.185 70.5869 391.454 70.9697C391.723 71.348 392.092 71.5371 392.562 71.5371C393.163 71.5371 393.594 71.3115 393.854 70.8604V67.75C393.589 67.2988 393.163 67.0732 392.575 67.0732C392.101 67.0732 391.728 67.2669 391.454 67.6543C391.185 68.0417 391.051 68.6204 391.051 69.3906ZM399.179 65.6035L399.24 66.458C399.769 65.7972 400.478 65.4668 401.366 65.4668C402.15 65.4668 402.733 65.6969 403.116 66.1572C403.499 66.6175 403.695 67.3057 403.704 68.2217V73H401.729V68.2695C401.729 67.8503 401.637 67.5472 401.455 67.3604C401.273 67.1689 400.97 67.0732 400.546 67.0732C399.99 67.0732 399.573 67.3102 399.295 67.7842V73H397.319V65.6035H399.179ZM407.293 73H405.311V65.6035H407.293V73ZM405.194 63.6895C405.194 63.3932 405.292 63.1494 405.488 62.958C405.689 62.7666 405.96 62.6709 406.302 62.6709C406.639 62.6709 406.908 62.7666 407.108 62.958C407.309 63.1494 407.409 63.3932 407.409 63.6895C407.409 63.9902 407.307 64.2363 407.102 64.4277C406.901 64.6191 406.634 64.7148 406.302 64.7148C405.969 64.7148 405.7 64.6191 405.495 64.4277C405.295 64.2363 405.194 63.9902 405.194 63.6895ZM410.745 65.6035L410.807 66.458C411.335 65.7972 412.044 65.4668 412.933 65.4668C413.716 65.4668 414.3 65.6969 414.683 66.1572C415.065 66.6175 415.261 67.3057 415.271 68.2217V73H413.295V68.2695C413.295 67.8503 413.204 67.5472 413.021 67.3604C412.839 67.1689 412.536 67.0732 412.112 67.0732C411.556 67.0732 411.139 67.3102 410.861 67.7842V73H408.886V65.6035H410.745ZM416.487 69.2471C416.487 68.1123 416.756 67.1986 417.294 66.5059C417.836 65.8132 418.565 65.4668 419.481 65.4668C420.293 65.4668 420.924 65.7448 421.375 66.3008L421.457 65.6035H423.248V72.7539C423.248 73.401 423.1 73.9639 422.804 74.4424C422.512 74.9209 422.1 75.2855 421.566 75.5361C421.033 75.7868 420.409 75.9121 419.693 75.9121C419.151 75.9121 418.622 75.8027 418.107 75.584C417.592 75.3698 417.203 75.0918 416.938 74.75L417.813 73.5469C418.306 74.0983 418.903 74.374 419.604 74.374C420.129 74.374 420.536 74.2327 420.828 73.9502C421.12 73.6722 421.266 73.2757 421.266 72.7607V72.3643C420.81 72.8792 420.211 73.1367 419.468 73.1367C418.579 73.1367 417.859 72.7904 417.308 72.0977C416.761 71.4004 416.487 70.4775 416.487 69.3291V69.2471ZM418.463 69.3906C418.463 70.0605 418.597 70.5869 418.866 70.9697C419.135 71.348 419.504 71.5371 419.974 71.5371C420.575 71.5371 421.006 71.3115 421.266 70.8604V67.75C421.001 67.2988 420.575 67.0732 419.987 67.0732C419.513 67.0732 419.14 67.2669 418.866 67.6543C418.597 68.0417 418.463 68.6204 418.463 69.3906Z" fill="#657B83"/>
<path d="M328.504 147.918C327.539 147.641 326.836 147.301 326.395 146.898C325.957 146.492 325.738 145.992 325.738 145.398C325.738 144.727 326.006 144.172 326.541 143.734C327.08 143.293 327.779 143.072 328.639 143.072C329.225 143.072 329.746 143.186 330.203 143.412C330.664 143.639 331.02 143.951 331.27 144.35C331.523 144.748 331.65 145.184 331.65 145.656H330.52C330.52 145.141 330.355 144.736 330.027 144.443C329.699 144.146 329.236 143.998 328.639 143.998C328.084 143.998 327.65 144.121 327.338 144.367C327.029 144.609 326.875 144.947 326.875 145.381C326.875 145.729 327.021 146.023 327.314 146.266C327.611 146.504 328.113 146.723 328.82 146.922C329.531 147.121 330.086 147.342 330.484 147.584C330.887 147.822 331.184 148.102 331.375 148.422C331.57 148.742 331.668 149.119 331.668 149.553C331.668 150.244 331.398 150.799 330.859 151.217C330.32 151.631 329.6 151.838 328.697 151.838C328.111 151.838 327.564 151.727 327.057 151.504C326.549 151.277 326.156 150.969 325.879 150.578C325.605 150.188 325.469 149.744 325.469 149.248H326.6C326.6 149.764 326.789 150.172 327.168 150.473C327.551 150.77 328.061 150.918 328.697 150.918C329.291 150.918 329.746 150.797 330.062 150.555C330.379 150.312 330.537 149.982 330.537 149.564C330.537 149.146 330.391 148.824 330.098 148.598C329.805 148.367 329.273 148.141 328.504 147.918ZM334.416 143.846V145.381H335.6V146.219H334.416V150.15C334.416 150.404 334.469 150.596 334.574 150.725C334.68 150.85 334.859 150.912 335.113 150.912C335.238 150.912 335.41 150.889 335.629 150.842V151.721C335.344 151.799 335.066 151.838 334.797 151.838C334.312 151.838 333.947 151.691 333.701 151.398C333.455 151.105 333.332 150.689 333.332 150.15V146.219H332.178V145.381H333.332V143.846H334.416ZM336.467 148.492C336.467 147.871 336.588 147.312 336.83 146.816C337.076 146.32 337.416 145.938 337.85 145.668C338.287 145.398 338.785 145.264 339.344 145.264C340.207 145.264 340.904 145.562 341.436 146.16C341.971 146.758 342.238 147.553 342.238 148.545V148.621C342.238 149.238 342.119 149.793 341.881 150.285C341.646 150.773 341.309 151.154 340.867 151.428C340.43 151.701 339.926 151.838 339.355 151.838C338.496 151.838 337.799 151.539 337.264 150.941C336.732 150.344 336.467 149.553 336.467 148.568V148.492ZM337.557 148.621C337.557 149.324 337.719 149.889 338.043 150.314C338.371 150.74 338.809 150.953 339.355 150.953C339.906 150.953 340.344 150.738 340.668 150.309C340.992 149.875 341.154 149.27 341.154 148.492C341.154 147.797 340.988 147.234 340.656 146.805C340.328 146.371 339.891 146.154 339.344 146.154C338.809 146.154 338.377 146.367 338.049 146.793C337.721 147.219 337.557 147.828 337.557 148.621ZM346.662 146.354C346.498 146.326 346.32 146.312 346.129 146.312C345.418 146.312 344.936 146.615 344.682 147.221V151.721H343.598V145.381H344.652L344.67 146.113C345.025 145.547 345.529 145.264 346.182 145.264C346.393 145.264 346.553 145.291 346.662 145.346V146.354ZM349.844 150.133L351.32 145.381H352.48L349.932 152.699C349.537 153.754 348.91 154.281 348.051 154.281L347.846 154.264L347.441 154.188V153.309L347.734 153.332C348.102 153.332 348.387 153.258 348.59 153.109C348.797 152.961 348.967 152.689 349.1 152.295L349.34 151.65L347.078 145.381H348.262L349.844 150.133ZM358.82 148.621C358.82 149.59 358.598 150.369 358.152 150.959C357.707 151.545 357.109 151.838 356.359 151.838C355.559 151.838 354.939 151.555 354.502 150.988L354.449 151.721H353.453V142.721H354.537V146.078C354.975 145.535 355.578 145.264 356.348 145.264C357.117 145.264 357.721 145.555 358.158 146.137C358.6 146.719 358.82 147.516 358.82 148.527V148.621ZM357.736 148.498C357.736 147.76 357.594 147.189 357.309 146.787C357.023 146.385 356.613 146.184 356.078 146.184C355.363 146.184 354.85 146.516 354.537 147.18V149.922C354.869 150.586 355.387 150.918 356.09 150.918C356.609 150.918 357.014 150.717 357.303 150.314C357.592 149.912 357.736 149.307 357.736 148.498ZM359.904 148.492C359.904 147.871 360.025 147.312 360.268 146.816C360.514 146.32 360.854 145.938 361.287 145.668C361.725 145.398 362.223 145.264 362.781 145.264C363.645 145.264 364.342 145.562 364.873 146.16C365.408 146.758 365.676 147.553 365.676 148.545V148.621C365.676 149.238 365.557 149.793 365.318 150.285C365.084 150.773 364.746 151.154 364.305 151.428C363.867 151.701 363.363 151.838 362.793 151.838C361.934 151.838 361.236 151.539 360.701 150.941C360.17 150.344 359.904 149.553 359.904 148.568V148.492ZM360.994 148.621C360.994 149.324 361.156 149.889 361.48 150.314C361.809 150.74 362.246 150.953 362.793 150.953C363.344 150.953 363.781 150.738 364.105 150.309C364.43 149.875 364.592 149.27 364.592 148.492C364.592 147.797 364.426 147.234 364.094 146.805C363.766 146.371 363.328 146.154 362.781 146.154C362.246 146.154 361.814 146.367 361.486 146.793C361.158 147.219 360.994 147.828 360.994 148.621ZM370.949 151.721C370.887 151.596 370.836 151.373 370.797 151.053C370.293 151.576 369.691 151.838 368.992 151.838C368.367 151.838 367.854 151.662 367.451 151.311C367.053 150.955 366.854 150.506 366.854 149.963C366.854 149.303 367.104 148.791 367.604 148.428C368.107 148.061 368.814 147.877 369.725 147.877H370.779V147.379C370.779 147 370.666 146.699 370.439 146.477C370.213 146.25 369.879 146.137 369.438 146.137C369.051 146.137 368.727 146.234 368.465 146.43C368.203 146.625 368.072 146.861 368.072 147.139H366.982C366.982 146.822 367.094 146.518 367.316 146.225C367.543 145.928 367.848 145.693 368.23 145.521C368.617 145.35 369.041 145.264 369.502 145.264C370.232 145.264 370.805 145.447 371.219 145.814C371.633 146.178 371.848 146.68 371.863 147.32V150.238C371.863 150.82 371.938 151.283 372.086 151.627V151.721H370.949ZM369.15 150.895C369.49 150.895 369.812 150.807 370.117 150.631C370.422 150.455 370.643 150.227 370.779 149.945V148.645H369.93C368.602 148.645 367.938 149.033 367.938 149.811C367.938 150.15 368.051 150.416 368.277 150.607C368.504 150.799 368.795 150.895 369.15 150.895ZM376.627 146.354C376.463 146.326 376.285 146.312 376.094 146.312C375.383 146.312 374.9 146.615 374.646 147.221V151.721H373.562V145.381H374.617L374.635 146.113C374.99 145.547 375.494 145.264 376.146 145.264C376.357 145.264 376.518 145.291 376.627 145.346V146.354ZM377.248 148.498C377.248 147.525 377.479 146.744 377.939 146.154C378.4 145.561 379.004 145.264 379.75 145.264C380.492 145.264 381.08 145.518 381.514 146.025V142.721H382.598V151.721H381.602L381.549 151.041C381.115 151.572 380.512 151.838 379.738 151.838C379.004 151.838 378.404 151.537 377.939 150.936C377.479 150.334 377.248 149.549 377.248 148.58V148.498ZM378.332 148.621C378.332 149.34 378.48 149.902 378.777 150.309C379.074 150.715 379.484 150.918 380.008 150.918C380.695 150.918 381.197 150.609 381.514 149.992V147.08C381.189 146.482 380.691 146.184 380.02 146.184C379.488 146.184 379.074 146.389 378.777 146.799C378.48 147.209 378.332 147.816 378.332 148.621Z" fill="black"/>
<path d="M569.547 149H568.416V145.057H564.115V149H562.99V140.469H564.115V144.137H568.416V140.469H569.547V149ZM572.553 149H571.469V142.66H572.553V149ZM571.381 140.979C571.381 140.803 571.434 140.654 571.539 140.533C571.648 140.412 571.809 140.352 572.02 140.352C572.23 140.352 572.391 140.412 572.5 140.533C572.609 140.654 572.664 140.803 572.664 140.979C572.664 141.154 572.609 141.301 572.5 141.418C572.391 141.535 572.23 141.594 572.02 141.594C571.809 141.594 571.648 141.535 571.539 141.418C571.434 141.301 571.381 141.154 571.381 140.979ZM576.549 145.818H573.689V144.934H576.549V145.818ZM577.973 149V143.498H576.971V142.66H577.973V142.121C577.973 141.414 578.174 140.863 578.576 140.469C578.982 140.074 579.555 139.877 580.293 139.877C580.73 139.877 581.283 139.996 581.951 140.234L581.77 141.148C581.281 140.953 580.816 140.855 580.375 140.855C579.91 140.855 579.574 140.961 579.367 141.172C579.164 141.379 579.062 141.691 579.062 142.109V142.66H580.357V143.498H579.062V149H577.973ZM582.49 149H581.4V142.66H582.49V149ZM592.586 145.9C592.586 146.865 592.365 147.643 591.924 148.232C591.482 148.822 590.885 149.117 590.131 149.117C589.361 149.117 588.756 148.873 588.314 148.385V151.438H587.23V142.66H588.221L588.273 143.363C588.715 142.816 589.328 142.543 590.113 142.543C590.875 142.543 591.477 142.83 591.918 143.404C592.363 143.979 592.586 144.777 592.586 145.801V145.9ZM591.502 145.777C591.502 145.062 591.35 144.498 591.045 144.084C590.74 143.67 590.322 143.463 589.791 143.463C589.135 143.463 588.643 143.754 588.314 144.336V147.365C588.639 147.943 589.135 148.232 589.803 148.232C590.322 148.232 590.734 148.027 591.039 147.617C591.348 147.203 591.502 146.59 591.502 145.777ZM597.033 143.633C596.869 143.605 596.691 143.592 596.5 143.592C595.789 143.592 595.307 143.895 595.053 144.5V149H593.969V142.66H595.023L595.041 143.393C595.396 142.826 595.9 142.543 596.553 142.543C596.764 142.543 596.924 142.57 597.033 142.625V143.633ZM597.631 145.771C597.631 145.15 597.752 144.592 597.994 144.096C598.24 143.6 598.58 143.217 599.014 142.947C599.451 142.678 599.949 142.543 600.508 142.543C601.371 142.543 602.068 142.842 602.6 143.439C603.135 144.037 603.402 144.832 603.402 145.824V145.9C603.402 146.518 603.283 147.072 603.045 147.564C602.811 148.053 602.473 148.434 602.031 148.707C601.594 148.98 601.09 149.117 600.52 149.117C599.66 149.117 598.963 148.818 598.428 148.221C597.896 147.623 597.631 146.832 597.631 145.848V145.771ZM598.721 145.9C598.721 146.604 598.883 147.168 599.207 147.594C599.535 148.02 599.973 148.232 600.52 148.232C601.07 148.232 601.508 148.018 601.832 147.588C602.156 147.154 602.318 146.549 602.318 145.771C602.318 145.076 602.152 144.514 601.82 144.084C601.492 143.65 601.055 143.434 600.508 143.434C599.973 143.434 599.541 143.646 599.213 144.072C598.885 144.498 598.721 145.107 598.721 145.9ZM606.232 141.125V142.66H607.416V143.498H606.232V147.43C606.232 147.684 606.285 147.875 606.391 148.004C606.496 148.129 606.676 148.191 606.93 148.191C607.055 148.191 607.227 148.168 607.445 148.121V149C607.16 149.078 606.883 149.117 606.613 149.117C606.129 149.117 605.764 148.971 605.518 148.678C605.271 148.385 605.148 147.969 605.148 147.43V143.498H603.994V142.66H605.148V141.125H606.232ZM608.283 145.771C608.283 145.15 608.404 144.592 608.646 144.096C608.893 143.6 609.232 143.217 609.666 142.947C610.104 142.678 610.602 142.543 611.16 142.543C612.023 142.543 612.721 142.842 613.252 143.439C613.787 144.037 614.055 144.832 614.055 145.824V145.9C614.055 146.518 613.936 147.072 613.697 147.564C613.463 148.053 613.125 148.434 612.684 148.707C612.246 148.98 611.742 149.117 611.172 149.117C610.312 149.117 609.615 148.818 609.08 148.221C608.549 147.623 608.283 146.832 608.283 145.848V145.771ZM609.373 145.9C609.373 146.604 609.535 147.168 609.859 147.594C610.188 148.02 610.625 148.232 611.172 148.232C611.723 148.232 612.16 148.018 612.484 147.588C612.809 147.154 612.971 146.549 612.971 145.771C612.971 145.076 612.805 144.514 612.473 144.084C612.145 143.65 611.707 143.434 611.16 143.434C610.625 143.434 610.193 143.646 609.865 144.072C609.537 144.498 609.373 145.107 609.373 145.9ZM616.885 141.125V142.66H618.068V143.498H616.885V147.43C616.885 147.684 616.938 147.875 617.043 148.004C617.148 148.129 617.328 148.191 617.582 148.191C617.707 148.191 617.879 148.168 618.098 148.121V149C617.812 149.078 617.535 149.117 617.266 149.117C616.781 149.117 616.416 148.971 616.17 148.678C615.924 148.385 615.801 147.969 615.801 147.43V143.498H614.646V142.66H615.801V141.125H616.885ZM621.414 147.412L622.891 142.66H624.051L621.502 149.979C621.107 151.033 620.48 151.561 619.621 151.561L619.416 151.543L619.012 151.467V150.588L619.305 150.611C619.672 150.611 619.957 150.537 620.16 150.389C620.367 150.24 620.537 149.969 620.67 149.574L620.91 148.93L618.648 142.66H619.832L621.414 147.412ZM630.379 145.9C630.379 146.865 630.158 147.643 629.717 148.232C629.275 148.822 628.678 149.117 627.924 149.117C627.154 149.117 626.549 148.873 626.107 148.385V151.438H625.023V142.66H626.014L626.066 143.363C626.508 142.816 627.121 142.543 627.906 142.543C628.668 142.543 629.27 142.83 629.711 143.404C630.156 143.979 630.379 144.777 630.379 145.801V145.9ZM629.295 145.777C629.295 145.062 629.143 144.498 628.838 144.084C628.533 143.67 628.115 143.463 627.584 143.463C626.928 143.463 626.436 143.754 626.107 144.336V147.365C626.432 147.943 626.928 148.232 627.596 148.232C628.115 148.232 628.527 148.027 628.832 147.617C629.141 147.203 629.295 146.59 629.295 145.777ZM632.939 149H631.855V142.66H632.939V149ZM631.768 140.979C631.768 140.803 631.82 140.654 631.926 140.533C632.035 140.412 632.195 140.352 632.406 140.352C632.617 140.352 632.777 140.412 632.887 140.533C632.996 140.654 633.051 140.803 633.051 140.979C633.051 141.154 632.996 141.301 632.887 141.418C632.777 141.535 632.617 141.594 632.406 141.594C632.195 141.594 632.035 141.535 631.926 141.418C631.82 141.301 631.768 141.154 631.768 140.979ZM635.705 142.66L635.74 143.457C636.225 142.848 636.857 142.543 637.639 142.543C638.979 142.543 639.654 143.299 639.666 144.811V149H638.582V144.805C638.578 144.348 638.473 144.01 638.266 143.791C638.062 143.572 637.744 143.463 637.311 143.463C636.959 143.463 636.65 143.557 636.385 143.744C636.119 143.932 635.912 144.178 635.764 144.482V149H634.68V142.66H635.705ZM641.043 145.777C641.043 144.789 641.271 144.004 641.729 143.422C642.186 142.836 642.791 142.543 643.545 142.543C644.318 142.543 644.922 142.816 645.355 143.363L645.408 142.66H646.398V148.848C646.398 149.668 646.154 150.314 645.666 150.787C645.182 151.26 644.529 151.496 643.709 151.496C643.252 151.496 642.805 151.398 642.367 151.203C641.93 151.008 641.596 150.74 641.365 150.4L641.928 149.75C642.393 150.324 642.961 150.611 643.633 150.611C644.16 150.611 644.57 150.463 644.863 150.166C645.16 149.869 645.309 149.451 645.309 148.912V148.367C644.875 148.867 644.283 149.117 643.533 149.117C642.791 149.117 642.189 148.818 641.729 148.221C641.271 147.623 641.043 146.809 641.043 145.777ZM642.133 145.9C642.133 146.615 642.279 147.178 642.572 147.588C642.865 147.994 643.275 148.197 643.803 148.197C644.486 148.197 644.988 147.887 645.309 147.266V144.371C644.977 143.766 644.479 143.463 643.814 143.463C643.287 143.463 642.875 143.668 642.578 144.078C642.281 144.488 642.133 145.096 642.133 145.9Z" fill="black"/>
<path d="M679.996 140.469V146.27C679.992 147.074 679.738 147.732 679.234 148.244C678.734 148.756 678.055 149.043 677.195 149.105L676.896 149.117C675.963 149.117 675.219 148.865 674.664 148.361C674.109 147.857 673.828 147.164 673.82 146.281V140.469H674.934V146.246C674.934 146.863 675.104 147.344 675.443 147.688C675.783 148.027 676.268 148.197 676.896 148.197C677.533 148.197 678.02 148.027 678.355 147.688C678.695 147.348 678.865 146.869 678.865 146.252V140.469H679.996ZM685.293 147.318C685.293 147.025 685.182 146.799 684.959 146.639C684.74 146.475 684.355 146.334 683.805 146.217C683.258 146.1 682.822 145.959 682.498 145.795C682.178 145.631 681.939 145.436 681.783 145.209C681.631 144.982 681.555 144.713 681.555 144.4C681.555 143.881 681.773 143.441 682.211 143.082C682.652 142.723 683.215 142.543 683.898 142.543C684.617 142.543 685.199 142.729 685.645 143.1C686.094 143.471 686.318 143.945 686.318 144.523H685.229C685.229 144.227 685.102 143.971 684.848 143.756C684.598 143.541 684.281 143.434 683.898 143.434C683.504 143.434 683.195 143.52 682.973 143.691C682.75 143.863 682.639 144.088 682.639 144.365C682.639 144.627 682.742 144.824 682.949 144.957C683.156 145.09 683.529 145.217 684.068 145.338C684.611 145.459 685.051 145.604 685.387 145.771C685.723 145.939 685.971 146.143 686.131 146.381C686.295 146.615 686.377 146.902 686.377 147.242C686.377 147.809 686.15 148.264 685.697 148.607C685.244 148.947 684.656 149.117 683.934 149.117C683.426 149.117 682.977 149.027 682.586 148.848C682.195 148.668 681.889 148.418 681.666 148.098C681.447 147.773 681.338 147.424 681.338 147.049H682.422C682.441 147.412 682.586 147.701 682.855 147.916C683.129 148.127 683.488 148.232 683.934 148.232C684.344 148.232 684.672 148.15 684.918 147.986C685.168 147.818 685.293 147.596 685.293 147.318ZM690.42 149.117C689.561 149.117 688.861 148.836 688.322 148.273C687.783 147.707 687.514 146.951 687.514 146.006V145.807C687.514 145.178 687.633 144.617 687.871 144.125C688.113 143.629 688.449 143.242 688.879 142.965C689.312 142.684 689.781 142.543 690.285 142.543C691.109 142.543 691.75 142.814 692.207 143.357C692.664 143.9 692.893 144.678 692.893 145.689V146.141H688.598C688.613 146.766 688.795 147.271 689.143 147.658C689.494 148.041 689.939 148.232 690.479 148.232C690.861 148.232 691.186 148.154 691.451 147.998C691.717 147.842 691.949 147.635 692.148 147.377L692.811 147.893C692.279 148.709 691.482 149.117 690.42 149.117ZM690.285 143.434C689.848 143.434 689.48 143.594 689.184 143.914C688.887 144.23 688.703 144.676 688.633 145.25H691.809V145.168C691.777 144.617 691.629 144.191 691.363 143.891C691.098 143.586 690.738 143.434 690.285 143.434ZM697.217 143.633C697.053 143.605 696.875 143.592 696.684 143.592C695.973 143.592 695.49 143.895 695.236 144.5V149H694.152V142.66H695.207L695.225 143.393C695.58 142.826 696.084 142.543 696.736 142.543C696.947 142.543 697.107 142.57 697.217 142.625V143.633ZM701.898 149C701.836 148.875 701.785 148.652 701.746 148.332C701.242 148.855 700.641 149.117 699.941 149.117C699.316 149.117 698.803 148.941 698.4 148.59C698.002 148.234 697.803 147.785 697.803 147.242C697.803 146.582 698.053 146.07 698.553 145.707C699.057 145.34 699.764 145.156 700.674 145.156H701.729V144.658C701.729 144.279 701.615 143.979 701.389 143.756C701.162 143.529 700.828 143.416 700.387 143.416C700 143.416 699.676 143.514 699.414 143.709C699.152 143.904 699.021 144.141 699.021 144.418H697.932C697.932 144.102 698.043 143.797 698.266 143.504C698.492 143.207 698.797 142.973 699.18 142.801C699.566 142.629 699.99 142.543 700.451 142.543C701.182 142.543 701.754 142.727 702.168 143.094C702.582 143.457 702.797 143.959 702.812 144.6V147.518C702.812 148.1 702.887 148.562 703.035 148.906V149H701.898ZM700.1 148.174C700.439 148.174 700.762 148.086 701.066 147.91C701.371 147.734 701.592 147.506 701.729 147.225V145.924H700.879C699.551 145.924 698.887 146.312 698.887 147.09C698.887 147.43 699 147.695 699.227 147.887C699.453 148.078 699.744 148.174 700.1 148.174ZM709.879 145.9C709.879 146.869 709.656 147.648 709.211 148.238C708.766 148.824 708.168 149.117 707.418 149.117C706.617 149.117 705.998 148.834 705.561 148.268L705.508 149H704.512V140H705.596V143.357C706.033 142.814 706.637 142.543 707.406 142.543C708.176 142.543 708.779 142.834 709.217 143.416C709.658 143.998 709.879 144.795 709.879 145.807V145.9ZM708.795 145.777C708.795 145.039 708.652 144.469 708.367 144.066C708.082 143.664 707.672 143.463 707.137 143.463C706.422 143.463 705.908 143.795 705.596 144.459V147.201C705.928 147.865 706.445 148.197 707.148 148.197C707.668 148.197 708.072 147.996 708.361 147.594C708.65 147.191 708.795 146.586 708.795 145.777ZM712.428 149H711.344V142.66H712.428V149ZM711.256 140.979C711.256 140.803 711.309 140.654 711.414 140.533C711.523 140.412 711.684 140.352 711.895 140.352C712.105 140.352 712.266 140.412 712.375 140.533C712.484 140.654 712.539 140.803 712.539 140.979C712.539 141.154 712.484 141.301 712.375 141.418C712.266 141.535 712.105 141.594 711.895 141.594C711.684 141.594 711.523 141.535 711.414 141.418C711.309 141.301 711.256 141.154 711.256 140.979ZM715.346 149H714.262V140H715.346V149ZM718.264 149H717.18V142.66H718.264V149ZM717.092 140.979C717.092 140.803 717.145 140.654 717.25 140.533C717.359 140.412 717.52 140.352 717.73 140.352C717.941 140.352 718.102 140.412 718.211 140.533C718.32 140.654 718.375 140.803 718.375 140.979C718.375 141.154 718.32 141.301 718.211 141.418C718.102 141.535 717.941 141.594 717.73 141.594C717.52 141.594 717.359 141.535 717.25 141.418C717.145 141.301 717.092 141.154 717.092 140.979ZM721.475 141.125V142.66H722.658V143.498H721.475V147.43C721.475 147.684 721.527 147.875 721.633 148.004C721.738 148.129 721.918 148.191 722.172 148.191C722.297 148.191 722.469 148.168 722.688 148.121V149C722.402 149.078 722.125 149.117 721.855 149.117C721.371 149.117 721.006 148.971 720.76 148.678C720.514 148.385 720.391 147.969 720.391 147.43V143.498H719.236V142.66H720.391V141.125H721.475ZM726.004 147.412L727.48 142.66H728.641L726.092 149.979C725.697 151.033 725.07 151.561 724.211 151.561L724.006 151.543L723.602 151.467V150.588L723.895 150.611C724.262 150.611 724.547 150.537 724.75 150.389C724.957 150.24 725.127 149.969 725.26 149.574L725.5 148.93L723.238 142.66H724.422L726.004 147.412ZM738.42 141.395H735.678V149H734.559V141.395H731.822V140.469H738.42V141.395ZM741.561 149.117C740.701 149.117 740.002 148.836 739.463 148.273C738.924 147.707 738.654 146.951 738.654 146.006V145.807C738.654 145.178 738.773 144.617 739.012 144.125C739.254 143.629 739.59 143.242 740.02 142.965C740.453 142.684 740.922 142.543 741.426 142.543C742.25 142.543 742.891 142.814 743.348 143.357C743.805 143.9 744.033 144.678 744.033 145.689V146.141H739.738C739.754 146.766 739.936 147.271 740.283 147.658C740.635 148.041 741.08 148.232 741.619 148.232C742.002 148.232 742.326 148.154 742.592 147.998C742.857 147.842 743.09 147.635 743.289 147.377L743.951 147.893C743.42 148.709 742.623 149.117 741.561 149.117ZM741.426 143.434C740.988 143.434 740.621 143.594 740.324 143.914C740.027 144.23 739.844 144.676 739.773 145.25H742.949V145.168C742.918 144.617 742.77 144.191 742.504 143.891C742.238 143.586 741.879 143.434 741.426 143.434ZM748.984 147.318C748.984 147.025 748.873 146.799 748.65 146.639C748.432 146.475 748.047 146.334 747.496 146.217C746.949 146.1 746.514 145.959 746.189 145.795C745.869 145.631 745.631 145.436 745.475 145.209C745.322 144.982 745.246 144.713 745.246 144.4C745.246 143.881 745.465 143.441 745.902 143.082C746.344 142.723 746.906 142.543 747.59 142.543C748.309 142.543 748.891 142.729 749.336 143.1C749.785 143.471 750.01 143.945 750.01 144.523H748.92C748.92 144.227 748.793 143.971 748.539 143.756C748.289 143.541 747.973 143.434 747.59 143.434C747.195 143.434 746.887 143.52 746.664 143.691C746.441 143.863 746.33 144.088 746.33 144.365C746.33 144.627 746.434 144.824 746.641 144.957C746.848 145.09 747.221 145.217 747.76 145.338C748.303 145.459 748.742 145.604 749.078 145.771C749.414 145.939 749.662 146.143 749.822 146.381C749.986 146.615 750.068 146.902 750.068 147.242C750.068 147.809 749.842 148.264 749.389 148.607C748.936 148.947 748.348 149.117 747.625 149.117C747.117 149.117 746.668 149.027 746.277 148.848C745.887 148.668 745.58 148.418 745.357 148.098C745.139 147.773 745.029 147.424 745.029 147.049H746.113C746.133 147.412 746.277 147.701 746.547 147.916C746.82 148.127 747.18 148.232 747.625 148.232C748.035 148.232 748.363 148.15 748.609 147.986C748.859 147.818 748.984 147.596 748.984 147.318ZM752.951 141.125V142.66H754.135V143.498H752.951V147.43C752.951 147.684 753.004 147.875 753.109 148.004C753.215 148.129 753.395 148.191 753.648 148.191C753.773 148.191 753.945 148.168 754.164 148.121V149C753.879 149.078 753.602 149.117 753.332 149.117C752.848 149.117 752.482 148.971 752.236 148.678C751.99 148.385 751.867 147.969 751.867 147.43V143.498H750.713V142.66H751.867V141.125H752.951ZM756.584 149H755.5V142.66H756.584V149ZM755.412 140.979C755.412 140.803 755.465 140.654 755.57 140.533C755.68 140.412 755.84 140.352 756.051 140.352C756.262 140.352 756.422 140.412 756.531 140.533C756.641 140.654 756.695 140.803 756.695 140.979C756.695 141.154 756.641 141.301 756.531 141.418C756.422 141.535 756.262 141.594 756.051 141.594C755.84 141.594 755.68 141.535 755.57 141.418C755.465 141.301 755.412 141.154 755.412 140.979ZM759.35 142.66L759.385 143.457C759.869 142.848 760.502 142.543 761.283 142.543C762.623 142.543 763.299 143.299 763.311 144.811V149H762.227V144.805C762.223 144.348 762.117 144.01 761.91 143.791C761.707 143.572 761.389 143.463 760.955 143.463C760.604 143.463 760.295 143.557 760.029 143.744C759.764 143.932 759.557 144.178 759.408 144.482V149H758.324V142.66H759.35ZM764.688 145.777C764.688 144.789 764.916 144.004 765.373 143.422C765.83 142.836 766.436 142.543 767.189 142.543C767.963 142.543 768.566 142.816 769 143.363L769.053 142.66H770.043V148.848C770.043 149.668 769.799 150.314 769.311 150.787C768.826 151.26 768.174 151.496 767.354 151.496C766.896 151.496 766.449 151.398 766.012 151.203C765.574 151.008 765.24 150.74 765.01 150.4L765.572 149.75C766.037 150.324 766.605 150.611 767.277 150.611C767.805 150.611 768.215 150.463 768.508 150.166C768.805 149.869 768.953 149.451 768.953 148.912V148.367C768.52 148.867 767.928 149.117 767.178 149.117C766.436 149.117 765.834 148.818 765.373 148.221C764.916 147.623 764.688 146.809 764.688 145.777ZM765.777 145.9C765.777 146.615 765.924 147.178 766.217 147.588C766.51 147.994 766.92 148.197 767.447 148.197C768.131 148.197 768.633 147.887 768.953 147.266V144.371C768.621 143.766 768.123 143.463 767.459 143.463C766.932 143.463 766.52 143.668 766.223 144.078C765.926 144.488 765.777 145.096 765.777 145.9Z" fill="black"/>
<path d="M625.939 69.4932V73H623.889V63.0469H627.771C628.519 63.0469 629.175 63.1836 629.74 63.457C630.31 63.7305 630.747 64.1201 631.053 64.626C631.358 65.1273 631.511 65.6992 631.511 66.3418C631.511 67.3171 631.176 68.0872 630.506 68.6523C629.84 69.2129 628.918 69.4932 627.737 69.4932H625.939ZM625.939 67.832H627.771C628.314 67.832 628.726 67.7044 629.009 67.4492C629.296 67.194 629.439 66.8294 629.439 66.3555C629.439 65.8678 629.296 65.4736 629.009 65.1729C628.722 64.8721 628.325 64.7171 627.819 64.708H625.939V67.832ZM636.952 67.4561C636.683 67.4196 636.446 67.4014 636.241 67.4014C635.494 67.4014 635.004 67.6543 634.771 68.1602V73H632.796V65.6035H634.662L634.717 66.4854C635.113 65.8063 635.662 65.4668 636.364 65.4668C636.583 65.4668 636.788 65.4964 636.979 65.5557L636.952 67.4561ZM637.355 69.2334C637.355 68.4997 637.497 67.8457 637.779 67.2715C638.062 66.6973 638.467 66.2529 638.996 65.9385C639.529 65.624 640.147 65.4668 640.849 65.4668C641.847 65.4668 642.66 65.7721 643.289 66.3828C643.923 66.9935 644.276 67.8229 644.349 68.8711L644.362 69.377C644.362 70.5117 644.046 71.4232 643.412 72.1113C642.779 72.7949 641.929 73.1367 640.862 73.1367C639.796 73.1367 638.944 72.7949 638.306 72.1113C637.672 71.4277 637.355 70.498 637.355 69.3223V69.2334ZM639.331 69.377C639.331 70.0788 639.463 70.6165 639.728 70.9902C639.992 71.3594 640.37 71.5439 640.862 71.5439C641.341 71.5439 641.715 71.3617 641.983 70.9971C642.252 70.6279 642.387 70.04 642.387 69.2334C642.387 68.5452 642.252 68.012 641.983 67.6338C641.715 67.2555 641.336 67.0664 640.849 67.0664C640.366 67.0664 639.992 67.2555 639.728 67.6338C639.463 68.0075 639.331 68.5885 639.331 69.377ZM647.944 63.7852V65.6035H649.209V67.0527H647.944V70.7441C647.944 71.0176 647.997 71.2135 648.102 71.332C648.206 71.4505 648.407 71.5098 648.703 71.5098C648.922 71.5098 649.116 71.4938 649.284 71.4619V72.959C648.897 73.0775 648.498 73.1367 648.088 73.1367C646.702 73.1367 645.996 72.4372 645.969 71.0381V67.0527H644.889V65.6035H645.969V63.7852H647.944ZM649.797 69.2334C649.797 68.4997 649.938 67.8457 650.221 67.2715C650.503 66.6973 650.909 66.2529 651.438 65.9385C651.971 65.624 652.588 65.4668 653.29 65.4668C654.288 65.4668 655.102 65.7721 655.73 66.3828C656.364 66.9935 656.717 67.8229 656.79 68.8711L656.804 69.377C656.804 70.5117 656.487 71.4232 655.854 72.1113C655.22 72.7949 654.37 73.1367 653.304 73.1367C652.237 73.1367 651.385 72.7949 650.747 72.1113C650.114 71.4277 649.797 70.498 649.797 69.3223V69.2334ZM651.772 69.377C651.772 70.0788 651.905 70.6165 652.169 70.9902C652.433 71.3594 652.812 71.5439 653.304 71.5439C653.782 71.5439 654.156 71.3617 654.425 70.9971C654.694 70.6279 654.828 70.04 654.828 69.2334C654.828 68.5452 654.694 68.012 654.425 67.6338C654.156 67.2555 653.778 67.0664 653.29 67.0664C652.807 67.0664 652.433 67.2555 652.169 67.6338C651.905 68.0075 651.772 68.5885 651.772 69.377ZM660.386 63.7852V65.6035H661.65V67.0527H660.386V70.7441C660.386 71.0176 660.438 71.2135 660.543 71.332C660.648 71.4505 660.848 71.5098 661.145 71.5098C661.363 71.5098 661.557 71.4938 661.726 71.4619V72.959C661.338 73.0775 660.939 73.1367 660.529 73.1367C659.144 73.1367 658.438 72.4372 658.41 71.0381V67.0527H657.33V65.6035H658.41V63.7852H660.386ZM665.513 70.2041L666.88 65.6035H668.999L666.025 74.1484L665.861 74.5381C665.419 75.5042 664.69 75.9873 663.674 75.9873C663.387 75.9873 663.095 75.944 662.799 75.8574V74.3604L663.1 74.3672C663.473 74.3672 663.751 74.3102 663.934 74.1963C664.12 74.0824 664.266 73.8932 664.371 73.6289L664.604 73.0205L662.013 65.6035H664.139L665.513 70.2041ZM676.437 69.3701C676.437 70.5094 676.177 71.4232 675.657 72.1113C675.142 72.7949 674.445 73.1367 673.565 73.1367C672.818 73.1367 672.214 72.877 671.754 72.3574V75.8438H669.778V65.6035H671.61L671.679 66.3281C672.157 65.7539 672.782 65.4668 673.552 65.4668C674.463 65.4668 675.172 65.804 675.678 66.4785C676.184 67.153 676.437 68.0827 676.437 69.2676V69.3701ZM674.461 69.2266C674.461 68.5384 674.338 68.0075 674.092 67.6338C673.85 67.2601 673.497 67.0732 673.032 67.0732C672.412 67.0732 671.986 67.3102 671.754 67.7842V70.8125C671.995 71.3001 672.426 71.5439 673.046 71.5439C673.989 71.5439 674.461 70.7715 674.461 69.2266ZM679.752 73H677.77V65.6035H679.752V73ZM677.653 63.6895C677.653 63.3932 677.751 63.1494 677.947 62.958C678.148 62.7666 678.419 62.6709 678.761 62.6709C679.098 62.6709 679.367 62.7666 679.567 62.958C679.768 63.1494 679.868 63.3932 679.868 63.6895C679.868 63.9902 679.766 64.2363 679.561 64.4277C679.36 64.6191 679.093 64.7148 678.761 64.7148C678.428 64.7148 678.159 64.6191 677.954 64.4277C677.754 64.2363 677.653 63.9902 677.653 63.6895ZM683.204 65.6035L683.266 66.458C683.794 65.7972 684.503 65.4668 685.392 65.4668C686.175 65.4668 686.759 65.6969 687.142 66.1572C687.524 66.6175 687.72 67.3057 687.729 68.2217V73H685.754V68.2695C685.754 67.8503 685.663 67.5472 685.48 67.3604C685.298 67.1689 684.995 67.0732 684.571 67.0732C684.015 67.0732 683.598 67.3102 683.32 67.7842V73H681.345V65.6035H683.204ZM688.946 69.2471C688.946 68.1123 689.215 67.1986 689.753 66.5059C690.295 65.8132 691.024 65.4668 691.94 65.4668C692.752 65.4668 693.383 65.7448 693.834 66.3008L693.916 65.6035H695.707V72.7539C695.707 73.401 695.559 73.9639 695.263 74.4424C694.971 74.9209 694.559 75.2855 694.025 75.5361C693.492 75.7868 692.868 75.9121 692.152 75.9121C691.61 75.9121 691.081 75.8027 690.566 75.584C690.051 75.3698 689.662 75.0918 689.397 74.75L690.272 73.5469C690.765 74.0983 691.362 74.374 692.063 74.374C692.588 74.374 692.995 74.2327 693.287 73.9502C693.579 73.6722 693.725 73.2757 693.725 72.7607V72.3643C693.269 72.8792 692.67 73.1367 691.927 73.1367C691.038 73.1367 690.318 72.7904 689.767 72.0977C689.22 71.4004 688.946 70.4775 688.946 69.3291V69.2471ZM690.922 69.3906C690.922 70.0605 691.056 70.5869 691.325 70.9697C691.594 71.348 691.963 71.5371 692.433 71.5371C693.034 71.5371 693.465 71.3115 693.725 70.8604V67.75C693.46 67.2988 693.034 67.0732 692.446 67.0732C691.972 67.0732 691.599 67.2669 691.325 67.6543C691.056 68.0417 690.922 68.6204 690.922 69.3906Z" fill="#657B83"/>
<path d="M369.842 117.692C369.172 113.993 366.185 111.216 362.597 111.216C359.748 111.216 357.274 112.974 356.042 115.547C353.075 115.89 350.768 118.624 350.768 121.937C350.768 125.485 353.42 128.369 356.683 128.369H369.497C372.218 128.369 374.426 125.968 374.426 123.009C374.426 120.179 372.405 117.884 369.842 117.692Z" fill="#657B83"/>
<path d="M602.52 134.524C599.25 132.873 596.91 129.463 596.55 125.432H595.05C595.56 132.036 600.71 137.225 607 137.225L607.66 137.193L603.85 133.108L602.52 134.524ZM603.41 127.534C603.22 127.534 603.04 127.502 602.89 127.448C602.73 127.384 602.6 127.309 602.49 127.191C602.38 127.083 602.29 126.955 602.23 126.794C602.17 126.644 602.14 126.472 602.14 126.29H600.84C600.84 126.676 600.91 127.019 601.05 127.309C601.19 127.598 601.38 127.845 601.61 128.048C601.85 128.241 602.12 128.391 602.43 128.488C602.73 128.595 603.05 128.649 603.39 128.649C603.76 128.649 604.11 128.595 604.42 128.488C604.74 128.381 605.02 128.22 605.25 128.016C605.48 127.812 605.67 127.555 605.8 127.244C605.93 126.933 606 126.59 606 126.204C606 126.001 605.98 125.797 605.93 125.604C605.88 125.411 605.81 125.229 605.7 125.057C605.6 124.886 605.46 124.736 605.3 124.596C605.13 124.457 604.93 124.35 604.69 124.264C604.89 124.167 605.06 124.049 605.21 123.91C605.36 123.771 605.48 123.621 605.58 123.46C605.68 123.299 605.75 123.138 605.8 122.967C605.85 122.795 605.87 122.624 605.87 122.452C605.87 122.066 605.81 121.723 605.69 121.423C605.57 121.123 605.4 120.876 605.18 120.683C604.98 120.479 604.71 120.329 604.41 120.222C604.1 120.126 603.76 120.072 603.39 120.072C603.03 120.072 602.7 120.126 602.39 120.244C602.09 120.362 601.82 120.522 601.6 120.726C601.39 120.93 601.22 121.166 601.09 121.444C600.97 121.723 600.91 122.023 600.91 122.356H602.21C602.21 122.173 602.24 122.013 602.3 121.873C602.36 121.734 602.44 121.605 602.55 121.509C602.66 121.412 602.78 121.326 602.93 121.273C603.08 121.219 603.23 121.187 603.41 121.187C603.81 121.187 604.11 121.294 604.3 121.519C604.49 121.734 604.59 122.045 604.59 122.441C604.59 122.634 604.56 122.806 604.51 122.967C604.46 123.127 604.37 123.256 604.26 123.363C604.15 123.471 604.01 123.556 603.85 123.621C603.69 123.685 603.49 123.717 603.27 123.717H602.5V124.821H603.27C603.49 124.821 603.69 124.843 603.87 124.896C604.05 124.95 604.2 125.036 604.32 125.143C604.44 125.261 604.54 125.4 604.61 125.572C604.68 125.743 604.71 125.947 604.71 126.183C604.71 126.622 604.59 126.955 604.36 127.18C604.13 127.426 603.81 127.534 603.41 127.534V127.534ZM611.96 121.187C611.64 120.833 611.26 120.554 610.82 120.362C610.39 120.169 609.9 120.072 609.36 120.072H607V128.649H609.3C609.85 128.649 610.36 128.552 610.81 128.359C611.26 128.166 611.65 127.898 611.97 127.544C612.29 127.191 612.54 126.762 612.71 126.269C612.88 125.765 612.97 125.207 612.97 124.585V124.157C612.97 123.535 612.88 122.977 612.71 122.474C612.53 121.97 612.28 121.541 611.96 121.187V121.187ZM611.57 124.575C611.57 125.025 611.52 125.422 611.43 125.786C611.33 126.14 611.19 126.451 611 126.697C610.81 126.944 610.57 127.137 610.29 127.266C610 127.394 609.67 127.459 609.3 127.459H608.39V121.273H609.36C610.08 121.273 610.63 121.519 611 122.013C611.38 122.506 611.57 123.213 611.57 124.146V124.575V124.575ZM607 111.495L606.34 111.528L610.15 115.612L611.48 114.186C614.75 115.848 617.09 119.247 617.44 123.278H618.94C618.44 116.684 613.29 111.495 607 111.495Z" fill="#657B83"/>
<path d="M714.329 120.329V116.32C714.329 114.84 715.433 113.64 716.794 113.64C718.154 113.64 719.258 114.84 719.258 116.32V120.329C720.451 119.461 721.23 117.992 721.23 116.32C721.23 113.65 719.248 111.495 716.794 111.495C714.339 111.495 712.358 113.65 712.358 116.32C712.358 117.992 713.137 119.461 714.329 120.329ZM724.029 125.293L719.554 122.87C719.386 122.795 719.209 122.752 719.022 122.752H718.272V116.32C718.272 115.43 717.612 114.712 716.794 114.712C715.976 114.712 715.315 115.43 715.315 116.32V127.834L711.934 127.062C711.855 127.051 711.786 127.03 711.697 127.03C711.392 127.03 711.116 127.169 710.919 127.384L710.14 128.241L715.01 133.537C715.276 133.827 715.65 134.009 716.054 134.009H722.748C723.487 134.009 724.059 133.419 724.167 132.637L724.906 126.987C724.916 126.912 724.926 126.837 724.926 126.773C724.926 126.108 724.552 125.529 724.029 125.293V125.293Z" fill="#657B83"/>
<path d="M166.996 141.469V147.27C166.992 148.074 166.738 148.732 166.234 149.244C165.734 149.756 165.055 150.043 164.195 150.105L163.896 150.117C162.963 150.117 162.219 149.865 161.664 149.361C161.109 148.857 160.828 148.164 160.82 147.281V141.469H161.934V147.246C161.934 147.863 162.104 148.344 162.443 148.688C162.783 149.027 163.268 149.197 163.896 149.197C164.533 149.197 165.02 149.027 165.355 148.688C165.695 148.348 165.865 147.869 165.865 147.252V141.469H166.996ZM172.293 148.318C172.293 148.025 172.182 147.799 171.959 147.639C171.74 147.475 171.355 147.334 170.805 147.217C170.258 147.1 169.822 146.959 169.498 146.795C169.178 146.631 168.939 146.436 168.783 146.209C168.631 145.982 168.555 145.713 168.555 145.4C168.555 144.881 168.773 144.441 169.211 144.082C169.652 143.723 170.215 143.543 170.898 143.543C171.617 143.543 172.199 143.729 172.645 144.1C173.094 144.471 173.318 144.945 173.318 145.523H172.229C172.229 145.227 172.102 144.971 171.848 144.756C171.598 144.541 171.281 144.434 170.898 144.434C170.504 144.434 170.195 144.52 169.973 144.691C169.75 144.863 169.639 145.088 169.639 145.365C169.639 145.627 169.742 145.824 169.949 145.957C170.156 146.09 170.529 146.217 171.068 146.338C171.611 146.459 172.051 146.604 172.387 146.771C172.723 146.939 172.971 147.143 173.131 147.381C173.295 147.615 173.377 147.902 173.377 148.242C173.377 148.809 173.15 149.264 172.697 149.607C172.244 149.947 171.656 150.117 170.934 150.117C170.426 150.117 169.977 150.027 169.586 149.848C169.195 149.668 168.889 149.418 168.666 149.098C168.447 148.773 168.338 148.424 168.338 148.049H169.422C169.441 148.412 169.586 148.701 169.855 148.916C170.129 149.127 170.488 149.232 170.934 149.232C171.344 149.232 171.672 149.15 171.918 148.986C172.168 148.818 172.293 148.596 172.293 148.318ZM177.42 150.117C176.561 150.117 175.861 149.836 175.322 149.273C174.783 148.707 174.514 147.951 174.514 147.006V146.807C174.514 146.178 174.633 145.617 174.871 145.125C175.113 144.629 175.449 144.242 175.879 143.965C176.312 143.684 176.781 143.543 177.285 143.543C178.109 143.543 178.75 143.814 179.207 144.357C179.664 144.9 179.893 145.678 179.893 146.689V147.141H175.598C175.613 147.766 175.795 148.271 176.143 148.658C176.494 149.041 176.939 149.232 177.479 149.232C177.861 149.232 178.186 149.154 178.451 148.998C178.717 148.842 178.949 148.635 179.148 148.377L179.811 148.893C179.279 149.709 178.482 150.117 177.42 150.117ZM177.285 144.434C176.848 144.434 176.48 144.594 176.184 144.914C175.887 145.23 175.703 145.676 175.633 146.25H178.809V146.168C178.777 145.617 178.629 145.191 178.363 144.891C178.098 144.586 177.738 144.434 177.285 144.434ZM184.217 144.633C184.053 144.605 183.875 144.592 183.684 144.592C182.973 144.592 182.49 144.895 182.236 145.5V150H181.152V143.66H182.207L182.225 144.393C182.58 143.826 183.084 143.543 183.736 143.543C183.947 143.543 184.107 143.57 184.217 143.625V144.633ZM189.49 146.66V150H188.365V141.469H191.512C192.445 141.469 193.176 141.707 193.703 142.184C194.234 142.66 194.5 143.291 194.5 144.076C194.5 144.904 194.24 145.543 193.721 145.992C193.205 146.438 192.465 146.66 191.5 146.66H189.49ZM189.49 145.74H191.512C192.113 145.74 192.574 145.6 192.895 145.318C193.215 145.033 193.375 144.623 193.375 144.088C193.375 143.58 193.215 143.174 192.895 142.869C192.574 142.564 192.135 142.406 191.576 142.395H189.49V145.74ZM198.314 150.117C197.455 150.117 196.756 149.836 196.217 149.273C195.678 148.707 195.408 147.951 195.408 147.006V146.807C195.408 146.178 195.527 145.617 195.766 145.125C196.008 144.629 196.344 144.242 196.773 143.965C197.207 143.684 197.676 143.543 198.18 143.543C199.004 143.543 199.645 143.814 200.102 144.357C200.559 144.9 200.787 145.678 200.787 146.689V147.141H196.492C196.508 147.766 196.689 148.271 197.037 148.658C197.389 149.041 197.834 149.232 198.373 149.232C198.756 149.232 199.08 149.154 199.346 148.998C199.611 148.842 199.844 148.635 200.043 148.377L200.705 148.893C200.174 149.709 199.377 150.117 198.314 150.117ZM198.18 144.434C197.742 144.434 197.375 144.594 197.078 144.914C196.781 145.23 196.598 145.676 196.527 146.25H199.703V146.168C199.672 145.617 199.523 145.191 199.258 144.891C198.992 144.586 198.633 144.434 198.18 144.434ZM205.111 144.633C204.947 144.605 204.77 144.592 204.578 144.592C203.867 144.592 203.385 144.895 203.131 145.5V150H202.047V143.66H203.102L203.119 144.393C203.475 143.826 203.979 143.543 204.631 143.543C204.842 143.543 205.002 143.57 205.111 143.625V144.633ZM209.805 148.318C209.805 148.025 209.693 147.799 209.471 147.639C209.252 147.475 208.867 147.334 208.316 147.217C207.77 147.1 207.334 146.959 207.01 146.795C206.689 146.631 206.451 146.436 206.295 146.209C206.143 145.982 206.066 145.713 206.066 145.4C206.066 144.881 206.285 144.441 206.723 144.082C207.164 143.723 207.727 143.543 208.41 143.543C209.129 143.543 209.711 143.729 210.156 144.1C210.605 144.471 210.83 144.945 210.83 145.523H209.74C209.74 145.227 209.613 144.971 209.359 144.756C209.109 144.541 208.793 144.434 208.41 144.434C208.016 144.434 207.707 144.52 207.484 144.691C207.262 144.863 207.15 145.088 207.15 145.365C207.15 145.627 207.254 145.824 207.461 145.957C207.668 146.09 208.041 146.217 208.58 146.338C209.123 146.459 209.562 146.604 209.898 146.771C210.234 146.939 210.482 147.143 210.643 147.381C210.807 147.615 210.889 147.902 210.889 148.242C210.889 148.809 210.662 149.264 210.209 149.607C209.756 149.947 209.168 150.117 208.445 150.117C207.938 150.117 207.488 150.027 207.098 149.848C206.707 149.668 206.4 149.418 206.178 149.098C205.959 148.773 205.85 148.424 205.85 148.049H206.934C206.953 148.412 207.098 148.701 207.367 148.916C207.641 149.127 208 149.232 208.445 149.232C208.855 149.232 209.184 149.15 209.43 148.986C209.68 148.818 209.805 148.596 209.805 148.318ZM212.014 146.771C212.014 146.15 212.135 145.592 212.377 145.096C212.623 144.6 212.963 144.217 213.396 143.947C213.834 143.678 214.332 143.543 214.891 143.543C215.754 143.543 216.451 143.842 216.982 144.439C217.518 145.037 217.785 145.832 217.785 146.824V146.9C217.785 147.518 217.666 148.072 217.428 148.564C217.193 149.053 216.855 149.434 216.414 149.707C215.977 149.98 215.473 150.117 214.902 150.117C214.043 150.117 213.346 149.818 212.811 149.221C212.279 148.623 212.014 147.832 212.014 146.848V146.771ZM213.104 146.9C213.104 147.604 213.266 148.168 213.59 148.594C213.918 149.02 214.355 149.232 214.902 149.232C215.453 149.232 215.891 149.018 216.215 148.588C216.539 148.154 216.701 147.549 216.701 146.771C216.701 146.076 216.535 145.514 216.203 145.084C215.875 144.65 215.438 144.434 214.891 144.434C214.355 144.434 213.924 144.646 213.596 145.072C213.268 145.498 213.104 146.107 213.104 146.9ZM220.17 143.66L220.205 144.457C220.689 143.848 221.322 143.543 222.104 143.543C223.443 143.543 224.119 144.299 224.131 145.811V150H223.047V145.805C223.043 145.348 222.938 145.01 222.73 144.791C222.527 144.572 222.209 144.463 221.775 144.463C221.424 144.463 221.115 144.557 220.85 144.744C220.584 144.932 220.377 145.178 220.229 145.482V150H219.145V143.66H220.17ZM229.68 150C229.617 149.875 229.566 149.652 229.527 149.332C229.023 149.855 228.422 150.117 227.723 150.117C227.098 150.117 226.584 149.941 226.182 149.59C225.783 149.234 225.584 148.785 225.584 148.242C225.584 147.582 225.834 147.07 226.334 146.707C226.838 146.34 227.545 146.156 228.455 146.156H229.51V145.658C229.51 145.279 229.396 144.979 229.17 144.756C228.943 144.529 228.609 144.416 228.168 144.416C227.781 144.416 227.457 144.514 227.195 144.709C226.934 144.904 226.803 145.141 226.803 145.418H225.713C225.713 145.102 225.824 144.797 226.047 144.504C226.273 144.207 226.578 143.973 226.961 143.801C227.348 143.629 227.771 143.543 228.232 143.543C228.963 143.543 229.535 143.727 229.949 144.094C230.363 144.457 230.578 144.959 230.594 145.6V148.518C230.594 149.1 230.668 149.562 230.816 149.906V150H229.68ZM227.881 149.174C228.221 149.174 228.543 149.086 228.848 148.91C229.152 148.734 229.373 148.506 229.51 148.225V146.924H228.66C227.332 146.924 226.668 147.312 226.668 148.09C226.668 148.43 226.781 148.695 227.008 148.887C227.234 149.078 227.525 149.174 227.881 149.174Z" fill="black"/>
<path d="M201.071 112.568C198.498 113.318 195.481 113.64 192.692 113.64C189.902 113.64 186.886 113.318 184.313 112.568L183.82 114.712C185.653 115.248 187.763 115.602 189.734 115.784V129.721H191.706V123.288H193.677V129.721H195.649V115.784C197.62 115.602 199.73 115.248 201.563 114.712L201.071 112.568ZM192.692 112.568C193.776 112.568 194.663 111.603 194.663 110.423C194.663 109.244 193.776 108.279 192.692 108.279C191.607 108.279 190.72 109.244 190.72 110.423C190.72 111.603 191.607 112.568 192.692 112.568Z" fill="#657B83"/>
<path d="M56.1973 150H55.0723V141.469H56.1973V150ZM59.1152 143.66L59.1504 144.457C59.6348 143.848 60.2676 143.543 61.0488 143.543C62.3887 143.543 63.0645 144.299 63.0762 145.811V150H61.9922V145.805C61.9883 145.348 61.8828 145.01 61.6758 144.791C61.4727 144.572 61.1543 144.463 60.7207 144.463C60.3691 144.463 60.0605 144.557 59.7949 144.744C59.5293 144.932 59.3223 145.178 59.1738 145.482V150H58.0898V143.66H59.1152ZM66.1816 142.125V143.66H67.3652V144.498H66.1816V148.43C66.1816 148.684 66.2344 148.875 66.3398 149.004C66.4453 149.129 66.625 149.191 66.8789 149.191C67.0039 149.191 67.1758 149.168 67.3945 149.121V150C67.1094 150.078 66.832 150.117 66.5625 150.117C66.0781 150.117 65.7129 149.971 65.4668 149.678C65.2207 149.385 65.0977 148.969 65.0977 148.43V144.498H63.9434V143.66H65.0977V142.125H66.1816ZM71.2676 150.117C70.4082 150.117 69.709 149.836 69.1699 149.273C68.6309 148.707 68.3613 147.951 68.3613 147.006V146.807C68.3613 146.178 68.4805 145.617 68.7188 145.125C68.9609 144.629 69.2969 144.242 69.7266 143.965C70.1602 143.684 70.6289 143.543 71.1328 143.543C71.957 143.543 72.5977 143.814 73.0547 144.357C73.5117 144.9 73.7402 145.678 73.7402 146.689V147.141H69.4453C69.4609 147.766 69.6426 148.271 69.9902 148.658C70.3418 149.041 70.7871 149.232 71.3262 149.232C71.709 149.232 72.0332 149.154 72.2988 148.998C72.5645 148.842 72.7969 148.635 72.9961 148.377L73.6582 148.893C73.127 149.709 72.3301 150.117 71.2676 150.117ZM71.1328 144.434C70.6953 144.434 70.3281 144.594 70.0312 144.914C69.7344 145.23 69.5508 145.676 69.4805 146.25H72.6562V146.168C72.625 145.617 72.4766 145.191 72.2109 144.891C71.9453 144.586 71.5859 144.434 71.1328 144.434ZM78.0645 144.633C77.9004 144.605 77.7227 144.592 77.5312 144.592C76.8203 144.592 76.3379 144.895 76.084 145.5V150H75V143.66H76.0547L76.0723 144.393C76.4277 143.826 76.9316 143.543 77.584 143.543C77.7949 143.543 77.9551 143.57 78.0645 143.625V144.633ZM81.2637 148.529L82.834 143.66H83.9414L81.668 150H80.8418L78.5449 143.66H79.6523L81.2637 148.529ZM86.1621 150H85.0781V143.66H86.1621V150ZM84.9902 141.979C84.9902 141.803 85.043 141.654 85.1484 141.533C85.2578 141.412 85.418 141.352 85.6289 141.352C85.8398 141.352 86 141.412 86.1094 141.533C86.2188 141.654 86.2734 141.803 86.2734 141.979C86.2734 142.154 86.2188 142.301 86.1094 142.418C86 142.535 85.8398 142.594 85.6289 142.594C85.418 142.594 85.2578 142.535 85.1484 142.418C85.043 142.301 84.9902 142.154 84.9902 141.979ZM90.5332 150.117C89.6738 150.117 88.9746 149.836 88.4355 149.273C87.8965 148.707 87.627 147.951 87.627 147.006V146.807C87.627 146.178 87.7461 145.617 87.9844 145.125C88.2266 144.629 88.5625 144.242 88.9922 143.965C89.4258 143.684 89.8945 143.543 90.3984 143.543C91.2227 143.543 91.8633 143.814 92.3203 144.357C92.7773 144.9 93.0059 145.678 93.0059 146.689V147.141H88.7109C88.7266 147.766 88.9082 148.271 89.2559 148.658C89.6074 149.041 90.0527 149.232 90.5918 149.232C90.9746 149.232 91.2988 149.154 91.5645 148.998C91.8301 148.842 92.0625 148.635 92.2617 148.377L92.9238 148.893C92.3926 149.709 91.5957 150.117 90.5332 150.117ZM90.3984 144.434C89.9609 144.434 89.5938 144.594 89.2969 144.914C89 145.23 88.8164 145.676 88.7461 146.25H91.9219V146.168C91.8906 145.617 91.7422 145.191 91.4766 144.891C91.2109 144.586 90.8516 144.434 90.3984 144.434ZM99.8789 148.506L101.098 143.66H102.182L100.336 150H99.457L97.916 145.195L96.416 150H95.5371L93.6973 143.66H94.7754L96.0234 148.406L97.5 143.66H98.373L99.8789 148.506ZM106.98 148.318C106.98 148.025 106.869 147.799 106.646 147.639C106.428 147.475 106.043 147.334 105.492 147.217C104.945 147.1 104.51 146.959 104.186 146.795C103.865 146.631 103.627 146.436 103.471 146.209C103.318 145.982 103.242 145.713 103.242 145.4C103.242 144.881 103.461 144.441 103.898 144.082C104.34 143.723 104.902 143.543 105.586 143.543C106.305 143.543 106.887 143.729 107.332 144.1C107.781 144.471 108.006 144.945 108.006 145.523H106.916C106.916 145.227 106.789 144.971 106.535 144.756C106.285 144.541 105.969 144.434 105.586 144.434C105.191 144.434 104.883 144.52 104.66 144.691C104.438 144.863 104.326 145.088 104.326 145.365C104.326 145.627 104.43 145.824 104.637 145.957C104.844 146.09 105.217 146.217 105.756 146.338C106.299 146.459 106.738 146.604 107.074 146.771C107.41 146.939 107.658 147.143 107.818 147.381C107.982 147.615 108.064 147.902 108.064 148.242C108.064 148.809 107.838 149.264 107.385 149.607C106.932 149.947 106.344 150.117 105.621 150.117C105.113 150.117 104.664 150.027 104.273 149.848C103.883 149.668 103.576 149.418 103.354 149.098C103.135 148.773 103.025 148.424 103.025 148.049H104.109C104.129 148.412 104.273 148.701 104.543 148.916C104.816 149.127 105.176 149.232 105.621 149.232C106.031 149.232 106.359 149.15 106.605 148.986C106.855 148.818 106.98 148.596 106.98 148.318Z" fill="black"/>
<path d="M95.1023 111.495H81.3018C80.2175 111.495 79.3303 112.46 79.3303 113.64V128.649C79.3303 129.828 80.2175 130.793 81.3018 130.793H95.1023C96.1867 130.793 97.0738 129.828 97.0738 128.649V113.64C97.0738 112.46 96.1867 111.495 95.1023 111.495ZM85.2448 126.504H83.2733V119H85.2448V126.504ZM89.1878 126.504H87.2163V115.784H89.1878V126.504ZM93.1308 126.504H91.1593V122.216H93.1308V126.504Z" fill="#657B83"/>
<path d="M327.121 219.801H331.164V220.721H325.99V212.189H327.121V219.801ZM337.152 216.953H333.572V220.721H332.447V212.189H337.732V213.115H333.572V216.033H337.152V216.953ZM343.896 218.031L344.061 219.156L344.301 218.143L345.988 212.189H346.938L348.584 218.143L348.818 219.174L349 218.025L350.324 212.189H351.455L349.387 220.721H348.361L346.604 214.504L346.469 213.854L346.334 214.504L344.512 220.721H343.486L341.424 212.189H342.549L343.896 218.031ZM353.717 220.721H352.633V214.381H353.717V220.721ZM352.545 212.699C352.545 212.523 352.598 212.375 352.703 212.254C352.812 212.133 352.973 212.072 353.184 212.072C353.395 212.072 353.555 212.133 353.664 212.254C353.773 212.375 353.828 212.523 353.828 212.699C353.828 212.875 353.773 213.021 353.664 213.139C353.555 213.256 353.395 213.314 353.184 213.314C352.973 213.314 352.812 213.256 352.703 213.139C352.598 213.021 352.545 212.875 352.545 212.699ZM358.521 215.354C358.357 215.326 358.18 215.312 357.988 215.312C357.277 215.312 356.795 215.615 356.541 216.221V220.721H355.457V214.381H356.512L356.529 215.113C356.885 214.547 357.389 214.264 358.041 214.264C358.252 214.264 358.412 214.291 358.521 214.346V215.354ZM362.037 220.838C361.178 220.838 360.479 220.557 359.939 219.994C359.4 219.428 359.131 218.672 359.131 217.727V217.527C359.131 216.898 359.25 216.338 359.488 215.846C359.73 215.35 360.066 214.963 360.496 214.686C360.93 214.404 361.398 214.264 361.902 214.264C362.727 214.264 363.367 214.535 363.824 215.078C364.281 215.621 364.51 216.398 364.51 217.41V217.861H360.215C360.23 218.486 360.412 218.992 360.76 219.379C361.111 219.762 361.557 219.953 362.096 219.953C362.479 219.953 362.803 219.875 363.068 219.719C363.334 219.562 363.566 219.355 363.766 219.098L364.428 219.613C363.896 220.43 363.1 220.838 362.037 220.838ZM361.902 215.154C361.465 215.154 361.098 215.314 360.801 215.635C360.504 215.951 360.32 216.396 360.25 216.971H363.426V216.889C363.395 216.338 363.246 215.912 362.98 215.611C362.715 215.307 362.355 215.154 361.902 215.154ZM366.303 220.721V215.219H365.301V214.381H366.303V213.73C366.303 213.051 366.484 212.525 366.848 212.154C367.211 211.783 367.725 211.598 368.389 211.598C368.639 211.598 368.887 211.631 369.133 211.697L369.074 212.576C368.891 212.541 368.695 212.523 368.488 212.523C368.137 212.523 367.865 212.627 367.674 212.834C367.482 213.037 367.387 213.33 367.387 213.713V214.381H368.74V215.219H367.387V220.721H366.303ZM373.006 215.354C372.842 215.326 372.664 215.312 372.473 215.312C371.762 215.312 371.279 215.615 371.025 216.221V220.721H369.941V214.381H370.996L371.014 215.113C371.369 214.547 371.873 214.264 372.525 214.264C372.736 214.264 372.896 214.291 373.006 214.346V215.354ZM377.688 220.721C377.625 220.596 377.574 220.373 377.535 220.053C377.031 220.576 376.43 220.838 375.73 220.838C375.105 220.838 374.592 220.662 374.189 220.311C373.791 219.955 373.592 219.506 373.592 218.963C373.592 218.303 373.842 217.791 374.342 217.428C374.846 217.061 375.553 216.877 376.463 216.877H377.518V216.379C377.518 216 377.404 215.699 377.178 215.477C376.951 215.25 376.617 215.137 376.176 215.137C375.789 215.137 375.465 215.234 375.203 215.43C374.941 215.625 374.811 215.861 374.811 216.139H373.721C373.721 215.822 373.832 215.518 374.055 215.225C374.281 214.928 374.586 214.693 374.969 214.521C375.355 214.35 375.779 214.264 376.24 214.264C376.971 214.264 377.543 214.447 377.957 214.814C378.371 215.178 378.586 215.68 378.602 216.32V219.238C378.602 219.82 378.676 220.283 378.824 220.627V220.721H377.688ZM375.889 219.895C376.229 219.895 376.551 219.807 376.855 219.631C377.16 219.455 377.381 219.227 377.518 218.945V217.645H376.668C375.34 217.645 374.676 218.033 374.676 218.811C374.676 219.15 374.789 219.416 375.016 219.607C375.242 219.799 375.533 219.895 375.889 219.895ZM381.32 214.381L381.35 215.084C381.814 214.537 382.441 214.264 383.23 214.264C384.117 214.264 384.721 214.604 385.041 215.283C385.252 214.979 385.525 214.732 385.861 214.545C386.201 214.357 386.602 214.264 387.062 214.264C388.453 214.264 389.16 215 389.184 216.473V220.721H388.1V216.537C388.1 216.084 387.996 215.746 387.789 215.523C387.582 215.297 387.234 215.184 386.746 215.184C386.344 215.184 386.01 215.305 385.744 215.547C385.479 215.785 385.324 216.107 385.281 216.514V220.721H384.191V216.566C384.191 215.645 383.74 215.184 382.838 215.184C382.127 215.184 381.641 215.486 381.379 216.092V220.721H380.295V214.381H381.32ZM392.002 220.721H390.918V214.381H392.002V220.721ZM390.83 212.699C390.83 212.523 390.883 212.375 390.988 212.254C391.098 212.133 391.258 212.072 391.469 212.072C391.68 212.072 391.84 212.133 391.949 212.254C392.059 212.375 392.113 212.523 392.113 212.699C392.113 212.875 392.059 213.021 391.949 213.139C391.84 213.256 391.68 213.314 391.469 213.314C391.258 213.314 391.098 213.256 390.988 213.139C390.883 213.021 390.83 212.875 390.83 212.699ZM394.768 214.381L394.803 215.178C395.287 214.568 395.92 214.264 396.701 214.264C398.041 214.264 398.717 215.02 398.729 216.531V220.721H397.645V216.525C397.641 216.068 397.535 215.73 397.328 215.512C397.125 215.293 396.807 215.184 396.373 215.184C396.021 215.184 395.713 215.277 395.447 215.465C395.182 215.652 394.975 215.898 394.826 216.203V220.721H393.742V214.381H394.768ZM400.105 217.498C400.105 216.51 400.334 215.725 400.791 215.143C401.248 214.557 401.854 214.264 402.607 214.264C403.381 214.264 403.984 214.537 404.418 215.084L404.471 214.381H405.461V220.568C405.461 221.389 405.217 222.035 404.729 222.508C404.244 222.98 403.592 223.217 402.771 223.217C402.314 223.217 401.867 223.119 401.43 222.924C400.992 222.729 400.658 222.461 400.428 222.121L400.99 221.471C401.455 222.045 402.023 222.332 402.695 222.332C403.223 222.332 403.633 222.184 403.926 221.887C404.223 221.59 404.371 221.172 404.371 220.633V220.088C403.938 220.588 403.346 220.838 402.596 220.838C401.854 220.838 401.252 220.539 400.791 219.941C400.334 219.344 400.105 218.529 400.105 217.498ZM401.195 217.621C401.195 218.336 401.342 218.898 401.635 219.309C401.928 219.715 402.338 219.918 402.865 219.918C403.549 219.918 404.051 219.607 404.371 218.986V216.092C404.039 215.486 403.541 215.184 402.877 215.184C402.35 215.184 401.938 215.389 401.641 215.799C401.344 216.209 401.195 216.816 401.195 217.621Z" fill="black"/>
<path d="M358.3 197.631H370.129L364.215 191.198L358.3 197.631ZM373.087 177.261H355.343C354.259 177.261 353.372 178.226 353.372 179.405V192.27C353.372 193.45 354.259 194.414 355.343 194.414H359.286V192.27H355.343V179.405H373.087V192.27H369.144V194.414H373.087C374.171 194.414 375.058 193.45 375.058 192.27V179.405C375.058 178.226 374.171 177.261 373.087 177.261Z" fill="#657B83"/>
<path d="M444.996 212.189V217.99C444.992 218.795 444.738 219.453 444.234 219.965C443.734 220.477 443.055 220.764 442.195 220.826L441.896 220.838C440.963 220.838 440.219 220.586 439.664 220.082C439.109 219.578 438.828 218.885 438.82 218.002V212.189H439.934V217.967C439.934 218.584 440.104 219.064 440.443 219.408C440.783 219.748 441.268 219.918 441.896 219.918C442.533 219.918 443.02 219.748 443.355 219.408C443.695 219.068 443.865 218.59 443.865 217.973V212.189H444.996ZM450.293 219.039C450.293 218.746 450.182 218.52 449.959 218.359C449.74 218.195 449.355 218.055 448.805 217.938C448.258 217.82 447.822 217.68 447.498 217.516C447.178 217.352 446.939 217.156 446.783 216.93C446.631 216.703 446.555 216.434 446.555 216.121C446.555 215.602 446.773 215.162 447.211 214.803C447.652 214.443 448.215 214.264 448.898 214.264C449.617 214.264 450.199 214.449 450.645 214.82C451.094 215.191 451.318 215.666 451.318 216.244H450.229C450.229 215.947 450.102 215.691 449.848 215.477C449.598 215.262 449.281 215.154 448.898 215.154C448.504 215.154 448.195 215.24 447.973 215.412C447.75 215.584 447.639 215.809 447.639 216.086C447.639 216.348 447.742 216.545 447.949 216.678C448.156 216.811 448.529 216.938 449.068 217.059C449.611 217.18 450.051 217.324 450.387 217.492C450.723 217.66 450.971 217.863 451.131 218.102C451.295 218.336 451.377 218.623 451.377 218.963C451.377 219.529 451.15 219.984 450.697 220.328C450.244 220.668 449.656 220.838 448.934 220.838C448.426 220.838 447.977 220.748 447.586 220.568C447.195 220.389 446.889 220.139 446.666 219.818C446.447 219.494 446.338 219.145 446.338 218.77H447.422C447.441 219.133 447.586 219.422 447.855 219.637C448.129 219.848 448.488 219.953 448.934 219.953C449.344 219.953 449.672 219.871 449.918 219.707C450.168 219.539 450.293 219.316 450.293 219.039ZM455.42 220.838C454.561 220.838 453.861 220.557 453.322 219.994C452.783 219.428 452.514 218.672 452.514 217.727V217.527C452.514 216.898 452.633 216.338 452.871 215.846C453.113 215.35 453.449 214.963 453.879 214.686C454.312 214.404 454.781 214.264 455.285 214.264C456.109 214.264 456.75 214.535 457.207 215.078C457.664 215.621 457.893 216.398 457.893 217.41V217.861H453.598C453.613 218.486 453.795 218.992 454.143 219.379C454.494 219.762 454.939 219.953 455.479 219.953C455.861 219.953 456.186 219.875 456.451 219.719C456.717 219.562 456.949 219.355 457.148 219.098L457.811 219.613C457.279 220.43 456.482 220.838 455.42 220.838ZM455.285 215.154C454.848 215.154 454.48 215.314 454.184 215.635C453.887 215.951 453.703 216.396 453.633 216.971H456.809V216.889C456.777 216.338 456.629 215.912 456.363 215.611C456.098 215.307 455.738 215.154 455.285 215.154ZM462.217 215.354C462.053 215.326 461.875 215.312 461.684 215.312C460.973 215.312 460.49 215.615 460.236 216.221V220.721H459.152V214.381H460.207L460.225 215.113C460.58 214.547 461.084 214.264 461.736 214.264C461.947 214.264 462.107 214.291 462.217 214.346V215.354ZM470.156 212.641C469.672 212.562 469.281 212.523 468.984 212.523C468.203 212.523 467.812 212.934 467.812 213.754V214.381H469.166V215.219H467.812V220.721H466.729V215.219H465.727V214.381H466.729V213.689C466.732 213.014 466.922 212.496 467.297 212.137C467.672 211.777 468.205 211.598 468.896 211.598C469.291 211.598 470.072 211.717 471.24 211.955V220.721H470.156V212.641ZM472.729 217.492C472.729 216.871 472.85 216.312 473.092 215.816C473.338 215.32 473.678 214.938 474.111 214.668C474.549 214.398 475.047 214.264 475.605 214.264C476.469 214.264 477.166 214.562 477.697 215.16C478.232 215.758 478.5 216.553 478.5 217.545V217.621C478.5 218.238 478.381 218.793 478.143 219.285C477.908 219.773 477.57 220.154 477.129 220.428C476.691 220.701 476.188 220.838 475.617 220.838C474.758 220.838 474.061 220.539 473.525 219.941C472.994 219.344 472.729 218.553 472.729 217.568V217.492ZM473.818 217.621C473.818 218.324 473.98 218.889 474.305 219.314C474.633 219.74 475.07 219.953 475.617 219.953C476.168 219.953 476.605 219.738 476.93 219.309C477.254 218.875 477.416 218.27 477.416 217.492C477.416 216.797 477.25 216.234 476.918 215.805C476.59 215.371 476.152 215.154 475.605 215.154C475.07 215.154 474.639 215.367 474.311 215.793C473.982 216.219 473.818 216.828 473.818 217.621ZM485.473 219.227L486.691 214.381H487.775L485.93 220.721H485.051L483.51 215.916L482.01 220.721H481.131L479.291 214.381H480.369L481.617 219.127L483.094 214.381H483.967L485.473 219.227Z" fill="black"/>
<path d="M465.839 183.694H454V185.838H465.839V189.054L469.772 184.766L465.839 180.477V183.694Z" fill="#657B83"/>
<path d="M405.115 147.381V150.721H403.99V142.189H407.137C408.07 142.189 408.801 142.428 409.328 142.904C409.859 143.381 410.125 144.012 410.125 144.797C410.125 145.625 409.865 146.264 409.346 146.713C408.83 147.158 408.09 147.381 407.125 147.381H405.115ZM405.115 146.461H407.137C407.738 146.461 408.199 146.32 408.52 146.039C408.84 145.754 409 145.344 409 144.809C409 144.301 408.84 143.895 408.52 143.59C408.199 143.285 407.76 143.127 407.201 143.115H405.115V146.461ZM415.234 150.721C415.172 150.596 415.121 150.373 415.082 150.053C414.578 150.576 413.977 150.838 413.277 150.838C412.652 150.838 412.139 150.662 411.736 150.311C411.338 149.955 411.139 149.506 411.139 148.963C411.139 148.303 411.389 147.791 411.889 147.428C412.393 147.061 413.1 146.877 414.01 146.877H415.064V146.379C415.064 146 414.951 145.699 414.725 145.477C414.498 145.25 414.164 145.137 413.723 145.137C413.336 145.137 413.012 145.234 412.75 145.43C412.488 145.625 412.357 145.861 412.357 146.139H411.268C411.268 145.822 411.379 145.518 411.602 145.225C411.828 144.928 412.133 144.693 412.516 144.521C412.902 144.35 413.326 144.264 413.787 144.264C414.518 144.264 415.09 144.447 415.504 144.814C415.918 145.178 416.133 145.68 416.148 146.32V149.238C416.148 149.82 416.223 150.283 416.371 150.627V150.721H415.234ZM413.436 149.895C413.775 149.895 414.098 149.807 414.402 149.631C414.707 149.455 414.928 149.227 415.064 148.945V147.645H414.215C412.887 147.645 412.223 148.033 412.223 148.811C412.223 149.15 412.336 149.416 412.562 149.607C412.789 149.799 413.08 149.895 413.436 149.895ZM423.203 147.621C423.203 148.586 422.982 149.363 422.541 149.953C422.1 150.543 421.502 150.838 420.748 150.838C419.979 150.838 419.373 150.594 418.932 150.105V153.158H417.848V144.381H418.838L418.891 145.084C419.332 144.537 419.945 144.264 420.73 144.264C421.492 144.264 422.094 144.551 422.535 145.125C422.98 145.699 423.203 146.498 423.203 147.521V147.621ZM422.119 147.498C422.119 146.783 421.967 146.219 421.662 145.805C421.357 145.391 420.939 145.184 420.408 145.184C419.752 145.184 419.26 145.475 418.932 146.057V149.086C419.256 149.664 419.752 149.953 420.42 149.953C420.939 149.953 421.352 149.748 421.656 149.338C421.965 148.924 422.119 148.311 422.119 147.498ZM427.217 150.838C426.357 150.838 425.658 150.557 425.119 149.994C424.58 149.428 424.311 148.672 424.311 147.727V147.527C424.311 146.898 424.43 146.338 424.668 145.846C424.91 145.35 425.246 144.963 425.676 144.686C426.109 144.404 426.578 144.264 427.082 144.264C427.906 144.264 428.547 144.535 429.004 145.078C429.461 145.621 429.689 146.398 429.689 147.41V147.861H425.395C425.41 148.486 425.592 148.992 425.939 149.379C426.291 149.762 426.736 149.953 427.275 149.953C427.658 149.953 427.982 149.875 428.248 149.719C428.514 149.562 428.746 149.355 428.945 149.098L429.607 149.613C429.076 150.43 428.279 150.838 427.217 150.838ZM427.082 145.154C426.645 145.154 426.277 145.314 425.98 145.635C425.684 145.951 425.5 146.396 425.43 146.971H428.605V146.889C428.574 146.338 428.426 145.912 428.16 145.611C427.895 145.307 427.535 145.154 427.082 145.154ZM434.014 145.354C433.85 145.326 433.672 145.312 433.48 145.312C432.77 145.312 432.287 145.615 432.033 146.221V150.721H430.949V144.381H432.004L432.021 145.113C432.377 144.547 432.881 144.264 433.533 144.264C433.744 144.264 433.904 144.291 434.014 144.346V145.354ZM439.287 147.381V150.721H438.162V142.189H441.309C442.242 142.189 442.973 142.428 443.5 142.904C444.031 143.381 444.297 144.012 444.297 144.797C444.297 145.625 444.037 146.264 443.518 146.713C443.002 147.158 442.262 147.381 441.297 147.381H439.287ZM439.287 146.461H441.309C441.91 146.461 442.371 146.32 442.691 146.039C443.012 145.754 443.172 145.344 443.172 144.809C443.172 144.301 443.012 143.895 442.691 143.59C442.371 143.285 441.932 143.127 441.373 143.115H439.287V146.461ZM448.627 145.354C448.463 145.326 448.285 145.312 448.094 145.312C447.383 145.312 446.9 145.615 446.646 146.221V150.721H445.562V144.381H446.617L446.635 145.113C446.99 144.547 447.494 144.264 448.146 144.264C448.357 144.264 448.518 144.291 448.627 144.346V145.354ZM449.225 147.492C449.225 146.871 449.346 146.312 449.588 145.816C449.834 145.32 450.174 144.938 450.607 144.668C451.045 144.398 451.543 144.264 452.102 144.264C452.965 144.264 453.662 144.562 454.193 145.16C454.729 145.758 454.996 146.553 454.996 147.545V147.621C454.996 148.238 454.877 148.793 454.639 149.285C454.404 149.773 454.066 150.154 453.625 150.428C453.188 150.701 452.684 150.838 452.113 150.838C451.254 150.838 450.557 150.539 450.021 149.941C449.49 149.344 449.225 148.553 449.225 147.568V147.492ZM450.314 147.621C450.314 148.324 450.477 148.889 450.801 149.314C451.129 149.74 451.566 149.953 452.113 149.953C452.664 149.953 453.102 149.738 453.426 149.309C453.75 148.875 453.912 148.27 453.912 147.492C453.912 146.797 453.746 146.234 453.414 145.805C453.086 145.371 452.648 145.154 452.102 145.154C451.566 145.154 451.135 145.367 450.807 145.793C450.479 146.219 450.314 146.828 450.314 147.621ZM457.826 142.846V144.381H459.01V145.219H457.826V149.15C457.826 149.404 457.879 149.596 457.984 149.725C458.09 149.85 458.27 149.912 458.523 149.912C458.648 149.912 458.82 149.889 459.039 149.842V150.721C458.754 150.799 458.477 150.838 458.207 150.838C457.723 150.838 457.357 150.691 457.111 150.398C456.865 150.105 456.742 149.689 456.742 149.15V145.219H455.588V144.381H456.742V142.846H457.826ZM459.877 147.492C459.877 146.871 459.998 146.312 460.24 145.816C460.486 145.32 460.826 144.938 461.26 144.668C461.697 144.398 462.195 144.264 462.754 144.264C463.617 144.264 464.314 144.562 464.846 145.16C465.381 145.758 465.648 146.553 465.648 147.545V147.621C465.648 148.238 465.529 148.793 465.291 149.285C465.057 149.773 464.719 150.154 464.277 150.428C463.84 150.701 463.336 150.838 462.766 150.838C461.906 150.838 461.209 150.539 460.674 149.941C460.143 149.344 459.877 148.553 459.877 147.568V147.492ZM460.967 147.621C460.967 148.324 461.129 148.889 461.453 149.314C461.781 149.74 462.219 149.953 462.766 149.953C463.316 149.953 463.754 149.738 464.078 149.309C464.402 148.875 464.564 148.27 464.564 147.492C464.564 146.797 464.398 146.234 464.066 145.805C463.738 145.371 463.301 145.154 462.754 145.154C462.219 145.154 461.787 145.367 461.459 145.793C461.131 146.219 460.967 146.828 460.967 147.621ZM468.479 142.846V144.381H469.662V145.219H468.479V149.15C468.479 149.404 468.531 149.596 468.637 149.725C468.742 149.85 468.922 149.912 469.176 149.912C469.301 149.912 469.473 149.889 469.691 149.842V150.721C469.406 150.799 469.129 150.838 468.859 150.838C468.375 150.838 468.01 150.691 467.764 150.398C467.518 150.105 467.395 149.689 467.395 149.15V145.219H466.24V144.381H467.395V142.846H468.479ZM473.008 149.133L474.484 144.381H475.645L473.096 151.699C472.701 152.754 472.074 153.281 471.215 153.281L471.01 153.264L470.605 153.188V152.309L470.898 152.332C471.266 152.332 471.551 152.258 471.754 152.109C471.961 151.961 472.131 151.689 472.264 151.295L472.504 150.65L470.242 144.381H471.426L473.008 149.133ZM481.973 147.621C481.973 148.586 481.752 149.363 481.311 149.953C480.869 150.543 480.271 150.838 479.518 150.838C478.748 150.838 478.143 150.594 477.701 150.105V153.158H476.617V144.381H477.607L477.66 145.084C478.102 144.537 478.715 144.264 479.5 144.264C480.262 144.264 480.863 144.551 481.305 145.125C481.75 145.699 481.973 146.498 481.973 147.521V147.621ZM480.889 147.498C480.889 146.783 480.736 146.219 480.432 145.805C480.127 145.391 479.709 145.184 479.178 145.184C478.521 145.184 478.029 145.475 477.701 146.057V149.086C478.025 149.664 478.521 149.953 479.189 149.953C479.709 149.953 480.121 149.748 480.426 149.338C480.734 148.924 480.889 148.311 480.889 147.498ZM484.533 150.721H483.449V144.381H484.533V150.721ZM483.361 142.699C483.361 142.523 483.414 142.375 483.52 142.254C483.629 142.133 483.789 142.072 484 142.072C484.211 142.072 484.371 142.133 484.48 142.254C484.59 142.375 484.645 142.523 484.645 142.699C484.645 142.875 484.59 143.021 484.48 143.139C484.371 143.256 484.211 143.314 484 143.314C483.789 143.314 483.629 143.256 483.52 143.139C483.414 143.021 483.361 142.875 483.361 142.699ZM487.299 144.381L487.334 145.178C487.818 144.568 488.451 144.264 489.232 144.264C490.572 144.264 491.248 145.02 491.26 146.531V150.721H490.176V146.525C490.172 146.068 490.066 145.73 489.859 145.512C489.656 145.293 489.338 145.184 488.904 145.184C488.553 145.184 488.244 145.277 487.979 145.465C487.713 145.652 487.506 145.898 487.357 146.203V150.721H486.273V144.381H487.299ZM492.637 147.498C492.637 146.51 492.865 145.725 493.322 145.143C493.779 144.557 494.385 144.264 495.139 144.264C495.912 144.264 496.516 144.537 496.949 145.084L497.002 144.381H497.992V150.568C497.992 151.389 497.748 152.035 497.26 152.508C496.775 152.98 496.123 153.217 495.303 153.217C494.846 153.217 494.398 153.119 493.961 152.924C493.523 152.729 493.189 152.461 492.959 152.121L493.521 151.471C493.986 152.045 494.555 152.332 495.227 152.332C495.754 152.332 496.164 152.184 496.457 151.887C496.754 151.59 496.902 151.172 496.902 150.633V150.088C496.469 150.588 495.877 150.838 495.127 150.838C494.385 150.838 493.783 150.539 493.322 149.941C492.865 149.344 492.637 148.529 492.637 147.498ZM493.727 147.621C493.727 148.336 493.873 148.898 494.166 149.309C494.459 149.715 494.869 149.918 495.396 149.918C496.08 149.918 496.582 149.607 496.902 148.986V146.092C496.57 145.486 496.072 145.184 495.408 145.184C494.881 145.184 494.469 145.389 494.172 145.799C493.875 146.209 493.727 146.816 493.727 147.621Z" fill="black"/>
<path d="M450 110.144H457V108H450C448.9 108 448 108.965 448 110.144V117.649H450V110.144ZM456 119.793L452 125.153H464L461 120.865L458.97 123.77L456 119.793ZM463 114.968C463 114.079 462.33 113.36 461.5 113.36C460.67 113.36 460 114.079 460 114.968C460 115.858 460.67 116.577 461.5 116.577C462.33 116.577 463 115.858 463 114.968ZM466 108H459V110.144H466V117.649H468V110.144C468 108.965 467.1 108 466 108ZM466 127.297H459V129.441H466C467.1 129.441 468 128.477 468 127.297V119.793H466V127.297ZM450 119.793H448V127.297C448 128.477 448.9 129.441 450 129.441H457V127.297H450V119.793Z" fill="#657B83"/>
</svg>
