<svg width="3760" height="1040" viewBox="0 0 3760 1040" fill="none" xmlns="http://www.w3.org/2000/svg">
<path d="M3284.15 611.453V635.623C3284.13 638.976 3283.08 641.718 3280.98 643.851C3278.89 645.983 3276.06 647.179 3272.48 647.439L3271.24 647.488C3267.35 647.488 3264.24 646.438 3261.93 644.339C3259.62 642.239 3258.45 639.35 3258.42 635.672V611.453H3263.06V635.525C3263.06 638.097 3263.76 640.099 3265.18 641.531C3266.6 642.947 3268.61 643.655 3271.24 643.655C3273.89 643.655 3275.91 642.947 3277.31 641.531C3278.73 640.115 3279.44 638.121 3279.44 635.55V611.453H3284.15ZM3306.22 639.993C3306.22 638.772 3305.76 637.828 3304.83 637.161C3303.92 636.478 3302.31 635.892 3300.02 635.403C3297.74 634.915 3295.93 634.329 3294.58 633.646C3293.24 632.962 3292.25 632.148 3291.6 631.204C3290.96 630.26 3290.64 629.137 3290.64 627.835C3290.64 625.67 3291.56 623.839 3293.38 622.342C3295.22 620.844 3297.56 620.096 3300.41 620.096C3303.4 620.096 3305.83 620.869 3307.69 622.415C3309.56 623.961 3310.49 625.939 3310.49 628.348H3305.95C3305.95 627.111 3305.42 626.045 3304.37 625.149C3303.32 624.254 3302.01 623.807 3300.41 623.807C3298.77 623.807 3297.48 624.165 3296.55 624.881C3295.62 625.597 3295.16 626.533 3295.16 627.688C3295.16 628.779 3295.59 629.601 3296.46 630.154C3297.32 630.708 3298.87 631.237 3301.12 631.741C3303.38 632.246 3305.21 632.848 3306.61 633.548C3308.01 634.248 3309.04 635.094 3309.71 636.087C3310.4 637.063 3310.74 638.26 3310.74 639.676C3310.74 642.036 3309.79 643.932 3307.91 645.364C3306.02 646.78 3303.57 647.488 3300.56 647.488C3298.44 647.488 3296.57 647.114 3294.94 646.365C3293.31 645.617 3292.04 644.575 3291.11 643.24C3290.2 641.889 3289.74 640.433 3289.74 638.87H3294.26C3294.34 640.384 3294.94 641.588 3296.06 642.483C3297.2 643.362 3298.7 643.802 3300.56 643.802C3302.27 643.802 3303.63 643.46 3304.66 642.776C3305.7 642.076 3306.22 641.149 3306.22 639.993ZM3327.58 647.488C3324 647.488 3321.09 646.316 3318.84 643.973C3316.6 641.613 3315.47 638.463 3315.47 634.524V633.694C3315.47 631.074 3315.97 628.738 3316.96 626.688C3317.97 624.62 3319.37 623.009 3321.16 621.854C3322.97 620.682 3324.92 620.096 3327.02 620.096C3330.46 620.096 3333.12 621.227 3335.03 623.489C3336.93 625.752 3337.89 628.991 3337.89 633.206V635.086H3319.99C3320.06 637.69 3320.81 639.798 3322.26 641.409C3323.73 643.004 3325.58 643.802 3327.83 643.802C3329.42 643.802 3330.77 643.476 3331.88 642.825C3332.99 642.174 3333.96 641.312 3334.79 640.237L3337.54 642.386C3335.33 645.787 3332.01 647.488 3327.58 647.488ZM3327.02 623.807C3325.2 623.807 3323.67 624.474 3322.43 625.809C3321.19 627.127 3320.43 628.982 3320.14 631.375H3333.37V631.033C3333.24 628.738 3332.62 626.964 3331.51 625.711C3330.41 624.441 3328.91 623.807 3327.02 623.807ZM3355.9 624.637C3355.22 624.523 3354.48 624.466 3353.68 624.466C3350.72 624.466 3348.71 625.727 3347.65 628.25V647H3343.13V620.584H3347.53L3347.6 623.636C3349.08 621.276 3351.18 620.096 3353.9 620.096C3354.78 620.096 3355.45 620.21 3355.9 620.438V624.637ZM3375.41 647C3375.15 646.479 3374.94 645.551 3374.78 644.217C3372.68 646.398 3370.17 647.488 3367.26 647.488C3364.65 647.488 3362.51 646.756 3360.83 645.291C3359.17 643.81 3358.34 641.938 3358.34 639.676C3358.34 636.925 3359.39 634.793 3361.47 633.279C3363.57 631.749 3366.52 630.984 3370.31 630.984H3374.7V628.909C3374.7 627.33 3374.23 626.077 3373.29 625.149C3372.34 624.205 3370.95 623.733 3369.11 623.733C3367.5 623.733 3366.15 624.14 3365.06 624.954C3363.97 625.768 3363.42 626.753 3363.42 627.908H3358.88C3358.88 626.59 3359.35 625.32 3360.27 624.1C3361.22 622.863 3362.49 621.886 3364.08 621.17C3365.69 620.454 3367.46 620.096 3369.38 620.096C3372.42 620.096 3374.81 620.861 3376.53 622.391C3378.26 623.904 3379.15 625.996 3379.22 628.665V640.823C3379.22 643.248 3379.53 645.177 3380.15 646.609V647H3375.41ZM3367.92 643.558C3369.33 643.558 3370.67 643.191 3371.94 642.459C3373.21 641.727 3374.13 640.774 3374.7 639.603V634.183H3371.16C3365.63 634.183 3362.86 635.802 3362.86 639.041C3362.86 640.457 3363.33 641.564 3364.28 642.361C3365.22 643.159 3366.43 643.558 3367.92 643.558ZM3408.66 634.085C3408.66 638.121 3407.73 641.368 3405.88 643.826C3404.02 646.268 3401.53 647.488 3398.41 647.488C3395.07 647.488 3392.49 646.308 3390.67 643.948L3390.45 647H3386.3V609.5H3390.82V623.489C3392.64 621.227 3395.15 620.096 3398.36 620.096C3401.57 620.096 3404.08 621.308 3405.9 623.733C3407.74 626.159 3408.66 629.479 3408.66 633.694V634.085ZM3404.15 633.572C3404.15 630.496 3403.55 628.12 3402.36 626.443C3401.18 624.767 3399.47 623.929 3397.24 623.929C3394.26 623.929 3392.12 625.312 3390.82 628.079V639.505C3392.2 642.272 3394.36 643.655 3397.29 643.655C3399.45 643.655 3401.13 642.817 3402.34 641.141C3403.54 639.464 3404.15 636.941 3404.15 633.572ZM3419.28 647H3414.77V620.584H3419.28V647ZM3414.4 613.577C3414.4 612.845 3414.62 612.226 3415.06 611.722C3415.51 611.217 3416.18 610.965 3417.06 610.965C3417.94 610.965 3418.61 611.217 3419.06 611.722C3419.52 612.226 3419.75 612.845 3419.75 613.577C3419.75 614.31 3419.52 614.92 3419.06 615.408C3418.61 615.896 3417.94 616.141 3417.06 616.141C3416.18 616.141 3415.51 615.896 3415.06 615.408C3414.62 614.92 3414.4 614.31 3414.4 613.577ZM3431.44 647H3426.92V609.5H3431.44V647ZM3443.6 647H3439.08V620.584H3443.6V647ZM3438.72 613.577C3438.72 612.845 3438.94 612.226 3439.38 611.722C3439.83 611.217 3440.5 610.965 3441.38 610.965C3442.26 610.965 3442.92 611.217 3443.38 611.722C3443.83 612.226 3444.06 612.845 3444.06 613.577C3444.06 614.31 3443.83 614.92 3443.38 615.408C3442.92 615.896 3442.26 616.141 3441.38 616.141C3440.5 616.141 3439.83 615.896 3439.38 615.408C3438.94 614.92 3438.72 614.31 3438.72 613.577ZM3456.98 614.188V620.584H3461.91V624.075H3456.98V640.457C3456.98 641.515 3457.2 642.312 3457.64 642.85C3458.08 643.37 3458.82 643.631 3459.88 643.631C3460.4 643.631 3461.12 643.533 3462.03 643.338V647C3460.84 647.326 3459.69 647.488 3458.56 647.488C3456.55 647.488 3455.02 646.878 3454 645.657C3452.97 644.437 3452.46 642.703 3452.46 640.457V624.075H3447.65V620.584H3452.46V614.188H3456.98ZM3475.85 640.384L3482 620.584H3486.84L3476.22 651.077C3474.57 655.472 3471.96 657.669 3468.38 657.669L3467.52 657.596L3465.84 657.278V653.616L3467.06 653.714C3468.59 653.714 3469.78 653.405 3470.62 652.786C3471.49 652.168 3472.2 651.036 3472.75 649.393L3473.75 646.707L3464.33 620.584H3469.26L3475.85 640.384ZM3527.58 615.311H3516.16V647H3511.49V615.311H3500.09V611.453H3527.58V615.311ZM3540.67 647.488C3537.09 647.488 3534.17 646.316 3531.93 643.973C3529.68 641.613 3528.56 638.463 3528.56 634.524V633.694C3528.56 631.074 3529.06 628.738 3530.05 626.688C3531.06 624.62 3532.46 623.009 3534.25 621.854C3536.05 620.682 3538.01 620.096 3540.11 620.096C3543.54 620.096 3546.21 621.227 3548.12 623.489C3550.02 625.752 3550.97 628.991 3550.97 633.206V635.086H3533.08C3533.14 637.69 3533.9 639.798 3535.35 641.409C3536.81 643.004 3538.67 643.802 3540.91 643.802C3542.51 643.802 3543.86 643.476 3544.97 642.825C3546.07 642.174 3547.04 641.312 3547.87 640.237L3550.63 642.386C3548.42 645.787 3545.1 647.488 3540.67 647.488ZM3540.11 623.807C3538.28 623.807 3536.75 624.474 3535.52 625.809C3534.28 627.127 3533.52 628.982 3533.22 631.375H3546.46V631.033C3546.32 628.738 3545.71 626.964 3544.6 625.711C3543.49 624.441 3542 623.807 3540.11 623.807ZM3571.6 639.993C3571.6 638.772 3571.14 637.828 3570.21 637.161C3569.3 636.478 3567.7 635.892 3565.4 635.403C3563.12 634.915 3561.31 634.329 3559.96 633.646C3558.62 632.962 3557.63 632.148 3556.98 631.204C3556.34 630.26 3556.03 629.137 3556.03 627.835C3556.03 625.67 3556.94 623.839 3558.76 622.342C3560.6 620.844 3562.94 620.096 3565.79 620.096C3568.79 620.096 3571.21 620.869 3573.07 622.415C3574.94 623.961 3575.87 625.939 3575.87 628.348H3571.33C3571.33 627.111 3570.8 626.045 3569.75 625.149C3568.7 624.254 3567.39 623.807 3565.79 623.807C3564.15 623.807 3562.86 624.165 3561.93 624.881C3561.01 625.597 3560.54 626.533 3560.54 627.688C3560.54 628.779 3560.97 629.601 3561.84 630.154C3562.7 630.708 3564.25 631.237 3566.5 631.741C3568.76 632.246 3570.59 632.848 3571.99 633.548C3573.39 634.248 3574.43 635.094 3575.09 636.087C3575.78 637.063 3576.12 638.26 3576.12 639.676C3576.12 642.036 3575.17 643.932 3573.29 645.364C3571.4 646.78 3568.95 647.488 3565.94 647.488C3563.82 647.488 3561.95 647.114 3560.32 646.365C3558.69 645.617 3557.42 644.575 3556.49 643.24C3555.58 641.889 3555.12 640.433 3555.12 638.87H3559.64C3559.72 640.384 3560.32 641.588 3561.45 642.483C3562.58 643.362 3564.08 643.802 3565.94 643.802C3567.65 643.802 3569.01 643.46 3570.04 642.776C3571.08 642.076 3571.6 641.149 3571.6 639.993ZM3588.13 614.188V620.584H3593.06V624.075H3588.13V640.457C3588.13 641.515 3588.35 642.312 3588.79 642.85C3589.23 643.37 3589.98 643.631 3591.04 643.631C3591.56 643.631 3592.27 643.533 3593.18 643.338V647C3592 647.326 3590.84 647.488 3589.72 647.488C3587.7 647.488 3586.18 646.878 3585.15 645.657C3584.13 644.437 3583.61 642.703 3583.61 640.457V624.075H3578.8V620.584H3583.61V614.188H3588.13ZM3603.27 647H3598.75V620.584H3603.27V647ZM3598.38 613.577C3598.38 612.845 3598.6 612.226 3599.04 611.722C3599.5 611.217 3600.17 610.965 3601.04 610.965C3601.92 610.965 3602.59 611.217 3603.05 611.722C3603.5 612.226 3603.73 612.845 3603.73 613.577C3603.73 614.31 3603.5 614.92 3603.05 615.408C3602.59 615.896 3601.92 616.141 3601.04 616.141C3600.17 616.141 3599.5 615.896 3599.04 615.408C3598.6 614.92 3598.38 614.31 3598.38 613.577ZM3614.79 620.584L3614.94 623.904C3616.95 621.365 3619.59 620.096 3622.85 620.096C3628.43 620.096 3631.25 623.245 3631.29 629.544V647H3626.78V629.52C3626.76 627.615 3626.32 626.207 3625.46 625.296C3624.61 624.384 3623.29 623.929 3621.48 623.929C3620.01 623.929 3618.73 624.319 3617.62 625.101C3616.52 625.882 3615.65 626.907 3615.03 628.177V647H3610.52V620.584H3614.79ZM3637.03 633.572C3637.03 629.454 3637.98 626.183 3639.89 623.758C3641.79 621.316 3644.31 620.096 3647.46 620.096C3650.68 620.096 3653.19 621.235 3655 623.514L3655.22 620.584H3659.35V646.365C3659.35 649.783 3658.33 652.477 3656.29 654.446C3654.28 656.416 3651.56 657.4 3648.14 657.4C3646.24 657.4 3644.37 656.993 3642.55 656.18C3640.73 655.366 3639.33 654.251 3638.37 652.835L3640.72 650.125C3642.65 652.518 3645.02 653.714 3647.82 653.714C3650.02 653.714 3651.73 653.095 3652.95 651.858C3654.19 650.621 3654.8 648.88 3654.8 646.634V644.363C3653 646.447 3650.53 647.488 3647.41 647.488C3644.31 647.488 3641.81 646.243 3639.89 643.753C3637.98 641.263 3637.03 637.869 3637.03 633.572ZM3641.57 634.085C3641.57 637.063 3642.18 639.407 3643.4 641.116C3644.62 642.809 3646.33 643.655 3648.53 643.655C3651.38 643.655 3653.47 642.361 3654.8 639.773V627.713C3653.42 625.19 3651.35 623.929 3648.58 623.929C3646.38 623.929 3644.66 624.783 3643.43 626.492C3642.19 628.201 3641.57 630.732 3641.57 634.085Z" fill="black"/>
<path d="M2761.45 650H2756.73V633.569H2738.81V650H2734.13V614.453H2738.81V629.736H2756.73V614.453H2761.45V650ZM2789.38 634.302H2774.46V650H2769.77V614.453H2791.79V618.311H2774.46V630.469H2789.38V634.302ZM2817.48 638.794L2818.16 643.481L2819.16 639.258L2826.19 614.453H2830.15L2837.01 639.258L2837.98 643.555L2838.74 638.77L2844.26 614.453H2848.97L2840.35 650H2836.08L2828.75 624.097L2828.19 621.387L2827.63 624.097L2820.04 650H2815.77L2807.17 614.453H2811.86L2817.48 638.794ZM2858.39 650H2853.88V623.584H2858.39V650ZM2853.51 616.577C2853.51 615.845 2853.73 615.226 2854.17 614.722C2854.63 614.217 2855.29 613.965 2856.17 613.965C2857.05 613.965 2857.72 614.217 2858.17 614.722C2858.63 615.226 2858.86 615.845 2858.86 616.577C2858.86 617.31 2858.63 617.92 2858.17 618.408C2857.72 618.896 2857.05 619.141 2856.17 619.141C2855.29 619.141 2854.63 618.896 2854.17 618.408C2853.73 617.92 2853.51 617.31 2853.51 616.577ZM2878.41 627.637C2877.73 627.523 2876.99 627.466 2876.19 627.466C2873.23 627.466 2871.22 628.727 2870.16 631.25V650H2865.64V623.584H2870.04L2870.11 626.636C2871.59 624.276 2873.69 623.096 2876.41 623.096C2877.29 623.096 2877.96 623.21 2878.41 623.438V627.637ZM2893.06 650.488C2889.48 650.488 2886.57 649.316 2884.32 646.973C2882.08 644.613 2880.95 641.463 2880.95 637.524V636.694C2880.95 634.074 2881.45 631.738 2882.44 629.688C2883.45 627.62 2884.85 626.009 2886.64 624.854C2888.45 623.682 2890.4 623.096 2892.5 623.096C2895.93 623.096 2898.6 624.227 2900.51 626.489C2902.41 628.752 2903.36 631.991 2903.36 636.206V638.086H2885.47C2885.53 640.69 2886.29 642.798 2887.74 644.409C2889.2 646.004 2891.06 646.802 2893.31 646.802C2894.9 646.802 2896.25 646.476 2897.36 645.825C2898.47 645.174 2899.43 644.312 2900.26 643.237L2903.02 645.386C2900.81 648.787 2897.49 650.488 2893.06 650.488ZM2892.5 626.807C2890.68 626.807 2889.15 627.474 2887.91 628.809C2886.67 630.127 2885.91 631.982 2885.62 634.375H2898.85V634.033C2898.72 631.738 2898.1 629.964 2896.99 628.711C2895.89 627.441 2894.39 626.807 2892.5 626.807ZM2910.83 650V627.075H2906.66V623.584H2910.83V620.874C2910.83 618.042 2911.59 615.853 2913.11 614.307C2914.62 612.76 2916.76 611.987 2919.53 611.987C2920.57 611.987 2921.6 612.126 2922.63 612.402L2922.38 616.064C2921.62 615.918 2920.8 615.845 2919.94 615.845C2918.48 615.845 2917.35 616.276 2916.55 617.139C2915.75 617.985 2915.35 619.206 2915.35 620.801V623.584H2920.99V627.075H2915.35V650H2910.83ZM2938.76 627.637C2938.08 627.523 2937.34 627.466 2936.54 627.466C2933.58 627.466 2931.57 628.727 2930.51 631.25V650H2926V623.584H2930.39L2930.46 626.636C2931.94 624.276 2934.04 623.096 2936.76 623.096C2937.64 623.096 2938.31 623.21 2938.76 623.438V627.637ZM2958.27 650C2958.01 649.479 2957.8 648.551 2957.64 647.217C2955.54 649.398 2953.03 650.488 2950.12 650.488C2947.51 650.488 2945.37 649.756 2943.7 648.291C2942.04 646.81 2941.21 644.938 2941.21 642.676C2941.21 639.925 2942.25 637.793 2944.33 636.279C2946.43 634.749 2949.38 633.984 2953.17 633.984H2957.56V631.909C2957.56 630.33 2957.09 629.077 2956.15 628.149C2955.2 627.205 2953.81 626.733 2951.97 626.733C2950.36 626.733 2949.01 627.14 2947.92 627.954C2946.83 628.768 2946.28 629.753 2946.28 630.908H2941.74C2941.74 629.59 2942.21 628.32 2943.13 627.1C2944.08 625.863 2945.35 624.886 2946.94 624.17C2948.55 623.454 2950.32 623.096 2952.24 623.096C2955.28 623.096 2957.67 623.861 2959.39 625.391C2961.12 626.904 2962.01 628.996 2962.08 631.665V643.823C2962.08 646.248 2962.39 648.177 2963.01 649.609V650H2958.27ZM2950.78 646.558C2952.19 646.558 2953.54 646.191 2954.8 645.459C2956.07 644.727 2956.99 643.774 2957.56 642.603V637.183H2954.02C2948.49 637.183 2945.72 638.802 2945.72 642.041C2945.72 643.457 2946.19 644.564 2947.14 645.361C2948.08 646.159 2949.3 646.558 2950.78 646.558ZM2973.41 623.584L2973.53 626.514C2975.47 624.235 2978.08 623.096 2981.37 623.096C2985.06 623.096 2987.58 624.512 2988.91 627.344C2989.79 626.074 2990.93 625.049 2992.33 624.268C2993.75 623.486 2995.41 623.096 2997.33 623.096C3003.13 623.096 3006.07 626.164 3006.17 632.3V650H3001.66V632.568C3001.66 630.68 3001.22 629.272 3000.36 628.345C2999.5 627.401 2998.05 626.929 2996.02 626.929C2994.34 626.929 2992.95 627.433 2991.84 628.442C2990.73 629.435 2990.09 630.778 2989.91 632.471V650H2985.37V632.69C2985.37 628.849 2983.49 626.929 2979.73 626.929C2976.77 626.929 2974.74 628.19 2973.65 630.713V650H2969.14V623.584H2973.41ZM3023.97 650.488C3020.39 650.488 3017.48 649.316 3015.23 646.973C3012.98 644.613 3011.86 641.463 3011.86 637.524V636.694C3011.86 634.074 3012.36 631.738 3013.35 629.688C3014.36 627.62 3015.76 626.009 3017.55 624.854C3019.36 623.682 3021.31 623.096 3023.41 623.096C3026.84 623.096 3029.51 624.227 3031.42 626.489C3033.32 628.752 3034.27 631.991 3034.27 636.206V638.086H3016.38C3016.44 640.69 3017.2 642.798 3018.65 644.409C3020.11 646.004 3021.97 646.802 3024.21 646.802C3025.81 646.802 3027.16 646.476 3028.27 645.825C3029.37 645.174 3030.34 644.312 3031.17 643.237L3033.93 645.386C3031.72 648.787 3028.4 650.488 3023.97 650.488ZM3023.41 626.807C3021.59 626.807 3020.06 627.474 3018.82 628.809C3017.58 630.127 3016.82 631.982 3016.52 634.375H3029.76V634.033C3029.63 631.738 3029.01 629.964 3027.9 628.711C3026.79 627.441 3025.3 626.807 3023.41 626.807Z" fill="black"/>
<path d="M1435.6 628.155C1431.58 627 1428.65 625.584 1426.81 623.907C1424.99 622.215 1424.08 620.131 1424.08 617.657C1424.08 614.858 1425.19 612.547 1427.42 610.724C1429.67 608.884 1432.58 607.965 1436.16 607.965C1438.6 607.965 1440.78 608.437 1442.68 609.381C1444.6 610.325 1446.08 611.627 1447.12 613.287C1448.18 614.947 1448.71 616.762 1448.71 618.731H1444C1444 616.583 1443.31 614.898 1441.95 613.678C1440.58 612.441 1438.65 611.822 1436.16 611.822C1433.85 611.822 1432.04 612.335 1430.74 613.36C1429.46 614.369 1428.81 615.777 1428.81 617.584C1428.81 619.033 1429.42 620.261 1430.64 621.271C1431.88 622.263 1433.97 623.175 1436.92 624.005C1439.88 624.835 1442.19 625.755 1443.85 626.764C1445.53 627.757 1446.76 628.92 1447.56 630.255C1448.38 631.59 1448.78 633.16 1448.78 634.967C1448.78 637.848 1447.66 640.159 1445.41 641.9C1443.17 643.626 1440.17 644.488 1436.41 644.488C1433.96 644.488 1431.69 644.024 1429.57 643.097C1427.45 642.153 1425.82 640.867 1424.66 639.239C1423.52 637.612 1422.95 635.764 1422.95 633.697H1427.67C1427.67 635.846 1428.45 637.547 1430.03 638.8C1431.63 640.037 1433.75 640.655 1436.41 640.655C1438.88 640.655 1440.78 640.151 1442.09 639.142C1443.41 638.132 1444.07 636.757 1444.07 635.016C1444.07 633.274 1443.46 631.931 1442.24 630.987C1441.02 630.027 1438.81 629.083 1435.6 628.155ZM1460.23 611.188V617.584H1465.17V621.075H1460.23V637.457C1460.23 638.515 1460.45 639.312 1460.89 639.85C1461.33 640.37 1462.08 640.631 1463.14 640.631C1463.66 640.631 1464.38 640.533 1465.29 640.338V644C1464.1 644.326 1462.94 644.488 1461.82 644.488C1459.8 644.488 1458.28 643.878 1457.25 642.657C1456.23 641.437 1455.72 639.703 1455.72 637.457V621.075H1450.91V617.584H1455.72V611.188H1460.23ZM1468.78 630.548C1468.78 627.96 1469.28 625.632 1470.29 623.565C1471.32 621.498 1472.73 619.903 1474.54 618.78C1476.36 617.657 1478.44 617.096 1480.77 617.096C1484.36 617.096 1487.27 618.341 1489.48 620.831C1491.71 623.321 1492.83 626.633 1492.83 630.768V631.085C1492.83 633.657 1492.33 635.968 1491.34 638.019C1490.36 640.053 1488.95 641.64 1487.11 642.779C1485.29 643.919 1483.19 644.488 1480.81 644.488C1477.23 644.488 1474.33 643.243 1472.1 640.753C1469.89 638.263 1468.78 634.967 1468.78 630.865V630.548ZM1473.32 631.085C1473.32 634.015 1473.99 636.367 1475.35 638.141C1476.71 639.915 1478.54 640.802 1480.81 640.802C1483.11 640.802 1484.93 639.907 1486.28 638.116C1487.63 636.31 1488.31 633.787 1488.31 630.548C1488.31 627.651 1487.62 625.307 1486.23 623.517C1484.87 621.71 1483.04 620.807 1480.77 620.807C1478.54 620.807 1476.74 621.694 1475.37 623.468C1474 625.242 1473.32 627.781 1473.32 631.085ZM1511.26 621.637C1510.58 621.523 1509.83 621.466 1509.04 621.466C1506.07 621.466 1504.06 622.727 1503.01 625.25V644H1498.49V617.584H1502.88L1502.96 620.636C1504.44 618.276 1506.54 617.096 1509.26 617.096C1510.14 617.096 1510.8 617.21 1511.26 617.438V621.637ZM1524.52 637.384L1530.67 617.584H1535.5L1524.88 648.077C1523.24 652.472 1520.63 654.669 1517.04 654.669L1516.19 654.596L1514.51 654.278V650.616L1515.73 650.714C1517.26 650.714 1518.44 650.405 1519.29 649.786C1520.15 649.168 1520.86 648.036 1521.42 646.393L1522.42 643.707L1512.99 617.584H1517.92L1524.52 637.384ZM1561.92 631.085C1561.92 635.121 1560.99 638.368 1559.13 640.826C1557.28 643.268 1554.79 644.488 1551.66 644.488C1548.33 644.488 1545.75 643.308 1543.92 640.948L1543.71 644H1539.55V606.5H1544.07V620.489C1545.89 618.227 1548.41 617.096 1551.62 617.096C1554.82 617.096 1557.34 618.308 1559.16 620.733C1561 623.159 1561.92 626.479 1561.92 630.694V631.085ZM1557.4 630.572C1557.4 627.496 1556.81 625.12 1555.62 623.443C1554.43 621.767 1552.72 620.929 1550.49 620.929C1547.51 620.929 1545.37 622.312 1544.07 625.079V636.505C1545.45 639.272 1547.61 640.655 1550.54 640.655C1552.71 640.655 1554.39 639.817 1555.59 638.141C1556.8 636.464 1557.4 633.941 1557.4 630.572ZM1566.43 630.548C1566.43 627.96 1566.94 625.632 1567.95 623.565C1568.97 621.498 1570.39 619.903 1572.2 618.78C1574.02 617.657 1576.09 617.096 1578.42 617.096C1582.02 617.096 1584.92 618.341 1587.14 620.831C1589.37 623.321 1590.48 626.633 1590.48 630.768V631.085C1590.48 633.657 1589.99 635.968 1588.99 638.019C1588.02 640.053 1586.61 641.64 1584.77 642.779C1582.95 643.919 1580.85 644.488 1578.47 644.488C1574.89 644.488 1571.98 643.243 1569.75 640.753C1567.54 638.263 1566.43 634.967 1566.43 630.865V630.548ZM1570.98 631.085C1570.98 634.015 1571.65 636.367 1573 638.141C1574.37 639.915 1576.19 640.802 1578.47 640.802C1580.77 640.802 1582.59 639.907 1583.94 638.116C1585.29 636.31 1585.97 633.787 1585.97 630.548C1585.97 627.651 1585.27 625.307 1583.89 623.517C1582.52 621.71 1580.7 620.807 1578.42 620.807C1576.19 620.807 1574.39 621.694 1573.03 623.468C1571.66 625.242 1570.98 627.781 1570.98 631.085ZM1612.46 644C1612.19 643.479 1611.98 642.551 1611.82 641.217C1609.72 643.398 1607.21 644.488 1604.3 644.488C1601.7 644.488 1599.56 643.756 1597.88 642.291C1596.22 640.81 1595.39 638.938 1595.39 636.676C1595.39 633.925 1596.43 631.793 1598.51 630.279C1600.61 628.749 1603.56 627.984 1607.35 627.984H1611.75V625.909C1611.75 624.33 1611.28 623.077 1610.33 622.149C1609.39 621.205 1608 620.733 1606.16 620.733C1604.54 620.733 1603.19 621.14 1602.1 621.954C1601.01 622.768 1600.47 623.753 1600.47 624.908H1595.93C1595.93 623.59 1596.39 622.32 1597.32 621.1C1598.26 619.863 1599.53 618.886 1601.13 618.17C1602.74 617.454 1604.5 617.096 1606.42 617.096C1609.47 617.096 1611.85 617.861 1613.58 619.391C1615.3 620.904 1616.2 622.996 1616.26 625.665V637.823C1616.26 640.248 1616.57 642.177 1617.19 643.609V644H1612.46ZM1604.96 640.558C1606.38 640.558 1607.72 640.191 1608.99 639.459C1610.26 638.727 1611.18 637.774 1611.75 636.603V631.183H1608.21C1602.67 631.183 1599.91 632.802 1599.91 636.041C1599.91 637.457 1600.38 638.564 1601.32 639.361C1602.27 640.159 1603.48 640.558 1604.96 640.558ZM1636.11 621.637C1635.43 621.523 1634.69 621.466 1633.89 621.466C1630.93 621.466 1628.92 622.727 1627.86 625.25V644H1623.34V617.584H1627.74L1627.81 620.636C1629.29 618.276 1631.39 617.096 1634.11 617.096C1634.99 617.096 1635.66 617.21 1636.11 617.438V621.637ZM1638.7 630.572C1638.7 626.52 1639.66 623.264 1641.58 620.807C1643.5 618.333 1646.02 617.096 1649.12 617.096C1652.22 617.096 1654.67 618.154 1656.47 620.27V606.5H1660.99V644H1656.84L1656.62 641.168C1654.81 643.382 1652.3 644.488 1649.08 644.488C1646.02 644.488 1643.52 643.235 1641.58 640.729C1639.66 638.222 1638.7 634.951 1638.7 630.914V630.572ZM1643.22 631.085C1643.22 634.08 1643.84 636.424 1645.07 638.116C1646.31 639.809 1648.02 640.655 1650.2 640.655C1653.06 640.655 1655.16 639.369 1656.47 636.798V624.664C1655.12 622.174 1653.05 620.929 1650.25 620.929C1648.03 620.929 1646.31 621.783 1645.07 623.492C1643.84 625.201 1643.22 627.732 1643.22 631.085Z" fill="black"/>
<path d="M1662.44 173V123.234H1677.76C1682.13 123.234 1686.04 124.226 1689.48 126.208C1692.94 128.168 1695.64 130.97 1697.58 134.616C1699.52 138.239 1700.49 142.364 1700.49 146.989V149.279C1700.49 153.905 1699.53 158.018 1697.61 161.618C1695.72 165.218 1693.05 168.01 1689.58 169.992C1686.12 171.975 1682.21 172.977 1677.86 173H1662.44ZM1672.7 131.54V164.763H1677.65C1681.66 164.763 1684.73 163.452 1686.85 160.832C1688.97 158.212 1690.05 154.463 1690.09 149.587V146.955C1690.09 141.896 1689.05 138.068 1686.95 135.471C1684.85 132.85 1681.79 131.54 1677.76 131.54H1672.7ZM1724.34 173.684C1718.92 173.684 1714.5 172.02 1711.08 168.693C1707.69 165.367 1705.99 160.935 1705.99 155.397V154.44C1705.99 150.726 1706.71 147.411 1708.14 144.494C1709.58 141.555 1711.61 139.299 1714.23 137.727C1716.87 136.132 1719.88 135.334 1723.25 135.334C1728.31 135.334 1732.28 136.929 1735.18 140.119C1738.09 143.309 1739.55 147.832 1739.55 153.688V157.722H1716C1716.32 160.137 1717.28 162.074 1718.87 163.532C1720.49 164.991 1722.53 165.72 1724.99 165.72C1728.8 165.72 1731.77 164.341 1733.91 161.584L1738.77 167.019C1737.29 169.115 1735.28 170.756 1732.75 171.94C1730.22 173.103 1727.42 173.684 1724.34 173.684ZM1723.21 143.332C1721.26 143.332 1719.66 143.993 1718.43 145.314C1717.22 146.636 1716.45 148.527 1716.11 150.988H1729.85V150.202C1729.8 148.015 1729.21 146.328 1728.07 145.144C1726.93 143.936 1725.31 143.332 1723.21 143.332ZM1765.22 162.78C1765.22 161.573 1764.62 160.627 1763.41 159.943C1762.23 159.237 1760.31 158.61 1757.67 158.063C1748.87 156.218 1744.47 152.481 1744.47 146.853C1744.47 143.571 1745.83 140.837 1748.54 138.649C1751.28 136.439 1754.84 135.334 1759.24 135.334C1763.93 135.334 1767.68 136.439 1770.49 138.649C1773.31 140.86 1774.72 143.731 1774.72 147.263H1764.85C1764.85 145.85 1764.39 144.688 1763.48 143.776C1762.57 142.842 1761.14 142.375 1759.21 142.375C1757.54 142.375 1756.26 142.751 1755.34 143.503C1754.43 144.255 1753.98 145.212 1753.98 146.374C1753.98 147.468 1754.49 148.356 1755.51 149.04C1756.56 149.701 1758.32 150.282 1760.78 150.783C1763.24 151.262 1765.31 151.809 1767 152.424C1772.22 154.338 1774.83 157.653 1774.83 162.37C1774.83 165.743 1773.38 168.477 1770.49 170.573C1767.59 172.647 1763.85 173.684 1759.27 173.684C1756.18 173.684 1753.42 173.137 1751 172.043C1748.61 170.926 1746.73 169.411 1745.36 167.497C1744 165.56 1743.31 163.475 1743.31 161.242H1752.68C1752.77 162.997 1753.42 164.341 1754.63 165.275C1755.83 166.21 1757.45 166.677 1759.48 166.677C1761.37 166.677 1762.79 166.324 1763.75 165.617C1764.73 164.888 1765.22 163.942 1765.22 162.78ZM1791.64 173H1781.73V136.018H1791.64V173ZM1781.15 126.447C1781.15 124.966 1781.64 123.747 1782.62 122.79C1783.62 121.833 1784.98 121.354 1786.69 121.354C1788.37 121.354 1789.72 121.833 1790.72 122.79C1791.72 123.747 1792.22 124.966 1792.22 126.447C1792.22 127.951 1791.71 129.182 1790.69 130.139C1789.68 131.096 1788.35 131.574 1786.69 131.574C1785.02 131.574 1783.68 131.096 1782.65 130.139C1781.65 129.182 1781.15 127.951 1781.15 126.447ZM1798.38 154.235C1798.38 148.562 1799.72 143.993 1802.41 140.529C1805.12 137.066 1808.77 135.334 1813.35 135.334C1817.4 135.334 1820.56 136.724 1822.81 139.504L1823.22 136.018H1832.18V171.77C1832.18 175.005 1831.44 177.819 1829.96 180.212C1828.5 182.604 1826.44 184.427 1823.77 185.681C1821.11 186.934 1817.98 187.561 1814.41 187.561C1811.69 187.561 1809.05 187.014 1806.48 185.92C1803.9 184.849 1801.95 183.459 1800.63 181.75L1805.01 175.734C1807.47 178.492 1810.45 179.87 1813.96 179.87C1816.58 179.87 1818.62 179.164 1820.08 177.751C1821.54 176.361 1822.27 174.379 1822.27 171.804V169.821C1819.99 172.396 1816.99 173.684 1813.28 173.684C1808.83 173.684 1805.23 171.952 1802.48 168.488C1799.74 165.002 1798.38 160.388 1798.38 154.646V154.235ZM1808.25 154.953C1808.25 158.303 1808.93 160.935 1810.27 162.849C1811.61 164.74 1813.46 165.686 1815.81 165.686C1818.82 165.686 1820.97 164.558 1822.27 162.302V146.75C1820.95 144.494 1818.82 143.366 1815.88 143.366C1813.51 143.366 1811.64 144.335 1810.27 146.271C1808.93 148.208 1808.25 151.102 1808.25 154.953ZM1848.89 136.018L1849.2 140.29C1851.84 136.986 1855.39 135.334 1859.83 135.334C1863.75 135.334 1866.67 136.485 1868.58 138.786C1870.5 141.088 1871.47 144.528 1871.52 149.108V173H1861.64V149.348C1861.64 147.251 1861.19 145.736 1860.28 144.802C1859.36 143.845 1857.85 143.366 1855.73 143.366C1852.95 143.366 1850.86 144.551 1849.47 146.921V173H1839.6V136.018H1848.89ZM1889.46 173H1879.55V136.018H1889.46V173ZM1878.97 126.447C1878.97 124.966 1879.46 123.747 1880.44 122.79C1881.44 121.833 1882.8 121.354 1884.51 121.354C1886.19 121.354 1887.54 121.833 1888.54 122.79C1889.54 123.747 1890.05 124.966 1890.05 126.447C1890.05 127.951 1889.53 129.182 1888.51 130.139C1887.51 131.096 1886.17 131.574 1884.51 131.574C1882.85 131.574 1881.5 131.096 1880.48 130.139C1879.47 129.182 1878.97 127.951 1878.97 126.447ZM1906.73 136.018L1907.03 140.29C1909.68 136.986 1913.22 135.334 1917.66 135.334C1921.58 135.334 1924.5 136.485 1926.41 138.786C1928.33 141.088 1929.31 144.528 1929.35 149.108V173H1919.47V149.348C1919.47 147.251 1919.02 145.736 1918.11 144.802C1917.2 143.845 1915.68 143.366 1913.56 143.366C1910.78 143.366 1908.7 144.551 1907.31 146.921V173H1897.43V136.018H1906.73ZM1935.44 154.235C1935.44 148.562 1936.78 143.993 1939.47 140.529C1942.18 137.066 1945.83 135.334 1950.41 135.334C1954.46 135.334 1957.62 136.724 1959.88 139.504L1960.29 136.018H1969.24V171.77C1969.24 175.005 1968.5 177.819 1967.02 180.212C1965.56 182.604 1963.5 184.427 1960.83 185.681C1958.17 186.934 1955.04 187.561 1951.47 187.561C1948.76 187.561 1946.11 187.014 1943.54 185.92C1940.96 184.849 1939.01 183.459 1937.69 181.75L1942.07 175.734C1944.53 178.492 1947.51 179.87 1951.02 179.87C1953.64 179.87 1955.68 179.164 1957.14 177.751C1958.6 176.361 1959.33 174.379 1959.33 171.804V169.821C1957.05 172.396 1954.05 173.684 1950.34 173.684C1945.9 173.684 1942.3 171.952 1939.54 168.488C1936.8 165.002 1935.44 160.388 1935.44 154.646V154.235ZM1945.31 154.953C1945.31 158.303 1945.99 160.935 1947.33 162.849C1948.68 164.74 1950.52 165.686 1952.87 165.686C1955.88 165.686 1958.03 164.558 1959.33 162.302V146.75C1958.01 144.494 1955.88 143.366 1952.94 143.366C1950.57 143.366 1948.7 144.335 1947.33 146.271C1945.99 148.208 1945.31 151.102 1945.31 154.953Z" fill="#657B83"/>
<path d="M152.697 155.466V173H142.443V123.234H161.857C165.594 123.234 168.876 123.918 171.701 125.285C174.549 126.652 176.737 128.601 178.264 131.13C179.79 133.636 180.554 136.496 180.554 139.709C180.554 144.585 178.879 148.436 175.529 151.262C172.202 154.064 167.588 155.466 161.687 155.466H152.697ZM152.697 147.16H161.857C164.569 147.16 166.631 146.522 168.044 145.246C169.479 143.97 170.197 142.147 170.197 139.777C170.197 137.339 169.479 135.368 168.044 133.864C166.608 132.36 164.626 131.586 162.097 131.54H152.697V147.16ZM207.761 145.28C206.416 145.098 205.231 145.007 204.206 145.007C200.469 145.007 198.02 146.271 196.857 148.801V173H186.979V136.018H196.311L196.584 140.427C198.566 137.032 201.312 135.334 204.821 135.334C205.915 135.334 206.94 135.482 207.897 135.778L207.761 145.28ZM209.777 154.167C209.777 150.498 210.484 147.229 211.896 144.357C213.309 141.486 215.337 139.265 217.98 137.692C220.646 136.12 223.734 135.334 227.243 135.334C232.233 135.334 236.301 136.861 239.445 139.914C242.613 142.967 244.379 147.115 244.743 152.355L244.812 154.885C244.812 160.559 243.228 165.116 240.061 168.557C236.893 171.975 232.644 173.684 227.312 173.684C221.979 173.684 217.718 171.975 214.528 168.557C211.361 165.139 209.777 160.49 209.777 154.611V154.167ZM219.655 154.885C219.655 158.394 220.316 161.083 221.638 162.951C222.959 164.797 224.851 165.72 227.312 165.72C229.704 165.72 231.573 164.808 232.917 162.985C234.261 161.14 234.934 158.2 234.934 154.167C234.934 150.726 234.261 148.06 232.917 146.169C231.573 144.278 229.681 143.332 227.243 143.332C224.828 143.332 222.959 144.278 221.638 146.169C220.316 148.037 219.655 150.943 219.655 154.885ZM284.221 154.851C284.221 160.775 282.956 165.401 280.427 168.728C277.897 172.032 274.366 173.684 269.831 173.684C265.821 173.684 262.619 172.146 260.227 169.069L259.782 173H250.896V120.5H260.773V139.333C263.052 136.667 266.049 135.334 269.763 135.334C274.274 135.334 277.806 136.997 280.358 140.324C282.933 143.628 284.221 148.288 284.221 154.304V154.851ZM274.343 154.133C274.343 150.396 273.75 147.673 272.565 145.964C271.381 144.232 269.615 143.366 267.268 143.366C264.123 143.366 261.958 144.654 260.773 147.229V161.823C261.981 164.421 264.169 165.72 267.336 165.72C270.526 165.72 272.622 164.147 273.625 161.003C274.104 159.499 274.343 157.209 274.343 154.133ZM300.764 173H290.852V120.5H300.764V173ZM325.954 173.684C320.531 173.684 316.11 172.02 312.692 168.693C309.297 165.367 307.6 160.935 307.6 155.397V154.44C307.6 150.726 308.317 147.411 309.753 144.494C311.188 141.555 313.216 139.299 315.837 137.727C318.48 136.132 321.488 135.334 324.86 135.334C329.919 135.334 333.895 136.929 336.789 140.119C339.706 143.309 341.164 147.832 341.164 153.688V157.722H317.614C317.933 160.137 318.89 162.074 320.485 163.532C322.103 164.991 324.143 165.72 326.604 165.72C330.409 165.72 333.382 164.341 335.524 161.584L340.378 167.019C338.897 169.115 336.892 170.756 334.362 171.94C331.833 173.103 329.03 173.684 325.954 173.684ZM324.826 143.332C322.867 143.332 321.271 143.993 320.041 145.314C318.833 146.636 318.059 148.527 317.717 150.988H331.457V150.202C331.411 148.015 330.819 146.328 329.68 145.144C328.54 143.936 326.923 143.332 324.826 143.332ZM356.066 136.018L356.374 140.153C358.994 136.94 362.538 135.334 367.004 135.334C371.766 135.334 375.036 137.214 376.813 140.974C379.411 137.214 383.114 135.334 387.922 135.334C391.932 135.334 394.917 136.507 396.877 138.854C398.837 141.179 399.816 144.688 399.816 149.382V173H389.904V149.416C389.904 147.32 389.494 145.793 388.674 144.836C387.854 143.856 386.407 143.366 384.333 143.366C381.371 143.366 379.32 144.779 378.181 147.604L378.215 173H368.337V149.45C368.337 147.308 367.915 145.759 367.072 144.802C366.229 143.845 364.794 143.366 362.766 143.366C359.963 143.366 357.935 144.528 356.682 146.853V173H346.804V136.018H356.066ZM451.325 159.943C451.325 158.007 450.642 156.525 449.274 155.5C447.907 154.452 445.446 153.358 441.892 152.219C438.337 151.057 435.523 149.917 433.449 148.801C427.798 145.747 424.973 141.634 424.973 136.462C424.973 133.773 425.725 131.381 427.229 129.284C428.755 127.165 430.931 125.513 433.757 124.328C436.605 123.143 439.795 122.551 443.327 122.551C446.882 122.551 450.049 123.2 452.829 124.499C455.609 125.775 457.762 127.587 459.289 129.934C460.839 132.281 461.613 134.947 461.613 137.932H451.359C451.359 135.653 450.642 133.887 449.206 132.634C447.771 131.358 445.754 130.72 443.156 130.72C440.65 130.72 438.701 131.255 437.312 132.326C435.922 133.374 435.227 134.764 435.227 136.496C435.227 138.114 436.035 139.47 437.653 140.563C439.294 141.657 441.698 142.683 444.865 143.64C450.699 145.394 454.948 147.57 457.614 150.168C460.28 152.766 461.613 156.001 461.613 159.875C461.613 164.182 459.984 167.565 456.726 170.026C453.467 172.465 449.081 173.684 443.566 173.684C439.738 173.684 436.252 172.989 433.107 171.599C429.963 170.186 427.559 168.26 425.896 165.822C424.255 163.384 423.435 160.559 423.435 157.346H433.723C433.723 162.837 437.004 165.583 443.566 165.583C446.005 165.583 447.907 165.093 449.274 164.113C450.642 163.111 451.325 161.721 451.325 159.943ZM483.317 165.72C485.14 165.72 486.621 165.218 487.761 164.216C488.9 163.213 489.493 161.88 489.538 160.217H498.801C498.778 162.723 498.094 165.025 496.75 167.121C495.406 169.195 493.56 170.812 491.213 171.975C488.889 173.114 486.314 173.684 483.488 173.684C478.202 173.684 474.032 172.009 470.979 168.659C467.925 165.287 466.398 160.638 466.398 154.714V154.064C466.398 148.368 467.914 143.822 470.944 140.427C473.975 137.032 478.133 135.334 483.42 135.334C488.046 135.334 491.748 136.656 494.528 139.299C497.331 141.919 498.755 145.417 498.801 149.792H489.538C489.493 147.878 488.9 146.328 487.761 145.144C486.621 143.936 485.118 143.332 483.249 143.332C480.948 143.332 479.204 144.175 478.02 145.861C476.857 147.525 476.276 150.236 476.276 153.996V155.021C476.276 158.827 476.857 161.561 478.02 163.225C479.182 164.888 480.948 165.72 483.317 165.72ZM502.902 154.167C502.902 150.498 503.609 147.229 505.021 144.357C506.434 141.486 508.462 139.265 511.105 137.692C513.771 136.12 516.859 135.334 520.368 135.334C525.358 135.334 529.426 136.861 532.57 139.914C535.738 142.967 537.504 147.115 537.868 152.355L537.937 154.885C537.937 160.559 536.353 165.116 533.186 168.557C530.018 171.975 525.769 173.684 520.437 173.684C515.104 173.684 510.843 171.975 507.653 168.557C504.486 165.139 502.902 160.49 502.902 154.611V154.167ZM512.78 154.885C512.78 158.394 513.441 161.083 514.763 162.951C516.084 164.797 517.976 165.72 520.437 165.72C522.829 165.72 524.698 164.808 526.042 162.985C527.386 161.14 528.059 158.2 528.059 154.167C528.059 150.726 527.386 148.06 526.042 146.169C524.698 144.278 522.806 143.332 520.368 143.332C517.953 143.332 516.084 144.278 514.763 146.169C513.441 148.037 512.78 150.943 512.78 154.885ZM577.312 154.851C577.312 160.547 576.013 165.116 573.415 168.557C570.84 171.975 567.354 173.684 562.956 173.684C559.219 173.684 556.2 172.385 553.898 169.787V187.219H544.021V136.018H553.181L553.522 139.641C555.915 136.77 559.037 135.334 562.888 135.334C567.445 135.334 570.988 137.02 573.518 140.393C576.047 143.765 577.312 148.413 577.312 154.338V154.851ZM567.434 154.133C567.434 150.692 566.818 148.037 565.588 146.169C564.38 144.3 562.614 143.366 560.29 143.366C557.191 143.366 555.061 144.551 553.898 146.921V162.062C555.106 164.501 557.259 165.72 560.358 165.72C565.075 165.72 567.434 161.857 567.434 154.133ZM593.889 173H583.977V136.018H593.889V173ZM583.396 126.447C583.396 124.966 583.885 123.747 584.865 122.79C585.868 121.833 587.224 121.354 588.933 121.354C590.619 121.354 591.963 121.833 592.966 122.79C593.968 123.747 594.47 124.966 594.47 126.447C594.47 127.951 593.957 129.182 592.932 130.139C591.929 131.096 590.596 131.574 588.933 131.574C587.269 131.574 585.925 131.096 584.899 130.139C583.897 129.182 583.396 127.951 583.396 126.447ZM611.149 136.018L611.457 140.29C614.1 136.986 617.644 135.334 622.087 135.334C626.006 135.334 628.923 136.485 630.837 138.786C632.751 141.088 633.731 144.528 633.776 149.108V173H623.898V149.348C623.898 147.251 623.443 145.736 622.531 144.802C621.62 143.845 620.104 143.366 617.985 143.366C615.205 143.366 613.12 144.551 611.73 146.921V173H601.853V136.018H611.149ZM639.86 154.235C639.86 148.562 641.205 143.993 643.894 140.529C646.605 137.066 650.251 135.334 654.831 135.334C658.887 135.334 662.043 136.724 664.299 139.504L664.709 136.018H673.664V171.77C673.664 175.005 672.924 177.819 671.442 180.212C669.984 182.604 667.922 184.427 665.256 185.681C662.59 186.934 659.468 187.561 655.891 187.561C653.179 187.561 650.536 187.014 647.961 185.92C645.386 184.849 643.438 183.459 642.116 181.75L646.491 175.734C648.952 178.492 651.937 179.87 655.446 179.87C658.067 179.87 660.106 179.164 661.564 177.751C663.023 176.361 663.752 174.379 663.752 171.804V169.821C661.473 172.396 658.477 173.684 654.763 173.684C650.319 173.684 646.719 171.952 643.962 168.488C641.228 165.002 639.86 160.388 639.86 154.646V154.235ZM649.738 154.953C649.738 158.303 650.41 160.935 651.755 162.849C653.099 164.74 654.945 165.686 657.292 165.686C660.3 165.686 662.453 164.558 663.752 162.302V146.75C662.43 144.494 660.3 143.366 657.36 143.366C654.991 143.366 653.122 144.335 651.755 146.271C650.41 148.208 649.738 151.102 649.738 154.953Z" fill="#657B83"/>
<path d="M2979.7 155.466V173H2969.44V123.234H2988.86C2992.59 123.234 2995.88 123.918 2998.7 125.285C3001.55 126.652 3003.74 128.601 3005.26 131.13C3006.79 133.636 3007.55 136.496 3007.55 139.709C3007.55 144.585 3005.88 148.436 3002.53 151.262C2999.2 154.064 2994.59 155.466 2988.69 155.466H2979.7ZM2979.7 147.16H2988.86C2991.57 147.16 2993.63 146.522 2995.04 145.246C2996.48 143.97 2997.2 142.147 2997.2 139.777C2997.2 137.339 2996.48 135.368 2995.04 133.864C2993.61 132.36 2991.63 131.586 2989.1 131.54H2979.7V147.16ZM3034.76 145.28C3033.42 145.098 3032.23 145.007 3031.21 145.007C3027.47 145.007 3025.02 146.271 3023.86 148.801V173H3013.98V136.018H3023.31L3023.58 140.427C3025.57 137.032 3028.31 135.334 3031.82 135.334C3032.92 135.334 3033.94 135.482 3034.9 135.778L3034.76 145.28ZM3036.78 154.167C3036.78 150.498 3037.48 147.229 3038.9 144.357C3040.31 141.486 3042.34 139.265 3044.98 137.692C3047.65 136.12 3050.73 135.334 3054.24 135.334C3059.23 135.334 3063.3 136.861 3066.45 139.914C3069.61 142.967 3071.38 147.115 3071.74 152.355L3071.81 154.885C3071.81 160.559 3070.23 165.116 3067.06 168.557C3063.89 171.975 3059.64 173.684 3054.31 173.684C3048.98 173.684 3044.72 171.975 3041.53 168.557C3038.36 165.139 3036.78 160.49 3036.78 154.611V154.167ZM3046.66 154.885C3046.66 158.394 3047.32 161.083 3048.64 162.951C3049.96 164.797 3051.85 165.72 3054.31 165.72C3056.7 165.72 3058.57 164.808 3059.92 162.985C3061.26 161.14 3061.93 158.2 3061.93 154.167C3061.93 150.726 3061.26 148.06 3059.92 146.169C3058.57 144.278 3056.68 143.332 3054.24 143.332C3051.83 143.332 3049.96 144.278 3048.64 146.169C3047.32 148.037 3046.66 150.943 3046.66 154.885ZM3089.72 126.926V136.018H3096.04V143.264H3089.72V161.721C3089.72 163.088 3089.98 164.068 3090.51 164.66C3091.03 165.253 3092.03 165.549 3093.52 165.549C3094.61 165.549 3095.58 165.469 3096.42 165.31V172.795C3094.48 173.387 3092.49 173.684 3090.44 173.684C3083.51 173.684 3079.98 170.186 3079.84 163.19V143.264H3074.44V136.018H3079.84V126.926H3089.72ZM3098.98 154.167C3098.98 150.498 3099.69 147.229 3101.1 144.357C3102.52 141.486 3104.54 139.265 3107.19 137.692C3109.85 136.12 3112.94 135.334 3116.45 135.334C3121.44 135.334 3125.51 136.861 3128.65 139.914C3131.82 142.967 3133.59 147.115 3133.95 152.355L3134.02 154.885C3134.02 160.559 3132.43 165.116 3129.27 168.557C3126.1 171.975 3121.85 173.684 3116.52 173.684C3111.19 173.684 3106.93 171.975 3103.74 168.557C3100.57 165.139 3098.98 160.49 3098.98 154.611V154.167ZM3108.86 154.885C3108.86 158.394 3109.52 161.083 3110.84 162.951C3112.17 164.797 3114.06 165.72 3116.52 165.72C3118.91 165.72 3120.78 164.808 3122.12 162.985C3123.47 161.14 3124.14 158.2 3124.14 154.167C3124.14 150.726 3123.47 148.06 3122.12 146.169C3120.78 144.278 3118.89 143.332 3116.45 143.332C3114.03 143.332 3112.17 144.278 3110.84 146.169C3109.52 148.037 3108.86 150.943 3108.86 154.885ZM3151.93 126.926V136.018H3158.25V143.264H3151.93V161.721C3151.93 163.088 3152.19 164.068 3152.71 164.66C3153.24 165.253 3154.24 165.549 3155.72 165.549C3156.82 165.549 3157.78 165.469 3158.63 165.31V172.795C3156.69 173.387 3154.7 173.684 3152.65 173.684C3145.72 173.684 3142.19 170.186 3142.05 163.19V143.264H3136.65V136.018H3142.05V126.926H3151.93ZM3177.56 159.021L3184.4 136.018H3195L3180.13 178.742L3179.31 180.69C3177.1 185.521 3173.45 187.937 3168.37 187.937C3166.93 187.937 3165.48 187.72 3163.99 187.287V179.802L3165.5 179.836C3167.37 179.836 3168.76 179.551 3169.67 178.981C3170.6 178.412 3171.33 177.466 3171.86 176.145L3173.02 173.103L3160.06 136.018H3170.69L3177.56 159.021ZM3232.18 154.851C3232.18 160.547 3230.88 165.116 3228.29 168.557C3225.71 171.975 3222.22 173.684 3217.83 173.684C3214.09 173.684 3211.07 172.385 3208.77 169.787V187.219H3198.89V136.018H3208.05L3208.39 139.641C3210.79 136.77 3213.91 135.334 3217.76 135.334C3222.32 135.334 3225.86 137.02 3228.39 140.393C3230.92 143.765 3232.18 148.413 3232.18 154.338V154.851ZM3222.3 154.133C3222.3 150.692 3221.69 148.037 3220.46 146.169C3219.25 144.3 3217.49 143.366 3215.16 143.366C3212.06 143.366 3209.93 144.551 3208.77 146.921V162.062C3209.98 164.501 3212.13 165.72 3215.23 165.72C3219.95 165.72 3222.3 161.857 3222.3 154.133ZM3248.76 173H3238.85V136.018H3248.76V173ZM3238.27 126.447C3238.27 124.966 3238.76 123.747 3239.74 122.79C3240.74 121.833 3242.09 121.354 3243.8 121.354C3245.49 121.354 3246.83 121.833 3247.84 122.79C3248.84 123.747 3249.34 124.966 3249.34 126.447C3249.34 127.951 3248.83 129.182 3247.8 130.139C3246.8 131.096 3245.47 131.574 3243.8 131.574C3242.14 131.574 3240.8 131.096 3239.77 130.139C3238.77 129.182 3238.27 127.951 3238.27 126.447ZM3266.02 136.018L3266.33 140.29C3268.97 136.986 3272.51 135.334 3276.96 135.334C3280.88 135.334 3283.79 136.485 3285.71 138.786C3287.62 141.088 3288.6 144.528 3288.65 149.108V173H3278.77V149.348C3278.77 147.251 3278.31 145.736 3277.4 144.802C3276.49 143.845 3274.98 143.366 3272.86 143.366C3270.08 143.366 3267.99 144.551 3266.6 146.921V173H3256.72V136.018H3266.02ZM3294.73 154.235C3294.73 148.562 3296.08 143.993 3298.76 140.529C3301.48 137.066 3305.12 135.334 3309.7 135.334C3313.76 135.334 3316.91 136.724 3319.17 139.504L3319.58 136.018H3328.54V171.77C3328.54 175.005 3327.79 177.819 3326.31 180.212C3324.86 182.604 3322.79 184.427 3320.13 185.681C3317.46 186.934 3314.34 187.561 3310.76 187.561C3308.05 187.561 3305.41 187.014 3302.83 185.92C3300.26 184.849 3298.31 183.459 3296.99 181.75L3301.36 175.734C3303.82 178.492 3306.81 179.87 3310.32 179.87C3312.94 179.87 3314.98 179.164 3316.44 177.751C3317.89 176.361 3318.62 174.379 3318.62 171.804V169.821C3316.34 172.396 3313.35 173.684 3309.63 173.684C3305.19 173.684 3301.59 171.952 3298.83 168.488C3296.1 165.002 3294.73 160.388 3294.73 154.646V154.235ZM3304.61 154.953C3304.61 158.303 3305.28 160.935 3306.63 162.849C3307.97 164.74 3309.82 165.686 3312.16 165.686C3315.17 165.686 3317.32 164.558 3318.62 162.302V146.75C3317.3 144.494 3315.17 143.366 3312.23 143.366C3309.86 143.366 3307.99 144.335 3306.63 146.271C3305.28 148.208 3304.61 151.102 3304.61 154.953Z" fill="#657B83"/>
<path d="M1598.01 423.107C1594.35 403.054 1578.07 388 1558.5 388C1542.97 388 1529.47 397.532 1522.76 411.482C1506.58 413.342 1494 428.164 1494 446.125C1494 465.364 1508.46 481 1526.25 481H1596.12C1610.96 481 1623 467.98 1623 451.938C1623 436.592 1611.98 424.154 1598.01 423.107Z" fill="#657B83"/>
<path d="M2876.34 514.195C2858.68 505.147 2846.04 486.465 2844.1 464.375H2836C2838.75 500.565 2866.56 529 2900.53 529L2904.09 528.824L2883.52 506.44L2876.34 514.195ZM2881.14 475.89C2880.12 475.89 2879.14 475.714 2878.33 475.42C2877.47 475.068 2876.77 474.656 2876.17 474.01C2875.58 473.423 2875.09 472.718 2874.77 471.836C2874.45 471.014 2874.28 470.074 2874.28 469.075H2867.26C2867.26 471.19 2867.64 473.07 2868.4 474.656C2869.15 476.243 2870.18 477.594 2871.42 478.71C2872.72 479.767 2874.18 480.59 2875.85 481.119C2877.47 481.706 2879.2 482 2881.03 482C2883.03 482 2884.92 481.706 2886.6 481.119C2888.32 480.531 2889.84 479.65 2891.08 478.534C2892.32 477.417 2893.35 476.007 2894.05 474.304C2894.75 472.6 2895.13 470.72 2895.13 468.605C2895.13 467.489 2895.02 466.372 2894.75 465.315C2894.48 464.257 2894.1 463.259 2893.51 462.319C2892.97 461.379 2892.21 460.556 2891.35 459.793C2890.43 459.029 2889.35 458.441 2888.05 457.971C2889.13 457.442 2890.05 456.796 2890.86 456.032C2891.67 455.269 2892.32 454.446 2892.86 453.565C2893.4 452.684 2893.78 451.802 2894.05 450.862C2894.32 449.922 2894.43 448.983 2894.43 448.043C2894.43 445.928 2894.1 444.048 2893.45 442.403C2892.81 440.758 2891.89 439.406 2890.7 438.349C2889.62 437.232 2888.16 436.41 2886.54 435.823C2884.87 435.294 2883.03 435 2881.03 435C2879.09 435 2877.31 435.294 2875.63 435.94C2874.01 436.586 2872.56 437.467 2871.37 438.584C2870.23 439.7 2869.32 440.992 2868.61 442.52C2867.97 444.047 2867.64 445.693 2867.64 447.514H2874.66C2874.66 446.515 2874.82 445.634 2875.15 444.87C2875.47 444.106 2875.9 443.401 2876.5 442.873C2877.09 442.344 2877.74 441.874 2878.55 441.58C2879.36 441.286 2880.17 441.11 2881.14 441.11C2883.3 441.11 2884.92 441.698 2885.95 442.931C2886.97 444.106 2887.51 445.81 2887.51 447.984C2887.51 449.041 2887.35 449.981 2887.08 450.862C2886.81 451.744 2886.33 452.449 2885.73 453.036C2885.14 453.624 2884.38 454.094 2883.52 454.446C2882.65 454.799 2881.57 454.975 2880.39 454.975H2876.23V461.026H2880.39C2881.57 461.026 2882.65 461.144 2883.63 461.438C2884.6 461.731 2885.41 462.201 2886.06 462.789C2886.7 463.435 2887.24 464.199 2887.62 465.139C2888 466.079 2888.16 467.195 2888.16 468.487C2888.16 470.896 2887.51 472.718 2886.27 473.951C2885.03 475.303 2883.3 475.89 2881.14 475.89V475.89ZM2927.31 441.11C2925.58 439.171 2923.53 437.644 2921.15 436.586C2918.83 435.529 2916.19 435 2913.27 435H2900.53V482H2912.95C2915.92 482 2918.67 481.471 2921.1 480.414C2923.53 479.356 2925.64 477.888 2927.36 475.949C2929.09 474.01 2930.44 471.66 2931.36 468.957C2932.28 466.196 2932.76 463.141 2932.76 459.734V457.384C2932.76 453.976 2932.28 450.921 2931.36 448.16C2930.39 445.399 2929.04 443.049 2927.31 441.11V441.11ZM2925.2 459.675C2925.2 462.142 2924.93 464.316 2924.45 466.314C2923.91 468.252 2923.15 469.956 2922.13 471.308C2921.1 472.659 2919.8 473.716 2918.29 474.421C2916.73 475.126 2914.94 475.479 2912.95 475.479H2908.03V441.58H2913.27C2917.16 441.58 2920.13 442.931 2922.13 445.634C2924.18 448.336 2925.2 452.214 2925.2 457.325V459.675V459.675ZM2900.53 388L2896.96 388.176L2917.54 410.56L2924.72 402.746C2942.38 411.852 2955.01 430.476 2956.9 452.566H2965C2962.3 416.435 2934.49 388 2900.53 388Z" fill="#657B83"/>
<path d="M3435.67 445.263V423.357C3435.67 415.274 3441.64 408.714 3449 408.714C3456.36 408.714 3462.33 415.274 3462.33 423.357V445.263C3468.79 440.519 3473 432.494 3473 423.357C3473 408.773 3462.28 397 3449 397C3435.72 397 3425 408.773 3425 423.357C3425 432.494 3429.21 440.519 3435.67 445.263ZM3488.15 472.381L3463.93 459.144C3463.03 458.734 3462.07 458.5 3461.05 458.5H3457V423.357C3457 418.496 3453.43 414.571 3449 414.571C3444.57 414.571 3441 418.496 3441 423.357V486.263L3422.71 482.046C3422.28 481.987 3421.91 481.87 3421.43 481.87C3419.77 481.87 3418.28 482.631 3417.21 483.803L3413 488.489L3439.35 517.423C3440.79 519.004 3442.81 520 3445 520H3481.21C3485.21 520 3488.31 516.779 3488.89 512.503L3492.89 481.636C3492.95 481.226 3493 480.816 3493 480.464C3493 476.833 3490.97 473.67 3488.15 472.381V472.381Z" fill="#657B83"/>
<path d="M577.15 611.453V635.623C577.134 638.976 576.076 641.718 573.977 643.851C571.893 645.983 569.061 647.179 565.48 647.439L564.235 647.488C560.345 647.488 557.245 646.438 554.934 644.339C552.622 642.239 551.451 639.35 551.418 635.672V611.453H556.057V635.525C556.057 638.097 556.765 640.099 558.181 641.531C559.597 642.947 561.615 643.655 564.235 643.655C566.888 643.655 568.915 642.947 570.314 641.531C571.73 640.115 572.438 638.121 572.438 635.55V611.453H577.15ZM599.221 639.993C599.221 638.772 598.757 637.828 597.829 637.161C596.918 636.478 595.314 635.892 593.02 635.403C590.741 634.915 588.926 634.329 587.575 633.646C586.241 632.962 585.248 632.148 584.597 631.204C583.962 630.26 583.645 629.137 583.645 627.835C583.645 625.67 584.556 623.839 586.379 622.342C588.218 620.844 590.562 620.096 593.41 620.096C596.405 620.096 598.83 620.869 600.686 622.415C602.557 623.961 603.493 625.939 603.493 628.348H598.952C598.952 627.111 598.423 626.045 597.365 625.149C596.324 624.254 595.005 623.807 593.41 623.807C591.766 623.807 590.48 624.165 589.553 624.881C588.625 625.597 588.161 626.533 588.161 627.688C588.161 628.779 588.592 629.601 589.455 630.154C590.318 630.708 591.872 631.237 594.118 631.741C596.381 632.246 598.212 632.848 599.611 633.548C601.011 634.248 602.045 635.094 602.712 636.087C603.396 637.063 603.737 638.26 603.737 639.676C603.737 642.036 602.793 643.932 600.905 645.364C599.017 646.78 596.568 647.488 593.557 647.488C591.441 647.488 589.569 647.114 587.941 646.365C586.314 645.617 585.036 644.575 584.108 643.24C583.197 641.889 582.741 640.433 582.741 638.87H587.258C587.339 640.384 587.941 641.588 589.064 642.483C590.204 643.362 591.701 643.802 593.557 643.802C595.266 643.802 596.633 643.46 597.658 642.776C598.7 642.076 599.221 641.149 599.221 639.993ZM620.583 647.488C617.002 647.488 614.089 646.316 611.843 643.973C609.597 641.613 608.474 638.463 608.474 634.524V633.694C608.474 631.074 608.97 628.738 609.963 626.688C610.972 624.62 612.372 623.009 614.162 621.854C615.969 620.682 617.922 620.096 620.021 620.096C623.456 620.096 626.125 621.227 628.029 623.489C629.934 625.752 630.886 628.991 630.886 633.206V635.086H612.99C613.055 637.69 613.812 639.798 615.261 641.409C616.726 643.004 618.581 643.802 620.827 643.802C622.422 643.802 623.773 643.476 624.88 642.825C625.987 642.174 626.955 641.312 627.785 640.237L630.544 642.386C628.33 645.787 625.01 647.488 620.583 647.488ZM620.021 623.807C618.199 623.807 616.669 624.474 615.432 625.809C614.195 627.127 613.43 628.982 613.137 631.375H626.369V631.033C626.239 628.738 625.62 626.964 624.514 625.711C623.407 624.441 621.91 623.807 620.021 623.807ZM648.903 624.637C648.22 624.523 647.479 624.466 646.682 624.466C643.719 624.466 641.709 625.727 640.651 628.25V647H636.135V620.584H640.529L640.603 623.636C642.084 621.276 644.183 620.096 646.901 620.096C647.78 620.096 648.448 620.21 648.903 620.438V624.637ZM670.876 633.084V647H666.188V611.453H679.299C683.189 611.453 686.232 612.446 688.43 614.432C690.643 616.417 691.75 619.046 691.75 622.317C691.75 625.768 690.668 628.429 688.503 630.301C686.354 632.156 683.27 633.084 679.25 633.084H670.876ZM670.876 629.251H679.299C681.805 629.251 683.726 628.665 685.061 627.493C686.395 626.305 687.062 624.596 687.062 622.366C687.062 620.25 686.395 618.558 685.061 617.288C683.726 616.019 681.895 615.359 679.567 615.311H670.876V629.251ZM707.644 647.488C704.063 647.488 701.149 646.316 698.903 643.973C696.657 641.613 695.534 638.463 695.534 634.524V633.694C695.534 631.074 696.031 628.738 697.023 626.688C698.033 624.62 699.432 623.009 701.223 621.854C703.029 620.682 704.982 620.096 707.082 620.096C710.516 620.096 713.186 621.227 715.09 623.489C716.994 625.752 717.946 628.991 717.946 633.206V635.086H700.051C700.116 637.69 700.873 639.798 702.321 641.409C703.786 643.004 705.642 643.802 707.888 643.802C709.483 643.802 710.834 643.476 711.94 642.825C713.047 642.174 714.016 641.312 714.846 640.237L717.604 642.386C715.391 645.787 712.071 647.488 707.644 647.488ZM707.082 623.807C705.259 623.807 703.729 624.474 702.492 625.809C701.255 627.127 700.49 628.982 700.197 631.375H713.43V631.033C713.299 628.738 712.681 626.964 711.574 625.711C710.467 624.441 708.97 623.807 707.082 623.807ZM735.964 624.637C735.28 624.523 734.54 624.466 733.742 624.466C730.78 624.466 728.77 625.727 727.712 628.25V647H723.195V620.584H727.59L727.663 623.636C729.144 621.276 731.244 620.096 733.962 620.096C734.841 620.096 735.508 620.21 735.964 620.438V624.637ZM755.52 639.993C755.52 638.772 755.056 637.828 754.128 637.161C753.216 636.478 751.613 635.892 749.318 635.403C747.04 634.915 745.225 634.329 743.874 633.646C742.539 632.962 741.547 632.148 740.896 631.204C740.261 630.26 739.943 629.137 739.943 627.835C739.943 625.67 740.855 623.839 742.678 622.342C744.517 620.844 746.861 620.096 749.709 620.096C752.704 620.096 755.129 620.869 756.984 622.415C758.856 623.961 759.792 625.939 759.792 628.348H755.251C755.251 627.111 754.722 626.045 753.664 625.149C752.622 624.254 751.304 623.807 749.709 623.807C748.065 623.807 746.779 624.165 745.852 624.881C744.924 625.597 744.46 626.533 744.46 627.688C744.46 628.779 744.891 629.601 745.754 630.154C746.617 630.708 748.171 631.237 750.417 631.741C752.679 632.246 754.51 632.848 755.91 633.548C757.31 634.248 758.343 635.094 759.011 636.087C759.694 637.063 760.036 638.26 760.036 639.676C760.036 642.036 759.092 643.932 757.204 645.364C755.316 646.78 752.867 647.488 749.855 647.488C747.74 647.488 745.868 647.114 744.24 646.365C742.613 645.617 741.335 644.575 740.407 643.24C739.496 641.889 739.04 640.433 739.04 638.87H743.557C743.638 640.384 744.24 641.588 745.363 642.483C746.503 643.362 748 643.802 749.855 643.802C751.564 643.802 752.932 643.46 753.957 642.776C754.999 642.076 755.52 641.149 755.52 639.993ZM764.724 633.548C764.724 630.96 765.228 628.632 766.237 626.565C767.263 624.498 768.679 622.903 770.485 621.78C772.308 620.657 774.383 620.096 776.711 620.096C780.308 620.096 783.213 621.341 785.427 623.831C787.657 626.321 788.771 629.633 788.771 633.768V634.085C788.771 636.657 788.275 638.968 787.282 641.019C786.306 643.053 784.898 644.64 783.059 645.779C781.236 646.919 779.136 647.488 776.76 647.488C773.179 647.488 770.274 646.243 768.044 643.753C765.83 641.263 764.724 637.967 764.724 633.865V633.548ZM769.265 634.085C769.265 637.015 769.94 639.367 771.291 641.141C772.658 642.915 774.481 643.802 776.76 643.802C779.055 643.802 780.878 642.907 782.229 641.116C783.579 639.31 784.255 636.787 784.255 633.548C784.255 630.651 783.563 628.307 782.18 626.517C780.812 624.71 778.99 623.807 776.711 623.807C774.481 623.807 772.683 624.694 771.315 626.468C769.948 628.242 769.265 630.781 769.265 634.085ZM798.708 620.584L798.854 623.904C800.873 621.365 803.509 620.096 806.765 620.096C812.347 620.096 815.163 623.245 815.212 629.544V647H810.695V629.52C810.679 627.615 810.24 626.207 809.377 625.296C808.531 624.384 807.204 623.929 805.397 623.929C803.933 623.929 802.647 624.319 801.54 625.101C800.433 625.882 799.571 626.907 798.952 628.177V647H794.436V620.584H798.708ZM838.332 647C838.072 646.479 837.86 645.551 837.697 644.217C835.598 646.398 833.091 647.488 830.178 647.488C827.574 647.488 825.433 646.756 823.757 645.291C822.097 643.81 821.267 641.938 821.267 639.676C821.267 636.925 822.308 634.793 824.392 633.279C826.491 631.749 829.437 630.984 833.229 630.984H837.624V628.909C837.624 627.33 837.152 626.077 836.208 625.149C835.264 624.205 833.872 623.733 832.033 623.733C830.422 623.733 829.071 624.14 827.98 624.954C826.89 625.768 826.345 626.753 826.345 627.908H821.804C821.804 626.59 822.268 625.32 823.195 624.1C824.139 622.863 825.409 621.886 827.004 621.17C828.615 620.454 830.381 620.096 832.302 620.096C835.345 620.096 837.73 620.861 839.455 622.391C841.18 623.904 842.076 625.996 842.141 628.665V640.823C842.141 643.248 842.45 645.177 843.068 646.609V647H838.332ZM830.837 643.558C832.253 643.558 833.596 643.191 834.865 642.459C836.135 641.727 837.054 640.774 837.624 639.603V634.183H834.084C828.55 634.183 825.783 635.802 825.783 639.041C825.783 640.457 826.255 641.564 827.199 642.361C828.143 643.159 829.356 643.558 830.837 643.558Z" fill="black"/>
<path d="M756.333 411.4C742.413 415.495 726.093 417.25 711 417.25C695.907 417.25 679.587 415.495 665.667 411.4L663 423.1C672.92 426.025 684.333 427.955 695 428.95V505H705.667V469.9H716.333V505H727V428.95C737.667 427.955 749.08 426.025 759 423.1L756.333 411.4ZM711 411.4C716.867 411.4 721.667 406.135 721.667 399.7C721.667 393.265 716.867 388 711 388C705.133 388 700.333 393.265 700.333 399.7C700.333 406.135 705.133 411.4 711 411.4Z" fill="#657B83"/>
<path d="M66.1553 647H61.4678V611.453H66.1553V647ZM78.3135 620.584L78.46 623.904C80.4782 621.365 83.1149 620.096 86.3701 620.096C91.9528 620.096 94.7686 623.245 94.8174 629.544V647H90.3008V629.52C90.2845 627.615 89.8451 626.207 88.9824 625.296C88.1361 624.384 86.8096 623.929 85.0029 623.929C83.5381 623.929 82.2523 624.319 81.1455 625.101C80.0387 625.882 79.1761 626.907 78.5576 628.177V647H74.041V620.584H78.3135ZM107.757 614.188V620.584H112.688V624.075H107.757V640.457C107.757 641.515 107.977 642.312 108.416 642.85C108.855 643.37 109.604 643.631 110.662 643.631C111.183 643.631 111.899 643.533 112.811 643.338V647C111.622 647.326 110.467 647.488 109.344 647.488C107.326 647.488 105.804 646.878 104.778 645.657C103.753 644.437 103.24 642.703 103.24 640.457V624.075H98.4307V620.584H103.24V614.188H107.757ZM128.948 647.488C125.368 647.488 122.454 646.316 120.208 643.973C117.962 641.613 116.839 638.463 116.839 634.524V633.694C116.839 631.074 117.335 628.738 118.328 626.688C119.337 624.62 120.737 623.009 122.527 621.854C124.334 620.682 126.287 620.096 128.387 620.096C131.821 620.096 134.49 621.227 136.395 623.489C138.299 625.752 139.251 628.991 139.251 633.206V635.086H121.355C121.421 637.69 122.177 639.798 123.626 641.409C125.091 643.004 126.946 643.802 129.192 643.802C130.787 643.802 132.138 643.476 133.245 642.825C134.352 642.174 135.32 641.312 136.15 640.237L138.909 642.386C136.696 645.787 133.375 647.488 128.948 647.488ZM128.387 623.807C126.564 623.807 125.034 624.474 123.797 625.809C122.56 627.127 121.795 628.982 121.502 631.375H134.734V631.033C134.604 628.738 133.986 626.964 132.879 625.711C131.772 624.441 130.275 623.807 128.387 623.807ZM157.269 624.637C156.585 624.523 155.844 624.466 155.047 624.466C152.085 624.466 150.075 625.727 149.017 628.25V647H144.5V620.584H148.895L148.968 623.636C150.449 621.276 152.549 620.096 155.267 620.096C156.146 620.096 156.813 620.21 157.269 620.438V624.637ZM170.599 640.872L177.142 620.584H181.756L172.283 647H168.841L159.271 620.584H163.885L170.599 640.872ZM191.009 647H186.492V620.584H191.009V647ZM186.126 613.577C186.126 612.845 186.346 612.226 186.785 611.722C187.241 611.217 187.908 610.965 188.787 610.965C189.666 610.965 190.333 611.217 190.789 611.722C191.245 612.226 191.473 612.845 191.473 613.577C191.473 614.31 191.245 614.92 190.789 615.408C190.333 615.896 189.666 616.141 188.787 616.141C187.908 616.141 187.241 615.896 186.785 615.408C186.346 614.92 186.126 614.31 186.126 613.577ZM209.222 647.488C205.641 647.488 202.728 646.316 200.481 643.973C198.235 641.613 197.112 638.463 197.112 634.524V633.694C197.112 631.074 197.609 628.738 198.602 626.688C199.611 624.62 201.01 623.009 202.801 621.854C204.607 620.682 206.561 620.096 208.66 620.096C212.094 620.096 214.764 621.227 216.668 623.489C218.572 625.752 219.524 628.991 219.524 633.206V635.086H201.629C201.694 637.69 202.451 639.798 203.899 641.409C205.364 643.004 207.22 643.802 209.466 643.802C211.061 643.802 212.412 643.476 213.519 642.825C214.625 642.174 215.594 641.312 216.424 640.237L219.183 642.386C216.969 645.787 213.649 647.488 209.222 647.488ZM208.66 623.807C206.837 623.807 205.307 624.474 204.07 625.809C202.833 627.127 202.068 628.982 201.775 631.375H215.008V631.033C214.878 628.738 214.259 626.964 213.152 625.711C212.046 624.441 210.548 623.807 208.66 623.807ZM248.162 640.774L253.24 620.584H257.757L250.066 647H246.404L239.983 626.98L233.733 647H230.071L222.405 620.584H226.897L232.098 640.359L238.25 620.584H241.888L248.162 640.774ZM277.752 639.993C277.752 638.772 277.288 637.828 276.36 637.161C275.449 636.478 273.846 635.892 271.551 635.403C269.272 634.915 267.457 634.329 266.106 633.646C264.772 632.962 263.779 632.148 263.128 631.204C262.493 630.26 262.176 629.137 262.176 627.835C262.176 625.67 263.087 623.839 264.91 622.342C266.749 620.844 269.093 620.096 271.941 620.096C274.936 620.096 277.361 620.869 279.217 622.415C281.089 623.961 282.024 625.939 282.024 628.348H277.483C277.483 627.111 276.954 626.045 275.896 625.149C274.855 624.254 273.536 623.807 271.941 623.807C270.298 623.807 269.012 624.165 268.084 624.881C267.156 625.597 266.692 626.533 266.692 627.688C266.692 628.779 267.124 629.601 267.986 630.154C268.849 630.708 270.403 631.237 272.649 631.741C274.912 632.246 276.743 632.848 278.143 633.548C279.542 634.248 280.576 635.094 281.243 636.087C281.927 637.063 282.269 638.26 282.269 639.676C282.269 642.036 281.325 643.932 279.437 645.364C277.549 646.78 275.099 647.488 272.088 647.488C269.972 647.488 268.1 647.114 266.473 646.365C264.845 645.617 263.567 644.575 262.64 643.24C261.728 641.889 261.272 640.433 261.272 638.87H265.789C265.87 640.384 266.473 641.588 267.596 642.483C268.735 643.362 270.232 643.802 272.088 643.802C273.797 643.802 275.164 643.46 276.189 642.776C277.231 642.076 277.752 641.149 277.752 639.993Z" fill="black"/>
<path d="M209.333 388H134.667C128.8 388 124 393.3 124 399.778V482.222C124 488.7 128.8 494 134.667 494H209.333C215.2 494 220 488.7 220 482.222V399.778C220 393.3 215.2 388 209.333 388ZM156 470.444H145.333V429.222H156V470.444ZM177.333 470.444H166.667V411.556H177.333V470.444ZM198.667 470.444H188V446.889H198.667V470.444Z" fill="#657B83"/>
<path d="M1414.84 976.167H1431.68V980H1410.13V944.453H1414.84V976.167ZM1456.63 964.302H1441.72V980H1437.03V944.453H1459.05V948.311H1441.72V960.469H1456.63V964.302ZM1484.74 968.794L1485.42 973.481L1486.42 969.258L1493.45 944.453H1497.41L1504.27 969.258L1505.24 973.555L1506 968.77L1511.52 944.453H1516.23L1507.61 980H1503.34L1496.01 954.097L1495.45 951.387L1494.89 954.097L1487.3 980H1483.03L1474.43 944.453H1479.12L1484.74 968.794ZM1525.65 980H1521.14V953.584H1525.65V980ZM1520.77 946.577C1520.77 945.845 1520.99 945.226 1521.43 944.722C1521.89 944.217 1522.55 943.965 1523.43 943.965C1524.31 943.965 1524.98 944.217 1525.43 944.722C1525.89 945.226 1526.12 945.845 1526.12 946.577C1526.12 947.31 1525.89 947.92 1525.43 948.408C1524.98 948.896 1524.31 949.141 1523.43 949.141C1522.55 949.141 1521.89 948.896 1521.43 948.408C1520.99 947.92 1520.77 947.31 1520.77 946.577ZM1545.67 957.637C1544.99 957.523 1544.25 957.466 1543.45 957.466C1540.49 957.466 1538.48 958.727 1537.42 961.25V980H1532.9V953.584H1537.3L1537.37 956.636C1538.85 954.276 1540.95 953.096 1543.67 953.096C1544.55 953.096 1545.22 953.21 1545.67 953.438V957.637ZM1560.32 980.488C1556.74 980.488 1553.83 979.316 1551.58 976.973C1549.33 974.613 1548.21 971.463 1548.21 967.524V966.694C1548.21 964.074 1548.71 961.738 1549.7 959.688C1550.71 957.62 1552.11 956.009 1553.9 954.854C1555.71 953.682 1557.66 953.096 1559.76 953.096C1563.19 953.096 1565.86 954.227 1567.77 956.489C1569.67 958.752 1570.62 961.991 1570.62 966.206V968.086H1552.73C1552.79 970.69 1553.55 972.798 1555 974.409C1556.46 976.004 1558.32 976.802 1560.57 976.802C1562.16 976.802 1563.51 976.476 1564.62 975.825C1565.72 975.174 1566.69 974.312 1567.52 973.237L1570.28 975.386C1568.07 978.787 1564.75 980.488 1560.32 980.488ZM1559.76 956.807C1557.94 956.807 1556.41 957.474 1555.17 958.809C1553.93 960.127 1553.17 961.982 1552.88 964.375H1566.11V964.033C1565.98 961.738 1565.36 959.964 1564.25 958.711C1563.15 957.441 1561.65 956.807 1559.76 956.807ZM1578.09 980V957.075H1573.92V953.584H1578.09V950.874C1578.09 948.042 1578.85 945.853 1580.37 944.307C1581.88 942.76 1584.02 941.987 1586.79 941.987C1587.83 941.987 1588.86 942.126 1589.89 942.402L1589.64 946.064C1588.88 945.918 1588.06 945.845 1587.2 945.845C1585.74 945.845 1584.61 946.276 1583.81 947.139C1583.01 947.985 1582.61 949.206 1582.61 950.801V953.584H1588.25V957.075H1582.61V980H1578.09ZM1606.02 957.637C1605.34 957.523 1604.6 957.466 1603.8 957.466C1600.84 957.466 1598.83 958.727 1597.77 961.25V980H1593.26V953.584H1597.65L1597.72 956.636C1599.2 954.276 1601.3 953.096 1604.02 953.096C1604.9 953.096 1605.57 953.21 1606.02 953.438V957.637ZM1625.53 980C1625.27 979.479 1625.06 978.551 1624.9 977.217C1622.8 979.398 1620.29 980.488 1617.38 980.488C1614.77 980.488 1612.63 979.756 1610.96 978.291C1609.3 976.81 1608.47 974.938 1608.47 972.676C1608.47 969.925 1609.51 967.793 1611.59 966.279C1613.69 964.749 1616.64 963.984 1620.43 963.984H1624.82V961.909C1624.82 960.33 1624.35 959.077 1623.41 958.149C1622.46 957.205 1621.07 956.733 1619.23 956.733C1617.62 956.733 1616.27 957.14 1615.18 957.954C1614.09 958.768 1613.54 959.753 1613.54 960.908H1609C1609 959.59 1609.47 958.32 1610.39 957.1C1611.34 955.863 1612.61 954.886 1614.2 954.17C1615.81 953.454 1617.58 953.096 1619.5 953.096C1622.54 953.096 1624.93 953.861 1626.65 955.391C1628.38 956.904 1629.27 958.996 1629.34 961.665V973.823C1629.34 976.248 1629.65 978.177 1630.27 979.609V980H1625.53ZM1618.04 976.558C1619.45 976.558 1620.79 976.191 1622.06 975.459C1623.33 974.727 1624.25 973.774 1624.82 972.603V967.183H1621.28C1615.75 967.183 1612.98 968.802 1612.98 972.041C1612.98 973.457 1613.45 974.564 1614.4 975.361C1615.34 976.159 1616.56 976.558 1618.04 976.558ZM1640.67 953.584L1640.79 956.514C1642.73 954.235 1645.34 953.096 1648.63 953.096C1652.32 953.096 1654.84 954.512 1656.17 957.344C1657.05 956.074 1658.19 955.049 1659.59 954.268C1661 953.486 1662.67 953.096 1664.59 953.096C1670.39 953.096 1673.33 956.164 1673.43 962.3V980H1668.92V962.568C1668.92 960.68 1668.48 959.272 1667.62 958.345C1666.76 957.401 1665.31 956.929 1663.28 956.929C1661.6 956.929 1660.21 957.433 1659.1 958.442C1657.99 959.435 1657.35 960.778 1657.17 962.471V980H1652.63V962.69C1652.63 958.849 1650.75 956.929 1646.99 956.929C1644.03 956.929 1642 958.19 1640.91 960.713V980H1636.4V953.584H1640.67ZM1685.17 980H1680.66V953.584H1685.17V980ZM1680.29 946.577C1680.29 945.845 1680.51 945.226 1680.95 944.722C1681.41 944.217 1682.07 943.965 1682.95 943.965C1683.83 943.965 1684.5 944.217 1684.96 944.722C1685.41 945.226 1685.64 945.845 1685.64 946.577C1685.64 947.31 1685.41 947.92 1684.96 948.408C1684.5 948.896 1683.83 949.141 1682.95 949.141C1682.07 949.141 1681.41 948.896 1680.95 948.408C1680.51 947.92 1680.29 947.31 1680.29 946.577ZM1696.7 953.584L1696.84 956.904C1698.86 954.365 1701.5 953.096 1704.75 953.096C1710.34 953.096 1713.15 956.245 1713.2 962.544V980H1708.69V962.52C1708.67 960.615 1708.23 959.207 1707.37 958.296C1706.52 957.384 1705.19 956.929 1703.39 956.929C1701.92 956.929 1700.64 957.319 1699.53 958.101C1698.42 958.882 1697.56 959.907 1696.94 961.177V980H1692.43V953.584H1696.7ZM1718.94 966.572C1718.94 962.454 1719.89 959.183 1721.8 956.758C1723.7 954.316 1726.22 953.096 1729.36 953.096C1732.59 953.096 1735.1 954.235 1736.91 956.514L1737.13 953.584H1741.25V979.365C1741.25 982.783 1740.24 985.477 1738.2 987.446C1736.18 989.416 1733.47 990.4 1730.05 990.4C1728.14 990.4 1726.28 989.993 1724.46 989.18C1722.63 988.366 1721.24 987.251 1720.28 985.835L1722.63 983.125C1724.56 985.518 1726.93 986.714 1729.73 986.714C1731.93 986.714 1733.64 986.095 1734.86 984.858C1736.09 983.621 1736.71 981.88 1736.71 979.634V977.363C1734.91 979.447 1732.44 980.488 1729.32 980.488C1726.22 980.488 1723.72 979.243 1721.8 976.753C1719.89 974.263 1718.94 970.869 1718.94 966.572ZM1723.48 967.085C1723.48 970.063 1724.09 972.407 1725.31 974.116C1726.53 975.809 1728.24 976.655 1730.44 976.655C1733.29 976.655 1735.38 975.361 1736.71 972.773V960.713C1735.33 958.19 1733.25 956.929 1730.49 956.929C1728.29 956.929 1726.57 957.783 1725.34 959.492C1724.1 961.201 1723.48 963.732 1723.48 967.085Z" fill="black"/>
<path d="M1545.59 861H1609.41L1577.5 825.632L1545.59 861ZM1625.36 749H1529.64C1523.79 749 1519 754.305 1519 760.789V831.526C1519 838.011 1523.79 843.316 1529.64 843.316H1550.91V831.526H1529.64V760.789H1625.36V831.526H1604.09V843.316H1625.36C1631.21 843.316 1636 838.011 1636 831.526V760.789C1636 754.305 1631.21 749 1625.36 749Z" fill="#657B83"/>
<path d="M2034.15 938.453V962.623C2034.13 965.976 2033.08 968.718 2030.98 970.851C2028.89 972.983 2026.06 974.179 2022.48 974.439L2021.24 974.488C2017.35 974.488 2014.24 973.438 2011.93 971.339C2009.62 969.239 2008.45 966.35 2008.42 962.672V938.453H2013.06V962.525C2013.06 965.097 2013.76 967.099 2015.18 968.531C2016.6 969.947 2018.61 970.655 2021.24 970.655C2023.89 970.655 2025.91 969.947 2027.31 968.531C2028.73 967.115 2029.44 965.121 2029.44 962.55V938.453H2034.15ZM2056.22 966.993C2056.22 965.772 2055.76 964.828 2054.83 964.161C2053.92 963.478 2052.31 962.892 2050.02 962.403C2047.74 961.915 2045.93 961.329 2044.58 960.646C2043.24 959.962 2042.25 959.148 2041.6 958.204C2040.96 957.26 2040.64 956.137 2040.64 954.835C2040.64 952.67 2041.56 950.839 2043.38 949.342C2045.22 947.844 2047.56 947.096 2050.41 947.096C2053.4 947.096 2055.83 947.869 2057.69 949.415C2059.56 950.961 2060.49 952.939 2060.49 955.348H2055.95C2055.95 954.111 2055.42 953.045 2054.37 952.149C2053.32 951.254 2052.01 950.807 2050.41 950.807C2048.77 950.807 2047.48 951.165 2046.55 951.881C2045.62 952.597 2045.16 953.533 2045.16 954.688C2045.16 955.779 2045.59 956.601 2046.46 957.154C2047.32 957.708 2048.87 958.237 2051.12 958.741C2053.38 959.246 2055.21 959.848 2056.61 960.548C2058.01 961.248 2059.04 962.094 2059.71 963.087C2060.4 964.063 2060.74 965.26 2060.74 966.676C2060.74 969.036 2059.79 970.932 2057.91 972.364C2056.02 973.78 2053.57 974.488 2050.56 974.488C2048.44 974.488 2046.57 974.114 2044.94 973.365C2043.31 972.617 2042.04 971.575 2041.11 970.24C2040.2 968.889 2039.74 967.433 2039.74 965.87H2044.26C2044.34 967.384 2044.94 968.588 2046.06 969.483C2047.2 970.362 2048.7 970.802 2050.56 970.802C2052.27 970.802 2053.63 970.46 2054.66 969.776C2055.7 969.076 2056.22 968.149 2056.22 966.993ZM2077.58 974.488C2074 974.488 2071.09 973.316 2068.84 970.973C2066.6 968.613 2065.47 965.463 2065.47 961.524V960.694C2065.47 958.074 2065.97 955.738 2066.96 953.688C2067.97 951.62 2069.37 950.009 2071.16 948.854C2072.97 947.682 2074.92 947.096 2077.02 947.096C2080.46 947.096 2083.12 948.227 2085.03 950.489C2086.93 952.752 2087.89 955.991 2087.89 960.206V962.086H2069.99C2070.06 964.69 2070.81 966.798 2072.26 968.409C2073.73 970.004 2075.58 970.802 2077.83 970.802C2079.42 970.802 2080.77 970.476 2081.88 969.825C2082.99 969.174 2083.96 968.312 2084.79 967.237L2087.54 969.386C2085.33 972.787 2082.01 974.488 2077.58 974.488ZM2077.02 950.807C2075.2 950.807 2073.67 951.474 2072.43 952.809C2071.19 954.127 2070.43 955.982 2070.14 958.375H2083.37V958.033C2083.24 955.738 2082.62 953.964 2081.51 952.711C2080.41 951.441 2078.91 950.807 2077.02 950.807ZM2105.9 951.637C2105.22 951.523 2104.48 951.466 2103.68 951.466C2100.72 951.466 2098.71 952.727 2097.65 955.25V974H2093.13V947.584H2097.53L2097.6 950.636C2099.08 948.276 2101.18 947.096 2103.9 947.096C2104.78 947.096 2105.45 947.21 2105.9 947.438V951.637ZM2138.98 940.333C2136.97 940.007 2135.34 939.845 2134.1 939.845C2130.85 939.845 2129.22 941.554 2129.22 944.972V947.584H2134.86V951.075H2129.22V974H2124.7V951.075H2120.53V947.584H2124.7V944.703C2124.72 941.887 2125.51 939.731 2127.07 938.233C2128.63 936.736 2130.85 935.987 2133.74 935.987C2135.38 935.987 2138.63 936.484 2143.5 937.477V974H2138.98V940.333ZM2149.7 960.548C2149.7 957.96 2150.21 955.632 2151.22 953.565C2152.24 951.498 2153.66 949.903 2155.46 948.78C2157.29 947.657 2159.36 947.096 2161.69 947.096C2165.29 947.096 2168.19 948.341 2170.41 950.831C2172.64 953.321 2173.75 956.633 2173.75 960.768V961.085C2173.75 963.657 2173.25 965.968 2172.26 968.019C2171.28 970.053 2169.88 971.64 2168.04 972.779C2166.21 973.919 2164.11 974.488 2161.74 974.488C2158.16 974.488 2155.25 973.243 2153.02 970.753C2150.81 968.263 2149.7 964.967 2149.7 960.865V960.548ZM2154.24 961.085C2154.24 964.015 2154.92 966.367 2156.27 968.141C2157.64 969.915 2159.46 970.802 2161.74 970.802C2164.03 970.802 2165.86 969.907 2167.21 968.116C2168.56 966.31 2169.23 963.787 2169.23 960.548C2169.23 957.651 2168.54 955.307 2167.16 953.517C2165.79 951.71 2163.97 950.807 2161.69 950.807C2159.46 950.807 2157.66 951.694 2156.29 953.468C2154.93 955.242 2154.24 957.781 2154.24 961.085ZM2202.8 967.774L2207.88 947.584H2212.4L2204.71 974H2201.04L2194.62 953.98L2188.37 974H2184.71L2177.05 947.584H2181.54L2186.74 967.359L2192.89 947.584H2196.53L2202.8 967.774Z" fill="black"/>
<path d="M2126.8 784.625H2063V796.375H2126.8V814L2148 790.5L2126.8 767V784.625Z" fill="#657B83"/>
<path d="M1906.81 627.084V641H1902.13V605.453H1915.24C1919.13 605.453 1922.17 606.446 1924.37 608.432C1926.58 610.417 1927.69 613.046 1927.69 616.317C1927.69 619.768 1926.61 622.429 1924.44 624.301C1922.29 626.156 1919.21 627.084 1915.19 627.084H1906.81ZM1906.81 623.251H1915.24C1917.74 623.251 1919.66 622.665 1921 621.493C1922.33 620.305 1923 618.596 1923 616.366C1923 614.25 1922.33 612.558 1921 611.288C1919.66 610.019 1917.83 609.359 1915.5 609.311H1906.81V623.251ZM1948.98 641C1948.72 640.479 1948.5 639.551 1948.34 638.217C1946.24 640.398 1943.74 641.488 1940.82 641.488C1938.22 641.488 1936.08 640.756 1934.4 639.291C1932.74 637.81 1931.91 635.938 1931.91 633.676C1931.91 630.925 1932.95 628.793 1935.04 627.279C1937.14 625.749 1940.08 624.984 1943.87 624.984H1948.27V622.909C1948.27 621.33 1947.8 620.077 1946.85 619.149C1945.91 618.205 1944.52 617.733 1942.68 617.733C1941.07 617.733 1939.72 618.14 1938.62 618.954C1937.53 619.768 1936.99 620.753 1936.99 621.908H1932.45C1932.45 620.59 1932.91 619.32 1933.84 618.1C1934.78 616.863 1936.05 615.886 1937.65 615.17C1939.26 614.454 1941.03 614.096 1942.95 614.096C1945.99 614.096 1948.37 614.861 1950.1 616.391C1951.82 617.904 1952.72 619.996 1952.79 622.665V634.823C1952.79 637.248 1953.09 639.177 1953.71 640.609V641H1948.98ZM1941.48 637.558C1942.9 637.558 1944.24 637.191 1945.51 636.459C1946.78 635.727 1947.7 634.774 1948.27 633.603V628.183H1944.73C1939.19 628.183 1936.43 629.802 1936.43 633.041C1936.43 634.457 1936.9 635.564 1937.84 636.361C1938.79 637.159 1940 637.558 1941.48 637.558ZM1982.18 628.085C1982.18 632.105 1981.26 635.344 1979.42 637.802C1977.58 640.259 1975.09 641.488 1971.95 641.488C1968.74 641.488 1966.22 640.471 1964.38 638.437V651.156H1959.87V614.584H1963.99L1964.21 617.514C1966.05 615.235 1968.61 614.096 1971.88 614.096C1975.05 614.096 1977.56 615.292 1979.4 617.685C1981.25 620.077 1982.18 623.406 1982.18 627.67V628.085ZM1977.66 627.572C1977.66 624.594 1977.03 622.242 1975.76 620.517C1974.49 618.791 1972.75 617.929 1970.53 617.929C1967.8 617.929 1965.75 619.141 1964.38 621.566V634.188C1965.73 636.597 1967.8 637.802 1970.58 637.802C1972.75 637.802 1974.46 636.947 1975.73 635.238C1977.02 633.513 1977.66 630.958 1977.66 627.572ZM1998.9 641.488C1995.32 641.488 1992.41 640.316 1990.16 637.973C1987.92 635.613 1986.79 632.463 1986.79 628.524V627.694C1986.79 625.074 1987.29 622.738 1988.28 620.688C1989.29 618.62 1990.69 617.009 1992.48 615.854C1994.29 614.682 1996.24 614.096 1998.34 614.096C2001.78 614.096 2004.45 615.227 2006.35 617.489C2008.25 619.752 2009.21 622.991 2009.21 627.206V629.086H1991.31C1991.38 631.69 1992.13 633.798 1993.58 635.409C1995.05 637.004 1996.9 637.802 1999.15 637.802C2000.74 637.802 2002.09 637.476 2003.2 636.825C2004.31 636.174 2005.28 635.312 2006.11 634.237L2008.86 636.386C2006.65 639.787 2003.33 641.488 1998.9 641.488ZM1998.34 617.807C1996.52 617.807 1994.99 618.474 1993.75 619.809C1992.51 621.127 1991.75 622.982 1991.46 625.375H2004.69V625.033C2004.56 622.738 2003.94 620.964 2002.83 619.711C2001.73 618.441 2000.23 617.807 1998.34 617.807ZM2027.22 618.637C2026.54 618.523 2025.8 618.466 2025 618.466C2022.04 618.466 2020.03 619.727 2018.97 622.25V641H2014.46V614.584H2018.85L2018.92 617.636C2020.4 615.276 2022.5 614.096 2025.22 614.096C2026.1 614.096 2026.77 614.21 2027.22 614.438V618.637ZM2049.2 627.084V641H2044.51V605.453H2057.62C2061.51 605.453 2064.55 606.446 2066.75 608.432C2068.96 610.417 2070.07 613.046 2070.07 616.317C2070.07 619.768 2068.99 622.429 2066.82 624.301C2064.67 626.156 2061.59 627.084 2057.57 627.084H2049.2ZM2049.2 623.251H2057.62C2060.13 623.251 2062.05 622.665 2063.38 621.493C2064.72 620.305 2065.38 618.596 2065.38 616.366C2065.38 614.25 2064.72 612.558 2063.38 611.288C2062.05 610.019 2060.22 609.359 2057.89 609.311H2049.2V623.251ZM2088.11 618.637C2087.43 618.523 2086.69 618.466 2085.89 618.466C2082.93 618.466 2080.92 619.727 2079.86 622.25V641H2075.34V614.584H2079.74L2079.81 617.636C2081.29 615.276 2083.39 614.096 2086.11 614.096C2086.99 614.096 2087.66 614.21 2088.11 614.438V618.637ZM2090.6 627.548C2090.6 624.96 2091.11 622.632 2092.12 620.565C2093.14 618.498 2094.56 616.903 2096.36 615.78C2098.19 614.657 2100.26 614.096 2102.59 614.096C2106.19 614.096 2109.09 615.341 2111.31 617.831C2113.54 620.321 2114.65 623.633 2114.65 627.768V628.085C2114.65 630.657 2114.15 632.968 2113.16 635.019C2112.18 637.053 2110.78 638.64 2108.94 639.779C2107.11 640.919 2105.01 641.488 2102.64 641.488C2099.06 641.488 2096.15 640.243 2093.92 637.753C2091.71 635.263 2090.6 631.967 2090.6 627.865V627.548ZM2095.14 628.085C2095.14 631.015 2095.82 633.367 2097.17 635.141C2098.54 636.915 2100.36 637.802 2102.64 637.802C2104.93 637.802 2106.76 636.907 2108.11 635.116C2109.46 633.31 2110.13 630.787 2110.13 627.548C2110.13 624.651 2109.44 622.307 2108.06 620.517C2106.69 618.71 2104.87 617.807 2102.59 617.807C2100.36 617.807 2098.56 618.694 2097.19 620.468C2095.83 622.242 2095.14 624.781 2095.14 628.085ZM2126.44 608.188V614.584H2131.37V618.075H2126.44V634.457C2126.44 635.515 2126.66 636.312 2127.1 636.85C2127.54 637.37 2128.29 637.631 2129.35 637.631C2129.87 637.631 2130.58 637.533 2131.5 637.338V641C2130.31 641.326 2129.15 641.488 2128.03 641.488C2126.01 641.488 2124.49 640.878 2123.46 639.657C2122.44 638.437 2121.93 636.703 2121.93 634.457V618.075H2117.12V614.584H2121.93V608.188H2126.44ZM2134.99 627.548C2134.99 624.96 2135.49 622.632 2136.5 620.565C2137.53 618.498 2138.94 616.903 2140.75 615.78C2142.57 614.657 2144.65 614.096 2146.97 614.096C2150.57 614.096 2153.48 615.341 2155.69 617.831C2157.92 620.321 2159.04 623.633 2159.04 627.768V628.085C2159.04 630.657 2158.54 632.968 2157.55 635.019C2156.57 637.053 2155.16 638.64 2153.32 639.779C2151.5 640.919 2149.4 641.488 2147.02 641.488C2143.44 641.488 2140.54 640.243 2138.31 637.753C2136.09 635.263 2134.99 631.967 2134.99 627.865V627.548ZM2139.53 628.085C2139.53 631.015 2140.2 633.367 2141.55 635.141C2142.92 636.915 2144.74 637.802 2147.02 637.802C2149.32 637.802 2151.14 636.907 2152.49 635.116C2153.84 633.31 2154.52 630.787 2154.52 627.548C2154.52 624.651 2153.83 622.307 2152.44 620.517C2151.08 618.71 2149.25 617.807 2146.97 617.807C2144.74 617.807 2142.95 618.694 2141.58 620.468C2140.21 622.242 2139.53 624.781 2139.53 628.085ZM2170.83 608.188V614.584H2175.76V618.075H2170.83V634.457C2170.83 635.515 2171.05 636.312 2171.49 636.85C2171.93 637.37 2172.67 637.631 2173.73 637.631C2174.25 637.631 2174.97 637.533 2175.88 637.338V641C2174.69 641.326 2173.54 641.488 2172.41 641.488C2170.4 641.488 2168.87 640.878 2167.85 639.657C2166.82 638.437 2166.31 636.703 2166.31 634.457V618.075H2161.5V614.584H2166.31V608.188H2170.83ZM2189.7 634.384L2195.85 614.584H2200.69L2190.07 645.077C2188.42 649.472 2185.81 651.669 2182.23 651.669L2181.37 651.596L2179.69 651.278V647.616L2180.91 647.714C2182.44 647.714 2183.63 647.405 2184.47 646.786C2185.34 646.168 2186.05 645.036 2186.6 643.393L2187.6 640.707L2178.18 614.584H2183.11L2189.7 634.384ZM2227.05 628.085C2227.05 632.105 2226.13 635.344 2224.29 637.802C2222.45 640.259 2219.96 641.488 2216.82 641.488C2213.62 641.488 2211.09 640.471 2209.25 638.437V651.156H2204.74V614.584H2208.86L2209.08 617.514C2210.92 615.235 2213.48 614.096 2216.75 614.096C2219.92 614.096 2222.43 615.292 2224.27 617.685C2226.12 620.077 2227.05 623.406 2227.05 627.67V628.085ZM2222.54 627.572C2222.54 624.594 2221.9 622.242 2220.63 620.517C2219.36 618.791 2217.62 617.929 2215.41 617.929C2212.67 617.929 2210.62 619.141 2209.25 621.566V634.188C2210.61 636.597 2212.67 637.802 2215.46 637.802C2217.62 637.802 2219.34 636.947 2220.61 635.238C2221.89 633.513 2222.54 630.958 2222.54 627.572ZM2237.72 641H2233.21V614.584H2237.72V641ZM2232.84 607.577C2232.84 606.845 2233.06 606.226 2233.5 605.722C2233.95 605.217 2234.62 604.965 2235.5 604.965C2236.38 604.965 2237.05 605.217 2237.5 605.722C2237.96 606.226 2238.19 606.845 2238.19 607.577C2238.19 608.31 2237.96 608.92 2237.5 609.408C2237.05 609.896 2236.38 610.141 2235.5 610.141C2234.62 610.141 2233.95 609.896 2233.5 609.408C2233.06 608.92 2232.84 608.31 2232.84 607.577ZM2249.25 614.584L2249.39 617.904C2251.41 615.365 2254.05 614.096 2257.3 614.096C2262.88 614.096 2265.7 617.245 2265.75 623.544V641H2261.23V623.52C2261.22 621.615 2260.78 620.207 2259.91 619.296C2259.07 618.384 2257.74 617.929 2255.93 617.929C2254.47 617.929 2253.18 618.319 2252.08 619.101C2250.97 619.882 2250.11 620.907 2249.49 622.177V641H2244.97V614.584H2249.25ZM2271.49 627.572C2271.49 623.454 2272.44 620.183 2274.34 617.758C2276.25 615.316 2278.77 614.096 2281.91 614.096C2285.13 614.096 2287.65 615.235 2289.46 617.514L2289.67 614.584H2293.8V640.365C2293.8 643.783 2292.78 646.477 2290.75 648.446C2288.73 650.416 2286.01 651.4 2282.59 651.4C2280.69 651.4 2278.83 650.993 2277 650.18C2275.18 649.366 2273.79 648.251 2272.83 646.835L2275.17 644.125C2277.11 646.518 2279.48 647.714 2282.28 647.714C2284.47 647.714 2286.18 647.095 2287.4 645.858C2288.64 644.621 2289.26 642.88 2289.26 640.634V638.363C2287.45 640.447 2284.99 641.488 2281.86 641.488C2278.77 641.488 2276.26 640.243 2274.34 637.753C2272.44 635.263 2271.49 631.869 2271.49 627.572ZM2276.03 628.085C2276.03 631.063 2276.64 633.407 2277.86 635.116C2279.08 636.809 2280.79 637.655 2282.99 637.655C2285.83 637.655 2287.93 636.361 2289.26 633.773V621.713C2287.88 619.19 2285.8 617.929 2283.03 617.929C2280.84 617.929 2279.12 618.783 2277.88 620.492C2276.65 622.201 2276.03 624.732 2276.03 628.085Z" fill="black"/>
<path d="M2047.8 399.7H2085.6V388H2047.8C2041.86 388 2037 393.265 2037 399.7V440.65H2047.8V399.7ZM2080.2 452.35L2058.6 481.6H2123.4L2107.2 458.2L2096.24 474.053L2080.2 452.35ZM2118 426.025C2118 421.169 2114.38 417.25 2109.9 417.25C2105.42 417.25 2101.8 421.169 2101.8 426.025C2101.8 430.88 2105.42 434.8 2109.9 434.8C2114.38 434.8 2118 430.88 2118 426.025ZM2134.2 388H2096.4V399.7H2134.2V440.65H2145V399.7C2145 393.265 2140.14 388 2134.2 388ZM2134.2 493.3H2096.4V505H2134.2C2140.14 505 2145 499.735 2145 493.3V452.35H2134.2V493.3ZM2047.8 452.35H2037V493.3C2037 499.735 2041.86 505 2047.8 505H2085.6V493.3H2047.8V452.35Z" fill="#657B83"/>
</svg>
