<svg width="2073" height="1399" viewBox="0 0 2073 1399" fill="none" xmlns="http://www.w3.org/2000/svg">
<rect x="283" y="225" width="1517" height="968" fill="white"/>
<path d="M564 227H1514V1190H564V227Z" fill="#2EC4B6" fill-opacity="0.11"/>
<path fill-rule="evenodd" clip-rule="evenodd" d="M939 962C937.409 962 935.883 962.632 934.757 963.757C933.632 964.883 933 966.409 933 968V986C933 987.591 933.632 989.117 934.757 990.243C935.883 991.368 937.409 992 939 992H957C958.591 992 960.117 991.368 961.243 990.243C962.368 989.117 963 987.591 963 986V968C963 966.409 962.368 964.883 961.243 963.757C960.117 962.632 958.591 962 957 962H939ZM936 968C936 967.204 936.316 966.441 936.879 965.879C937.441 965.316 938.204 965 939 965H957C957.796 965 958.559 965.316 959.121 965.879C959.684 966.441 960 967.204 960 968V986C960 986.796 959.684 987.559 959.121 988.121C958.559 988.684 957.796 989 957 989H939C938.204 989 937.441 988.684 936.879 988.121C936.316 987.559 936 986.796 936 986V968ZM943.5 975.5C943.5 975.102 943.342 974.721 943.061 974.439C942.779 974.158 942.398 974 942 974C941.602 974 941.221 974.158 940.939 974.439C940.658 974.721 940.5 975.102 940.5 975.5V984.5C940.5 984.898 940.658 985.279 940.939 985.561C941.221 985.842 941.602 986 942 986C942.398 986 942.779 985.842 943.061 985.561C943.342 985.279 943.5 984.898 943.5 984.5V975.5ZM944.25 970.25C944.25 970.847 944.013 971.419 943.591 971.841C943.169 972.263 942.597 972.5 942 972.5C941.403 972.5 940.831 972.263 940.409 971.841C939.987 971.419 939.75 970.847 939.75 970.25C939.75 969.653 939.987 969.081 940.409 968.659C940.831 968.237 941.403 968 942 968C942.597 968 943.169 968.237 943.591 968.659C944.013 969.081 944.25 969.653 944.25 970.25ZM948 974C948.51 974 948.96 974.255 949.23 974.642C950.003 974.221 950.87 974 951.75 974C954.99 974 957 976.889 957 979.357V984.5C957 984.898 956.842 985.279 956.561 985.561C956.279 985.842 955.898 986 955.5 986C955.102 986 954.721 985.842 954.439 985.561C954.158 985.279 954 984.898 954 984.5V979.355C954 978.203 953.01 976.998 951.75 976.998C950.964 976.998 950.096 977.426 949.5 978.443V984.5C949.5 984.898 949.342 985.279 949.061 985.561C948.779 985.842 948.398 986 948 986C947.602 986 947.221 985.842 946.939 985.561C946.658 985.279 946.5 984.898 946.5 984.5V975.5C946.5 975.102 946.658 974.721 946.939 974.439C947.221 974.158 947.602 974 948 974Z" fill="black"/>
<path fill-rule="evenodd" clip-rule="evenodd" d="M879 968C879 966.409 879.632 964.883 880.757 963.757C881.883 962.632 883.409 962 885 962H903C904.591 962 906.117 962.632 907.243 963.757C908.368 964.883 909 966.409 909 968V986C909 987.591 908.368 989.117 907.243 990.243C906.117 991.368 904.591 992 903 992H885C883.409 992 881.883 991.368 880.757 990.243C879.632 989.117 879 987.591 879 986V968ZM885 965C884.204 965 883.441 965.316 882.879 965.879C882.316 966.441 882 967.204 882 968V986C882 986.796 882.316 987.559 882.879 988.121C883.441 988.684 884.204 989 885 989H894V978.5H892.5C892.102 978.5 891.721 978.342 891.439 978.061C891.158 977.779 891 977.398 891 977C891 976.602 891.158 976.221 891.439 975.939C891.721 975.658 892.102 975.5 892.5 975.5H894V973.25C894 971.858 894.553 970.522 895.538 969.538C896.522 968.553 897.858 968 899.25 968H900.15C900.548 968 900.929 968.158 901.211 968.439C901.492 968.721 901.65 969.102 901.65 969.5C901.65 969.898 901.492 970.279 901.211 970.561C900.929 970.842 900.548 971 900.15 971H899.25C898.955 971 898.662 971.058 898.389 971.171C898.116 971.284 897.868 971.45 897.659 971.659C897.45 971.868 897.284 972.116 897.171 972.389C897.058 972.662 897 972.955 897 973.25V975.5H900.15C900.548 975.5 900.929 975.658 901.211 975.939C901.492 976.221 901.65 976.602 901.65 977C901.65 977.398 901.492 977.779 901.211 978.061C900.929 978.342 900.548 978.5 900.15 978.5H897V989H903C903.796 989 904.559 988.684 905.121 988.121C905.684 987.559 906 986.796 906 986V968C906 967.204 905.684 966.441 905.121 965.879C904.559 965.316 903.796 965 903 965H885Z" fill="black"/>
<path fill-rule="evenodd" clip-rule="evenodd" d="M1046.07 965.086C1045.42 965.085 1044.77 965.241 1044.18 965.543C1043.59 965.844 1043.07 966.283 1042.65 966.828C1042.24 967.373 1041.94 968.011 1041.78 968.695C1041.63 969.378 1041.61 970.092 1041.74 970.783C1041.78 971.022 1041.77 971.269 1041.71 971.504C1041.65 971.739 1041.54 971.955 1041.38 972.134C1041.23 972.313 1041.04 972.45 1040.83 972.533C1040.61 972.617 1040.38 972.645 1040.16 972.615C1037.08 972.208 1034.18 970.844 1031.8 968.691C1031.85 969.619 1032.15 970.607 1032.8 971.64L1033.77 973.189L1032.17 973.922L1031.86 974.064C1032.09 974.346 1032.37 974.635 1032.68 974.92C1033.09 975.3 1033.52 975.648 1033.98 975.963L1034 975.974L1036.21 977.422L1033.89 978.672C1033.78 978.734 1033.66 978.789 1033.55 978.838C1034.05 979.285 1034.6 979.661 1035.19 979.958L1037.18 980.972L1035.51 982.521C1034.6 983.366 1033.68 983.997 1032.5 984.33C1034.32 985.375 1036.35 985.919 1038.41 985.915C1045.3 985.915 1050.84 979.999 1050.84 972.75V971.947L1051.45 971.486C1052.4 970.767 1053.07 969.795 1053.55 968.683H1050.46L1050.07 967.804C1049.71 966.99 1049.14 966.303 1048.44 965.822C1047.73 965.341 1046.91 965.085 1046.07 965.086ZM1029.92 976.347C1029.78 976.514 1029.68 976.71 1029.63 976.922C1029.57 977.134 1029.55 977.357 1029.58 977.577C1029.74 978.812 1030.43 979.877 1031.19 980.69C1031.39 980.91 1031.61 981.122 1031.85 981.324L1031.74 981.355C1031.05 981.54 1030.12 981.578 1028.57 981.416C1028.28 981.385 1027.99 981.452 1027.73 981.607C1027.47 981.762 1027.27 981.999 1027.14 982.284C1027.01 982.569 1026.97 982.89 1027.02 983.202C1027.07 983.514 1027.2 983.803 1027.41 984.029C1028.84 985.608 1030.55 986.86 1032.44 987.714C1034.33 988.568 1036.36 989.005 1038.41 989C1046.59 989 1053.3 982.157 1053.68 973.521C1055.53 971.85 1056.46 969.587 1056.95 967.531C1057.01 967.302 1057.01 967.064 1056.97 966.832C1056.93 966.601 1056.84 966.384 1056.7 966.197C1056.57 966.011 1056.4 965.859 1056.2 965.756C1056 965.652 1055.79 965.598 1055.57 965.598H1052.2C1051.37 964.219 1050.17 963.153 1048.75 962.55C1047.34 961.947 1045.78 961.837 1044.31 962.235C1042.83 962.633 1041.5 963.52 1040.52 964.77C1039.53 966.02 1038.94 967.572 1038.81 969.206C1036.17 968.466 1033.81 966.862 1032.05 964.617C1031.9 964.418 1031.7 964.265 1031.47 964.172C1031.25 964.079 1031 964.049 1030.76 964.085C1030.53 964.12 1030.3 964.22 1030.11 964.375C1029.91 964.53 1029.76 964.735 1029.66 964.971C1028.79 967.011 1028.62 969.362 1029.59 971.753L1029.26 971.907C1028.94 972.054 1028.68 972.323 1028.53 972.661C1028.38 973 1028.35 973.386 1028.44 973.748C1028.71 974.753 1029.31 975.642 1029.92 976.347Z" fill="black"/>
<path d="M1019.94 794.854C1019.78 794.799 1019.55 794.771 1019.26 794.771C1018.96 794.771 1018.73 794.799 1018.56 794.854C1018.39 794.908 1018.26 794.988 1018.16 795.093C1017.98 795.28 1017.9 795.585 1017.9 796.009V796.945H1019.66V797.991H1017.9V804H1016.53V797.991H1015.68V797.349L1016.53 796.945V796.193C1016.53 795.715 1016.57 795.355 1016.65 795.113C1016.74 794.872 1016.84 794.671 1016.96 794.512C1017.08 794.352 1017.24 794.213 1017.44 794.095C1017.86 793.844 1018.46 793.719 1019.22 793.719C1019.54 793.719 1019.78 793.737 1019.94 793.773V794.854ZM1022.68 800.459C1022.68 799.352 1023.03 798.454 1023.74 797.766C1024.4 797.123 1025.21 796.802 1026.19 796.802C1027.15 796.802 1027.95 797.123 1028.59 797.766C1029.27 798.449 1029.61 799.347 1029.61 800.459C1029.61 801.566 1029.27 802.46 1028.58 803.139C1027.93 803.786 1027.13 804.109 1026.18 804.109C1025.22 804.109 1024.41 803.786 1023.74 803.139C1023.03 802.46 1022.68 801.566 1022.68 800.459ZM1024.1 800.459C1024.1 801.626 1024.47 802.419 1025.22 802.838C1025.48 802.984 1025.8 803.057 1026.17 803.057C1026.54 803.057 1026.85 802.984 1027.11 802.838C1027.36 802.688 1027.57 802.492 1027.73 802.25C1028.04 801.785 1028.19 801.188 1028.19 800.459C1028.19 799.301 1027.83 798.508 1027.09 798.08C1026.84 797.93 1026.53 797.854 1026.18 797.854C1025.82 797.854 1025.51 797.93 1025.25 798.08C1024.99 798.226 1024.77 798.42 1024.6 798.661C1024.27 799.135 1024.1 799.734 1024.1 800.459ZM1037.88 798.196C1037.63 798.123 1037.33 798.087 1036.98 798.087C1036.63 798.087 1036.35 798.123 1036.12 798.196C1035.9 798.265 1035.7 798.349 1035.54 798.449C1035.23 798.632 1035 798.837 1034.86 799.064V804H1033.49V796.945H1034.8L1034.86 797.923C1035.2 797.494 1035.7 797.173 1036.36 796.959C1036.59 796.877 1036.86 796.836 1037.17 796.836C1037.47 796.836 1037.71 796.859 1037.88 796.904V798.196ZM1045.35 806.693C1044.95 806.794 1044.44 806.844 1043.82 806.844C1043.2 806.844 1042.74 806.798 1042.45 806.707V805.49C1042.81 805.645 1043.25 805.723 1043.77 805.723C1044.3 805.727 1044.68 805.693 1044.93 805.62C1045.18 805.547 1045.37 805.429 1045.51 805.265C1045.77 804.968 1045.89 804.433 1045.89 803.658V803.296C1045.55 803.642 1045.09 803.884 1044.53 804.021C1044.3 804.075 1044.07 804.103 1043.84 804.103C1043.61 804.103 1043.39 804.077 1043.17 804.027C1042.96 803.977 1042.74 803.897 1042.53 803.788C1042.32 803.674 1042.11 803.528 1041.91 803.351C1041.72 803.168 1041.55 802.943 1041.4 802.674C1041.06 802.09 1040.89 801.373 1040.89 800.521C1040.88 799.732 1041.11 799.039 1041.57 798.442C1041.97 797.923 1042.53 797.52 1043.23 797.232C1043.87 796.968 1044.56 796.836 1045.3 796.836C1046.04 796.836 1046.7 796.872 1047.26 796.945V803.658C1047.26 805.363 1046.62 806.374 1045.35 806.693ZM1045.89 797.943C1045.6 797.907 1045.31 797.889 1045.03 797.889C1044.75 797.889 1044.43 797.941 1044.08 798.046C1043.73 798.151 1043.42 798.31 1043.16 798.524C1042.58 798.994 1042.29 799.659 1042.29 800.521C1042.29 801.455 1042.52 802.136 1042.97 802.564C1043.3 802.888 1043.72 803.05 1044.2 803.05C1044.79 803.05 1045.29 802.842 1045.69 802.428C1045.78 802.323 1045.85 802.229 1045.89 802.147V797.943ZM1051.14 800.459C1051.14 799.352 1051.49 798.454 1052.2 797.766C1052.86 797.123 1053.68 796.802 1054.65 796.802C1055.61 796.802 1056.41 797.123 1057.05 797.766C1057.73 798.449 1058.08 799.347 1058.08 800.459C1058.08 801.566 1057.73 802.46 1057.04 803.139C1056.39 803.786 1055.59 804.109 1054.64 804.109C1053.68 804.109 1052.87 803.786 1052.2 803.139C1051.49 802.46 1051.14 801.566 1051.14 800.459ZM1052.56 800.459C1052.56 801.626 1052.93 802.419 1053.68 802.838C1053.95 802.984 1054.26 803.057 1054.63 803.057C1055 803.057 1055.31 802.984 1055.57 802.838C1055.82 802.688 1056.03 802.492 1056.2 802.25C1056.5 801.785 1056.65 801.188 1056.65 800.459C1056.65 799.301 1056.29 798.508 1055.55 798.08C1055.3 797.93 1054.99 797.854 1054.64 797.854C1054.28 797.854 1053.97 797.93 1053.71 798.08C1053.45 798.226 1053.23 798.42 1053.07 798.661C1052.73 799.135 1052.56 799.734 1052.56 800.459ZM1064.39 802.92C1064.54 802.975 1064.77 803.002 1065.08 803.002C1065.38 803.002 1065.64 802.965 1065.84 802.893V803.986C1065.75 804.009 1065.61 804.023 1065.43 804.027L1065 804.041C1064.9 804.041 1064.83 804.041 1064.78 804.041C1063.9 804.041 1063.25 803.754 1062.83 803.18C1062.49 802.715 1062.32 802.1 1062.32 801.334V797.991H1061.31V797.349L1062.32 796.945L1062.65 795.195H1063.69V796.945H1065.88V797.991H1063.69V801.327C1063.69 802.22 1063.92 802.751 1064.39 802.92ZM1072.33 802.92C1072.48 802.975 1072.71 803.002 1073.02 803.002C1073.32 803.002 1073.58 802.965 1073.78 802.893V803.986C1073.69 804.009 1073.55 804.023 1073.36 804.027L1072.93 804.041C1072.84 804.041 1072.76 804.041 1072.71 804.041C1071.84 804.041 1071.19 803.754 1070.77 803.18C1070.43 802.715 1070.26 802.1 1070.26 801.334V797.991H1069.25V797.349L1070.26 796.945L1070.59 795.195H1071.63V796.945H1073.82V797.991H1071.63V801.327C1071.63 802.22 1071.86 802.751 1072.33 802.92ZM1081.03 804.109C1078.45 804.109 1077.16 802.849 1077.16 800.329C1077.16 799.244 1077.52 798.376 1078.23 797.725C1078.88 797.132 1079.61 796.836 1080.43 796.836C1081.33 796.836 1082.03 797.137 1082.54 797.738C1083.01 798.299 1083.24 799.049 1083.24 799.987V800.521H1078.58C1078.58 801.81 1079.11 802.599 1080.16 802.886C1080.41 802.954 1080.8 802.988 1081.32 802.988C1081.84 802.988 1082.35 802.918 1082.85 802.776V803.932C1082.35 804.05 1081.74 804.109 1081.03 804.109ZM1081.88 799.516C1081.88 799.078 1081.76 798.709 1081.51 798.408C1081.23 798.062 1080.84 797.889 1080.35 797.889C1079.82 797.889 1079.39 798.055 1079.07 798.388C1078.77 798.698 1078.62 799.074 1078.62 799.516H1081.88ZM1090.03 798.012C1089.35 798.012 1088.74 798.242 1088.21 798.702V804H1086.85V796.945H1088.11L1088.21 797.711C1088.95 797.128 1089.72 796.836 1090.51 796.836C1091.35 796.836 1091.97 797.087 1092.36 797.588C1092.77 798.117 1092.97 798.969 1092.97 800.145V804H1091.61V800.145C1091.61 799.014 1091.3 798.34 1090.69 798.121C1090.49 798.048 1090.27 798.012 1090.03 798.012ZM1105.36 806.734H1103.99V796.945H1105.22L1105.27 797.752C1105.55 797.387 1105.97 797.116 1106.53 796.938C1106.75 796.87 1106.97 796.836 1107.19 796.836C1107.42 796.836 1107.65 796.861 1107.86 796.911C1108.08 796.957 1108.3 797.034 1108.51 797.144C1108.73 797.248 1108.93 797.39 1109.13 797.567C1109.32 797.741 1109.5 797.957 1109.65 798.217C1109.98 798.777 1110.14 799.472 1110.14 800.302C1110.14 801.569 1109.7 802.537 1108.83 803.207C1108.05 803.804 1107.11 804.103 1106 804.103H1105.66C1105.55 804.103 1105.45 804.1 1105.36 804.096V806.734ZM1105.36 802.988C1105.48 803.025 1105.73 803.043 1106.11 803.043C1106.48 803.043 1106.83 802.991 1107.16 802.886C1107.49 802.781 1107.77 802.619 1107.99 802.4C1108.48 801.936 1108.72 801.236 1108.72 800.302C1108.72 799.422 1108.51 798.773 1108.09 798.354C1107.78 798.044 1107.4 797.889 1106.95 797.889C1106.39 797.889 1105.93 798.096 1105.56 798.511C1105.46 798.616 1105.4 798.709 1105.36 798.791V802.988ZM1114.48 802.742C1114.33 802.482 1114.2 802.177 1114.11 801.826C1114.03 801.475 1113.98 801.017 1113.98 800.452C1113.98 799.887 1114.1 799.368 1114.35 798.894C1114.59 798.415 1114.91 798.023 1115.3 797.718C1116.06 797.13 1117.01 796.836 1118.14 796.836C1118.73 796.836 1119.17 796.85 1119.47 796.877C1119.47 796.877 1119.69 796.9 1120.14 796.945V804H1118.91L1118.85 803.187C1118.58 803.551 1118.16 803.822 1117.6 804C1117.39 804.068 1117.16 804.103 1116.94 804.103C1116.71 804.103 1116.49 804.08 1116.27 804.034C1116.05 803.989 1115.84 803.913 1115.62 803.809C1115.4 803.704 1115.2 803.565 1115 803.392C1114.81 803.214 1114.63 802.997 1114.48 802.742ZM1118.77 797.95C1118.48 797.914 1118.19 797.896 1117.89 797.896C1117.61 797.896 1117.3 797.948 1116.97 798.053C1116.64 798.153 1116.36 798.312 1116.13 798.531C1115.65 798.987 1115.41 799.682 1115.41 800.616C1115.41 801.5 1115.61 802.154 1116.03 802.578C1116.34 802.893 1116.72 803.05 1117.16 803.05C1117.73 803.05 1118.2 802.842 1118.57 802.428C1118.66 802.323 1118.73 802.229 1118.77 802.147V797.95ZM1126.15 804.109C1125.58 804.109 1125.01 804.068 1124.42 803.986V802.776C1125.02 802.918 1125.62 802.988 1126.23 802.988C1127.45 802.988 1128.06 802.731 1128.06 802.216C1128.06 802.02 1128.01 801.874 1127.92 801.778C1127.78 801.628 1127.55 801.478 1127.25 801.327L1126.25 800.869C1125.6 800.546 1125.18 800.286 1124.99 800.09C1124.63 799.725 1124.45 799.292 1124.45 798.791C1124.45 798.226 1124.71 797.766 1125.24 797.41C1125.8 797.027 1126.59 796.836 1127.62 796.836C1128.13 796.836 1128.65 796.872 1129.17 796.945V798.114C1128.6 798.009 1128.1 797.957 1127.67 797.957C1127.25 797.957 1126.92 797.984 1126.68 798.039C1126.45 798.094 1126.27 798.162 1126.15 798.244C1125.97 798.372 1125.87 798.538 1125.87 798.743C1125.87 798.944 1125.94 799.108 1126.06 799.235C1126.2 799.358 1126.4 799.493 1126.68 799.639L1127.68 800.124C1128.34 800.466 1128.76 800.728 1128.95 800.91C1129.3 801.257 1129.48 801.692 1129.48 802.216C1129.48 802.776 1129.2 803.228 1128.63 803.569C1128.04 803.929 1127.21 804.109 1126.15 804.109ZM1135.25 804.109C1134.68 804.109 1134.11 804.068 1133.52 803.986V802.776C1134.12 802.918 1134.72 802.988 1135.33 802.988C1136.55 802.988 1137.16 802.731 1137.16 802.216C1137.16 802.02 1137.11 801.874 1137.02 801.778C1136.88 801.628 1136.65 801.478 1136.35 801.327L1135.35 800.869C1134.7 800.546 1134.28 800.286 1134.09 800.09C1133.73 799.725 1133.55 799.292 1133.55 798.791C1133.55 798.226 1133.81 797.766 1134.34 797.41C1134.9 797.027 1135.69 796.836 1136.72 796.836C1137.23 796.836 1137.75 796.872 1138.27 796.945V798.114C1137.7 798.009 1137.2 797.957 1136.77 797.957C1136.35 797.957 1136.02 797.984 1135.78 798.039C1135.55 798.094 1135.37 798.162 1135.25 798.244C1135.07 798.372 1134.97 798.538 1134.97 798.743C1134.97 798.944 1135.04 799.108 1135.16 799.235C1135.3 799.358 1135.5 799.493 1135.78 799.639L1136.78 800.124C1137.44 800.466 1137.86 800.728 1138.05 800.91C1138.4 801.257 1138.58 801.692 1138.58 802.216C1138.58 802.776 1138.3 803.228 1137.73 803.569C1137.14 803.929 1136.31 804.109 1135.25 804.109ZM1141.67 796.945H1143.13L1144.94 802.551L1146.77 796.945H1148.19L1150.05 802.53L1151.77 796.945H1153.12L1150.75 804H1149.34L1147.44 798.654L1145.64 804H1144.24L1141.67 796.945ZM1155.94 800.459C1155.94 799.352 1156.29 798.454 1157 797.766C1157.66 797.123 1158.48 796.802 1159.45 796.802C1160.41 796.802 1161.21 797.123 1161.85 797.766C1162.54 798.449 1162.88 799.347 1162.88 800.459C1162.88 801.566 1162.54 802.46 1161.85 803.139C1161.2 803.786 1160.4 804.109 1159.45 804.109C1158.49 804.109 1157.67 803.786 1157 803.139C1156.29 802.46 1155.94 801.566 1155.94 800.459ZM1157.36 800.459C1157.36 801.626 1157.74 802.419 1158.48 802.838C1158.75 802.984 1159.07 803.057 1159.43 803.057C1159.8 803.057 1160.12 802.984 1160.37 802.838C1160.63 802.688 1160.84 802.492 1161 802.25C1161.3 801.785 1161.46 801.188 1161.46 800.459C1161.46 799.301 1161.09 798.508 1160.36 798.08C1160.1 797.93 1159.8 797.854 1159.44 797.854C1159.09 797.854 1158.78 797.93 1158.51 798.08C1158.25 798.226 1158.04 798.42 1157.87 798.661C1157.53 799.135 1157.36 799.734 1157.36 800.459ZM1171.15 798.196C1170.89 798.123 1170.59 798.087 1170.24 798.087C1169.9 798.087 1169.61 798.123 1169.39 798.196C1169.17 798.265 1168.97 798.349 1168.8 798.449C1168.49 798.632 1168.27 798.837 1168.12 799.064V804H1166.76V796.945H1168.07L1168.12 797.923C1168.47 797.494 1168.96 797.173 1169.62 796.959C1169.86 796.877 1170.13 796.836 1170.43 796.836C1170.74 796.836 1170.98 796.859 1171.15 796.904V798.196ZM1175.67 797.718C1176.06 797.412 1176.51 797.189 1177 797.048C1177.5 796.907 1177.93 796.836 1178.3 796.836C1178.67 796.836 1178.95 796.845 1179.15 796.863V793.828H1180.51V804H1179.29L1179.23 803.187C1178.96 803.556 1178.53 803.829 1177.97 804.007C1177.75 804.075 1177.53 804.109 1177.3 804.109C1177.08 804.109 1176.85 804.087 1176.64 804.041C1176.42 803.995 1176.2 803.92 1175.98 803.815C1175.77 803.706 1175.56 803.565 1175.36 803.392C1175.17 803.214 1174.99 802.997 1174.84 802.742C1174.51 802.182 1174.35 801.519 1174.35 800.753C1174.35 799.987 1174.47 799.368 1174.71 798.894C1174.95 798.415 1175.27 798.023 1175.67 797.718ZM1176.49 798.531C1176.26 798.75 1176.08 799.033 1175.95 799.379C1175.83 799.721 1175.77 800.138 1175.77 800.63C1175.77 801.118 1175.83 801.521 1175.95 801.84C1176.06 802.154 1176.21 802.4 1176.39 802.578C1176.7 802.897 1177.08 803.057 1177.52 803.057C1178.09 803.057 1178.57 802.847 1178.94 802.428C1179.04 802.323 1179.1 802.229 1179.14 802.147V797.943L1179.01 797.93C1178.8 797.902 1178.55 797.889 1178.26 797.889C1177.97 797.889 1177.66 797.941 1177.33 798.046C1177.01 798.146 1176.73 798.308 1176.49 798.531Z" fill="black"/>
<path d="M930.922 937.974C930.571 938.085 929.961 938.141 929.094 938.141C928.227 938.141 927.488 938.035 926.879 937.824C926.276 937.613 925.76 937.303 925.332 936.893C924.447 936.043 924.005 934.865 924.005 933.359C924.005 931.9 924.535 930.752 925.596 929.914C926.545 929.164 927.711 928.789 929.094 928.789C929.949 928.789 930.535 928.818 930.852 928.877V930.441C930.36 930.283 929.797 930.204 929.164 930.204C928.537 930.204 928.016 930.292 927.6 930.468C927.184 930.638 926.844 930.869 926.58 931.162C926.082 931.719 925.833 932.451 925.833 933.359C925.833 934.895 926.387 935.917 927.494 936.427C927.887 936.608 928.271 936.699 928.646 936.699C929.021 936.699 929.308 936.69 929.507 936.673C929.712 936.655 929.905 936.632 930.087 936.603C930.474 936.538 930.752 936.471 930.922 936.4V937.974ZM935.503 933.447C935.503 932.023 935.957 930.869 936.865 929.984C937.715 929.158 938.767 928.745 940.021 928.745C941.251 928.745 942.279 929.158 943.105 929.984C943.984 930.863 944.424 932.018 944.424 933.447C944.424 934.871 943.981 936.02 943.097 936.893C942.259 937.725 941.23 938.141 940.012 938.141C938.775 938.141 937.727 937.725 936.865 936.893C935.957 936.02 935.503 934.871 935.503 933.447ZM937.331 933.447C937.331 934.947 937.812 935.967 938.772 936.506C939.112 936.693 939.52 936.787 939.994 936.787C940.469 936.787 940.87 936.693 941.198 936.506C941.526 936.312 941.796 936.061 942.007 935.75C942.399 935.152 942.596 934.385 942.596 933.447C942.596 931.959 942.124 930.939 941.181 930.389C940.853 930.195 940.46 930.099 940.003 930.099C939.546 930.099 939.147 930.195 938.808 930.389C938.474 930.576 938.198 930.825 937.981 931.136C937.548 931.745 937.331 932.516 937.331 933.447ZM953.373 930.301C952.5 930.301 951.723 930.597 951.044 931.188V938H949.286V928.93H950.912L951.035 929.914C951.99 929.164 952.977 928.789 953.997 928.789C955.075 928.789 955.866 929.111 956.37 929.756C956.897 930.436 957.161 931.531 957.161 933.043V938H955.403V933.043C955.403 931.59 955.011 930.723 954.225 930.441C953.973 930.348 953.689 930.301 953.373 930.301ZM966.585 930.301C965.712 930.301 964.935 930.597 964.255 931.188V938H962.498V928.93H964.124L964.247 929.914C965.202 929.164 966.189 928.789 967.209 928.789C968.287 928.789 969.078 929.111 969.582 929.756C970.109 930.436 970.373 931.531 970.373 933.043V938H968.615V933.043C968.615 931.59 968.222 930.723 967.437 930.441C967.185 930.348 966.901 930.301 966.585 930.301ZM979.946 938.141C976.629 938.141 974.971 936.521 974.971 933.28C974.971 931.886 975.431 930.77 976.351 929.932C977.177 929.17 978.121 928.789 979.181 928.789C980.335 928.789 981.238 929.176 981.888 929.949C982.492 930.67 982.793 931.634 982.793 932.841V933.526H976.799C976.799 935.185 977.476 936.198 978.829 936.567C979.152 936.655 979.647 936.699 980.315 936.699C980.989 936.699 981.648 936.608 982.292 936.427V937.912C981.648 938.064 980.866 938.141 979.946 938.141ZM981.036 932.234C981.036 931.672 980.88 931.197 980.57 930.811C980.206 930.365 979.705 930.143 979.067 930.143C978.393 930.143 977.845 930.356 977.423 930.784C977.037 931.183 976.843 931.666 976.843 932.234H981.036ZM993.94 937.974C993.588 938.085 992.979 938.141 992.112 938.141C991.244 938.141 990.506 938.035 989.897 937.824C989.293 937.613 988.778 937.303 988.35 936.893C987.465 936.043 987.023 934.865 987.023 933.359C987.023 931.9 987.553 930.752 988.613 929.914C989.563 929.164 990.729 928.789 992.112 928.789C992.967 928.789 993.553 928.818 993.869 928.877V930.441C993.377 930.283 992.815 930.204 992.182 930.204C991.555 930.204 991.033 930.292 990.617 930.468C990.201 930.638 989.862 930.869 989.598 931.162C989.1 931.719 988.851 932.451 988.851 933.359C988.851 934.895 989.404 935.917 990.512 936.427C990.904 936.608 991.288 936.699 991.663 936.699C992.038 936.699 992.325 936.69 992.525 936.673C992.73 936.655 992.923 936.632 993.105 936.603C993.491 936.538 993.77 936.471 993.94 936.4V937.974ZM1002.37 936.611C1002.56 936.682 1002.86 936.717 1003.25 936.717C1003.64 936.717 1003.97 936.67 1004.23 936.576V937.982C1004.11 938.012 1003.93 938.029 1003.7 938.035L1003.14 938.053C1003.02 938.053 1002.93 938.053 1002.86 938.053C1001.73 938.053 1000.9 937.684 1000.36 936.945C999.924 936.348 999.707 935.557 999.707 934.572V930.274H998.406V929.448L999.707 928.93L1000.13 926.68H1001.46V928.93H1004.28V930.274H1001.46V934.563C1001.46 935.712 1001.77 936.395 1002.37 936.611Z" fill="black"/>
<path d="M732.138 505.909V519H734.822V510.447H734.931L738.319 518.936H740.147L743.535 510.479H743.643V519H746.328V505.909H742.915L739.31 514.705H739.156L735.551 505.909H732.138ZM751.357 519.185C752.808 519.185 753.748 518.553 754.227 517.638H754.304V519H756.886V512.378C756.886 510.038 754.905 509.054 752.719 509.054C750.366 509.054 748.819 510.179 748.442 511.969L750.961 512.173C751.146 511.521 751.728 511.042 752.706 511.042C753.633 511.042 754.163 511.509 754.163 512.314V512.352C754.163 512.985 753.492 513.068 751.785 513.234C749.842 513.413 748.097 514.065 748.097 516.258C748.097 518.201 749.484 519.185 751.357 519.185ZM752.137 517.306C751.3 517.306 750.699 516.916 750.699 516.168C750.699 515.401 751.331 515.024 752.29 514.89C752.885 514.807 753.856 514.666 754.182 514.449V515.491C754.182 516.52 753.332 517.306 752.137 517.306ZM761.722 513.324C761.728 512.058 762.482 511.317 763.582 511.317C764.675 511.317 765.333 512.033 765.327 513.234V519H768.05V512.749C768.05 510.46 766.708 509.054 764.662 509.054C763.205 509.054 762.15 509.77 761.709 510.914H761.594V509.182H758.999V519H761.722V513.324ZM772.996 519.185C774.447 519.185 775.386 518.553 775.866 517.638H775.942V519H778.525V512.378C778.525 510.038 776.543 509.054 774.357 509.054C772.005 509.054 770.458 510.179 770.081 511.969L772.599 512.173C772.785 511.521 773.366 511.042 774.344 511.042C775.271 511.042 775.802 511.509 775.802 512.314V512.352C775.802 512.985 775.131 513.068 773.424 513.234C771.481 513.413 769.736 514.065 769.736 516.258C769.736 518.201 771.123 519.185 772.996 519.185ZM773.776 517.306C772.938 517.306 772.337 516.916 772.337 516.168C772.337 515.401 772.97 515.024 773.929 514.89C774.523 514.807 775.495 514.666 775.821 514.449V515.491C775.821 516.52 774.971 517.306 773.776 517.306ZM785.061 522.886C787.867 522.886 789.861 521.608 789.861 519.096V509.182H787.157V510.831H787.055C786.691 510.032 785.892 509.054 784.249 509.054C782.095 509.054 780.273 510.729 780.273 514.072C780.273 517.338 782.044 518.859 784.255 518.859C785.821 518.859 786.697 518.073 787.055 517.261H787.17V519.058C787.17 520.406 786.307 520.93 785.125 520.93C783.923 520.93 783.316 520.406 783.092 519.812L780.574 520.151C780.9 521.697 782.414 522.886 785.061 522.886ZM785.118 516.814C783.782 516.814 783.054 515.753 783.054 514.059C783.054 512.391 783.77 511.221 785.118 511.221C786.441 511.221 787.183 512.339 787.183 514.059C787.183 515.791 786.429 516.814 785.118 516.814ZM796.502 519.192C798.931 519.192 800.568 518.009 800.951 516.188L798.433 516.021C798.158 516.769 797.455 517.159 796.547 517.159C795.186 517.159 794.323 516.258 794.323 514.794V514.788H801.009V514.04C801.009 510.703 798.989 509.054 796.394 509.054C793.505 509.054 791.632 511.106 791.632 514.136C791.632 517.249 793.479 519.192 796.502 519.192ZM794.323 513.1C794.38 511.982 795.23 511.087 796.439 511.087C797.621 511.087 798.439 511.93 798.446 513.1H794.323ZM808.633 522.682C810.659 522.682 811.733 521.646 812.289 520.061L816.105 509.195L813.222 509.182L811.171 516.392H811.068L809.036 509.182H806.172L809.694 519.281L809.534 519.697C809.176 520.617 808.492 520.662 807.534 520.368L806.92 522.401C807.31 522.567 807.943 522.682 808.633 522.682ZM821.601 519.192C824.58 519.192 826.433 517.153 826.433 514.129C826.433 511.087 824.58 509.054 821.601 509.054C818.622 509.054 816.768 511.087 816.768 514.129C816.768 517.153 818.622 519.192 821.601 519.192ZM821.614 517.082C820.239 517.082 819.536 515.823 819.536 514.11C819.536 512.397 820.239 511.131 821.614 511.131C822.962 511.131 823.665 512.397 823.665 514.11C823.665 515.823 822.962 517.082 821.614 517.082ZM834.5 514.82C834.506 516.136 833.605 516.827 832.627 516.827C831.598 516.827 830.933 516.104 830.927 514.947V509.182H828.204V515.433C828.21 517.728 829.553 519.128 831.528 519.128C833.004 519.128 834.065 518.367 834.506 517.217H834.609V519H837.223V509.182H834.5V514.82ZM839.401 519H842.124V513.445C842.124 512.237 843.006 511.406 844.208 511.406C844.585 511.406 845.103 511.47 845.358 511.553V509.137C845.116 509.08 844.777 509.041 844.502 509.041C843.403 509.041 842.501 509.68 842.143 510.895H842.041V509.182H839.401V519ZM855.368 519.192C857.983 519.192 859.626 517.658 859.753 515.401H857.184C857.024 516.45 856.334 517.038 855.4 517.038C854.128 517.038 853.304 515.97 853.304 514.091C853.304 512.237 854.135 511.176 855.4 511.176C856.398 511.176 857.037 511.835 857.184 512.812H859.753C859.638 510.543 857.919 509.054 855.356 509.054C852.377 509.054 850.536 511.119 850.536 514.129C850.536 517.114 852.345 519.192 855.368 519.192ZM864.297 519.185C865.748 519.185 866.687 518.553 867.167 517.638H867.243V519H869.826V512.378C869.826 510.038 867.844 509.054 865.658 509.054C863.306 509.054 861.759 510.179 861.382 511.969L863.9 512.173C864.086 511.521 864.667 511.042 865.645 511.042C866.572 511.042 867.103 511.509 867.103 512.314V512.352C867.103 512.985 866.431 513.068 864.725 513.234C862.782 513.413 861.037 514.065 861.037 516.258C861.037 518.201 862.424 519.185 864.297 519.185ZM865.076 517.306C864.239 517.306 863.638 516.916 863.638 516.168C863.638 515.401 864.271 515.024 865.23 514.89C865.824 514.807 866.796 514.666 867.122 514.449V515.491C867.122 516.52 866.272 517.306 865.076 517.306ZM871.938 519H874.661V513.445C874.661 512.237 875.543 511.406 876.745 511.406C877.122 511.406 877.64 511.47 877.896 511.553V509.137C877.653 509.08 877.314 509.041 877.039 509.041C875.94 509.041 875.038 509.68 874.68 510.895H874.578V509.182H871.938V519ZM883.321 519.192C885.75 519.192 887.386 518.009 887.77 516.188L885.251 516.021C884.976 516.769 884.273 517.159 883.366 517.159C882.004 517.159 881.141 516.258 881.141 514.794V514.788H887.827V514.04C887.827 510.703 885.807 509.054 883.212 509.054C880.323 509.054 878.45 511.106 878.45 514.136C878.45 517.249 880.297 519.192 883.321 519.192ZM881.141 513.1C881.199 511.982 882.049 511.087 883.257 511.087C884.439 511.087 885.258 511.93 885.264 513.1H881.141ZM894.079 519.192C896.508 519.192 898.144 518.009 898.528 516.188L896.009 516.021C895.734 516.769 895.031 517.159 894.123 517.159C892.762 517.159 891.899 516.258 891.899 514.794V514.788H898.585V514.04C898.585 510.703 896.565 509.054 893.97 509.054C891.081 509.054 889.208 511.106 889.208 514.136C889.208 517.249 891.055 519.192 894.079 519.192ZM891.899 513.1C891.956 511.982 892.807 511.087 894.015 511.087C895.197 511.087 896.015 511.93 896.022 513.1H891.899ZM900.362 519H903.085V513.445C903.085 512.237 903.967 511.406 905.169 511.406C905.546 511.406 906.064 511.47 906.319 511.553V509.137C906.077 509.08 905.738 509.041 905.463 509.041C904.363 509.041 903.462 509.68 903.104 510.895H903.002V509.182H900.362V519ZM909.562 517.21H907.312L907.28 517.926C907.203 519.665 906.705 521.448 906.519 522.196H908.283C908.59 521.423 909.319 519.607 909.491 517.913L909.562 517.21ZM918.402 519.185C919.853 519.185 920.793 518.553 921.272 517.638H921.349V519H923.931V512.378C923.931 510.038 921.95 509.054 919.763 509.054C917.411 509.054 915.864 510.179 915.487 511.969L918.006 512.173C918.191 511.521 918.773 511.042 919.751 511.042C920.678 511.042 921.208 511.509 921.208 512.314V512.352C921.208 512.985 920.537 513.068 918.83 513.234C916.887 513.413 915.142 514.065 915.142 516.258C915.142 518.201 916.529 519.185 918.402 519.185ZM919.182 517.306C918.344 517.306 917.744 516.916 917.744 516.168C917.744 515.401 918.376 515.024 919.335 514.89C919.93 514.807 920.901 514.666 921.227 514.449V515.491C921.227 516.52 920.377 517.306 919.182 517.306ZM928.767 513.324C928.773 512.058 929.527 511.317 930.627 511.317C931.72 511.317 932.378 512.033 932.372 513.234V519H935.095V512.749C935.095 510.46 933.752 509.054 931.707 509.054C930.25 509.054 929.195 509.77 928.754 510.914H928.639V509.182H926.044V519H928.767V513.324ZM940.859 519.16C942.444 519.16 943.269 518.246 943.646 517.428H943.761V519H946.445V505.909H943.729V510.831H943.646C943.281 510.032 942.495 509.054 940.852 509.054C938.698 509.054 936.877 510.729 936.877 514.104C936.877 517.389 938.622 519.16 940.859 519.16ZM941.722 516.993C940.386 516.993 939.657 515.804 939.657 514.091C939.657 512.391 940.373 511.221 941.722 511.221C943.045 511.221 943.786 512.339 943.786 514.091C943.786 515.842 943.032 516.993 941.722 516.993ZM956.468 519.16C958.053 519.16 958.878 518.246 959.255 517.428H959.37V519H962.055V505.909H959.338V510.831H959.255C958.891 510.032 958.105 509.054 956.462 509.054C954.308 509.054 952.486 510.729 952.486 514.104C952.486 517.389 954.231 519.16 956.468 519.16ZM957.331 516.993C955.995 516.993 955.267 515.804 955.267 514.091C955.267 512.391 955.982 511.221 957.331 511.221C958.654 511.221 959.396 512.339 959.396 514.091C959.396 515.842 958.642 516.993 957.331 516.993ZM968.768 519.192C971.197 519.192 972.833 518.009 973.217 516.188L970.699 516.021C970.424 516.769 969.721 517.159 968.813 517.159C967.451 517.159 966.588 516.258 966.588 514.794V514.788H973.275V514.04C973.275 510.703 971.255 509.054 968.659 509.054C965.77 509.054 963.897 511.106 963.897 514.136C963.897 517.249 965.745 519.192 968.768 519.192ZM966.588 513.1C966.646 511.982 967.496 511.087 968.704 511.087C969.887 511.087 970.705 511.93 970.711 513.1H966.588ZM983.221 511.982C982.978 510.173 981.52 509.054 979.04 509.054C976.528 509.054 974.873 510.217 974.879 512.109C974.873 513.58 975.799 514.532 977.717 514.915L979.417 515.254C980.274 515.427 980.664 515.74 980.676 516.232C980.664 516.814 980.031 517.229 979.078 517.229C978.107 517.229 977.461 516.814 977.295 516.015L974.617 516.156C974.873 518.035 976.471 519.192 979.072 519.192C981.616 519.192 983.438 517.894 983.444 515.957C983.438 514.538 982.511 513.688 980.606 513.298L978.829 512.94C977.915 512.742 977.576 512.429 977.583 511.956C977.576 511.368 978.241 510.984 979.085 510.984C980.031 510.984 980.593 511.502 980.728 512.135L983.221 511.982ZM985.159 519H987.882V509.182H985.159V519ZM986.527 507.916C987.339 507.916 988.003 507.296 988.003 506.536C988.003 505.781 987.339 505.161 986.527 505.161C985.721 505.161 985.057 505.781 985.057 506.536C985.057 507.296 985.721 507.916 986.527 507.916ZM994.487 522.886C997.293 522.886 999.287 521.608 999.287 519.096V509.182H996.583V510.831H996.481C996.116 510.032 995.317 509.054 993.675 509.054C991.521 509.054 989.699 510.729 989.699 514.072C989.699 517.338 991.469 518.859 993.681 518.859C995.247 518.859 996.123 518.073 996.481 517.261H996.596V519.058C996.596 520.406 995.733 520.93 994.55 520.93C993.349 520.93 992.741 520.406 992.518 519.812L989.999 520.151C990.325 521.697 991.84 522.886 994.487 522.886ZM994.544 516.814C993.208 516.814 992.479 515.753 992.479 514.059C992.479 512.391 993.195 511.221 994.544 511.221C995.867 511.221 996.609 512.339 996.609 514.059C996.609 515.791 995.854 516.814 994.544 516.814ZM1004.18 513.324C1004.18 512.058 1004.94 511.317 1006.04 511.317C1007.13 511.317 1007.79 512.033 1007.78 513.234V519H1010.5V512.749C1010.5 510.46 1009.16 509.054 1007.12 509.054C1005.66 509.054 1004.61 509.77 1004.16 510.914H1004.05V509.182H1001.45V519H1004.18V513.324ZM1021.25 519.192C1024.23 519.192 1026.09 517.153 1026.09 514.129C1026.09 511.087 1024.23 509.054 1021.25 509.054C1018.27 509.054 1016.42 511.087 1016.42 514.129C1016.42 517.153 1018.27 519.192 1021.25 519.192ZM1021.27 517.082C1019.89 517.082 1019.19 515.823 1019.19 514.11C1019.19 512.397 1019.89 511.131 1021.27 511.131C1022.61 511.131 1023.32 512.397 1023.32 514.11C1023.32 515.823 1022.61 517.082 1021.27 517.082ZM1030.58 513.324C1030.59 512.058 1031.34 511.317 1032.44 511.317C1033.53 511.317 1034.19 512.033 1034.18 513.234V519H1036.91V512.749C1036.91 510.46 1035.56 509.054 1033.52 509.054C1032.06 509.054 1031.01 509.77 1030.57 510.914H1030.45V509.182H1027.86V519H1030.58V513.324ZM1043.53 519.192C1045.96 519.192 1047.59 518.009 1047.98 516.188L1045.46 516.021C1045.18 516.769 1044.48 517.159 1043.57 517.159C1042.21 517.159 1041.35 516.258 1041.35 514.794V514.788H1048.03V514.04C1048.03 510.703 1046.01 509.054 1043.42 509.054C1040.53 509.054 1038.66 511.106 1038.66 514.136C1038.66 517.249 1040.5 519.192 1043.53 519.192ZM1041.35 513.1C1041.41 511.982 1042.26 511.087 1043.46 511.087C1044.65 511.087 1045.46 511.93 1045.47 513.1H1041.35ZM1059.2 509.182H1057.35V506.83H1054.63V509.182H1053.29V511.227H1054.63V516.341C1054.62 518.265 1055.93 519.217 1057.9 519.134C1058.61 519.109 1059.1 518.968 1059.38 518.879L1058.95 516.852C1058.82 516.878 1058.53 516.942 1058.27 516.942C1057.73 516.942 1057.35 516.737 1057.35 515.983V511.227H1059.2V509.182ZM1063.91 513.324C1063.91 512.058 1064.69 511.317 1065.8 511.317C1066.91 511.317 1067.56 512.026 1067.55 513.234V519H1070.27V512.749C1070.28 510.447 1068.93 509.054 1066.88 509.054C1065.39 509.054 1064.39 509.757 1063.95 510.914H1063.83V505.909H1061.18V519H1063.91V513.324ZM1075.22 519.185C1076.67 519.185 1077.61 518.553 1078.09 517.638H1078.16V519H1080.75V512.378C1080.75 510.038 1078.76 509.054 1076.58 509.054C1074.23 509.054 1072.68 510.179 1072.3 511.969L1074.82 512.173C1075.01 511.521 1075.59 511.042 1076.57 511.042C1077.49 511.042 1078.02 511.509 1078.02 512.314V512.352C1078.02 512.985 1077.35 513.068 1075.64 513.234C1073.7 513.413 1071.96 514.065 1071.96 516.258C1071.96 518.201 1073.34 519.185 1075.22 519.185ZM1076 517.306C1075.16 517.306 1074.56 516.916 1074.56 516.168C1074.56 515.401 1075.19 515.024 1076.15 514.89C1076.74 514.807 1077.72 514.666 1078.04 514.449V515.491C1078.04 516.52 1077.19 517.306 1076 517.306ZM1088.08 509.182H1086.23V506.83H1083.51V509.182H1082.17V511.227H1083.51V516.341C1083.5 518.265 1084.81 519.217 1086.78 519.134C1087.49 519.109 1087.98 518.968 1088.26 518.879L1087.83 516.852C1087.7 516.878 1087.41 516.942 1087.15 516.942C1086.61 516.942 1086.23 516.737 1086.23 515.983V511.227H1088.08V509.182ZM1095.96 519H1098.83L1100.52 512.825H1100.64L1102.33 519H1105.21L1107.88 509.182H1105.13L1103.63 515.74H1103.55L1101.94 509.182H1099.24L1097.65 515.778H1097.56L1096.04 509.182H1093.29L1095.96 519ZM1113.52 519.192C1116.5 519.192 1118.35 517.153 1118.35 514.129C1118.35 511.087 1116.5 509.054 1113.52 509.054C1110.54 509.054 1108.69 511.087 1108.69 514.129C1108.69 517.153 1110.54 519.192 1113.52 519.192ZM1113.53 517.082C1112.16 517.082 1111.46 515.823 1111.46 514.11C1111.46 512.397 1112.16 511.131 1113.53 511.131C1114.88 511.131 1115.59 512.397 1115.59 514.11C1115.59 515.823 1114.88 517.082 1113.53 517.082ZM1120.12 519H1122.85V513.445C1122.85 512.237 1123.73 511.406 1124.93 511.406C1125.31 511.406 1125.83 511.47 1126.08 511.553V509.137C1125.84 509.08 1125.5 509.041 1125.22 509.041C1124.13 509.041 1123.22 509.68 1122.87 510.895H1122.76V509.182H1120.12V519ZM1127.49 519H1130.21V515.881L1130.95 515.043L1133.63 519H1136.81L1132.99 513.433L1136.63 509.182H1133.5L1130.36 512.908H1130.21V505.909H1127.49V519ZM1146.13 511.982C1145.89 510.173 1144.43 509.054 1141.95 509.054C1139.44 509.054 1137.79 510.217 1137.79 512.109C1137.79 513.58 1138.71 514.532 1140.63 514.915L1142.33 515.254C1143.19 515.427 1143.58 515.74 1143.59 516.232C1143.58 516.814 1142.94 517.229 1141.99 517.229C1141.02 517.229 1140.38 516.814 1140.21 516.015L1137.53 516.156C1137.79 518.035 1139.38 519.192 1141.99 519.192C1144.53 519.192 1146.35 517.894 1146.36 515.957C1146.35 514.538 1145.43 513.688 1143.52 513.298L1141.74 512.94C1140.83 512.742 1140.49 512.429 1140.5 511.956C1140.49 511.368 1141.16 510.984 1142 510.984C1142.94 510.984 1143.51 511.502 1143.64 512.135L1146.13 511.982ZM1157.52 509.182H1155.57V508.523C1155.57 507.859 1155.84 507.469 1156.64 507.469C1156.96 507.469 1157.3 507.539 1157.51 507.609L1157.99 505.564C1157.65 505.462 1156.91 505.295 1156.07 505.295C1154.22 505.295 1152.85 506.337 1152.85 508.472V509.182H1151.46V511.227H1152.85V519H1155.57V511.227H1157.52V509.182ZM1163.27 519.192C1166.25 519.192 1168.1 517.153 1168.1 514.129C1168.1 511.087 1166.25 509.054 1163.27 509.054C1160.29 509.054 1158.43 511.087 1158.43 514.129C1158.43 517.153 1160.29 519.192 1163.27 519.192ZM1163.28 517.082C1161.91 517.082 1161.2 515.823 1161.2 514.11C1161.2 512.397 1161.91 511.131 1163.28 511.131C1164.63 511.131 1165.33 512.397 1165.33 514.11C1165.33 515.823 1164.63 517.082 1163.28 517.082ZM1169.87 519H1172.59V513.445C1172.59 512.237 1173.47 511.406 1174.68 511.406C1175.05 511.406 1175.57 511.47 1175.83 511.553V509.137C1175.58 509.08 1175.25 509.041 1174.97 509.041C1173.87 509.041 1172.97 509.68 1172.61 510.895H1172.51V509.182H1169.87V519ZM1183.08 522.682C1185.11 522.682 1186.18 521.646 1186.74 520.061L1190.55 509.195L1187.67 509.182L1185.62 516.392H1185.52L1183.48 509.182H1180.62L1184.14 519.281L1183.98 519.697C1183.63 520.617 1182.94 520.662 1181.98 520.368L1181.37 522.401C1181.76 522.567 1182.39 522.682 1183.08 522.682ZM1196.05 519.192C1199.03 519.192 1200.88 517.153 1200.88 514.129C1200.88 511.087 1199.03 509.054 1196.05 509.054C1193.07 509.054 1191.22 511.087 1191.22 514.129C1191.22 517.153 1193.07 519.192 1196.05 519.192ZM1196.06 517.082C1194.69 517.082 1193.99 515.823 1193.99 514.11C1193.99 512.397 1194.69 511.131 1196.06 511.131C1197.41 511.131 1198.11 512.397 1198.11 514.11C1198.11 515.823 1197.41 517.082 1196.06 517.082ZM1208.95 514.82C1208.96 516.136 1208.05 516.827 1207.08 516.827C1206.05 516.827 1205.38 516.104 1205.38 514.947V509.182H1202.65V515.433C1202.66 517.728 1204 519.128 1205.98 519.128C1207.45 519.128 1208.51 518.367 1208.96 517.217H1209.06V519H1211.67V509.182H1208.95V514.82ZM1215.44 519.166C1216.26 519.166 1216.97 518.482 1216.98 517.632C1216.97 516.795 1216.26 516.111 1215.44 516.111C1214.6 516.111 1213.9 516.795 1213.91 517.632C1213.9 518.482 1214.6 519.166 1215.44 519.166Z" fill="black"/>
<path d="M741.986 564.565H745.523C745.472 561.455 742.915 559.307 739.028 559.307C735.202 559.307 732.398 561.42 732.415 564.591C732.406 567.165 734.222 568.639 737.17 569.347L739.071 569.824C740.972 570.284 742.028 570.83 742.037 572.006C742.028 573.284 740.818 574.153 738.943 574.153C737.026 574.153 735.645 573.267 735.526 571.52H731.955C732.048 575.295 734.75 577.247 738.986 577.247C743.247 577.247 745.753 575.21 745.761 572.014C745.753 569.108 743.562 567.565 740.528 566.884L738.96 566.509C737.443 566.159 736.173 565.597 736.199 564.344C736.199 563.219 737.196 562.392 739.003 562.392C740.767 562.392 741.849 563.193 741.986 564.565ZM751.934 559.545H748.244V577H751.934V559.545ZM766.544 565.188H770.294C769.817 561.736 766.774 559.307 762.828 559.307C758.217 559.307 754.663 562.631 754.663 568.29C754.663 573.812 757.987 577.239 762.905 577.239C767.311 577.239 770.456 574.452 770.456 569.858V567.659H763.152V570.438H766.902C766.851 572.602 765.376 573.974 762.922 573.974C760.152 573.974 758.405 571.903 758.405 568.256C758.405 564.625 760.22 562.571 762.888 562.571C764.788 562.571 766.075 563.551 766.544 565.188ZM787.827 559.545H784.154V570.523H784.001L776.467 559.545H773.228V577H776.918V566.014H777.046L784.64 577H787.827V559.545ZM807.212 559.545V570.565C807.212 572.56 805.815 574 803.667 574C801.528 574 800.121 572.56 800.121 570.565V559.545H796.431V570.881C796.431 574.699 799.312 577.247 803.667 577.247C808.005 577.247 810.903 574.699 810.903 570.881V559.545H807.212ZM813.939 577H817.629V571.341H820.732C824.746 571.341 827.081 568.946 827.081 565.46C827.081 561.991 824.788 559.545 820.825 559.545H813.939V577ZM817.629 568.384V562.562H820.118C822.249 562.562 823.28 563.722 823.28 565.46C823.28 567.19 822.249 568.384 820.135 568.384H817.629ZM834.368 562.588H839.712V577H843.359V562.588H848.703V559.545H834.368V562.588ZM866.33 568.273C866.33 562.562 862.785 559.307 858.157 559.307C853.504 559.307 849.984 562.562 849.984 568.273C849.984 573.957 853.504 577.239 858.157 577.239C862.785 577.239 866.33 573.983 866.33 568.273ZM862.589 568.273C862.589 571.972 860.833 573.974 858.157 573.974C855.472 573.974 853.725 571.972 853.725 568.273C853.725 564.574 855.472 562.571 858.157 562.571C860.833 562.571 862.589 564.574 862.589 568.273ZM875.251 577C880.57 577 883.791 573.71 883.791 568.256C883.791 562.818 880.57 559.545 875.303 559.545H869.064V577H875.251ZM872.754 573.838V562.707H875.107C878.379 562.707 880.109 564.378 880.109 568.256C880.109 572.151 878.379 573.838 875.098 573.838H872.754ZM888.549 577L889.844 573.02H896.143L897.438 577H901.393L895.376 559.545H890.62L884.594 577H888.549ZM890.782 570.139L892.93 563.534H893.066L895.214 570.139H890.782ZM900.69 559.545L907.056 570.83V577H910.721V570.83L917.087 559.545H912.954L908.974 567.062H908.803L904.823 559.545H900.69Z" fill="black"/>
<path d="M742.759 436.818V455.074C742.746 457.592 741.621 458.922 739.575 458.922C737.645 458.922 736.392 457.72 736.354 455.636H730.844C730.818 460.865 734.551 463.358 739.294 463.358C744.599 463.358 748.217 460.149 748.23 455.074V436.818H742.759ZM761.577 463.384C767.534 463.384 771.241 459.305 771.241 453.259C771.241 447.173 767.534 443.108 761.577 443.108C755.619 443.108 751.912 447.173 751.912 453.259C751.912 459.305 755.619 463.384 761.577 463.384ZM761.602 459.165C758.854 459.165 757.447 456.646 757.447 453.22C757.447 449.794 758.854 447.263 761.602 447.263C764.3 447.263 765.706 449.794 765.706 453.22C765.706 456.646 764.3 459.165 761.602 459.165ZM774.885 463H780.254V459.855H780.497C781.251 461.491 782.901 463.32 786.071 463.32C790.545 463.32 794.036 459.778 794.036 453.207C794.036 446.457 790.392 443.108 786.084 443.108C782.798 443.108 781.226 445.064 780.497 446.662H780.331V436.818H774.885V463ZM780.216 453.182C780.216 449.679 781.699 447.442 784.345 447.442C787.043 447.442 788.474 449.781 788.474 453.182C788.474 456.608 787.017 458.986 784.345 458.986C781.724 458.986 780.216 456.685 780.216 453.182ZM811.447 451.648C811.46 449.116 813.007 447.634 815.232 447.634C817.443 447.634 818.747 449.053 818.734 451.469V463H824.18V450.497C824.193 445.895 821.483 443.108 817.392 443.108C814.413 443.108 812.419 444.514 811.524 446.828H811.294V436.818H806.001V463H811.447V451.648ZM841.059 454.639C841.071 457.273 839.269 458.653 837.313 458.653C835.255 458.653 833.925 457.209 833.912 454.895V443.364H828.466V455.866C828.479 460.456 831.164 463.256 835.114 463.256C838.067 463.256 840.189 461.734 841.071 459.433H841.276V463H846.505V443.364H841.059V454.639ZM856.307 451.648C856.32 449.116 857.828 447.634 860.027 447.634C862.213 447.634 863.53 449.065 863.517 451.469V463H868.963V450.497C868.963 445.92 866.278 443.108 862.188 443.108C859.273 443.108 857.163 444.54 856.281 446.828H856.051V443.364H850.861V463H856.307V451.648ZM883.7 443.364H880.005V438.659H874.559V443.364H871.875V447.455H874.559V457.682C874.534 461.53 877.154 463.435 881.105 463.268C882.511 463.217 883.508 462.936 884.058 462.757L883.201 458.705C882.933 458.756 882.358 458.884 881.846 458.884C880.76 458.884 880.005 458.474 880.005 456.966V447.455H883.7V443.364ZM887.248 463H892.694V443.364H887.248V463ZM889.983 440.832C891.607 440.832 892.936 439.592 892.936 438.071C892.936 436.562 891.607 435.322 889.983 435.322C888.373 435.322 887.043 436.562 887.043 438.071C887.043 439.592 888.373 440.832 889.983 440.832ZM902.502 451.648C902.515 449.116 904.023 447.634 906.222 447.634C908.408 447.634 909.725 449.065 909.712 451.469V463H915.158V450.497C915.158 445.92 912.474 443.108 908.383 443.108C905.468 443.108 903.359 444.54 902.477 446.828H902.246V443.364H897.056V463H902.502V451.648ZM928.297 470.773C933.909 470.773 937.898 468.216 937.898 463.192V443.364H932.49V446.662H932.286C931.557 445.064 929.959 443.108 926.674 443.108C922.365 443.108 918.722 446.457 918.722 453.143C918.722 459.676 922.263 462.719 926.686 462.719C929.819 462.719 931.57 461.146 932.286 459.523H932.516V463.115C932.516 465.812 930.79 466.861 928.425 466.861C926.022 466.861 924.807 465.812 924.36 464.624L919.323 465.301C919.975 468.395 923.005 470.773 928.297 470.773ZM928.412 458.628C925.74 458.628 924.283 456.506 924.283 453.118C924.283 449.781 925.715 447.442 928.412 447.442C931.059 447.442 932.542 449.679 932.542 453.118C932.542 456.582 931.033 458.628 928.412 458.628ZM954.438 463H960.19L963.565 450.651H963.808L967.183 463H972.949L978.28 443.364H972.783L969.791 456.48H969.625L966.403 443.364H960.996L957.825 456.557H957.646L954.604 443.364H949.094L954.438 463ZM981.185 463H986.631V443.364H981.185V463ZM983.921 440.832C985.544 440.832 986.874 439.592 986.874 438.071C986.874 436.562 985.544 435.322 983.921 435.322C982.31 435.322 980.98 436.562 980.98 438.071C980.98 439.592 982.31 440.832 983.921 440.832ZM1001.44 443.364H997.744V438.659H992.298V443.364H989.613V447.455H992.298V457.682C992.272 461.53 994.893 463.435 998.843 463.268C1000.25 463.217 1001.25 462.936 1001.8 462.757L1000.94 458.705C1000.67 458.756 1000.1 458.884 999.585 458.884C998.498 458.884 997.744 458.474 997.744 456.966V447.455H1001.44V443.364ZM1010.85 451.648C1010.87 449.116 1012.41 447.634 1014.64 447.634C1016.85 447.634 1018.15 449.053 1018.14 451.469V463H1023.59V450.497C1023.6 445.895 1020.89 443.108 1016.8 443.108C1013.82 443.108 1011.83 444.514 1010.93 446.828H1010.7V436.818H1005.41V463H1010.85V451.648ZM1041.8 463.371C1044.71 463.371 1046.59 462.105 1047.54 460.277H1047.7V463H1052.86V449.756C1052.86 445.077 1048.9 443.108 1044.53 443.108C1039.82 443.108 1036.73 445.358 1035.97 448.938L1041.01 449.347C1041.38 448.043 1042.55 447.084 1044.5 447.084C1046.36 447.084 1047.42 448.017 1047.42 449.628V449.705C1047.42 450.97 1046.07 451.136 1042.66 451.469C1038.77 451.827 1035.28 453.131 1035.28 457.516C1035.28 461.402 1038.06 463.371 1041.8 463.371ZM1043.36 459.612C1041.69 459.612 1040.49 458.832 1040.49 457.337C1040.49 455.803 1041.75 455.048 1043.67 454.78C1044.86 454.614 1046.8 454.332 1047.45 453.898V455.982C1047.45 458.04 1045.75 459.612 1043.36 459.612ZM1075.98 443.364H1072.08V442.047C1072.08 440.717 1072.62 439.938 1074.21 439.938C1074.87 439.938 1075.53 440.078 1075.97 440.219L1076.93 436.128C1076.25 435.923 1074.75 435.591 1073.08 435.591C1069.38 435.591 1066.63 437.675 1066.63 441.945V443.364H1063.86V447.455H1066.63V463H1072.08V447.455H1075.98V443.364ZM1087.48 463.384C1093.43 463.384 1097.14 459.305 1097.14 453.259C1097.14 447.173 1093.43 443.108 1087.48 443.108C1081.52 443.108 1077.81 447.173 1077.81 453.259C1077.81 459.305 1081.52 463.384 1087.48 463.384ZM1087.5 459.165C1084.75 459.165 1083.35 456.646 1083.35 453.22C1083.35 449.794 1084.75 447.263 1087.5 447.263C1090.2 447.263 1091.6 449.794 1091.6 453.22C1091.6 456.646 1090.2 459.165 1087.5 459.165ZM1109.55 463.384C1114.78 463.384 1118.07 460.315 1118.32 455.803H1113.18C1112.86 457.899 1111.48 459.075 1109.62 459.075C1107.07 459.075 1105.42 456.94 1105.42 453.182C1105.42 449.474 1107.09 447.352 1109.62 447.352C1111.61 447.352 1112.89 448.669 1113.18 450.625H1118.32C1118.09 446.087 1114.65 443.108 1109.53 443.108C1103.57 443.108 1099.89 447.237 1099.89 453.259C1099.89 459.229 1103.51 463.384 1109.55 463.384ZM1134.4 454.639C1134.42 457.273 1132.61 458.653 1130.66 458.653C1128.6 458.653 1127.27 457.209 1127.26 454.895V443.364H1121.81V455.866C1121.82 460.456 1124.51 463.256 1128.46 463.256C1131.41 463.256 1133.53 461.734 1134.42 459.433H1134.62V463H1139.85V443.364H1134.4V454.639ZM1160.54 448.963C1160.06 445.345 1157.14 443.108 1152.18 443.108C1147.16 443.108 1143.85 445.435 1143.86 449.219C1143.85 452.159 1145.7 454.064 1149.54 454.831L1152.94 455.509C1154.65 455.854 1155.43 456.48 1155.45 457.464C1155.43 458.628 1154.16 459.459 1152.26 459.459C1150.32 459.459 1149.02 458.628 1148.69 457.03L1143.34 457.311C1143.85 461.07 1147.04 463.384 1152.25 463.384C1157.33 463.384 1160.98 460.788 1160.99 456.915C1160.98 454.077 1159.12 452.376 1155.31 451.597L1151.76 450.881C1149.93 450.484 1149.25 449.858 1149.27 448.912C1149.25 447.736 1150.58 446.969 1152.27 446.969C1154.16 446.969 1155.29 448.004 1155.56 449.27L1160.54 448.963Z" fill="black"/>
<path d="M730 638C730 632.477 734.477 628 740 628H1192C1197.52 628 1202 632.477 1202 638V674C1202 679.523 1197.52 684 1192 684H740C734.477 684 730 679.523 730 674V638Z" fill="white"/>
<path d="M760.948 658H768.32V656.098H763.255V653.494H767.921V651.592H763.255V648.993H768.299V647.091H760.948V658ZM770.09 658H772.359V653.089C772.359 652.183 772.935 651.581 773.691 651.581C774.437 651.581 774.937 652.093 774.937 652.897V658H777.137V653.004C777.137 652.157 777.622 651.581 778.448 651.581C779.172 651.581 779.715 652.034 779.715 652.945V658H781.979V652.498C781.979 650.724 780.925 649.712 779.401 649.712C778.203 649.712 777.271 650.324 776.935 651.262H776.85C776.589 650.314 775.752 649.712 774.628 649.712C773.526 649.712 772.69 650.298 772.349 651.262H772.253V649.818H770.09V658ZM786.105 658.154C787.314 658.154 788.097 657.627 788.497 656.865H788.56V658H790.712V652.482C790.712 650.532 789.061 649.712 787.239 649.712C785.279 649.712 783.99 650.649 783.676 652.141L785.775 652.311C785.929 651.768 786.414 651.368 787.229 651.368C788.001 651.368 788.443 651.757 788.443 652.428V652.46C788.443 652.988 787.884 653.057 786.462 653.195C784.842 653.344 783.388 653.888 783.388 655.715C783.388 657.334 784.544 658.154 786.105 658.154ZM786.755 656.588C786.057 656.588 785.556 656.263 785.556 655.64C785.556 655.001 786.084 654.687 786.883 654.575C787.378 654.506 788.188 654.388 788.459 654.207V655.076C788.459 655.933 787.751 656.588 786.755 656.588ZM792.473 658H794.742V649.818H792.473V658ZM793.613 648.763C794.289 648.763 794.843 648.247 794.843 647.613C794.843 646.984 794.289 646.468 793.613 646.468C792.942 646.468 792.388 646.984 792.388 647.613C792.388 648.247 792.942 648.763 793.613 648.763ZM798.829 647.091H796.56V658H798.829V647.091Z" fill="#C7CADD"/>
<path d="M730 730C730 724.477 734.477 720 740 720H1192C1197.52 720 1202 724.477 1202 730V766C1202 771.523 1197.52 776 1192 776H740C734.477 776 730 771.523 730 766V730Z" fill="white"/>
<path d="M760.948 753H763.255V749.463H765.194C767.702 749.463 769.162 747.966 769.162 745.788C769.162 743.62 767.729 742.091 765.252 742.091H760.948V753ZM763.255 747.615V743.977H764.81C766.142 743.977 766.786 744.701 766.786 745.788C766.786 746.869 766.142 747.615 764.821 747.615H763.255ZM772.731 753.154C773.94 753.154 774.723 752.627 775.123 751.865H775.186V753H777.338V747.482C777.338 745.532 775.687 744.712 773.865 744.712C771.905 744.712 770.616 745.649 770.302 747.141L772.401 747.311C772.555 746.768 773.04 746.368 773.855 746.368C774.627 746.368 775.069 746.757 775.069 747.428V747.46C775.069 747.988 774.51 748.057 773.088 748.195C771.468 748.344 770.014 748.888 770.014 750.715C770.014 752.334 771.17 753.154 772.731 753.154ZM773.381 751.588C772.683 751.588 772.182 751.263 772.182 750.64C772.182 750.001 772.71 749.687 773.509 749.575C774.004 749.506 774.814 749.388 775.085 749.207V750.076C775.085 750.933 774.377 751.588 773.381 751.588ZM785.906 747.151C785.704 745.644 784.49 744.712 782.423 744.712C780.329 744.712 778.95 745.681 778.955 747.258C778.95 748.483 779.722 749.277 781.32 749.596L782.737 749.879C783.451 750.022 783.776 750.283 783.786 750.694C783.776 751.178 783.248 751.525 782.455 751.525C781.645 751.525 781.107 751.178 780.969 750.512L778.737 750.63C778.95 752.196 780.281 753.16 782.449 753.16C784.569 753.16 786.088 752.078 786.093 750.464C786.088 749.282 785.315 748.574 783.728 748.249L782.247 747.95C781.485 747.785 781.203 747.524 781.208 747.13C781.203 746.64 781.757 746.32 782.46 746.32C783.248 746.32 783.717 746.752 783.829 747.279L785.906 747.151ZM794.329 747.151C794.127 745.644 792.912 744.712 790.846 744.712C788.752 744.712 787.373 745.681 787.378 747.258C787.373 748.483 788.145 749.277 789.743 749.596L791.16 749.879C791.874 750.022 792.199 750.283 792.209 750.694C792.199 751.178 791.671 751.525 790.878 751.525C790.068 751.525 789.53 751.178 789.391 750.512L787.16 750.63C787.373 752.196 788.704 753.16 790.872 753.16C792.992 753.16 794.51 752.078 794.516 750.464C794.51 749.282 793.738 748.574 792.151 748.249L790.67 747.95C789.908 747.785 789.626 747.524 789.631 747.13C789.626 746.64 790.18 746.32 790.883 746.32C791.671 746.32 792.14 746.752 792.252 747.279L794.329 747.151ZM797.559 753H799.956L801.362 747.854H801.463L802.869 753H805.272L807.493 744.818H805.202L803.956 750.283H803.887L802.544 744.818H800.291L798.97 750.315H798.896L797.628 744.818H795.332L797.559 753ZM812.195 753.16C814.677 753.16 816.222 751.461 816.222 748.941C816.222 746.406 814.677 744.712 812.195 744.712C809.713 744.712 808.168 746.406 808.168 748.941C808.168 751.461 809.713 753.16 812.195 753.16ZM812.206 751.402C811.06 751.402 810.475 750.353 810.475 748.925C810.475 747.498 811.06 746.443 812.206 746.443C813.33 746.443 813.916 747.498 813.916 748.925C813.916 750.353 813.33 751.402 812.206 751.402ZM817.698 753H819.967V748.371C819.967 747.364 820.702 746.672 821.703 746.672C822.017 746.672 822.449 746.725 822.662 746.794V744.781C822.46 744.733 822.177 744.701 821.948 744.701C821.032 744.701 820.281 745.234 819.983 746.246H819.897V744.818H817.698V753ZM826.469 753.133C827.79 753.133 828.477 752.371 828.792 751.69H828.888V753H831.125V742.091H828.861V746.192H828.792C828.488 745.527 827.833 744.712 826.464 744.712C824.669 744.712 823.151 746.107 823.151 748.92C823.151 751.658 824.605 753.133 826.469 753.133ZM827.188 751.327C826.075 751.327 825.468 750.337 825.468 748.909C825.468 747.492 826.064 746.517 827.188 746.517C828.291 746.517 828.909 747.45 828.909 748.909C828.909 750.369 828.28 751.327 827.188 751.327Z" fill="#C7CADD"/>
<path d="M414.469 335.071L416.078 330.54H422.547L424.156 335.071H426.188L420.313 319.071H418.313L412.438 335.071H414.469ZM416.688 328.821L419.25 321.603H419.375L421.938 328.821H416.688ZM428.68 335.071H438.055V333.353H430.617V319.071H428.68V335.071ZM441.055 335.071H450.43V333.353H442.992V319.071H441.055V335.071ZM466.307 327.071C466.307 322.009 463.338 318.853 459.244 318.853C455.15 318.853 452.182 322.009 452.182 327.071C452.182 332.134 455.15 335.29 459.244 335.29C463.338 335.29 466.307 332.134 466.307 327.071ZM464.432 327.071C464.432 331.228 462.15 333.478 459.244 333.478C456.338 333.478 454.057 331.228 454.057 327.071C454.057 322.915 456.338 320.665 459.244 320.665C462.15 320.665 464.432 322.915 464.432 327.071Z" fill="#2EC4B6"/>
<rect x="312" y="300" width="80.0095" height="75" rx="12" fill="#2EC4B6"/>
<path d="M369.335 340.422C369.335 343.853 368.641 346.88 367.253 349.501C365.904 352.084 363.957 354.07 361.412 355.458C358.906 356.846 355.957 357.54 352.564 357.54C347.359 357.54 343.292 356.017 340.361 352.971C337.431 349.925 335.966 345.742 335.966 340.422C335.966 335.14 337.431 331.014 340.361 328.046C343.292 325.039 347.378 323.535 352.622 323.535C357.865 323.535 361.952 325.039 364.882 328.046C367.851 331.053 369.335 335.178 369.335 340.422ZM362.28 340.422C362.28 336.875 361.431 334.08 359.735 332.036C358.039 329.993 355.667 328.971 352.622 328.971C349.537 328.971 347.147 329.993 345.451 332.036C343.754 334.041 342.906 336.836 342.906 340.422C342.906 344.046 343.773 346.899 345.508 348.981C347.243 351.063 349.595 352.104 352.564 352.104C355.648 352.104 358.039 351.101 359.735 349.096C361.431 347.053 362.28 344.161 362.28 340.422Z" fill="white"/>
<path d="M412.455 348.058V357.178C412.455 357.837 412.176 358.166 411.398 358.166C411.296 358.166 411.205 358.166 411.08 358.155V360.047C411.256 360.053 411.398 360.058 411.568 360.058C413.625 360.058 414.875 359.24 414.875 357.217V348.058H412.455ZM413.659 346.933C414.381 346.933 414.972 346.382 414.972 345.706C414.972 345.036 414.381 344.485 413.659 344.485C412.943 344.485 412.352 345.036 412.352 345.706C412.352 346.382 412.943 346.933 413.659 346.933ZM420.757 356.956C423.405 356.956 425.053 355.144 425.053 352.456C425.053 349.752 423.405 347.945 420.757 347.945C418.11 347.945 416.462 349.752 416.462 352.456C416.462 355.144 418.11 356.956 420.757 356.956ZM420.769 355.081C419.547 355.081 418.922 353.962 418.922 352.439C418.922 350.916 419.547 349.791 420.769 349.791C421.967 349.791 422.592 350.916 422.592 352.439C422.592 353.962 421.967 355.081 420.769 355.081ZM426.672 356.786H429.058V355.388H429.166C429.502 356.115 430.235 356.928 431.644 356.928C433.632 356.928 435.183 355.354 435.183 352.433C435.183 349.433 433.564 347.945 431.649 347.945C430.189 347.945 429.49 348.814 429.166 349.524H429.092V345.149H426.672V356.786ZM429.041 352.422C429.041 350.865 429.7 349.871 430.877 349.871C432.075 349.871 432.712 350.911 432.712 352.422C432.712 353.945 432.064 355.002 430.877 355.002C429.712 355.002 429.041 353.979 429.041 352.422ZM444.06 350.547C443.844 348.939 442.548 347.945 440.344 347.945C438.111 347.945 436.639 348.979 436.645 350.661C436.639 351.967 437.463 352.814 439.168 353.155L440.679 353.456C441.44 353.61 441.787 353.888 441.798 354.325C441.787 354.842 441.225 355.212 440.378 355.212C439.514 355.212 438.94 354.842 438.793 354.132L436.412 354.257C436.639 355.928 438.06 356.956 440.372 356.956C442.634 356.956 444.253 355.803 444.259 354.081C444.253 352.82 443.429 352.064 441.736 351.717L440.156 351.399C439.344 351.223 439.043 350.945 439.048 350.524C439.043 350.002 439.634 349.661 440.384 349.661C441.225 349.661 441.725 350.121 441.844 350.683L444.06 350.547Z" fill="#8DA1B5"/>
<rect x="1047" y="832" width="138.24" height="44.4375" rx="10" fill="#2EC4B6"/>
<path d="M1097.26 859.812H1104.08V858.562H1098.67V848.176H1097.26V859.812ZM1109.62 859.994C1111.98 859.994 1113.58 858.199 1113.58 855.494C1113.58 852.767 1111.98 850.972 1109.62 850.972C1107.26 850.972 1105.67 852.767 1105.67 855.494C1105.67 858.199 1107.26 859.994 1109.62 859.994ZM1109.62 858.79C1107.83 858.79 1107.01 857.244 1107.01 855.494C1107.01 853.744 1107.83 852.176 1109.62 852.176C1111.42 852.176 1112.23 853.744 1112.23 855.494C1112.23 857.244 1111.42 858.79 1109.62 858.79ZM1119.14 863.267C1121.24 863.267 1122.92 862.312 1122.92 860.062V851.085H1121.62V852.472H1121.49C1121.19 852.017 1120.64 850.972 1118.94 850.972C1116.74 850.972 1115.21 852.722 1115.21 855.403C1115.21 858.131 1116.8 859.676 1118.92 859.676C1120.62 859.676 1121.17 858.676 1121.46 858.199H1121.58V859.972C1121.58 861.426 1120.55 862.085 1119.14 862.085C1117.56 862.085 1117 861.25 1116.64 860.767L1115.58 861.517C1116.12 862.432 1117.2 863.267 1119.14 863.267ZM1119.1 858.472C1117.42 858.472 1116.55 857.199 1116.55 855.381C1116.55 853.608 1117.39 852.176 1119.1 852.176C1120.74 852.176 1121.6 853.494 1121.6 855.381C1121.6 857.312 1120.71 858.472 1119.1 858.472ZM1125.37 859.812H1126.71V851.085H1125.37V859.812ZM1126.05 849.631C1126.58 849.631 1127.01 849.222 1127.01 848.722C1127.01 848.222 1126.58 847.812 1126.05 847.812C1125.53 847.812 1125.1 848.222 1125.1 848.722C1125.1 849.222 1125.53 849.631 1126.05 849.631ZM1130.51 854.562C1130.51 853.04 1131.45 852.176 1132.74 852.176C1133.98 852.176 1134.74 852.989 1134.74 854.358V859.812H1136.08V854.267C1136.08 852.04 1134.89 850.972 1133.12 850.972C1131.81 850.972 1130.99 851.562 1130.58 852.449H1130.46V851.085H1129.17V859.812H1130.51V854.562Z" fill="white"/>
<rect x="741" y="832" width="138.24" height="44.4375" rx="10" fill="#2EC4B6"/>
<path d="M790.019 851.085H791.383C791.32 849.33 789.701 848.017 787.451 848.017C785.224 848.017 783.474 849.312 783.474 851.267C783.474 852.835 784.61 853.767 786.428 854.29L787.86 854.699C789.087 855.04 790.178 855.472 790.178 856.631C790.178 857.903 788.951 858.744 787.337 858.744C785.951 858.744 784.724 858.131 784.61 856.812H783.156C783.292 858.722 784.837 860.017 787.337 860.017C790.019 860.017 791.542 858.54 791.542 856.653C791.542 854.472 789.474 853.767 788.269 853.449L787.087 853.131C786.224 852.903 784.837 852.449 784.837 851.199C784.837 850.085 785.86 849.267 787.406 849.267C788.815 849.267 789.883 849.938 790.019 851.085ZM793.677 859.812H795.018V851.085H793.677V859.812ZM794.359 849.631C794.881 849.631 795.313 849.222 795.313 848.722C795.313 848.222 794.881 847.812 794.359 847.812C793.836 847.812 793.404 848.222 793.404 848.722C793.404 849.222 793.836 849.631 794.359 849.631ZM800.997 863.267C803.087 863.267 804.769 862.312 804.769 860.062V851.085H803.474V852.472H803.337C803.042 852.017 802.497 850.972 800.792 850.972C798.587 850.972 797.065 852.722 797.065 855.403C797.065 858.131 798.656 859.676 800.769 859.676C802.474 859.676 803.019 858.676 803.315 858.199H803.428V859.972C803.428 861.426 802.406 862.085 800.997 862.085C799.411 862.085 798.854 861.25 798.497 860.767L797.428 861.517C797.974 862.432 799.048 863.267 800.997 863.267ZM800.951 858.472C799.269 858.472 798.406 857.199 798.406 855.381C798.406 853.608 799.247 852.176 800.951 852.176C802.587 852.176 803.451 853.494 803.451 855.381C803.451 857.312 802.565 858.472 800.951 858.472ZM808.565 854.562C808.565 853.04 809.508 852.176 810.792 852.176C812.036 852.176 812.792 852.989 812.792 854.358V859.812H814.133V854.267C814.133 852.04 812.945 850.972 811.178 850.972C809.86 850.972 809.042 851.562 808.633 852.449H808.519V851.085H807.224V859.812H808.565V854.562ZM826.583 856.244C826.583 857.881 825.333 858.631 824.333 858.631C823.22 858.631 822.424 857.812 822.424 856.54V851.085H821.083V856.631C821.083 858.858 822.265 859.926 823.901 859.926C825.22 859.926 826.083 859.222 826.492 858.335H826.583V859.812H827.924V851.085H826.583V856.244ZM830.38 863.085H831.721V858.472H831.835C832.13 858.949 832.698 859.994 834.38 859.994C836.562 859.994 838.085 858.244 838.085 855.472C838.085 852.722 836.562 850.972 834.357 850.972C832.653 850.972 832.13 852.017 831.835 852.472H831.675V851.085H830.38V863.085ZM831.698 855.449C831.698 853.494 832.562 852.176 834.198 852.176C835.903 852.176 836.744 853.608 836.744 855.449C836.744 857.312 835.88 858.79 834.198 858.79C832.585 858.79 831.698 857.426 831.698 855.449Z" fill="white"/>
<path fill-rule="evenodd" clip-rule="evenodd" d="M996 965.113C993.913 965.113 991.87 965.713 990.114 966.842C988.359 967.971 986.965 969.58 986.098 971.479C985.231 973.377 984.928 975.485 985.225 977.551C985.522 979.616 986.406 981.553 987.772 983.131C989.139 984.708 990.93 985.86 992.932 986.448C994.935 987.037 997.064 987.038 999.067 986.45C1001.07 985.863 1002.86 984.713 1004.23 983.136C1005.6 981.559 1006.48 979.623 1006.78 977.557H997.556C997.143 977.557 996.747 977.393 996.456 977.101C996.164 976.81 996 976.414 996 976.001C996 975.589 996.164 975.193 996.456 974.901C996.747 974.61 997.143 974.446 997.556 974.446H1008.44C1008.86 974.446 1009.25 974.61 1009.54 974.901C1009.84 975.193 1010 975.589 1010 976.001C1010 979.177 1008.92 982.258 1006.94 984.739C1004.96 987.22 1002.19 988.953 999.092 989.654C995.994 990.356 992.751 989.983 989.893 988.598C987.036 987.213 984.734 984.897 983.366 982.032C981.998 979.166 981.645 975.92 982.364 972.828C983.084 969.735 984.833 966.978 987.326 965.011C989.819 963.043 992.906 961.982 996.082 962C999.257 962.019 1002.33 963.116 1004.8 965.113C1005.12 965.372 1005.33 965.748 1005.37 966.159C1005.41 966.569 1005.29 966.98 1005.03 967.3C1004.77 967.621 1004.4 967.826 1003.99 967.869C1003.58 967.912 1003.17 967.791 1002.84 967.531C1000.91 965.962 998.492 965.108 996 965.113Z" fill="black"/>
</svg>
