<svg width="761" height="184" viewBox="0 0 761 184" fill="none" xmlns="http://www.w3.org/2000/svg">
<rect width="761" height="184" fill="white"/>
<path d="M49.9395 42.4932V46H47.8887V36.0469H51.7715C52.5189 36.0469 53.1751 36.1836 53.7402 36.457C54.3099 36.7305 54.7474 37.1201 55.0527 37.626C55.3581 38.1273 55.5107 38.6992 55.5107 39.3418C55.5107 40.3171 55.1758 41.0872 54.5059 41.6523C53.8405 42.2129 52.9176 42.4932 51.7373 42.4932H49.9395ZM49.9395 40.832H51.7715C52.3138 40.832 52.7262 40.7044 53.0088 40.4492C53.2959 40.194 53.4395 39.8294 53.4395 39.3555C53.4395 38.8678 53.2959 38.4736 53.0088 38.1729C52.7217 37.8721 52.3252 37.7171 51.8193 37.708H49.9395V40.832ZM60.9521 40.4561C60.6833 40.4196 60.4463 40.4014 60.2412 40.4014C59.4938 40.4014 59.0039 40.6543 58.7715 41.1602V46H56.7959V38.6035H58.6621L58.7168 39.4854C59.1133 38.8063 59.6624 38.4668 60.3643 38.4668C60.583 38.4668 60.7881 38.4964 60.9795 38.5557L60.9521 40.4561ZM61.3555 42.2334C61.3555 41.4997 61.4967 40.8457 61.7793 40.2715C62.0618 39.6973 62.4674 39.2529 62.9961 38.9385C63.5293 38.624 64.1468 38.4668 64.8486 38.4668C65.8467 38.4668 66.6602 38.7721 67.2891 39.3828C67.9225 39.9935 68.2757 40.8229 68.3486 41.8711L68.3623 42.377C68.3623 43.5117 68.0456 44.4232 67.4121 45.1113C66.7786 45.7949 65.9287 46.1367 64.8623 46.1367C63.7959 46.1367 62.9437 45.7949 62.3057 45.1113C61.6722 44.4277 61.3555 43.498 61.3555 42.3223V42.2334ZM63.3311 42.377C63.3311 43.0788 63.4632 43.6165 63.7275 43.9902C63.9919 44.3594 64.3701 44.5439 64.8623 44.5439C65.3408 44.5439 65.7145 44.3617 65.9834 43.9971C66.2523 43.6279 66.3867 43.04 66.3867 42.2334C66.3867 41.5452 66.2523 41.012 65.9834 40.6338C65.7145 40.2555 65.3363 40.0664 64.8486 40.0664C64.3656 40.0664 63.9919 40.2555 63.7275 40.6338C63.4632 41.0075 63.3311 41.5885 63.3311 42.377ZM76.2441 42.3701C76.2441 43.555 75.9912 44.4801 75.4854 45.1455C74.9795 45.8063 74.2731 46.1367 73.3662 46.1367C72.5641 46.1367 71.9238 45.8291 71.4453 45.2139L71.3564 46H69.5791V35.5H71.5547V39.2666C72.0104 38.7334 72.6097 38.4668 73.3525 38.4668C74.2549 38.4668 74.9613 38.7995 75.4717 39.4648C75.9867 40.1257 76.2441 41.0576 76.2441 42.2607V42.3701ZM74.2686 42.2266C74.2686 41.4792 74.1501 40.9346 73.9131 40.5928C73.6761 40.2464 73.3229 40.0732 72.8535 40.0732C72.2246 40.0732 71.7917 40.3307 71.5547 40.8457V43.7646C71.7962 44.2842 72.2337 44.5439 72.8672 44.5439C73.5052 44.5439 73.9245 44.2295 74.125 43.6006C74.2207 43.2998 74.2686 42.8418 74.2686 42.2266ZM79.5527 46H77.5703V35.5H79.5527V46ZM84.5908 46.1367C83.5062 46.1367 82.6221 45.804 81.9385 45.1387C81.2594 44.4733 80.9199 43.5869 80.9199 42.4795V42.2881C80.9199 41.5452 81.0635 40.8822 81.3506 40.2988C81.6377 39.7109 82.0433 39.2598 82.5674 38.9453C83.096 38.6263 83.6976 38.4668 84.3721 38.4668C85.3838 38.4668 86.179 38.7858 86.7578 39.4238C87.3411 40.0618 87.6328 40.9665 87.6328 42.1377V42.9443H82.9229C82.9867 43.4274 83.1781 43.8148 83.4971 44.1064C83.8206 44.3981 84.2285 44.5439 84.7207 44.5439C85.4818 44.5439 86.0765 44.2682 86.5049 43.7168L87.4756 44.8037C87.1794 45.223 86.7783 45.5511 86.2725 45.7881C85.7666 46.0205 85.2061 46.1367 84.5908 46.1367ZM84.3652 40.0664C83.9733 40.0664 83.6543 40.1986 83.4082 40.4629C83.1667 40.7272 83.0117 41.1055 82.9434 41.5977H85.6914V41.4404C85.6823 41.0029 85.5638 40.6657 85.3359 40.4287C85.1081 40.1872 84.7845 40.0664 84.3652 40.0664ZM90.6133 38.6035L90.6748 39.4307C91.1989 38.7881 91.9076 38.4668 92.8008 38.4668C93.7533 38.4668 94.4072 38.8428 94.7627 39.5947C95.2822 38.8428 96.0228 38.4668 96.9844 38.4668C97.7865 38.4668 98.3835 38.7015 98.7754 39.1709C99.1673 39.6357 99.3633 40.3376 99.3633 41.2764V46H97.3809V41.2832C97.3809 40.8639 97.2988 40.5586 97.1348 40.3672C96.9707 40.1712 96.6813 40.0732 96.2666 40.0732C95.6742 40.0732 95.264 40.3558 95.0361 40.9209L95.043 46H93.0674V41.29C93.0674 40.8617 92.9831 40.5518 92.8145 40.3604C92.6458 40.1689 92.3587 40.0732 91.9531 40.0732C91.3926 40.0732 90.987 40.3057 90.7363 40.7705V46H88.7607V38.6035H90.6133ZM109.665 43.3887C109.665 43.0013 109.528 42.7051 109.255 42.5C108.981 42.2904 108.489 42.0716 107.778 41.8438C107.067 41.6113 106.505 41.3835 106.09 41.1602C104.96 40.5495 104.395 39.7269 104.395 38.6924C104.395 38.1546 104.545 37.6761 104.846 37.2568C105.151 36.833 105.586 36.5026 106.151 36.2656C106.721 36.0286 107.359 35.9102 108.065 35.9102C108.776 35.9102 109.41 36.04 109.966 36.2998C110.522 36.555 110.952 36.9173 111.258 37.3867C111.568 37.8561 111.723 38.3893 111.723 38.9863H109.672C109.672 38.5306 109.528 38.1774 109.241 37.9268C108.954 37.6715 108.551 37.5439 108.031 37.5439C107.53 37.5439 107.14 37.651 106.862 37.8652C106.584 38.0749 106.445 38.3529 106.445 38.6992C106.445 39.0228 106.607 39.2939 106.931 39.5127C107.259 39.7314 107.74 39.9365 108.373 40.1279C109.54 40.4788 110.39 40.9141 110.923 41.4336C111.456 41.9531 111.723 42.6003 111.723 43.375C111.723 44.2363 111.397 44.9131 110.745 45.4053C110.093 45.8929 109.216 46.1367 108.113 46.1367C107.348 46.1367 106.65 45.9977 106.021 45.7197C105.393 45.4372 104.912 45.0521 104.579 44.5645C104.251 44.0768 104.087 43.5117 104.087 42.8691H106.145C106.145 43.9674 106.801 44.5166 108.113 44.5166C108.601 44.5166 108.981 44.4186 109.255 44.2227C109.528 44.0221 109.665 43.7441 109.665 43.3887ZM116.063 44.5439C116.428 44.5439 116.724 44.4437 116.952 44.2432C117.18 44.0426 117.299 43.776 117.308 43.4434H119.16C119.156 43.9447 119.019 44.4049 118.75 44.8242C118.481 45.2389 118.112 45.5625 117.643 45.7949C117.178 46.0228 116.663 46.1367 116.098 46.1367C115.04 46.1367 114.206 45.8018 113.596 45.1318C112.985 44.4574 112.68 43.5277 112.68 42.3428V42.2129C112.68 41.0736 112.983 40.1644 113.589 39.4854C114.195 38.8063 115.027 38.4668 116.084 38.4668C117.009 38.4668 117.75 38.7311 118.306 39.2598C118.866 39.7839 119.151 40.4834 119.16 41.3584H117.308C117.299 40.9756 117.18 40.6657 116.952 40.4287C116.724 40.1872 116.424 40.0664 116.05 40.0664C115.59 40.0664 115.241 40.235 115.004 40.5723C114.771 40.9049 114.655 41.4473 114.655 42.1992V42.4043C114.655 43.1654 114.771 43.7122 115.004 44.0449C115.236 44.3776 115.59 44.5439 116.063 44.5439ZM119.98 42.2334C119.98 41.4997 120.122 40.8457 120.404 40.2715C120.687 39.6973 121.092 39.2529 121.621 38.9385C122.154 38.624 122.772 38.4668 123.474 38.4668C124.472 38.4668 125.285 38.7721 125.914 39.3828C126.548 39.9935 126.901 40.8229 126.974 41.8711L126.987 42.377C126.987 43.5117 126.671 44.4232 126.037 45.1113C125.404 45.7949 124.554 46.1367 123.487 46.1367C122.421 46.1367 121.569 45.7949 120.931 45.1113C120.297 44.4277 119.98 43.498 119.98 42.3223V42.2334ZM121.956 42.377C121.956 43.0788 122.088 43.6165 122.353 43.9902C122.617 44.3594 122.995 44.5439 123.487 44.5439C123.966 44.5439 124.34 44.3617 124.608 43.9971C124.877 43.6279 125.012 43.04 125.012 42.2334C125.012 41.5452 124.877 41.012 124.608 40.6338C124.34 40.2555 123.961 40.0664 123.474 40.0664C122.991 40.0664 122.617 40.2555 122.353 40.6338C122.088 41.0075 121.956 41.5885 121.956 42.377ZM134.862 42.3701C134.862 43.5094 134.603 44.4232 134.083 45.1113C133.568 45.7949 132.871 46.1367 131.991 46.1367C131.244 46.1367 130.64 45.877 130.18 45.3574V48.8438H128.204V38.6035H130.036L130.104 39.3281C130.583 38.7539 131.207 38.4668 131.978 38.4668C132.889 38.4668 133.598 38.804 134.104 39.4785C134.609 40.153 134.862 41.0827 134.862 42.2676V42.3701ZM132.887 42.2266C132.887 41.5384 132.764 41.0075 132.518 40.6338C132.276 40.2601 131.923 40.0732 131.458 40.0732C130.838 40.0732 130.412 40.3102 130.18 40.7842V43.8125C130.421 44.3001 130.852 44.5439 131.472 44.5439C132.415 44.5439 132.887 43.7715 132.887 42.2266ZM138.178 46H136.195V38.6035H138.178V46ZM136.079 36.6895C136.079 36.3932 136.177 36.1494 136.373 35.958C136.574 35.7666 136.845 35.6709 137.187 35.6709C137.524 35.6709 137.793 35.7666 137.993 35.958C138.194 36.1494 138.294 36.3932 138.294 36.6895C138.294 36.9902 138.191 37.2363 137.986 37.4277C137.786 37.6191 137.519 37.7148 137.187 37.7148C136.854 37.7148 136.585 37.6191 136.38 37.4277C136.179 37.2363 136.079 36.9902 136.079 36.6895ZM141.63 38.6035L141.691 39.458C142.22 38.7972 142.929 38.4668 143.817 38.4668C144.601 38.4668 145.185 38.6969 145.567 39.1572C145.95 39.6175 146.146 40.3057 146.155 41.2217V46H144.18V41.2695C144.18 40.8503 144.089 40.5472 143.906 40.3604C143.724 40.1689 143.421 40.0732 142.997 40.0732C142.441 40.0732 142.024 40.3102 141.746 40.7842V46H139.771V38.6035H141.63ZM147.372 42.2471C147.372 41.1123 147.641 40.1986 148.179 39.5059C148.721 38.8132 149.45 38.4668 150.366 38.4668C151.177 38.4668 151.809 38.7448 152.26 39.3008L152.342 38.6035H154.133V45.7539C154.133 46.401 153.985 46.9639 153.688 47.4424C153.397 47.9209 152.984 48.2855 152.451 48.5361C151.918 48.7868 151.294 48.9121 150.578 48.9121C150.036 48.9121 149.507 48.8027 148.992 48.584C148.477 48.3698 148.088 48.0918 147.823 47.75L148.698 46.5469C149.19 47.0983 149.787 47.374 150.489 47.374C151.013 47.374 151.421 47.2327 151.713 46.9502C152.005 46.6722 152.15 46.2757 152.15 45.7607V45.3643C151.695 45.8792 151.095 46.1367 150.353 46.1367C149.464 46.1367 148.744 45.7904 148.192 45.0977C147.646 44.4004 147.372 43.4775 147.372 42.3291V42.2471ZM149.348 42.3906C149.348 43.0605 149.482 43.5869 149.751 43.9697C150.02 44.348 150.389 44.5371 150.858 44.5371C151.46 44.5371 151.891 44.3115 152.15 43.8604V40.75C151.886 40.2988 151.46 40.0732 150.872 40.0732C150.398 40.0732 150.024 40.2669 149.751 40.6543C149.482 41.0417 149.348 41.6204 149.348 42.3906Z" fill="#657B83"/>
<path d="M333.889 46V36.0469H336.951C337.826 36.0469 338.608 36.2451 339.296 36.6416C339.989 37.0335 340.529 37.5941 340.916 38.3232C341.303 39.0479 341.497 39.8727 341.497 40.7979V41.2559C341.497 42.181 341.306 43.0036 340.923 43.7236C340.545 44.4437 340.009 45.002 339.316 45.3984C338.624 45.7949 337.842 45.9954 336.972 46H333.889ZM335.939 37.708V44.3525H336.931C337.733 44.3525 338.346 44.0905 338.77 43.5664C339.193 43.0423 339.41 42.2926 339.419 41.3174V40.791C339.419 39.7793 339.209 39.0137 338.79 38.4941C338.371 37.9701 337.758 37.708 336.951 37.708H335.939ZM346.269 46.1367C345.184 46.1367 344.3 45.804 343.616 45.1387C342.937 44.4733 342.598 43.5869 342.598 42.4795V42.2881C342.598 41.5452 342.741 40.8822 343.028 40.2988C343.315 39.7109 343.721 39.2598 344.245 38.9453C344.774 38.6263 345.375 38.4668 346.05 38.4668C347.062 38.4668 347.857 38.7858 348.436 39.4238C349.019 40.0618 349.311 40.9665 349.311 42.1377V42.9443H344.601C344.664 43.4274 344.856 43.8148 345.175 44.1064C345.498 44.3981 345.906 44.5439 346.398 44.5439C347.16 44.5439 347.754 44.2682 348.183 43.7168L349.153 44.8037C348.857 45.223 348.456 45.5511 347.95 45.7881C347.444 46.0205 346.884 46.1367 346.269 46.1367ZM346.043 40.0664C345.651 40.0664 345.332 40.1986 345.086 40.4629C344.844 40.7272 344.689 41.1055 344.621 41.5977H347.369V41.4404C347.36 41.0029 347.242 40.6657 347.014 40.4287C346.786 40.1872 346.462 40.0664 346.043 40.0664ZM354.444 43.9561C354.444 43.7145 354.324 43.5254 354.082 43.3887C353.845 43.2474 353.462 43.1221 352.934 43.0127C351.174 42.6436 350.295 41.8962 350.295 40.7705C350.295 40.1143 350.566 39.5674 351.108 39.1299C351.655 38.6878 352.368 38.4668 353.248 38.4668C354.187 38.4668 354.937 38.6878 355.497 39.1299C356.062 39.5719 356.345 40.1462 356.345 40.8525H354.369C354.369 40.57 354.278 40.3376 354.096 40.1553C353.913 39.9684 353.629 39.875 353.241 39.875C352.909 39.875 352.651 39.9502 352.469 40.1006C352.286 40.251 352.195 40.4424 352.195 40.6748C352.195 40.8936 352.298 41.0713 352.503 41.208C352.713 41.3402 353.063 41.4564 353.556 41.5566C354.048 41.6523 354.463 41.7617 354.8 41.8848C355.843 42.2676 356.365 42.9307 356.365 43.874C356.365 44.5485 356.076 45.0954 355.497 45.5146C354.918 45.9294 354.171 46.1367 353.255 46.1367C352.635 46.1367 352.084 46.0273 351.601 45.8086C351.122 45.5853 350.746 45.2822 350.473 44.8994C350.199 44.512 350.062 44.0951 350.062 43.6484H351.936C351.954 43.9993 352.084 44.2682 352.325 44.4551C352.567 44.6419 352.89 44.7354 353.296 44.7354C353.674 44.7354 353.959 44.6647 354.15 44.5234C354.346 44.3776 354.444 44.1885 354.444 43.9561ZM359.729 46H357.746V38.6035H359.729V46ZM357.63 36.6895C357.63 36.3932 357.728 36.1494 357.924 35.958C358.124 35.7666 358.396 35.6709 358.737 35.6709C359.075 35.6709 359.343 35.7666 359.544 35.958C359.744 36.1494 359.845 36.3932 359.845 36.6895C359.845 36.9902 359.742 37.2363 359.537 37.4277C359.337 37.6191 359.07 37.7148 358.737 37.7148C358.405 37.7148 358.136 37.6191 357.931 37.4277C357.73 37.2363 357.63 36.9902 357.63 36.6895ZM361.075 42.2471C361.075 41.1123 361.344 40.1986 361.882 39.5059C362.424 38.8132 363.153 38.4668 364.069 38.4668C364.881 38.4668 365.512 38.7448 365.963 39.3008L366.045 38.6035H367.836V45.7539C367.836 46.401 367.688 46.9639 367.392 47.4424C367.1 47.9209 366.688 48.2855 366.154 48.5361C365.621 48.7868 364.997 48.9121 364.281 48.9121C363.739 48.9121 363.21 48.8027 362.695 48.584C362.18 48.3698 361.791 48.0918 361.526 47.75L362.401 46.5469C362.894 47.0983 363.491 47.374 364.192 47.374C364.716 47.374 365.124 47.2327 365.416 46.9502C365.708 46.6722 365.854 46.2757 365.854 45.7607V45.3643C365.398 45.8792 364.799 46.1367 364.056 46.1367C363.167 46.1367 362.447 45.7904 361.896 45.0977C361.349 44.4004 361.075 43.4775 361.075 42.3291V42.2471ZM363.051 42.3906C363.051 43.0605 363.185 43.5869 363.454 43.9697C363.723 44.348 364.092 44.5371 364.562 44.5371C365.163 44.5371 365.594 44.3115 365.854 43.8604V40.75C365.589 40.2988 365.163 40.0732 364.575 40.0732C364.101 40.0732 363.728 40.2669 363.454 40.6543C363.185 41.0417 363.051 41.6204 363.051 42.3906ZM371.179 38.6035L371.24 39.458C371.769 38.7972 372.478 38.4668 373.366 38.4668C374.15 38.4668 374.733 38.6969 375.116 39.1572C375.499 39.6175 375.695 40.3057 375.704 41.2217V46H373.729V41.2695C373.729 40.8503 373.637 40.5472 373.455 40.3604C373.273 40.1689 372.97 40.0732 372.546 40.0732C371.99 40.0732 371.573 40.3102 371.295 40.7842V46H369.319V38.6035H371.179ZM379.293 46H377.311V38.6035H379.293V46ZM377.194 36.6895C377.194 36.3932 377.292 36.1494 377.488 35.958C377.689 35.7666 377.96 35.6709 378.302 35.6709C378.639 35.6709 378.908 35.7666 379.108 35.958C379.309 36.1494 379.409 36.3932 379.409 36.6895C379.409 36.9902 379.307 37.2363 379.102 37.4277C378.901 37.6191 378.634 37.7148 378.302 37.7148C377.969 37.7148 377.7 37.6191 377.495 37.4277C377.295 37.2363 377.194 36.9902 377.194 36.6895ZM382.745 38.6035L382.807 39.458C383.335 38.7972 384.044 38.4668 384.933 38.4668C385.716 38.4668 386.3 38.6969 386.683 39.1572C387.065 39.6175 387.261 40.3057 387.271 41.2217V46H385.295V41.2695C385.295 40.8503 385.204 40.5472 385.021 40.3604C384.839 40.1689 384.536 40.0732 384.112 40.0732C383.556 40.0732 383.139 40.3102 382.861 40.7842V46H380.886V38.6035H382.745ZM388.487 42.2471C388.487 41.1123 388.756 40.1986 389.294 39.5059C389.836 38.8132 390.565 38.4668 391.481 38.4668C392.293 38.4668 392.924 38.7448 393.375 39.3008L393.457 38.6035H395.248V45.7539C395.248 46.401 395.1 46.9639 394.804 47.4424C394.512 47.9209 394.1 48.2855 393.566 48.5361C393.033 48.7868 392.409 48.9121 391.693 48.9121C391.151 48.9121 390.622 48.8027 390.107 48.584C389.592 48.3698 389.203 48.0918 388.938 47.75L389.813 46.5469C390.306 47.0983 390.903 47.374 391.604 47.374C392.129 47.374 392.536 47.2327 392.828 46.9502C393.12 46.6722 393.266 46.2757 393.266 45.7607V45.3643C392.81 45.8792 392.211 46.1367 391.468 46.1367C390.579 46.1367 389.859 45.7904 389.308 45.0977C388.761 44.4004 388.487 43.4775 388.487 42.3291V42.2471ZM390.463 42.3906C390.463 43.0605 390.597 43.5869 390.866 43.9697C391.135 44.348 391.504 44.5371 391.974 44.5371C392.575 44.5371 393.006 44.3115 393.266 43.8604V40.75C393.001 40.2988 392.575 40.0732 391.987 40.0732C391.513 40.0732 391.14 40.2669 390.866 40.6543C390.597 41.0417 390.463 41.6204 390.463 42.3906Z" fill="#657B83"/>
<path d="M281.504 118.197C280.539 117.92 279.836 117.58 279.395 117.178C278.957 116.771 278.738 116.271 278.738 115.678C278.738 115.006 279.006 114.451 279.541 114.014C280.08 113.572 280.779 113.352 281.639 113.352C282.225 113.352 282.746 113.465 283.203 113.691C283.664 113.918 284.02 114.23 284.27 114.629C284.523 115.027 284.65 115.463 284.65 115.936H283.52C283.52 115.42 283.355 115.016 283.027 114.723C282.699 114.426 282.236 114.277 281.639 114.277C281.084 114.277 280.65 114.4 280.338 114.646C280.029 114.889 279.875 115.227 279.875 115.66C279.875 116.008 280.021 116.303 280.314 116.545C280.611 116.783 281.113 117.002 281.82 117.201C282.531 117.4 283.086 117.621 283.484 117.863C283.887 118.102 284.184 118.381 284.375 118.701C284.57 119.021 284.668 119.398 284.668 119.832C284.668 120.523 284.398 121.078 283.859 121.496C283.32 121.91 282.6 122.117 281.697 122.117C281.111 122.117 280.564 122.006 280.057 121.783C279.549 121.557 279.156 121.248 278.879 120.857C278.605 120.467 278.469 120.023 278.469 119.527H279.6C279.6 120.043 279.789 120.451 280.168 120.752C280.551 121.049 281.061 121.197 281.697 121.197C282.291 121.197 282.746 121.076 283.062 120.834C283.379 120.592 283.537 120.262 283.537 119.844C283.537 119.426 283.391 119.104 283.098 118.877C282.805 118.646 282.273 118.42 281.504 118.197ZM287.416 114.125V115.66H288.6V116.498H287.416V120.43C287.416 120.684 287.469 120.875 287.574 121.004C287.68 121.129 287.859 121.191 288.113 121.191C288.238 121.191 288.41 121.168 288.629 121.121V122C288.344 122.078 288.066 122.117 287.797 122.117C287.312 122.117 286.947 121.971 286.701 121.678C286.455 121.385 286.332 120.969 286.332 120.43V116.498H285.178V115.66H286.332V114.125H287.416ZM289.467 118.771C289.467 118.15 289.588 117.592 289.83 117.096C290.076 116.6 290.416 116.217 290.85 115.947C291.287 115.678 291.785 115.543 292.344 115.543C293.207 115.543 293.904 115.842 294.436 116.439C294.971 117.037 295.238 117.832 295.238 118.824V118.9C295.238 119.518 295.119 120.072 294.881 120.564C294.646 121.053 294.309 121.434 293.867 121.707C293.43 121.98 292.926 122.117 292.355 122.117C291.496 122.117 290.799 121.818 290.264 121.221C289.732 120.623 289.467 119.832 289.467 118.848V118.771ZM290.557 118.9C290.557 119.604 290.719 120.168 291.043 120.594C291.371 121.02 291.809 121.232 292.355 121.232C292.906 121.232 293.344 121.018 293.668 120.588C293.992 120.154 294.154 119.549 294.154 118.771C294.154 118.076 293.988 117.514 293.656 117.084C293.328 116.65 292.891 116.434 292.344 116.434C291.809 116.434 291.377 116.646 291.049 117.072C290.721 117.498 290.557 118.107 290.557 118.9ZM299.662 116.633C299.498 116.605 299.32 116.592 299.129 116.592C298.418 116.592 297.936 116.895 297.682 117.5V122H296.598V115.66H297.652L297.67 116.393C298.025 115.826 298.529 115.543 299.182 115.543C299.393 115.543 299.553 115.57 299.662 115.625V116.633ZM302.844 120.412L304.32 115.66H305.48L302.932 122.979C302.537 124.033 301.91 124.561 301.051 124.561L300.846 124.543L300.441 124.467V123.588L300.734 123.611C301.102 123.611 301.387 123.537 301.59 123.389C301.797 123.24 301.967 122.969 302.1 122.574L302.34 121.93L300.078 115.66H301.262L302.844 120.412ZM311.82 118.9C311.82 119.869 311.598 120.648 311.152 121.238C310.707 121.824 310.109 122.117 309.359 122.117C308.559 122.117 307.939 121.834 307.502 121.268L307.449 122H306.453V113H307.537V116.357C307.975 115.814 308.578 115.543 309.348 115.543C310.117 115.543 310.721 115.834 311.158 116.416C311.6 116.998 311.82 117.795 311.82 118.807V118.9ZM310.736 118.777C310.736 118.039 310.594 117.469 310.309 117.066C310.023 116.664 309.613 116.463 309.078 116.463C308.363 116.463 307.85 116.795 307.537 117.459V120.201C307.869 120.865 308.387 121.197 309.09 121.197C309.609 121.197 310.014 120.996 310.303 120.594C310.592 120.191 310.736 119.586 310.736 118.777ZM312.904 118.771C312.904 118.15 313.025 117.592 313.268 117.096C313.514 116.6 313.854 116.217 314.287 115.947C314.725 115.678 315.223 115.543 315.781 115.543C316.645 115.543 317.342 115.842 317.873 116.439C318.408 117.037 318.676 117.832 318.676 118.824V118.9C318.676 119.518 318.557 120.072 318.318 120.564C318.084 121.053 317.746 121.434 317.305 121.707C316.867 121.98 316.363 122.117 315.793 122.117C314.934 122.117 314.236 121.818 313.701 121.221C313.17 120.623 312.904 119.832 312.904 118.848V118.771ZM313.994 118.9C313.994 119.604 314.156 120.168 314.48 120.594C314.809 121.02 315.246 121.232 315.793 121.232C316.344 121.232 316.781 121.018 317.105 120.588C317.43 120.154 317.592 119.549 317.592 118.771C317.592 118.076 317.426 117.514 317.094 117.084C316.766 116.65 316.328 116.434 315.781 116.434C315.246 116.434 314.814 116.646 314.486 117.072C314.158 117.498 313.994 118.107 313.994 118.9ZM323.949 122C323.887 121.875 323.836 121.652 323.797 121.332C323.293 121.855 322.691 122.117 321.992 122.117C321.367 122.117 320.854 121.941 320.451 121.59C320.053 121.234 319.854 120.785 319.854 120.242C319.854 119.582 320.104 119.07 320.604 118.707C321.107 118.34 321.814 118.156 322.725 118.156H323.779V117.658C323.779 117.279 323.666 116.979 323.439 116.756C323.213 116.529 322.879 116.416 322.438 116.416C322.051 116.416 321.727 116.514 321.465 116.709C321.203 116.904 321.072 117.141 321.072 117.418H319.982C319.982 117.102 320.094 116.797 320.316 116.504C320.543 116.207 320.848 115.973 321.23 115.801C321.617 115.629 322.041 115.543 322.502 115.543C323.232 115.543 323.805 115.727 324.219 116.094C324.633 116.457 324.848 116.959 324.863 117.6V120.518C324.863 121.1 324.938 121.562 325.086 121.906V122H323.949ZM322.15 121.174C322.49 121.174 322.812 121.086 323.117 120.91C323.422 120.734 323.643 120.506 323.779 120.225V118.924H322.93C321.602 118.924 320.938 119.312 320.938 120.09C320.938 120.43 321.051 120.695 321.277 120.887C321.504 121.078 321.795 121.174 322.15 121.174ZM329.627 116.633C329.463 116.605 329.285 116.592 329.094 116.592C328.383 116.592 327.9 116.895 327.646 117.5V122H326.562V115.66H327.617L327.635 116.393C327.99 115.826 328.494 115.543 329.146 115.543C329.357 115.543 329.518 115.57 329.627 115.625V116.633ZM330.248 118.777C330.248 117.805 330.479 117.023 330.939 116.434C331.4 115.84 332.004 115.543 332.75 115.543C333.492 115.543 334.08 115.797 334.514 116.305V113H335.598V122H334.602L334.549 121.32C334.115 121.852 333.512 122.117 332.738 122.117C332.004 122.117 331.404 121.816 330.939 121.215C330.479 120.613 330.248 119.828 330.248 118.859V118.777ZM331.332 118.9C331.332 119.619 331.48 120.182 331.777 120.588C332.074 120.994 332.484 121.197 333.008 121.197C333.695 121.197 334.197 120.889 334.514 120.271V117.359C334.189 116.762 333.691 116.463 333.02 116.463C332.488 116.463 332.074 116.668 331.777 117.078C331.48 117.488 331.332 118.096 331.332 118.9Z" fill="black"/>
<path d="M541.547 122H540.416V118.057H536.115V122H534.99V113.469H536.115V117.137H540.416V113.469H541.547V122ZM544.553 122H543.469V115.66H544.553V122ZM543.381 113.979C543.381 113.803 543.434 113.654 543.539 113.533C543.648 113.412 543.809 113.352 544.02 113.352C544.23 113.352 544.391 113.412 544.5 113.533C544.609 113.654 544.664 113.803 544.664 113.979C544.664 114.154 544.609 114.301 544.5 114.418C544.391 114.535 544.23 114.594 544.02 114.594C543.809 114.594 543.648 114.535 543.539 114.418C543.434 114.301 543.381 114.154 543.381 113.979ZM548.549 118.818H545.689V117.934H548.549V118.818ZM549.973 122V116.498H548.971V115.66H549.973V115.121C549.973 114.414 550.174 113.863 550.576 113.469C550.982 113.074 551.555 112.877 552.293 112.877C552.73 112.877 553.283 112.996 553.951 113.234L553.77 114.148C553.281 113.953 552.816 113.855 552.375 113.855C551.91 113.855 551.574 113.961 551.367 114.172C551.164 114.379 551.062 114.691 551.062 115.109V115.66H552.357V116.498H551.062V122H549.973ZM554.49 122H553.4V115.66H554.49V122ZM564.586 118.9C564.586 119.865 564.365 120.643 563.924 121.232C563.482 121.822 562.885 122.117 562.131 122.117C561.361 122.117 560.756 121.873 560.314 121.385V124.438H559.23V115.66H560.221L560.273 116.363C560.715 115.816 561.328 115.543 562.113 115.543C562.875 115.543 563.477 115.83 563.918 116.404C564.363 116.979 564.586 117.777 564.586 118.801V118.9ZM563.502 118.777C563.502 118.062 563.35 117.498 563.045 117.084C562.74 116.67 562.322 116.463 561.791 116.463C561.135 116.463 560.643 116.754 560.314 117.336V120.365C560.639 120.943 561.135 121.232 561.803 121.232C562.322 121.232 562.734 121.027 563.039 120.617C563.348 120.203 563.502 119.59 563.502 118.777ZM569.033 116.633C568.869 116.605 568.691 116.592 568.5 116.592C567.789 116.592 567.307 116.895 567.053 117.5V122H565.969V115.66H567.023L567.041 116.393C567.396 115.826 567.9 115.543 568.553 115.543C568.764 115.543 568.924 115.57 569.033 115.625V116.633ZM569.631 118.771C569.631 118.15 569.752 117.592 569.994 117.096C570.24 116.6 570.58 116.217 571.014 115.947C571.451 115.678 571.949 115.543 572.508 115.543C573.371 115.543 574.068 115.842 574.6 116.439C575.135 117.037 575.402 117.832 575.402 118.824V118.9C575.402 119.518 575.283 120.072 575.045 120.564C574.811 121.053 574.473 121.434 574.031 121.707C573.594 121.98 573.09 122.117 572.52 122.117C571.66 122.117 570.963 121.818 570.428 121.221C569.896 120.623 569.631 119.832 569.631 118.848V118.771ZM570.721 118.9C570.721 119.604 570.883 120.168 571.207 120.594C571.535 121.02 571.973 121.232 572.52 121.232C573.07 121.232 573.508 121.018 573.832 120.588C574.156 120.154 574.318 119.549 574.318 118.771C574.318 118.076 574.152 117.514 573.82 117.084C573.492 116.65 573.055 116.434 572.508 116.434C571.973 116.434 571.541 116.646 571.213 117.072C570.885 117.498 570.721 118.107 570.721 118.9ZM578.232 114.125V115.66H579.416V116.498H578.232V120.43C578.232 120.684 578.285 120.875 578.391 121.004C578.496 121.129 578.676 121.191 578.93 121.191C579.055 121.191 579.227 121.168 579.445 121.121V122C579.16 122.078 578.883 122.117 578.613 122.117C578.129 122.117 577.764 121.971 577.518 121.678C577.271 121.385 577.148 120.969 577.148 120.43V116.498H575.994V115.66H577.148V114.125H578.232ZM580.283 118.771C580.283 118.15 580.404 117.592 580.646 117.096C580.893 116.6 581.232 116.217 581.666 115.947C582.104 115.678 582.602 115.543 583.16 115.543C584.023 115.543 584.721 115.842 585.252 116.439C585.787 117.037 586.055 117.832 586.055 118.824V118.9C586.055 119.518 585.936 120.072 585.697 120.564C585.463 121.053 585.125 121.434 584.684 121.707C584.246 121.98 583.742 122.117 583.172 122.117C582.312 122.117 581.615 121.818 581.08 121.221C580.549 120.623 580.283 119.832 580.283 118.848V118.771ZM581.373 118.9C581.373 119.604 581.535 120.168 581.859 120.594C582.188 121.02 582.625 121.232 583.172 121.232C583.723 121.232 584.16 121.018 584.484 120.588C584.809 120.154 584.971 119.549 584.971 118.771C584.971 118.076 584.805 117.514 584.473 117.084C584.145 116.65 583.707 116.434 583.16 116.434C582.625 116.434 582.193 116.646 581.865 117.072C581.537 117.498 581.373 118.107 581.373 118.9ZM588.885 114.125V115.66H590.068V116.498H588.885V120.43C588.885 120.684 588.938 120.875 589.043 121.004C589.148 121.129 589.328 121.191 589.582 121.191C589.707 121.191 589.879 121.168 590.098 121.121V122C589.812 122.078 589.535 122.117 589.266 122.117C588.781 122.117 588.416 121.971 588.17 121.678C587.924 121.385 587.801 120.969 587.801 120.43V116.498H586.646V115.66H587.801V114.125H588.885ZM593.414 120.412L594.891 115.66H596.051L593.502 122.979C593.107 124.033 592.48 124.561 591.621 124.561L591.416 124.543L591.012 124.467V123.588L591.305 123.611C591.672 123.611 591.957 123.537 592.16 123.389C592.367 123.24 592.537 122.969 592.67 122.574L592.91 121.93L590.648 115.66H591.832L593.414 120.412ZM602.379 118.9C602.379 119.865 602.158 120.643 601.717 121.232C601.275 121.822 600.678 122.117 599.924 122.117C599.154 122.117 598.549 121.873 598.107 121.385V124.438H597.023V115.66H598.014L598.066 116.363C598.508 115.816 599.121 115.543 599.906 115.543C600.668 115.543 601.27 115.83 601.711 116.404C602.156 116.979 602.379 117.777 602.379 118.801V118.9ZM601.295 118.777C601.295 118.062 601.143 117.498 600.838 117.084C600.533 116.67 600.115 116.463 599.584 116.463C598.928 116.463 598.436 116.754 598.107 117.336V120.365C598.432 120.943 598.928 121.232 599.596 121.232C600.115 121.232 600.527 121.027 600.832 120.617C601.141 120.203 601.295 119.59 601.295 118.777ZM604.939 122H603.855V115.66H604.939V122ZM603.768 113.979C603.768 113.803 603.82 113.654 603.926 113.533C604.035 113.412 604.195 113.352 604.406 113.352C604.617 113.352 604.777 113.412 604.887 113.533C604.996 113.654 605.051 113.803 605.051 113.979C605.051 114.154 604.996 114.301 604.887 114.418C604.777 114.535 604.617 114.594 604.406 114.594C604.195 114.594 604.035 114.535 603.926 114.418C603.82 114.301 603.768 114.154 603.768 113.979ZM607.705 115.66L607.74 116.457C608.225 115.848 608.857 115.543 609.639 115.543C610.979 115.543 611.654 116.299 611.666 117.811V122H610.582V117.805C610.578 117.348 610.473 117.01 610.266 116.791C610.062 116.572 609.744 116.463 609.311 116.463C608.959 116.463 608.65 116.557 608.385 116.744C608.119 116.932 607.912 117.178 607.764 117.482V122H606.68V115.66H607.705ZM613.043 118.777C613.043 117.789 613.271 117.004 613.729 116.422C614.186 115.836 614.791 115.543 615.545 115.543C616.318 115.543 616.922 115.816 617.355 116.363L617.408 115.66H618.398V121.848C618.398 122.668 618.154 123.314 617.666 123.787C617.182 124.26 616.529 124.496 615.709 124.496C615.252 124.496 614.805 124.398 614.367 124.203C613.93 124.008 613.596 123.74 613.365 123.4L613.928 122.75C614.393 123.324 614.961 123.611 615.633 123.611C616.16 123.611 616.57 123.463 616.863 123.166C617.16 122.869 617.309 122.451 617.309 121.912V121.367C616.875 121.867 616.283 122.117 615.533 122.117C614.791 122.117 614.189 121.818 613.729 121.221C613.271 120.623 613.043 119.809 613.043 118.777ZM614.133 118.9C614.133 119.615 614.279 120.178 614.572 120.588C614.865 120.994 615.275 121.197 615.803 121.197C616.486 121.197 616.988 120.887 617.309 120.266V117.371C616.977 116.766 616.479 116.463 615.814 116.463C615.287 116.463 614.875 116.668 614.578 117.078C614.281 117.488 614.133 118.096 614.133 118.9Z" fill="black"/>
<path d="M651.996 113.469V119.27C651.992 120.074 651.738 120.732 651.234 121.244C650.734 121.756 650.055 122.043 649.195 122.105L648.896 122.117C647.963 122.117 647.219 121.865 646.664 121.361C646.109 120.857 645.828 120.164 645.82 119.281V113.469H646.934V119.246C646.934 119.863 647.104 120.344 647.443 120.688C647.783 121.027 648.268 121.197 648.896 121.197C649.533 121.197 650.02 121.027 650.355 120.688C650.695 120.348 650.865 119.869 650.865 119.252V113.469H651.996ZM657.293 120.318C657.293 120.025 657.182 119.799 656.959 119.639C656.74 119.475 656.355 119.334 655.805 119.217C655.258 119.1 654.822 118.959 654.498 118.795C654.178 118.631 653.939 118.436 653.783 118.209C653.631 117.982 653.555 117.713 653.555 117.4C653.555 116.881 653.773 116.441 654.211 116.082C654.652 115.723 655.215 115.543 655.898 115.543C656.617 115.543 657.199 115.729 657.645 116.1C658.094 116.471 658.318 116.945 658.318 117.523H657.229C657.229 117.227 657.102 116.971 656.848 116.756C656.598 116.541 656.281 116.434 655.898 116.434C655.504 116.434 655.195 116.52 654.973 116.691C654.75 116.863 654.639 117.088 654.639 117.365C654.639 117.627 654.742 117.824 654.949 117.957C655.156 118.09 655.529 118.217 656.068 118.338C656.611 118.459 657.051 118.604 657.387 118.771C657.723 118.939 657.971 119.143 658.131 119.381C658.295 119.615 658.377 119.902 658.377 120.242C658.377 120.809 658.15 121.264 657.697 121.607C657.244 121.947 656.656 122.117 655.934 122.117C655.426 122.117 654.977 122.027 654.586 121.848C654.195 121.668 653.889 121.418 653.666 121.098C653.447 120.773 653.338 120.424 653.338 120.049H654.422C654.441 120.412 654.586 120.701 654.855 120.916C655.129 121.127 655.488 121.232 655.934 121.232C656.344 121.232 656.672 121.15 656.918 120.986C657.168 120.818 657.293 120.596 657.293 120.318ZM662.42 122.117C661.561 122.117 660.861 121.836 660.322 121.273C659.783 120.707 659.514 119.951 659.514 119.006V118.807C659.514 118.178 659.633 117.617 659.871 117.125C660.113 116.629 660.449 116.242 660.879 115.965C661.312 115.684 661.781 115.543 662.285 115.543C663.109 115.543 663.75 115.814 664.207 116.357C664.664 116.9 664.893 117.678 664.893 118.689V119.141H660.598C660.613 119.766 660.795 120.271 661.143 120.658C661.494 121.041 661.939 121.232 662.479 121.232C662.861 121.232 663.186 121.154 663.451 120.998C663.717 120.842 663.949 120.635 664.148 120.377L664.811 120.893C664.279 121.709 663.482 122.117 662.42 122.117ZM662.285 116.434C661.848 116.434 661.48 116.594 661.184 116.914C660.887 117.23 660.703 117.676 660.633 118.25H663.809V118.168C663.777 117.617 663.629 117.191 663.363 116.891C663.098 116.586 662.738 116.434 662.285 116.434ZM669.217 116.633C669.053 116.605 668.875 116.592 668.684 116.592C667.973 116.592 667.49 116.895 667.236 117.5V122H666.152V115.66H667.207L667.225 116.393C667.58 115.826 668.084 115.543 668.736 115.543C668.947 115.543 669.107 115.57 669.217 115.625V116.633ZM673.898 122C673.836 121.875 673.785 121.652 673.746 121.332C673.242 121.855 672.641 122.117 671.941 122.117C671.316 122.117 670.803 121.941 670.4 121.59C670.002 121.234 669.803 120.785 669.803 120.242C669.803 119.582 670.053 119.07 670.553 118.707C671.057 118.34 671.764 118.156 672.674 118.156H673.729V117.658C673.729 117.279 673.615 116.979 673.389 116.756C673.162 116.529 672.828 116.416 672.387 116.416C672 116.416 671.676 116.514 671.414 116.709C671.152 116.904 671.021 117.141 671.021 117.418H669.932C669.932 117.102 670.043 116.797 670.266 116.504C670.492 116.207 670.797 115.973 671.18 115.801C671.566 115.629 671.99 115.543 672.451 115.543C673.182 115.543 673.754 115.727 674.168 116.094C674.582 116.457 674.797 116.959 674.812 117.6V120.518C674.812 121.1 674.887 121.562 675.035 121.906V122H673.898ZM672.1 121.174C672.439 121.174 672.762 121.086 673.066 120.91C673.371 120.734 673.592 120.506 673.729 120.225V118.924H672.879C671.551 118.924 670.887 119.312 670.887 120.09C670.887 120.43 671 120.695 671.227 120.887C671.453 121.078 671.744 121.174 672.1 121.174ZM681.879 118.9C681.879 119.869 681.656 120.648 681.211 121.238C680.766 121.824 680.168 122.117 679.418 122.117C678.617 122.117 677.998 121.834 677.561 121.268L677.508 122H676.512V113H677.596V116.357C678.033 115.814 678.637 115.543 679.406 115.543C680.176 115.543 680.779 115.834 681.217 116.416C681.658 116.998 681.879 117.795 681.879 118.807V118.9ZM680.795 118.777C680.795 118.039 680.652 117.469 680.367 117.066C680.082 116.664 679.672 116.463 679.137 116.463C678.422 116.463 677.908 116.795 677.596 117.459V120.201C677.928 120.865 678.445 121.197 679.148 121.197C679.668 121.197 680.072 120.996 680.361 120.594C680.65 120.191 680.795 119.586 680.795 118.777ZM684.428 122H683.344V115.66H684.428V122ZM683.256 113.979C683.256 113.803 683.309 113.654 683.414 113.533C683.523 113.412 683.684 113.352 683.895 113.352C684.105 113.352 684.266 113.412 684.375 113.533C684.484 113.654 684.539 113.803 684.539 113.979C684.539 114.154 684.484 114.301 684.375 114.418C684.266 114.535 684.105 114.594 683.895 114.594C683.684 114.594 683.523 114.535 683.414 114.418C683.309 114.301 683.256 114.154 683.256 113.979ZM687.346 122H686.262V113H687.346V122ZM690.264 122H689.18V115.66H690.264V122ZM689.092 113.979C689.092 113.803 689.145 113.654 689.25 113.533C689.359 113.412 689.52 113.352 689.73 113.352C689.941 113.352 690.102 113.412 690.211 113.533C690.32 113.654 690.375 113.803 690.375 113.979C690.375 114.154 690.32 114.301 690.211 114.418C690.102 114.535 689.941 114.594 689.73 114.594C689.52 114.594 689.359 114.535 689.25 114.418C689.145 114.301 689.092 114.154 689.092 113.979ZM693.475 114.125V115.66H694.658V116.498H693.475V120.43C693.475 120.684 693.527 120.875 693.633 121.004C693.738 121.129 693.918 121.191 694.172 121.191C694.297 121.191 694.469 121.168 694.688 121.121V122C694.402 122.078 694.125 122.117 693.855 122.117C693.371 122.117 693.006 121.971 692.76 121.678C692.514 121.385 692.391 120.969 692.391 120.43V116.498H691.236V115.66H692.391V114.125H693.475ZM698.004 120.412L699.48 115.66H700.641L698.092 122.979C697.697 124.033 697.07 124.561 696.211 124.561L696.006 124.543L695.602 124.467V123.588L695.895 123.611C696.262 123.611 696.547 123.537 696.75 123.389C696.957 123.24 697.127 122.969 697.26 122.574L697.5 121.93L695.238 115.66H696.422L698.004 120.412ZM710.42 114.395H707.678V122H706.559V114.395H703.822V113.469H710.42V114.395ZM713.561 122.117C712.701 122.117 712.002 121.836 711.463 121.273C710.924 120.707 710.654 119.951 710.654 119.006V118.807C710.654 118.178 710.773 117.617 711.012 117.125C711.254 116.629 711.59 116.242 712.02 115.965C712.453 115.684 712.922 115.543 713.426 115.543C714.25 115.543 714.891 115.814 715.348 116.357C715.805 116.9 716.033 117.678 716.033 118.689V119.141H711.738C711.754 119.766 711.936 120.271 712.283 120.658C712.635 121.041 713.08 121.232 713.619 121.232C714.002 121.232 714.326 121.154 714.592 120.998C714.857 120.842 715.09 120.635 715.289 120.377L715.951 120.893C715.42 121.709 714.623 122.117 713.561 122.117ZM713.426 116.434C712.988 116.434 712.621 116.594 712.324 116.914C712.027 117.23 711.844 117.676 711.773 118.25H714.949V118.168C714.918 117.617 714.77 117.191 714.504 116.891C714.238 116.586 713.879 116.434 713.426 116.434ZM720.984 120.318C720.984 120.025 720.873 119.799 720.65 119.639C720.432 119.475 720.047 119.334 719.496 119.217C718.949 119.1 718.514 118.959 718.189 118.795C717.869 118.631 717.631 118.436 717.475 118.209C717.322 117.982 717.246 117.713 717.246 117.4C717.246 116.881 717.465 116.441 717.902 116.082C718.344 115.723 718.906 115.543 719.59 115.543C720.309 115.543 720.891 115.729 721.336 116.1C721.785 116.471 722.01 116.945 722.01 117.523H720.92C720.92 117.227 720.793 116.971 720.539 116.756C720.289 116.541 719.973 116.434 719.59 116.434C719.195 116.434 718.887 116.52 718.664 116.691C718.441 116.863 718.33 117.088 718.33 117.365C718.33 117.627 718.434 117.824 718.641 117.957C718.848 118.09 719.221 118.217 719.76 118.338C720.303 118.459 720.742 118.604 721.078 118.771C721.414 118.939 721.662 119.143 721.822 119.381C721.986 119.615 722.068 119.902 722.068 120.242C722.068 120.809 721.842 121.264 721.389 121.607C720.936 121.947 720.348 122.117 719.625 122.117C719.117 122.117 718.668 122.027 718.277 121.848C717.887 121.668 717.58 121.418 717.357 121.098C717.139 120.773 717.029 120.424 717.029 120.049H718.113C718.133 120.412 718.277 120.701 718.547 120.916C718.82 121.127 719.18 121.232 719.625 121.232C720.035 121.232 720.363 121.15 720.609 120.986C720.859 120.818 720.984 120.596 720.984 120.318ZM724.951 114.125V115.66H726.135V116.498H724.951V120.43C724.951 120.684 725.004 120.875 725.109 121.004C725.215 121.129 725.395 121.191 725.648 121.191C725.773 121.191 725.945 121.168 726.164 121.121V122C725.879 122.078 725.602 122.117 725.332 122.117C724.848 122.117 724.482 121.971 724.236 121.678C723.99 121.385 723.867 120.969 723.867 120.43V116.498H722.713V115.66H723.867V114.125H724.951ZM728.584 122H727.5V115.66H728.584V122ZM727.412 113.979C727.412 113.803 727.465 113.654 727.57 113.533C727.68 113.412 727.84 113.352 728.051 113.352C728.262 113.352 728.422 113.412 728.531 113.533C728.641 113.654 728.695 113.803 728.695 113.979C728.695 114.154 728.641 114.301 728.531 114.418C728.422 114.535 728.262 114.594 728.051 114.594C727.84 114.594 727.68 114.535 727.57 114.418C727.465 114.301 727.412 114.154 727.412 113.979ZM731.35 115.66L731.385 116.457C731.869 115.848 732.502 115.543 733.283 115.543C734.623 115.543 735.299 116.299 735.311 117.811V122H734.227V117.805C734.223 117.348 734.117 117.01 733.91 116.791C733.707 116.572 733.389 116.463 732.955 116.463C732.604 116.463 732.295 116.557 732.029 116.744C731.764 116.932 731.557 117.178 731.408 117.482V122H730.324V115.66H731.35ZM736.688 118.777C736.688 117.789 736.916 117.004 737.373 116.422C737.83 115.836 738.436 115.543 739.189 115.543C739.963 115.543 740.566 115.816 741 116.363L741.053 115.66H742.043V121.848C742.043 122.668 741.799 123.314 741.311 123.787C740.826 124.26 740.174 124.496 739.354 124.496C738.896 124.496 738.449 124.398 738.012 124.203C737.574 124.008 737.24 123.74 737.01 123.4L737.572 122.75C738.037 123.324 738.605 123.611 739.277 123.611C739.805 123.611 740.215 123.463 740.508 123.166C740.805 122.869 740.953 122.451 740.953 121.912V121.367C740.52 121.867 739.928 122.117 739.178 122.117C738.436 122.117 737.834 121.818 737.373 121.221C736.916 120.623 736.688 119.809 736.688 118.777ZM737.777 118.9C737.777 119.615 737.924 120.178 738.217 120.588C738.51 120.994 738.92 121.197 739.447 121.197C740.131 121.197 740.633 120.887 740.953 120.266V117.371C740.621 116.766 740.123 116.463 739.459 116.463C738.932 116.463 738.52 116.668 738.223 117.078C737.926 117.488 737.777 118.096 737.777 118.9Z" fill="black"/>
<path d="M597.939 42.4932V46H595.889V36.0469H599.771C600.519 36.0469 601.175 36.1836 601.74 36.457C602.31 36.7305 602.747 37.1201 603.053 37.626C603.358 38.1273 603.511 38.6992 603.511 39.3418C603.511 40.3171 603.176 41.0872 602.506 41.6523C601.84 42.2129 600.918 42.4932 599.737 42.4932H597.939ZM597.939 40.832H599.771C600.314 40.832 600.726 40.7044 601.009 40.4492C601.296 40.194 601.439 39.8294 601.439 39.3555C601.439 38.8678 601.296 38.4736 601.009 38.1729C600.722 37.8721 600.325 37.7171 599.819 37.708H597.939V40.832ZM608.952 40.4561C608.683 40.4196 608.446 40.4014 608.241 40.4014C607.494 40.4014 607.004 40.6543 606.771 41.1602V46H604.796V38.6035H606.662L606.717 39.4854C607.113 38.8063 607.662 38.4668 608.364 38.4668C608.583 38.4668 608.788 38.4964 608.979 38.5557L608.952 40.4561ZM609.355 42.2334C609.355 41.4997 609.497 40.8457 609.779 40.2715C610.062 39.6973 610.467 39.2529 610.996 38.9385C611.529 38.624 612.147 38.4668 612.849 38.4668C613.847 38.4668 614.66 38.7721 615.289 39.3828C615.923 39.9935 616.276 40.8229 616.349 41.8711L616.362 42.377C616.362 43.5117 616.046 44.4232 615.412 45.1113C614.779 45.7949 613.929 46.1367 612.862 46.1367C611.796 46.1367 610.944 45.7949 610.306 45.1113C609.672 44.4277 609.355 43.498 609.355 42.3223V42.2334ZM611.331 42.377C611.331 43.0788 611.463 43.6165 611.728 43.9902C611.992 44.3594 612.37 44.5439 612.862 44.5439C613.341 44.5439 613.715 44.3617 613.983 43.9971C614.252 43.6279 614.387 43.04 614.387 42.2334C614.387 41.5452 614.252 41.012 613.983 40.6338C613.715 40.2555 613.336 40.0664 612.849 40.0664C612.366 40.0664 611.992 40.2555 611.728 40.6338C611.463 41.0075 611.331 41.5885 611.331 42.377ZM619.944 36.7852V38.6035H621.209V40.0527H619.944V43.7441C619.944 44.0176 619.997 44.2135 620.102 44.332C620.206 44.4505 620.407 44.5098 620.703 44.5098C620.922 44.5098 621.116 44.4938 621.284 44.4619V45.959C620.897 46.0775 620.498 46.1367 620.088 46.1367C618.702 46.1367 617.996 45.4372 617.969 44.0381V40.0527H616.889V38.6035H617.969V36.7852H619.944ZM621.797 42.2334C621.797 41.4997 621.938 40.8457 622.221 40.2715C622.503 39.6973 622.909 39.2529 623.438 38.9385C623.971 38.624 624.588 38.4668 625.29 38.4668C626.288 38.4668 627.102 38.7721 627.73 39.3828C628.364 39.9935 628.717 40.8229 628.79 41.8711L628.804 42.377C628.804 43.5117 628.487 44.4232 627.854 45.1113C627.22 45.7949 626.37 46.1367 625.304 46.1367C624.237 46.1367 623.385 45.7949 622.747 45.1113C622.114 44.4277 621.797 43.498 621.797 42.3223V42.2334ZM623.772 42.377C623.772 43.0788 623.905 43.6165 624.169 43.9902C624.433 44.3594 624.812 44.5439 625.304 44.5439C625.782 44.5439 626.156 44.3617 626.425 43.9971C626.694 43.6279 626.828 43.04 626.828 42.2334C626.828 41.5452 626.694 41.012 626.425 40.6338C626.156 40.2555 625.778 40.0664 625.29 40.0664C624.807 40.0664 624.433 40.2555 624.169 40.6338C623.905 41.0075 623.772 41.5885 623.772 42.377ZM632.386 36.7852V38.6035H633.65V40.0527H632.386V43.7441C632.386 44.0176 632.438 44.2135 632.543 44.332C632.648 44.4505 632.848 44.5098 633.145 44.5098C633.363 44.5098 633.557 44.4938 633.726 44.4619V45.959C633.338 46.0775 632.939 46.1367 632.529 46.1367C631.144 46.1367 630.438 45.4372 630.41 44.0381V40.0527H629.33V38.6035H630.41V36.7852H632.386ZM637.513 43.2041L638.88 38.6035H640.999L638.025 47.1484L637.861 47.5381C637.419 48.5042 636.69 48.9873 635.674 48.9873C635.387 48.9873 635.095 48.944 634.799 48.8574V47.3604L635.1 47.3672C635.473 47.3672 635.751 47.3102 635.934 47.1963C636.12 47.0824 636.266 46.8932 636.371 46.6289L636.604 46.0205L634.013 38.6035H636.139L637.513 43.2041ZM648.437 42.3701C648.437 43.5094 648.177 44.4232 647.657 45.1113C647.142 45.7949 646.445 46.1367 645.565 46.1367C644.818 46.1367 644.214 45.877 643.754 45.3574V48.8438H641.778V38.6035H643.61L643.679 39.3281C644.157 38.7539 644.782 38.4668 645.552 38.4668C646.463 38.4668 647.172 38.804 647.678 39.4785C648.184 40.153 648.437 41.0827 648.437 42.2676V42.3701ZM646.461 42.2266C646.461 41.5384 646.338 41.0075 646.092 40.6338C645.85 40.2601 645.497 40.0732 645.032 40.0732C644.412 40.0732 643.986 40.3102 643.754 40.7842V43.8125C643.995 44.3001 644.426 44.5439 645.046 44.5439C645.989 44.5439 646.461 43.7715 646.461 42.2266ZM651.752 46H649.77V38.6035H651.752V46ZM649.653 36.6895C649.653 36.3932 649.751 36.1494 649.947 35.958C650.148 35.7666 650.419 35.6709 650.761 35.6709C651.098 35.6709 651.367 35.7666 651.567 35.958C651.768 36.1494 651.868 36.3932 651.868 36.6895C651.868 36.9902 651.766 37.2363 651.561 37.4277C651.36 37.6191 651.093 37.7148 650.761 37.7148C650.428 37.7148 650.159 37.6191 649.954 37.4277C649.754 37.2363 649.653 36.9902 649.653 36.6895ZM655.204 38.6035L655.266 39.458C655.794 38.7972 656.503 38.4668 657.392 38.4668C658.175 38.4668 658.759 38.6969 659.142 39.1572C659.524 39.6175 659.72 40.3057 659.729 41.2217V46H657.754V41.2695C657.754 40.8503 657.663 40.5472 657.48 40.3604C657.298 40.1689 656.995 40.0732 656.571 40.0732C656.015 40.0732 655.598 40.3102 655.32 40.7842V46H653.345V38.6035H655.204ZM660.946 42.2471C660.946 41.1123 661.215 40.1986 661.753 39.5059C662.295 38.8132 663.024 38.4668 663.94 38.4668C664.752 38.4668 665.383 38.7448 665.834 39.3008L665.916 38.6035H667.707V45.7539C667.707 46.401 667.559 46.9639 667.263 47.4424C666.971 47.9209 666.559 48.2855 666.025 48.5361C665.492 48.7868 664.868 48.9121 664.152 48.9121C663.61 48.9121 663.081 48.8027 662.566 48.584C662.051 48.3698 661.662 48.0918 661.397 47.75L662.272 46.5469C662.765 47.0983 663.362 47.374 664.063 47.374C664.588 47.374 664.995 47.2327 665.287 46.9502C665.579 46.6722 665.725 46.2757 665.725 45.7607V45.3643C665.269 45.8792 664.67 46.1367 663.927 46.1367C663.038 46.1367 662.318 45.7904 661.767 45.0977C661.22 44.4004 660.946 43.4775 660.946 42.3291V42.2471ZM662.922 42.3906C662.922 43.0605 663.056 43.5869 663.325 43.9697C663.594 44.348 663.963 44.5371 664.433 44.5371C665.034 44.5371 665.465 44.3115 665.725 43.8604V40.75C665.46 40.2988 665.034 40.0732 664.446 40.0732C663.972 40.0732 663.599 40.2669 663.325 40.6543C663.056 41.0417 662.922 41.6204 662.922 42.3906Z" fill="#657B83"/>
<path d="M311.842 83.04C311.172 79.59 308.185 77 304.597 77C301.748 77 299.274 78.64 298.042 81.04C295.075 81.36 292.768 83.91 292.768 87C292.768 90.31 295.42 93 298.683 93H311.497C314.218 93 316.426 90.76 316.426 88C316.426 85.36 314.405 83.22 311.842 83.04Z" fill="#657B83"/>
<path d="M574.52 98.48C571.25 96.94 568.91 93.76 568.55 90H567.05C567.56 96.16 572.71 101 579 101L579.66 100.97L575.85 97.16L574.52 98.48ZM575.41 91.96C575.22 91.96 575.04 91.93 574.89 91.88C574.73 91.82 574.6 91.75 574.49 91.64C574.38 91.54 574.29 91.42 574.23 91.27C574.17 91.13 574.14 90.97 574.14 90.8H572.84C572.84 91.16 572.91 91.48 573.05 91.75C573.19 92.02 573.38 92.25 573.61 92.44C573.85 92.62 574.12 92.76 574.43 92.85C574.73 92.95 575.05 93 575.39 93C575.76 93 576.11 92.95 576.42 92.85C576.74 92.75 577.02 92.6 577.25 92.41C577.48 92.22 577.67 91.98 577.8 91.69C577.93 91.4 578 91.08 578 90.72C578 90.53 577.98 90.34 577.93 90.16C577.88 89.98 577.81 89.81 577.7 89.65C577.6 89.49 577.46 89.35 577.3 89.22C577.13 89.09 576.93 88.99 576.69 88.91C576.89 88.82 577.06 88.71 577.21 88.58C577.36 88.45 577.48 88.31 577.58 88.16C577.68 88.01 577.75 87.86 577.8 87.7C577.85 87.54 577.87 87.38 577.87 87.22C577.87 86.86 577.81 86.54 577.69 86.26C577.57 85.98 577.4 85.75 577.18 85.57C576.98 85.38 576.71 85.24 576.41 85.14C576.1 85.05 575.76 85 575.39 85C575.03 85 574.7 85.05 574.39 85.16C574.09 85.27 573.82 85.42 573.6 85.61C573.39 85.8 573.22 86.02 573.09 86.28C572.97 86.54 572.91 86.82 572.91 87.13H574.21C574.21 86.96 574.24 86.81 574.3 86.68C574.36 86.55 574.44 86.43 574.55 86.34C574.66 86.25 574.78 86.17 574.93 86.12C575.08 86.07 575.23 86.04 575.41 86.04C575.81 86.04 576.11 86.14 576.3 86.35C576.49 86.55 576.59 86.84 576.59 87.21C576.59 87.39 576.56 87.55 576.51 87.7C576.46 87.85 576.37 87.97 576.26 88.07C576.15 88.17 576.01 88.25 575.85 88.31C575.69 88.37 575.49 88.4 575.27 88.4H574.5V89.43H575.27C575.49 89.43 575.69 89.45 575.87 89.5C576.05 89.55 576.2 89.63 576.32 89.73C576.44 89.84 576.54 89.97 576.61 90.13C576.68 90.29 576.71 90.48 576.71 90.7C576.71 91.11 576.59 91.42 576.36 91.63C576.13 91.86 575.81 91.96 575.41 91.96V91.96ZM583.96 86.04C583.64 85.71 583.26 85.45 582.82 85.27C582.39 85.09 581.9 85 581.36 85H579V93H581.3C581.85 93 582.36 92.91 582.81 92.73C583.26 92.55 583.65 92.3 583.97 91.97C584.29 91.64 584.54 91.24 584.71 90.78C584.88 90.31 584.97 89.79 584.97 89.21V88.81C584.97 88.23 584.88 87.71 584.71 87.24C584.53 86.77 584.28 86.37 583.96 86.04V86.04ZM583.57 89.2C583.57 89.62 583.52 89.99 583.43 90.33C583.33 90.66 583.19 90.95 583 91.18C582.81 91.41 582.57 91.59 582.29 91.71C582 91.83 581.67 91.89 581.3 91.89H580.39V86.12H581.36C582.08 86.12 582.63 86.35 583 86.81C583.38 87.27 583.57 87.93 583.57 88.8V89.2V89.2ZM579 77L578.34 77.03L582.15 80.84L583.48 79.51C586.75 81.06 589.09 84.23 589.44 87.99H590.94C590.44 81.84 585.29 77 579 77Z" fill="#657B83"/>
<path d="M686.329 85.24V81.5C686.329 80.12 687.433 79 688.794 79C690.154 79 691.258 80.12 691.258 81.5V85.24C692.451 84.43 693.23 83.06 693.23 81.5C693.23 79.01 691.248 77 688.794 77C686.339 77 684.358 79.01 684.358 81.5C684.358 83.06 685.137 84.43 686.329 85.24ZM696.029 89.87L691.554 87.61C691.386 87.54 691.209 87.5 691.022 87.5H690.272V81.5C690.272 80.67 689.612 80 688.794 80C687.976 80 687.315 80.67 687.315 81.5V92.24L683.934 91.52C683.855 91.51 683.786 91.49 683.697 91.49C683.392 91.49 683.116 91.62 682.919 91.82L682.14 92.62L687.01 97.56C687.276 97.83 687.65 98 688.054 98H694.748C695.487 98 696.059 97.45 696.167 96.72L696.906 91.45C696.916 91.38 696.926 91.31 696.926 91.25C696.926 90.63 696.552 90.09 696.029 89.87V89.87Z" fill="#657B83"/>
<line x1="38" y1="141" x2="196" y2="141" stroke="#E5E5E5" stroke-width="2"/>
<line x1="281" y1="141" x2="439" y2="141" stroke="#E5E5E5" stroke-width="2"/>
<line x1="557" y1="141" x2="715" y2="141" stroke="#E5E5E5" stroke-width="2"/>
<path d="M138.996 114.469V120.27C138.992 121.074 138.738 121.732 138.234 122.244C137.734 122.756 137.055 123.043 136.195 123.105L135.896 123.117C134.963 123.117 134.219 122.865 133.664 122.361C133.109 121.857 132.828 121.164 132.82 120.281V114.469H133.934V120.246C133.934 120.863 134.104 121.344 134.443 121.688C134.783 122.027 135.268 122.197 135.896 122.197C136.533 122.197 137.02 122.027 137.355 121.688C137.695 121.348 137.865 120.869 137.865 120.252V114.469H138.996ZM144.293 121.318C144.293 121.025 144.182 120.799 143.959 120.639C143.74 120.475 143.355 120.334 142.805 120.217C142.258 120.1 141.822 119.959 141.498 119.795C141.178 119.631 140.939 119.436 140.783 119.209C140.631 118.982 140.555 118.713 140.555 118.4C140.555 117.881 140.773 117.441 141.211 117.082C141.652 116.723 142.215 116.543 142.898 116.543C143.617 116.543 144.199 116.729 144.645 117.1C145.094 117.471 145.318 117.945 145.318 118.523H144.229C144.229 118.227 144.102 117.971 143.848 117.756C143.598 117.541 143.281 117.434 142.898 117.434C142.504 117.434 142.195 117.52 141.973 117.691C141.75 117.863 141.639 118.088 141.639 118.365C141.639 118.627 141.742 118.824 141.949 118.957C142.156 119.09 142.529 119.217 143.068 119.338C143.611 119.459 144.051 119.604 144.387 119.771C144.723 119.939 144.971 120.143 145.131 120.381C145.295 120.615 145.377 120.902 145.377 121.242C145.377 121.809 145.15 122.264 144.697 122.607C144.244 122.947 143.656 123.117 142.934 123.117C142.426 123.117 141.977 123.027 141.586 122.848C141.195 122.668 140.889 122.418 140.666 122.098C140.447 121.773 140.338 121.424 140.338 121.049H141.422C141.441 121.412 141.586 121.701 141.855 121.916C142.129 122.127 142.488 122.232 142.934 122.232C143.344 122.232 143.672 122.15 143.918 121.986C144.168 121.818 144.293 121.596 144.293 121.318ZM149.42 123.117C148.561 123.117 147.861 122.836 147.322 122.273C146.783 121.707 146.514 120.951 146.514 120.006V119.807C146.514 119.178 146.633 118.617 146.871 118.125C147.113 117.629 147.449 117.242 147.879 116.965C148.312 116.684 148.781 116.543 149.285 116.543C150.109 116.543 150.75 116.814 151.207 117.357C151.664 117.9 151.893 118.678 151.893 119.689V120.141H147.598C147.613 120.766 147.795 121.271 148.143 121.658C148.494 122.041 148.939 122.232 149.479 122.232C149.861 122.232 150.186 122.154 150.451 121.998C150.717 121.842 150.949 121.635 151.148 121.377L151.811 121.893C151.279 122.709 150.482 123.117 149.42 123.117ZM149.285 117.434C148.848 117.434 148.48 117.594 148.184 117.914C147.887 118.23 147.703 118.676 147.633 119.25H150.809V119.168C150.777 118.617 150.629 118.191 150.363 117.891C150.098 117.586 149.738 117.434 149.285 117.434ZM156.217 117.633C156.053 117.605 155.875 117.592 155.684 117.592C154.973 117.592 154.49 117.895 154.236 118.5V123H153.152V116.66H154.207L154.225 117.393C154.58 116.826 155.084 116.543 155.736 116.543C155.947 116.543 156.107 116.57 156.217 116.625V117.633ZM161.49 119.66V123H160.365V114.469H163.512C164.445 114.469 165.176 114.707 165.703 115.184C166.234 115.66 166.5 116.291 166.5 117.076C166.5 117.904 166.24 118.543 165.721 118.992C165.205 119.438 164.465 119.66 163.5 119.66H161.49ZM161.49 118.74H163.512C164.113 118.74 164.574 118.6 164.895 118.318C165.215 118.033 165.375 117.623 165.375 117.088C165.375 116.58 165.215 116.174 164.895 115.869C164.574 115.564 164.135 115.406 163.576 115.395H161.49V118.74ZM170.314 123.117C169.455 123.117 168.756 122.836 168.217 122.273C167.678 121.707 167.408 120.951 167.408 120.006V119.807C167.408 119.178 167.527 118.617 167.766 118.125C168.008 117.629 168.344 117.242 168.773 116.965C169.207 116.684 169.676 116.543 170.18 116.543C171.004 116.543 171.645 116.814 172.102 117.357C172.559 117.9 172.787 118.678 172.787 119.689V120.141H168.492C168.508 120.766 168.689 121.271 169.037 121.658C169.389 122.041 169.834 122.232 170.373 122.232C170.756 122.232 171.08 122.154 171.346 121.998C171.611 121.842 171.844 121.635 172.043 121.377L172.705 121.893C172.174 122.709 171.377 123.117 170.314 123.117ZM170.18 117.434C169.742 117.434 169.375 117.594 169.078 117.914C168.781 118.23 168.598 118.676 168.527 119.25H171.703V119.168C171.672 118.617 171.523 118.191 171.258 117.891C170.992 117.586 170.633 117.434 170.18 117.434ZM177.111 117.633C176.947 117.605 176.77 117.592 176.578 117.592C175.867 117.592 175.385 117.895 175.131 118.5V123H174.047V116.66H175.102L175.119 117.393C175.475 116.826 175.979 116.543 176.631 116.543C176.842 116.543 177.002 116.57 177.111 116.625V117.633ZM181.805 121.318C181.805 121.025 181.693 120.799 181.471 120.639C181.252 120.475 180.867 120.334 180.316 120.217C179.77 120.1 179.334 119.959 179.01 119.795C178.689 119.631 178.451 119.436 178.295 119.209C178.143 118.982 178.066 118.713 178.066 118.4C178.066 117.881 178.285 117.441 178.723 117.082C179.164 116.723 179.727 116.543 180.41 116.543C181.129 116.543 181.711 116.729 182.156 117.1C182.605 117.471 182.83 117.945 182.83 118.523H181.74C181.74 118.227 181.613 117.971 181.359 117.756C181.109 117.541 180.793 117.434 180.41 117.434C180.016 117.434 179.707 117.52 179.484 117.691C179.262 117.863 179.15 118.088 179.15 118.365C179.15 118.627 179.254 118.824 179.461 118.957C179.668 119.09 180.041 119.217 180.58 119.338C181.123 119.459 181.562 119.604 181.898 119.771C182.234 119.939 182.482 120.143 182.643 120.381C182.807 120.615 182.889 120.902 182.889 121.242C182.889 121.809 182.662 122.264 182.209 122.607C181.756 122.947 181.168 123.117 180.445 123.117C179.938 123.117 179.488 123.027 179.098 122.848C178.707 122.668 178.4 122.418 178.178 122.098C177.959 121.773 177.85 121.424 177.85 121.049H178.934C178.953 121.412 179.098 121.701 179.367 121.916C179.641 122.127 180 122.232 180.445 122.232C180.855 122.232 181.184 122.15 181.43 121.986C181.68 121.818 181.805 121.596 181.805 121.318ZM184.014 119.771C184.014 119.15 184.135 118.592 184.377 118.096C184.623 117.6 184.963 117.217 185.396 116.947C185.834 116.678 186.332 116.543 186.891 116.543C187.754 116.543 188.451 116.842 188.982 117.439C189.518 118.037 189.785 118.832 189.785 119.824V119.9C189.785 120.518 189.666 121.072 189.428 121.564C189.193 122.053 188.855 122.434 188.414 122.707C187.977 122.98 187.473 123.117 186.902 123.117C186.043 123.117 185.346 122.818 184.811 122.221C184.279 121.623 184.014 120.832 184.014 119.848V119.771ZM185.104 119.9C185.104 120.604 185.266 121.168 185.59 121.594C185.918 122.02 186.355 122.232 186.902 122.232C187.453 122.232 187.891 122.018 188.215 121.588C188.539 121.154 188.701 120.549 188.701 119.771C188.701 119.076 188.535 118.514 188.203 118.084C187.875 117.65 187.438 117.434 186.891 117.434C186.355 117.434 185.924 117.646 185.596 118.072C185.268 118.498 185.104 119.107 185.104 119.9ZM192.17 116.66L192.205 117.457C192.689 116.848 193.322 116.543 194.104 116.543C195.443 116.543 196.119 117.299 196.131 118.811V123H195.047V118.805C195.043 118.348 194.938 118.01 194.73 117.791C194.527 117.572 194.209 117.463 193.775 117.463C193.424 117.463 193.115 117.557 192.85 117.744C192.584 117.932 192.377 118.178 192.229 118.482V123H191.145V116.66H192.17ZM201.68 123C201.617 122.875 201.566 122.652 201.527 122.332C201.023 122.855 200.422 123.117 199.723 123.117C199.098 123.117 198.584 122.941 198.182 122.59C197.783 122.234 197.584 121.785 197.584 121.242C197.584 120.582 197.834 120.07 198.334 119.707C198.838 119.34 199.545 119.156 200.455 119.156H201.51V118.658C201.51 118.279 201.396 117.979 201.17 117.756C200.943 117.529 200.609 117.416 200.168 117.416C199.781 117.416 199.457 117.514 199.195 117.709C198.934 117.904 198.803 118.141 198.803 118.418H197.713C197.713 118.102 197.824 117.797 198.047 117.504C198.273 117.207 198.578 116.973 198.961 116.801C199.348 116.629 199.771 116.543 200.232 116.543C200.963 116.543 201.535 116.727 201.949 117.094C202.363 117.457 202.578 117.959 202.594 118.6V121.518C202.594 122.1 202.668 122.562 202.816 122.906V123H201.68ZM199.881 122.174C200.221 122.174 200.543 122.086 200.848 121.91C201.152 121.734 201.373 121.506 201.51 121.225V119.924H200.66C199.332 119.924 198.668 120.312 198.668 121.09C198.668 121.43 198.781 121.695 199.008 121.887C199.234 122.078 199.525 122.174 199.881 122.174Z" fill="black"/>
<path d="M173.071 78C170.498 78.7 167.481 79 164.692 79C161.902 79 158.886 78.7 156.313 78L155.82 80C157.653 80.5 159.763 80.83 161.734 81V94H163.706V88H165.677V94H167.649V81C169.62 80.83 171.73 80.5 173.563 80L173.071 78ZM164.692 78C165.776 78 166.663 77.1 166.663 76C166.663 74.9 165.776 74 164.692 74C163.607 74 162.72 74.9 162.72 76C162.72 77.1 163.607 78 164.692 78Z" fill="#657B83"/>
<path d="M12.2656 120.293C12.1602 121.195 11.8262 121.893 11.2637 122.385C10.7051 122.873 9.96094 123.117 9.03125 123.117C8.02344 123.117 7.21484 122.756 6.60547 122.033C6 121.311 5.69727 120.344 5.69727 119.133V118.312C5.69727 117.52 5.83789 116.822 6.11914 116.221C6.4043 115.619 6.80664 115.158 7.32617 114.838C7.8457 114.514 8.44727 114.352 9.13086 114.352C10.0371 114.352 10.7637 114.605 11.3105 115.113C11.8574 115.617 12.1758 116.316 12.2656 117.211H11.1348C11.0371 116.531 10.8242 116.039 10.4961 115.734C10.1719 115.43 9.7168 115.277 9.13086 115.277C8.41211 115.277 7.84766 115.543 7.4375 116.074C7.03125 116.605 6.82812 117.361 6.82812 118.342V119.168C6.82812 120.094 7.02148 120.83 7.4082 121.377C7.79492 121.924 8.33594 122.197 9.03125 122.197C9.65625 122.197 10.1348 122.057 10.4668 121.775C10.8027 121.49 11.0254 120.996 11.1348 120.293H12.2656ZM13.3496 119.771C13.3496 119.15 13.4707 118.592 13.7129 118.096C13.959 117.6 14.2988 117.217 14.7324 116.947C15.1699 116.678 15.668 116.543 16.2266 116.543C17.0898 116.543 17.7871 116.842 18.3184 117.439C18.8535 118.037 19.1211 118.832 19.1211 119.824V119.9C19.1211 120.518 19.002 121.072 18.7637 121.564C18.5293 122.053 18.1914 122.434 17.75 122.707C17.3125 122.98 16.8086 123.117 16.2383 123.117C15.3789 123.117 14.6816 122.818 14.1465 122.221C13.6152 121.623 13.3496 120.832 13.3496 119.848V119.771ZM14.4395 119.9C14.4395 120.604 14.6016 121.168 14.9258 121.594C15.2539 122.02 15.6914 122.232 16.2383 122.232C16.7891 122.232 17.2266 122.018 17.5508 121.588C17.875 121.154 18.0371 120.549 18.0371 119.771C18.0371 119.076 17.8711 118.514 17.5391 118.084C17.2109 117.65 16.7734 117.434 16.2266 117.434C15.6914 117.434 15.2598 117.646 14.9316 118.072C14.6035 118.498 14.4395 119.107 14.4395 119.9ZM21.5 116.66L21.5293 117.363C21.9941 116.816 22.6211 116.543 23.4102 116.543C24.2969 116.543 24.9004 116.883 25.2207 117.562C25.4316 117.258 25.7051 117.012 26.041 116.824C26.3809 116.637 26.7812 116.543 27.2422 116.543C28.6328 116.543 29.3398 117.279 29.3633 118.752V123H28.2793V118.816C28.2793 118.363 28.1758 118.025 27.9688 117.803C27.7617 117.576 27.4141 117.463 26.9258 117.463C26.5234 117.463 26.1895 117.584 25.9238 117.826C25.6582 118.064 25.5039 118.387 25.4609 118.793V123H24.3711V118.846C24.3711 117.924 23.9199 117.463 23.0176 117.463C22.3066 117.463 21.8203 117.766 21.5586 118.371V123H20.4746V116.66H21.5ZM36.3594 119.9C36.3594 120.865 36.1387 121.643 35.6973 122.232C35.2559 122.822 34.6582 123.117 33.9043 123.117C33.1348 123.117 32.5293 122.873 32.0879 122.385V125.438H31.0039V116.66H31.9941L32.0469 117.363C32.4883 116.816 33.1016 116.543 33.8867 116.543C34.6484 116.543 35.25 116.83 35.6914 117.404C36.1367 117.979 36.3594 118.777 36.3594 119.801V119.9ZM35.2754 119.777C35.2754 119.062 35.123 118.498 34.8184 118.084C34.5137 117.67 34.0957 117.463 33.5645 117.463C32.9082 117.463 32.416 117.754 32.0879 118.336V121.365C32.4121 121.943 32.9082 122.232 33.5762 122.232C34.0957 122.232 34.5078 122.027 34.8125 121.617C35.1211 121.203 35.2754 120.59 35.2754 119.777ZM41.6562 123C41.5938 122.875 41.543 122.652 41.5039 122.332C41 122.855 40.3984 123.117 39.6992 123.117C39.0742 123.117 38.5605 122.941 38.1582 122.59C37.7598 122.234 37.5605 121.785 37.5605 121.242C37.5605 120.582 37.8105 120.07 38.3105 119.707C38.8145 119.34 39.5215 119.156 40.4316 119.156H41.4863V118.658C41.4863 118.279 41.373 117.979 41.1465 117.756C40.9199 117.529 40.5859 117.416 40.1445 117.416C39.7578 117.416 39.4336 117.514 39.1719 117.709C38.9102 117.904 38.7793 118.141 38.7793 118.418H37.6895C37.6895 118.102 37.8008 117.797 38.0234 117.504C38.25 117.207 38.5547 116.973 38.9375 116.801C39.3242 116.629 39.748 116.543 40.209 116.543C40.9395 116.543 41.5117 116.727 41.9258 117.094C42.3398 117.457 42.5547 117.959 42.5703 118.6V121.518C42.5703 122.1 42.6445 122.562 42.793 122.906V123H41.6562ZM39.8574 122.174C40.1973 122.174 40.5195 122.086 40.8242 121.91C41.1289 121.734 41.3496 121.506 41.4863 121.225V119.924H40.6367C39.3086 119.924 38.6445 120.312 38.6445 121.09C38.6445 121.43 38.7578 121.695 38.9844 121.887C39.2109 122.078 39.502 122.174 39.8574 122.174ZM47.334 117.633C47.1699 117.605 46.9922 117.592 46.8008 117.592C46.0898 117.592 45.6074 117.895 45.3535 118.5V123H44.2695V116.66H45.3242L45.3418 117.393C45.6973 116.826 46.2012 116.543 46.8535 116.543C47.0645 116.543 47.2246 116.57 47.334 116.625V117.633ZM52.0156 123C51.9531 122.875 51.9023 122.652 51.8633 122.332C51.3594 122.855 50.7578 123.117 50.0586 123.117C49.4336 123.117 48.9199 122.941 48.5176 122.59C48.1191 122.234 47.9199 121.785 47.9199 121.242C47.9199 120.582 48.1699 120.07 48.6699 119.707C49.1738 119.34 49.8809 119.156 50.791 119.156H51.8457V118.658C51.8457 118.279 51.7324 117.979 51.5059 117.756C51.2793 117.529 50.9453 117.416 50.5039 117.416C50.1172 117.416 49.793 117.514 49.5312 117.709C49.2695 117.904 49.1387 118.141 49.1387 118.418H48.0488C48.0488 118.102 48.1602 117.797 48.3828 117.504C48.6094 117.207 48.9141 116.973 49.2969 116.801C49.6836 116.629 50.1074 116.543 50.5684 116.543C51.2988 116.543 51.8711 116.727 52.2852 117.094C52.6992 117.457 52.9141 117.959 52.9297 118.6V121.518C52.9297 122.1 53.0039 122.562 53.1523 122.906V123H52.0156ZM50.2168 122.174C50.5566 122.174 50.8789 122.086 51.1836 121.91C51.4883 121.734 51.709 121.506 51.8457 121.225V119.924H50.9961C49.668 119.924 49.0039 120.312 49.0039 121.09C49.0039 121.43 49.1172 121.695 49.3438 121.887C49.5703 122.078 49.8613 122.174 50.2168 122.174ZM56.0996 115.125V116.66H57.2832V117.498H56.0996V121.43C56.0996 121.684 56.1523 121.875 56.2578 122.004C56.3633 122.129 56.543 122.191 56.7969 122.191C56.9219 122.191 57.0938 122.168 57.3125 122.121V123C57.0273 123.078 56.75 123.117 56.4805 123.117C55.9961 123.117 55.6309 122.971 55.3848 122.678C55.1387 122.385 55.0156 121.969 55.0156 121.43V117.498H53.8613V116.66H55.0156V115.125H56.0996ZM59.7324 123H58.6484V116.66H59.7324V123ZM58.5605 114.979C58.5605 114.803 58.6133 114.654 58.7188 114.533C58.8281 114.412 58.9883 114.352 59.1992 114.352C59.4102 114.352 59.5703 114.412 59.6797 114.533C59.7891 114.654 59.8438 114.803 59.8438 114.979C59.8438 115.154 59.7891 115.301 59.6797 115.418C59.5703 115.535 59.4102 115.594 59.1992 115.594C58.9883 115.594 58.8281 115.535 58.7188 115.418C58.6133 115.301 58.5605 115.154 58.5605 114.979ZM63.5645 121.529L65.1348 116.66H66.2422L63.9688 123H63.1426L60.8457 116.66H61.9531L63.5645 121.529ZM69.834 123.117C68.9746 123.117 68.2754 122.836 67.7363 122.273C67.1973 121.707 66.9277 120.951 66.9277 120.006V119.807C66.9277 119.178 67.0469 118.617 67.2852 118.125C67.5273 117.629 67.8633 117.242 68.293 116.965C68.7266 116.684 69.1953 116.543 69.6992 116.543C70.5234 116.543 71.1641 116.814 71.6211 117.357C72.0781 117.9 72.3066 118.678 72.3066 119.689V120.141H68.0117C68.0273 120.766 68.209 121.271 68.5566 121.658C68.9082 122.041 69.3535 122.232 69.8926 122.232C70.2754 122.232 70.5996 122.154 70.8652 121.998C71.1309 121.842 71.3633 121.635 71.5625 121.377L72.2246 121.893C71.6934 122.709 70.8965 123.117 69.834 123.117ZM69.6992 117.434C69.2617 117.434 68.8945 117.594 68.5977 117.914C68.3008 118.23 68.1172 118.676 68.0469 119.25H71.2227V119.168C71.1914 118.617 71.043 118.191 70.7773 117.891C70.5117 117.586 70.1523 117.434 69.6992 117.434ZM81.4238 120.773H77.8496L77.0469 123H75.8867L79.1445 114.469H80.1289L83.3926 123H82.2383L81.4238 120.773ZM78.1895 119.848H81.0898L79.6367 115.857L78.1895 119.848ZM85.3965 116.66L85.4316 117.457C85.916 116.848 86.5488 116.543 87.3301 116.543C88.6699 116.543 89.3457 117.299 89.3574 118.811V123H88.2734V118.805C88.2695 118.348 88.1641 118.01 87.957 117.791C87.7539 117.572 87.4355 117.463 87.002 117.463C86.6504 117.463 86.3418 117.557 86.0762 117.744C85.8105 117.932 85.6035 118.178 85.4551 118.482V123H84.3711V116.66H85.3965ZM94.9062 123C94.8438 122.875 94.793 122.652 94.7539 122.332C94.25 122.855 93.6484 123.117 92.9492 123.117C92.3242 123.117 91.8105 122.941 91.4082 122.59C91.0098 122.234 90.8105 121.785 90.8105 121.242C90.8105 120.582 91.0605 120.07 91.5605 119.707C92.0645 119.34 92.7715 119.156 93.6816 119.156H94.7363V118.658C94.7363 118.279 94.623 117.979 94.3965 117.756C94.1699 117.529 93.8359 117.416 93.3945 117.416C93.0078 117.416 92.6836 117.514 92.4219 117.709C92.1602 117.904 92.0293 118.141 92.0293 118.418H90.9395C90.9395 118.102 91.0508 117.797 91.2734 117.504C91.5 117.207 91.8047 116.973 92.1875 116.801C92.5742 116.629 92.998 116.543 93.459 116.543C94.1895 116.543 94.7617 116.727 95.1758 117.094C95.5898 117.457 95.8047 117.959 95.8203 118.6V121.518C95.8203 122.1 95.8945 122.562 96.043 122.906V123H94.9062ZM93.1074 122.174C93.4473 122.174 93.7695 122.086 94.0742 121.91C94.3789 121.734 94.5996 121.506 94.7363 121.225V119.924H93.8867C92.5586 119.924 91.8945 120.312 91.8945 121.09C91.8945 121.43 92.0078 121.695 92.2344 121.887C92.4609 122.078 92.752 122.174 93.1074 122.174ZM98.6973 123H97.6133V114H98.6973V123ZM102.512 121.412L103.988 116.66H105.148L102.6 123.979C102.205 125.033 101.578 125.561 100.719 125.561L100.514 125.543L100.109 125.467V124.588L100.402 124.611C100.77 124.611 101.055 124.537 101.258 124.389C101.465 124.24 101.635 123.969 101.768 123.574L102.008 122.93L99.7461 116.66H100.93L102.512 121.412ZM109.812 121.318C109.812 121.025 109.701 120.799 109.479 120.639C109.26 120.475 108.875 120.334 108.324 120.217C107.777 120.1 107.342 119.959 107.018 119.795C106.697 119.631 106.459 119.436 106.303 119.209C106.15 118.982 106.074 118.713 106.074 118.4C106.074 117.881 106.293 117.441 106.73 117.082C107.172 116.723 107.734 116.543 108.418 116.543C109.137 116.543 109.719 116.729 110.164 117.1C110.613 117.471 110.838 117.945 110.838 118.523H109.748C109.748 118.227 109.621 117.971 109.367 117.756C109.117 117.541 108.801 117.434 108.418 117.434C108.023 117.434 107.715 117.52 107.492 117.691C107.27 117.863 107.158 118.088 107.158 118.365C107.158 118.627 107.262 118.824 107.469 118.957C107.676 119.09 108.049 119.217 108.588 119.338C109.131 119.459 109.57 119.604 109.906 119.771C110.242 119.939 110.49 120.143 110.65 120.381C110.814 120.615 110.896 120.902 110.896 121.242C110.896 121.809 110.67 122.264 110.217 122.607C109.764 122.947 109.176 123.117 108.453 123.117C107.945 123.117 107.496 123.027 107.105 122.848C106.715 122.668 106.408 122.418 106.186 122.098C105.967 121.773 105.857 121.424 105.857 121.049H106.941C106.961 121.412 107.105 121.701 107.375 121.916C107.648 122.127 108.008 122.232 108.453 122.232C108.863 122.232 109.191 122.15 109.438 121.986C109.688 121.818 109.812 121.596 109.812 121.318ZM113.486 123H112.402V116.66H113.486V123ZM112.314 114.979C112.314 114.803 112.367 114.654 112.473 114.533C112.582 114.412 112.742 114.352 112.953 114.352C113.164 114.352 113.324 114.412 113.434 114.533C113.543 114.654 113.598 114.803 113.598 114.979C113.598 115.154 113.543 115.301 113.434 115.418C113.324 115.535 113.164 115.594 112.953 115.594C112.742 115.594 112.582 115.535 112.473 115.418C112.367 115.301 112.314 115.154 112.314 114.979ZM118.918 121.318C118.918 121.025 118.807 120.799 118.584 120.639C118.365 120.475 117.98 120.334 117.43 120.217C116.883 120.1 116.447 119.959 116.123 119.795C115.803 119.631 115.564 119.436 115.408 119.209C115.256 118.982 115.18 118.713 115.18 118.4C115.18 117.881 115.398 117.441 115.836 117.082C116.277 116.723 116.84 116.543 117.523 116.543C118.242 116.543 118.824 116.729 119.27 117.1C119.719 117.471 119.943 117.945 119.943 118.523H118.854C118.854 118.227 118.727 117.971 118.473 117.756C118.223 117.541 117.906 117.434 117.523 117.434C117.129 117.434 116.82 117.52 116.598 117.691C116.375 117.863 116.264 118.088 116.264 118.365C116.264 118.627 116.367 118.824 116.574 118.957C116.781 119.09 117.154 119.217 117.693 119.338C118.236 119.459 118.676 119.604 119.012 119.771C119.348 119.939 119.596 120.143 119.756 120.381C119.92 120.615 120.002 120.902 120.002 121.242C120.002 121.809 119.775 122.264 119.322 122.607C118.869 122.947 118.281 123.117 117.559 123.117C117.051 123.117 116.602 123.027 116.211 122.848C115.82 122.668 115.514 122.418 115.291 122.098C115.072 121.773 114.963 121.424 114.963 121.049H116.047C116.066 121.412 116.211 121.701 116.48 121.916C116.754 122.127 117.113 122.232 117.559 122.232C117.969 122.232 118.297 122.15 118.543 121.986C118.793 121.818 118.918 121.596 118.918 121.318Z" fill="black"/>
<path d="M67.1023 77H53.3018C52.2175 77 51.3303 77.9 51.3303 79V93C51.3303 94.1 52.2175 95 53.3018 95H67.1023C68.1867 95 69.0738 94.1 69.0738 93V79C69.0738 77.9 68.1867 77 67.1023 77ZM57.2448 91H55.2733V84H57.2448V91ZM61.1878 91H59.2163V81H61.1878V91ZM65.1308 91H63.1593V87H65.1308V91Z" fill="#657B83"/>
<path d="M366.121 120.08H370.164V121H364.99V112.469H366.121V120.08ZM376.152 117.232H372.572V121H371.447V112.469H376.732V113.395H372.572V116.312H376.152V117.232ZM382.896 118.311L383.061 119.436L383.301 118.422L384.988 112.469H385.938L387.584 118.422L387.818 119.453L388 118.305L389.324 112.469H390.455L388.387 121H387.361L385.604 114.783L385.469 114.133L385.334 114.783L383.512 121H382.486L380.424 112.469H381.549L382.896 118.311ZM392.717 121H391.633V114.66H392.717V121ZM391.545 112.979C391.545 112.803 391.598 112.654 391.703 112.533C391.812 112.412 391.973 112.352 392.184 112.352C392.395 112.352 392.555 112.412 392.664 112.533C392.773 112.654 392.828 112.803 392.828 112.979C392.828 113.154 392.773 113.301 392.664 113.418C392.555 113.535 392.395 113.594 392.184 113.594C391.973 113.594 391.812 113.535 391.703 113.418C391.598 113.301 391.545 113.154 391.545 112.979ZM397.521 115.633C397.357 115.605 397.18 115.592 396.988 115.592C396.277 115.592 395.795 115.895 395.541 116.5V121H394.457V114.66H395.512L395.529 115.393C395.885 114.826 396.389 114.543 397.041 114.543C397.252 114.543 397.412 114.57 397.521 114.625V115.633ZM401.037 121.117C400.178 121.117 399.479 120.836 398.939 120.273C398.4 119.707 398.131 118.951 398.131 118.006V117.807C398.131 117.178 398.25 116.617 398.488 116.125C398.73 115.629 399.066 115.242 399.496 114.965C399.93 114.684 400.398 114.543 400.902 114.543C401.727 114.543 402.367 114.814 402.824 115.357C403.281 115.9 403.51 116.678 403.51 117.689V118.141H399.215C399.23 118.766 399.412 119.271 399.76 119.658C400.111 120.041 400.557 120.232 401.096 120.232C401.479 120.232 401.803 120.154 402.068 119.998C402.334 119.842 402.566 119.635 402.766 119.377L403.428 119.893C402.896 120.709 402.1 121.117 401.037 121.117ZM400.902 115.434C400.465 115.434 400.098 115.594 399.801 115.914C399.504 116.23 399.32 116.676 399.25 117.25H402.426V117.168C402.395 116.617 402.246 116.191 401.98 115.891C401.715 115.586 401.355 115.434 400.902 115.434ZM405.303 121V115.498H404.301V114.66H405.303V114.01C405.303 113.33 405.484 112.805 405.848 112.434C406.211 112.062 406.725 111.877 407.389 111.877C407.639 111.877 407.887 111.91 408.133 111.977L408.074 112.855C407.891 112.82 407.695 112.803 407.488 112.803C407.137 112.803 406.865 112.906 406.674 113.113C406.482 113.316 406.387 113.609 406.387 113.992V114.66H407.74V115.498H406.387V121H405.303ZM412.006 115.633C411.842 115.605 411.664 115.592 411.473 115.592C410.762 115.592 410.279 115.895 410.025 116.5V121H408.941V114.66H409.996L410.014 115.393C410.369 114.826 410.873 114.543 411.525 114.543C411.736 114.543 411.896 114.57 412.006 114.625V115.633ZM416.688 121C416.625 120.875 416.574 120.652 416.535 120.332C416.031 120.855 415.43 121.117 414.73 121.117C414.105 121.117 413.592 120.941 413.189 120.59C412.791 120.234 412.592 119.785 412.592 119.242C412.592 118.582 412.842 118.07 413.342 117.707C413.846 117.34 414.553 117.156 415.463 117.156H416.518V116.658C416.518 116.279 416.404 115.979 416.178 115.756C415.951 115.529 415.617 115.416 415.176 115.416C414.789 115.416 414.465 115.514 414.203 115.709C413.941 115.904 413.811 116.141 413.811 116.418H412.721C412.721 116.102 412.832 115.797 413.055 115.504C413.281 115.207 413.586 114.973 413.969 114.801C414.355 114.629 414.779 114.543 415.24 114.543C415.971 114.543 416.543 114.727 416.957 115.094C417.371 115.457 417.586 115.959 417.602 116.6V119.518C417.602 120.1 417.676 120.562 417.824 120.906V121H416.688ZM414.889 120.174C415.229 120.174 415.551 120.086 415.855 119.91C416.16 119.734 416.381 119.506 416.518 119.225V117.924H415.668C414.34 117.924 413.676 118.312 413.676 119.09C413.676 119.43 413.789 119.695 414.016 119.887C414.242 120.078 414.533 120.174 414.889 120.174ZM420.32 114.66L420.35 115.363C420.814 114.816 421.441 114.543 422.23 114.543C423.117 114.543 423.721 114.883 424.041 115.562C424.252 115.258 424.525 115.012 424.861 114.824C425.201 114.637 425.602 114.543 426.062 114.543C427.453 114.543 428.16 115.279 428.184 116.752V121H427.1V116.816C427.1 116.363 426.996 116.025 426.789 115.803C426.582 115.576 426.234 115.463 425.746 115.463C425.344 115.463 425.01 115.584 424.744 115.826C424.479 116.064 424.324 116.387 424.281 116.793V121H423.191V116.846C423.191 115.924 422.74 115.463 421.838 115.463C421.127 115.463 420.641 115.766 420.379 116.371V121H419.295V114.66H420.32ZM431.002 121H429.918V114.66H431.002V121ZM429.83 112.979C429.83 112.803 429.883 112.654 429.988 112.533C430.098 112.412 430.258 112.352 430.469 112.352C430.68 112.352 430.84 112.412 430.949 112.533C431.059 112.654 431.113 112.803 431.113 112.979C431.113 113.154 431.059 113.301 430.949 113.418C430.84 113.535 430.68 113.594 430.469 113.594C430.258 113.594 430.098 113.535 429.988 113.418C429.883 113.301 429.83 113.154 429.83 112.979ZM433.768 114.66L433.803 115.457C434.287 114.848 434.92 114.543 435.701 114.543C437.041 114.543 437.717 115.299 437.729 116.811V121H436.645V116.805C436.641 116.348 436.535 116.01 436.328 115.791C436.125 115.572 435.807 115.463 435.373 115.463C435.021 115.463 434.713 115.557 434.447 115.744C434.182 115.932 433.975 116.178 433.826 116.482V121H432.742V114.66H433.768ZM439.105 117.777C439.105 116.789 439.334 116.004 439.791 115.422C440.248 114.836 440.854 114.543 441.607 114.543C442.381 114.543 442.984 114.816 443.418 115.363L443.471 114.66H444.461V120.848C444.461 121.668 444.217 122.314 443.729 122.787C443.244 123.26 442.592 123.496 441.771 123.496C441.314 123.496 440.867 123.398 440.43 123.203C439.992 123.008 439.658 122.74 439.428 122.4L439.99 121.75C440.455 122.324 441.023 122.611 441.695 122.611C442.223 122.611 442.633 122.463 442.926 122.166C443.223 121.869 443.371 121.451 443.371 120.912V120.367C442.938 120.867 442.346 121.117 441.596 121.117C440.854 121.117 440.252 120.818 439.791 120.221C439.334 119.623 439.105 118.809 439.105 117.777ZM440.195 117.9C440.195 118.615 440.342 119.178 440.635 119.588C440.928 119.994 441.338 120.197 441.865 120.197C442.549 120.197 443.051 119.887 443.371 119.266V116.371C443.039 115.766 442.541 115.463 441.877 115.463C441.35 115.463 440.938 115.668 440.641 116.078C440.344 116.488 440.195 117.096 440.195 117.9Z" fill="black"/>
<path d="M394.3 96H406.129L400.215 90L394.3 96ZM409.087 77H391.343C390.259 77 389.372 77.9 389.372 79V91C389.372 92.1 390.259 93 391.343 93H395.286V91H391.343V79H409.087V91H405.144V93H409.087C410.171 93 411.058 92.1 411.058 91V79C411.058 77.9 410.171 77 409.087 77Z" fill="#657B83"/>
</svg>
