<svg width="1519" height="636" viewBox="0 0 1519 636" fill="none" xmlns="http://www.w3.org/2000/svg">
<rect width="1519" height="636" fill="white"/>
<rect x="238.5" y="51.5" width="194" height="104" rx="7.5" fill="#19647E" fill-opacity="0.4" stroke="#19647E" stroke-width="5"/>
<path d="M276.867 106.547H269.719L268.113 111H265.793L272.308 93.9375H274.277L280.805 111H278.496L276.867 106.547ZM270.398 104.695H276.199L273.293 96.7148L270.398 104.695ZM293.705 104.801C293.705 106.73 293.264 108.285 292.381 109.465C291.498 110.645 290.303 111.234 288.795 111.234C287.256 111.234 286.045 110.746 285.162 109.77V115.875H282.994V98.3203H284.975L285.08 99.7266C285.963 98.6328 287.19 98.0859 288.76 98.0859C290.283 98.0859 291.487 98.6602 292.369 99.8086C293.26 100.957 293.705 102.555 293.705 104.602V104.801ZM291.537 104.555C291.537 103.125 291.233 101.996 290.623 101.168C290.014 100.34 289.178 99.9258 288.116 99.9258C286.803 99.9258 285.819 100.508 285.162 101.672V107.73C285.811 108.887 286.803 109.465 288.139 109.465C289.178 109.465 290.002 109.055 290.612 108.234C291.229 107.406 291.537 106.18 291.537 104.555ZM307.415 104.801C307.415 106.73 306.973 108.285 306.091 109.465C305.208 110.645 304.012 111.234 302.505 111.234C300.966 111.234 299.755 110.746 298.872 109.77V115.875H296.704V98.3203H298.684L298.79 99.7266C299.673 98.6328 300.899 98.0859 302.469 98.0859C303.993 98.0859 305.196 98.6602 306.079 99.8086C306.969 100.957 307.415 102.555 307.415 104.602V104.801ZM305.247 104.555C305.247 103.125 304.942 101.996 304.333 101.168C303.723 100.34 302.887 99.9258 301.825 99.9258C300.512 99.9258 299.528 100.508 298.872 101.672V107.73C299.52 108.887 300.512 109.465 301.848 109.465C302.887 109.465 303.712 109.055 304.321 108.234C304.938 107.406 305.247 106.18 305.247 104.555ZM329.49 105.586C329.279 107.391 328.611 108.785 327.486 109.77C326.369 110.746 324.88 111.234 323.021 111.234C321.005 111.234 319.388 110.512 318.17 109.066C316.959 107.621 316.353 105.688 316.353 103.266V101.625C316.353 100.039 316.634 98.6445 317.197 97.4414C317.767 96.2383 318.572 95.3164 319.611 94.6758C320.65 94.0273 321.853 93.7031 323.22 93.7031C325.033 93.7031 326.486 94.2109 327.58 95.2266C328.673 96.2344 329.31 97.6328 329.49 99.4219H327.228C327.033 98.0625 326.607 97.0781 325.951 96.4688C325.302 95.8594 324.392 95.5547 323.22 95.5547C321.783 95.5547 320.654 96.0859 319.834 97.1484C319.021 98.2109 318.615 99.7227 318.615 101.684V103.336C318.615 105.188 319.002 106.66 319.775 107.754C320.548 108.848 321.63 109.395 323.021 109.395C324.271 109.395 325.228 109.113 325.892 108.551C326.564 107.98 327.009 106.992 327.228 105.586H329.49ZM331.891 104.543C331.891 103.301 332.133 102.184 332.617 101.191C333.109 100.199 333.789 99.4336 334.656 98.8945C335.531 98.3555 336.527 98.0859 337.645 98.0859C339.371 98.0859 340.766 98.6836 341.828 99.8789C342.898 101.074 343.434 102.664 343.434 104.648V104.801C343.434 106.035 343.195 107.145 342.719 108.129C342.25 109.105 341.574 109.867 340.691 110.414C339.816 110.961 338.809 111.234 337.668 111.234C335.949 111.234 334.555 110.637 333.484 109.441C332.422 108.246 331.891 106.664 331.891 104.695V104.543ZM334.07 104.801C334.07 106.207 334.395 107.336 335.043 108.188C335.699 109.039 336.574 109.465 337.668 109.465C338.77 109.465 339.645 109.035 340.293 108.176C340.941 107.309 341.266 106.098 341.266 104.543C341.266 103.152 340.934 102.027 340.27 101.168C339.613 100.301 338.738 99.8672 337.645 99.8672C336.574 99.8672 335.711 100.293 335.055 101.145C334.398 101.996 334.07 103.215 334.07 104.801ZM348.436 98.3203L348.506 99.9141C349.475 98.6953 350.741 98.0859 352.303 98.0859C354.983 98.0859 356.334 99.5977 356.358 102.621V111H354.19V102.609C354.182 101.695 353.971 101.02 353.557 100.582C353.151 100.145 352.514 99.9258 351.647 99.9258C350.944 99.9258 350.327 100.113 349.795 100.488C349.264 100.863 348.85 101.355 348.553 101.965V111H346.385V98.3203H348.436ZM364.946 109.465C365.72 109.465 366.395 109.23 366.973 108.762C367.552 108.293 367.872 107.707 367.934 107.004H369.985C369.946 107.73 369.696 108.422 369.235 109.078C368.774 109.734 368.157 110.258 367.384 110.648C366.618 111.039 365.806 111.234 364.946 111.234C363.22 111.234 361.845 110.66 360.821 109.512C359.806 108.355 359.298 106.777 359.298 104.777V104.414C359.298 103.18 359.524 102.082 359.977 101.121C360.431 100.16 361.079 99.4141 361.923 98.8828C362.774 98.3516 363.778 98.0859 364.934 98.0859C366.356 98.0859 367.536 98.5117 368.473 99.3633C369.419 100.215 369.923 101.32 369.985 102.68H367.934C367.872 101.859 367.559 101.188 366.997 100.664C366.442 100.133 365.755 99.8672 364.934 99.8672C363.833 99.8672 362.977 100.266 362.368 101.062C361.766 101.852 361.466 102.996 361.466 104.496V104.906C361.466 106.367 361.766 107.492 362.368 108.281C362.97 109.07 363.829 109.465 364.946 109.465ZM377.917 111.234C376.199 111.234 374.8 110.672 373.722 109.547C372.644 108.414 372.105 106.902 372.105 105.012V104.613C372.105 103.355 372.343 102.234 372.82 101.25C373.304 100.258 373.976 99.4844 374.835 98.9297C375.702 98.3672 376.64 98.0859 377.648 98.0859C379.296 98.0859 380.577 98.6289 381.491 99.7148C382.406 100.801 382.863 102.355 382.863 104.379V105.281H374.273C374.304 106.531 374.667 107.543 375.363 108.316C376.066 109.082 376.956 109.465 378.034 109.465C378.8 109.465 379.449 109.309 379.98 108.996C380.511 108.684 380.976 108.27 381.374 107.754L382.699 108.785C381.636 110.418 380.042 111.234 377.917 111.234ZM377.648 99.8672C376.773 99.8672 376.038 100.188 375.445 100.828C374.851 101.461 374.484 102.352 374.343 103.5H380.695V103.336C380.632 102.234 380.335 101.383 379.804 100.781C379.273 100.172 378.554 99.8672 377.648 99.8672ZM396.326 104.801C396.326 106.73 395.884 108.285 395.002 109.465C394.119 110.645 392.924 111.234 391.416 111.234C389.877 111.234 388.666 110.746 387.783 109.77V115.875H385.615V98.3203H387.595L387.701 99.7266C388.584 98.6328 389.81 98.0859 391.381 98.0859C392.904 98.0859 394.107 98.6602 394.99 99.8086C395.881 100.957 396.326 102.555 396.326 104.602V104.801ZM394.158 104.555C394.158 103.125 393.853 101.996 393.244 101.168C392.634 100.34 391.799 99.9258 390.736 99.9258C389.424 99.9258 388.439 100.508 387.783 101.672V107.73C388.431 108.887 389.424 109.465 390.759 109.465C391.799 109.465 392.623 109.055 393.232 108.234C393.849 107.406 394.158 106.18 394.158 104.555ZM402.266 95.25V98.3203H404.633V99.9961H402.266V107.859C402.266 108.367 402.371 108.75 402.582 109.008C402.793 109.258 403.152 109.383 403.66 109.383C403.91 109.383 404.254 109.336 404.692 109.242V111C404.121 111.156 403.567 111.234 403.027 111.234C402.059 111.234 401.328 110.941 400.836 110.355C400.344 109.77 400.098 108.938 400.098 107.859V99.9961H397.789V98.3203H400.098V95.25H402.266Z" fill="black"/>
<rect x="644.5" y="51.5" width="194" height="104" rx="7.5" fill="#19647E" fill-opacity="0.4" stroke="#19647E" stroke-width="5"/>
<path d="M682.739 93.9375V105.539C682.731 107.148 682.223 108.465 681.215 109.488C680.215 110.512 678.856 111.086 677.137 111.211L676.54 111.234C674.673 111.234 673.184 110.73 672.075 109.723C670.965 108.715 670.403 107.328 670.387 105.562V93.9375H672.614V105.492C672.614 106.727 672.954 107.688 673.633 108.375C674.313 109.055 675.282 109.395 676.54 109.395C677.813 109.395 678.786 109.055 679.458 108.375C680.137 107.695 680.477 106.738 680.477 105.504V93.9375H682.739ZM693.566 107.637C693.566 107.051 693.343 106.598 692.898 106.277C692.46 105.949 691.691 105.668 690.589 105.434C689.495 105.199 688.624 104.918 687.976 104.59C687.335 104.262 686.858 103.871 686.546 103.418C686.241 102.965 686.089 102.426 686.089 101.801C686.089 100.762 686.526 99.8828 687.401 99.1641C688.284 98.4453 689.409 98.0859 690.776 98.0859C692.214 98.0859 693.378 98.457 694.269 99.1992C695.167 99.9414 695.616 100.891 695.616 102.047H693.437C693.437 101.453 693.183 100.941 692.675 100.512C692.175 100.082 691.542 99.8672 690.776 99.8672C689.987 99.8672 689.37 100.039 688.925 100.383C688.48 100.727 688.257 101.176 688.257 101.73C688.257 102.254 688.464 102.648 688.878 102.914C689.292 103.18 690.038 103.434 691.116 103.676C692.202 103.918 693.081 104.207 693.753 104.543C694.425 104.879 694.921 105.285 695.241 105.762C695.569 106.23 695.733 106.805 695.733 107.484C695.733 108.617 695.28 109.527 694.374 110.215C693.468 110.895 692.292 111.234 690.847 111.234C689.831 111.234 688.933 111.055 688.151 110.695C687.37 110.336 686.757 109.836 686.312 109.195C685.874 108.547 685.655 107.848 685.655 107.098H687.823C687.862 107.824 688.151 108.402 688.691 108.832C689.237 109.254 689.956 109.465 690.847 109.465C691.667 109.465 692.323 109.301 692.816 108.973C693.316 108.637 693.566 108.191 693.566 107.637ZM704.052 111.234C702.334 111.234 700.935 110.672 699.857 109.547C698.779 108.414 698.24 106.902 698.24 105.012V104.613C698.24 103.355 698.478 102.234 698.955 101.25C699.439 100.258 700.111 99.4844 700.97 98.9297C701.837 98.3672 702.775 98.0859 703.783 98.0859C705.431 98.0859 706.712 98.6289 707.626 99.7148C708.541 100.801 708.998 102.355 708.998 104.379V105.281H700.408C700.439 106.531 700.802 107.543 701.498 108.316C702.201 109.082 703.091 109.465 704.169 109.465C704.935 109.465 705.584 109.309 706.115 108.996C706.646 108.684 707.111 108.27 707.509 107.754L708.834 108.785C707.771 110.418 706.177 111.234 704.052 111.234ZM703.783 99.8672C702.908 99.8672 702.173 100.188 701.58 100.828C700.986 101.461 700.619 102.352 700.478 103.5H706.83V103.336C706.767 102.234 706.47 101.383 705.939 100.781C705.408 100.172 704.689 99.8672 703.783 99.8672ZM717.879 100.266C717.551 100.211 717.195 100.184 716.812 100.184C715.391 100.184 714.426 100.789 713.918 102V111H711.75V98.3203H713.859L713.894 99.7852C714.605 98.6523 715.613 98.0859 716.918 98.0859C717.34 98.0859 717.66 98.1406 717.879 98.25V100.266ZM728.891 104.32V111H726.641V93.9375H732.934C734.802 93.9375 736.262 94.4141 737.317 95.3672C738.38 96.3203 738.911 97.582 738.911 99.1523C738.911 100.809 738.391 102.086 737.352 102.984C736.321 103.875 734.841 104.32 732.911 104.32H728.891ZM728.891 102.48H732.934C734.137 102.48 735.059 102.199 735.7 101.637C736.341 101.066 736.661 100.246 736.661 99.1758C736.661 98.1602 736.341 97.3477 735.7 96.7383C735.059 96.1289 734.18 95.8125 733.063 95.7891H728.891V102.48ZM746.773 111.234C745.054 111.234 743.655 110.672 742.577 109.547C741.499 108.414 740.96 106.902 740.96 105.012V104.613C740.96 103.355 741.198 102.234 741.675 101.25C742.159 100.258 742.831 99.4844 743.691 98.9297C744.558 98.3672 745.495 98.0859 746.503 98.0859C748.152 98.0859 749.433 98.6289 750.347 99.7148C751.261 100.801 751.718 102.355 751.718 104.379V105.281H743.128C743.159 106.531 743.523 107.543 744.218 108.316C744.921 109.082 745.812 109.465 746.89 109.465C747.655 109.465 748.304 109.309 748.835 108.996C749.366 108.684 749.831 108.27 750.23 107.754L751.554 108.785C750.491 110.418 748.898 111.234 746.773 111.234ZM746.503 99.8672C745.628 99.8672 744.894 100.188 744.3 100.828C743.706 101.461 743.339 102.352 743.198 103.5H749.55V103.336C749.488 102.234 749.191 101.383 748.659 100.781C748.128 100.172 747.409 99.8672 746.503 99.8672ZM760.599 100.266C760.271 100.211 759.916 100.184 759.533 100.184C758.111 100.184 757.146 100.789 756.638 102V111H754.47V98.3203H756.58L756.615 99.7852C757.326 98.6523 758.334 98.0859 759.638 98.0859C760.06 98.0859 760.381 98.1406 760.599 98.25V100.266ZM770.219 107.637C770.219 107.051 769.996 106.598 769.551 106.277C769.113 105.949 768.344 105.668 767.242 105.434C766.148 105.199 765.277 104.918 764.629 104.59C763.988 104.262 763.512 103.871 763.199 103.418C762.895 102.965 762.742 102.426 762.742 101.801C762.742 100.762 763.18 99.8828 764.055 99.1641C764.938 98.4453 766.063 98.0859 767.43 98.0859C768.867 98.0859 770.031 98.457 770.922 99.1992C771.82 99.9414 772.27 100.891 772.27 102.047H770.09C770.09 101.453 769.836 100.941 769.328 100.512C768.828 100.082 768.195 99.8672 767.43 99.8672C766.641 99.8672 766.023 100.039 765.578 100.383C765.133 100.727 764.91 101.176 764.91 101.73C764.91 102.254 765.117 102.648 765.531 102.914C765.945 103.18 766.691 103.434 767.77 103.676C768.856 103.918 769.734 104.207 770.406 104.543C771.078 104.879 771.574 105.285 771.895 105.762C772.223 106.23 772.387 106.805 772.387 107.484C772.387 108.617 771.934 109.527 771.027 110.215C770.121 110.895 768.945 111.234 767.5 111.234C766.484 111.234 765.586 111.055 764.805 110.695C764.023 110.336 763.41 109.836 762.965 109.195C762.527 108.547 762.309 107.848 762.309 107.098H764.477C764.516 107.824 764.805 108.402 765.344 108.832C765.891 109.254 766.609 109.465 767.5 109.465C768.32 109.465 768.977 109.301 769.469 108.973C769.969 108.637 770.219 108.191 770.219 107.637ZM774.87 104.543C774.87 103.301 775.112 102.184 775.596 101.191C776.088 100.199 776.768 99.4336 777.635 98.8945C778.51 98.3555 779.506 98.0859 780.624 98.0859C782.35 98.0859 783.745 98.6836 784.807 99.8789C785.877 101.074 786.413 102.664 786.413 104.648V104.801C786.413 106.035 786.174 107.145 785.698 108.129C785.229 109.105 784.553 109.867 783.67 110.414C782.795 110.961 781.788 111.234 780.647 111.234C778.928 111.234 777.534 110.637 776.463 109.441C775.401 108.246 774.87 106.664 774.87 104.695V104.543ZM777.049 104.801C777.049 106.207 777.374 107.336 778.022 108.188C778.678 109.039 779.553 109.465 780.647 109.465C781.749 109.465 782.624 109.035 783.272 108.176C783.92 107.309 784.245 106.098 784.245 104.543C784.245 103.152 783.913 102.027 783.249 101.168C782.592 100.301 781.717 99.8672 780.624 99.8672C779.553 99.8672 778.69 100.293 778.034 101.145C777.377 101.996 777.049 103.215 777.049 104.801ZM791.415 98.3203L791.485 99.9141C792.454 98.6953 793.72 98.0859 795.282 98.0859C797.962 98.0859 799.313 99.5977 799.337 102.621V111H797.169V102.609C797.161 101.695 796.95 101.02 796.536 100.582C796.13 100.145 795.493 99.9258 794.626 99.9258C793.923 99.9258 793.306 100.113 792.774 100.488C792.243 100.863 791.829 101.355 791.532 101.965V111H789.364V98.3203H791.415ZM810.667 111C810.542 110.75 810.441 110.305 810.363 109.664C809.355 110.711 808.152 111.234 806.753 111.234C805.503 111.234 804.476 110.883 803.671 110.18C802.874 109.469 802.476 108.57 802.476 107.484C802.476 106.164 802.976 105.141 803.976 104.414C804.984 103.68 806.398 103.312 808.218 103.312H810.327V102.316C810.327 101.559 810.101 100.957 809.648 100.512C809.195 100.059 808.527 99.832 807.644 99.832C806.87 99.832 806.222 100.027 805.699 100.418C805.175 100.809 804.913 101.281 804.913 101.836H802.734C802.734 101.203 802.956 100.594 803.402 100.008C803.855 99.4141 804.464 98.9453 805.23 98.6016C806.003 98.2578 806.851 98.0859 807.773 98.0859C809.234 98.0859 810.378 98.4531 811.206 99.1875C812.035 99.9141 812.464 100.918 812.495 102.199V108.035C812.495 109.199 812.644 110.125 812.941 110.812V111H810.667ZM807.07 109.348C807.749 109.348 808.394 109.172 809.003 108.82C809.613 108.469 810.054 108.012 810.327 107.449V104.848H808.628C805.972 104.848 804.644 105.625 804.644 107.18C804.644 107.859 804.87 108.391 805.324 108.773C805.777 109.156 806.359 109.348 807.07 109.348Z" fill="black"/>
<rect x="39.5" y="276.5" width="194" height="104" rx="7.5" fill="#19647E" fill-opacity="0.4" stroke="#19647E" stroke-width="5"/>
<path d="M82.496 328.395C80.5663 327.84 79.16 327.16 78.2772 326.355C77.4022 325.543 76.9647 324.543 76.9647 323.355C76.9647 322.012 77.4999 320.902 78.5702 320.027C79.6483 319.145 81.0468 318.703 82.7655 318.703C83.9374 318.703 84.9804 318.93 85.8944 319.383C86.8163 319.836 87.5272 320.461 88.0272 321.258C88.535 322.055 88.7889 322.926 88.7889 323.871H86.5272C86.5272 322.84 86.1991 322.031 85.5429 321.445C84.8866 320.852 83.9608 320.555 82.7655 320.555C81.6561 320.555 80.7889 320.801 80.1639 321.293C79.5468 321.777 79.2382 322.453 79.2382 323.32C79.2382 324.016 79.5311 324.605 80.1171 325.09C80.7108 325.566 81.7147 326.004 83.1288 326.402C84.5507 326.801 85.66 327.242 86.4569 327.727C87.2616 328.203 87.8554 328.762 88.2382 329.402C88.6288 330.043 88.8241 330.797 88.8241 331.664C88.8241 333.047 88.285 334.156 87.2069 334.992C86.1288 335.82 84.6874 336.234 82.8827 336.234C81.7108 336.234 80.6171 336.012 79.6014 335.566C78.5858 335.113 77.8007 334.496 77.246 333.715C76.6991 332.934 76.4257 332.047 76.4257 331.055H78.6874C78.6874 332.086 79.0663 332.902 79.8241 333.504C80.5897 334.098 81.6093 334.395 82.8827 334.395C84.0702 334.395 84.9804 334.152 85.6132 333.668C86.246 333.184 86.5624 332.523 86.5624 331.688C86.5624 330.852 86.2694 330.207 85.6835 329.754C85.0975 329.293 84.035 328.84 82.496 328.395ZM94.553 320.25V323.32H96.9202V324.996H94.553V332.859C94.553 333.367 94.6585 333.75 94.8694 334.008C95.0804 334.258 95.4398 334.383 95.9476 334.383C96.1976 334.383 96.5413 334.336 96.9788 334.242V336C96.4085 336.156 95.8538 336.234 95.3148 336.234C94.346 336.234 93.6155 335.941 93.1233 335.355C92.6312 334.77 92.3851 333.938 92.3851 332.859V324.996H90.0765V323.32H92.3851V320.25H94.553ZM103.844 332.824L106.798 323.32H109.118L104.02 337.957C103.231 340.066 101.977 341.121 100.259 341.121L99.8484 341.086L99.0398 340.934V339.176L99.6257 339.223C100.36 339.223 100.93 339.074 101.337 338.777C101.751 338.48 102.091 337.938 102.356 337.148L102.837 335.859L98.3132 323.32H100.68L103.844 332.824ZM113.652 336H111.484V318H113.652V336ZM122.627 336.234C120.908 336.234 119.509 335.672 118.431 334.547C117.353 333.414 116.814 331.902 116.814 330.012V329.613C116.814 328.355 117.052 327.234 117.529 326.25C118.013 325.258 118.685 324.484 119.545 323.93C120.412 323.367 121.349 323.086 122.357 323.086C124.005 323.086 125.287 323.629 126.201 324.715C127.115 325.801 127.572 327.355 127.572 329.379V330.281H118.982C119.013 331.531 119.377 332.543 120.072 333.316C120.775 334.082 121.666 334.465 122.744 334.465C123.509 334.465 124.158 334.309 124.689 333.996C125.22 333.684 125.685 333.27 126.084 332.754L127.408 333.785C126.345 335.418 124.752 336.234 122.627 336.234ZM122.357 324.867C121.482 324.867 120.748 325.188 120.154 325.828C119.56 326.461 119.193 327.352 119.052 328.5H125.404V328.336C125.341 327.234 125.045 326.383 124.513 325.781C123.982 325.172 123.263 324.867 122.357 324.867ZM149.448 333.762C148.87 334.59 148.061 335.211 147.022 335.625C145.991 336.031 144.788 336.234 143.413 336.234C142.022 336.234 140.788 335.91 139.709 335.262C138.631 334.605 137.795 333.676 137.202 332.473C136.616 331.27 136.315 329.875 136.299 328.289V326.801C136.299 324.23 136.897 322.238 138.092 320.824C139.295 319.41 140.983 318.703 143.155 318.703C144.936 318.703 146.37 319.16 147.455 320.074C148.541 320.98 149.205 322.27 149.448 323.941H147.198C146.776 321.684 145.432 320.555 143.166 320.555C141.659 320.555 140.514 321.086 139.733 322.148C138.959 323.203 138.569 324.734 138.561 326.742V328.137C138.561 330.051 138.998 331.574 139.873 332.707C140.748 333.832 141.932 334.395 143.424 334.395C144.268 334.395 145.006 334.301 145.639 334.113C146.272 333.926 146.795 333.609 147.209 333.164V329.332H143.26V327.504H149.448V333.762ZM160.931 334.746C160.087 335.738 158.848 336.234 157.216 336.234C155.864 336.234 154.833 335.844 154.122 335.062C153.419 334.273 153.063 333.109 153.056 331.57V323.32H155.223V331.512C155.223 333.434 156.005 334.395 157.567 334.395C159.223 334.395 160.325 333.777 160.872 332.543V323.32H163.04V336H160.977L160.931 334.746ZM168.933 336H166.765V323.32H168.933V336ZM166.589 319.957C166.589 319.605 166.695 319.309 166.906 319.066C167.124 318.824 167.445 318.703 167.866 318.703C168.288 318.703 168.609 318.824 168.827 319.066C169.046 319.309 169.156 319.605 169.156 319.957C169.156 320.309 169.046 320.602 168.827 320.836C168.609 321.07 168.288 321.188 167.866 321.188C167.445 321.188 167.124 321.07 166.906 320.836C166.695 320.602 166.589 320.309 166.589 319.957ZM172.119 329.555C172.119 327.609 172.58 326.047 173.502 324.867C174.424 323.68 175.631 323.086 177.123 323.086C178.607 323.086 179.783 323.594 180.65 324.609V318H182.818V336H180.826L180.72 334.641C179.853 335.703 178.646 336.234 177.099 336.234C175.631 336.234 174.431 335.633 173.502 334.43C172.58 333.227 172.119 331.656 172.119 329.719V329.555ZM174.287 329.801C174.287 331.238 174.584 332.363 175.177 333.176C175.771 333.988 176.592 334.395 177.638 334.395C179.013 334.395 180.017 333.777 180.65 332.543V326.719C180.002 325.523 179.006 324.926 177.662 324.926C176.599 324.926 175.771 325.336 175.177 326.156C174.584 326.977 174.287 328.191 174.287 329.801ZM191.688 336.234C189.969 336.234 188.57 335.672 187.492 334.547C186.414 333.414 185.875 331.902 185.875 330.012V329.613C185.875 328.355 186.113 327.234 186.59 326.25C187.074 325.258 187.746 324.484 188.606 323.93C189.473 323.367 190.41 323.086 191.418 323.086C193.067 323.086 194.348 323.629 195.262 324.715C196.176 325.801 196.633 327.355 196.633 329.379V330.281H188.043C188.074 331.531 188.438 332.543 189.133 333.316C189.836 334.082 190.727 334.465 191.805 334.465C192.57 334.465 193.219 334.309 193.75 333.996C194.281 333.684 194.746 333.27 195.145 332.754L196.469 333.785C195.406 335.418 193.813 336.234 191.688 336.234ZM191.418 324.867C190.543 324.867 189.809 325.188 189.215 325.828C188.621 326.461 188.254 327.352 188.113 328.5H194.465V328.336C194.402 327.234 194.106 326.383 193.574 325.781C193.043 325.172 192.324 324.867 191.418 324.867Z" fill="black"/>
<rect x="644.5" y="488.5" width="194" height="104" rx="7.5" fill="#19647E" fill-opacity="0.4" stroke="#19647E" stroke-width="5"/>
<path d="M695.843 540.395C693.913 539.84 692.507 539.16 691.624 538.355C690.749 537.543 690.312 536.543 690.312 535.355C690.312 534.012 690.847 532.902 691.917 532.027C692.995 531.145 694.394 530.703 696.112 530.703C697.284 530.703 698.327 530.93 699.241 531.383C700.163 531.836 700.874 532.461 701.374 533.258C701.882 534.055 702.136 534.926 702.136 535.871H699.874C699.874 534.84 699.546 534.031 698.89 533.445C698.233 532.852 697.308 532.555 696.112 532.555C695.003 532.555 694.136 532.801 693.511 533.293C692.894 533.777 692.585 534.453 692.585 535.32C692.585 536.016 692.878 536.605 693.464 537.09C694.058 537.566 695.062 538.004 696.476 538.402C697.898 538.801 699.007 539.242 699.804 539.727C700.608 540.203 701.202 540.762 701.585 541.402C701.976 542.043 702.171 542.797 702.171 543.664C702.171 545.047 701.632 546.156 700.554 546.992C699.476 547.82 698.034 548.234 696.23 548.234C695.058 548.234 693.964 548.012 692.948 547.566C691.933 547.113 691.148 546.496 690.593 545.715C690.046 544.934 689.773 544.047 689.773 543.055H692.034C692.034 544.086 692.413 544.902 693.171 545.504C693.937 546.098 694.956 546.395 696.23 546.395C697.417 546.395 698.327 546.152 698.96 545.668C699.593 545.184 699.909 544.523 699.909 543.688C699.909 542.852 699.616 542.207 699.03 541.754C698.444 541.293 697.382 540.84 695.843 540.395ZM707.9 532.25V535.32H710.267V536.996H707.9V544.859C707.9 545.367 708.005 545.75 708.216 546.008C708.427 546.258 708.787 546.383 709.294 546.383C709.544 546.383 709.888 546.336 710.326 546.242V548C709.755 548.156 709.201 548.234 708.662 548.234C707.693 548.234 706.962 547.941 706.47 547.355C705.978 546.77 705.732 545.938 705.732 544.859V536.996H703.423V535.32H705.732V532.25H707.9ZM717.191 544.824L720.144 535.32H722.465L717.367 549.957C716.578 552.066 715.324 553.121 713.605 553.121L713.195 553.086L712.387 552.934V551.176L712.973 551.223C713.707 551.223 714.277 551.074 714.684 550.777C715.098 550.48 715.437 549.938 715.703 549.148L716.184 547.859L711.66 535.32H714.027L717.191 544.824ZM726.998 548H724.83V530H726.998V548ZM735.973 548.234C734.255 548.234 732.856 547.672 731.778 546.547C730.7 545.414 730.161 543.902 730.161 542.012V541.613C730.161 540.355 730.399 539.234 730.876 538.25C731.36 537.258 732.032 536.484 732.891 535.93C733.759 535.367 734.696 535.086 735.704 535.086C737.352 535.086 738.634 535.629 739.548 536.715C740.462 537.801 740.919 539.355 740.919 541.379V542.281H732.329C732.36 543.531 732.723 544.543 733.419 545.316C734.122 546.082 735.012 546.465 736.091 546.465C736.856 546.465 737.505 546.309 738.036 545.996C738.567 545.684 739.032 545.27 739.43 544.754L740.755 545.785C739.692 547.418 738.098 548.234 735.973 548.234ZM735.704 536.867C734.829 536.867 734.095 537.188 733.501 537.828C732.907 538.461 732.54 539.352 732.399 540.5H738.751V540.336C738.688 539.234 738.391 538.383 737.86 537.781C737.329 537.172 736.61 536.867 735.704 536.867ZM761.517 532.789H756.033V548H753.795V532.789H748.322V530.938H761.517V532.789ZM766.297 548H764.129V535.32H766.297V548ZM763.953 531.957C763.953 531.605 764.059 531.309 764.27 531.066C764.488 530.824 764.809 530.703 765.231 530.703C765.652 530.703 765.973 530.824 766.191 531.066C766.41 531.309 766.52 531.605 766.52 531.957C766.52 532.309 766.41 532.602 766.191 532.836C765.973 533.07 765.652 533.188 765.231 533.188C764.809 533.188 764.488 533.07 764.27 532.836C764.059 532.602 763.953 532.309 763.953 531.957ZM772.366 548H770.198V530H772.366V548ZM781.341 548.234C779.622 548.234 778.224 547.672 777.145 546.547C776.067 545.414 775.528 543.902 775.528 542.012V541.613C775.528 540.355 775.767 539.234 776.243 538.25C776.727 537.258 777.399 536.484 778.259 535.93C779.126 535.367 780.063 535.086 781.071 535.086C782.72 535.086 784.001 535.629 784.915 536.715C785.829 537.801 786.286 539.355 786.286 541.379V542.281H777.696C777.727 543.531 778.091 544.543 778.786 545.316C779.489 546.082 780.38 546.465 781.458 546.465C782.224 546.465 782.872 546.309 783.403 545.996C783.934 545.684 784.399 545.27 784.798 544.754L786.122 545.785C785.059 547.418 783.466 548.234 781.341 548.234ZM781.071 536.867C780.196 536.867 779.462 537.188 778.868 537.828C778.274 538.461 777.907 539.352 777.767 540.5H784.118V540.336C784.056 539.234 783.759 538.383 783.227 537.781C782.696 537.172 781.977 536.867 781.071 536.867Z" fill="black"/>
<rect x="238.5" y="488.5" width="194" height="104" rx="7.5" fill="#19647E" fill-opacity="0.4" stroke="#19647E" stroke-width="5"/>
<path d="M287.073 541.32V548H284.823V530.938H291.116C292.983 530.938 294.444 531.414 295.498 532.367C296.561 533.32 297.092 534.582 297.092 536.152C297.092 537.809 296.573 539.086 295.534 539.984C294.502 540.875 293.022 541.32 291.092 541.32H287.073ZM287.073 539.48H291.116C292.319 539.48 293.241 539.199 293.881 538.637C294.522 538.066 294.842 537.246 294.842 536.176C294.842 535.16 294.522 534.348 293.881 533.738C293.241 533.129 292.362 532.812 291.244 532.789H287.073V539.48ZM305.985 537.266C305.657 537.211 305.301 537.184 304.919 537.184C303.497 537.184 302.532 537.789 302.024 539V548H299.856V535.32H301.966L302.001 536.785C302.712 535.652 303.719 535.086 305.024 535.086C305.446 535.086 305.766 535.141 305.985 535.25V537.266ZM307.413 541.543C307.413 540.301 307.655 539.184 308.14 538.191C308.632 537.199 309.312 536.434 310.179 535.895C311.054 535.355 312.05 535.086 313.167 535.086C314.894 535.086 316.288 535.684 317.351 536.879C318.421 538.074 318.956 539.664 318.956 541.648V541.801C318.956 543.035 318.718 544.145 318.241 545.129C317.773 546.105 317.097 546.867 316.214 547.414C315.339 547.961 314.331 548.234 313.191 548.234C311.472 548.234 310.077 547.637 309.007 546.441C307.944 545.246 307.413 543.664 307.413 541.695V541.543ZM309.593 541.801C309.593 543.207 309.917 544.336 310.566 545.188C311.222 546.039 312.097 546.465 313.191 546.465C314.292 546.465 315.167 546.035 315.816 545.176C316.464 544.309 316.788 543.098 316.788 541.543C316.788 540.152 316.456 539.027 315.792 538.168C315.136 537.301 314.261 536.867 313.167 536.867C312.097 536.867 311.234 537.293 310.577 538.145C309.921 538.996 309.593 540.215 309.593 541.801ZM324.849 532.25V535.32H327.216V536.996H324.849V544.859C324.849 545.367 324.955 545.75 325.166 546.008C325.377 546.258 325.736 546.383 326.244 546.383C326.494 546.383 326.837 546.336 327.275 546.242V548C326.705 548.156 326.15 548.234 325.611 548.234C324.642 548.234 323.912 547.941 323.42 547.355C322.927 546.77 322.681 545.938 322.681 544.859V536.996H320.373V535.32H322.681V532.25H324.849ZM329.184 541.543C329.184 540.301 329.426 539.184 329.91 538.191C330.402 537.199 331.082 536.434 331.949 535.895C332.824 535.355 333.82 535.086 334.938 535.086C336.664 535.086 338.059 535.684 339.121 536.879C340.191 538.074 340.727 539.664 340.727 541.648V541.801C340.727 543.035 340.488 544.145 340.012 545.129C339.543 546.105 338.867 546.867 337.984 547.414C337.109 547.961 336.102 548.234 334.961 548.234C333.242 548.234 331.848 547.637 330.777 546.441C329.715 545.246 329.184 543.664 329.184 541.695V541.543ZM331.363 541.801C331.363 543.207 331.688 544.336 332.336 545.188C332.992 546.039 333.867 546.465 334.961 546.465C336.062 546.465 336.938 546.035 337.586 545.176C338.234 544.309 338.559 543.098 338.559 541.543C338.559 540.152 338.227 539.027 337.562 538.168C336.906 537.301 336.031 536.867 334.938 536.867C333.867 536.867 333.004 537.293 332.348 538.145C331.691 538.996 331.363 540.215 331.363 541.801ZM346.62 532.25V535.32H348.987V536.996H346.62V544.859C346.62 545.367 346.725 545.75 346.936 546.008C347.147 546.258 347.506 546.383 348.014 546.383C348.264 546.383 348.608 546.336 349.045 546.242V548C348.475 548.156 347.92 548.234 347.381 548.234C346.413 548.234 345.682 547.941 345.19 547.355C344.698 546.77 344.452 545.938 344.452 544.859V536.996H342.143V535.32H344.452V532.25H346.62ZM355.911 544.824L358.864 535.32H361.184L356.087 549.957C355.298 552.066 354.044 553.121 352.325 553.121L351.915 553.086L351.106 552.934V551.176L351.692 551.223C352.427 551.223 352.997 551.074 353.403 550.777C353.817 550.48 354.157 549.938 354.423 549.148L354.903 547.859L350.38 535.32H352.747L355.911 544.824ZM374.074 541.801C374.074 543.73 373.632 545.285 372.749 546.465C371.866 547.645 370.671 548.234 369.163 548.234C367.624 548.234 366.413 547.746 365.531 546.77V552.875H363.363V535.32H365.343L365.449 536.727C366.331 535.633 367.558 535.086 369.128 535.086C370.652 535.086 371.855 535.66 372.738 536.809C373.628 537.957 374.074 539.555 374.074 541.602V541.801ZM371.906 541.555C371.906 540.125 371.601 538.996 370.991 538.168C370.382 537.34 369.546 536.926 368.484 536.926C367.171 536.926 366.187 537.508 365.531 538.672V544.73C366.179 545.887 367.171 546.465 368.507 546.465C369.546 546.465 370.37 546.055 370.98 545.234C371.597 544.406 371.906 543.18 371.906 541.555ZM382.334 548.234C380.615 548.234 379.216 547.672 378.138 546.547C377.06 545.414 376.521 543.902 376.521 542.012V541.613C376.521 540.355 376.759 539.234 377.236 538.25C377.72 537.258 378.392 536.484 379.252 535.93C380.119 535.367 381.056 535.086 382.064 535.086C383.713 535.086 384.994 535.629 385.908 536.715C386.822 537.801 387.279 539.355 387.279 541.379V542.281H378.689C378.72 543.531 379.084 544.543 379.779 545.316C380.482 546.082 381.373 546.465 382.451 546.465C383.216 546.465 383.865 546.309 384.396 545.996C384.927 545.684 385.392 545.27 385.791 544.754L387.115 545.785C386.052 547.418 384.459 548.234 382.334 548.234ZM382.064 536.867C381.189 536.867 380.455 537.188 379.861 537.828C379.267 538.461 378.9 539.352 378.759 540.5H385.111V540.336C385.049 539.234 384.752 538.383 384.22 537.781C383.689 537.172 382.97 536.867 382.064 536.867Z" fill="black"/>
<rect x="1051.5" y="488.5" width="194" height="104" rx="7.5" fill="#19647E" fill-opacity="0.4" stroke="#19647E" stroke-width="5"/>
<path d="M1089.95 530.938L1095.53 544.859L1101.1 530.938H1104.02V548H1101.77V541.355L1101.98 534.184L1096.38 548H1094.66L1089.07 534.219L1089.29 541.355V548H1087.04V530.938H1089.95ZM1107.31 541.543C1107.31 540.301 1107.56 539.184 1108.04 538.191C1108.53 537.199 1109.21 536.434 1110.08 535.895C1110.95 535.355 1111.95 535.086 1113.07 535.086C1114.79 535.086 1116.19 535.684 1117.25 536.879C1118.32 538.074 1118.86 539.664 1118.86 541.648V541.801C1118.86 543.035 1118.62 544.145 1118.14 545.129C1117.67 546.105 1117 546.867 1116.11 547.414C1115.24 547.961 1114.23 548.234 1113.09 548.234C1111.37 548.234 1109.98 547.637 1108.91 546.441C1107.84 545.246 1107.31 543.664 1107.31 541.695V541.543ZM1109.49 541.801C1109.49 543.207 1109.82 544.336 1110.47 545.188C1111.12 546.039 1112 546.465 1113.09 546.465C1114.19 546.465 1115.07 546.035 1115.72 545.176C1116.36 544.309 1116.69 543.098 1116.69 541.543C1116.69 540.152 1116.36 539.027 1115.69 538.168C1115.04 537.301 1114.16 536.867 1113.07 536.867C1112 536.867 1111.13 537.293 1110.48 538.145C1109.82 538.996 1109.49 540.215 1109.49 541.801ZM1121.23 541.543C1121.23 540.301 1121.48 539.184 1121.96 538.191C1122.45 537.199 1123.13 536.434 1124 535.895C1124.87 535.355 1125.87 535.086 1126.99 535.086C1128.71 535.086 1130.11 535.684 1131.17 536.879C1132.24 538.074 1132.78 539.664 1132.78 541.648V541.801C1132.78 543.035 1132.54 544.145 1132.06 545.129C1131.59 546.105 1130.92 546.867 1130.03 547.414C1129.16 547.961 1128.15 548.234 1127.01 548.234C1125.29 548.234 1123.9 547.637 1122.83 546.441C1121.76 545.246 1121.23 543.664 1121.23 541.695V541.543ZM1123.41 541.801C1123.41 543.207 1123.74 544.336 1124.39 545.188C1125.04 546.039 1125.92 546.465 1127.01 546.465C1128.11 546.465 1128.99 546.035 1129.64 545.176C1130.28 544.309 1130.61 543.098 1130.61 541.543C1130.61 540.152 1130.28 539.027 1129.61 538.168C1128.96 537.301 1128.08 536.867 1126.99 536.867C1125.92 536.867 1125.05 537.293 1124.4 538.145C1123.74 538.996 1123.41 540.215 1123.41 541.801ZM1135.2 541.555C1135.2 539.609 1135.66 538.047 1136.58 536.867C1137.51 535.68 1138.71 535.086 1140.2 535.086C1141.69 535.086 1142.86 535.594 1143.73 536.609V530H1145.9V548H1143.91L1143.8 546.641C1142.94 547.703 1141.73 548.234 1140.18 548.234C1138.71 548.234 1137.51 547.633 1136.58 546.43C1135.66 545.227 1135.2 543.656 1135.2 541.719V541.555ZM1137.37 541.801C1137.37 543.238 1137.67 544.363 1138.26 545.176C1138.85 545.988 1139.67 546.395 1140.72 546.395C1142.1 546.395 1143.1 545.777 1143.73 544.543V538.719C1143.08 537.523 1142.09 536.926 1140.74 536.926C1139.68 536.926 1138.85 537.336 1138.26 538.156C1137.67 538.977 1137.37 540.191 1137.37 541.801ZM1149.85 548V530.938H1155.43C1157.28 530.938 1158.67 531.32 1159.6 532.086C1160.54 532.852 1161 533.984 1161 535.484C1161 536.281 1160.78 536.988 1160.32 537.605C1159.87 538.215 1159.25 538.688 1158.47 539.023C1159.39 539.281 1160.12 539.773 1160.65 540.5C1161.19 541.219 1161.46 542.078 1161.46 543.078C1161.46 544.609 1160.96 545.812 1159.97 546.688C1158.98 547.562 1157.58 548 1155.77 548H1149.85ZM1152.1 540.02V546.16H1155.81C1156.86 546.16 1157.68 545.891 1158.29 545.352C1158.89 544.805 1159.2 544.055 1159.2 543.102C1159.2 541.047 1158.08 540.02 1155.85 540.02H1152.1ZM1152.1 538.215H1155.5C1156.48 538.215 1157.27 537.969 1157.85 537.477C1158.45 536.984 1158.74 536.316 1158.74 535.473C1158.74 534.535 1158.47 533.855 1157.92 533.434C1157.38 533.004 1156.54 532.789 1155.43 532.789H1152.1V538.215ZM1164.12 541.543C1164.12 540.301 1164.36 539.184 1164.85 538.191C1165.34 537.199 1166.02 536.434 1166.89 535.895C1167.76 535.355 1168.76 535.086 1169.87 535.086C1171.6 535.086 1172.99 535.684 1174.06 536.879C1175.13 538.074 1175.66 539.664 1175.66 541.648V541.801C1175.66 543.035 1175.42 544.145 1174.95 545.129C1174.48 546.105 1173.8 546.867 1172.92 547.414C1172.05 547.961 1171.04 548.234 1169.9 548.234C1168.18 548.234 1166.78 547.637 1165.71 546.441C1164.65 545.246 1164.12 543.664 1164.12 541.695V541.543ZM1166.3 541.801C1166.3 543.207 1166.62 544.336 1167.27 545.188C1167.93 546.039 1168.8 546.465 1169.9 546.465C1171 546.465 1171.87 546.035 1172.52 545.176C1173.17 544.309 1173.49 543.098 1173.49 541.543C1173.49 540.152 1173.16 539.027 1172.5 538.168C1171.84 537.301 1170.97 536.867 1169.87 536.867C1168.8 536.867 1167.94 537.293 1167.28 538.145C1166.63 538.996 1166.3 540.215 1166.3 541.801ZM1186.44 548C1186.32 547.75 1186.22 547.305 1186.14 546.664C1185.13 547.711 1183.93 548.234 1182.53 548.234C1181.28 548.234 1180.25 547.883 1179.45 547.18C1178.65 546.469 1178.25 545.57 1178.25 544.484C1178.25 543.164 1178.75 542.141 1179.75 541.414C1180.76 540.68 1182.17 540.312 1183.99 540.312H1186.1V539.316C1186.1 538.559 1185.88 537.957 1185.42 537.512C1184.97 537.059 1184.3 536.832 1183.42 536.832C1182.65 536.832 1182 537.027 1181.47 537.418C1180.95 537.809 1180.69 538.281 1180.69 538.836H1178.51C1178.51 538.203 1178.73 537.594 1179.18 537.008C1179.63 536.414 1180.24 535.945 1181 535.602C1181.78 535.258 1182.63 535.086 1183.55 535.086C1185.01 535.086 1186.15 535.453 1186.98 536.188C1187.81 536.914 1188.24 537.918 1188.27 539.199V545.035C1188.27 546.199 1188.42 547.125 1188.72 547.812V548H1186.44ZM1182.84 546.348C1183.52 546.348 1184.17 546.172 1184.78 545.82C1185.39 545.469 1185.83 545.012 1186.1 544.449V541.848H1184.4C1181.75 541.848 1180.42 542.625 1180.42 544.18C1180.42 544.859 1180.65 545.391 1181.1 545.773C1181.55 546.156 1182.13 546.348 1182.84 546.348ZM1198.03 537.266C1197.7 537.211 1197.35 537.184 1196.96 537.184C1195.54 537.184 1194.58 537.789 1194.07 539V548H1191.9V535.32H1194.01L1194.05 536.785C1194.76 535.652 1195.76 535.086 1197.07 535.086C1197.49 535.086 1197.81 535.141 1198.03 535.25V537.266ZM1199.51 541.555C1199.51 539.609 1199.97 538.047 1200.89 536.867C1201.81 535.68 1203.02 535.086 1204.51 535.086C1205.99 535.086 1207.17 535.594 1208.04 536.609V530H1210.2V548H1208.21L1208.11 546.641C1207.24 547.703 1206.03 548.234 1204.49 548.234C1203.02 548.234 1201.82 547.633 1200.89 546.43C1199.97 545.227 1199.51 543.656 1199.51 541.719V541.555ZM1201.67 541.801C1201.67 543.238 1201.97 544.363 1202.56 545.176C1203.16 545.988 1203.98 546.395 1205.03 546.395C1206.4 546.395 1207.4 545.777 1208.04 544.543V538.719C1207.39 537.523 1206.39 536.926 1205.05 536.926C1203.99 536.926 1203.16 537.336 1202.56 538.156C1201.97 538.977 1201.67 540.191 1201.67 541.801Z" fill="black"/>
<rect x="1273.5" y="276.5" width="194" height="104" rx="7.5" fill="#19647E" fill-opacity="0.4" stroke="#19647E" stroke-width="5"/>
<path d="M1288.63 333.012L1293.5 318.938H1295.96L1289.64 336H1287.64L1281.33 318.938H1283.78L1288.63 333.012ZM1300.51 336H1298.34V323.32H1300.51V336ZM1298.17 319.957C1298.17 319.605 1298.27 319.309 1298.48 319.066C1298.7 318.824 1299.02 318.703 1299.44 318.703C1299.87 318.703 1300.19 318.824 1300.4 319.066C1300.62 319.309 1300.73 319.605 1300.73 319.957C1300.73 320.309 1300.62 320.602 1300.4 320.836C1300.19 321.07 1299.87 321.188 1299.44 321.188C1299.02 321.188 1298.7 321.07 1298.48 320.836C1298.27 320.602 1298.17 320.309 1298.17 319.957ZM1311.61 332.637C1311.61 332.051 1311.38 331.598 1310.94 331.277C1310.5 330.949 1309.73 330.668 1308.63 330.434C1307.54 330.199 1306.66 329.918 1306.02 329.59C1305.38 329.262 1304.9 328.871 1304.59 328.418C1304.28 327.965 1304.13 327.426 1304.13 326.801C1304.13 325.762 1304.57 324.883 1305.44 324.164C1306.33 323.445 1307.45 323.086 1308.82 323.086C1310.25 323.086 1311.42 323.457 1312.31 324.199C1313.21 324.941 1313.66 325.891 1313.66 327.047H1311.48C1311.48 326.453 1311.22 325.941 1310.72 325.512C1310.22 325.082 1309.58 324.867 1308.82 324.867C1308.03 324.867 1307.41 325.039 1306.97 325.383C1306.52 325.727 1306.3 326.176 1306.3 326.73C1306.3 327.254 1306.5 327.648 1306.92 327.914C1307.33 328.18 1308.08 328.434 1309.16 328.676C1310.24 328.918 1311.12 329.207 1311.79 329.543C1312.47 329.879 1312.96 330.285 1313.28 330.762C1313.61 331.23 1313.77 331.805 1313.77 332.484C1313.77 333.617 1313.32 334.527 1312.41 335.215C1311.51 335.895 1310.33 336.234 1308.89 336.234C1307.87 336.234 1306.97 336.055 1306.19 335.695C1305.41 335.336 1304.8 334.836 1304.35 334.195C1303.91 333.547 1303.7 332.848 1303.7 332.098H1305.86C1305.9 332.824 1306.19 333.402 1306.73 333.832C1307.28 334.254 1308 334.465 1308.89 334.465C1309.71 334.465 1310.36 334.301 1310.86 333.973C1311.36 333.637 1311.61 333.191 1311.61 332.637ZM1324.66 334.746C1323.82 335.738 1322.58 336.234 1320.94 336.234C1319.59 336.234 1318.56 335.844 1317.85 335.062C1317.15 334.273 1316.79 333.109 1316.78 331.57V323.32H1318.95V331.512C1318.95 333.434 1319.73 334.395 1321.3 334.395C1322.95 334.395 1324.05 333.777 1324.6 332.543V323.32H1326.77V336H1324.71L1324.66 334.746ZM1338.13 336C1338.01 335.75 1337.91 335.305 1337.83 334.664C1336.82 335.711 1335.62 336.234 1334.22 336.234C1332.97 336.234 1331.94 335.883 1331.14 335.18C1330.34 334.469 1329.94 333.57 1329.94 332.484C1329.94 331.164 1330.44 330.141 1331.44 329.414C1332.45 328.68 1333.86 328.312 1335.69 328.312H1337.79V327.316C1337.79 326.559 1337.57 325.957 1337.11 325.512C1336.66 325.059 1335.99 324.832 1335.11 324.832C1334.34 324.832 1333.69 325.027 1333.17 325.418C1332.64 325.809 1332.38 326.281 1332.38 326.836H1330.2C1330.2 326.203 1330.42 325.594 1330.87 325.008C1331.32 324.414 1331.93 323.945 1332.7 323.602C1333.47 323.258 1334.32 323.086 1335.24 323.086C1336.7 323.086 1337.85 323.453 1338.67 324.188C1339.5 324.914 1339.93 325.918 1339.96 327.199V333.035C1339.96 334.199 1340.11 335.125 1340.41 335.812V336H1338.13ZM1334.54 334.348C1335.22 334.348 1335.86 334.172 1336.47 333.82C1337.08 333.469 1337.52 333.012 1337.79 332.449V329.848H1336.1C1333.44 329.848 1332.11 330.625 1332.11 332.18C1332.11 332.859 1332.34 333.391 1332.79 333.773C1333.24 334.156 1333.83 334.348 1334.54 334.348ZM1345.95 336H1343.78V318H1345.95V336ZM1358.45 334.16H1366.54V336H1356.19V318.938H1358.45V334.16ZM1376.82 336C1376.7 335.75 1376.6 335.305 1376.52 334.664C1375.51 335.711 1374.31 336.234 1372.91 336.234C1371.66 336.234 1370.63 335.883 1369.83 335.18C1369.03 334.469 1368.63 333.57 1368.63 332.484C1368.63 331.164 1369.13 330.141 1370.13 329.414C1371.14 328.68 1372.55 328.312 1374.37 328.312H1376.48V327.316C1376.48 326.559 1376.26 325.957 1375.8 325.512C1375.35 325.059 1374.68 324.832 1373.8 324.832C1373.03 324.832 1372.38 325.027 1371.85 325.418C1371.33 325.809 1371.07 326.281 1371.07 326.836H1368.89C1368.89 326.203 1369.11 325.594 1369.56 325.008C1370.01 324.414 1370.62 323.945 1371.39 323.602C1372.16 323.258 1373.01 323.086 1373.93 323.086C1375.39 323.086 1376.53 323.453 1377.36 324.188C1378.19 324.914 1378.62 325.918 1378.65 327.199V333.035C1378.65 334.199 1378.8 335.125 1379.1 335.812V336H1376.82ZM1373.23 334.348C1373.91 334.348 1374.55 334.172 1375.16 333.82C1375.77 333.469 1376.21 333.012 1376.48 332.449V329.848H1374.78C1372.13 329.848 1370.8 330.625 1370.8 332.18C1370.8 332.859 1371.03 333.391 1371.48 333.773C1371.93 334.156 1372.52 334.348 1373.23 334.348ZM1384.33 323.32L1384.4 324.914C1385.37 323.695 1386.64 323.086 1388.2 323.086C1390.88 323.086 1392.23 324.598 1392.26 327.621V336H1390.09V327.609C1390.08 326.695 1389.87 326.02 1389.45 325.582C1389.05 325.145 1388.41 324.926 1387.54 324.926C1386.84 324.926 1386.22 325.113 1385.69 325.488C1385.16 325.863 1384.75 326.355 1384.45 326.965V336H1382.28V323.32H1384.33ZM1395.24 329.555C1395.24 327.578 1395.7 326.008 1396.61 324.844C1397.53 323.672 1398.74 323.086 1400.25 323.086C1401.79 323.086 1403 323.633 1403.87 324.727L1403.97 323.32H1405.95V335.695C1405.95 337.336 1405.47 338.629 1404.49 339.574C1403.52 340.52 1402.22 340.992 1400.57 340.992C1399.66 340.992 1398.77 340.797 1397.89 340.406C1397.02 340.016 1396.35 339.48 1395.89 338.801L1397.01 337.5C1397.94 338.648 1399.08 339.223 1400.42 339.223C1401.48 339.223 1402.3 338.926 1402.88 338.332C1403.48 337.738 1403.77 336.902 1403.77 335.824V334.734C1402.91 335.734 1401.72 336.234 1400.22 336.234C1398.74 336.234 1397.54 335.637 1396.61 334.441C1395.7 333.246 1395.24 331.617 1395.24 329.555ZM1397.42 329.801C1397.42 331.23 1397.72 332.355 1398.3 333.176C1398.89 333.988 1399.71 334.395 1400.76 334.395C1402.13 334.395 1403.13 333.773 1403.77 332.531V326.742C1403.11 325.531 1402.11 324.926 1400.79 324.926C1399.73 324.926 1398.91 325.336 1398.31 326.156C1397.72 326.977 1397.42 328.191 1397.42 329.801ZM1417.3 334.746C1416.45 335.738 1415.21 336.234 1413.58 336.234C1412.23 336.234 1411.2 335.844 1410.49 335.062C1409.78 334.273 1409.43 333.109 1409.42 331.57V323.32H1411.59V331.512C1411.59 333.434 1412.37 334.395 1413.93 334.395C1415.59 334.395 1416.69 333.777 1417.24 332.543V323.32H1419.4V336H1417.34L1417.3 334.746ZM1430.77 336C1430.65 335.75 1430.54 335.305 1430.47 334.664C1429.46 335.711 1428.25 336.234 1426.86 336.234C1425.61 336.234 1424.58 335.883 1423.77 335.18C1422.98 334.469 1422.58 333.57 1422.58 332.484C1422.58 331.164 1423.08 330.141 1424.08 329.414C1425.09 328.68 1426.5 328.312 1428.32 328.312H1430.43V327.316C1430.43 326.559 1430.2 325.957 1429.75 325.512C1429.3 325.059 1428.63 324.832 1427.75 324.832C1426.97 324.832 1426.33 325.027 1425.8 325.418C1425.28 325.809 1425.02 326.281 1425.02 326.836H1422.84C1422.84 326.203 1423.06 325.594 1423.5 325.008C1423.96 324.414 1424.57 323.945 1425.33 323.602C1426.11 323.258 1426.95 323.086 1427.88 323.086C1429.34 323.086 1430.48 323.453 1431.31 324.188C1432.14 324.914 1432.57 325.918 1432.6 327.199V333.035C1432.6 334.199 1432.75 335.125 1433.04 335.812V336H1430.77ZM1427.17 334.348C1427.85 334.348 1428.5 334.172 1429.11 333.82C1429.72 333.469 1430.16 333.012 1430.43 332.449V329.848H1428.73C1426.08 329.848 1424.75 330.625 1424.75 332.18C1424.75 332.859 1424.97 333.391 1425.43 333.773C1425.88 334.156 1426.46 334.348 1427.17 334.348ZM1435.71 329.555C1435.71 327.578 1436.17 326.008 1437.09 324.844C1438 323.672 1439.21 323.086 1440.72 323.086C1442.27 323.086 1443.47 323.633 1444.34 324.727L1444.44 323.32H1446.43V335.695C1446.43 337.336 1445.94 338.629 1444.96 339.574C1443.99 340.52 1442.69 340.992 1441.05 340.992C1440.13 340.992 1439.24 340.797 1438.36 340.406C1437.49 340.016 1436.82 339.48 1436.36 338.801L1437.48 337.5C1438.41 338.648 1439.55 339.223 1440.89 339.223C1441.95 339.223 1442.77 338.926 1443.35 338.332C1443.95 337.738 1444.25 336.902 1444.25 335.824V334.734C1443.38 335.734 1442.19 336.234 1440.69 336.234C1439.21 336.234 1438.01 335.637 1437.09 334.441C1436.17 333.246 1435.71 331.617 1435.71 329.555ZM1437.89 329.801C1437.89 331.23 1438.19 332.355 1438.77 333.176C1439.36 333.988 1440.18 334.395 1441.23 334.395C1442.6 334.395 1443.6 333.773 1444.25 332.531V326.742C1443.58 325.531 1442.59 324.926 1441.26 324.926C1440.2 324.926 1439.38 325.336 1438.78 326.156C1438.19 326.977 1437.89 328.191 1437.89 329.801ZM1455.2 336.234C1453.48 336.234 1452.08 335.672 1451.01 334.547C1449.93 333.414 1449.39 331.902 1449.39 330.012V329.613C1449.39 328.355 1449.63 327.234 1450.1 326.25C1450.59 325.258 1451.26 324.484 1452.12 323.93C1452.99 323.367 1453.92 323.086 1454.93 323.086C1456.58 323.086 1457.86 323.629 1458.78 324.715C1459.69 325.801 1460.15 327.355 1460.15 329.379V330.281H1451.56C1451.59 331.531 1451.95 332.543 1452.65 333.316C1453.35 334.082 1454.24 334.465 1455.32 334.465C1456.08 334.465 1456.73 334.309 1457.26 333.996C1457.79 333.684 1458.26 333.27 1458.66 332.754L1459.98 333.785C1458.92 335.418 1457.33 336.234 1455.2 336.234ZM1454.93 324.867C1454.06 324.867 1453.32 325.188 1452.73 325.828C1452.13 326.461 1451.77 327.352 1451.63 328.5H1457.98V328.336C1457.92 327.234 1457.62 326.383 1457.09 325.781C1456.56 325.172 1455.84 324.867 1454.93 324.867Z" fill="black"/>
<rect x="1051.5" y="51.5" width="194" height="104" rx="7.5" fill="#19647E" fill-opacity="0.4" stroke="#19647E" stroke-width="5"/>
<path d="M1080.09 109.16H1088.18V111H1077.83V93.9375H1080.09V109.16ZM1100.39 103.465H1093.23V111H1090.98V93.9375H1101.55V95.7891H1093.23V101.625H1100.39V103.465ZM1114.34 105.621L1114.67 107.871L1115.15 105.844L1118.53 93.9375H1120.43L1123.72 105.844L1124.19 107.906L1124.55 105.609L1127.2 93.9375H1129.46L1125.32 111H1123.27L1119.76 98.5664L1119.49 97.2656L1119.22 98.5664L1115.57 111H1113.52L1109.4 93.9375H1111.65L1114.34 105.621ZM1134.22 111H1132.05V98.3203H1134.22V111ZM1131.87 94.957C1131.87 94.6055 1131.98 94.3086 1132.19 94.0664C1132.41 93.8242 1132.73 93.7031 1133.15 93.7031C1133.57 93.7031 1133.89 93.8242 1134.11 94.0664C1134.33 94.3086 1134.44 94.6055 1134.44 94.957C1134.44 95.3086 1134.33 95.6016 1134.11 95.8359C1133.89 96.0703 1133.57 96.1875 1133.15 96.1875C1132.73 96.1875 1132.41 96.0703 1132.19 95.8359C1131.98 95.6016 1131.87 95.3086 1131.87 94.957ZM1144.06 100.266C1143.73 100.211 1143.38 100.184 1142.99 100.184C1141.57 100.184 1140.61 100.789 1140.1 102V111H1137.93V98.3203H1140.04L1140.07 99.7852C1140.79 98.6523 1141.79 98.0859 1143.1 98.0859C1143.52 98.0859 1143.84 98.1406 1144.06 98.25V100.266ZM1151.32 111.234C1149.6 111.234 1148.21 110.672 1147.13 109.547C1146.05 108.414 1145.51 106.902 1145.51 105.012V104.613C1145.51 103.355 1145.75 102.234 1146.23 101.25C1146.71 100.258 1147.38 99.4844 1148.24 98.9297C1149.11 98.3672 1150.05 98.0859 1151.05 98.0859C1152.7 98.0859 1153.98 98.6289 1154.9 99.7148C1155.81 100.801 1156.27 102.355 1156.27 104.379V105.281H1147.68C1147.71 106.531 1148.07 107.543 1148.77 108.316C1149.47 109.082 1150.36 109.465 1151.44 109.465C1152.21 109.465 1152.85 109.309 1153.39 108.996C1153.92 108.684 1154.38 108.27 1154.78 107.754L1156.1 108.785C1155.04 110.418 1153.45 111.234 1151.32 111.234ZM1151.05 99.8672C1150.18 99.8672 1149.44 100.188 1148.85 100.828C1148.26 101.461 1147.89 102.352 1147.75 103.5H1154.1V103.336C1154.04 102.234 1153.74 101.383 1153.21 100.781C1152.68 100.172 1151.96 99.8672 1151.05 99.8672ZM1160.09 111V99.9961H1158.08V98.3203H1160.09V97.0195C1160.09 95.6602 1160.45 94.6094 1161.18 93.8672C1161.9 93.125 1162.93 92.7539 1164.26 92.7539C1164.76 92.7539 1165.26 92.8203 1165.75 92.9531L1165.63 94.7109C1165.26 94.6406 1164.87 94.6055 1164.46 94.6055C1163.76 94.6055 1163.21 94.8125 1162.83 95.2266C1162.45 95.6328 1162.26 96.2188 1162.26 96.9844V98.3203H1164.96V99.9961H1162.26V111H1160.09ZM1173.73 100.266C1173.4 100.211 1173.04 100.184 1172.66 100.184C1171.24 100.184 1170.27 100.789 1169.77 102V111H1167.6V98.3203H1169.71L1169.74 99.7852C1170.45 98.6523 1171.46 98.0859 1172.77 98.0859C1173.19 98.0859 1173.51 98.1406 1173.73 98.25V100.266ZM1183.32 111C1183.2 110.75 1183.1 110.305 1183.02 109.664C1182.01 110.711 1180.81 111.234 1179.41 111.234C1178.16 111.234 1177.13 110.883 1176.33 110.18C1175.53 109.469 1175.13 108.57 1175.13 107.484C1175.13 106.164 1175.63 105.141 1176.63 104.414C1177.64 103.68 1179.05 103.312 1180.87 103.312H1182.98V102.316C1182.98 101.559 1182.76 100.957 1182.3 100.512C1181.85 100.059 1181.18 99.832 1180.3 99.832C1179.53 99.832 1178.88 100.027 1178.35 100.418C1177.83 100.809 1177.57 101.281 1177.57 101.836H1175.39C1175.39 101.203 1175.61 100.594 1176.06 100.008C1176.51 99.4141 1177.12 98.9453 1177.89 98.6016C1178.66 98.2578 1179.51 98.0859 1180.43 98.0859C1181.89 98.0859 1183.03 98.4531 1183.86 99.1875C1184.69 99.9141 1185.12 100.918 1185.15 102.199V108.035C1185.15 109.199 1185.3 110.125 1185.6 110.812V111H1183.32ZM1179.73 109.348C1180.4 109.348 1181.05 109.172 1181.66 108.82C1182.27 108.469 1182.71 108.012 1182.98 107.449V104.848H1181.28C1178.63 104.848 1177.3 105.625 1177.3 107.18C1177.3 107.859 1177.53 108.391 1177.98 108.773C1178.43 109.156 1179.01 109.348 1179.73 109.348ZM1190.82 98.3203L1190.88 99.7266C1191.81 98.6328 1193.06 98.0859 1194.64 98.0859C1196.41 98.0859 1197.62 98.7656 1198.26 100.125C1198.68 99.5156 1199.23 99.0234 1199.9 98.6484C1200.58 98.2734 1201.38 98.0859 1202.31 98.0859C1205.09 98.0859 1206.5 99.5586 1206.55 102.504V111H1204.38V102.633C1204.38 101.727 1204.17 101.051 1203.76 100.605C1203.34 100.152 1202.65 99.9258 1201.67 99.9258C1200.87 99.9258 1200.2 100.168 1199.67 100.652C1199.14 101.129 1198.83 101.773 1198.74 102.586V111H1196.56V102.691C1196.56 100.848 1195.66 99.9258 1193.86 99.9258C1192.43 99.9258 1191.46 100.531 1190.94 101.742V111H1188.77V98.3203H1190.82ZM1215.32 111.234C1213.6 111.234 1212.21 110.672 1211.13 109.547C1210.05 108.414 1209.51 106.902 1209.51 105.012V104.613C1209.51 103.355 1209.75 102.234 1210.23 101.25C1210.71 100.258 1211.38 99.4844 1212.24 98.9297C1213.11 98.3672 1214.05 98.0859 1215.05 98.0859C1216.7 98.0859 1217.98 98.6289 1218.9 99.7148C1219.81 100.801 1220.27 102.355 1220.27 104.379V105.281H1211.68C1211.71 106.531 1212.07 107.543 1212.77 108.316C1213.47 109.082 1214.36 109.465 1215.44 109.465C1216.21 109.465 1216.85 109.309 1217.39 108.996C1217.92 108.684 1218.38 108.27 1218.78 107.754L1220.1 108.785C1219.04 110.418 1217.45 111.234 1215.32 111.234ZM1215.05 99.8672C1214.18 99.8672 1213.44 100.188 1212.85 100.828C1212.26 101.461 1211.89 102.352 1211.75 103.5H1218.1V103.336C1218.04 102.234 1217.74 101.383 1217.21 100.781C1216.68 100.172 1215.96 99.8672 1215.05 99.8672Z" fill="black"/>
<g filter="url(#filter0_d)">
<path d="M631.561 105.061C632.146 104.475 632.146 103.525 631.561 102.939L622.015 93.3934C621.429 92.8076 620.479 92.8076 619.893 93.3934C619.308 93.9792 619.308 94.9289 619.893 95.5147L628.379 104L619.893 112.485C619.308 113.071 619.308 114.021 619.893 114.607C620.479 115.192 621.429 115.192 622.015 114.607L631.561 105.061ZM452 105.5H630.5V102.5H452V105.5Z" fill="black"/>
</g>
<g filter="url(#filter1_d)">
<path d="M448.939 539.939C448.354 540.525 448.354 541.475 448.939 542.061L458.485 551.607C459.071 552.192 460.021 552.192 460.607 551.607C461.192 551.021 461.192 550.071 460.607 549.485L452.121 541L460.607 532.515C461.192 531.929 461.192 530.979 460.607 530.393C460.021 529.808 459.071 529.808 458.485 530.393L448.939 539.939ZM628.5 539.5H450V542.5H628.5V539.5Z" fill="black"/>
</g>
<g filter="url(#filter2_d)">
<path d="M851.939 539.939C851.354 540.525 851.354 541.475 851.939 542.061L861.485 551.607C862.071 552.192 863.021 552.192 863.607 551.607C864.192 551.021 864.192 550.071 863.607 549.485L855.121 541L863.607 532.515C864.192 531.929 864.192 530.979 863.607 530.393C863.021 529.808 862.071 529.808 861.485 530.393L851.939 539.939ZM1031.5 539.5H853V542.5H1031.5V539.5Z" fill="black"/>
</g>
<g filter="url(#filter3_d)">
<path d="M1032.56 105.061C1033.15 104.475 1033.15 103.525 1032.56 102.939L1023.01 93.3934C1022.43 92.8076 1021.48 92.8076 1020.89 93.3934C1020.31 93.9792 1020.31 94.9289 1020.89 95.5147L1029.38 104L1020.89 112.485C1020.31 113.071 1020.31 114.021 1020.89 114.607C1021.48 115.192 1022.43 115.192 1023.01 114.607L1032.56 105.061ZM853 105.5H1031.5V102.5H853V105.5Z" fill="black"/>
</g>
<g filter="url(#filter4_d)">
<path d="M1375.61 145.537L1374.83 146.816L1374.83 146.816L1375.61 145.537ZM1376.94 232.061C1377.53 232.646 1378.47 232.646 1379.06 232.061L1388.61 222.515C1389.19 221.929 1389.19 220.979 1388.61 220.393C1388.02 219.808 1387.07 219.808 1386.49 220.393L1378 228.879L1369.51 220.393C1368.93 219.808 1367.98 219.808 1367.39 220.393C1366.81 220.979 1366.81 221.929 1367.39 222.515L1376.94 232.061ZM1312.72 108.779L1374.83 146.816L1376.39 144.258L1314.28 106.221L1312.72 108.779ZM1376.5 149.801V231H1379.5V149.801H1376.5ZM1374.83 146.816C1375.87 147.452 1376.5 148.583 1376.5 149.801H1379.5C1379.5 147.539 1378.32 145.439 1376.39 144.258L1374.83 146.816Z" fill="black"/>
</g>
<g filter="url(#filter5_d)">
<path d="M1386.54 544.5L1385.04 544.5V544.5L1386.54 544.5ZM1381.54 549.5L1381.54 548L1381.54 548L1381.54 549.5ZM1286.48 548.439C1285.89 549.025 1285.89 549.975 1286.48 550.561L1296.02 560.107C1296.61 560.692 1297.56 560.692 1298.14 560.107C1298.73 559.521 1298.73 558.571 1298.14 557.985L1289.66 549.5L1298.14 541.015C1298.73 540.429 1298.73 539.479 1298.14 538.893C1297.56 538.308 1296.61 538.308 1296.02 538.893L1286.48 548.439ZM1385.04 461L1385.04 544.5L1388.04 544.5L1388.04 461L1385.04 461ZM1381.54 548L1287.54 548L1287.54 551L1381.54 551L1381.54 548ZM1385.04 544.5C1385.04 546.433 1383.48 548 1381.54 548L1381.54 551C1385.13 551 1388.04 548.09 1388.04 544.5L1385.04 544.5Z" fill="black"/>
</g>
<g filter="url(#filter6_d)">
<path d="M133.851 513.679L134.415 512.289L134.415 512.289L133.851 513.679ZM130.73 509.045L129.23 509.045L129.23 509.045L130.73 509.045ZM131.791 429.939C131.205 429.354 130.255 429.354 129.67 429.939L120.124 439.485C119.538 440.071 119.538 441.021 120.124 441.607C120.71 442.192 121.659 442.192 122.245 441.607L130.73 433.121L139.216 441.607C139.801 442.192 140.751 442.192 141.337 441.607C141.923 441.021 141.923 440.071 141.337 439.485L131.791 429.939ZM201.383 539.449L134.415 512.289L133.287 515.069L200.256 542.229L201.383 539.449ZM132.23 509.045L132.23 431L129.23 431L129.23 509.045L132.23 509.045ZM134.415 512.289C133.094 511.753 132.23 510.47 132.23 509.045L129.23 509.045C129.23 511.692 130.835 514.074 133.287 515.069L134.415 512.289Z" fill="black"/>
</g>
<defs>
<filter id="filter0_d" x="448" y="92.9541" width="188" height="30.0919" filterUnits="userSpaceOnUse" color-interpolation-filters="sRGB">
<feFlood flood-opacity="0" result="BackgroundImageFix"/>
<feColorMatrix in="SourceAlpha" type="matrix" values="0 0 0 0 0 0 0 0 0 0 0 0 0 0 0 0 0 0 127 0"/>
<feOffset dy="4"/>
<feGaussianBlur stdDeviation="2"/>
<feColorMatrix type="matrix" values="0 0 0 0 0 0 0 0 0 0 0 0 0 0 0 0 0 0 0.25 0"/>
<feBlend mode="normal" in2="BackgroundImageFix" result="effect1_dropShadow"/>
<feBlend mode="normal" in="SourceGraphic" in2="effect1_dropShadow" result="shape"/>
</filter>
<filter id="filter1_d" x="444.5" y="529.954" width="188" height="30.0919" filterUnits="userSpaceOnUse" color-interpolation-filters="sRGB">
<feFlood flood-opacity="0" result="BackgroundImageFix"/>
<feColorMatrix in="SourceAlpha" type="matrix" values="0 0 0 0 0 0 0 0 0 0 0 0 0 0 0 0 0 0 127 0"/>
<feOffset dy="4"/>
<feGaussianBlur stdDeviation="2"/>
<feColorMatrix type="matrix" values="0 0 0 0 0 0 0 0 0 0 0 0 0 0 0 0 0 0 0.25 0"/>
<feBlend mode="normal" in2="BackgroundImageFix" result="effect1_dropShadow"/>
<feBlend mode="normal" in="SourceGraphic" in2="effect1_dropShadow" result="shape"/>
</filter>
<filter id="filter2_d" x="847.5" y="529.954" width="188" height="30.0919" filterUnits="userSpaceOnUse" color-interpolation-filters="sRGB">
<feFlood flood-opacity="0" result="BackgroundImageFix"/>
<feColorMatrix in="SourceAlpha" type="matrix" values="0 0 0 0 0 0 0 0 0 0 0 0 0 0 0 0 0 0 127 0"/>
<feOffset dy="4"/>
<feGaussianBlur stdDeviation="2"/>
<feColorMatrix type="matrix" values="0 0 0 0 0 0 0 0 0 0 0 0 0 0 0 0 0 0 0.25 0"/>
<feBlend mode="normal" in2="BackgroundImageFix" result="effect1_dropShadow"/>
<feBlend mode="normal" in="SourceGraphic" in2="effect1_dropShadow" result="shape"/>
</filter>
<filter id="filter3_d" x="849" y="92.9541" width="188" height="30.0919" filterUnits="userSpaceOnUse" color-interpolation-filters="sRGB">
<feFlood flood-opacity="0" result="BackgroundImageFix"/>
<feColorMatrix in="SourceAlpha" type="matrix" values="0 0 0 0 0 0 0 0 0 0 0 0 0 0 0 0 0 0 127 0"/>
<feOffset dy="4"/>
<feGaussianBlur stdDeviation="2"/>
<feColorMatrix type="matrix" values="0 0 0 0 0 0 0 0 0 0 0 0 0 0 0 0 0 0 0.25 0"/>
<feBlend mode="normal" in2="BackgroundImageFix" result="effect1_dropShadow"/>
<feBlend mode="normal" in="SourceGraphic" in2="effect1_dropShadow" result="shape"/>
</filter>
<filter id="filter4_d" x="1308.72" y="106.221" width="84.3293" height="134.279" filterUnits="userSpaceOnUse" color-interpolation-filters="sRGB">
<feFlood flood-opacity="0" result="BackgroundImageFix"/>
<feColorMatrix in="SourceAlpha" type="matrix" values="0 0 0 0 0 0 0 0 0 0 0 0 0 0 0 0 0 0 127 0"/>
<feOffset dy="4"/>
<feGaussianBlur stdDeviation="2"/>
<feColorMatrix type="matrix" values="0 0 0 0 0 0 0 0 0 0 0 0 0 0 0 0 0 0 0.25 0"/>
<feBlend mode="normal" in2="BackgroundImageFix" result="effect1_dropShadow"/>
<feBlend mode="normal" in="SourceGraphic" in2="effect1_dropShadow" result="shape"/>
</filter>
<filter id="filter5_d" x="1265.43" y="460.122" width="152.448" height="127.026" filterUnits="userSpaceOnUse" color-interpolation-filters="sRGB">
<feFlood flood-opacity="0" result="BackgroundImageFix"/>
<feColorMatrix in="SourceAlpha" type="matrix" values="0 0 0 0 0 0 0 0 0 0 0 0 0 0 0 0 0 0 127 0"/>
<feOffset dy="4"/>
<feGaussianBlur stdDeviation="2"/>
<feColorMatrix type="matrix" values="0 0 0 0 0 0 0 0 0 0 0 0 0 0 0 0 0 0 0.25 0"/>
<feBlend mode="normal" in2="BackgroundImageFix" result="effect1_dropShadow"/>
<feBlend mode="normal" in="SourceGraphic" in2="effect1_dropShadow" result="shape"/>
</filter>
<filter id="filter6_d" x="112.354" y="421.024" width="93.4478" height="139.786" filterUnits="userSpaceOnUse" color-interpolation-filters="sRGB">
<feFlood flood-opacity="0" result="BackgroundImageFix"/>
<feColorMatrix in="SourceAlpha" type="matrix" values="0 0 0 0 0 0 0 0 0 0 0 0 0 0 0 0 0 0 127 0"/>
<feOffset dy="4"/>
<feGaussianBlur stdDeviation="2"/>
<feColorMatrix type="matrix" values="0 0 0 0 0 0 0 0 0 0 0 0 0 0 0 0 0 0 0.25 0"/>
<feBlend mode="normal" in2="BackgroundImageFix" result="effect1_dropShadow"/>
<feBlend mode="normal" in="SourceGraphic" in2="effect1_dropShadow" result="shape"/>
</filter>
</defs>
</svg>
