<svg width="1519" height="636" viewBox="0 0 1519 636" fill="none" xmlns="http://www.w3.org/2000/svg">
<rect width="1519" height="636" fill="white"/>
<rect x="238.5" y="51.5" width="194" height="104" rx="7.5" fill="white" stroke="#CAD4DB" stroke-width="5"/>
<path d="M295.501 92.6211L295.829 94.8711L296.309 92.8438L299.684 80.9375H301.583L304.876 92.8438L305.344 94.9062L305.708 92.6094L308.356 80.9375H310.618L306.481 98H304.43L300.915 85.5664L300.645 84.2656L300.376 85.5664L296.731 98H294.68L290.555 80.9375H292.805L295.501 92.6211ZM317.905 98.2344C316.187 98.2344 314.788 97.6719 313.71 96.5469C312.632 95.4141 312.093 93.9023 312.093 92.0117V91.6133C312.093 90.3555 312.331 89.2344 312.808 88.25C313.292 87.2578 313.964 86.4844 314.823 85.9297C315.691 85.3672 316.628 85.0859 317.636 85.0859C319.284 85.0859 320.566 85.6289 321.48 86.7148C322.394 87.8008 322.851 89.3555 322.851 91.3789V92.2812H314.261C314.292 93.5312 314.655 94.543 315.351 95.3164C316.054 96.082 316.944 96.4648 318.023 96.4648C318.788 96.4648 319.437 96.3086 319.968 95.9961C320.499 95.6836 320.964 95.2695 321.362 94.7539L322.687 95.7852C321.624 97.418 320.03 98.2344 317.905 98.2344ZM317.636 86.8672C316.761 86.8672 316.027 87.1875 315.433 87.8281C314.839 88.4609 314.472 89.3516 314.331 90.5H320.683V90.3359C320.62 89.2344 320.323 88.3828 319.792 87.7812C319.261 87.1719 318.542 86.8672 317.636 86.8672ZM336.337 91.8008C336.337 93.7383 335.892 95.2969 335.002 96.4766C334.111 97.6484 332.916 98.2344 331.416 98.2344C329.814 98.2344 328.576 97.668 327.701 96.5352L327.595 98H325.603V80H327.771V86.7148C328.646 85.6289 329.853 85.0859 331.392 85.0859C332.931 85.0859 334.138 85.668 335.013 86.832C335.896 87.9961 336.337 89.5898 336.337 91.6133V91.8008ZM334.17 91.5547C334.17 90.0781 333.884 88.9375 333.314 88.1328C332.744 87.3281 331.923 86.9258 330.853 86.9258C329.423 86.9258 328.396 87.5898 327.771 88.918V94.4023C328.435 95.7305 329.47 96.3945 330.877 96.3945C331.916 96.3945 332.724 95.9922 333.302 95.1875C333.88 94.3828 334.17 93.1719 334.17 91.5547ZM346.695 94.6367C346.695 94.0508 346.473 93.5977 346.027 93.2773C345.59 92.9492 344.82 92.668 343.719 92.4336C342.625 92.1992 341.754 91.918 341.105 91.5898C340.465 91.2617 339.988 90.8711 339.676 90.418C339.371 89.9648 339.219 89.4258 339.219 88.8008C339.219 87.7617 339.656 86.8828 340.531 86.1641C341.414 85.4453 342.539 85.0859 343.906 85.0859C345.344 85.0859 346.508 85.457 347.398 86.1992C348.297 86.9414 348.746 87.8906 348.746 89.0469H346.566C346.566 88.4531 346.312 87.9414 345.805 87.5117C345.305 87.082 344.672 86.8672 343.906 86.8672C343.117 86.8672 342.5 87.0391 342.055 87.3828C341.609 87.7266 341.387 88.1758 341.387 88.7305C341.387 89.2539 341.594 89.6484 342.008 89.9141C342.422 90.1797 343.168 90.4336 344.246 90.6758C345.332 90.918 346.211 91.207 346.883 91.543C347.555 91.8789 348.051 92.2852 348.371 92.7617C348.699 93.2305 348.863 93.8047 348.863 94.4844C348.863 95.6172 348.41 96.5273 347.504 97.2148C346.598 97.8945 345.422 98.2344 343.977 98.2344C342.961 98.2344 342.062 98.0547 341.281 97.6953C340.5 97.3359 339.887 96.8359 339.441 96.1953C339.004 95.5469 338.785 94.8477 338.785 94.0977H340.953C340.992 94.8242 341.281 95.4023 341.82 95.832C342.367 96.2539 343.086 96.4648 343.977 96.4648C344.797 96.4648 345.453 96.3008 345.945 95.9727C346.445 95.6367 346.695 95.1914 346.695 94.6367ZM354.276 98H352.108V85.3203H354.276V98ZM351.932 81.957C351.932 81.6055 352.038 81.3086 352.248 81.0664C352.467 80.8242 352.788 80.7031 353.209 80.7031C353.631 80.7031 353.952 80.8242 354.17 81.0664C354.389 81.3086 354.498 81.6055 354.498 81.957C354.498 82.3086 354.389 82.6016 354.17 82.8359C353.952 83.0703 353.631 83.1875 353.209 83.1875C352.788 83.1875 352.467 83.0703 352.248 82.8359C352.038 82.6016 351.932 82.3086 351.932 81.957ZM360.931 82.25V85.3203H363.298V86.9961H360.931V94.8594C360.931 95.3672 361.036 95.75 361.247 96.0078C361.458 96.2578 361.817 96.3828 362.325 96.3828C362.575 96.3828 362.919 96.3359 363.356 96.2422V98C362.786 98.1562 362.231 98.2344 361.692 98.2344C360.723 98.2344 359.993 97.9414 359.501 97.3555C359.009 96.7695 358.763 95.9375 358.763 94.8594V86.9961H356.454V85.3203H358.763V82.25H360.931ZM371.335 98.2344C369.616 98.2344 368.218 97.6719 367.14 96.5469C366.062 95.4141 365.523 93.9023 365.523 92.0117V91.6133C365.523 90.3555 365.761 89.2344 366.238 88.25C366.722 87.2578 367.394 86.4844 368.253 85.9297C369.12 85.3672 370.058 85.0859 371.066 85.0859C372.714 85.0859 373.995 85.6289 374.909 86.7148C375.824 87.8008 376.281 89.3555 376.281 91.3789V92.2812H367.691C367.722 93.5312 368.085 94.543 368.781 95.3164C369.484 96.082 370.374 96.4648 371.452 96.4648C372.218 96.4648 372.866 96.3086 373.398 95.9961C373.929 95.6836 374.394 95.2695 374.792 94.7539L376.116 95.7852C375.054 97.418 373.46 98.2344 371.335 98.2344ZM371.066 86.8672C370.191 86.8672 369.456 87.1875 368.863 87.8281C368.269 88.4609 367.902 89.3516 367.761 90.5H374.113V90.3359C374.05 89.2344 373.753 88.3828 373.222 87.7812C372.691 87.1719 371.972 86.8672 371.066 86.8672ZM302.743 120.586C302.532 122.391 301.864 123.785 300.739 124.77C299.622 125.746 298.134 126.234 296.274 126.234C294.259 126.234 292.641 125.512 291.423 124.066C290.212 122.621 289.606 120.688 289.606 118.266V116.625C289.606 115.039 289.887 113.645 290.45 112.441C291.02 111.238 291.825 110.316 292.864 109.676C293.903 109.027 295.106 108.703 296.473 108.703C298.286 108.703 299.739 109.211 300.833 110.227C301.926 111.234 302.563 112.633 302.743 114.422H300.481C300.286 113.062 299.86 112.078 299.204 111.469C298.555 110.859 297.645 110.555 296.473 110.555C295.036 110.555 293.907 111.086 293.087 112.148C292.274 113.211 291.868 114.723 291.868 116.684V118.336C291.868 120.188 292.255 121.66 293.028 122.754C293.801 123.848 294.884 124.395 296.274 124.395C297.524 124.395 298.481 124.113 299.145 123.551C299.817 122.98 300.262 121.992 300.481 120.586H302.743ZM305.144 119.543C305.144 118.301 305.386 117.184 305.87 116.191C306.362 115.199 307.042 114.434 307.909 113.895C308.784 113.355 309.78 113.086 310.898 113.086C312.624 113.086 314.019 113.684 315.081 114.879C316.152 116.074 316.687 117.664 316.687 119.648V119.801C316.687 121.035 316.448 122.145 315.972 123.129C315.503 124.105 314.827 124.867 313.944 125.414C313.069 125.961 312.062 126.234 310.921 126.234C309.202 126.234 307.808 125.637 306.737 124.441C305.675 123.246 305.144 121.664 305.144 119.695V119.543ZM307.323 119.801C307.323 121.207 307.648 122.336 308.296 123.188C308.952 124.039 309.827 124.465 310.921 124.465C312.023 124.465 312.898 124.035 313.546 123.176C314.194 122.309 314.519 121.098 314.519 119.543C314.519 118.152 314.187 117.027 313.523 116.168C312.866 115.301 311.991 114.867 310.898 114.867C309.827 114.867 308.964 115.293 308.308 116.145C307.652 116.996 307.323 118.215 307.323 119.801ZM321.689 113.32L321.759 114.914C322.728 113.695 323.994 113.086 325.556 113.086C328.236 113.086 329.587 114.598 329.611 117.621V126H327.443V117.609C327.435 116.695 327.224 116.02 326.81 115.582C326.404 115.145 325.767 114.926 324.9 114.926C324.197 114.926 323.58 115.113 323.048 115.488C322.517 115.863 322.103 116.355 321.806 116.965V126H319.638V113.32H321.689ZM338.199 124.465C338.973 124.465 339.648 124.23 340.227 123.762C340.805 123.293 341.125 122.707 341.188 122.004H343.238C343.199 122.73 342.949 123.422 342.488 124.078C342.027 124.734 341.41 125.258 340.637 125.648C339.871 126.039 339.059 126.234 338.199 126.234C336.473 126.234 335.098 125.66 334.074 124.512C333.059 123.355 332.551 121.777 332.551 119.777V119.414C332.551 118.18 332.777 117.082 333.23 116.121C333.684 115.16 334.332 114.414 335.176 113.883C336.027 113.352 337.031 113.086 338.188 113.086C339.609 113.086 340.789 113.512 341.727 114.363C342.672 115.215 343.176 116.32 343.238 117.68H341.188C341.125 116.859 340.812 116.188 340.25 115.664C339.695 115.133 339.008 114.867 338.188 114.867C337.086 114.867 336.23 115.266 335.621 116.062C335.02 116.852 334.719 117.996 334.719 119.496V119.906C334.719 121.367 335.02 122.492 335.621 123.281C336.223 124.07 337.082 124.465 338.199 124.465ZM351.17 126.234C349.452 126.234 348.053 125.672 346.975 124.547C345.897 123.414 345.358 121.902 345.358 120.012V119.613C345.358 118.355 345.596 117.234 346.073 116.25C346.557 115.258 347.229 114.484 348.088 113.93C348.955 113.367 349.893 113.086 350.901 113.086C352.549 113.086 353.83 113.629 354.745 114.715C355.659 115.801 356.116 117.355 356.116 119.379V120.281H347.526C347.557 121.531 347.92 122.543 348.616 123.316C349.319 124.082 350.209 124.465 351.288 124.465C352.053 124.465 352.702 124.309 353.233 123.996C353.764 123.684 354.229 123.27 354.627 122.754L355.952 123.785C354.889 125.418 353.295 126.234 351.17 126.234ZM350.901 114.867C350.026 114.867 349.291 115.188 348.698 115.828C348.104 116.461 347.737 117.352 347.596 118.5H353.948V118.336C353.885 117.234 353.588 116.383 353.057 115.781C352.526 115.172 351.807 114.867 350.901 114.867ZM369.579 119.801C369.579 121.73 369.138 123.285 368.255 124.465C367.372 125.645 366.177 126.234 364.669 126.234C363.13 126.234 361.919 125.746 361.036 124.77V130.875H358.868V113.32H360.848L360.954 114.727C361.837 113.633 363.063 113.086 364.634 113.086C366.157 113.086 367.36 113.66 368.243 114.809C369.134 115.957 369.579 117.555 369.579 119.602V119.801ZM367.411 119.555C367.411 118.125 367.106 116.996 366.497 116.168C365.888 115.34 365.052 114.926 363.989 114.926C362.677 114.926 361.692 115.508 361.036 116.672V122.73C361.684 123.887 362.677 124.465 364.013 124.465C365.052 124.465 365.876 124.055 366.485 123.234C367.102 122.406 367.411 121.18 367.411 119.555ZM375.519 110.25V113.32H377.886V114.996H375.519V122.859C375.519 123.367 375.624 123.75 375.835 124.008C376.046 124.258 376.406 124.383 376.913 124.383C377.163 124.383 377.507 124.336 377.945 124.242V126C377.374 126.156 376.82 126.234 376.281 126.234C375.312 126.234 374.581 125.941 374.089 125.355C373.597 124.77 373.351 123.938 373.351 122.859V114.996H371.042V113.32H373.351V110.25H375.519Z" fill="black"/>
<rect x="644.5" y="51.5" width="194" height="104" rx="7.5" fill="white" stroke="#CAD4DB" stroke-width="5"/>
<path d="M682.739 93.9375V105.539C682.731 107.148 682.223 108.465 681.215 109.488C680.215 110.512 678.856 111.086 677.137 111.211L676.54 111.234C674.673 111.234 673.184 110.73 672.075 109.723C670.965 108.715 670.403 107.328 670.387 105.562V93.9375H672.614V105.492C672.614 106.727 672.954 107.688 673.633 108.375C674.313 109.055 675.282 109.395 676.54 109.395C677.813 109.395 678.786 109.055 679.458 108.375C680.137 107.695 680.477 106.738 680.477 105.504V93.9375H682.739ZM693.566 107.637C693.566 107.051 693.343 106.598 692.898 106.277C692.46 105.949 691.691 105.668 690.589 105.434C689.495 105.199 688.624 104.918 687.976 104.59C687.335 104.262 686.858 103.871 686.546 103.418C686.241 102.965 686.089 102.426 686.089 101.801C686.089 100.762 686.526 99.8828 687.401 99.1641C688.284 98.4453 689.409 98.0859 690.776 98.0859C692.214 98.0859 693.378 98.457 694.269 99.1992C695.167 99.9414 695.616 100.891 695.616 102.047H693.437C693.437 101.453 693.183 100.941 692.675 100.512C692.175 100.082 691.542 99.8672 690.776 99.8672C689.987 99.8672 689.37 100.039 688.925 100.383C688.48 100.727 688.257 101.176 688.257 101.73C688.257 102.254 688.464 102.648 688.878 102.914C689.292 103.18 690.038 103.434 691.116 103.676C692.202 103.918 693.081 104.207 693.753 104.543C694.425 104.879 694.921 105.285 695.241 105.762C695.569 106.23 695.733 106.805 695.733 107.484C695.733 108.617 695.28 109.527 694.374 110.215C693.468 110.895 692.292 111.234 690.847 111.234C689.831 111.234 688.933 111.055 688.151 110.695C687.37 110.336 686.757 109.836 686.312 109.195C685.874 108.547 685.655 107.848 685.655 107.098H687.823C687.862 107.824 688.151 108.402 688.691 108.832C689.237 109.254 689.956 109.465 690.847 109.465C691.667 109.465 692.323 109.301 692.816 108.973C693.316 108.637 693.566 108.191 693.566 107.637ZM704.052 111.234C702.334 111.234 700.935 110.672 699.857 109.547C698.779 108.414 698.24 106.902 698.24 105.012V104.613C698.24 103.355 698.478 102.234 698.955 101.25C699.439 100.258 700.111 99.4844 700.97 98.9297C701.837 98.3672 702.775 98.0859 703.783 98.0859C705.431 98.0859 706.712 98.6289 707.626 99.7148C708.541 100.801 708.998 102.355 708.998 104.379V105.281H700.408C700.439 106.531 700.802 107.543 701.498 108.316C702.201 109.082 703.091 109.465 704.169 109.465C704.935 109.465 705.584 109.309 706.115 108.996C706.646 108.684 707.111 108.27 707.509 107.754L708.834 108.785C707.771 110.418 706.177 111.234 704.052 111.234ZM703.783 99.8672C702.908 99.8672 702.173 100.188 701.58 100.828C700.986 101.461 700.619 102.352 700.478 103.5H706.83V103.336C706.767 102.234 706.47 101.383 705.939 100.781C705.408 100.172 704.689 99.8672 703.783 99.8672ZM717.879 100.266C717.551 100.211 717.195 100.184 716.812 100.184C715.391 100.184 714.426 100.789 713.918 102V111H711.75V98.3203H713.859L713.894 99.7852C714.605 98.6523 715.613 98.0859 716.918 98.0859C717.34 98.0859 717.66 98.1406 717.879 98.25V100.266ZM728.891 104.32V111H726.641V93.9375H732.934C734.802 93.9375 736.262 94.4141 737.317 95.3672C738.38 96.3203 738.911 97.582 738.911 99.1523C738.911 100.809 738.391 102.086 737.352 102.984C736.321 103.875 734.841 104.32 732.911 104.32H728.891ZM728.891 102.48H732.934C734.137 102.48 735.059 102.199 735.7 101.637C736.341 101.066 736.661 100.246 736.661 99.1758C736.661 98.1602 736.341 97.3477 735.7 96.7383C735.059 96.1289 734.18 95.8125 733.063 95.7891H728.891V102.48ZM746.773 111.234C745.054 111.234 743.655 110.672 742.577 109.547C741.499 108.414 740.96 106.902 740.96 105.012V104.613C740.96 103.355 741.198 102.234 741.675 101.25C742.159 100.258 742.831 99.4844 743.691 98.9297C744.558 98.3672 745.495 98.0859 746.503 98.0859C748.152 98.0859 749.433 98.6289 750.347 99.7148C751.261 100.801 751.718 102.355 751.718 104.379V105.281H743.128C743.159 106.531 743.523 107.543 744.218 108.316C744.921 109.082 745.812 109.465 746.89 109.465C747.655 109.465 748.304 109.309 748.835 108.996C749.366 108.684 749.831 108.27 750.23 107.754L751.554 108.785C750.491 110.418 748.898 111.234 746.773 111.234ZM746.503 99.8672C745.628 99.8672 744.894 100.188 744.3 100.828C743.706 101.461 743.339 102.352 743.198 103.5H749.55V103.336C749.488 102.234 749.191 101.383 748.659 100.781C748.128 100.172 747.409 99.8672 746.503 99.8672ZM760.599 100.266C760.271 100.211 759.916 100.184 759.533 100.184C758.111 100.184 757.146 100.789 756.638 102V111H754.47V98.3203H756.58L756.615 99.7852C757.326 98.6523 758.334 98.0859 759.638 98.0859C760.06 98.0859 760.381 98.1406 760.599 98.25V100.266ZM770.219 107.637C770.219 107.051 769.996 106.598 769.551 106.277C769.113 105.949 768.344 105.668 767.242 105.434C766.148 105.199 765.277 104.918 764.629 104.59C763.988 104.262 763.512 103.871 763.199 103.418C762.895 102.965 762.742 102.426 762.742 101.801C762.742 100.762 763.18 99.8828 764.055 99.1641C764.938 98.4453 766.063 98.0859 767.43 98.0859C768.867 98.0859 770.031 98.457 770.922 99.1992C771.82 99.9414 772.27 100.891 772.27 102.047H770.09C770.09 101.453 769.836 100.941 769.328 100.512C768.828 100.082 768.195 99.8672 767.43 99.8672C766.641 99.8672 766.023 100.039 765.578 100.383C765.133 100.727 764.91 101.176 764.91 101.73C764.91 102.254 765.117 102.648 765.531 102.914C765.945 103.18 766.691 103.434 767.77 103.676C768.856 103.918 769.734 104.207 770.406 104.543C771.078 104.879 771.574 105.285 771.895 105.762C772.223 106.23 772.387 106.805 772.387 107.484C772.387 108.617 771.934 109.527 771.027 110.215C770.121 110.895 768.945 111.234 767.5 111.234C766.484 111.234 765.586 111.055 764.805 110.695C764.023 110.336 763.41 109.836 762.965 109.195C762.527 108.547 762.309 107.848 762.309 107.098H764.477C764.516 107.824 764.805 108.402 765.344 108.832C765.891 109.254 766.609 109.465 767.5 109.465C768.32 109.465 768.977 109.301 769.469 108.973C769.969 108.637 770.219 108.191 770.219 107.637ZM774.87 104.543C774.87 103.301 775.112 102.184 775.596 101.191C776.088 100.199 776.768 99.4336 777.635 98.8945C778.51 98.3555 779.506 98.0859 780.624 98.0859C782.35 98.0859 783.745 98.6836 784.807 99.8789C785.877 101.074 786.413 102.664 786.413 104.648V104.801C786.413 106.035 786.174 107.145 785.698 108.129C785.229 109.105 784.553 109.867 783.67 110.414C782.795 110.961 781.788 111.234 780.647 111.234C778.928 111.234 777.534 110.637 776.463 109.441C775.401 108.246 774.87 106.664 774.87 104.695V104.543ZM777.049 104.801C777.049 106.207 777.374 107.336 778.022 108.188C778.678 109.039 779.553 109.465 780.647 109.465C781.749 109.465 782.624 109.035 783.272 108.176C783.92 107.309 784.245 106.098 784.245 104.543C784.245 103.152 783.913 102.027 783.249 101.168C782.592 100.301 781.717 99.8672 780.624 99.8672C779.553 99.8672 778.69 100.293 778.034 101.145C777.377 101.996 777.049 103.215 777.049 104.801ZM791.415 98.3203L791.485 99.9141C792.454 98.6953 793.72 98.0859 795.282 98.0859C797.962 98.0859 799.313 99.5977 799.337 102.621V111H797.169V102.609C797.161 101.695 796.95 101.02 796.536 100.582C796.13 100.145 795.493 99.9258 794.626 99.9258C793.923 99.9258 793.306 100.113 792.774 100.488C792.243 100.863 791.829 101.355 791.532 101.965V111H789.364V98.3203H791.415ZM810.667 111C810.542 110.75 810.441 110.305 810.363 109.664C809.355 110.711 808.152 111.234 806.753 111.234C805.503 111.234 804.476 110.883 803.671 110.18C802.874 109.469 802.476 108.57 802.476 107.484C802.476 106.164 802.976 105.141 803.976 104.414C804.984 103.68 806.398 103.312 808.218 103.312H810.327V102.316C810.327 101.559 810.101 100.957 809.648 100.512C809.195 100.059 808.527 99.832 807.644 99.832C806.87 99.832 806.222 100.027 805.699 100.418C805.175 100.809 804.913 101.281 804.913 101.836H802.734C802.734 101.203 802.956 100.594 803.402 100.008C803.855 99.4141 804.464 98.9453 805.23 98.6016C806.003 98.2578 806.851 98.0859 807.773 98.0859C809.234 98.0859 810.378 98.4531 811.206 99.1875C812.035 99.9141 812.464 100.918 812.495 102.199V108.035C812.495 109.199 812.644 110.125 812.941 110.812V111H810.667ZM807.07 109.348C807.749 109.348 808.394 109.172 809.003 108.82C809.613 108.469 810.054 108.012 810.327 107.449V104.848H808.628C805.972 104.848 804.644 105.625 804.644 107.18C804.644 107.859 804.87 108.391 805.324 108.773C805.777 109.156 806.359 109.348 807.07 109.348Z" fill="black"/>
<rect x="238.5" y="266.5" width="194" height="104" rx="7.5" fill="white" stroke="#CAD4DB" stroke-width="5"/>
<path d="M281.496 318.395C279.566 317.84 278.16 317.16 277.277 316.355C276.402 315.543 275.965 314.543 275.965 313.355C275.965 312.012 276.5 310.902 277.57 310.027C278.648 309.145 280.047 308.703 281.766 308.703C282.937 308.703 283.98 308.93 284.894 309.383C285.816 309.836 286.527 310.461 287.027 311.258C287.535 312.055 287.789 312.926 287.789 313.871H285.527C285.527 312.84 285.199 312.031 284.543 311.445C283.887 310.852 282.961 310.555 281.766 310.555C280.656 310.555 279.789 310.801 279.164 311.293C278.547 311.777 278.238 312.453 278.238 313.32C278.238 314.016 278.531 314.605 279.117 315.09C279.711 315.566 280.715 316.004 282.129 316.402C283.551 316.801 284.66 317.242 285.457 317.727C286.262 318.203 286.855 318.762 287.238 319.402C287.629 320.043 287.824 320.797 287.824 321.664C287.824 323.047 287.285 324.156 286.207 324.992C285.129 325.82 283.687 326.234 281.883 326.234C280.711 326.234 279.617 326.012 278.601 325.566C277.586 325.113 276.801 324.496 276.246 323.715C275.699 322.934 275.426 322.047 275.426 321.055H277.687C277.687 322.086 278.066 322.902 278.824 323.504C279.59 324.098 280.609 324.395 281.883 324.395C283.07 324.395 283.98 324.152 284.613 323.668C285.246 323.184 285.562 322.523 285.562 321.688C285.562 320.852 285.269 320.207 284.683 319.754C284.098 319.293 283.035 318.84 281.496 318.395ZM293.553 310.25V313.32H295.92V314.996H293.553V322.859C293.553 323.367 293.659 323.75 293.869 324.008C294.08 324.258 294.44 324.383 294.948 324.383C295.198 324.383 295.541 324.336 295.979 324.242V326C295.409 326.156 294.854 326.234 294.315 326.234C293.346 326.234 292.616 325.941 292.123 325.355C291.631 324.77 291.385 323.938 291.385 322.859V314.996H289.076V313.32H291.385V310.25H293.553ZM302.844 322.824L305.798 313.32H308.118L303.02 327.957C302.231 330.066 300.977 331.121 299.259 331.121L298.848 331.086L298.04 330.934V329.176L298.626 329.223C299.36 329.223 299.93 329.074 300.337 328.777C300.751 328.48 301.091 327.938 301.356 327.148L301.837 325.859L297.313 313.32H299.68L302.844 322.824ZM312.652 326H310.484V308H312.652V326ZM321.627 326.234C319.908 326.234 318.509 325.672 317.431 324.547C316.353 323.414 315.814 321.902 315.814 320.012V319.613C315.814 318.355 316.052 317.234 316.529 316.25C317.013 315.258 317.685 314.484 318.545 313.93C319.412 313.367 320.349 313.086 321.357 313.086C323.005 313.086 324.287 313.629 325.201 314.715C326.115 315.801 326.572 317.355 326.572 319.379V320.281H317.982C318.013 321.531 318.377 322.543 319.072 323.316C319.775 324.082 320.666 324.465 321.744 324.465C322.509 324.465 323.158 324.309 323.689 323.996C324.22 323.684 324.685 323.27 325.084 322.754L326.408 323.785C325.345 325.418 323.752 326.234 321.627 326.234ZM321.357 314.867C320.482 314.867 319.748 315.188 319.154 315.828C318.56 316.461 318.193 317.352 318.052 318.5H324.404V318.336C324.341 317.234 324.045 316.383 323.513 315.781C322.982 315.172 322.263 314.867 321.357 314.867ZM348.448 323.762C347.87 324.59 347.061 325.211 346.022 325.625C344.991 326.031 343.788 326.234 342.413 326.234C341.022 326.234 339.788 325.91 338.709 325.262C337.631 324.605 336.795 323.676 336.202 322.473C335.616 321.27 335.315 319.875 335.299 318.289V316.801C335.299 314.23 335.897 312.238 337.092 310.824C338.295 309.41 339.983 308.703 342.155 308.703C343.936 308.703 345.37 309.16 346.455 310.074C347.541 310.98 348.205 312.27 348.448 313.941H346.198C345.776 311.684 344.432 310.555 342.166 310.555C340.659 310.555 339.514 311.086 338.733 312.148C337.959 313.203 337.569 314.734 337.561 316.742V318.137C337.561 320.051 337.998 321.574 338.873 322.707C339.748 323.832 340.932 324.395 342.424 324.395C343.268 324.395 344.006 324.301 344.639 324.113C345.272 323.926 345.795 323.609 346.209 323.164V319.332H342.26V317.504H348.448V323.762ZM359.931 324.746C359.087 325.738 357.848 326.234 356.216 326.234C354.864 326.234 353.833 325.844 353.122 325.062C352.419 324.273 352.063 323.109 352.056 321.57V313.32H354.223V321.512C354.223 323.434 355.005 324.395 356.567 324.395C358.223 324.395 359.325 323.777 359.872 322.543V313.32H362.04V326H359.977L359.931 324.746ZM367.933 326H365.765V313.32H367.933V326ZM365.589 309.957C365.589 309.605 365.695 309.309 365.906 309.066C366.124 308.824 366.445 308.703 366.866 308.703C367.288 308.703 367.609 308.824 367.827 309.066C368.046 309.309 368.156 309.605 368.156 309.957C368.156 310.309 368.046 310.602 367.827 310.836C367.609 311.07 367.288 311.188 366.866 311.188C366.445 311.188 366.124 311.07 365.906 310.836C365.695 310.602 365.589 310.309 365.589 309.957ZM371.119 319.555C371.119 317.609 371.58 316.047 372.502 314.867C373.424 313.68 374.631 313.086 376.123 313.086C377.607 313.086 378.783 313.594 379.65 314.609V308H381.818V326H379.826L379.72 324.641C378.853 325.703 377.646 326.234 376.099 326.234C374.631 326.234 373.431 325.633 372.502 324.43C371.58 323.227 371.119 321.656 371.119 319.719V319.555ZM373.287 319.801C373.287 321.238 373.584 322.363 374.177 323.176C374.771 323.988 375.592 324.395 376.638 324.395C378.013 324.395 379.017 323.777 379.65 322.543V316.719C379.002 315.523 378.006 314.926 376.662 314.926C375.599 314.926 374.771 315.336 374.177 316.156C373.584 316.977 373.287 318.191 373.287 319.801ZM390.688 326.234C388.969 326.234 387.57 325.672 386.492 324.547C385.414 323.414 384.875 321.902 384.875 320.012V319.613C384.875 318.355 385.113 317.234 385.59 316.25C386.074 315.258 386.746 314.484 387.606 313.93C388.473 313.367 389.41 313.086 390.418 313.086C392.067 313.086 393.348 313.629 394.262 314.715C395.176 315.801 395.633 317.355 395.633 319.379V320.281H387.043C387.074 321.531 387.438 322.543 388.133 323.316C388.836 324.082 389.727 324.465 390.805 324.465C391.57 324.465 392.219 324.309 392.75 323.996C393.281 323.684 393.746 323.27 394.145 322.754L395.469 323.785C394.406 325.418 392.813 326.234 390.688 326.234ZM390.418 314.867C389.543 314.867 388.809 315.188 388.215 315.828C387.621 316.461 387.254 317.352 387.113 318.5H393.465V318.336C393.402 317.234 393.106 316.383 392.574 315.781C392.043 315.172 391.324 314.867 390.418 314.867Z" fill="black"/>
<rect x="470.5" y="474.5" width="194" height="104" rx="7.5" fill="white" stroke="#CAD4DB" stroke-width="5"/>
<path d="M527.361 516.938V528.539C527.353 530.148 526.845 531.465 525.837 532.488C524.837 533.512 523.478 534.086 521.759 534.211L521.162 534.234C519.294 534.234 517.806 533.73 516.697 532.723C515.587 531.715 515.025 530.328 515.009 528.562V516.938H517.236V528.492C517.236 529.727 517.576 530.688 518.255 531.375C518.935 532.055 519.904 532.395 521.162 532.395C522.435 532.395 523.408 532.055 524.08 531.375C524.759 530.695 525.099 529.738 525.099 528.504V516.938H527.361ZM538.187 530.637C538.187 530.051 537.965 529.598 537.519 529.277C537.082 528.949 536.312 528.668 535.211 528.434C534.117 528.199 533.246 527.918 532.598 527.59C531.957 527.262 531.48 526.871 531.168 526.418C530.863 525.965 530.711 525.426 530.711 524.801C530.711 523.762 531.148 522.883 532.023 522.164C532.906 521.445 534.031 521.086 535.398 521.086C536.836 521.086 538 521.457 538.891 522.199C539.789 522.941 540.238 523.891 540.238 525.047H538.059C538.059 524.453 537.805 523.941 537.297 523.512C536.797 523.082 536.164 522.867 535.398 522.867C534.609 522.867 533.992 523.039 533.547 523.383C533.102 523.727 532.879 524.176 532.879 524.73C532.879 525.254 533.086 525.648 533.5 525.914C533.914 526.18 534.66 526.434 535.738 526.676C536.824 526.918 537.703 527.207 538.375 527.543C539.047 527.879 539.543 528.285 539.863 528.762C540.191 529.23 540.355 529.805 540.355 530.484C540.355 531.617 539.902 532.527 538.996 533.215C538.09 533.895 536.914 534.234 535.469 534.234C534.453 534.234 533.555 534.055 532.773 533.695C531.992 533.336 531.379 532.836 530.934 532.195C530.496 531.547 530.277 530.848 530.277 530.098H532.445C532.484 530.824 532.773 531.402 533.312 531.832C533.859 532.254 534.578 532.465 535.469 532.465C536.289 532.465 536.945 532.301 537.437 531.973C537.937 531.637 538.187 531.191 538.187 530.637ZM548.674 534.234C546.955 534.234 545.557 533.672 544.479 532.547C543.401 531.414 542.862 529.902 542.862 528.012V527.613C542.862 526.355 543.1 525.234 543.577 524.25C544.061 523.258 544.733 522.484 545.592 521.93C546.459 521.367 547.397 521.086 548.405 521.086C550.053 521.086 551.334 521.629 552.248 522.715C553.162 523.801 553.619 525.355 553.619 527.379V528.281H545.03C545.061 529.531 545.424 530.543 546.119 531.316C546.823 532.082 547.713 532.465 548.791 532.465C549.557 532.465 550.205 532.309 550.737 531.996C551.268 531.684 551.733 531.27 552.131 530.754L553.455 531.785C552.393 533.418 550.799 534.234 548.674 534.234ZM548.405 522.867C547.53 522.867 546.795 523.188 546.202 523.828C545.608 524.461 545.241 525.352 545.1 526.5H551.452V526.336C551.389 525.234 551.092 524.383 550.561 523.781C550.03 523.172 549.311 522.867 548.405 522.867ZM562.501 523.266C562.173 523.211 561.817 523.184 561.434 523.184C560.012 523.184 559.048 523.789 558.54 525V534H556.372V521.32H558.481L558.516 522.785C559.227 521.652 560.235 521.086 561.54 521.086C561.962 521.086 562.282 521.141 562.501 521.25V523.266ZM574.488 526.465H567.327V534H565.077V516.938H575.648V518.789H567.327V524.625H574.488V526.465ZM580.591 534H578.423V516H580.591V534ZM583.731 527.543C583.731 526.301 583.973 525.184 584.457 524.191C584.949 523.199 585.629 522.434 586.496 521.895C587.371 521.355 588.367 521.086 589.484 521.086C591.211 521.086 592.606 521.684 593.668 522.879C594.738 524.074 595.273 525.664 595.273 527.648V527.801C595.273 529.035 595.035 530.145 594.559 531.129C594.09 532.105 593.414 532.867 592.531 533.414C591.656 533.961 590.648 534.234 589.508 534.234C587.789 534.234 586.395 533.637 585.324 532.441C584.262 531.246 583.731 529.664 583.731 527.695V527.543ZM585.91 527.801C585.91 529.207 586.234 530.336 586.883 531.188C587.539 532.039 588.414 532.465 589.508 532.465C590.609 532.465 591.484 532.035 592.133 531.176C592.781 530.309 593.106 529.098 593.106 527.543C593.106 526.152 592.773 525.027 592.109 524.168C591.453 523.301 590.578 522.867 589.484 522.867C588.414 522.867 587.551 523.293 586.895 524.145C586.238 524.996 585.91 526.215 585.91 527.801ZM609.452 531.012L611.889 521.32H614.057L610.366 534H608.608L605.526 524.391L602.526 534H600.768L597.088 521.32H599.245L601.741 530.812L604.694 521.32H606.44L609.452 531.012Z" fill="black"/>
<rect x="39.5" y="474.5" width="194" height="104" rx="7.5" fill="white" stroke="#CAD4DB" stroke-width="5"/>
<path d="M88.0726 527.32V534H85.8226V516.938H92.1155C93.9827 516.938 95.4437 517.414 96.4983 518.367C97.5608 519.32 98.0921 520.582 98.0921 522.152C98.0921 523.809 97.5726 525.086 96.5335 525.984C95.5023 526.875 94.0218 527.32 92.0921 527.32H88.0726ZM88.0726 525.48H92.1155C93.3187 525.48 94.2405 525.199 94.8812 524.637C95.5218 524.066 95.8421 523.246 95.8421 522.176C95.8421 521.16 95.5218 520.348 94.8812 519.738C94.2405 519.129 93.3616 518.812 92.2444 518.789H88.0726V525.48ZM106.985 523.266C106.657 523.211 106.301 523.184 105.919 523.184C104.497 523.184 103.532 523.789 103.024 525V534H100.856V521.32H102.966L103.001 522.785C103.712 521.652 104.719 521.086 106.024 521.086C106.446 521.086 106.766 521.141 106.985 521.25V523.266ZM108.413 527.543C108.413 526.301 108.655 525.184 109.14 524.191C109.632 523.199 110.312 522.434 111.179 521.895C112.054 521.355 113.05 521.086 114.167 521.086C115.894 521.086 117.288 521.684 118.351 522.879C119.421 524.074 119.956 525.664 119.956 527.648V527.801C119.956 529.035 119.718 530.145 119.241 531.129C118.773 532.105 118.097 532.867 117.214 533.414C116.339 533.961 115.331 534.234 114.191 534.234C112.472 534.234 111.077 533.637 110.007 532.441C108.944 531.246 108.413 529.664 108.413 527.695V527.543ZM110.593 527.801C110.593 529.207 110.917 530.336 111.566 531.188C112.222 532.039 113.097 532.465 114.191 532.465C115.292 532.465 116.167 532.035 116.816 531.176C117.464 530.309 117.788 529.098 117.788 527.543C117.788 526.152 117.456 525.027 116.792 524.168C116.136 523.301 115.261 522.867 114.167 522.867C113.097 522.867 112.234 523.293 111.577 524.145C110.921 524.996 110.593 526.215 110.593 527.801ZM125.849 518.25V521.32H128.216V522.996H125.849V530.859C125.849 531.367 125.955 531.75 126.166 532.008C126.377 532.258 126.736 532.383 127.244 532.383C127.494 532.383 127.837 532.336 128.275 532.242V534C127.705 534.156 127.15 534.234 126.611 534.234C125.642 534.234 124.912 533.941 124.42 533.355C123.927 532.77 123.681 531.938 123.681 530.859V522.996H121.373V521.32H123.681V518.25H125.849ZM130.184 527.543C130.184 526.301 130.426 525.184 130.91 524.191C131.402 523.199 132.082 522.434 132.949 521.895C133.824 521.355 134.82 521.086 135.938 521.086C137.664 521.086 139.059 521.684 140.121 522.879C141.191 524.074 141.727 525.664 141.727 527.648V527.801C141.727 529.035 141.488 530.145 141.012 531.129C140.543 532.105 139.867 532.867 138.984 533.414C138.109 533.961 137.102 534.234 135.961 534.234C134.242 534.234 132.848 533.637 131.777 532.441C130.715 531.246 130.184 529.664 130.184 527.695V527.543ZM132.363 527.801C132.363 529.207 132.688 530.336 133.336 531.188C133.992 532.039 134.867 532.465 135.961 532.465C137.062 532.465 137.938 532.035 138.586 531.176C139.234 530.309 139.559 529.098 139.559 527.543C139.559 526.152 139.227 525.027 138.562 524.168C137.906 523.301 137.031 522.867 135.938 522.867C134.867 522.867 134.004 523.293 133.348 524.145C132.691 524.996 132.363 526.215 132.363 527.801ZM147.62 518.25V521.32H149.987V522.996H147.62V530.859C147.62 531.367 147.725 531.75 147.936 532.008C148.147 532.258 148.506 532.383 149.014 532.383C149.264 532.383 149.608 532.336 150.045 532.242V534C149.475 534.156 148.92 534.234 148.381 534.234C147.413 534.234 146.682 533.941 146.19 533.355C145.698 532.77 145.452 531.938 145.452 530.859V522.996H143.143V521.32H145.452V518.25H147.62ZM156.911 530.824L159.864 521.32H162.184L157.087 535.957C156.298 538.066 155.044 539.121 153.325 539.121L152.915 539.086L152.106 538.934V537.176L152.692 537.223C153.427 537.223 153.997 537.074 154.403 536.777C154.817 536.48 155.157 535.938 155.423 535.148L155.903 533.859L151.38 521.32H153.747L156.911 530.824ZM175.074 527.801C175.074 529.73 174.632 531.285 173.749 532.465C172.866 533.645 171.671 534.234 170.163 534.234C168.624 534.234 167.413 533.746 166.531 532.77V538.875H164.363V521.32H166.343L166.449 522.727C167.331 521.633 168.558 521.086 170.128 521.086C171.652 521.086 172.855 521.66 173.738 522.809C174.628 523.957 175.074 525.555 175.074 527.602V527.801ZM172.906 527.555C172.906 526.125 172.601 524.996 171.991 524.168C171.382 523.34 170.546 522.926 169.484 522.926C168.171 522.926 167.187 523.508 166.531 524.672V530.73C167.179 531.887 168.171 532.465 169.507 532.465C170.546 532.465 171.37 532.055 171.98 531.234C172.597 530.406 172.906 529.18 172.906 527.555ZM183.334 534.234C181.615 534.234 180.216 533.672 179.138 532.547C178.06 531.414 177.521 529.902 177.521 528.012V527.613C177.521 526.355 177.759 525.234 178.236 524.25C178.72 523.258 179.392 522.484 180.252 521.93C181.119 521.367 182.056 521.086 183.064 521.086C184.713 521.086 185.994 521.629 186.908 522.715C187.822 523.801 188.279 525.355 188.279 527.379V528.281H179.689C179.72 529.531 180.084 530.543 180.779 531.316C181.482 532.082 182.373 532.465 183.451 532.465C184.216 532.465 184.865 532.309 185.396 531.996C185.927 531.684 186.392 531.27 186.791 530.754L188.115 531.785C187.052 533.418 185.459 534.234 183.334 534.234ZM183.064 522.867C182.189 522.867 181.455 523.188 180.861 523.828C180.267 524.461 179.9 525.352 179.759 526.5H186.111V526.336C186.049 525.234 185.752 524.383 185.22 523.781C184.689 523.172 183.97 522.867 183.064 522.867Z" fill="black"/>
<rect x="895.5" y="474.5" width="194" height="104" rx="7.5" fill="white" stroke="#CAD4DB" stroke-width="5"/>
<path d="M950.343 526.395C948.413 525.84 947.007 525.16 946.124 524.355C945.249 523.543 944.812 522.543 944.812 521.355C944.812 520.012 945.347 518.902 946.417 518.027C947.495 517.145 948.894 516.703 950.612 516.703C951.784 516.703 952.827 516.93 953.741 517.383C954.663 517.836 955.374 518.461 955.874 519.258C956.382 520.055 956.636 520.926 956.636 521.871H954.374C954.374 520.84 954.046 520.031 953.39 519.445C952.733 518.852 951.808 518.555 950.612 518.555C949.503 518.555 948.636 518.801 948.011 519.293C947.394 519.777 947.085 520.453 947.085 521.32C947.085 522.016 947.378 522.605 947.964 523.09C948.558 523.566 949.562 524.004 950.976 524.402C952.398 524.801 953.507 525.242 954.304 525.727C955.108 526.203 955.702 526.762 956.085 527.402C956.476 528.043 956.671 528.797 956.671 529.664C956.671 531.047 956.132 532.156 955.054 532.992C953.976 533.82 952.534 534.234 950.73 534.234C949.558 534.234 948.464 534.012 947.448 533.566C946.433 533.113 945.648 532.496 945.093 531.715C944.546 530.934 944.273 530.047 944.273 529.055H946.534C946.534 530.086 946.913 530.902 947.671 531.504C948.437 532.098 949.456 532.395 950.73 532.395C951.917 532.395 952.827 532.152 953.46 531.668C954.093 531.184 954.409 530.523 954.409 529.688C954.409 528.852 954.116 528.207 953.53 527.754C952.944 527.293 951.882 526.84 950.343 526.395ZM962.4 518.25V521.32H964.767V522.996H962.4V530.859C962.4 531.367 962.505 531.75 962.716 532.008C962.927 532.258 963.287 532.383 963.794 532.383C964.044 532.383 964.388 532.336 964.826 532.242V534C964.255 534.156 963.701 534.234 963.162 534.234C962.193 534.234 961.462 533.941 960.97 533.355C960.478 532.77 960.232 531.938 960.232 530.859V522.996H957.923V521.32H960.232V518.25H962.4ZM971.691 530.824L974.644 521.32H976.965L971.867 535.957C971.078 538.066 969.824 539.121 968.105 539.121L967.695 539.086L966.887 538.934V537.176L967.473 537.223C968.207 537.223 968.777 537.074 969.184 536.777C969.598 536.48 969.937 535.938 970.203 535.148L970.684 533.859L966.16 521.32H968.527L971.691 530.824ZM981.498 534H979.33V516H981.498V534ZM990.473 534.234C988.755 534.234 987.356 533.672 986.278 532.547C985.2 531.414 984.661 529.902 984.661 528.012V527.613C984.661 526.355 984.899 525.234 985.376 524.25C985.86 523.258 986.532 522.484 987.391 521.93C988.259 521.367 989.196 521.086 990.204 521.086C991.852 521.086 993.134 521.629 994.048 522.715C994.962 523.801 995.419 525.355 995.419 527.379V528.281H986.829C986.86 529.531 987.223 530.543 987.919 531.316C988.622 532.082 989.512 532.465 990.591 532.465C991.356 532.465 992.005 532.309 992.536 531.996C993.067 531.684 993.532 531.27 993.93 530.754L995.255 531.785C994.192 533.418 992.598 534.234 990.473 534.234ZM990.204 522.867C989.329 522.867 988.595 523.188 988.001 523.828C987.407 524.461 987.04 525.352 986.899 526.5H993.251V526.336C993.188 525.234 992.891 524.383 992.36 523.781C991.829 523.172 991.11 522.867 990.204 522.867ZM1016.02 518.789H1010.53V534H1008.29V518.789H1002.82V516.938H1016.02V518.789ZM1020.8 534H1018.63V521.32H1020.8V534ZM1018.45 517.957C1018.45 517.605 1018.56 517.309 1018.77 517.066C1018.99 516.824 1019.31 516.703 1019.73 516.703C1020.15 516.703 1020.47 516.824 1020.69 517.066C1020.91 517.309 1021.02 517.605 1021.02 517.957C1021.02 518.309 1020.91 518.602 1020.69 518.836C1020.47 519.07 1020.15 519.188 1019.73 519.188C1019.31 519.188 1018.99 519.07 1018.77 518.836C1018.56 518.602 1018.45 518.309 1018.45 517.957ZM1026.87 534H1024.7V516H1026.87V534ZM1035.84 534.234C1034.12 534.234 1032.72 533.672 1031.65 532.547C1030.57 531.414 1030.03 529.902 1030.03 528.012V527.613C1030.03 526.355 1030.27 525.234 1030.74 524.25C1031.23 523.258 1031.9 522.484 1032.76 521.93C1033.63 521.367 1034.56 521.086 1035.57 521.086C1037.22 521.086 1038.5 521.629 1039.41 522.715C1040.33 523.801 1040.79 525.355 1040.79 527.379V528.281H1032.2C1032.23 529.531 1032.59 530.543 1033.29 531.316C1033.99 532.082 1034.88 532.465 1035.96 532.465C1036.72 532.465 1037.37 532.309 1037.9 531.996C1038.43 531.684 1038.9 531.27 1039.3 530.754L1040.62 531.785C1039.56 533.418 1037.97 534.234 1035.84 534.234ZM1035.57 522.867C1034.7 522.867 1033.96 523.188 1033.37 523.828C1032.77 524.461 1032.41 525.352 1032.27 526.5H1038.62V526.336C1038.56 525.234 1038.26 524.383 1037.73 523.781C1037.2 523.172 1036.48 522.867 1035.57 522.867Z" fill="black"/>
<rect x="1273.5" y="276.5" width="194" height="104" rx="7.5" fill="white" stroke="#CAD4DB" stroke-width="5"/>
<path d="M1288.63 333.012L1293.5 318.938H1295.96L1289.64 336H1287.64L1281.33 318.938H1283.78L1288.63 333.012ZM1300.51 336H1298.34V323.32H1300.51V336ZM1298.17 319.957C1298.17 319.605 1298.27 319.309 1298.48 319.066C1298.7 318.824 1299.02 318.703 1299.44 318.703C1299.87 318.703 1300.19 318.824 1300.4 319.066C1300.62 319.309 1300.73 319.605 1300.73 319.957C1300.73 320.309 1300.62 320.602 1300.4 320.836C1300.19 321.07 1299.87 321.188 1299.44 321.188C1299.02 321.188 1298.7 321.07 1298.48 320.836C1298.27 320.602 1298.17 320.309 1298.17 319.957ZM1311.61 332.637C1311.61 332.051 1311.38 331.598 1310.94 331.277C1310.5 330.949 1309.73 330.668 1308.63 330.434C1307.54 330.199 1306.66 329.918 1306.02 329.59C1305.38 329.262 1304.9 328.871 1304.59 328.418C1304.28 327.965 1304.13 327.426 1304.13 326.801C1304.13 325.762 1304.57 324.883 1305.44 324.164C1306.33 323.445 1307.45 323.086 1308.82 323.086C1310.25 323.086 1311.42 323.457 1312.31 324.199C1313.21 324.941 1313.66 325.891 1313.66 327.047H1311.48C1311.48 326.453 1311.22 325.941 1310.72 325.512C1310.22 325.082 1309.58 324.867 1308.82 324.867C1308.03 324.867 1307.41 325.039 1306.97 325.383C1306.52 325.727 1306.3 326.176 1306.3 326.73C1306.3 327.254 1306.5 327.648 1306.92 327.914C1307.33 328.18 1308.08 328.434 1309.16 328.676C1310.24 328.918 1311.12 329.207 1311.79 329.543C1312.47 329.879 1312.96 330.285 1313.28 330.762C1313.61 331.23 1313.77 331.805 1313.77 332.484C1313.77 333.617 1313.32 334.527 1312.41 335.215C1311.51 335.895 1310.33 336.234 1308.89 336.234C1307.87 336.234 1306.97 336.055 1306.19 335.695C1305.41 335.336 1304.8 334.836 1304.35 334.195C1303.91 333.547 1303.7 332.848 1303.7 332.098H1305.86C1305.9 332.824 1306.19 333.402 1306.73 333.832C1307.28 334.254 1308 334.465 1308.89 334.465C1309.71 334.465 1310.36 334.301 1310.86 333.973C1311.36 333.637 1311.61 333.191 1311.61 332.637ZM1324.66 334.746C1323.82 335.738 1322.58 336.234 1320.94 336.234C1319.59 336.234 1318.56 335.844 1317.85 335.062C1317.15 334.273 1316.79 333.109 1316.78 331.57V323.32H1318.95V331.512C1318.95 333.434 1319.73 334.395 1321.3 334.395C1322.95 334.395 1324.05 333.777 1324.6 332.543V323.32H1326.77V336H1324.71L1324.66 334.746ZM1338.13 336C1338.01 335.75 1337.91 335.305 1337.83 334.664C1336.82 335.711 1335.62 336.234 1334.22 336.234C1332.97 336.234 1331.94 335.883 1331.14 335.18C1330.34 334.469 1329.94 333.57 1329.94 332.484C1329.94 331.164 1330.44 330.141 1331.44 329.414C1332.45 328.68 1333.86 328.312 1335.69 328.312H1337.79V327.316C1337.79 326.559 1337.57 325.957 1337.11 325.512C1336.66 325.059 1335.99 324.832 1335.11 324.832C1334.34 324.832 1333.69 325.027 1333.17 325.418C1332.64 325.809 1332.38 326.281 1332.38 326.836H1330.2C1330.2 326.203 1330.42 325.594 1330.87 325.008C1331.32 324.414 1331.93 323.945 1332.7 323.602C1333.47 323.258 1334.32 323.086 1335.24 323.086C1336.7 323.086 1337.85 323.453 1338.67 324.188C1339.5 324.914 1339.93 325.918 1339.96 327.199V333.035C1339.96 334.199 1340.11 335.125 1340.41 335.812V336H1338.13ZM1334.54 334.348C1335.22 334.348 1335.86 334.172 1336.47 333.82C1337.08 333.469 1337.52 333.012 1337.79 332.449V329.848H1336.1C1333.44 329.848 1332.11 330.625 1332.11 332.18C1332.11 332.859 1332.34 333.391 1332.79 333.773C1333.24 334.156 1333.83 334.348 1334.54 334.348ZM1345.95 336H1343.78V318H1345.95V336ZM1358.45 334.16H1366.54V336H1356.19V318.938H1358.45V334.16ZM1376.82 336C1376.7 335.75 1376.6 335.305 1376.52 334.664C1375.51 335.711 1374.31 336.234 1372.91 336.234C1371.66 336.234 1370.63 335.883 1369.83 335.18C1369.03 334.469 1368.63 333.57 1368.63 332.484C1368.63 331.164 1369.13 330.141 1370.13 329.414C1371.14 328.68 1372.55 328.312 1374.37 328.312H1376.48V327.316C1376.48 326.559 1376.26 325.957 1375.8 325.512C1375.35 325.059 1374.68 324.832 1373.8 324.832C1373.03 324.832 1372.38 325.027 1371.85 325.418C1371.33 325.809 1371.07 326.281 1371.07 326.836H1368.89C1368.89 326.203 1369.11 325.594 1369.56 325.008C1370.01 324.414 1370.62 323.945 1371.39 323.602C1372.16 323.258 1373.01 323.086 1373.93 323.086C1375.39 323.086 1376.53 323.453 1377.36 324.188C1378.19 324.914 1378.62 325.918 1378.65 327.199V333.035C1378.65 334.199 1378.8 335.125 1379.1 335.812V336H1376.82ZM1373.23 334.348C1373.91 334.348 1374.55 334.172 1375.16 333.82C1375.77 333.469 1376.21 333.012 1376.48 332.449V329.848H1374.78C1372.13 329.848 1370.8 330.625 1370.8 332.18C1370.8 332.859 1371.03 333.391 1371.48 333.773C1371.93 334.156 1372.52 334.348 1373.23 334.348ZM1384.33 323.32L1384.4 324.914C1385.37 323.695 1386.64 323.086 1388.2 323.086C1390.88 323.086 1392.23 324.598 1392.26 327.621V336H1390.09V327.609C1390.08 326.695 1389.87 326.02 1389.45 325.582C1389.05 325.145 1388.41 324.926 1387.54 324.926C1386.84 324.926 1386.22 325.113 1385.69 325.488C1385.16 325.863 1384.75 326.355 1384.45 326.965V336H1382.28V323.32H1384.33ZM1395.24 329.555C1395.24 327.578 1395.7 326.008 1396.61 324.844C1397.53 323.672 1398.74 323.086 1400.25 323.086C1401.79 323.086 1403 323.633 1403.87 324.727L1403.97 323.32H1405.95V335.695C1405.95 337.336 1405.47 338.629 1404.49 339.574C1403.52 340.52 1402.22 340.992 1400.57 340.992C1399.66 340.992 1398.77 340.797 1397.89 340.406C1397.02 340.016 1396.35 339.48 1395.89 338.801L1397.01 337.5C1397.94 338.648 1399.08 339.223 1400.42 339.223C1401.48 339.223 1402.3 338.926 1402.88 338.332C1403.48 337.738 1403.77 336.902 1403.77 335.824V334.734C1402.91 335.734 1401.72 336.234 1400.22 336.234C1398.74 336.234 1397.54 335.637 1396.61 334.441C1395.7 333.246 1395.24 331.617 1395.24 329.555ZM1397.42 329.801C1397.42 331.23 1397.72 332.355 1398.3 333.176C1398.89 333.988 1399.71 334.395 1400.76 334.395C1402.13 334.395 1403.13 333.773 1403.77 332.531V326.742C1403.11 325.531 1402.11 324.926 1400.79 324.926C1399.73 324.926 1398.91 325.336 1398.31 326.156C1397.72 326.977 1397.42 328.191 1397.42 329.801ZM1417.3 334.746C1416.45 335.738 1415.21 336.234 1413.58 336.234C1412.23 336.234 1411.2 335.844 1410.49 335.062C1409.78 334.273 1409.43 333.109 1409.42 331.57V323.32H1411.59V331.512C1411.59 333.434 1412.37 334.395 1413.93 334.395C1415.59 334.395 1416.69 333.777 1417.24 332.543V323.32H1419.4V336H1417.34L1417.3 334.746ZM1430.77 336C1430.65 335.75 1430.54 335.305 1430.47 334.664C1429.46 335.711 1428.25 336.234 1426.86 336.234C1425.61 336.234 1424.58 335.883 1423.77 335.18C1422.98 334.469 1422.58 333.57 1422.58 332.484C1422.58 331.164 1423.08 330.141 1424.08 329.414C1425.09 328.68 1426.5 328.312 1428.32 328.312H1430.43V327.316C1430.43 326.559 1430.2 325.957 1429.75 325.512C1429.3 325.059 1428.63 324.832 1427.75 324.832C1426.97 324.832 1426.33 325.027 1425.8 325.418C1425.28 325.809 1425.02 326.281 1425.02 326.836H1422.84C1422.84 326.203 1423.06 325.594 1423.5 325.008C1423.96 324.414 1424.57 323.945 1425.33 323.602C1426.11 323.258 1426.95 323.086 1427.88 323.086C1429.34 323.086 1430.48 323.453 1431.31 324.188C1432.14 324.914 1432.57 325.918 1432.6 327.199V333.035C1432.6 334.199 1432.75 335.125 1433.04 335.812V336H1430.77ZM1427.17 334.348C1427.85 334.348 1428.5 334.172 1429.11 333.82C1429.72 333.469 1430.16 333.012 1430.43 332.449V329.848H1428.73C1426.08 329.848 1424.75 330.625 1424.75 332.18C1424.75 332.859 1424.97 333.391 1425.43 333.773C1425.88 334.156 1426.46 334.348 1427.17 334.348ZM1435.71 329.555C1435.71 327.578 1436.17 326.008 1437.09 324.844C1438 323.672 1439.21 323.086 1440.72 323.086C1442.27 323.086 1443.47 323.633 1444.34 324.727L1444.44 323.32H1446.43V335.695C1446.43 337.336 1445.94 338.629 1444.96 339.574C1443.99 340.52 1442.69 340.992 1441.05 340.992C1440.13 340.992 1439.24 340.797 1438.36 340.406C1437.49 340.016 1436.82 339.48 1436.36 338.801L1437.48 337.5C1438.41 338.648 1439.55 339.223 1440.89 339.223C1441.95 339.223 1442.77 338.926 1443.35 338.332C1443.95 337.738 1444.25 336.902 1444.25 335.824V334.734C1443.38 335.734 1442.19 336.234 1440.69 336.234C1439.21 336.234 1438.01 335.637 1437.09 334.441C1436.17 333.246 1435.71 331.617 1435.71 329.555ZM1437.89 329.801C1437.89 331.23 1438.19 332.355 1438.77 333.176C1439.36 333.988 1440.18 334.395 1441.23 334.395C1442.6 334.395 1443.6 333.773 1444.25 332.531V326.742C1443.58 325.531 1442.59 324.926 1441.26 324.926C1440.2 324.926 1439.38 325.336 1438.78 326.156C1438.19 326.977 1437.89 328.191 1437.89 329.801ZM1455.2 336.234C1453.48 336.234 1452.08 335.672 1451.01 334.547C1449.93 333.414 1449.39 331.902 1449.39 330.012V329.613C1449.39 328.355 1449.63 327.234 1450.1 326.25C1450.59 325.258 1451.26 324.484 1452.12 323.93C1452.99 323.367 1453.92 323.086 1454.93 323.086C1456.58 323.086 1457.86 323.629 1458.78 324.715C1459.69 325.801 1460.15 327.355 1460.15 329.379V330.281H1451.56C1451.59 331.531 1451.95 332.543 1452.65 333.316C1453.35 334.082 1454.24 334.465 1455.32 334.465C1456.08 334.465 1456.73 334.309 1457.26 333.996C1457.79 333.684 1458.26 333.27 1458.66 332.754L1459.98 333.785C1458.92 335.418 1457.33 336.234 1455.2 336.234ZM1454.93 324.867C1454.06 324.867 1453.32 325.188 1452.73 325.828C1452.13 326.461 1451.77 327.352 1451.63 328.5H1457.98V328.336C1457.92 327.234 1457.62 326.383 1457.09 325.781C1456.56 325.172 1455.84 324.867 1454.93 324.867Z" fill="black"/>
<rect x="1269.5" y="474.5" width="194" height="104" rx="7.5" fill="white" stroke="#CAD4DB" stroke-width="5"/>
<path d="M1307.85 516.938L1313.43 530.859L1319.01 516.938H1321.93V534H1319.68V527.355L1319.89 520.184L1314.29 534H1312.57L1306.98 520.219L1307.2 527.355V534H1304.95V516.938H1307.85ZM1325.22 527.543C1325.22 526.301 1325.46 525.184 1325.95 524.191C1326.44 523.199 1327.12 522.434 1327.99 521.895C1328.86 521.355 1329.86 521.086 1330.97 521.086C1332.7 521.086 1334.1 521.684 1335.16 522.879C1336.23 524.074 1336.76 525.664 1336.76 527.648V527.801C1336.76 529.035 1336.52 530.145 1336.05 531.129C1335.58 532.105 1334.9 532.867 1334.02 533.414C1333.15 533.961 1332.14 534.234 1331 534.234C1329.28 534.234 1327.88 533.637 1326.81 532.441C1325.75 531.246 1325.22 529.664 1325.22 527.695V527.543ZM1327.4 527.801C1327.4 529.207 1327.72 530.336 1328.37 531.188C1329.03 532.039 1329.9 532.465 1331 532.465C1332.1 532.465 1332.97 532.035 1333.62 531.176C1334.27 530.309 1334.6 529.098 1334.6 527.543C1334.6 526.152 1334.26 525.027 1333.6 524.168C1332.94 523.301 1332.07 522.867 1330.97 522.867C1329.9 522.867 1329.04 523.293 1328.38 524.145C1327.73 524.996 1327.4 526.215 1327.4 527.801ZM1339.14 527.543C1339.14 526.301 1339.38 525.184 1339.87 524.191C1340.36 523.199 1341.04 522.434 1341.91 521.895C1342.78 521.355 1343.78 521.086 1344.89 521.086C1346.62 521.086 1348.02 521.684 1349.08 522.879C1350.15 524.074 1350.68 525.664 1350.68 527.648V527.801C1350.68 529.035 1350.45 530.145 1349.97 531.129C1349.5 532.105 1348.82 532.867 1347.94 533.414C1347.07 533.961 1346.06 534.234 1344.92 534.234C1343.2 534.234 1341.8 533.637 1340.73 532.441C1339.67 531.246 1339.14 529.664 1339.14 527.695V527.543ZM1341.32 527.801C1341.32 529.207 1341.64 530.336 1342.29 531.188C1342.95 532.039 1343.82 532.465 1344.92 532.465C1346.02 532.465 1346.89 532.035 1347.54 531.176C1348.19 530.309 1348.52 529.098 1348.52 527.543C1348.52 526.152 1348.18 525.027 1347.52 524.168C1346.86 523.301 1345.99 522.867 1344.89 522.867C1343.82 522.867 1342.96 523.293 1342.3 524.145C1341.65 524.996 1341.32 526.215 1341.32 527.801ZM1353.11 527.555C1353.11 525.609 1353.57 524.047 1354.49 522.867C1355.41 521.68 1356.62 521.086 1358.11 521.086C1359.6 521.086 1360.77 521.594 1361.64 522.609V516H1363.81V534H1361.81L1361.71 532.641C1360.84 533.703 1359.64 534.234 1358.09 534.234C1356.62 534.234 1355.42 533.633 1354.49 532.43C1353.57 531.227 1353.11 529.656 1353.11 527.719V527.555ZM1355.28 527.801C1355.28 529.238 1355.57 530.363 1356.17 531.176C1356.76 531.988 1357.58 532.395 1358.63 532.395C1360 532.395 1361.01 531.777 1361.64 530.543V524.719C1360.99 523.523 1359.99 522.926 1358.65 522.926C1357.59 522.926 1356.76 523.336 1356.17 524.156C1355.57 524.977 1355.28 526.191 1355.28 527.801ZM1373.94 534V516.938H1379.52C1381.37 516.938 1382.76 517.32 1383.69 518.086C1384.63 518.852 1385.1 519.984 1385.1 521.484C1385.1 522.281 1384.87 522.988 1384.42 523.605C1383.96 524.215 1383.35 524.688 1382.57 525.023C1383.49 525.281 1384.21 525.773 1384.75 526.5C1385.28 527.219 1385.55 528.078 1385.55 529.078C1385.55 530.609 1385.06 531.812 1384.07 532.688C1383.07 533.562 1381.67 534 1379.86 534H1373.94ZM1376.19 526.02V532.16H1379.91C1380.95 532.16 1381.78 531.891 1382.38 531.352C1382.99 530.805 1383.29 530.055 1383.29 529.102C1383.29 527.047 1382.18 526.02 1379.94 526.02H1376.19ZM1376.19 524.215H1379.59C1380.57 524.215 1381.36 523.969 1381.94 523.477C1382.54 522.984 1382.84 522.316 1382.84 521.473C1382.84 520.535 1382.56 519.855 1382.01 519.434C1381.47 519.004 1380.64 518.789 1379.52 518.789H1376.19V524.215ZM1388.21 527.543C1388.21 526.301 1388.45 525.184 1388.94 524.191C1389.43 523.199 1390.11 522.434 1390.98 521.895C1391.85 521.355 1392.85 521.086 1393.97 521.086C1395.69 521.086 1397.09 521.684 1398.15 522.879C1399.22 524.074 1399.76 525.664 1399.76 527.648V527.801C1399.76 529.035 1399.52 530.145 1399.04 531.129C1398.57 532.105 1397.9 532.867 1397.01 533.414C1396.14 533.961 1395.13 534.234 1393.99 534.234C1392.27 534.234 1390.88 533.637 1389.81 532.441C1388.74 531.246 1388.21 529.664 1388.21 527.695V527.543ZM1390.39 527.801C1390.39 529.207 1390.72 530.336 1391.36 531.188C1392.02 532.039 1392.9 532.465 1393.99 532.465C1395.09 532.465 1395.97 532.035 1396.61 531.176C1397.26 530.309 1397.59 529.098 1397.59 527.543C1397.59 526.152 1397.26 525.027 1396.59 524.168C1395.94 523.301 1395.06 522.867 1393.97 522.867C1392.9 522.867 1392.03 523.293 1391.38 524.145C1390.72 524.996 1390.39 526.215 1390.39 527.801ZM1410.54 534C1410.41 533.75 1410.31 533.305 1410.23 532.664C1409.22 533.711 1408.02 534.234 1406.62 534.234C1405.37 534.234 1404.34 533.883 1403.54 533.18C1402.74 532.469 1402.34 531.57 1402.34 530.484C1402.34 529.164 1402.84 528.141 1403.84 527.414C1404.85 526.68 1406.27 526.312 1408.09 526.312H1410.2V525.316C1410.2 524.559 1409.97 523.957 1409.52 523.512C1409.06 523.059 1408.39 522.832 1407.51 522.832C1406.74 522.832 1406.09 523.027 1405.57 523.418C1405.04 523.809 1404.78 524.281 1404.78 524.836H1402.6C1402.6 524.203 1402.82 523.594 1403.27 523.008C1403.72 522.414 1404.33 521.945 1405.1 521.602C1405.87 521.258 1406.72 521.086 1407.64 521.086C1409.1 521.086 1410.25 521.453 1411.07 522.188C1411.9 522.914 1412.33 523.918 1412.36 525.199V531.035C1412.36 532.199 1412.51 533.125 1412.81 533.812V534H1410.54ZM1406.94 532.348C1407.62 532.348 1408.26 532.172 1408.87 531.82C1409.48 531.469 1409.92 531.012 1410.2 530.449V527.848H1408.5C1405.84 527.848 1404.51 528.625 1404.51 530.18C1404.51 530.859 1404.74 531.391 1405.19 531.773C1405.64 532.156 1406.23 532.348 1406.94 532.348ZM1422.12 523.266C1421.8 523.211 1421.44 523.184 1421.06 523.184C1419.64 523.184 1418.67 523.789 1418.16 525V534H1415.99V521.32H1418.1L1418.14 522.785C1418.85 521.652 1419.86 521.086 1421.16 521.086C1421.58 521.086 1421.9 521.141 1422.12 521.25V523.266ZM1423.6 527.555C1423.6 525.609 1424.06 524.047 1424.98 522.867C1425.9 521.68 1427.11 521.086 1428.6 521.086C1430.09 521.086 1431.26 521.594 1432.13 522.609V516H1434.3V534H1432.31L1432.2 532.641C1431.33 533.703 1430.13 534.234 1428.58 534.234C1427.11 534.234 1425.91 533.633 1424.98 532.43C1424.06 531.227 1423.6 529.656 1423.6 527.719V527.555ZM1425.77 527.801C1425.77 529.238 1426.06 530.363 1426.66 531.176C1427.25 531.988 1428.07 532.395 1429.12 532.395C1430.49 532.395 1431.5 531.777 1432.13 530.543V524.719C1431.48 523.523 1430.49 522.926 1429.14 522.926C1428.08 522.926 1427.25 523.336 1426.66 524.156C1426.06 524.977 1425.77 526.191 1425.77 527.801Z" fill="black"/>
<rect x="1051.5" y="51.5" width="194" height="104" rx="7.5" fill="white" stroke="#CAD4DB" stroke-width="5"/>
<path d="M1080.09 109.16H1088.18V111H1077.83V93.9375H1080.09V109.16ZM1100.39 103.465H1093.23V111H1090.98V93.9375H1101.55V95.7891H1093.23V101.625H1100.39V103.465ZM1114.34 105.621L1114.67 107.871L1115.15 105.844L1118.53 93.9375H1120.43L1123.72 105.844L1124.19 107.906L1124.55 105.609L1127.2 93.9375H1129.46L1125.32 111H1123.27L1119.76 98.5664L1119.49 97.2656L1119.22 98.5664L1115.57 111H1113.52L1109.4 93.9375H1111.65L1114.34 105.621ZM1134.22 111H1132.05V98.3203H1134.22V111ZM1131.87 94.957C1131.87 94.6055 1131.98 94.3086 1132.19 94.0664C1132.41 93.8242 1132.73 93.7031 1133.15 93.7031C1133.57 93.7031 1133.89 93.8242 1134.11 94.0664C1134.33 94.3086 1134.44 94.6055 1134.44 94.957C1134.44 95.3086 1134.33 95.6016 1134.11 95.8359C1133.89 96.0703 1133.57 96.1875 1133.15 96.1875C1132.73 96.1875 1132.41 96.0703 1132.19 95.8359C1131.98 95.6016 1131.87 95.3086 1131.87 94.957ZM1144.06 100.266C1143.73 100.211 1143.38 100.184 1142.99 100.184C1141.57 100.184 1140.61 100.789 1140.1 102V111H1137.93V98.3203H1140.04L1140.07 99.7852C1140.79 98.6523 1141.79 98.0859 1143.1 98.0859C1143.52 98.0859 1143.84 98.1406 1144.06 98.25V100.266ZM1151.32 111.234C1149.6 111.234 1148.21 110.672 1147.13 109.547C1146.05 108.414 1145.51 106.902 1145.51 105.012V104.613C1145.51 103.355 1145.75 102.234 1146.23 101.25C1146.71 100.258 1147.38 99.4844 1148.24 98.9297C1149.11 98.3672 1150.05 98.0859 1151.05 98.0859C1152.7 98.0859 1153.98 98.6289 1154.9 99.7148C1155.81 100.801 1156.27 102.355 1156.27 104.379V105.281H1147.68C1147.71 106.531 1148.07 107.543 1148.77 108.316C1149.47 109.082 1150.36 109.465 1151.44 109.465C1152.21 109.465 1152.85 109.309 1153.39 108.996C1153.92 108.684 1154.38 108.27 1154.78 107.754L1156.1 108.785C1155.04 110.418 1153.45 111.234 1151.32 111.234ZM1151.05 99.8672C1150.18 99.8672 1149.44 100.188 1148.85 100.828C1148.26 101.461 1147.89 102.352 1147.75 103.5H1154.1V103.336C1154.04 102.234 1153.74 101.383 1153.21 100.781C1152.68 100.172 1151.96 99.8672 1151.05 99.8672ZM1160.09 111V99.9961H1158.08V98.3203H1160.09V97.0195C1160.09 95.6602 1160.45 94.6094 1161.18 93.8672C1161.9 93.125 1162.93 92.7539 1164.26 92.7539C1164.76 92.7539 1165.26 92.8203 1165.75 92.9531L1165.63 94.7109C1165.26 94.6406 1164.87 94.6055 1164.46 94.6055C1163.76 94.6055 1163.21 94.8125 1162.83 95.2266C1162.45 95.6328 1162.26 96.2188 1162.26 96.9844V98.3203H1164.96V99.9961H1162.26V111H1160.09ZM1173.73 100.266C1173.4 100.211 1173.04 100.184 1172.66 100.184C1171.24 100.184 1170.27 100.789 1169.77 102V111H1167.6V98.3203H1169.71L1169.74 99.7852C1170.45 98.6523 1171.46 98.0859 1172.77 98.0859C1173.19 98.0859 1173.51 98.1406 1173.73 98.25V100.266ZM1183.32 111C1183.2 110.75 1183.1 110.305 1183.02 109.664C1182.01 110.711 1180.81 111.234 1179.41 111.234C1178.16 111.234 1177.13 110.883 1176.33 110.18C1175.53 109.469 1175.13 108.57 1175.13 107.484C1175.13 106.164 1175.63 105.141 1176.63 104.414C1177.64 103.68 1179.05 103.312 1180.87 103.312H1182.98V102.316C1182.98 101.559 1182.76 100.957 1182.3 100.512C1181.85 100.059 1181.18 99.832 1180.3 99.832C1179.53 99.832 1178.88 100.027 1178.35 100.418C1177.83 100.809 1177.57 101.281 1177.57 101.836H1175.39C1175.39 101.203 1175.61 100.594 1176.06 100.008C1176.51 99.4141 1177.12 98.9453 1177.89 98.6016C1178.66 98.2578 1179.51 98.0859 1180.43 98.0859C1181.89 98.0859 1183.03 98.4531 1183.86 99.1875C1184.69 99.9141 1185.12 100.918 1185.15 102.199V108.035C1185.15 109.199 1185.3 110.125 1185.6 110.812V111H1183.32ZM1179.73 109.348C1180.4 109.348 1181.05 109.172 1181.66 108.82C1182.27 108.469 1182.71 108.012 1182.98 107.449V104.848H1181.28C1178.63 104.848 1177.3 105.625 1177.3 107.18C1177.3 107.859 1177.53 108.391 1177.98 108.773C1178.43 109.156 1179.01 109.348 1179.73 109.348ZM1190.82 98.3203L1190.88 99.7266C1191.81 98.6328 1193.06 98.0859 1194.64 98.0859C1196.41 98.0859 1197.62 98.7656 1198.26 100.125C1198.68 99.5156 1199.23 99.0234 1199.9 98.6484C1200.58 98.2734 1201.38 98.0859 1202.31 98.0859C1205.09 98.0859 1206.5 99.5586 1206.55 102.504V111H1204.38V102.633C1204.38 101.727 1204.17 101.051 1203.76 100.605C1203.34 100.152 1202.65 99.9258 1201.67 99.9258C1200.87 99.9258 1200.2 100.168 1199.67 100.652C1199.14 101.129 1198.83 101.773 1198.74 102.586V111H1196.56V102.691C1196.56 100.848 1195.66 99.9258 1193.86 99.9258C1192.43 99.9258 1191.46 100.531 1190.94 101.742V111H1188.77V98.3203H1190.82ZM1215.32 111.234C1213.6 111.234 1212.21 110.672 1211.13 109.547C1210.05 108.414 1209.51 106.902 1209.51 105.012V104.613C1209.51 103.355 1209.75 102.234 1210.23 101.25C1210.71 100.258 1211.38 99.4844 1212.24 98.9297C1213.11 98.3672 1214.05 98.0859 1215.05 98.0859C1216.7 98.0859 1217.98 98.6289 1218.9 99.7148C1219.81 100.801 1220.27 102.355 1220.27 104.379V105.281H1211.68C1211.71 106.531 1212.07 107.543 1212.77 108.316C1213.47 109.082 1214.36 109.465 1215.44 109.465C1216.21 109.465 1216.85 109.309 1217.39 108.996C1217.92 108.684 1218.38 108.27 1218.78 107.754L1220.1 108.785C1219.04 110.418 1217.45 111.234 1215.32 111.234ZM1215.05 99.8672C1214.18 99.8672 1213.44 100.188 1212.85 100.828C1212.26 101.461 1211.89 102.352 1211.75 103.5H1218.1V103.336C1218.04 102.234 1217.74 101.383 1217.21 100.781C1216.68 100.172 1215.96 99.8672 1215.05 99.8672Z" fill="black"/>
<g filter="url(#filter0_d)">
<path d="M631.561 105.061C632.146 104.475 632.146 103.525 631.561 102.939L622.015 93.3934C621.429 92.8076 620.479 92.8076 619.893 93.3934C619.308 93.9792 619.308 94.9289 619.893 95.5147L628.379 104L619.893 112.485C619.308 113.071 619.308 114.021 619.893 114.607C620.479 115.192 621.429 115.192 622.015 114.607L631.561 105.061ZM452 105.5H630.5V102.5H452V105.5Z" fill="black"/>
</g>
<g filter="url(#filter1_d)">
<path d="M271.939 524.939C271.354 525.525 271.354 526.475 271.939 527.061L281.485 536.607C282.071 537.192 283.021 537.192 283.607 536.607C284.192 536.021 284.192 535.071 283.607 534.485L275.121 526L283.607 517.515C284.192 516.929 284.192 515.979 283.607 515.393C283.021 514.808 282.071 514.808 281.485 515.393L271.939 524.939ZM451.5 524.5H273V527.5H451.5V524.5Z" fill="black"/>
</g>
<g filter="url(#filter2_d)">
<path d="M691.939 524.939C691.354 525.525 691.354 526.475 691.939 527.061L701.485 536.607C702.071 537.192 703.021 537.192 703.607 536.607C704.192 536.021 704.192 535.071 703.607 534.485L695.121 526L703.607 517.515C704.192 516.929 704.192 515.979 703.607 515.393C703.021 514.808 702.071 514.808 701.485 515.393L691.939 524.939ZM871.5 524.5H693V527.5H871.5V524.5Z" fill="black"/>
</g>
<g filter="url(#filter3_d)">
<path d="M1032.56 105.061C1033.15 104.475 1033.15 103.525 1032.56 102.939L1023.01 93.3934C1022.43 92.8076 1021.48 92.8076 1020.89 93.3934C1020.31 93.9792 1020.31 94.9289 1020.89 95.5147L1029.38 104L1020.89 112.485C1020.31 113.071 1020.31 114.021 1020.89 114.607C1021.48 115.192 1022.43 115.192 1023.01 114.607L1032.56 105.061ZM853 105.5H1031.5V102.5H853V105.5Z" fill="black"/>
</g>
<g filter="url(#filter4_d)">
<path d="M1375.61 145.537L1374.83 146.816L1374.83 146.816L1375.61 145.537ZM1376.94 232.061C1377.53 232.646 1378.47 232.646 1379.06 232.061L1388.61 222.515C1389.19 221.929 1389.19 220.979 1388.61 220.393C1388.02 219.808 1387.07 219.808 1386.49 220.393L1378 228.879L1369.51 220.393C1368.93 219.808 1367.98 219.808 1367.39 220.393C1366.81 220.979 1366.81 221.929 1367.39 222.515L1376.94 232.061ZM1312.72 108.779L1374.83 146.816L1376.39 144.258L1314.28 106.221L1312.72 108.779ZM1376.5 149.801V231H1379.5V149.801H1376.5ZM1374.83 146.816C1375.87 147.452 1376.5 148.583 1376.5 149.801H1379.5C1379.5 147.539 1378.32 145.439 1376.39 144.258L1374.83 146.816Z" fill="black"/>
</g>
<g filter="url(#filter5_d)">
<path d="M1127.94 524.93C1127.35 525.516 1127.35 526.465 1127.94 527.051L1137.49 536.597C1138.07 537.183 1139.02 537.183 1139.61 536.597C1140.19 536.011 1140.19 535.062 1139.61 534.476L1131.12 525.991L1139.61 517.505C1140.19 516.919 1140.19 515.97 1139.61 515.384C1139.02 514.798 1138.07 514.798 1137.49 515.384L1127.94 524.93ZM1228.01 524.491L1129 524.491L1129 527.491L1228.01 527.491L1228.01 524.491Z" fill="black"/>
</g>
<g filter="url(#filter6_d)">
<path d="M136.823 330L138.323 330L138.323 330L136.823 330ZM141.823 325L141.823 323.5L141.823 323.5L141.823 325ZM204.061 326.061C204.646 325.475 204.646 324.525 204.061 323.939L194.515 314.393C193.929 313.808 192.979 313.808 192.393 314.393C191.808 314.979 191.808 315.929 192.393 316.515L200.879 325L192.393 333.485C191.808 334.071 191.808 335.021 192.393 335.607C192.979 336.192 193.929 336.192 194.515 335.607L204.061 326.061ZM138.323 450L138.323 330L135.323 330L135.323 450L138.323 450ZM141.823 326.5L203 326.5L203 323.5L141.823 323.5L141.823 326.5ZM138.323 330C138.323 328.067 139.89 326.5 141.823 326.5L141.823 323.5C138.233 323.5 135.323 326.41 135.323 330L138.323 330Z" fill="black"/>
</g>
<defs>
<filter id="filter0_d" x="448" y="92.954" width="188" height="30.0919" filterUnits="userSpaceOnUse" color-interpolation-filters="sRGB">
<feFlood flood-opacity="0" result="BackgroundImageFix"/>
<feColorMatrix in="SourceAlpha" type="matrix" values="0 0 0 0 0 0 0 0 0 0 0 0 0 0 0 0 0 0 127 0"/>
<feOffset dy="4"/>
<feGaussianBlur stdDeviation="2"/>
<feColorMatrix type="matrix" values="0 0 0 0 0 0 0 0 0 0 0 0 0 0 0 0 0 0 0.25 0"/>
<feBlend mode="normal" in2="BackgroundImageFix" result="effect1_dropShadow"/>
<feBlend mode="normal" in="SourceGraphic" in2="effect1_dropShadow" result="shape"/>
</filter>
<filter id="filter1_d" x="267.5" y="514.954" width="188" height="30.0919" filterUnits="userSpaceOnUse" color-interpolation-filters="sRGB">
<feFlood flood-opacity="0" result="BackgroundImageFix"/>
<feColorMatrix in="SourceAlpha" type="matrix" values="0 0 0 0 0 0 0 0 0 0 0 0 0 0 0 0 0 0 127 0"/>
<feOffset dy="4"/>
<feGaussianBlur stdDeviation="2"/>
<feColorMatrix type="matrix" values="0 0 0 0 0 0 0 0 0 0 0 0 0 0 0 0 0 0 0.25 0"/>
<feBlend mode="normal" in2="BackgroundImageFix" result="effect1_dropShadow"/>
<feBlend mode="normal" in="SourceGraphic" in2="effect1_dropShadow" result="shape"/>
</filter>
<filter id="filter2_d" x="687.5" y="514.954" width="188" height="30.0919" filterUnits="userSpaceOnUse" color-interpolation-filters="sRGB">
<feFlood flood-opacity="0" result="BackgroundImageFix"/>
<feColorMatrix in="SourceAlpha" type="matrix" values="0 0 0 0 0 0 0 0 0 0 0 0 0 0 0 0 0 0 127 0"/>
<feOffset dy="4"/>
<feGaussianBlur stdDeviation="2"/>
<feColorMatrix type="matrix" values="0 0 0 0 0 0 0 0 0 0 0 0 0 0 0 0 0 0 0.25 0"/>
<feBlend mode="normal" in2="BackgroundImageFix" result="effect1_dropShadow"/>
<feBlend mode="normal" in="SourceGraphic" in2="effect1_dropShadow" result="shape"/>
</filter>
<filter id="filter3_d" x="849" y="92.954" width="188" height="30.0919" filterUnits="userSpaceOnUse" color-interpolation-filters="sRGB">
<feFlood flood-opacity="0" result="BackgroundImageFix"/>
<feColorMatrix in="SourceAlpha" type="matrix" values="0 0 0 0 0 0 0 0 0 0 0 0 0 0 0 0 0 0 127 0"/>
<feOffset dy="4"/>
<feGaussianBlur stdDeviation="2"/>
<feColorMatrix type="matrix" values="0 0 0 0 0 0 0 0 0 0 0 0 0 0 0 0 0 0 0.25 0"/>
<feBlend mode="normal" in2="BackgroundImageFix" result="effect1_dropShadow"/>
<feBlend mode="normal" in="SourceGraphic" in2="effect1_dropShadow" result="shape"/>
</filter>
<filter id="filter4_d" x="1308.72" y="106.221" width="84.3293" height="134.279" filterUnits="userSpaceOnUse" color-interpolation-filters="sRGB">
<feFlood flood-opacity="0" result="BackgroundImageFix"/>
<feColorMatrix in="SourceAlpha" type="matrix" values="0 0 0 0 0 0 0 0 0 0 0 0 0 0 0 0 0 0 127 0"/>
<feOffset dy="4"/>
<feGaussianBlur stdDeviation="2"/>
<feColorMatrix type="matrix" values="0 0 0 0 0 0 0 0 0 0 0 0 0 0 0 0 0 0 0.25 0"/>
<feBlend mode="normal" in2="BackgroundImageFix" result="effect1_dropShadow"/>
<feBlend mode="normal" in="SourceGraphic" in2="effect1_dropShadow" result="shape"/>
</filter>
<filter id="filter5_d" x="1123.5" y="514.945" width="108.506" height="30.0919" filterUnits="userSpaceOnUse" color-interpolation-filters="sRGB">
<feFlood flood-opacity="0" result="BackgroundImageFix"/>
<feColorMatrix in="SourceAlpha" type="matrix" values="0 0 0 0 0 0 0 0 0 0 0 0 0 0 0 0 0 0 127 0"/>
<feOffset dy="4"/>
<feGaussianBlur stdDeviation="2"/>
<feColorMatrix type="matrix" values="0 0 0 0 0 0 0 0 0 0 0 0 0 0 0 0 0 0 0.25 0"/>
<feBlend mode="normal" in2="BackgroundImageFix" result="effect1_dropShadow"/>
<feBlend mode="normal" in="SourceGraphic" in2="effect1_dropShadow" result="shape"/>
</filter>
<filter id="filter6_d" x="131.323" y="313.954" width="77.1767" height="144.046" filterUnits="userSpaceOnUse" color-interpolation-filters="sRGB">
<feFlood flood-opacity="0" result="BackgroundImageFix"/>
<feColorMatrix in="SourceAlpha" type="matrix" values="0 0 0 0 0 0 0 0 0 0 0 0 0 0 0 0 0 0 127 0"/>
<feOffset dy="4"/>
<feGaussianBlur stdDeviation="2"/>
<feColorMatrix type="matrix" values="0 0 0 0 0 0 0 0 0 0 0 0 0 0 0 0 0 0 0.25 0"/>
<feBlend mode="normal" in2="BackgroundImageFix" result="effect1_dropShadow"/>
<feBlend mode="normal" in="SourceGraphic" in2="effect1_dropShadow" result="shape"/>
</filter>
</defs>
</svg>
