<svg width="1519" height="636" viewBox="0 0 1519 636" fill="none" xmlns="http://www.w3.org/2000/svg">
<rect width="1519" height="636" fill="white"/>
<rect x="238.5" y="51.5" width="194" height="104" rx="7.5" fill="white" stroke="#CAD4DB" stroke-width="5"/>
<path d="M295.501 92.6211L295.829 94.8711L296.309 92.8438L299.684 80.9375H301.583L304.876 92.8438L305.344 94.9062L305.708 92.6094L308.356 80.9375H310.618L306.481 98H304.43L300.915 85.5664L300.645 84.2656L300.376 85.5664L296.731 98H294.68L290.555 80.9375H292.805L295.501 92.6211ZM317.905 98.2344C316.187 98.2344 314.788 97.6719 313.71 96.5469C312.632 95.4141 312.093 93.9023 312.093 92.0117V91.6133C312.093 90.3555 312.331 89.2344 312.808 88.25C313.292 87.2578 313.964 86.4844 314.823 85.9297C315.691 85.3672 316.628 85.0859 317.636 85.0859C319.284 85.0859 320.566 85.6289 321.48 86.7148C322.394 87.8008 322.851 89.3555 322.851 91.3789V92.2812H314.261C314.292 93.5312 314.655 94.543 315.351 95.3164C316.054 96.082 316.944 96.4648 318.023 96.4648C318.788 96.4648 319.437 96.3086 319.968 95.9961C320.499 95.6836 320.964 95.2695 321.362 94.7539L322.687 95.7852C321.624 97.418 320.03 98.2344 317.905 98.2344ZM317.636 86.8672C316.761 86.8672 316.027 87.1875 315.433 87.8281C314.839 88.4609 314.472 89.3516 314.331 90.5H320.683V90.3359C320.62 89.2344 320.323 88.3828 319.792 87.7812C319.261 87.1719 318.542 86.8672 317.636 86.8672ZM336.337 91.8008C336.337 93.7383 335.892 95.2969 335.002 96.4766C334.111 97.6484 332.916 98.2344 331.416 98.2344C329.814 98.2344 328.576 97.668 327.701 96.5352L327.595 98H325.603V80H327.771V86.7148C328.646 85.6289 329.853 85.0859 331.392 85.0859C332.931 85.0859 334.138 85.668 335.013 86.832C335.896 87.9961 336.337 89.5898 336.337 91.6133V91.8008ZM334.17 91.5547C334.17 90.0781 333.884 88.9375 333.314 88.1328C332.744 87.3281 331.923 86.9258 330.853 86.9258C329.423 86.9258 328.396 87.5898 327.771 88.918V94.4023C328.435 95.7305 329.47 96.3945 330.877 96.3945C331.916 96.3945 332.724 95.9922 333.302 95.1875C333.88 94.3828 334.17 93.1719 334.17 91.5547ZM346.695 94.6367C346.695 94.0508 346.473 93.5977 346.027 93.2773C345.59 92.9492 344.82 92.668 343.719 92.4336C342.625 92.1992 341.754 91.918 341.105 91.5898C340.465 91.2617 339.988 90.8711 339.676 90.418C339.371 89.9648 339.219 89.4258 339.219 88.8008C339.219 87.7617 339.656 86.8828 340.531 86.1641C341.414 85.4453 342.539 85.0859 343.906 85.0859C345.344 85.0859 346.508 85.457 347.398 86.1992C348.297 86.9414 348.746 87.8906 348.746 89.0469H346.566C346.566 88.4531 346.312 87.9414 345.805 87.5117C345.305 87.082 344.672 86.8672 343.906 86.8672C343.117 86.8672 342.5 87.0391 342.055 87.3828C341.609 87.7266 341.387 88.1758 341.387 88.7305C341.387 89.2539 341.594 89.6484 342.008 89.9141C342.422 90.1797 343.168 90.4336 344.246 90.6758C345.332 90.918 346.211 91.207 346.883 91.543C347.555 91.8789 348.051 92.2852 348.371 92.7617C348.699 93.2305 348.863 93.8047 348.863 94.4844C348.863 95.6172 348.41 96.5273 347.504 97.2148C346.598 97.8945 345.422 98.2344 343.977 98.2344C342.961 98.2344 342.062 98.0547 341.281 97.6953C340.5 97.3359 339.887 96.8359 339.441 96.1953C339.004 95.5469 338.785 94.8477 338.785 94.0977H340.953C340.992 94.8242 341.281 95.4023 341.82 95.832C342.367 96.2539 343.086 96.4648 343.977 96.4648C344.797 96.4648 345.453 96.3008 345.945 95.9727C346.445 95.6367 346.695 95.1914 346.695 94.6367ZM354.276 98H352.108V85.3203H354.276V98ZM351.932 81.957C351.932 81.6055 352.038 81.3086 352.248 81.0664C352.467 80.8242 352.788 80.7031 353.209 80.7031C353.631 80.7031 353.952 80.8242 354.17 81.0664C354.389 81.3086 354.498 81.6055 354.498 81.957C354.498 82.3086 354.389 82.6016 354.17 82.8359C353.952 83.0703 353.631 83.1875 353.209 83.1875C352.788 83.1875 352.467 83.0703 352.248 82.8359C352.038 82.6016 351.932 82.3086 351.932 81.957ZM360.931 82.25V85.3203H363.298V86.9961H360.931V94.8594C360.931 95.3672 361.036 95.75 361.247 96.0078C361.458 96.2578 361.817 96.3828 362.325 96.3828C362.575 96.3828 362.919 96.3359 363.356 96.2422V98C362.786 98.1562 362.231 98.2344 361.692 98.2344C360.723 98.2344 359.993 97.9414 359.501 97.3555C359.009 96.7695 358.763 95.9375 358.763 94.8594V86.9961H356.454V85.3203H358.763V82.25H360.931ZM371.335 98.2344C369.616 98.2344 368.218 97.6719 367.14 96.5469C366.062 95.4141 365.523 93.9023 365.523 92.0117V91.6133C365.523 90.3555 365.761 89.2344 366.238 88.25C366.722 87.2578 367.394 86.4844 368.253 85.9297C369.12 85.3672 370.058 85.0859 371.066 85.0859C372.714 85.0859 373.995 85.6289 374.909 86.7148C375.824 87.8008 376.281 89.3555 376.281 91.3789V92.2812H367.691C367.722 93.5312 368.085 94.543 368.781 95.3164C369.484 96.082 370.374 96.4648 371.452 96.4648C372.218 96.4648 372.866 96.3086 373.398 95.9961C373.929 95.6836 374.394 95.2695 374.792 94.7539L376.116 95.7852C375.054 97.418 373.46 98.2344 371.335 98.2344ZM371.066 86.8672C370.191 86.8672 369.456 87.1875 368.863 87.8281C368.269 88.4609 367.902 89.3516 367.761 90.5H374.113V90.3359C374.05 89.2344 373.753 88.3828 373.222 87.7812C372.691 87.1719 371.972 86.8672 371.066 86.8672ZM302.743 120.586C302.532 122.391 301.864 123.785 300.739 124.77C299.622 125.746 298.134 126.234 296.274 126.234C294.259 126.234 292.641 125.512 291.423 124.066C290.212 122.621 289.606 120.688 289.606 118.266V116.625C289.606 115.039 289.887 113.645 290.45 112.441C291.02 111.238 291.825 110.316 292.864 109.676C293.903 109.027 295.106 108.703 296.473 108.703C298.286 108.703 299.739 109.211 300.833 110.227C301.926 111.234 302.563 112.633 302.743 114.422H300.481C300.286 113.062 299.86 112.078 299.204 111.469C298.555 110.859 297.645 110.555 296.473 110.555C295.036 110.555 293.907 111.086 293.087 112.148C292.274 113.211 291.868 114.723 291.868 116.684V118.336C291.868 120.188 292.255 121.66 293.028 122.754C293.801 123.848 294.884 124.395 296.274 124.395C297.524 124.395 298.481 124.113 299.145 123.551C299.817 122.98 300.262 121.992 300.481 120.586H302.743ZM305.144 119.543C305.144 118.301 305.386 117.184 305.87 116.191C306.362 115.199 307.042 114.434 307.909 113.895C308.784 113.355 309.78 113.086 310.898 113.086C312.624 113.086 314.019 113.684 315.081 114.879C316.152 116.074 316.687 117.664 316.687 119.648V119.801C316.687 121.035 316.448 122.145 315.972 123.129C315.503 124.105 314.827 124.867 313.944 125.414C313.069 125.961 312.062 126.234 310.921 126.234C309.202 126.234 307.808 125.637 306.737 124.441C305.675 123.246 305.144 121.664 305.144 119.695V119.543ZM307.323 119.801C307.323 121.207 307.648 122.336 308.296 123.188C308.952 124.039 309.827 124.465 310.921 124.465C312.023 124.465 312.898 124.035 313.546 123.176C314.194 122.309 314.519 121.098 314.519 119.543C314.519 118.152 314.187 117.027 313.523 116.168C312.866 115.301 311.991 114.867 310.898 114.867C309.827 114.867 308.964 115.293 308.308 116.145C307.652 116.996 307.323 118.215 307.323 119.801ZM321.689 113.32L321.759 114.914C322.728 113.695 323.994 113.086 325.556 113.086C328.236 113.086 329.587 114.598 329.611 117.621V126H327.443V117.609C327.435 116.695 327.224 116.02 326.81 115.582C326.404 115.145 325.767 114.926 324.9 114.926C324.197 114.926 323.58 115.113 323.048 115.488C322.517 115.863 322.103 116.355 321.806 116.965V126H319.638V113.32H321.689ZM338.199 124.465C338.973 124.465 339.648 124.23 340.227 123.762C340.805 123.293 341.125 122.707 341.188 122.004H343.238C343.199 122.73 342.949 123.422 342.488 124.078C342.027 124.734 341.41 125.258 340.637 125.648C339.871 126.039 339.059 126.234 338.199 126.234C336.473 126.234 335.098 125.66 334.074 124.512C333.059 123.355 332.551 121.777 332.551 119.777V119.414C332.551 118.18 332.777 117.082 333.23 116.121C333.684 115.16 334.332 114.414 335.176 113.883C336.027 113.352 337.031 113.086 338.188 113.086C339.609 113.086 340.789 113.512 341.727 114.363C342.672 115.215 343.176 116.32 343.238 117.68H341.188C341.125 116.859 340.812 116.188 340.25 115.664C339.695 115.133 339.008 114.867 338.188 114.867C337.086 114.867 336.23 115.266 335.621 116.062C335.02 116.852 334.719 117.996 334.719 119.496V119.906C334.719 121.367 335.02 122.492 335.621 123.281C336.223 124.07 337.082 124.465 338.199 124.465ZM351.17 126.234C349.452 126.234 348.053 125.672 346.975 124.547C345.897 123.414 345.358 121.902 345.358 120.012V119.613C345.358 118.355 345.596 117.234 346.073 116.25C346.557 115.258 347.229 114.484 348.088 113.93C348.955 113.367 349.893 113.086 350.901 113.086C352.549 113.086 353.83 113.629 354.745 114.715C355.659 115.801 356.116 117.355 356.116 119.379V120.281H347.526C347.557 121.531 347.92 122.543 348.616 123.316C349.319 124.082 350.209 124.465 351.288 124.465C352.053 124.465 352.702 124.309 353.233 123.996C353.764 123.684 354.229 123.27 354.627 122.754L355.952 123.785C354.889 125.418 353.295 126.234 351.17 126.234ZM350.901 114.867C350.026 114.867 349.291 115.188 348.698 115.828C348.104 116.461 347.737 117.352 347.596 118.5H353.948V118.336C353.885 117.234 353.588 116.383 353.057 115.781C352.526 115.172 351.807 114.867 350.901 114.867ZM369.579 119.801C369.579 121.73 369.138 123.285 368.255 124.465C367.372 125.645 366.177 126.234 364.669 126.234C363.13 126.234 361.919 125.746 361.036 124.77V130.875H358.868V113.32H360.848L360.954 114.727C361.837 113.633 363.063 113.086 364.634 113.086C366.157 113.086 367.36 113.66 368.243 114.809C369.134 115.957 369.579 117.555 369.579 119.602V119.801ZM367.411 119.555C367.411 118.125 367.106 116.996 366.497 116.168C365.888 115.34 365.052 114.926 363.989 114.926C362.677 114.926 361.692 115.508 361.036 116.672V122.73C361.684 123.887 362.677 124.465 364.013 124.465C365.052 124.465 365.876 124.055 366.485 123.234C367.102 122.406 367.411 121.18 367.411 119.555ZM375.519 110.25V113.32H377.886V114.996H375.519V122.859C375.519 123.367 375.624 123.75 375.835 124.008C376.046 124.258 376.406 124.383 376.913 124.383C377.163 124.383 377.507 124.336 377.945 124.242V126C377.374 126.156 376.82 126.234 376.281 126.234C375.312 126.234 374.581 125.941 374.089 125.355C373.597 124.77 373.351 123.938 373.351 122.859V114.996H371.042V113.32H373.351V110.25H375.519Z" fill="black"/>
<rect x="644.5" y="51.5" width="194" height="104" rx="7.5" fill="white" stroke="#CAD4DB" stroke-width="5"/>
<path d="M682.739 93.9375V105.539C682.731 107.148 682.223 108.465 681.215 109.488C680.215 110.512 678.856 111.086 677.137 111.211L676.54 111.234C674.673 111.234 673.184 110.73 672.075 109.723C670.965 108.715 670.403 107.328 670.387 105.562V93.9375H672.614V105.492C672.614 106.727 672.954 107.688 673.633 108.375C674.313 109.055 675.282 109.395 676.54 109.395C677.813 109.395 678.786 109.055 679.458 108.375C680.137 107.695 680.477 106.738 680.477 105.504V93.9375H682.739ZM693.566 107.637C693.566 107.051 693.343 106.598 692.898 106.277C692.46 105.949 691.691 105.668 690.589 105.434C689.495 105.199 688.624 104.918 687.976 104.59C687.335 104.262 686.858 103.871 686.546 103.418C686.241 102.965 686.089 102.426 686.089 101.801C686.089 100.762 686.526 99.8828 687.401 99.1641C688.284 98.4453 689.409 98.0859 690.776 98.0859C692.214 98.0859 693.378 98.457 694.269 99.1992C695.167 99.9414 695.616 100.891 695.616 102.047H693.437C693.437 101.453 693.183 100.941 692.675 100.512C692.175 100.082 691.542 99.8672 690.776 99.8672C689.987 99.8672 689.37 100.039 688.925 100.383C688.48 100.727 688.257 101.176 688.257 101.73C688.257 102.254 688.464 102.648 688.878 102.914C689.292 103.18 690.038 103.434 691.116 103.676C692.202 103.918 693.081 104.207 693.753 104.543C694.425 104.879 694.921 105.285 695.241 105.762C695.569 106.23 695.733 106.805 695.733 107.484C695.733 108.617 695.28 109.527 694.374 110.215C693.468 110.895 692.292 111.234 690.847 111.234C689.831 111.234 688.933 111.055 688.151 110.695C687.37 110.336 686.757 109.836 686.312 109.195C685.874 108.547 685.655 107.848 685.655 107.098H687.823C687.862 107.824 688.151 108.402 688.691 108.832C689.237 109.254 689.956 109.465 690.847 109.465C691.667 109.465 692.323 109.301 692.816 108.973C693.316 108.637 693.566 108.191 693.566 107.637ZM704.052 111.234C702.334 111.234 700.935 110.672 699.857 109.547C698.779 108.414 698.24 106.902 698.24 105.012V104.613C698.24 103.355 698.478 102.234 698.955 101.25C699.439 100.258 700.111 99.4844 700.97 98.9297C701.837 98.3672 702.775 98.0859 703.783 98.0859C705.431 98.0859 706.712 98.6289 707.626 99.7148C708.541 100.801 708.998 102.355 708.998 104.379V105.281H700.408C700.439 106.531 700.802 107.543 701.498 108.316C702.201 109.082 703.091 109.465 704.169 109.465C704.935 109.465 705.584 109.309 706.115 108.996C706.646 108.684 707.111 108.27 707.509 107.754L708.834 108.785C707.771 110.418 706.177 111.234 704.052 111.234ZM703.783 99.8672C702.908 99.8672 702.173 100.188 701.58 100.828C700.986 101.461 700.619 102.352 700.478 103.5H706.83V103.336C706.767 102.234 706.47 101.383 705.939 100.781C705.408 100.172 704.689 99.8672 703.783 99.8672ZM717.879 100.266C717.551 100.211 717.195 100.184 716.812 100.184C715.391 100.184 714.426 100.789 713.918 102V111H711.75V98.3203H713.859L713.894 99.7852C714.605 98.6523 715.613 98.0859 716.918 98.0859C717.34 98.0859 717.66 98.1406 717.879 98.25V100.266ZM728.891 104.32V111H726.641V93.9375H732.934C734.802 93.9375 736.262 94.4141 737.317 95.3672C738.38 96.3203 738.911 97.582 738.911 99.1523C738.911 100.809 738.391 102.086 737.352 102.984C736.321 103.875 734.841 104.32 732.911 104.32H728.891ZM728.891 102.48H732.934C734.137 102.48 735.059 102.199 735.7 101.637C736.341 101.066 736.661 100.246 736.661 99.1758C736.661 98.1602 736.341 97.3477 735.7 96.7383C735.059 96.1289 734.18 95.8125 733.063 95.7891H728.891V102.48ZM746.773 111.234C745.054 111.234 743.655 110.672 742.577 109.547C741.499 108.414 740.96 106.902 740.96 105.012V104.613C740.96 103.355 741.198 102.234 741.675 101.25C742.159 100.258 742.831 99.4844 743.691 98.9297C744.558 98.3672 745.495 98.0859 746.503 98.0859C748.152 98.0859 749.433 98.6289 750.347 99.7148C751.261 100.801 751.718 102.355 751.718 104.379V105.281H743.128C743.159 106.531 743.523 107.543 744.218 108.316C744.921 109.082 745.812 109.465 746.89 109.465C747.655 109.465 748.304 109.309 748.835 108.996C749.366 108.684 749.831 108.27 750.23 107.754L751.554 108.785C750.491 110.418 748.898 111.234 746.773 111.234ZM746.503 99.8672C745.628 99.8672 744.894 100.188 744.3 100.828C743.706 101.461 743.339 102.352 743.198 103.5H749.55V103.336C749.488 102.234 749.191 101.383 748.659 100.781C748.128 100.172 747.409 99.8672 746.503 99.8672ZM760.599 100.266C760.271 100.211 759.916 100.184 759.533 100.184C758.111 100.184 757.146 100.789 756.638 102V111H754.47V98.3203H756.58L756.615 99.7852C757.326 98.6523 758.334 98.0859 759.638 98.0859C760.06 98.0859 760.381 98.1406 760.599 98.25V100.266ZM770.219 107.637C770.219 107.051 769.996 106.598 769.551 106.277C769.113 105.949 768.344 105.668 767.242 105.434C766.148 105.199 765.277 104.918 764.629 104.59C763.988 104.262 763.512 103.871 763.199 103.418C762.895 102.965 762.742 102.426 762.742 101.801C762.742 100.762 763.18 99.8828 764.055 99.1641C764.938 98.4453 766.063 98.0859 767.43 98.0859C768.867 98.0859 770.031 98.457 770.922 99.1992C771.82 99.9414 772.27 100.891 772.27 102.047H770.09C770.09 101.453 769.836 100.941 769.328 100.512C768.828 100.082 768.195 99.8672 767.43 99.8672C766.641 99.8672 766.023 100.039 765.578 100.383C765.133 100.727 764.91 101.176 764.91 101.73C764.91 102.254 765.117 102.648 765.531 102.914C765.945 103.18 766.691 103.434 767.77 103.676C768.856 103.918 769.734 104.207 770.406 104.543C771.078 104.879 771.574 105.285 771.895 105.762C772.223 106.23 772.387 106.805 772.387 107.484C772.387 108.617 771.934 109.527 771.027 110.215C770.121 110.895 768.945 111.234 767.5 111.234C766.484 111.234 765.586 111.055 764.805 110.695C764.023 110.336 763.41 109.836 762.965 109.195C762.527 108.547 762.309 107.848 762.309 107.098H764.477C764.516 107.824 764.805 108.402 765.344 108.832C765.891 109.254 766.609 109.465 767.5 109.465C768.32 109.465 768.977 109.301 769.469 108.973C769.969 108.637 770.219 108.191 770.219 107.637ZM774.87 104.543C774.87 103.301 775.112 102.184 775.596 101.191C776.088 100.199 776.768 99.4336 777.635 98.8945C778.51 98.3555 779.506 98.0859 780.624 98.0859C782.35 98.0859 783.745 98.6836 784.807 99.8789C785.877 101.074 786.413 102.664 786.413 104.648V104.801C786.413 106.035 786.174 107.145 785.698 108.129C785.229 109.105 784.553 109.867 783.67 110.414C782.795 110.961 781.788 111.234 780.647 111.234C778.928 111.234 777.534 110.637 776.463 109.441C775.401 108.246 774.87 106.664 774.87 104.695V104.543ZM777.049 104.801C777.049 106.207 777.374 107.336 778.022 108.188C778.678 109.039 779.553 109.465 780.647 109.465C781.749 109.465 782.624 109.035 783.272 108.176C783.92 107.309 784.245 106.098 784.245 104.543C784.245 103.152 783.913 102.027 783.249 101.168C782.592 100.301 781.717 99.8672 780.624 99.8672C779.553 99.8672 778.69 100.293 778.034 101.145C777.377 101.996 777.049 103.215 777.049 104.801ZM791.415 98.3203L791.485 99.9141C792.454 98.6953 793.72 98.0859 795.282 98.0859C797.962 98.0859 799.313 99.5977 799.337 102.621V111H797.169V102.609C797.161 101.695 796.95 101.02 796.536 100.582C796.13 100.145 795.493 99.9258 794.626 99.9258C793.923 99.9258 793.306 100.113 792.774 100.488C792.243 100.863 791.829 101.355 791.532 101.965V111H789.364V98.3203H791.415ZM810.667 111C810.542 110.75 810.441 110.305 810.363 109.664C809.355 110.711 808.152 111.234 806.753 111.234C805.503 111.234 804.476 110.883 803.671 110.18C802.874 109.469 802.476 108.57 802.476 107.484C802.476 106.164 802.976 105.141 803.976 104.414C804.984 103.68 806.398 103.312 808.218 103.312H810.327V102.316C810.327 101.559 810.101 100.957 809.648 100.512C809.195 100.059 808.527 99.832 807.644 99.832C806.87 99.832 806.222 100.027 805.699 100.418C805.175 100.809 804.913 101.281 804.913 101.836H802.734C802.734 101.203 802.956 100.594 803.402 100.008C803.855 99.4141 804.464 98.9453 805.23 98.6016C806.003 98.2578 806.851 98.0859 807.773 98.0859C809.234 98.0859 810.378 98.4531 811.206 99.1875C812.035 99.9141 812.464 100.918 812.495 102.199V108.035C812.495 109.199 812.644 110.125 812.941 110.812V111H810.667ZM807.07 109.348C807.749 109.348 808.394 109.172 809.003 108.82C809.613 108.469 810.054 108.012 810.327 107.449V104.848H808.628C805.972 104.848 804.644 105.625 804.644 107.18C804.644 107.859 804.87 108.391 805.324 108.773C805.777 109.156 806.359 109.348 807.07 109.348Z" fill="black"/>
<rect x="1051.5" y="488.5" width="194" height="104" rx="7.5" fill="white" stroke="#CAD4DB" stroke-width="5"/>
<path d="M1085.35 548H1083.09V540.113H1074.49V548H1072.24V530.938H1074.49V538.273H1083.09V530.938H1085.35V548ZM1098.99 540.465H1091.83V548H1089.58V530.938H1100.15V532.789H1091.83V538.625H1098.99V540.465ZM1112.94 542.621L1113.27 544.871L1113.75 542.844L1117.12 530.938H1119.02L1122.32 542.844L1122.79 544.906L1123.15 542.609L1125.8 530.938H1128.06L1123.92 548H1121.87L1118.36 535.566L1118.09 534.266L1117.82 535.566L1114.17 548H1112.12L1108 530.938H1110.25L1112.94 542.621ZM1132.81 548H1130.65V535.32H1132.81V548ZM1130.47 531.957C1130.47 531.605 1130.58 531.309 1130.79 531.066C1131.01 530.824 1131.33 530.703 1131.75 530.703C1132.17 530.703 1132.49 530.824 1132.71 531.066C1132.93 531.309 1133.04 531.605 1133.04 531.957C1133.04 532.309 1132.93 532.602 1132.71 532.836C1132.49 533.07 1132.17 533.188 1131.75 533.188C1131.33 533.188 1131.01 533.07 1130.79 532.836C1130.58 532.602 1130.47 532.309 1130.47 531.957ZM1142.66 537.266C1142.33 537.211 1141.97 537.184 1141.59 537.184C1140.17 537.184 1139.2 537.789 1138.7 539V548H1136.53V535.32H1138.64L1138.67 536.785C1139.38 535.652 1140.39 535.086 1141.7 535.086C1142.12 535.086 1142.44 535.141 1142.66 535.25V537.266ZM1149.92 548.234C1148.2 548.234 1146.8 547.672 1145.73 546.547C1144.65 545.414 1144.11 543.902 1144.11 542.012V541.613C1144.11 540.355 1144.35 539.234 1144.82 538.25C1145.31 537.258 1145.98 536.484 1146.84 535.93C1147.71 535.367 1148.64 535.086 1149.65 535.086C1151.3 535.086 1152.58 535.629 1153.5 536.715C1154.41 537.801 1154.87 539.355 1154.87 541.379V542.281H1146.28C1146.31 543.531 1146.67 544.543 1147.37 545.316C1148.07 546.082 1148.96 546.465 1150.04 546.465C1150.8 546.465 1151.45 546.309 1151.98 545.996C1152.51 545.684 1152.98 545.27 1153.38 544.754L1154.7 545.785C1153.64 547.418 1152.05 548.234 1149.92 548.234ZM1149.65 536.867C1148.78 536.867 1148.04 537.188 1147.45 537.828C1146.85 538.461 1146.49 539.352 1146.35 540.5H1152.7V540.336C1152.64 539.234 1152.34 538.383 1151.81 537.781C1151.28 537.172 1150.56 536.867 1149.65 536.867ZM1158.69 548V536.996H1156.68V535.32H1158.69V534.02C1158.69 532.66 1159.05 531.609 1159.78 530.867C1160.5 530.125 1161.53 529.754 1162.86 529.754C1163.36 529.754 1163.85 529.82 1164.35 529.953L1164.23 531.711C1163.86 531.641 1163.47 531.605 1163.06 531.605C1162.35 531.605 1161.81 531.812 1161.43 532.227C1161.04 532.633 1160.85 533.219 1160.85 533.984V535.32H1163.56V536.996H1160.85V548H1158.69ZM1172.32 537.266C1172 537.211 1171.64 537.184 1171.26 537.184C1169.84 537.184 1168.87 537.789 1168.36 539V548H1166.2V535.32H1168.3L1168.34 536.785C1169.05 535.652 1170.06 535.086 1171.36 535.086C1171.79 535.086 1172.11 535.141 1172.32 535.25V537.266ZM1181.92 548C1181.8 547.75 1181.69 547.305 1181.62 546.664C1180.61 547.711 1179.4 548.234 1178.01 548.234C1176.76 548.234 1175.73 547.883 1174.92 547.18C1174.13 546.469 1173.73 545.57 1173.73 544.484C1173.73 543.164 1174.23 542.141 1175.23 541.414C1176.24 540.68 1177.65 540.312 1179.47 540.312H1181.58V539.316C1181.58 538.559 1181.35 537.957 1180.9 537.512C1180.45 537.059 1179.78 536.832 1178.9 536.832C1178.12 536.832 1177.48 537.027 1176.95 537.418C1176.43 537.809 1176.17 538.281 1176.17 538.836H1173.99C1173.99 538.203 1174.21 537.594 1174.65 537.008C1175.11 536.414 1175.72 535.945 1176.48 535.602C1177.26 535.258 1178.1 535.086 1179.03 535.086C1180.49 535.086 1181.63 535.453 1182.46 536.188C1183.29 536.914 1183.72 537.918 1183.75 539.199V545.035C1183.75 546.199 1183.9 547.125 1184.19 547.812V548H1181.92ZM1178.32 546.348C1179 546.348 1179.65 546.172 1180.26 545.82C1180.87 545.469 1181.31 545.012 1181.58 544.449V541.848H1179.88C1177.23 541.848 1175.9 542.625 1175.9 544.18C1175.9 544.859 1176.12 545.391 1176.58 545.773C1177.03 546.156 1177.61 546.348 1178.32 546.348ZM1189.42 535.32L1189.48 536.727C1190.41 535.633 1191.66 535.086 1193.24 535.086C1195.01 535.086 1196.22 535.766 1196.86 537.125C1197.28 536.516 1197.83 536.023 1198.5 535.648C1199.18 535.273 1199.98 535.086 1200.9 535.086C1203.68 535.086 1205.1 536.559 1205.15 539.504V548H1202.98V539.633C1202.98 538.727 1202.77 538.051 1202.36 537.605C1201.94 537.152 1201.25 536.926 1200.27 536.926C1199.47 536.926 1198.8 537.168 1198.27 537.652C1197.74 538.129 1197.43 538.773 1197.34 539.586V548H1195.16V539.691C1195.16 537.848 1194.26 536.926 1192.45 536.926C1191.03 536.926 1190.06 537.531 1189.54 538.742V548H1187.37V535.32H1189.42ZM1213.92 548.234C1212.2 548.234 1210.8 547.672 1209.73 546.547C1208.65 545.414 1208.11 543.902 1208.11 542.012V541.613C1208.11 540.355 1208.35 539.234 1208.82 538.25C1209.31 537.258 1209.98 536.484 1210.84 535.93C1211.71 535.367 1212.64 535.086 1213.65 535.086C1215.3 535.086 1216.58 535.629 1217.5 536.715C1218.41 537.801 1218.87 539.355 1218.87 541.379V542.281H1210.28C1210.31 543.531 1210.67 544.543 1211.37 545.316C1212.07 546.082 1212.96 546.465 1214.04 546.465C1214.8 546.465 1215.45 546.309 1215.98 545.996C1216.51 545.684 1216.98 545.27 1217.38 544.754L1218.7 545.785C1217.64 547.418 1216.05 548.234 1213.92 548.234ZM1213.65 536.867C1212.78 536.867 1212.04 537.188 1211.45 537.828C1210.85 538.461 1210.49 539.352 1210.35 540.5H1216.7V540.336C1216.64 539.234 1216.34 538.383 1215.81 537.781C1215.28 537.172 1214.56 536.867 1213.65 536.867Z" fill="black"/>
<rect x="208.5" y="488.5" width="194" height="104" rx="7.5" fill="white" stroke="#CAD4DB" stroke-width="5"/>
<path d="M259.843 540.395C257.913 539.84 256.507 539.16 255.624 538.355C254.749 537.543 254.312 536.543 254.312 535.355C254.312 534.012 254.847 532.902 255.917 532.027C256.995 531.145 258.394 530.703 260.112 530.703C261.284 530.703 262.327 530.93 263.241 531.383C264.163 531.836 264.874 532.461 265.374 533.258C265.882 534.055 266.136 534.926 266.136 535.871H263.874C263.874 534.84 263.546 534.031 262.89 533.445C262.233 532.852 261.308 532.555 260.112 532.555C259.003 532.555 258.136 532.801 257.511 533.293C256.894 533.777 256.585 534.453 256.585 535.32C256.585 536.016 256.878 536.605 257.464 537.09C258.058 537.566 259.062 538.004 260.476 538.402C261.898 538.801 263.007 539.242 263.804 539.727C264.608 540.203 265.202 540.762 265.585 541.402C265.976 542.043 266.171 542.797 266.171 543.664C266.171 545.047 265.632 546.156 264.554 546.992C263.476 547.82 262.034 548.234 260.23 548.234C259.058 548.234 257.964 548.012 256.948 547.566C255.933 547.113 255.148 546.496 254.593 545.715C254.046 544.934 253.773 544.047 253.773 543.055H256.034C256.034 544.086 256.413 544.902 257.171 545.504C257.937 546.098 258.956 546.395 260.23 546.395C261.417 546.395 262.327 546.152 262.96 545.668C263.593 545.184 263.909 544.523 263.909 543.688C263.909 542.852 263.616 542.207 263.03 541.754C262.444 541.293 261.382 540.84 259.843 540.395ZM271.9 532.25V535.32H274.267V536.996H271.9V544.859C271.9 545.367 272.005 545.75 272.216 546.008C272.427 546.258 272.787 546.383 273.294 546.383C273.544 546.383 273.888 546.336 274.326 546.242V548C273.755 548.156 273.201 548.234 272.662 548.234C271.693 548.234 270.962 547.941 270.47 547.355C269.978 546.77 269.732 545.938 269.732 544.859V536.996H267.423V535.32H269.732V532.25H271.9ZM281.191 544.824L284.144 535.32H286.465L281.367 549.957C280.578 552.066 279.324 553.121 277.605 553.121L277.195 553.086L276.387 552.934V551.176L276.973 551.223C277.707 551.223 278.277 551.074 278.684 550.777C279.098 550.48 279.437 549.938 279.703 549.148L280.184 547.859L275.66 535.32H278.027L281.191 544.824ZM290.998 548H288.83V530H290.998V548ZM299.973 548.234C298.255 548.234 296.856 547.672 295.778 546.547C294.7 545.414 294.161 543.902 294.161 542.012V541.613C294.161 540.355 294.399 539.234 294.876 538.25C295.36 537.258 296.032 536.484 296.891 535.93C297.759 535.367 298.696 535.086 299.704 535.086C301.352 535.086 302.634 535.629 303.548 536.715C304.462 537.801 304.919 539.355 304.919 541.379V542.281H296.329C296.36 543.531 296.723 544.543 297.419 545.316C298.122 546.082 299.012 546.465 300.091 546.465C300.856 546.465 301.505 546.309 302.036 545.996C302.567 545.684 303.032 545.27 303.43 544.754L304.755 545.785C303.692 547.418 302.098 548.234 299.973 548.234ZM299.704 536.867C298.829 536.867 298.095 537.188 297.501 537.828C296.907 538.461 296.54 539.352 296.399 540.5H302.751V540.336C302.688 539.234 302.391 538.383 301.86 537.781C301.329 537.172 300.61 536.867 299.704 536.867ZM325.517 532.789H320.033V548H317.795V532.789H312.322V530.938H325.517V532.789ZM330.297 548H328.129V535.32H330.297V548ZM327.953 531.957C327.953 531.605 328.059 531.309 328.27 531.066C328.488 530.824 328.809 530.703 329.231 530.703C329.652 530.703 329.973 530.824 330.191 531.066C330.41 531.309 330.52 531.605 330.52 531.957C330.52 532.309 330.41 532.602 330.191 532.836C329.973 533.07 329.652 533.188 329.231 533.188C328.809 533.188 328.488 533.07 328.27 532.836C328.059 532.602 327.953 532.309 327.953 531.957ZM336.366 548H334.198V530H336.366V548ZM345.341 548.234C343.622 548.234 342.224 547.672 341.145 546.547C340.067 545.414 339.528 543.902 339.528 542.012V541.613C339.528 540.355 339.767 539.234 340.243 538.25C340.727 537.258 341.399 536.484 342.259 535.93C343.126 535.367 344.063 535.086 345.071 535.086C346.72 535.086 348.001 535.629 348.915 536.715C349.829 537.801 350.286 539.355 350.286 541.379V542.281H341.696C341.727 543.531 342.091 544.543 342.786 545.316C343.489 546.082 344.38 546.465 345.458 546.465C346.224 546.465 346.872 546.309 347.403 545.996C347.934 545.684 348.399 545.27 348.798 544.754L350.122 545.785C349.059 547.418 347.466 548.234 345.341 548.234ZM345.071 536.867C344.196 536.867 343.462 537.188 342.868 537.828C342.274 538.461 341.907 539.352 341.767 540.5H348.118V540.336C348.056 539.234 347.759 538.383 347.227 537.781C346.696 537.172 345.977 536.867 345.071 536.867Z" fill="black"/>
<rect x="644.5" y="488.5" width="194" height="104" rx="7.5" fill="white" stroke="#CAD4DB" stroke-width="5"/>
<path d="M687.496 540.395C685.566 539.84 684.16 539.16 683.277 538.355C682.402 537.543 681.965 536.543 681.965 535.355C681.965 534.012 682.5 532.902 683.57 532.027C684.648 531.145 686.047 530.703 687.766 530.703C688.937 530.703 689.98 530.93 690.894 531.383C691.816 531.836 692.527 532.461 693.027 533.258C693.535 534.055 693.789 534.926 693.789 535.871H691.527C691.527 534.84 691.199 534.031 690.543 533.445C689.887 532.852 688.961 532.555 687.766 532.555C686.656 532.555 685.789 532.801 685.164 533.293C684.547 533.777 684.238 534.453 684.238 535.32C684.238 536.016 684.531 536.605 685.117 537.09C685.711 537.566 686.715 538.004 688.129 538.402C689.551 538.801 690.66 539.242 691.457 539.727C692.262 540.203 692.855 540.762 693.238 541.402C693.629 542.043 693.824 542.797 693.824 543.664C693.824 545.047 693.285 546.156 692.207 546.992C691.129 547.82 689.687 548.234 687.883 548.234C686.711 548.234 685.617 548.012 684.601 547.566C683.586 547.113 682.801 546.496 682.246 545.715C681.699 544.934 681.426 544.047 681.426 543.055H683.687C683.687 544.086 684.066 544.902 684.824 545.504C685.59 546.098 686.609 546.395 687.883 546.395C689.07 546.395 689.98 546.152 690.613 545.668C691.246 545.184 691.562 544.523 691.562 543.688C691.562 542.852 691.269 542.207 690.683 541.754C690.098 541.293 689.035 540.84 687.496 540.395ZM699.553 532.25V535.32H701.92V536.996H699.553V544.859C699.553 545.367 699.659 545.75 699.869 546.008C700.08 546.258 700.44 546.383 700.948 546.383C701.198 546.383 701.541 546.336 701.979 546.242V548C701.409 548.156 700.854 548.234 700.315 548.234C699.346 548.234 698.616 547.941 698.123 547.355C697.631 546.77 697.385 545.938 697.385 544.859V536.996H695.076V535.32H697.385V532.25H699.553ZM708.844 544.824L711.798 535.32H714.118L709.02 549.957C708.231 552.066 706.977 553.121 705.259 553.121L704.848 553.086L704.04 552.934V551.176L704.626 551.223C705.36 551.223 705.93 551.074 706.337 550.777C706.751 550.48 707.091 549.938 707.356 549.148L707.837 547.859L703.313 535.32H705.68L708.844 544.824ZM718.652 548H716.484V530H718.652V548ZM727.627 548.234C725.908 548.234 724.509 547.672 723.431 546.547C722.353 545.414 721.814 543.902 721.814 542.012V541.613C721.814 540.355 722.052 539.234 722.529 538.25C723.013 537.258 723.685 536.484 724.545 535.93C725.412 535.367 726.349 535.086 727.357 535.086C729.005 535.086 730.287 535.629 731.201 536.715C732.115 537.801 732.572 539.355 732.572 541.379V542.281H723.982C724.013 543.531 724.377 544.543 725.072 545.316C725.775 546.082 726.666 546.465 727.744 546.465C728.509 546.465 729.158 546.309 729.689 545.996C730.22 545.684 730.685 545.27 731.084 544.754L732.408 545.785C731.345 547.418 729.752 548.234 727.627 548.234ZM727.357 536.867C726.482 536.867 725.748 537.188 725.154 537.828C724.56 538.461 724.193 539.352 724.052 540.5H730.404V540.336C730.341 539.234 730.045 538.383 729.513 537.781C728.982 537.172 728.263 536.867 727.357 536.867ZM754.448 545.762C753.87 546.59 753.061 547.211 752.022 547.625C750.991 548.031 749.788 548.234 748.413 548.234C747.022 548.234 745.788 547.91 744.709 547.262C743.631 546.605 742.795 545.676 742.202 544.473C741.616 543.27 741.315 541.875 741.299 540.289V538.801C741.299 536.23 741.897 534.238 743.092 532.824C744.295 531.41 745.983 530.703 748.155 530.703C749.936 530.703 751.37 531.16 752.455 532.074C753.541 532.98 754.205 534.27 754.448 535.941H752.198C751.776 533.684 750.432 532.555 748.166 532.555C746.659 532.555 745.514 533.086 744.733 534.148C743.959 535.203 743.569 536.734 743.561 538.742V540.137C743.561 542.051 743.998 543.574 744.873 544.707C745.748 545.832 746.932 546.395 748.424 546.395C749.268 546.395 750.006 546.301 750.639 546.113C751.272 545.926 751.795 545.609 752.209 545.164V541.332H748.26V539.504H754.448V545.762ZM765.931 546.746C765.087 547.738 763.848 548.234 762.216 548.234C760.864 548.234 759.833 547.844 759.122 547.062C758.419 546.273 758.063 545.109 758.056 543.57V535.32H760.223V543.512C760.223 545.434 761.005 546.395 762.567 546.395C764.223 546.395 765.325 545.777 765.872 544.543V535.32H768.04V548H765.977L765.931 546.746ZM773.933 548H771.765V535.32H773.933V548ZM771.589 531.957C771.589 531.605 771.695 531.309 771.906 531.066C772.124 530.824 772.445 530.703 772.866 530.703C773.288 530.703 773.609 530.824 773.827 531.066C774.046 531.309 774.156 531.605 774.156 531.957C774.156 532.309 774.046 532.602 773.827 532.836C773.609 533.07 773.288 533.188 772.866 533.188C772.445 533.188 772.124 533.07 771.906 532.836C771.695 532.602 771.589 532.309 771.589 531.957ZM777.119 541.555C777.119 539.609 777.58 538.047 778.502 536.867C779.424 535.68 780.631 535.086 782.123 535.086C783.607 535.086 784.783 535.594 785.65 536.609V530H787.818V548H785.826L785.72 546.641C784.853 547.703 783.646 548.234 782.099 548.234C780.631 548.234 779.431 547.633 778.502 546.43C777.58 545.227 777.119 543.656 777.119 541.719V541.555ZM779.287 541.801C779.287 543.238 779.584 544.363 780.177 545.176C780.771 545.988 781.592 546.395 782.638 546.395C784.013 546.395 785.017 545.777 785.65 544.543V538.719C785.002 537.523 784.006 536.926 782.662 536.926C781.599 536.926 780.771 537.336 780.177 538.156C779.584 538.977 779.287 540.191 779.287 541.801ZM796.688 548.234C794.969 548.234 793.57 547.672 792.492 546.547C791.414 545.414 790.875 543.902 790.875 542.012V541.613C790.875 540.355 791.113 539.234 791.59 538.25C792.074 537.258 792.746 536.484 793.606 535.93C794.473 535.367 795.41 535.086 796.418 535.086C798.067 535.086 799.348 535.629 800.262 536.715C801.176 537.801 801.633 539.355 801.633 541.379V542.281H793.043C793.074 543.531 793.438 544.543 794.133 545.316C794.836 546.082 795.727 546.465 796.805 546.465C797.57 546.465 798.219 546.309 798.75 545.996C799.281 545.684 799.746 545.27 800.145 544.754L801.469 545.785C800.406 547.418 798.813 548.234 796.688 548.234ZM796.418 536.867C795.543 536.867 794.809 537.188 794.215 537.828C793.621 538.461 793.254 539.352 793.113 540.5H799.465V540.336C799.402 539.234 799.106 538.383 798.574 537.781C798.043 537.172 797.324 536.867 796.418 536.867Z" fill="black"/>
<rect x="1273.5" y="276.5" width="194" height="104" rx="7.5" fill="white" stroke="#CAD4DB" stroke-width="5"/>
<path d="M1305.09 334.16H1313.18V336H1302.83V318.938H1305.09V334.16ZM1325.39 328.465H1318.23V336H1315.98V318.938H1326.55V320.789H1318.23V326.625H1325.39V328.465ZM1339.34 330.621L1339.67 332.871L1340.15 330.844L1343.53 318.938H1345.43L1348.72 330.844L1349.19 332.906L1349.55 330.609L1352.2 318.938H1354.46L1350.32 336H1348.27L1344.76 323.566L1344.49 322.266L1344.22 323.566L1340.57 336H1338.52L1334.4 318.938H1336.65L1339.34 330.621ZM1359.22 336H1357.05V323.32H1359.22V336ZM1356.87 319.957C1356.87 319.605 1356.98 319.309 1357.19 319.066C1357.41 318.824 1357.73 318.703 1358.15 318.703C1358.57 318.703 1358.89 318.824 1359.11 319.066C1359.33 319.309 1359.44 319.605 1359.44 319.957C1359.44 320.309 1359.33 320.602 1359.11 320.836C1358.89 321.07 1358.57 321.188 1358.15 321.188C1357.73 321.188 1357.41 321.07 1357.19 320.836C1356.98 320.602 1356.87 320.309 1356.87 319.957ZM1369.06 325.266C1368.73 325.211 1368.38 325.184 1367.99 325.184C1366.57 325.184 1365.61 325.789 1365.1 327V336H1362.93V323.32H1365.04L1365.07 324.785C1365.79 323.652 1366.79 323.086 1368.1 323.086C1368.52 323.086 1368.84 323.141 1369.06 323.25V325.266ZM1376.32 336.234C1374.6 336.234 1373.21 335.672 1372.13 334.547C1371.05 333.414 1370.51 331.902 1370.51 330.012V329.613C1370.51 328.355 1370.75 327.234 1371.23 326.25C1371.71 325.258 1372.38 324.484 1373.24 323.93C1374.11 323.367 1375.05 323.086 1376.05 323.086C1377.7 323.086 1378.98 323.629 1379.9 324.715C1380.81 325.801 1381.27 327.355 1381.27 329.379V330.281H1372.68C1372.71 331.531 1373.07 332.543 1373.77 333.316C1374.47 334.082 1375.36 334.465 1376.44 334.465C1377.21 334.465 1377.85 334.309 1378.39 333.996C1378.92 333.684 1379.38 333.27 1379.78 332.754L1381.1 333.785C1380.04 335.418 1378.45 336.234 1376.32 336.234ZM1376.05 324.867C1375.18 324.867 1374.44 325.188 1373.85 325.828C1373.26 326.461 1372.89 327.352 1372.75 328.5H1379.1V328.336C1379.04 327.234 1378.74 326.383 1378.21 325.781C1377.68 325.172 1376.96 324.867 1376.05 324.867ZM1385.09 336V324.996H1383.08V323.32H1385.09V322.02C1385.09 320.66 1385.45 319.609 1386.18 318.867C1386.9 318.125 1387.93 317.754 1389.26 317.754C1389.76 317.754 1390.26 317.82 1390.75 317.953L1390.63 319.711C1390.26 319.641 1389.87 319.605 1389.46 319.605C1388.76 319.605 1388.21 319.812 1387.83 320.227C1387.45 320.633 1387.26 321.219 1387.26 321.984V323.32H1389.96V324.996H1387.26V336H1385.09ZM1398.73 325.266C1398.4 325.211 1398.04 325.184 1397.66 325.184C1396.24 325.184 1395.27 325.789 1394.77 327V336H1392.6V323.32H1394.71L1394.74 324.785C1395.45 323.652 1396.46 323.086 1397.77 323.086C1398.19 323.086 1398.51 323.141 1398.73 323.25V325.266ZM1408.32 336C1408.2 335.75 1408.1 335.305 1408.02 334.664C1407.01 335.711 1405.81 336.234 1404.41 336.234C1403.16 336.234 1402.13 335.883 1401.33 335.18C1400.53 334.469 1400.13 333.57 1400.13 332.484C1400.13 331.164 1400.63 330.141 1401.63 329.414C1402.64 328.68 1404.05 328.312 1405.87 328.312H1407.98V327.316C1407.98 326.559 1407.76 325.957 1407.3 325.512C1406.85 325.059 1406.18 324.832 1405.3 324.832C1404.53 324.832 1403.88 325.027 1403.35 325.418C1402.83 325.809 1402.57 326.281 1402.57 326.836H1400.39C1400.39 326.203 1400.61 325.594 1401.06 325.008C1401.51 324.414 1402.12 323.945 1402.89 323.602C1403.66 323.258 1404.51 323.086 1405.43 323.086C1406.89 323.086 1408.03 323.453 1408.86 324.188C1409.69 324.914 1410.12 325.918 1410.15 327.199V333.035C1410.15 334.199 1410.3 335.125 1410.6 335.812V336H1408.32ZM1404.73 334.348C1405.4 334.348 1406.05 334.172 1406.66 333.82C1407.27 333.469 1407.71 333.012 1407.98 332.449V329.848H1406.28C1403.63 329.848 1402.3 330.625 1402.3 332.18C1402.3 332.859 1402.53 333.391 1402.98 333.773C1403.43 334.156 1404.01 334.348 1404.73 334.348ZM1415.82 323.32L1415.88 324.727C1416.81 323.633 1418.06 323.086 1419.64 323.086C1421.41 323.086 1422.62 323.766 1423.26 325.125C1423.68 324.516 1424.23 324.023 1424.9 323.648C1425.58 323.273 1426.38 323.086 1427.31 323.086C1430.09 323.086 1431.5 324.559 1431.55 327.504V336H1429.38V327.633C1429.38 326.727 1429.17 326.051 1428.76 325.605C1428.34 325.152 1427.65 324.926 1426.67 324.926C1425.87 324.926 1425.2 325.168 1424.67 325.652C1424.14 326.129 1423.83 326.773 1423.74 327.586V336H1421.56V327.691C1421.56 325.848 1420.66 324.926 1418.86 324.926C1417.43 324.926 1416.46 325.531 1415.94 326.742V336H1413.77V323.32H1415.82ZM1440.32 336.234C1438.6 336.234 1437.21 335.672 1436.13 334.547C1435.05 333.414 1434.51 331.902 1434.51 330.012V329.613C1434.51 328.355 1434.75 327.234 1435.23 326.25C1435.71 325.258 1436.38 324.484 1437.24 323.93C1438.11 323.367 1439.05 323.086 1440.05 323.086C1441.7 323.086 1442.98 323.629 1443.9 324.715C1444.81 325.801 1445.27 327.355 1445.27 329.379V330.281H1436.68C1436.71 331.531 1437.07 332.543 1437.77 333.316C1438.47 334.082 1439.36 334.465 1440.44 334.465C1441.21 334.465 1441.85 334.309 1442.39 333.996C1442.92 333.684 1443.38 333.27 1443.78 332.754L1445.1 333.785C1444.04 335.418 1442.45 336.234 1440.32 336.234ZM1440.05 324.867C1439.18 324.867 1438.44 325.188 1437.85 325.828C1437.26 326.461 1436.89 327.352 1436.75 328.5H1443.1V328.336C1443.04 327.234 1442.74 326.383 1442.21 325.781C1441.68 325.172 1440.96 324.867 1440.05 324.867Z" fill="black"/>
<rect x="845.5" y="276.5" width="194" height="104" rx="7.5" fill="white" stroke="#CAD4DB" stroke-width="5"/>
<path d="M863 333.012L867.875 318.938H870.336L864.008 336H862.015L855.699 318.938H858.148L863 333.012ZM874.881 336H872.713V323.32H874.881V336ZM872.537 319.957C872.537 319.605 872.643 319.309 872.854 319.066C873.073 318.824 873.393 318.703 873.815 318.703C874.237 318.703 874.557 318.824 874.776 319.066C874.994 319.309 875.104 319.605 875.104 319.957C875.104 320.309 874.994 320.602 874.776 320.836C874.557 321.07 874.237 321.188 873.815 321.188C873.393 321.188 873.073 321.07 872.854 320.836C872.643 320.602 872.537 320.309 872.537 319.957ZM885.977 332.637C885.977 332.051 885.755 331.598 885.309 331.277C884.872 330.949 884.102 330.668 883.001 330.434C881.907 330.199 881.036 329.918 880.387 329.59C879.747 329.262 879.27 328.871 878.958 328.418C878.653 327.965 878.501 327.426 878.501 326.801C878.501 325.762 878.938 324.883 879.813 324.164C880.696 323.445 881.821 323.086 883.188 323.086C884.626 323.086 885.79 323.457 886.68 324.199C887.579 324.941 888.028 325.891 888.028 327.047H885.848C885.848 326.453 885.594 325.941 885.087 325.512C884.587 325.082 883.954 324.867 883.188 324.867C882.399 324.867 881.782 325.039 881.337 325.383C880.891 325.727 880.669 326.176 880.669 326.73C880.669 327.254 880.876 327.648 881.29 327.914C881.704 328.18 882.45 328.434 883.528 328.676C884.614 328.918 885.493 329.207 886.165 329.543C886.837 329.879 887.333 330.285 887.653 330.762C887.981 331.23 888.145 331.805 888.145 332.484C888.145 333.617 887.692 334.527 886.786 335.215C885.88 335.895 884.704 336.234 883.258 336.234C882.243 336.234 881.344 336.055 880.563 335.695C879.782 335.336 879.169 334.836 878.723 334.195C878.286 333.547 878.067 332.848 878.067 332.098H880.235C880.274 332.824 880.563 333.402 881.102 333.832C881.649 334.254 882.368 334.465 883.258 334.465C884.079 334.465 884.735 334.301 885.227 333.973C885.727 333.637 885.977 333.191 885.977 332.637ZM899.03 334.746C898.187 335.738 896.948 336.234 895.316 336.234C893.964 336.234 892.933 335.844 892.222 335.062C891.519 334.273 891.163 333.109 891.155 331.57V323.32H893.323V331.512C893.323 333.434 894.105 334.395 895.667 334.395C897.323 334.395 898.425 333.777 898.972 332.543V323.32H901.14V336H899.077L899.03 334.746ZM912.505 336C912.38 335.75 912.279 335.305 912.201 334.664C911.193 335.711 909.99 336.234 908.591 336.234C907.341 336.234 906.314 335.883 905.509 335.18C904.712 334.469 904.314 333.57 904.314 332.484C904.314 331.164 904.814 330.141 905.814 329.414C906.822 328.68 908.236 328.312 910.056 328.312H912.166V327.316C912.166 326.559 911.939 325.957 911.486 325.512C911.033 325.059 910.365 324.832 909.482 324.832C908.709 324.832 908.06 325.027 907.537 325.418C907.013 325.809 906.751 326.281 906.751 326.836H904.572C904.572 326.203 904.794 325.594 905.24 325.008C905.693 324.414 906.302 323.945 907.068 323.602C907.841 323.258 908.689 323.086 909.611 323.086C911.072 323.086 912.216 323.453 913.044 324.188C913.873 324.914 914.302 325.918 914.334 327.199V333.035C914.334 334.199 914.482 335.125 914.779 335.812V336H912.505ZM908.908 334.348C909.587 334.348 910.232 334.172 910.841 333.82C911.451 333.469 911.892 333.012 912.166 332.449V329.848H910.466C907.81 329.848 906.482 330.625 906.482 332.18C906.482 332.859 906.709 333.391 907.162 333.773C907.615 334.156 908.197 334.348 908.908 334.348ZM920.32 336H918.152V318H920.32V336ZM932.821 334.16H940.907V336H930.559V318.938H932.821V334.16ZM951.195 336C951.07 335.75 950.968 335.305 950.89 334.664C949.882 335.711 948.679 336.234 947.28 336.234C946.03 336.234 945.003 335.883 944.198 335.18C943.402 334.469 943.003 333.57 943.003 332.484C943.003 331.164 943.503 330.141 944.503 329.414C945.511 328.68 946.925 328.312 948.745 328.312H950.855V327.316C950.855 326.559 950.628 325.957 950.175 325.512C949.722 325.059 949.054 324.832 948.171 324.832C947.398 324.832 946.749 325.027 946.226 325.418C945.702 325.809 945.441 326.281 945.441 326.836H943.261C943.261 326.203 943.484 325.594 943.929 325.008C944.382 324.414 944.991 323.945 945.757 323.602C946.53 323.258 947.378 323.086 948.3 323.086C949.761 323.086 950.905 323.453 951.734 324.188C952.562 324.914 952.991 325.918 953.023 327.199V333.035C953.023 334.199 953.171 335.125 953.468 335.812V336H951.195ZM947.597 334.348C948.277 334.348 948.921 334.172 949.53 333.82C950.14 333.469 950.581 333.012 950.855 332.449V329.848H949.155C946.499 329.848 945.171 330.625 945.171 332.18C945.171 332.859 945.398 333.391 945.851 333.773C946.304 334.156 946.886 334.348 947.597 334.348ZM958.705 323.32L958.775 324.914C959.744 323.695 961.009 323.086 962.572 323.086C965.252 323.086 966.603 324.598 966.627 327.621V336H964.459V327.609C964.451 326.695 964.24 326.02 963.826 325.582C963.42 325.145 962.783 324.926 961.916 324.926C961.213 324.926 960.595 325.113 960.064 325.488C959.533 325.863 959.119 326.355 958.822 326.965V336H956.654V323.32H958.705ZM969.613 329.555C969.613 327.578 970.07 326.008 970.984 324.844C971.898 323.672 973.109 323.086 974.617 323.086C976.164 323.086 977.371 323.633 978.238 324.727L978.344 323.32H980.324V335.695C980.324 337.336 979.836 338.629 978.859 339.574C977.891 340.52 976.586 340.992 974.945 340.992C974.031 340.992 973.137 340.797 972.262 340.406C971.387 340.016 970.719 339.48 970.258 338.801L971.383 337.5C972.313 338.648 973.449 339.223 974.793 339.223C975.848 339.223 976.668 338.926 977.254 338.332C977.848 337.738 978.145 336.902 978.145 335.824V334.734C977.277 335.734 976.094 336.234 974.594 336.234C973.109 336.234 971.906 335.637 970.984 334.441C970.07 333.246 969.613 331.617 969.613 329.555ZM971.793 329.801C971.793 331.23 972.086 332.355 972.672 333.176C973.258 333.988 974.078 334.395 975.133 334.395C976.5 334.395 977.504 333.773 978.145 332.531V326.742C977.481 325.531 976.484 324.926 975.156 324.926C974.102 324.926 973.277 325.336 972.684 326.156C972.09 326.977 971.793 328.191 971.793 329.801ZM991.666 334.746C990.823 335.738 989.584 336.234 987.952 336.234C986.6 336.234 985.569 335.844 984.858 335.062C984.155 334.273 983.799 333.109 983.791 331.57V323.32H985.959V331.512C985.959 333.434 986.741 334.395 988.303 334.395C989.959 334.395 991.061 333.777 991.608 332.543V323.32H993.776V336H991.713L991.666 334.746ZM1005.14 336C1005.02 335.75 1004.91 335.305 1004.84 334.664C1003.83 335.711 1002.63 336.234 1001.23 336.234C999.977 336.234 998.95 335.883 998.145 335.18C997.349 334.469 996.95 333.57 996.95 332.484C996.95 331.164 997.45 330.141 998.45 329.414C999.458 328.68 1000.87 328.312 1002.69 328.312H1004.8V327.316C1004.8 326.559 1004.58 325.957 1004.12 325.512C1003.67 325.059 1003 324.832 1002.12 324.832C1001.34 324.832 1000.7 325.027 1000.17 325.418C999.649 325.809 999.388 326.281 999.388 326.836H997.208C997.208 326.203 997.431 325.594 997.876 325.008C998.329 324.414 998.938 323.945 999.704 323.602C1000.48 323.258 1001.33 323.086 1002.25 323.086C1003.71 323.086 1004.85 323.453 1005.68 324.188C1006.51 324.914 1006.94 325.918 1006.97 327.199V333.035C1006.97 334.199 1007.12 335.125 1007.41 335.812V336H1005.14ZM1001.54 334.348C1002.22 334.348 1002.87 334.172 1003.48 333.82C1004.09 333.469 1004.53 333.012 1004.8 332.449V329.848H1003.1C1000.45 329.848 999.118 330.625 999.118 332.18C999.118 332.859 999.345 333.391 999.798 333.773C1000.25 334.156 1000.83 334.348 1001.54 334.348ZM1010.09 329.555C1010.09 327.578 1010.54 326.008 1011.46 324.844C1012.37 323.672 1013.58 323.086 1015.09 323.086C1016.64 323.086 1017.84 323.633 1018.71 324.727L1018.82 323.32H1020.8V335.695C1020.8 337.336 1020.31 338.629 1019.33 339.574C1018.36 340.52 1017.06 340.992 1015.42 340.992C1014.5 340.992 1013.61 340.797 1012.73 340.406C1011.86 340.016 1011.19 339.48 1010.73 338.801L1011.85 337.5C1012.78 338.648 1013.92 339.223 1015.26 339.223C1016.32 339.223 1017.14 338.926 1017.73 338.332C1018.32 337.738 1018.62 336.902 1018.62 335.824V334.734C1017.75 335.734 1016.57 336.234 1015.07 336.234C1013.58 336.234 1012.38 335.637 1011.46 334.441C1010.54 333.246 1010.09 331.617 1010.09 329.555ZM1012.26 329.801C1012.26 331.23 1012.56 332.355 1013.14 333.176C1013.73 333.988 1014.55 334.395 1015.6 334.395C1016.97 334.395 1017.98 333.773 1018.62 332.531V326.742C1017.95 325.531 1016.96 324.926 1015.63 324.926C1014.57 324.926 1013.75 325.336 1013.16 326.156C1012.56 326.977 1012.26 328.191 1012.26 329.801ZM1029.57 336.234C1027.85 336.234 1026.45 335.672 1025.38 334.547C1024.3 333.414 1023.76 331.902 1023.76 330.012V329.613C1023.76 328.355 1024 327.234 1024.47 326.25C1024.96 325.258 1025.63 324.484 1026.49 323.93C1027.36 323.367 1028.29 323.086 1029.3 323.086C1030.95 323.086 1032.23 323.629 1033.15 324.715C1034.06 325.801 1034.52 327.355 1034.52 329.379V330.281H1025.93C1025.96 331.531 1026.32 332.543 1027.02 333.316C1027.72 334.082 1028.61 334.465 1029.69 334.465C1030.45 334.465 1031.1 334.309 1031.63 333.996C1032.17 333.684 1032.63 333.27 1033.03 332.754L1034.35 333.785C1033.29 335.418 1031.7 336.234 1029.57 336.234ZM1029.3 324.867C1028.43 324.867 1027.69 325.188 1027.1 325.828C1026.51 326.461 1026.14 327.352 1026 328.5H1032.35V328.336C1032.29 327.234 1031.99 326.383 1031.46 325.781C1030.93 325.172 1030.21 324.867 1029.3 324.867Z" fill="black"/>
<rect x="1051.5" y="51.5" width="194" height="104" rx="7.5" fill="white" stroke="#CAD4DB" stroke-width="5"/>
<path d="M1108.77 93.9375V105.539C1108.76 107.148 1108.25 108.465 1107.24 109.488C1106.24 110.512 1104.89 111.086 1103.17 111.211L1102.57 111.234C1100.7 111.234 1099.21 110.73 1098.1 109.723C1096.99 108.715 1096.43 107.328 1096.42 105.562V93.9375H1098.64V105.492C1098.64 106.727 1098.98 107.688 1099.66 108.375C1100.34 109.055 1101.31 109.395 1102.57 109.395C1103.84 109.395 1104.81 109.055 1105.49 108.375C1106.17 107.695 1106.51 106.738 1106.51 105.504V93.9375H1108.77ZM1119.59 107.637C1119.59 107.051 1119.37 106.598 1118.93 106.277C1118.49 105.949 1117.72 105.668 1116.62 105.434C1115.52 105.199 1114.65 104.918 1114 104.59C1113.36 104.262 1112.89 103.871 1112.57 103.418C1112.27 102.965 1112.12 102.426 1112.12 101.801C1112.12 100.762 1112.56 99.8828 1113.43 99.1641C1114.31 98.4453 1115.44 98.0859 1116.81 98.0859C1118.24 98.0859 1119.41 98.457 1120.3 99.1992C1121.2 99.9414 1121.65 100.891 1121.65 102.047H1119.47C1119.47 101.453 1119.21 100.941 1118.7 100.512C1118.2 100.082 1117.57 99.8672 1116.81 99.8672C1116.02 99.8672 1115.4 100.039 1114.95 100.383C1114.51 100.727 1114.29 101.176 1114.29 101.73C1114.29 102.254 1114.49 102.648 1114.91 102.914C1115.32 103.18 1116.07 103.434 1117.15 103.676C1118.23 103.918 1119.11 104.207 1119.78 104.543C1120.45 104.879 1120.95 105.285 1121.27 105.762C1121.6 106.23 1121.76 106.805 1121.76 107.484C1121.76 108.617 1121.31 109.527 1120.4 110.215C1119.5 110.895 1118.32 111.234 1116.88 111.234C1115.86 111.234 1114.96 111.055 1114.18 110.695C1113.4 110.336 1112.79 109.836 1112.34 109.195C1111.9 108.547 1111.68 107.848 1111.68 107.098H1113.85C1113.89 107.824 1114.18 108.402 1114.72 108.832C1115.27 109.254 1115.99 109.465 1116.88 109.465C1117.7 109.465 1118.35 109.301 1118.84 108.973C1119.34 108.637 1119.59 108.191 1119.59 107.637ZM1130.08 111.234C1128.36 111.234 1126.96 110.672 1125.89 109.547C1124.81 108.414 1124.27 106.902 1124.27 105.012V104.613C1124.27 103.355 1124.51 102.234 1124.98 101.25C1125.47 100.258 1126.14 99.4844 1127 98.9297C1127.87 98.3672 1128.8 98.0859 1129.81 98.0859C1131.46 98.0859 1132.74 98.6289 1133.66 99.7148C1134.57 100.801 1135.03 102.355 1135.03 104.379V105.281H1126.44C1126.47 106.531 1126.83 107.543 1127.53 108.316C1128.23 109.082 1129.12 109.465 1130.2 109.465C1130.96 109.465 1131.61 109.309 1132.14 108.996C1132.67 108.684 1133.14 108.27 1133.54 107.754L1134.86 108.785C1133.8 110.418 1132.21 111.234 1130.08 111.234ZM1129.81 99.8672C1128.94 99.8672 1128.2 100.188 1127.61 100.828C1127.01 101.461 1126.65 102.352 1126.51 103.5H1132.86V103.336C1132.8 102.234 1132.5 101.383 1131.97 100.781C1131.44 100.172 1130.72 99.8672 1129.81 99.8672ZM1143.91 100.266C1143.58 100.211 1143.22 100.184 1142.84 100.184C1141.42 100.184 1140.45 100.789 1139.95 102V111H1137.78V98.3203H1139.89L1139.92 99.7852C1140.63 98.6523 1141.64 98.0859 1142.95 98.0859C1143.37 98.0859 1143.69 98.1406 1143.91 98.25V100.266ZM1162.08 103.465H1154.92V111H1152.67V93.9375H1163.24V95.7891H1154.92V101.625H1162.08V103.465ZM1168.18 111H1166.02V93H1168.18V111ZM1171.32 104.543C1171.32 103.301 1171.57 102.184 1172.05 101.191C1172.54 100.199 1173.22 99.4336 1174.09 98.8945C1174.96 98.3555 1175.96 98.0859 1177.08 98.0859C1178.8 98.0859 1180.2 98.6836 1181.26 99.8789C1182.33 101.074 1182.87 102.664 1182.87 104.648V104.801C1182.87 106.035 1182.63 107.145 1182.15 108.129C1181.68 109.105 1181.01 109.867 1180.12 110.414C1179.25 110.961 1178.24 111.234 1177.1 111.234C1175.38 111.234 1173.99 110.637 1172.92 109.441C1171.85 108.246 1171.32 106.664 1171.32 104.695V104.543ZM1173.5 104.801C1173.5 106.207 1173.83 107.336 1174.48 108.188C1175.13 109.039 1176.01 109.465 1177.1 109.465C1178.2 109.465 1179.08 109.035 1179.73 108.176C1180.37 107.309 1180.7 106.098 1180.7 104.543C1180.7 103.152 1180.37 102.027 1179.7 101.168C1179.05 100.301 1178.17 99.8672 1177.08 99.8672C1176.01 99.8672 1175.14 100.293 1174.49 101.145C1173.83 101.996 1173.5 103.215 1173.5 104.801ZM1197.04 108.012L1199.48 98.3203H1201.65L1197.96 111H1196.2L1193.12 101.391L1190.12 111H1188.36L1184.68 98.3203H1186.84L1189.33 107.812L1192.29 98.3203H1194.03L1197.04 108.012Z" fill="black"/>
<g filter="url(#filter0_d)">
<path d="M631.561 105.061C632.146 104.475 632.146 103.525 631.561 102.939L622.015 93.3934C621.429 92.8076 620.479 92.8076 619.893 93.3934C619.308 93.9792 619.308 94.9289 619.893 95.5147L628.379 104L619.893 112.485C619.308 113.071 619.308 114.021 619.893 114.607C620.479 115.192 621.429 115.192 622.015 114.607L631.561 105.061ZM452 105.5H630.5V102.5H452V105.5Z" fill="black"/>
</g>
<g filter="url(#filter1_d)">
<path d="M640.939 327.939C640.354 328.525 640.354 329.475 640.939 330.061L650.485 339.607C651.071 340.192 652.021 340.192 652.607 339.607C653.192 339.021 653.192 338.071 652.607 337.485L644.121 329L652.607 320.515C653.192 319.929 653.192 318.979 652.607 318.393C652.021 317.808 651.071 317.808 650.485 318.393L640.939 327.939ZM820.5 327.5L642 327.5V330.5L820.5 330.5V327.5Z" fill="black"/>
</g>
<g filter="url(#filter2_d)">
<path d="M1039.56 542.061C1040.15 541.475 1040.15 540.525 1039.56 539.939L1030.01 530.393C1029.43 529.808 1028.48 529.808 1027.89 530.393C1027.31 530.979 1027.31 531.929 1027.89 532.515L1036.38 541L1027.89 549.485C1027.31 550.071 1027.31 551.021 1027.89 551.607C1028.48 552.192 1029.43 552.192 1030.01 551.607L1039.56 542.061ZM860 542.5L1038.5 542.5V539.5L860 539.5V542.5Z" fill="black"/>
</g>
<g filter="url(#filter3_d)">
<path d="M601.561 542.061C602.146 541.475 602.146 540.525 601.561 539.939L592.015 530.393C591.429 529.808 590.479 529.808 589.893 530.393C589.308 530.979 589.308 531.929 589.893 532.515L598.379 541L589.893 549.485C589.308 550.071 589.308 551.021 589.893 551.607C590.479 552.192 591.429 552.192 592.015 551.607L601.561 542.061ZM422 542.5L600.5 542.5V539.5L422 539.5V542.5Z" fill="black"/>
</g>
<g filter="url(#filter4_d)">
<path d="M1068.94 327.939C1068.35 328.525 1068.35 329.475 1068.94 330.061L1078.49 339.607C1079.07 340.192 1080.02 340.192 1080.61 339.607C1081.19 339.021 1081.19 338.071 1080.61 337.485L1072.12 329L1080.61 320.515C1081.19 319.929 1081.19 318.979 1080.61 318.393C1080.02 317.808 1079.07 317.808 1078.49 318.393L1068.94 327.939ZM1248.5 327.5L1070 327.5V330.5L1248.5 330.5V327.5Z" fill="black"/>
</g>
<g filter="url(#filter5_d)">
<path d="M1032.56 105.061C1033.15 104.475 1033.15 103.525 1032.56 102.939L1023.01 93.3934C1022.43 92.8076 1021.48 92.8076 1020.89 93.3934C1020.31 93.9792 1020.31 94.9289 1020.89 95.5147L1029.38 104L1020.89 112.485C1020.31 113.071 1020.31 114.021 1020.89 114.607C1021.48 115.192 1022.43 115.192 1023.01 114.607L1032.56 105.061ZM853 105.5H1031.5V102.5H853V105.5Z" fill="black"/>
</g>
<g filter="url(#filter6_d)">
<path d="M1375.61 145.537L1374.83 146.816L1374.83 146.816L1375.61 145.537ZM1376.94 232.061C1377.53 232.646 1378.47 232.646 1379.06 232.061L1388.61 222.515C1389.19 221.929 1389.19 220.979 1388.61 220.393C1388.02 219.808 1387.07 219.808 1386.49 220.393L1378 228.879L1369.51 220.393C1368.93 219.808 1367.98 219.808 1367.39 220.393C1366.81 220.979 1366.81 221.929 1367.39 222.515L1376.94 232.061ZM1312.72 108.779L1374.83 146.816L1376.39 144.258L1314.28 106.221L1312.72 108.779ZM1376.5 149.801V231H1379.5V149.801H1376.5ZM1374.83 146.816C1375.87 147.452 1376.5 148.583 1376.5 149.801H1379.5C1379.5 147.539 1378.32 145.439 1376.39 144.258L1374.83 146.816Z" fill="black"/>
</g>
<g filter="url(#filter7_d)">
<path d="M306.813 376.671L306.045 375.383L306.813 376.671ZM302.935 463.173C303.518 463.761 304.467 463.765 305.056 463.182L314.646 453.68C315.234 453.097 315.238 452.148 314.655 451.559C314.072 450.971 313.123 450.966 312.534 451.549L304.01 459.996L295.564 451.471C294.981 450.883 294.031 450.879 293.442 451.462C292.854 452.045 292.85 452.994 293.433 453.583L302.935 463.173ZM373.733 335.033L306.045 375.383L307.581 377.96L375.269 337.61L373.733 335.033ZM302.873 380.936L302.5 462.11L305.5 462.124L305.873 380.95L302.873 380.936ZM306.045 375.383C304.087 376.55 302.884 378.657 302.873 380.936L305.873 380.95C305.879 379.723 306.527 378.588 307.581 377.96L306.045 375.383Z" fill="black"/>
</g>
<rect x="420.5" y="276.5" width="194" height="104" rx="7.5" fill="white" stroke="#CAD4DB" stroke-width="5"/>
<path d="M455.855 318.938L461.433 332.859L467.011 318.938H469.929V336H467.679V329.355L467.89 322.184L462.288 336H460.566L454.976 322.219L455.198 329.355V336H452.948V318.938H455.855ZM473.22 329.543C473.22 328.301 473.462 327.184 473.947 326.191C474.439 325.199 475.119 324.434 475.986 323.895C476.861 323.355 477.857 323.086 478.974 323.086C480.701 323.086 482.095 323.684 483.158 324.879C484.228 326.074 484.763 327.664 484.763 329.648V329.801C484.763 331.035 484.525 332.145 484.048 333.129C483.58 334.105 482.904 334.867 482.021 335.414C481.146 335.961 480.138 336.234 478.998 336.234C477.279 336.234 475.884 335.637 474.814 334.441C473.751 333.246 473.22 331.664 473.22 329.695V329.543ZM475.4 329.801C475.4 331.207 475.724 332.336 476.373 333.188C477.029 334.039 477.904 334.465 478.998 334.465C480.099 334.465 480.974 334.035 481.623 333.176C482.271 332.309 482.595 331.098 482.595 329.543C482.595 328.152 482.263 327.027 481.599 326.168C480.943 325.301 480.068 324.867 478.974 324.867C477.904 324.867 477.041 325.293 476.384 326.145C475.728 326.996 475.4 328.215 475.4 329.801ZM487.141 329.543C487.141 328.301 487.383 327.184 487.867 326.191C488.359 325.199 489.039 324.434 489.906 323.895C490.781 323.355 491.777 323.086 492.894 323.086C494.621 323.086 496.016 323.684 497.078 324.879C498.148 326.074 498.684 327.664 498.684 329.648V329.801C498.684 331.035 498.445 332.145 497.969 333.129C497.5 334.105 496.824 334.867 495.941 335.414C495.066 335.961 494.059 336.234 492.918 336.234C491.199 336.234 489.805 335.637 488.734 334.441C487.672 333.246 487.141 331.664 487.141 329.695V329.543ZM489.32 329.801C489.32 331.207 489.644 332.336 490.293 333.188C490.949 334.039 491.824 334.465 492.918 334.465C494.019 334.465 494.894 334.035 495.543 333.176C496.191 332.309 496.516 331.098 496.516 329.543C496.516 328.152 496.184 327.027 495.519 326.168C494.863 325.301 493.988 324.867 492.894 324.867C491.824 324.867 490.961 325.293 490.305 326.145C489.648 326.996 489.32 328.215 489.32 329.801ZM501.108 329.555C501.108 327.609 501.569 326.047 502.491 324.867C503.412 323.68 504.619 323.086 506.112 323.086C507.596 323.086 508.772 323.594 509.639 324.609V318H511.807V336H509.815L509.709 334.641C508.842 335.703 507.635 336.234 506.088 336.234C504.619 336.234 503.42 335.633 502.491 334.43C501.569 333.227 501.108 331.656 501.108 329.719V329.555ZM503.276 329.801C503.276 331.238 503.573 332.363 504.166 333.176C504.76 333.988 505.58 334.395 506.627 334.395C508.002 334.395 509.006 333.777 509.639 332.543V326.719C508.991 325.523 507.994 324.926 506.651 324.926C505.588 324.926 504.76 325.336 504.166 326.156C503.573 326.977 503.276 328.191 503.276 329.801ZM521.941 336V318.938H527.519C529.37 318.938 530.761 319.32 531.691 320.086C532.628 320.852 533.097 321.984 533.097 323.484C533.097 324.281 532.87 324.988 532.417 325.605C531.964 326.215 531.347 326.688 530.566 327.023C531.488 327.281 532.214 327.773 532.745 328.5C533.284 329.219 533.554 330.078 533.554 331.078C533.554 332.609 533.058 333.812 532.066 334.688C531.073 335.562 529.671 336 527.859 336H521.941ZM524.191 328.02V334.16H527.905C528.952 334.16 529.777 333.891 530.378 333.352C530.988 332.805 531.292 332.055 531.292 331.102C531.292 329.047 530.175 328.02 527.941 328.02H524.191ZM524.191 326.215H527.589C528.573 326.215 529.359 325.969 529.945 325.477C530.538 324.984 530.835 324.316 530.835 323.473C530.835 322.535 530.562 321.855 530.015 321.434C529.468 321.004 528.636 320.789 527.519 320.789H524.191V326.215ZM536.213 329.543C536.213 328.301 536.455 327.184 536.939 326.191C537.431 325.199 538.111 324.434 538.978 323.895C539.853 323.355 540.849 323.086 541.966 323.086C543.693 323.086 545.088 323.684 546.15 324.879C547.22 326.074 547.756 327.664 547.756 329.648V329.801C547.756 331.035 547.517 332.145 547.041 333.129C546.572 334.105 545.896 334.867 545.013 335.414C544.138 335.961 543.131 336.234 541.99 336.234C540.271 336.234 538.877 335.637 537.806 334.441C536.744 333.246 536.213 331.664 536.213 329.695V329.543ZM538.392 329.801C538.392 331.207 538.716 332.336 539.365 333.188C540.021 334.039 540.896 334.465 541.99 334.465C543.091 334.465 543.966 334.035 544.615 333.176C545.263 332.309 545.588 331.098 545.588 329.543C545.588 328.152 545.256 327.027 544.591 326.168C543.935 325.301 543.06 324.867 541.966 324.867C540.896 324.867 540.033 325.293 539.377 326.145C538.72 326.996 538.392 328.215 538.392 329.801ZM558.535 336C558.41 335.75 558.309 335.305 558.231 334.664C557.223 335.711 556.02 336.234 554.621 336.234C553.371 336.234 552.344 335.883 551.539 335.18C550.742 334.469 550.344 333.57 550.344 332.484C550.344 331.164 550.844 330.141 551.844 329.414C552.852 328.68 554.266 328.312 556.086 328.312H558.195V327.316C558.195 326.559 557.969 325.957 557.516 325.512C557.063 325.059 556.395 324.832 555.512 324.832C554.738 324.832 554.09 325.027 553.566 325.418C553.043 325.809 552.781 326.281 552.781 326.836H550.602C550.602 326.203 550.824 325.594 551.27 325.008C551.723 324.414 552.332 323.945 553.098 323.602C553.871 323.258 554.719 323.086 555.641 323.086C557.102 323.086 558.246 323.453 559.074 324.188C559.902 324.914 560.332 325.918 560.363 327.199V333.035C560.363 334.199 560.512 335.125 560.809 335.812V336H558.535ZM554.938 334.348C555.617 334.348 556.262 334.172 556.871 333.82C557.481 333.469 557.922 333.012 558.195 332.449V329.848H556.496C553.84 329.848 552.512 330.625 552.512 332.18C552.512 332.859 552.738 333.391 553.191 333.773C553.645 334.156 554.227 334.348 554.938 334.348ZM570.124 325.266C569.795 325.211 569.44 325.184 569.057 325.184C567.635 325.184 566.67 325.789 566.163 327V336H563.995V323.32H566.104L566.139 324.785C566.85 323.652 567.858 323.086 569.163 323.086C569.584 323.086 569.905 323.141 570.124 323.25V325.266ZM571.599 329.555C571.599 327.609 572.059 326.047 572.981 324.867C573.903 323.68 575.11 323.086 576.602 323.086C578.087 323.086 579.263 323.594 580.13 324.609V318H582.298V336H580.306L580.2 334.641C579.333 335.703 578.126 336.234 576.579 336.234C575.11 336.234 573.911 335.633 572.981 334.43C572.059 333.227 571.599 331.656 571.599 329.719V329.555ZM573.767 329.801C573.767 331.238 574.063 332.363 574.657 333.176C575.251 333.988 576.071 334.395 577.118 334.395C578.493 334.395 579.497 333.777 580.13 332.543V326.719C579.481 325.523 578.485 324.926 577.142 324.926C576.079 324.926 575.251 325.336 574.657 326.156C574.063 326.977 573.767 328.191 573.767 329.801Z" fill="black"/>
<defs>
<filter id="filter0_d" x="448" y="92.9541" width="188" height="30.0919" filterUnits="userSpaceOnUse" color-interpolation-filters="sRGB">
<feFlood flood-opacity="0" result="BackgroundImageFix"/>
<feColorMatrix in="SourceAlpha" type="matrix" values="0 0 0 0 0 0 0 0 0 0 0 0 0 0 0 0 0 0 127 0"/>
<feOffset dy="4"/>
<feGaussianBlur stdDeviation="2"/>
<feColorMatrix type="matrix" values="0 0 0 0 0 0 0 0 0 0 0 0 0 0 0 0 0 0 0.25 0"/>
<feBlend mode="normal" in2="BackgroundImageFix" result="effect1_dropShadow"/>
<feBlend mode="normal" in="SourceGraphic" in2="effect1_dropShadow" result="shape"/>
</filter>
<filter id="filter1_d" x="636.5" y="317.954" width="188" height="30.0919" filterUnits="userSpaceOnUse" color-interpolation-filters="sRGB">
<feFlood flood-opacity="0" result="BackgroundImageFix"/>
<feColorMatrix in="SourceAlpha" type="matrix" values="0 0 0 0 0 0 0 0 0 0 0 0 0 0 0 0 0 0 127 0"/>
<feOffset dy="4"/>
<feGaussianBlur stdDeviation="2"/>
<feColorMatrix type="matrix" values="0 0 0 0 0 0 0 0 0 0 0 0 0 0 0 0 0 0 0.25 0"/>
<feBlend mode="normal" in2="BackgroundImageFix" result="effect1_dropShadow"/>
<feBlend mode="normal" in="SourceGraphic" in2="effect1_dropShadow" result="shape"/>
</filter>
<filter id="filter2_d" x="856" y="529.954" width="188" height="30.0919" filterUnits="userSpaceOnUse" color-interpolation-filters="sRGB">
<feFlood flood-opacity="0" result="BackgroundImageFix"/>
<feColorMatrix in="SourceAlpha" type="matrix" values="0 0 0 0 0 0 0 0 0 0 0 0 0 0 0 0 0 0 127 0"/>
<feOffset dy="4"/>
<feGaussianBlur stdDeviation="2"/>
<feColorMatrix type="matrix" values="0 0 0 0 0 0 0 0 0 0 0 0 0 0 0 0 0 0 0.25 0"/>
<feBlend mode="normal" in2="BackgroundImageFix" result="effect1_dropShadow"/>
<feBlend mode="normal" in="SourceGraphic" in2="effect1_dropShadow" result="shape"/>
</filter>
<filter id="filter3_d" x="418" y="529.954" width="188" height="30.0919" filterUnits="userSpaceOnUse" color-interpolation-filters="sRGB">
<feFlood flood-opacity="0" result="BackgroundImageFix"/>
<feColorMatrix in="SourceAlpha" type="matrix" values="0 0 0 0 0 0 0 0 0 0 0 0 0 0 0 0 0 0 127 0"/>
<feOffset dy="4"/>
<feGaussianBlur stdDeviation="2"/>
<feColorMatrix type="matrix" values="0 0 0 0 0 0 0 0 0 0 0 0 0 0 0 0 0 0 0.25 0"/>
<feBlend mode="normal" in2="BackgroundImageFix" result="effect1_dropShadow"/>
<feBlend mode="normal" in="SourceGraphic" in2="effect1_dropShadow" result="shape"/>
</filter>
<filter id="filter4_d" x="1064.5" y="317.954" width="188" height="30.0919" filterUnits="userSpaceOnUse" color-interpolation-filters="sRGB">
<feFlood flood-opacity="0" result="BackgroundImageFix"/>
<feColorMatrix in="SourceAlpha" type="matrix" values="0 0 0 0 0 0 0 0 0 0 0 0 0 0 0 0 0 0 127 0"/>
<feOffset dy="4"/>
<feGaussianBlur stdDeviation="2"/>
<feColorMatrix type="matrix" values="0 0 0 0 0 0 0 0 0 0 0 0 0 0 0 0 0 0 0.25 0"/>
<feBlend mode="normal" in2="BackgroundImageFix" result="effect1_dropShadow"/>
<feBlend mode="normal" in="SourceGraphic" in2="effect1_dropShadow" result="shape"/>
</filter>
<filter id="filter5_d" x="849" y="92.9541" width="188" height="30.0919" filterUnits="userSpaceOnUse" color-interpolation-filters="sRGB">
<feFlood flood-opacity="0" result="BackgroundImageFix"/>
<feColorMatrix in="SourceAlpha" type="matrix" values="0 0 0 0 0 0 0 0 0 0 0 0 0 0 0 0 0 0 127 0"/>
<feOffset dy="4"/>
<feGaussianBlur stdDeviation="2"/>
<feColorMatrix type="matrix" values="0 0 0 0 0 0 0 0 0 0 0 0 0 0 0 0 0 0 0.25 0"/>
<feBlend mode="normal" in2="BackgroundImageFix" result="effect1_dropShadow"/>
<feBlend mode="normal" in="SourceGraphic" in2="effect1_dropShadow" result="shape"/>
</filter>
<filter id="filter6_d" x="1308.72" y="106.221" width="84.3293" height="134.279" filterUnits="userSpaceOnUse" color-interpolation-filters="sRGB">
<feFlood flood-opacity="0" result="BackgroundImageFix"/>
<feColorMatrix in="SourceAlpha" type="matrix" values="0 0 0 0 0 0 0 0 0 0 0 0 0 0 0 0 0 0 127 0"/>
<feOffset dy="4"/>
<feGaussianBlur stdDeviation="2"/>
<feColorMatrix type="matrix" values="0 0 0 0 0 0 0 0 0 0 0 0 0 0 0 0 0 0 0.25 0"/>
<feBlend mode="normal" in2="BackgroundImageFix" result="effect1_dropShadow"/>
<feBlend mode="normal" in="SourceGraphic" in2="effect1_dropShadow" result="shape"/>
</filter>
<filter id="filter7_d" x="288.947" y="334.665" width="90.3335" height="137.278" filterUnits="userSpaceOnUse" color-interpolation-filters="sRGB">
<feFlood flood-opacity="0" result="BackgroundImageFix"/>
<feColorMatrix in="SourceAlpha" type="matrix" values="0 0 0 0 0 0 0 0 0 0 0 0 0 0 0 0 0 0 127 0"/>
<feOffset dy="4"/>
<feGaussianBlur stdDeviation="2"/>
<feColorMatrix type="matrix" values="0 0 0 0 0 0 0 0 0 0 0 0 0 0 0 0 0 0 0.25 0"/>
<feBlend mode="normal" in2="BackgroundImageFix" result="effect1_dropShadow"/>
<feBlend mode="normal" in="SourceGraphic" in2="effect1_dropShadow" result="shape"/>
</filter>
</defs>
</svg>
