<svg width="1519" height="636" viewBox="0 0 1519 636" fill="none" xmlns="http://www.w3.org/2000/svg">
<rect width="1519" height="636" fill="white"/>
<rect x="122.5" y="47.5" width="194" height="104" rx="7.5" fill="white" stroke="#CAD4DB" stroke-width="5"/>
<path d="M179.501 88.6211L179.829 90.8711L180.309 88.8438L183.684 76.9375H185.583L188.876 88.8438L189.344 90.9062L189.708 88.6094L192.356 76.9375H194.618L190.481 94H188.43L184.915 81.5664L184.645 80.2656L184.376 81.5664L180.731 94H178.68L174.555 76.9375H176.805L179.501 88.6211ZM201.905 94.2344C200.187 94.2344 198.788 93.6719 197.71 92.5469C196.632 91.4141 196.093 89.9023 196.093 88.0117V87.6133C196.093 86.3555 196.331 85.2344 196.808 84.25C197.292 83.2578 197.964 82.4844 198.823 81.9297C199.691 81.3672 200.628 81.0859 201.636 81.0859C203.284 81.0859 204.566 81.6289 205.48 82.7148C206.394 83.8008 206.851 85.3555 206.851 87.3789V88.2812H198.261C198.292 89.5312 198.655 90.543 199.351 91.3164C200.054 92.082 200.944 92.4648 202.023 92.4648C202.788 92.4648 203.437 92.3086 203.968 91.9961C204.499 91.6836 204.964 91.2695 205.362 90.7539L206.687 91.7852C205.624 93.418 204.03 94.2344 201.905 94.2344ZM201.636 82.8672C200.761 82.8672 200.027 83.1875 199.433 83.8281C198.839 84.4609 198.472 85.3516 198.331 86.5H204.683V86.3359C204.62 85.2344 204.323 84.3828 203.792 83.7812C203.261 83.1719 202.542 82.8672 201.636 82.8672ZM220.337 87.8008C220.337 89.7383 219.892 91.2969 219.002 92.4766C218.111 93.6484 216.916 94.2344 215.416 94.2344C213.814 94.2344 212.576 93.668 211.701 92.5352L211.595 94H209.603V76H211.771V82.7148C212.646 81.6289 213.853 81.0859 215.392 81.0859C216.931 81.0859 218.138 81.668 219.013 82.832C219.896 83.9961 220.337 85.5898 220.337 87.6133V87.8008ZM218.17 87.5547C218.17 86.0781 217.884 84.9375 217.314 84.1328C216.744 83.3281 215.923 82.9258 214.853 82.9258C213.423 82.9258 212.396 83.5898 211.771 84.918V90.4023C212.435 91.7305 213.47 92.3945 214.877 92.3945C215.916 92.3945 216.724 91.9922 217.302 91.1875C217.88 90.3828 218.17 89.1719 218.17 87.5547ZM230.695 90.6367C230.695 90.0508 230.473 89.5977 230.027 89.2773C229.59 88.9492 228.82 88.668 227.719 88.4336C226.625 88.1992 225.754 87.918 225.105 87.5898C224.465 87.2617 223.988 86.8711 223.676 86.418C223.371 85.9648 223.219 85.4258 223.219 84.8008C223.219 83.7617 223.656 82.8828 224.531 82.1641C225.414 81.4453 226.539 81.0859 227.906 81.0859C229.344 81.0859 230.508 81.457 231.398 82.1992C232.297 82.9414 232.746 83.8906 232.746 85.0469H230.566C230.566 84.4531 230.312 83.9414 229.805 83.5117C229.305 83.082 228.672 82.8672 227.906 82.8672C227.117 82.8672 226.5 83.0391 226.055 83.3828C225.609 83.7266 225.387 84.1758 225.387 84.7305C225.387 85.2539 225.594 85.6484 226.008 85.9141C226.422 86.1797 227.168 86.4336 228.246 86.6758C229.332 86.918 230.211 87.207 230.883 87.543C231.555 87.8789 232.051 88.2852 232.371 88.7617C232.699 89.2305 232.863 89.8047 232.863 90.4844C232.863 91.6172 232.41 92.5273 231.504 93.2148C230.598 93.8945 229.422 94.2344 227.977 94.2344C226.961 94.2344 226.062 94.0547 225.281 93.6953C224.5 93.3359 223.887 92.8359 223.441 92.1953C223.004 91.5469 222.785 90.8477 222.785 90.0977H224.953C224.992 90.8242 225.281 91.4023 225.82 91.832C226.367 92.2539 227.086 92.4648 227.977 92.4648C228.797 92.4648 229.453 92.3008 229.945 91.9727C230.445 91.6367 230.695 91.1914 230.695 90.6367ZM238.276 94H236.108V81.3203H238.276V94ZM235.932 77.957C235.932 77.6055 236.038 77.3086 236.248 77.0664C236.467 76.8242 236.788 76.7031 237.209 76.7031C237.631 76.7031 237.952 76.8242 238.17 77.0664C238.389 77.3086 238.498 77.6055 238.498 77.957C238.498 78.3086 238.389 78.6016 238.17 78.8359C237.952 79.0703 237.631 79.1875 237.209 79.1875C236.788 79.1875 236.467 79.0703 236.248 78.8359C236.038 78.6016 235.932 78.3086 235.932 77.957ZM244.931 78.25V81.3203H247.298V82.9961H244.931V90.8594C244.931 91.3672 245.036 91.75 245.247 92.0078C245.458 92.2578 245.817 92.3828 246.325 92.3828C246.575 92.3828 246.919 92.3359 247.356 92.2422V94C246.786 94.1562 246.231 94.2344 245.692 94.2344C244.723 94.2344 243.993 93.9414 243.501 93.3555C243.009 92.7695 242.763 91.9375 242.763 90.8594V82.9961H240.454V81.3203H242.763V78.25H244.931ZM255.335 94.2344C253.616 94.2344 252.218 93.6719 251.14 92.5469C250.062 91.4141 249.523 89.9023 249.523 88.0117V87.6133C249.523 86.3555 249.761 85.2344 250.238 84.25C250.722 83.2578 251.394 82.4844 252.253 81.9297C253.12 81.3672 254.058 81.0859 255.066 81.0859C256.714 81.0859 257.995 81.6289 258.909 82.7148C259.824 83.8008 260.281 85.3555 260.281 87.3789V88.2812H251.691C251.722 89.5312 252.085 90.543 252.781 91.3164C253.484 92.082 254.374 92.4648 255.452 92.4648C256.218 92.4648 256.866 92.3086 257.398 91.9961C257.929 91.6836 258.394 91.2695 258.792 90.7539L260.116 91.7852C259.054 93.418 257.46 94.2344 255.335 94.2344ZM255.066 82.8672C254.191 82.8672 253.456 83.1875 252.863 83.8281C252.269 84.4609 251.902 85.3516 251.761 86.5H258.113V86.3359C258.05 85.2344 257.753 84.3828 257.222 83.7812C256.691 83.1719 255.972 82.8672 255.066 82.8672ZM186.743 116.586C186.532 118.391 185.864 119.785 184.739 120.77C183.622 121.746 182.134 122.234 180.274 122.234C178.259 122.234 176.641 121.512 175.423 120.066C174.212 118.621 173.606 116.688 173.606 114.266V112.625C173.606 111.039 173.887 109.645 174.45 108.441C175.02 107.238 175.825 106.316 176.864 105.676C177.903 105.027 179.106 104.703 180.473 104.703C182.286 104.703 183.739 105.211 184.833 106.227C185.926 107.234 186.563 108.633 186.743 110.422H184.481C184.286 109.062 183.86 108.078 183.204 107.469C182.555 106.859 181.645 106.555 180.473 106.555C179.036 106.555 177.907 107.086 177.087 108.148C176.274 109.211 175.868 110.723 175.868 112.684V114.336C175.868 116.188 176.255 117.66 177.028 118.754C177.801 119.848 178.884 120.395 180.274 120.395C181.524 120.395 182.481 120.113 183.145 119.551C183.817 118.98 184.262 117.992 184.481 116.586H186.743ZM189.144 115.543C189.144 114.301 189.386 113.184 189.87 112.191C190.362 111.199 191.042 110.434 191.909 109.895C192.784 109.355 193.78 109.086 194.898 109.086C196.624 109.086 198.019 109.684 199.081 110.879C200.152 112.074 200.687 113.664 200.687 115.648V115.801C200.687 117.035 200.448 118.145 199.972 119.129C199.503 120.105 198.827 120.867 197.944 121.414C197.069 121.961 196.062 122.234 194.921 122.234C193.202 122.234 191.808 121.637 190.737 120.441C189.675 119.246 189.144 117.664 189.144 115.695V115.543ZM191.323 115.801C191.323 117.207 191.648 118.336 192.296 119.188C192.952 120.039 193.827 120.465 194.921 120.465C196.023 120.465 196.898 120.035 197.546 119.176C198.194 118.309 198.519 117.098 198.519 115.543C198.519 114.152 198.187 113.027 197.523 112.168C196.866 111.301 195.991 110.867 194.898 110.867C193.827 110.867 192.964 111.293 192.308 112.145C191.652 112.996 191.323 114.215 191.323 115.801ZM205.689 109.32L205.759 110.914C206.728 109.695 207.994 109.086 209.556 109.086C212.236 109.086 213.587 110.598 213.611 113.621V122H211.443V113.609C211.435 112.695 211.224 112.02 210.81 111.582C210.404 111.145 209.767 110.926 208.9 110.926C208.197 110.926 207.58 111.113 207.048 111.488C206.517 111.863 206.103 112.355 205.806 112.965V122H203.638V109.32H205.689ZM222.199 120.465C222.973 120.465 223.648 120.23 224.227 119.762C224.805 119.293 225.125 118.707 225.188 118.004H227.238C227.199 118.73 226.949 119.422 226.488 120.078C226.027 120.734 225.41 121.258 224.637 121.648C223.871 122.039 223.059 122.234 222.199 122.234C220.473 122.234 219.098 121.66 218.074 120.512C217.059 119.355 216.551 117.777 216.551 115.777V115.414C216.551 114.18 216.777 113.082 217.23 112.121C217.684 111.16 218.332 110.414 219.176 109.883C220.027 109.352 221.031 109.086 222.188 109.086C223.609 109.086 224.789 109.512 225.727 110.363C226.672 111.215 227.176 112.32 227.238 113.68H225.188C225.125 112.859 224.812 112.188 224.25 111.664C223.695 111.133 223.008 110.867 222.188 110.867C221.086 110.867 220.23 111.266 219.621 112.062C219.02 112.852 218.719 113.996 218.719 115.496V115.906C218.719 117.367 219.02 118.492 219.621 119.281C220.223 120.07 221.082 120.465 222.199 120.465ZM235.17 122.234C233.452 122.234 232.053 121.672 230.975 120.547C229.897 119.414 229.358 117.902 229.358 116.012V115.613C229.358 114.355 229.596 113.234 230.073 112.25C230.557 111.258 231.229 110.484 232.088 109.93C232.955 109.367 233.893 109.086 234.901 109.086C236.549 109.086 237.83 109.629 238.745 110.715C239.659 111.801 240.116 113.355 240.116 115.379V116.281H231.526C231.557 117.531 231.92 118.543 232.616 119.316C233.319 120.082 234.209 120.465 235.288 120.465C236.053 120.465 236.702 120.309 237.233 119.996C237.764 119.684 238.229 119.27 238.627 118.754L239.952 119.785C238.889 121.418 237.295 122.234 235.17 122.234ZM234.901 110.867C234.026 110.867 233.291 111.188 232.698 111.828C232.104 112.461 231.737 113.352 231.596 114.5H237.948V114.336C237.885 113.234 237.588 112.383 237.057 111.781C236.526 111.172 235.807 110.867 234.901 110.867ZM253.579 115.801C253.579 117.73 253.138 119.285 252.255 120.465C251.372 121.645 250.177 122.234 248.669 122.234C247.13 122.234 245.919 121.746 245.036 120.77V126.875H242.868V109.32H244.848L244.954 110.727C245.837 109.633 247.063 109.086 248.634 109.086C250.157 109.086 251.36 109.66 252.243 110.809C253.134 111.957 253.579 113.555 253.579 115.602V115.801ZM251.411 115.555C251.411 114.125 251.106 112.996 250.497 112.168C249.888 111.34 249.052 110.926 247.989 110.926C246.677 110.926 245.692 111.508 245.036 112.672V118.73C245.684 119.887 246.677 120.465 248.013 120.465C249.052 120.465 249.876 120.055 250.485 119.234C251.102 118.406 251.411 117.18 251.411 115.555ZM259.519 106.25V109.32H261.886V110.996H259.519V118.859C259.519 119.367 259.624 119.75 259.835 120.008C260.046 120.258 260.406 120.383 260.913 120.383C261.163 120.383 261.507 120.336 261.945 120.242V122C261.374 122.156 260.82 122.234 260.281 122.234C259.312 122.234 258.581 121.941 258.089 121.355C257.597 120.77 257.351 119.938 257.351 118.859V110.996H255.042V109.32H257.351V106.25H259.519Z" fill="black"/>
<rect x="528.5" y="47.5" width="194" height="104" rx="7.5" fill="white" stroke="#CAD4DB" stroke-width="5"/>
<path d="M566.739 89.9375V101.539C566.731 103.148 566.223 104.465 565.215 105.488C564.215 106.512 562.856 107.086 561.137 107.211L560.54 107.234C558.673 107.234 557.184 106.73 556.075 105.723C554.965 104.715 554.403 103.328 554.387 101.562V89.9375H556.614V101.492C556.614 102.727 556.954 103.688 557.633 104.375C558.313 105.055 559.282 105.395 560.54 105.395C561.813 105.395 562.786 105.055 563.458 104.375C564.137 103.695 564.477 102.738 564.477 101.504V89.9375H566.739ZM577.566 103.637C577.566 103.051 577.343 102.598 576.898 102.277C576.46 101.949 575.691 101.668 574.589 101.434C573.495 101.199 572.624 100.918 571.976 100.59C571.335 100.262 570.858 99.8711 570.546 99.418C570.241 98.9648 570.089 98.4258 570.089 97.8008C570.089 96.7617 570.526 95.8828 571.401 95.1641C572.284 94.4453 573.409 94.0859 574.776 94.0859C576.214 94.0859 577.378 94.457 578.269 95.1992C579.167 95.9414 579.616 96.8906 579.616 98.0469H577.437C577.437 97.4531 577.183 96.9414 576.675 96.5117C576.175 96.082 575.542 95.8672 574.776 95.8672C573.987 95.8672 573.37 96.0391 572.925 96.3828C572.48 96.7266 572.257 97.1758 572.257 97.7305C572.257 98.2539 572.464 98.6484 572.878 98.9141C573.292 99.1797 574.038 99.4336 575.116 99.6758C576.202 99.918 577.081 100.207 577.753 100.543C578.425 100.879 578.921 101.285 579.241 101.762C579.569 102.23 579.733 102.805 579.733 103.484C579.733 104.617 579.28 105.527 578.374 106.215C577.468 106.895 576.292 107.234 574.847 107.234C573.831 107.234 572.933 107.055 572.151 106.695C571.37 106.336 570.757 105.836 570.312 105.195C569.874 104.547 569.655 103.848 569.655 103.098H571.823C571.862 103.824 572.151 104.402 572.691 104.832C573.237 105.254 573.956 105.465 574.847 105.465C575.667 105.465 576.323 105.301 576.816 104.973C577.316 104.637 577.566 104.191 577.566 103.637ZM588.052 107.234C586.334 107.234 584.935 106.672 583.857 105.547C582.779 104.414 582.24 102.902 582.24 101.012V100.613C582.24 99.3555 582.478 98.2344 582.955 97.25C583.439 96.2578 584.111 95.4844 584.97 94.9297C585.837 94.3672 586.775 94.0859 587.783 94.0859C589.431 94.0859 590.712 94.6289 591.626 95.7148C592.541 96.8008 592.998 98.3555 592.998 100.379V101.281H584.408C584.439 102.531 584.802 103.543 585.498 104.316C586.201 105.082 587.091 105.465 588.169 105.465C588.935 105.465 589.584 105.309 590.115 104.996C590.646 104.684 591.111 104.27 591.509 103.754L592.834 104.785C591.771 106.418 590.177 107.234 588.052 107.234ZM587.783 95.8672C586.908 95.8672 586.173 96.1875 585.58 96.8281C584.986 97.4609 584.619 98.3516 584.478 99.5H590.83V99.3359C590.767 98.2344 590.47 97.3828 589.939 96.7812C589.408 96.1719 588.689 95.8672 587.783 95.8672ZM601.879 96.2656C601.551 96.2109 601.195 96.1836 600.812 96.1836C599.391 96.1836 598.426 96.7891 597.918 98V107H595.75V94.3203H597.859L597.894 95.7852C598.605 94.6523 599.613 94.0859 600.918 94.0859C601.34 94.0859 601.66 94.1406 601.879 94.25V96.2656ZM612.891 100.32V107H610.641V89.9375H616.934C618.802 89.9375 620.262 90.4141 621.317 91.3672C622.38 92.3203 622.911 93.582 622.911 95.1523C622.911 96.8086 622.391 98.0859 621.352 98.9844C620.321 99.875 618.841 100.32 616.911 100.32H612.891ZM612.891 98.4805H616.934C618.137 98.4805 619.059 98.1992 619.7 97.6367C620.341 97.0664 620.661 96.2461 620.661 95.1758C620.661 94.1602 620.341 93.3477 619.7 92.7383C619.059 92.1289 618.18 91.8125 617.063 91.7891H612.891V98.4805ZM630.773 107.234C629.054 107.234 627.655 106.672 626.577 105.547C625.499 104.414 624.96 102.902 624.96 101.012V100.613C624.96 99.3555 625.198 98.2344 625.675 97.25C626.159 96.2578 626.831 95.4844 627.691 94.9297C628.558 94.3672 629.495 94.0859 630.503 94.0859C632.152 94.0859 633.433 94.6289 634.347 95.7148C635.261 96.8008 635.718 98.3555 635.718 100.379V101.281H627.128C627.159 102.531 627.523 103.543 628.218 104.316C628.921 105.082 629.812 105.465 630.89 105.465C631.655 105.465 632.304 105.309 632.835 104.996C633.366 104.684 633.831 104.27 634.23 103.754L635.554 104.785C634.491 106.418 632.898 107.234 630.773 107.234ZM630.503 95.8672C629.628 95.8672 628.894 96.1875 628.3 96.8281C627.706 97.4609 627.339 98.3516 627.198 99.5H633.55V99.3359C633.488 98.2344 633.191 97.3828 632.659 96.7812C632.128 96.1719 631.409 95.8672 630.503 95.8672ZM644.599 96.2656C644.271 96.2109 643.916 96.1836 643.533 96.1836C642.111 96.1836 641.146 96.7891 640.638 98V107H638.47V94.3203H640.58L640.615 95.7852C641.326 94.6523 642.334 94.0859 643.638 94.0859C644.06 94.0859 644.381 94.1406 644.599 94.25V96.2656ZM654.219 103.637C654.219 103.051 653.996 102.598 653.551 102.277C653.113 101.949 652.344 101.668 651.242 101.434C650.148 101.199 649.277 100.918 648.629 100.59C647.988 100.262 647.512 99.8711 647.199 99.418C646.895 98.9648 646.742 98.4258 646.742 97.8008C646.742 96.7617 647.18 95.8828 648.055 95.1641C648.938 94.4453 650.063 94.0859 651.43 94.0859C652.867 94.0859 654.031 94.457 654.922 95.1992C655.82 95.9414 656.27 96.8906 656.27 98.0469H654.09C654.09 97.4531 653.836 96.9414 653.328 96.5117C652.828 96.082 652.195 95.8672 651.43 95.8672C650.641 95.8672 650.023 96.0391 649.578 96.3828C649.133 96.7266 648.91 97.1758 648.91 97.7305C648.91 98.2539 649.117 98.6484 649.531 98.9141C649.945 99.1797 650.691 99.4336 651.77 99.6758C652.856 99.918 653.734 100.207 654.406 100.543C655.078 100.879 655.574 101.285 655.895 101.762C656.223 102.23 656.387 102.805 656.387 103.484C656.387 104.617 655.934 105.527 655.027 106.215C654.121 106.895 652.945 107.234 651.5 107.234C650.484 107.234 649.586 107.055 648.805 106.695C648.023 106.336 647.41 105.836 646.965 105.195C646.527 104.547 646.309 103.848 646.309 103.098H648.477C648.516 103.824 648.805 104.402 649.344 104.832C649.891 105.254 650.609 105.465 651.5 105.465C652.32 105.465 652.977 105.301 653.469 104.973C653.969 104.637 654.219 104.191 654.219 103.637ZM658.87 100.543C658.87 99.3008 659.112 98.1836 659.596 97.1914C660.088 96.1992 660.768 95.4336 661.635 94.8945C662.51 94.3555 663.506 94.0859 664.624 94.0859C666.35 94.0859 667.745 94.6836 668.807 95.8789C669.877 97.0742 670.413 98.6641 670.413 100.648V100.801C670.413 102.035 670.174 103.145 669.698 104.129C669.229 105.105 668.553 105.867 667.67 106.414C666.795 106.961 665.788 107.234 664.647 107.234C662.928 107.234 661.534 106.637 660.463 105.441C659.401 104.246 658.87 102.664 658.87 100.695V100.543ZM661.049 100.801C661.049 102.207 661.374 103.336 662.022 104.188C662.678 105.039 663.553 105.465 664.647 105.465C665.749 105.465 666.624 105.035 667.272 104.176C667.92 103.309 668.245 102.098 668.245 100.543C668.245 99.1523 667.913 98.0273 667.249 97.168C666.592 96.3008 665.717 95.8672 664.624 95.8672C663.553 95.8672 662.69 96.293 662.034 97.1445C661.377 97.9961 661.049 99.2148 661.049 100.801ZM675.415 94.3203L675.485 95.9141C676.454 94.6953 677.72 94.0859 679.282 94.0859C681.962 94.0859 683.313 95.5977 683.337 98.6211V107H681.169V98.6094C681.161 97.6953 680.95 97.0195 680.536 96.582C680.13 96.1445 679.493 95.9258 678.626 95.9258C677.923 95.9258 677.306 96.1133 676.774 96.4883C676.243 96.8633 675.829 97.3555 675.532 97.9648V107H673.364V94.3203H675.415ZM694.667 107C694.542 106.75 694.441 106.305 694.363 105.664C693.355 106.711 692.152 107.234 690.753 107.234C689.503 107.234 688.476 106.883 687.671 106.18C686.874 105.469 686.476 104.57 686.476 103.484C686.476 102.164 686.976 101.141 687.976 100.414C688.984 99.6797 690.398 99.3125 692.218 99.3125H694.327V98.3164C694.327 97.5586 694.101 96.957 693.648 96.5117C693.195 96.0586 692.527 95.832 691.644 95.832C690.87 95.832 690.222 96.0273 689.699 96.418C689.175 96.8086 688.913 97.2812 688.913 97.8359H686.734C686.734 97.2031 686.956 96.5938 687.402 96.0078C687.855 95.4141 688.464 94.9453 689.23 94.6016C690.003 94.2578 690.851 94.0859 691.773 94.0859C693.234 94.0859 694.378 94.4531 695.206 95.1875C696.035 95.9141 696.464 96.918 696.495 98.1992V104.035C696.495 105.199 696.644 106.125 696.941 106.812V107H694.667ZM691.07 105.348C691.749 105.348 692.394 105.172 693.003 104.82C693.613 104.469 694.054 104.012 694.327 103.449V100.848H692.628C689.972 100.848 688.644 101.625 688.644 103.18C688.644 103.859 688.87 104.391 689.324 104.773C689.777 105.156 690.359 105.348 691.07 105.348Z" fill="black"/>
<rect x="935.5" y="477.5" width="194" height="104" rx="7.5" fill="white" stroke="#CAD4DB" stroke-width="5"/>
<path d="M978.496 529.395C976.566 528.84 975.16 528.16 974.277 527.355C973.402 526.543 972.965 525.543 972.965 524.355C972.965 523.012 973.5 521.902 974.57 521.027C975.648 520.145 977.047 519.703 978.766 519.703C979.937 519.703 980.98 519.93 981.894 520.383C982.816 520.836 983.527 521.461 984.027 522.258C984.535 523.055 984.789 523.926 984.789 524.871H982.527C982.527 523.84 982.199 523.031 981.543 522.445C980.887 521.852 979.961 521.555 978.766 521.555C977.656 521.555 976.789 521.801 976.164 522.293C975.547 522.777 975.238 523.453 975.238 524.32C975.238 525.016 975.531 525.605 976.117 526.09C976.711 526.566 977.715 527.004 979.129 527.402C980.551 527.801 981.66 528.242 982.457 528.727C983.262 529.203 983.855 529.762 984.238 530.402C984.629 531.043 984.824 531.797 984.824 532.664C984.824 534.047 984.285 535.156 983.207 535.992C982.129 536.82 980.687 537.234 978.883 537.234C977.711 537.234 976.617 537.012 975.601 536.566C974.586 536.113 973.801 535.496 973.246 534.715C972.699 533.934 972.426 533.047 972.426 532.055H974.687C974.687 533.086 975.066 533.902 975.824 534.504C976.59 535.098 977.609 535.395 978.883 535.395C980.07 535.395 980.98 535.152 981.613 534.668C982.246 534.184 982.562 533.523 982.562 532.688C982.562 531.852 982.269 531.207 981.683 530.754C981.098 530.293 980.035 529.84 978.496 529.395ZM990.553 521.25V524.32H992.92V525.996H990.553V533.859C990.553 534.367 990.659 534.75 990.869 535.008C991.08 535.258 991.44 535.383 991.948 535.383C992.198 535.383 992.541 535.336 992.979 535.242V537C992.409 537.156 991.854 537.234 991.315 537.234C990.346 537.234 989.616 536.941 989.123 536.355C988.631 535.77 988.385 534.938 988.385 533.859V525.996H986.076V524.32H988.385V521.25H990.553ZM999.844 533.824L1002.8 524.32H1005.12L1000.02 538.957C999.231 541.066 997.977 542.121 996.259 542.121L995.848 542.086L995.04 541.934V540.176L995.626 540.223C996.36 540.223 996.93 540.074 997.337 539.777C997.751 539.48 998.091 538.938 998.356 538.148L998.837 536.859L994.313 524.32H996.68L999.844 533.824ZM1009.65 537H1007.48V519H1009.65V537ZM1018.63 537.234C1016.91 537.234 1015.51 536.672 1014.43 535.547C1013.35 534.414 1012.81 532.902 1012.81 531.012V530.613C1012.81 529.355 1013.05 528.234 1013.53 527.25C1014.01 526.258 1014.69 525.484 1015.54 524.93C1016.41 524.367 1017.35 524.086 1018.36 524.086C1020.01 524.086 1021.29 524.629 1022.2 525.715C1023.11 526.801 1023.57 528.355 1023.57 530.379V531.281H1014.98C1015.01 532.531 1015.38 533.543 1016.07 534.316C1016.77 535.082 1017.67 535.465 1018.74 535.465C1019.51 535.465 1020.16 535.309 1020.69 534.996C1021.22 534.684 1021.69 534.27 1022.08 533.754L1023.41 534.785C1022.35 536.418 1020.75 537.234 1018.63 537.234ZM1018.36 525.867C1017.48 525.867 1016.75 526.188 1016.15 526.828C1015.56 527.461 1015.19 528.352 1015.05 529.5H1021.4V529.336C1021.34 528.234 1021.04 527.383 1020.51 526.781C1019.98 526.172 1019.26 525.867 1018.36 525.867ZM1045.45 534.762C1044.87 535.59 1044.06 536.211 1043.02 536.625C1041.99 537.031 1040.79 537.234 1039.41 537.234C1038.02 537.234 1036.79 536.91 1035.71 536.262C1034.63 535.605 1033.8 534.676 1033.2 533.473C1032.62 532.27 1032.31 530.875 1032.3 529.289V527.801C1032.3 525.23 1032.9 523.238 1034.09 521.824C1035.3 520.41 1036.98 519.703 1039.15 519.703C1040.94 519.703 1042.37 520.16 1043.46 521.074C1044.54 521.98 1045.21 523.27 1045.45 524.941H1043.2C1042.78 522.684 1041.43 521.555 1039.17 521.555C1037.66 521.555 1036.51 522.086 1035.73 523.148C1034.96 524.203 1034.57 525.734 1034.56 527.742V529.137C1034.56 531.051 1035 532.574 1035.87 533.707C1036.75 534.832 1037.93 535.395 1039.42 535.395C1040.27 535.395 1041.01 535.301 1041.64 535.113C1042.27 534.926 1042.8 534.609 1043.21 534.164V530.332H1039.26V528.504H1045.45V534.762ZM1056.93 535.746C1056.09 536.738 1054.85 537.234 1053.22 537.234C1051.86 537.234 1050.83 536.844 1050.12 536.062C1049.42 535.273 1049.06 534.109 1049.06 532.57V524.32H1051.22V532.512C1051.22 534.434 1052 535.395 1053.57 535.395C1055.22 535.395 1056.33 534.777 1056.87 533.543V524.32H1059.04V537H1056.98L1056.93 535.746ZM1064.93 537H1062.76V524.32H1064.93V537ZM1062.59 520.957C1062.59 520.605 1062.69 520.309 1062.91 520.066C1063.12 519.824 1063.44 519.703 1063.87 519.703C1064.29 519.703 1064.61 519.824 1064.83 520.066C1065.05 520.309 1065.16 520.605 1065.16 520.957C1065.16 521.309 1065.05 521.602 1064.83 521.836C1064.61 522.07 1064.29 522.188 1063.87 522.188C1063.44 522.188 1063.12 522.07 1062.91 521.836C1062.69 521.602 1062.59 521.309 1062.59 520.957ZM1068.12 530.555C1068.12 528.609 1068.58 527.047 1069.5 525.867C1070.42 524.68 1071.63 524.086 1073.12 524.086C1074.61 524.086 1075.78 524.594 1076.65 525.609V519H1078.82V537H1076.83L1076.72 535.641C1075.85 536.703 1074.65 537.234 1073.1 537.234C1071.63 537.234 1070.43 536.633 1069.5 535.43C1068.58 534.227 1068.12 532.656 1068.12 530.719V530.555ZM1070.29 530.801C1070.29 532.238 1070.58 533.363 1071.18 534.176C1071.77 534.988 1072.59 535.395 1073.64 535.395C1075.01 535.395 1076.02 534.777 1076.65 533.543V527.719C1076 526.523 1075.01 525.926 1073.66 525.926C1072.6 525.926 1071.77 526.336 1071.18 527.156C1070.58 527.977 1070.29 529.191 1070.29 530.801ZM1087.69 537.234C1085.97 537.234 1084.57 536.672 1083.49 535.547C1082.41 534.414 1081.88 532.902 1081.88 531.012V530.613C1081.88 529.355 1082.11 528.234 1082.59 527.25C1083.07 526.258 1083.75 525.484 1084.61 524.93C1085.47 524.367 1086.41 524.086 1087.42 524.086C1089.07 524.086 1090.35 524.629 1091.26 525.715C1092.18 526.801 1092.63 528.355 1092.63 530.379V531.281H1084.04C1084.07 532.531 1084.44 533.543 1085.13 534.316C1085.84 535.082 1086.73 535.465 1087.8 535.465C1088.57 535.465 1089.22 535.309 1089.75 534.996C1090.28 534.684 1090.75 534.27 1091.14 533.754L1092.47 534.785C1091.41 536.418 1089.81 537.234 1087.69 537.234ZM1087.42 525.867C1086.54 525.867 1085.81 526.188 1085.21 526.828C1084.62 527.461 1084.25 528.352 1084.11 529.5H1090.46V529.336C1090.4 528.234 1090.11 527.383 1089.57 526.781C1089.04 526.172 1088.32 525.867 1087.42 525.867Z" fill="black"/>
<rect x="528.5" y="484.5" width="194" height="104" rx="7.5" fill="white" stroke="#CAD4DB" stroke-width="5"/>
<path d="M577.073 537.32V544H574.823V526.938H581.116C582.983 526.938 584.444 527.414 585.498 528.367C586.561 529.32 587.092 530.582 587.092 532.152C587.092 533.809 586.573 535.086 585.534 535.984C584.502 536.875 583.022 537.32 581.092 537.32H577.073ZM577.073 535.48H581.116C582.319 535.48 583.241 535.199 583.881 534.637C584.522 534.066 584.842 533.246 584.842 532.176C584.842 531.16 584.522 530.348 583.881 529.738C583.241 529.129 582.362 528.812 581.244 528.789H577.073V535.48ZM595.985 533.266C595.657 533.211 595.301 533.184 594.919 533.184C593.497 533.184 592.532 533.789 592.024 535V544H589.856V531.32H591.966L592.001 532.785C592.712 531.652 593.719 531.086 595.024 531.086C595.446 531.086 595.766 531.141 595.985 531.25V533.266ZM597.413 537.543C597.413 536.301 597.655 535.184 598.14 534.191C598.632 533.199 599.312 532.434 600.179 531.895C601.054 531.355 602.05 531.086 603.167 531.086C604.894 531.086 606.288 531.684 607.351 532.879C608.421 534.074 608.956 535.664 608.956 537.648V537.801C608.956 539.035 608.718 540.145 608.241 541.129C607.773 542.105 607.097 542.867 606.214 543.414C605.339 543.961 604.331 544.234 603.191 544.234C601.472 544.234 600.077 543.637 599.007 542.441C597.944 541.246 597.413 539.664 597.413 537.695V537.543ZM599.593 537.801C599.593 539.207 599.917 540.336 600.566 541.188C601.222 542.039 602.097 542.465 603.191 542.465C604.292 542.465 605.167 542.035 605.816 541.176C606.464 540.309 606.788 539.098 606.788 537.543C606.788 536.152 606.456 535.027 605.792 534.168C605.136 533.301 604.261 532.867 603.167 532.867C602.097 532.867 601.234 533.293 600.577 534.145C599.921 534.996 599.593 536.215 599.593 537.801ZM614.849 528.25V531.32H617.216V532.996H614.849V540.859C614.849 541.367 614.955 541.75 615.166 542.008C615.377 542.258 615.736 542.383 616.244 542.383C616.494 542.383 616.837 542.336 617.275 542.242V544C616.705 544.156 616.15 544.234 615.611 544.234C614.642 544.234 613.912 543.941 613.42 543.355C612.927 542.77 612.681 541.938 612.681 540.859V532.996H610.373V531.32H612.681V528.25H614.849ZM619.184 537.543C619.184 536.301 619.426 535.184 619.91 534.191C620.402 533.199 621.082 532.434 621.949 531.895C622.824 531.355 623.82 531.086 624.938 531.086C626.664 531.086 628.059 531.684 629.121 532.879C630.191 534.074 630.727 535.664 630.727 537.648V537.801C630.727 539.035 630.488 540.145 630.012 541.129C629.543 542.105 628.867 542.867 627.984 543.414C627.109 543.961 626.102 544.234 624.961 544.234C623.242 544.234 621.848 543.637 620.777 542.441C619.715 541.246 619.184 539.664 619.184 537.695V537.543ZM621.363 537.801C621.363 539.207 621.688 540.336 622.336 541.188C622.992 542.039 623.867 542.465 624.961 542.465C626.062 542.465 626.938 542.035 627.586 541.176C628.234 540.309 628.559 539.098 628.559 537.543C628.559 536.152 628.227 535.027 627.562 534.168C626.906 533.301 626.031 532.867 624.938 532.867C623.867 532.867 623.004 533.293 622.348 534.145C621.691 534.996 621.363 536.215 621.363 537.801ZM636.62 528.25V531.32H638.987V532.996H636.62V540.859C636.62 541.367 636.725 541.75 636.936 542.008C637.147 542.258 637.506 542.383 638.014 542.383C638.264 542.383 638.608 542.336 639.045 542.242V544C638.475 544.156 637.92 544.234 637.381 544.234C636.413 544.234 635.682 543.941 635.19 543.355C634.698 542.77 634.452 541.938 634.452 540.859V532.996H632.143V531.32H634.452V528.25H636.62ZM645.911 540.824L648.864 531.32H651.184L646.087 545.957C645.298 548.066 644.044 549.121 642.325 549.121L641.915 549.086L641.106 548.934V547.176L641.692 547.223C642.427 547.223 642.997 547.074 643.403 546.777C643.817 546.48 644.157 545.938 644.423 545.148L644.903 543.859L640.38 531.32H642.747L645.911 540.824ZM664.074 537.801C664.074 539.73 663.632 541.285 662.749 542.465C661.866 543.645 660.671 544.234 659.163 544.234C657.624 544.234 656.413 543.746 655.531 542.77V548.875H653.363V531.32H655.343L655.449 532.727C656.331 531.633 657.558 531.086 659.128 531.086C660.652 531.086 661.855 531.66 662.738 532.809C663.628 533.957 664.074 535.555 664.074 537.602V537.801ZM661.906 537.555C661.906 536.125 661.601 534.996 660.991 534.168C660.382 533.34 659.546 532.926 658.484 532.926C657.171 532.926 656.187 533.508 655.531 534.672V540.73C656.179 541.887 657.171 542.465 658.507 542.465C659.546 542.465 660.37 542.055 660.98 541.234C661.597 540.406 661.906 539.18 661.906 537.555ZM672.334 544.234C670.615 544.234 669.216 543.672 668.138 542.547C667.06 541.414 666.521 539.902 666.521 538.012V537.613C666.521 536.355 666.759 535.234 667.236 534.25C667.72 533.258 668.392 532.484 669.252 531.93C670.119 531.367 671.056 531.086 672.064 531.086C673.713 531.086 674.994 531.629 675.908 532.715C676.822 533.801 677.279 535.355 677.279 537.379V538.281H668.689C668.72 539.531 669.084 540.543 669.779 541.316C670.482 542.082 671.373 542.465 672.451 542.465C673.216 542.465 673.865 542.309 674.396 541.996C674.927 541.684 675.392 541.27 675.791 540.754L677.115 541.785C676.052 543.418 674.459 544.234 672.334 544.234ZM672.064 532.867C671.189 532.867 670.455 533.188 669.861 533.828C669.267 534.461 668.9 535.352 668.759 536.5H675.111V536.336C675.049 535.234 674.752 534.383 674.22 533.781C673.689 533.172 672.97 532.867 672.064 532.867Z" fill="black"/>
<rect x="328.5" y="269.5" width="194" height="104" rx="7.5" fill="white" stroke="#CAD4DB" stroke-width="5"/>
<path d="M363.855 311.938L369.433 325.859L375.011 311.938H377.929V329H375.679V322.355L375.89 315.184L370.288 329H368.566L362.976 315.219L363.198 322.355V329H360.948V311.938H363.855ZM381.22 322.543C381.22 321.301 381.462 320.184 381.947 319.191C382.439 318.199 383.119 317.434 383.986 316.895C384.861 316.355 385.857 316.086 386.974 316.086C388.701 316.086 390.095 316.684 391.158 317.879C392.228 319.074 392.763 320.664 392.763 322.648V322.801C392.763 324.035 392.525 325.145 392.048 326.129C391.58 327.105 390.904 327.867 390.021 328.414C389.146 328.961 388.138 329.234 386.998 329.234C385.279 329.234 383.884 328.637 382.814 327.441C381.751 326.246 381.22 324.664 381.22 322.695V322.543ZM383.4 322.801C383.4 324.207 383.724 325.336 384.373 326.188C385.029 327.039 385.904 327.465 386.998 327.465C388.099 327.465 388.974 327.035 389.623 326.176C390.271 325.309 390.595 324.098 390.595 322.543C390.595 321.152 390.263 320.027 389.599 319.168C388.943 318.301 388.068 317.867 386.974 317.867C385.904 317.867 385.041 318.293 384.384 319.145C383.728 319.996 383.4 321.215 383.4 322.801ZM395.141 322.543C395.141 321.301 395.383 320.184 395.867 319.191C396.359 318.199 397.039 317.434 397.906 316.895C398.781 316.355 399.777 316.086 400.894 316.086C402.621 316.086 404.016 316.684 405.078 317.879C406.148 319.074 406.684 320.664 406.684 322.648V322.801C406.684 324.035 406.445 325.145 405.969 326.129C405.5 327.105 404.824 327.867 403.941 328.414C403.066 328.961 402.059 329.234 400.918 329.234C399.199 329.234 397.805 328.637 396.734 327.441C395.672 326.246 395.141 324.664 395.141 322.695V322.543ZM397.32 322.801C397.32 324.207 397.644 325.336 398.293 326.188C398.949 327.039 399.824 327.465 400.918 327.465C402.019 327.465 402.894 327.035 403.543 326.176C404.191 325.309 404.516 324.098 404.516 322.543C404.516 321.152 404.184 320.027 403.519 319.168C402.863 318.301 401.988 317.867 400.894 317.867C399.824 317.867 398.961 318.293 398.305 319.145C397.648 319.996 397.32 321.215 397.32 322.801ZM409.108 322.555C409.108 320.609 409.569 319.047 410.491 317.867C411.412 316.68 412.619 316.086 414.112 316.086C415.596 316.086 416.772 316.594 417.639 317.609V311H419.807V329H417.815L417.709 327.641C416.842 328.703 415.635 329.234 414.088 329.234C412.619 329.234 411.42 328.633 410.491 327.43C409.569 326.227 409.108 324.656 409.108 322.719V322.555ZM411.276 322.801C411.276 324.238 411.573 325.363 412.166 326.176C412.76 326.988 413.58 327.395 414.627 327.395C416.002 327.395 417.006 326.777 417.639 325.543V319.719C416.991 318.523 415.994 317.926 414.651 317.926C413.588 317.926 412.76 318.336 412.166 319.156C411.573 319.977 411.276 321.191 411.276 322.801ZM429.941 329V311.938H435.519C437.37 311.938 438.761 312.32 439.691 313.086C440.628 313.852 441.097 314.984 441.097 316.484C441.097 317.281 440.87 317.988 440.417 318.605C439.964 319.215 439.347 319.688 438.566 320.023C439.488 320.281 440.214 320.773 440.745 321.5C441.284 322.219 441.554 323.078 441.554 324.078C441.554 325.609 441.058 326.812 440.066 327.688C439.073 328.562 437.671 329 435.859 329H429.941ZM432.191 321.02V327.16H435.905C436.952 327.16 437.777 326.891 438.378 326.352C438.988 325.805 439.292 325.055 439.292 324.102C439.292 322.047 438.175 321.02 435.941 321.02H432.191ZM432.191 319.215H435.589C436.573 319.215 437.359 318.969 437.945 318.477C438.538 317.984 438.835 317.316 438.835 316.473C438.835 315.535 438.562 314.855 438.015 314.434C437.468 314.004 436.636 313.789 435.519 313.789H432.191V319.215ZM444.213 322.543C444.213 321.301 444.455 320.184 444.939 319.191C445.431 318.199 446.111 317.434 446.978 316.895C447.853 316.355 448.849 316.086 449.966 316.086C451.693 316.086 453.088 316.684 454.15 317.879C455.22 319.074 455.756 320.664 455.756 322.648V322.801C455.756 324.035 455.517 325.145 455.041 326.129C454.572 327.105 453.896 327.867 453.013 328.414C452.138 328.961 451.131 329.234 449.99 329.234C448.271 329.234 446.877 328.637 445.806 327.441C444.744 326.246 444.213 324.664 444.213 322.695V322.543ZM446.392 322.801C446.392 324.207 446.716 325.336 447.365 326.188C448.021 327.039 448.896 327.465 449.99 327.465C451.091 327.465 451.966 327.035 452.615 326.176C453.263 325.309 453.588 324.098 453.588 322.543C453.588 321.152 453.256 320.027 452.591 319.168C451.935 318.301 451.06 317.867 449.966 317.867C448.896 317.867 448.033 318.293 447.377 319.145C446.72 319.996 446.392 321.215 446.392 322.801ZM466.535 329C466.41 328.75 466.309 328.305 466.231 327.664C465.223 328.711 464.02 329.234 462.621 329.234C461.371 329.234 460.344 328.883 459.539 328.18C458.742 327.469 458.344 326.57 458.344 325.484C458.344 324.164 458.844 323.141 459.844 322.414C460.852 321.68 462.266 321.312 464.086 321.312H466.195V320.316C466.195 319.559 465.969 318.957 465.516 318.512C465.063 318.059 464.395 317.832 463.512 317.832C462.738 317.832 462.09 318.027 461.566 318.418C461.043 318.809 460.781 319.281 460.781 319.836H458.602C458.602 319.203 458.824 318.594 459.27 318.008C459.723 317.414 460.332 316.945 461.098 316.602C461.871 316.258 462.719 316.086 463.641 316.086C465.102 316.086 466.246 316.453 467.074 317.188C467.902 317.914 468.332 318.918 468.363 320.199V326.035C468.363 327.199 468.512 328.125 468.809 328.812V329H466.535ZM462.938 327.348C463.617 327.348 464.262 327.172 464.871 326.82C465.481 326.469 465.922 326.012 466.195 325.449V322.848H464.496C461.84 322.848 460.512 323.625 460.512 325.18C460.512 325.859 460.738 326.391 461.191 326.773C461.645 327.156 462.227 327.348 462.938 327.348ZM478.124 318.266C477.795 318.211 477.44 318.184 477.057 318.184C475.635 318.184 474.67 318.789 474.163 320V329H471.995V316.32H474.104L474.139 317.785C474.85 316.652 475.858 316.086 477.163 316.086C477.584 316.086 477.905 316.141 478.124 316.25V318.266ZM479.599 322.555C479.599 320.609 480.059 319.047 480.981 317.867C481.903 316.68 483.11 316.086 484.602 316.086C486.087 316.086 487.263 316.594 488.13 317.609V311H490.298V329H488.306L488.2 327.641C487.333 328.703 486.126 329.234 484.579 329.234C483.11 329.234 481.911 328.633 480.981 327.43C480.059 326.227 479.599 324.656 479.599 322.719V322.555ZM481.767 322.801C481.767 324.238 482.063 325.363 482.657 326.176C483.251 326.988 484.071 327.395 485.118 327.395C486.493 327.395 487.497 326.777 488.13 325.543V319.719C487.481 318.523 486.485 317.926 485.142 317.926C484.079 317.926 483.251 318.336 482.657 319.156C482.063 319.977 481.767 321.191 481.767 322.801Z" fill="black"/>
<rect x="1157.5" y="272.5" width="194" height="104" rx="7.5" fill="white" stroke="#CAD4DB" stroke-width="5"/>
<path d="M1189.09 330.16H1197.18V332H1186.83V314.938H1189.09V330.16ZM1209.39 324.465H1202.23V332H1199.98V314.938H1210.55V316.789H1202.23V322.625H1209.39V324.465ZM1223.34 326.621L1223.67 328.871L1224.15 326.844L1227.53 314.938H1229.43L1232.72 326.844L1233.19 328.906L1233.55 326.609L1236.2 314.938H1238.46L1234.32 332H1232.27L1228.76 319.566L1228.49 318.266L1228.22 319.566L1224.57 332H1222.52L1218.4 314.938H1220.65L1223.34 326.621ZM1243.22 332H1241.05V319.32H1243.22V332ZM1240.87 315.957C1240.87 315.605 1240.98 315.309 1241.19 315.066C1241.41 314.824 1241.73 314.703 1242.15 314.703C1242.57 314.703 1242.89 314.824 1243.11 315.066C1243.33 315.309 1243.44 315.605 1243.44 315.957C1243.44 316.309 1243.33 316.602 1243.11 316.836C1242.89 317.07 1242.57 317.188 1242.15 317.188C1241.73 317.188 1241.41 317.07 1241.19 316.836C1240.98 316.602 1240.87 316.309 1240.87 315.957ZM1253.06 321.266C1252.73 321.211 1252.38 321.184 1251.99 321.184C1250.57 321.184 1249.61 321.789 1249.1 323V332H1246.93V319.32H1249.04L1249.07 320.785C1249.79 319.652 1250.79 319.086 1252.1 319.086C1252.52 319.086 1252.84 319.141 1253.06 319.25V321.266ZM1260.32 332.234C1258.6 332.234 1257.21 331.672 1256.13 330.547C1255.05 329.414 1254.51 327.902 1254.51 326.012V325.613C1254.51 324.355 1254.75 323.234 1255.23 322.25C1255.71 321.258 1256.38 320.484 1257.24 319.93C1258.11 319.367 1259.05 319.086 1260.05 319.086C1261.7 319.086 1262.98 319.629 1263.9 320.715C1264.81 321.801 1265.27 323.355 1265.27 325.379V326.281H1256.68C1256.71 327.531 1257.07 328.543 1257.77 329.316C1258.47 330.082 1259.36 330.465 1260.44 330.465C1261.21 330.465 1261.85 330.309 1262.39 329.996C1262.92 329.684 1263.38 329.27 1263.78 328.754L1265.1 329.785C1264.04 331.418 1262.45 332.234 1260.32 332.234ZM1260.05 320.867C1259.18 320.867 1258.44 321.188 1257.85 321.828C1257.26 322.461 1256.89 323.352 1256.75 324.5H1263.1V324.336C1263.04 323.234 1262.74 322.383 1262.21 321.781C1261.68 321.172 1260.96 320.867 1260.05 320.867ZM1269.09 332V320.996H1267.08V319.32H1269.09V318.02C1269.09 316.66 1269.45 315.609 1270.18 314.867C1270.9 314.125 1271.93 313.754 1273.26 313.754C1273.76 313.754 1274.26 313.82 1274.75 313.953L1274.63 315.711C1274.26 315.641 1273.87 315.605 1273.46 315.605C1272.76 315.605 1272.21 315.812 1271.83 316.227C1271.45 316.633 1271.26 317.219 1271.26 317.984V319.32H1273.96V320.996H1271.26V332H1269.09ZM1282.73 321.266C1282.4 321.211 1282.04 321.184 1281.66 321.184C1280.24 321.184 1279.27 321.789 1278.77 323V332H1276.6V319.32H1278.71L1278.74 320.785C1279.45 319.652 1280.46 319.086 1281.77 319.086C1282.19 319.086 1282.51 319.141 1282.73 319.25V321.266ZM1292.32 332C1292.2 331.75 1292.1 331.305 1292.02 330.664C1291.01 331.711 1289.81 332.234 1288.41 332.234C1287.16 332.234 1286.13 331.883 1285.33 331.18C1284.53 330.469 1284.13 329.57 1284.13 328.484C1284.13 327.164 1284.63 326.141 1285.63 325.414C1286.64 324.68 1288.05 324.312 1289.87 324.312H1291.98V323.316C1291.98 322.559 1291.76 321.957 1291.3 321.512C1290.85 321.059 1290.18 320.832 1289.3 320.832C1288.53 320.832 1287.88 321.027 1287.35 321.418C1286.83 321.809 1286.57 322.281 1286.57 322.836H1284.39C1284.39 322.203 1284.61 321.594 1285.06 321.008C1285.51 320.414 1286.12 319.945 1286.89 319.602C1287.66 319.258 1288.51 319.086 1289.43 319.086C1290.89 319.086 1292.03 319.453 1292.86 320.188C1293.69 320.914 1294.12 321.918 1294.15 323.199V329.035C1294.15 330.199 1294.3 331.125 1294.6 331.812V332H1292.32ZM1288.73 330.348C1289.4 330.348 1290.05 330.172 1290.66 329.82C1291.27 329.469 1291.71 329.012 1291.98 328.449V325.848H1290.28C1287.63 325.848 1286.3 326.625 1286.3 328.18C1286.3 328.859 1286.53 329.391 1286.98 329.773C1287.43 330.156 1288.01 330.348 1288.73 330.348ZM1299.82 319.32L1299.88 320.727C1300.81 319.633 1302.06 319.086 1303.64 319.086C1305.41 319.086 1306.62 319.766 1307.26 321.125C1307.68 320.516 1308.23 320.023 1308.9 319.648C1309.58 319.273 1310.38 319.086 1311.31 319.086C1314.09 319.086 1315.5 320.559 1315.55 323.504V332H1313.38V323.633C1313.38 322.727 1313.17 322.051 1312.76 321.605C1312.34 321.152 1311.65 320.926 1310.67 320.926C1309.87 320.926 1309.2 321.168 1308.67 321.652C1308.14 322.129 1307.83 322.773 1307.74 323.586V332H1305.56V323.691C1305.56 321.848 1304.66 320.926 1302.86 320.926C1301.43 320.926 1300.46 321.531 1299.94 322.742V332H1297.77V319.32H1299.82ZM1324.32 332.234C1322.6 332.234 1321.21 331.672 1320.13 330.547C1319.05 329.414 1318.51 327.902 1318.51 326.012V325.613C1318.51 324.355 1318.75 323.234 1319.23 322.25C1319.71 321.258 1320.38 320.484 1321.24 319.93C1322.11 319.367 1323.05 319.086 1324.05 319.086C1325.7 319.086 1326.98 319.629 1327.9 320.715C1328.81 321.801 1329.27 323.355 1329.27 325.379V326.281H1320.68C1320.71 327.531 1321.07 328.543 1321.77 329.316C1322.47 330.082 1323.36 330.465 1324.44 330.465C1325.21 330.465 1325.85 330.309 1326.39 329.996C1326.92 329.684 1327.38 329.27 1327.78 328.754L1329.1 329.785C1328.04 331.418 1326.45 332.234 1324.32 332.234ZM1324.05 320.867C1323.18 320.867 1322.44 321.188 1321.85 321.828C1321.26 322.461 1320.89 323.352 1320.75 324.5H1327.1V324.336C1327.04 323.234 1326.74 322.383 1326.21 321.781C1325.68 321.172 1324.96 320.867 1324.05 320.867Z" fill="black"/>
<rect x="728.5" y="269.5" width="194" height="104" rx="7.5" fill="white" stroke="#CAD4DB" stroke-width="5"/>
<path d="M746.116 326.012L750.991 311.938H753.452L747.124 329H745.132L738.815 311.938H741.265L746.116 326.012ZM757.998 329H755.83V316.32H757.998V329ZM755.654 312.957C755.654 312.605 755.759 312.309 755.97 312.066C756.189 311.824 756.509 311.703 756.931 311.703C757.353 311.703 757.673 311.824 757.892 312.066C758.111 312.309 758.22 312.605 758.22 312.957C758.22 313.309 758.111 313.602 757.892 313.836C757.673 314.07 757.353 314.188 756.931 314.188C756.509 314.188 756.189 314.07 755.97 313.836C755.759 313.602 755.654 313.309 755.654 312.957ZM769.094 325.637C769.094 325.051 768.871 324.598 768.426 324.277C767.988 323.949 767.219 323.668 766.117 323.434C765.023 323.199 764.152 322.918 763.504 322.59C762.863 322.262 762.387 321.871 762.074 321.418C761.769 320.965 761.617 320.426 761.617 319.801C761.617 318.762 762.055 317.883 762.93 317.164C763.812 316.445 764.937 316.086 766.305 316.086C767.742 316.086 768.906 316.457 769.797 317.199C770.695 317.941 771.144 318.891 771.144 320.047H768.965C768.965 319.453 768.711 318.941 768.203 318.512C767.703 318.082 767.07 317.867 766.305 317.867C765.516 317.867 764.898 318.039 764.453 318.383C764.008 318.727 763.785 319.176 763.785 319.73C763.785 320.254 763.992 320.648 764.406 320.914C764.82 321.18 765.566 321.434 766.644 321.676C767.73 321.918 768.609 322.207 769.281 322.543C769.953 322.879 770.449 323.285 770.769 323.762C771.098 324.23 771.262 324.805 771.262 325.484C771.262 326.617 770.808 327.527 769.902 328.215C768.996 328.895 767.82 329.234 766.375 329.234C765.359 329.234 764.461 329.055 763.68 328.695C762.898 328.336 762.285 327.836 761.84 327.195C761.402 326.547 761.183 325.848 761.183 325.098H763.351C763.391 325.824 763.68 326.402 764.219 326.832C764.766 327.254 765.484 327.465 766.375 327.465C767.195 327.465 767.851 327.301 768.344 326.973C768.844 326.637 769.094 326.191 769.094 325.637ZM782.147 327.746C781.303 328.738 780.065 329.234 778.432 329.234C777.08 329.234 776.049 328.844 775.338 328.062C774.635 327.273 774.28 326.109 774.272 324.57V316.32H776.44V324.512C776.44 326.434 777.221 327.395 778.784 327.395C780.44 327.395 781.541 326.777 782.088 325.543V316.32H784.256V329H782.194L782.147 327.746ZM795.622 329C795.497 328.75 795.395 328.305 795.317 327.664C794.309 328.711 793.106 329.234 791.708 329.234C790.458 329.234 789.43 328.883 788.626 328.18C787.829 327.469 787.43 326.57 787.43 325.484C787.43 324.164 787.93 323.141 788.93 322.414C789.938 321.68 791.352 321.312 793.173 321.312H795.282V320.316C795.282 319.559 795.055 318.957 794.602 318.512C794.149 318.059 793.481 317.832 792.598 317.832C791.825 317.832 791.176 318.027 790.653 318.418C790.13 318.809 789.868 319.281 789.868 319.836H787.688C787.688 319.203 787.911 318.594 788.356 318.008C788.809 317.414 789.419 316.945 790.184 316.602C790.958 316.258 791.805 316.086 792.727 316.086C794.188 316.086 795.333 316.453 796.161 317.188C796.989 317.914 797.419 318.918 797.45 320.199V326.035C797.45 327.199 797.598 328.125 797.895 328.812V329H795.622ZM792.024 327.348C792.704 327.348 793.348 327.172 793.958 326.82C794.567 326.469 795.009 326.012 795.282 325.449V322.848H793.583C790.926 322.848 789.598 323.625 789.598 325.18C789.598 325.859 789.825 326.391 790.278 326.773C790.731 327.156 791.313 327.348 792.024 327.348ZM803.437 329H801.269V311H803.437V329ZM815.938 327.16H824.023V329H813.676V311.938H815.938V327.16ZM834.311 329C834.186 328.75 834.084 328.305 834.006 327.664C832.998 328.711 831.795 329.234 830.397 329.234C829.147 329.234 828.12 328.883 827.315 328.18C826.518 327.469 826.12 326.57 826.12 325.484C826.12 324.164 826.62 323.141 827.62 322.414C828.627 321.68 830.041 321.312 831.862 321.312H833.971V320.316C833.971 319.559 833.745 318.957 833.291 318.512C832.838 318.059 832.17 317.832 831.288 317.832C830.514 317.832 829.866 318.027 829.342 318.418C828.819 318.809 828.557 319.281 828.557 319.836H826.377C826.377 319.203 826.6 318.594 827.045 318.008C827.498 317.414 828.108 316.945 828.873 316.602C829.647 316.258 830.495 316.086 831.416 316.086C832.877 316.086 834.022 316.453 834.85 317.188C835.678 317.914 836.108 318.918 836.139 320.199V326.035C836.139 327.199 836.288 328.125 836.584 328.812V329H834.311ZM830.713 327.348C831.393 327.348 832.038 327.172 832.647 326.82C833.256 326.469 833.698 326.012 833.971 325.449V322.848H832.272C829.616 322.848 828.288 323.625 828.288 325.18C828.288 325.859 828.514 326.391 828.967 326.773C829.42 327.156 830.002 327.348 830.713 327.348ZM841.821 316.32L841.891 317.914C842.86 316.695 844.126 316.086 845.688 316.086C848.368 316.086 849.72 317.598 849.743 320.621V329H847.575V320.609C847.567 319.695 847.356 319.02 846.942 318.582C846.536 318.145 845.899 317.926 845.032 317.926C844.329 317.926 843.712 318.113 843.181 318.488C842.649 318.863 842.235 319.355 841.938 319.965V329H839.77V316.32H841.821ZM852.73 322.555C852.73 320.578 853.187 319.008 854.101 317.844C855.015 316.672 856.226 316.086 857.734 316.086C859.281 316.086 860.488 316.633 861.355 317.727L861.46 316.32H863.441V328.695C863.441 330.336 862.952 331.629 861.976 332.574C861.007 333.52 859.702 333.992 858.062 333.992C857.148 333.992 856.253 333.797 855.378 333.406C854.503 333.016 853.835 332.48 853.374 331.801L854.499 330.5C855.429 331.648 856.566 332.223 857.909 332.223C858.964 332.223 859.784 331.926 860.37 331.332C860.964 330.738 861.261 329.902 861.261 328.824V327.734C860.394 328.734 859.21 329.234 857.71 329.234C856.226 329.234 855.023 328.637 854.101 327.441C853.187 326.246 852.73 324.617 852.73 322.555ZM854.909 322.801C854.909 324.23 855.202 325.355 855.788 326.176C856.374 326.988 857.195 327.395 858.249 327.395C859.616 327.395 860.62 326.773 861.261 325.531V319.742C860.597 318.531 859.601 317.926 858.273 317.926C857.218 317.926 856.394 318.336 855.8 319.156C855.206 319.977 854.909 321.191 854.909 322.801ZM874.783 327.746C873.939 328.738 872.701 329.234 871.068 329.234C869.716 329.234 868.685 328.844 867.974 328.062C867.271 327.273 866.916 326.109 866.908 324.57V316.32H869.076V324.512C869.076 326.434 869.857 327.395 871.42 327.395C873.076 327.395 874.177 326.777 874.724 325.543V316.32H876.892V329H874.83L874.783 327.746ZM888.258 329C888.133 328.75 888.031 328.305 887.953 327.664C886.945 328.711 885.742 329.234 884.344 329.234C883.094 329.234 882.067 328.883 881.262 328.18C880.465 327.469 880.067 326.57 880.067 325.484C880.067 324.164 880.567 323.141 881.567 322.414C882.574 321.68 883.988 321.312 885.809 321.312H887.918V320.316C887.918 319.559 887.692 318.957 887.238 318.512C886.785 318.059 886.117 317.832 885.234 317.832C884.461 317.832 883.813 318.027 883.289 318.418C882.766 318.809 882.504 319.281 882.504 319.836H880.324C880.324 319.203 880.547 318.594 880.992 318.008C881.445 317.414 882.055 316.945 882.82 316.602C883.594 316.258 884.442 316.086 885.363 316.086C886.824 316.086 887.969 316.453 888.797 317.188C889.625 317.914 890.055 318.918 890.086 320.199V326.035C890.086 327.199 890.234 328.125 890.531 328.812V329H888.258ZM884.66 327.348C885.34 327.348 885.984 327.172 886.594 326.82C887.203 326.469 887.645 326.012 887.918 325.449V322.848H886.219C883.563 322.848 882.234 323.625 882.234 325.18C882.234 325.859 882.461 326.391 882.914 326.773C883.367 327.156 883.949 327.348 884.66 327.348ZM893.202 322.555C893.202 320.578 893.659 319.008 894.573 317.844C895.487 316.672 896.698 316.086 898.206 316.086C899.752 316.086 900.96 316.633 901.827 317.727L901.932 316.32H903.913V328.695C903.913 330.336 903.424 331.629 902.448 332.574C901.479 333.52 900.174 333.992 898.534 333.992C897.62 333.992 896.725 333.797 895.85 333.406C894.975 333.016 894.307 332.48 893.846 331.801L894.971 330.5C895.901 331.648 897.038 332.223 898.381 332.223C899.436 332.223 900.256 331.926 900.842 331.332C901.436 330.738 901.733 329.902 901.733 328.824V327.734C900.866 328.734 899.682 329.234 898.182 329.234C896.698 329.234 895.495 328.637 894.573 327.441C893.659 326.246 893.202 324.617 893.202 322.555ZM895.381 322.801C895.381 324.23 895.674 325.355 896.26 326.176C896.846 326.988 897.667 327.395 898.721 327.395C900.088 327.395 901.092 326.773 901.733 325.531V319.742C901.069 318.531 900.073 317.926 898.745 317.926C897.69 317.926 896.866 318.336 896.272 319.156C895.678 319.977 895.381 321.191 895.381 322.801ZM912.688 329.234C910.97 329.234 909.571 328.672 908.493 327.547C907.415 326.414 906.876 324.902 906.876 323.012V322.613C906.876 321.355 907.114 320.234 907.591 319.25C908.075 318.258 908.747 317.484 909.606 316.93C910.474 316.367 911.411 316.086 912.419 316.086C914.067 316.086 915.349 316.629 916.263 317.715C917.177 318.801 917.634 320.355 917.634 322.379V323.281H909.044C909.075 324.531 909.438 325.543 910.134 326.316C910.837 327.082 911.728 327.465 912.806 327.465C913.571 327.465 914.22 327.309 914.751 326.996C915.282 326.684 915.747 326.27 916.145 325.754L917.47 326.785C916.407 328.418 914.813 329.234 912.688 329.234ZM912.419 317.867C911.544 317.867 910.81 318.188 910.216 318.828C909.622 319.461 909.255 320.352 909.114 321.5H915.466V321.336C915.403 320.234 915.106 319.383 914.575 318.781C914.044 318.172 913.325 317.867 912.419 317.867Z" fill="black"/>
<rect x="935.5" y="47.5" width="194" height="104" rx="7.5" fill="white" stroke="#CAD4DB" stroke-width="5"/>
<path d="M992.768 89.9375V101.539C992.76 103.148 992.252 104.465 991.244 105.488C990.244 106.512 988.885 107.086 987.166 107.211L986.569 107.234C984.701 107.234 983.213 106.73 982.104 105.723C980.994 104.715 980.432 103.328 980.416 101.562V89.9375H982.643V101.492C982.643 102.727 982.983 103.688 983.662 104.375C984.342 105.055 985.311 105.395 986.569 105.395C987.842 105.395 988.815 105.055 989.487 104.375C990.166 103.695 990.506 102.738 990.506 101.504V89.9375H992.768ZM1003.59 103.637C1003.59 103.051 1003.37 102.598 1002.93 102.277C1002.49 101.949 1001.72 101.668 1000.62 101.434C999.524 101.199 998.653 100.918 998.005 100.59C997.364 100.262 996.887 99.8711 996.575 99.418C996.27 98.9648 996.118 98.4258 996.118 97.8008C996.118 96.7617 996.555 95.8828 997.43 95.1641C998.313 94.4453 999.438 94.0859 1000.81 94.0859C1002.24 94.0859 1003.41 94.457 1004.3 95.1992C1005.2 95.9414 1005.65 96.8906 1005.65 98.0469H1003.47C1003.47 97.4531 1003.21 96.9414 1002.7 96.5117C1002.2 96.082 1001.57 95.8672 1000.81 95.8672C1000.02 95.8672 999.399 96.0391 998.954 96.3828C998.509 96.7266 998.286 97.1758 998.286 97.7305C998.286 98.2539 998.493 98.6484 998.907 98.9141C999.321 99.1797 1000.07 99.4336 1001.15 99.6758C1002.23 99.918 1003.11 100.207 1003.78 100.543C1004.45 100.879 1004.95 101.285 1005.27 101.762C1005.6 102.23 1005.76 102.805 1005.76 103.484C1005.76 104.617 1005.31 105.527 1004.4 106.215C1003.5 106.895 1002.32 107.234 1000.88 107.234C999.86 107.234 998.962 107.055 998.18 106.695C997.399 106.336 996.786 105.836 996.341 105.195C995.903 104.547 995.684 103.848 995.684 103.098H997.852C997.891 103.824 998.18 104.402 998.719 104.832C999.266 105.254 999.985 105.465 1000.88 105.465C1001.7 105.465 1002.35 105.301 1002.84 104.973C1003.34 104.637 1003.59 104.191 1003.59 103.637ZM1014.08 107.234C1012.36 107.234 1010.96 106.672 1009.89 105.547C1008.81 104.414 1008.27 102.902 1008.27 101.012V100.613C1008.27 99.3555 1008.51 98.2344 1008.98 97.25C1009.47 96.2578 1010.14 95.4844 1011 94.9297C1011.87 94.3672 1012.8 94.0859 1013.81 94.0859C1015.46 94.0859 1016.74 94.6289 1017.66 95.7148C1018.57 96.8008 1019.03 98.3555 1019.03 100.379V101.281H1010.44C1010.47 102.531 1010.83 103.543 1011.53 104.316C1012.23 105.082 1013.12 105.465 1014.2 105.465C1014.96 105.465 1015.61 105.309 1016.14 104.996C1016.67 104.684 1017.14 104.27 1017.54 103.754L1018.86 104.785C1017.8 106.418 1016.21 107.234 1014.08 107.234ZM1013.81 95.8672C1012.94 95.8672 1012.2 96.1875 1011.61 96.8281C1011.01 97.4609 1010.65 98.3516 1010.51 99.5H1016.86V99.3359C1016.8 98.2344 1016.5 97.3828 1015.97 96.7812C1015.44 96.1719 1014.72 95.8672 1013.81 95.8672ZM1027.91 96.2656C1027.58 96.2109 1027.22 96.1836 1026.84 96.1836C1025.42 96.1836 1024.45 96.7891 1023.95 98V107H1021.78V94.3203H1023.89L1023.92 95.7852C1024.63 94.6523 1025.64 94.0859 1026.95 94.0859C1027.37 94.0859 1027.69 94.1406 1027.91 94.25V96.2656ZM1046.08 99.4648H1038.92V107H1036.67V89.9375H1047.24V91.7891H1038.92V97.625H1046.08V99.4648ZM1052.18 107H1050.02V89H1052.18V107ZM1055.32 100.543C1055.32 99.3008 1055.57 98.1836 1056.05 97.1914C1056.54 96.1992 1057.22 95.4336 1058.09 94.8945C1058.96 94.3555 1059.96 94.0859 1061.08 94.0859C1062.8 94.0859 1064.2 94.6836 1065.26 95.8789C1066.33 97.0742 1066.87 98.6641 1066.87 100.648V100.801C1066.87 102.035 1066.63 103.145 1066.15 104.129C1065.68 105.105 1065.01 105.867 1064.12 106.414C1063.25 106.961 1062.24 107.234 1061.1 107.234C1059.38 107.234 1057.99 106.637 1056.92 105.441C1055.85 104.246 1055.32 102.664 1055.32 100.695V100.543ZM1057.5 100.801C1057.5 102.207 1057.83 103.336 1058.48 104.188C1059.13 105.039 1060.01 105.465 1061.1 105.465C1062.2 105.465 1063.08 105.035 1063.73 104.176C1064.37 103.309 1064.7 102.098 1064.7 100.543C1064.7 99.1523 1064.37 98.0273 1063.7 97.168C1063.05 96.3008 1062.17 95.8672 1061.08 95.8672C1060.01 95.8672 1059.14 96.293 1058.49 97.1445C1057.83 97.9961 1057.5 99.2148 1057.5 100.801ZM1081.04 104.012L1083.48 94.3203H1085.65L1081.96 107H1080.2L1077.12 97.3906L1074.12 107H1072.36L1068.68 94.3203H1070.84L1073.33 103.812L1076.29 94.3203H1078.03L1081.04 104.012Z" fill="black"/>
<g filter="url(#filter0_d)">
<path d="M515.561 101.061C516.146 100.475 516.146 99.5251 515.561 98.9393L506.015 89.3934C505.429 88.8076 504.479 88.8076 503.893 89.3934C503.308 89.9792 503.308 90.9289 503.893 91.5147L512.379 100L503.893 108.485C503.308 109.071 503.308 110.021 503.893 110.607C504.479 111.192 505.429 111.192 506.015 110.607L515.561 101.061ZM336 101.5H514.5V98.5H336V101.5Z" fill="black"/>
</g>
<g filter="url(#filter1_d)">
<path d="M511.561 531.061C512.146 530.475 512.146 529.525 511.561 528.939L502.015 519.393C501.429 518.808 500.479 518.808 499.893 519.393C499.308 519.979 499.308 520.929 499.893 521.515L508.379 530L499.893 538.485C499.308 539.071 499.308 540.021 499.893 540.607C500.479 541.192 501.429 541.192 502.015 540.607L511.561 531.061ZM332 531.5H510.5V528.5H332V531.5Z" fill="black"/>
</g>
<g filter="url(#filter2_d)">
<path d="M916.561 531.061C917.146 530.475 917.146 529.525 916.561 528.939L907.015 519.393C906.429 518.808 905.479 518.808 904.893 519.393C904.308 519.979 904.308 520.929 904.893 521.515L913.379 530L904.893 538.485C904.308 539.071 904.308 540.021 904.893 540.607C905.479 541.192 906.429 541.192 907.015 540.607L916.561 531.061ZM737 531.5H915.5V528.5H737V531.5Z" fill="black"/>
</g>
<g filter="url(#filter3_d)">
<path d="M916.561 101.061C917.146 100.475 917.146 99.5251 916.561 98.9393L907.015 89.3934C906.429 88.8076 905.479 88.8076 904.893 89.3934C904.308 89.9792 904.308 90.9289 904.893 91.5147L913.379 100L904.893 108.485C904.308 109.071 904.308 110.021 904.893 110.607C905.479 111.192 906.429 111.192 907.015 110.607L916.561 101.061ZM737 101.5H915.5V98.5H737V101.5Z" fill="black"/>
</g>
<g filter="url(#filter4_d)">
<path d="M951.939 320.939C951.354 321.525 951.354 322.475 951.939 323.061L961.485 332.607C962.071 333.192 963.021 333.192 963.607 332.607C964.192 332.021 964.192 331.071 963.607 330.485L955.121 322L963.607 313.515C964.192 312.929 964.192 311.979 963.607 311.393C963.021 310.808 962.071 310.808 961.485 311.393L951.939 320.939ZM1131.5 320.5H953V323.5H1131.5V320.5Z" fill="black"/>
</g>
<g filter="url(#filter5_d)">
<path d="M534.939 320.939C534.354 321.525 534.354 322.475 534.939 323.061L544.485 332.607C545.071 333.192 546.021 333.192 546.607 332.607C547.192 332.021 547.192 331.071 546.607 330.485L538.121 322L546.607 313.515C547.192 312.929 547.192 311.979 546.607 311.393C546.021 310.808 545.071 310.808 544.485 311.393L534.939 320.939ZM714.5 320.5H536V323.5H714.5V320.5Z" fill="black"/>
</g>
<g filter="url(#filter6_d)">
<path d="M1259.61 141.537L1258.83 142.816L1258.83 142.816L1259.61 141.537ZM1260.94 228.061C1261.53 228.646 1262.47 228.646 1263.06 228.061L1272.61 218.515C1273.19 217.929 1273.19 216.979 1272.61 216.393C1272.02 215.808 1271.07 215.808 1270.49 216.393L1262 224.879L1253.51 216.393C1252.93 215.808 1251.98 215.808 1251.39 216.393C1250.81 216.979 1250.81 217.929 1251.39 218.515L1260.94 228.061ZM1196.72 104.779L1258.83 142.816L1260.39 140.258L1198.28 102.221L1196.72 104.779ZM1260.5 145.801V227H1263.5V145.801H1260.5ZM1258.83 142.816C1259.87 143.452 1260.5 144.583 1260.5 145.801H1263.5C1263.5 143.539 1262.32 141.439 1260.39 140.258L1258.83 142.816Z" fill="black"/>
</g>
<g filter="url(#filter7_d)">
<path d="M204.59 322.552L204.59 324.052L204.59 322.552ZM197.931 407.602C198.513 408.192 199.463 408.2 200.053 407.618L209.67 398.144C210.26 397.562 210.267 396.613 209.686 396.023C209.104 395.432 208.154 395.425 207.564 396.007L199.016 404.428L190.594 395.88C190.013 395.29 189.063 395.283 188.473 395.864C187.883 396.445 187.876 397.395 188.457 397.985L197.931 407.602ZM273.502 321.052L204.59 321.052L204.59 324.052L273.502 324.052L273.502 321.052ZM198.091 327.503L197.5 406.538L200.5 406.561L201.091 327.526L198.091 327.503ZM204.59 321.052C201.02 321.052 198.117 323.933 198.091 327.503L201.091 327.526C201.105 325.603 202.668 324.052 204.59 324.052L204.59 321.052Z" fill="black"/>
</g>
<rect x="120.5" y="477.5" width="194" height="104" rx="7.5" fill="white" stroke="#CAD4DB" stroke-width="5"/>
<path d="M171.843 529.395C169.913 528.84 168.507 528.16 167.624 527.355C166.749 526.543 166.312 525.543 166.312 524.355C166.312 523.012 166.847 521.902 167.917 521.027C168.995 520.145 170.394 519.703 172.112 519.703C173.284 519.703 174.327 519.93 175.241 520.383C176.163 520.836 176.874 521.461 177.374 522.258C177.882 523.055 178.136 523.926 178.136 524.871H175.874C175.874 523.84 175.546 523.031 174.89 522.445C174.233 521.852 173.308 521.555 172.112 521.555C171.003 521.555 170.136 521.801 169.511 522.293C168.894 522.777 168.585 523.453 168.585 524.32C168.585 525.016 168.878 525.605 169.464 526.09C170.058 526.566 171.062 527.004 172.476 527.402C173.898 527.801 175.007 528.242 175.804 528.727C176.608 529.203 177.202 529.762 177.585 530.402C177.976 531.043 178.171 531.797 178.171 532.664C178.171 534.047 177.632 535.156 176.554 535.992C175.476 536.82 174.034 537.234 172.23 537.234C171.058 537.234 169.964 537.012 168.948 536.566C167.933 536.113 167.148 535.496 166.593 534.715C166.046 533.934 165.773 533.047 165.773 532.055H168.034C168.034 533.086 168.413 533.902 169.171 534.504C169.937 535.098 170.956 535.395 172.23 535.395C173.417 535.395 174.327 535.152 174.96 534.668C175.593 534.184 175.909 533.523 175.909 532.688C175.909 531.852 175.616 531.207 175.03 530.754C174.444 530.293 173.382 529.84 171.843 529.395ZM183.9 521.25V524.32H186.267V525.996H183.9V533.859C183.9 534.367 184.005 534.75 184.216 535.008C184.427 535.258 184.787 535.383 185.294 535.383C185.544 535.383 185.888 535.336 186.326 535.242V537C185.755 537.156 185.201 537.234 184.662 537.234C183.693 537.234 182.962 536.941 182.47 536.355C181.978 535.77 181.732 534.938 181.732 533.859V525.996H179.423V524.32H181.732V521.25H183.9ZM193.191 533.824L196.144 524.32H198.465L193.367 538.957C192.578 541.066 191.324 542.121 189.605 542.121L189.195 542.086L188.387 541.934V540.176L188.973 540.223C189.707 540.223 190.277 540.074 190.684 539.777C191.098 539.48 191.437 538.938 191.703 538.148L192.184 536.859L187.66 524.32H190.027L193.191 533.824ZM202.998 537H200.83V519H202.998V537ZM211.973 537.234C210.255 537.234 208.856 536.672 207.778 535.547C206.7 534.414 206.161 532.902 206.161 531.012V530.613C206.161 529.355 206.399 528.234 206.876 527.25C207.36 526.258 208.032 525.484 208.891 524.93C209.759 524.367 210.696 524.086 211.704 524.086C213.352 524.086 214.634 524.629 215.548 525.715C216.462 526.801 216.919 528.355 216.919 530.379V531.281H208.329C208.36 532.531 208.723 533.543 209.419 534.316C210.122 535.082 211.012 535.465 212.091 535.465C212.856 535.465 213.505 535.309 214.036 534.996C214.567 534.684 215.032 534.27 215.43 533.754L216.755 534.785C215.692 536.418 214.098 537.234 211.973 537.234ZM211.704 525.867C210.829 525.867 210.095 526.188 209.501 526.828C208.907 527.461 208.54 528.352 208.399 529.5H214.751V529.336C214.688 528.234 214.391 527.383 213.86 526.781C213.329 526.172 212.61 525.867 211.704 525.867ZM237.517 521.789H232.033V537H229.795V521.789H224.322V519.938H237.517V521.789ZM242.297 537H240.129V524.32H242.297V537ZM239.953 520.957C239.953 520.605 240.059 520.309 240.27 520.066C240.488 519.824 240.809 519.703 241.231 519.703C241.652 519.703 241.973 519.824 242.191 520.066C242.41 520.309 242.52 520.605 242.52 520.957C242.52 521.309 242.41 521.602 242.191 521.836C241.973 522.07 241.652 522.188 241.231 522.188C240.809 522.188 240.488 522.07 240.27 521.836C240.059 521.602 239.953 521.309 239.953 520.957ZM248.366 537H246.198V519H248.366V537ZM257.341 537.234C255.622 537.234 254.224 536.672 253.145 535.547C252.067 534.414 251.528 532.902 251.528 531.012V530.613C251.528 529.355 251.767 528.234 252.243 527.25C252.727 526.258 253.399 525.484 254.259 524.93C255.126 524.367 256.063 524.086 257.071 524.086C258.72 524.086 260.001 524.629 260.915 525.715C261.829 526.801 262.286 528.355 262.286 530.379V531.281H253.696C253.727 532.531 254.091 533.543 254.786 534.316C255.489 535.082 256.38 535.465 257.458 535.465C258.224 535.465 258.872 535.309 259.403 534.996C259.934 534.684 260.399 534.27 260.798 533.754L262.122 534.785C261.059 536.418 259.466 537.234 257.341 537.234ZM257.071 525.867C256.196 525.867 255.462 526.188 254.868 526.828C254.274 527.461 253.907 528.352 253.767 529.5H260.118V529.336C260.056 528.234 259.759 527.383 259.227 526.781C258.696 526.172 257.977 525.867 257.071 525.867Z" fill="black"/>
<defs>
<filter id="filter0_d" x="332" y="88.9541" width="188" height="30.0919" filterUnits="userSpaceOnUse" color-interpolation-filters="sRGB">
<feFlood flood-opacity="0" result="BackgroundImageFix"/>
<feColorMatrix in="SourceAlpha" type="matrix" values="0 0 0 0 0 0 0 0 0 0 0 0 0 0 0 0 0 0 127 0"/>
<feOffset dy="4"/>
<feGaussianBlur stdDeviation="2"/>
<feColorMatrix type="matrix" values="0 0 0 0 0 0 0 0 0 0 0 0 0 0 0 0 0 0 0.25 0"/>
<feBlend mode="normal" in2="BackgroundImageFix" result="effect1_dropShadow"/>
<feBlend mode="normal" in="SourceGraphic" in2="effect1_dropShadow" result="shape"/>
</filter>
<filter id="filter1_d" x="328" y="518.954" width="188" height="30.0919" filterUnits="userSpaceOnUse" color-interpolation-filters="sRGB">
<feFlood flood-opacity="0" result="BackgroundImageFix"/>
<feColorMatrix in="SourceAlpha" type="matrix" values="0 0 0 0 0 0 0 0 0 0 0 0 0 0 0 0 0 0 127 0"/>
<feOffset dy="4"/>
<feGaussianBlur stdDeviation="2"/>
<feColorMatrix type="matrix" values="0 0 0 0 0 0 0 0 0 0 0 0 0 0 0 0 0 0 0.25 0"/>
<feBlend mode="normal" in2="BackgroundImageFix" result="effect1_dropShadow"/>
<feBlend mode="normal" in="SourceGraphic" in2="effect1_dropShadow" result="shape"/>
</filter>
<filter id="filter2_d" x="733" y="518.954" width="188" height="30.0919" filterUnits="userSpaceOnUse" color-interpolation-filters="sRGB">
<feFlood flood-opacity="0" result="BackgroundImageFix"/>
<feColorMatrix in="SourceAlpha" type="matrix" values="0 0 0 0 0 0 0 0 0 0 0 0 0 0 0 0 0 0 127 0"/>
<feOffset dy="4"/>
<feGaussianBlur stdDeviation="2"/>
<feColorMatrix type="matrix" values="0 0 0 0 0 0 0 0 0 0 0 0 0 0 0 0 0 0 0.25 0"/>
<feBlend mode="normal" in2="BackgroundImageFix" result="effect1_dropShadow"/>
<feBlend mode="normal" in="SourceGraphic" in2="effect1_dropShadow" result="shape"/>
</filter>
<filter id="filter3_d" x="733" y="88.9541" width="188" height="30.0919" filterUnits="userSpaceOnUse" color-interpolation-filters="sRGB">
<feFlood flood-opacity="0" result="BackgroundImageFix"/>
<feColorMatrix in="SourceAlpha" type="matrix" values="0 0 0 0 0 0 0 0 0 0 0 0 0 0 0 0 0 0 127 0"/>
<feOffset dy="4"/>
<feGaussianBlur stdDeviation="2"/>
<feColorMatrix type="matrix" values="0 0 0 0 0 0 0 0 0 0 0 0 0 0 0 0 0 0 0.25 0"/>
<feBlend mode="normal" in2="BackgroundImageFix" result="effect1_dropShadow"/>
<feBlend mode="normal" in="SourceGraphic" in2="effect1_dropShadow" result="shape"/>
</filter>
<filter id="filter4_d" x="947.5" y="310.954" width="188" height="30.0919" filterUnits="userSpaceOnUse" color-interpolation-filters="sRGB">
<feFlood flood-opacity="0" result="BackgroundImageFix"/>
<feColorMatrix in="SourceAlpha" type="matrix" values="0 0 0 0 0 0 0 0 0 0 0 0 0 0 0 0 0 0 127 0"/>
<feOffset dy="4"/>
<feGaussianBlur stdDeviation="2"/>
<feColorMatrix type="matrix" values="0 0 0 0 0 0 0 0 0 0 0 0 0 0 0 0 0 0 0.25 0"/>
<feBlend mode="normal" in2="BackgroundImageFix" result="effect1_dropShadow"/>
<feBlend mode="normal" in="SourceGraphic" in2="effect1_dropShadow" result="shape"/>
</filter>
<filter id="filter5_d" x="530.5" y="310.954" width="188" height="30.0919" filterUnits="userSpaceOnUse" color-interpolation-filters="sRGB">
<feFlood flood-opacity="0" result="BackgroundImageFix"/>
<feColorMatrix in="SourceAlpha" type="matrix" values="0 0 0 0 0 0 0 0 0 0 0 0 0 0 0 0 0 0 127 0"/>
<feOffset dy="4"/>
<feGaussianBlur stdDeviation="2"/>
<feColorMatrix type="matrix" values="0 0 0 0 0 0 0 0 0 0 0 0 0 0 0 0 0 0 0.25 0"/>
<feBlend mode="normal" in2="BackgroundImageFix" result="effect1_dropShadow"/>
<feBlend mode="normal" in="SourceGraphic" in2="effect1_dropShadow" result="shape"/>
</filter>
<filter id="filter6_d" x="1192.72" y="102.221" width="84.3293" height="134.279" filterUnits="userSpaceOnUse" color-interpolation-filters="sRGB">
<feFlood flood-opacity="0" result="BackgroundImageFix"/>
<feColorMatrix in="SourceAlpha" type="matrix" values="0 0 0 0 0 0 0 0 0 0 0 0 0 0 0 0 0 0 127 0"/>
<feOffset dy="4"/>
<feGaussianBlur stdDeviation="2"/>
<feColorMatrix type="matrix" values="0 0 0 0 0 0 0 0 0 0 0 0 0 0 0 0 0 0 0.25 0"/>
<feBlend mode="normal" in2="BackgroundImageFix" result="effect1_dropShadow"/>
<feBlend mode="normal" in="SourceGraphic" in2="effect1_dropShadow" result="shape"/>
</filter>
<filter id="filter7_d" x="183.943" y="320.418" width="93.5809" height="96.1841" filterUnits="userSpaceOnUse" color-interpolation-filters="sRGB">
<feFlood flood-opacity="0" result="BackgroundImageFix"/>
<feColorMatrix in="SourceAlpha" type="matrix" values="0 0 0 0 0 0 0 0 0 0 0 0 0 0 0 0 0 0 127 0"/>
<feOffset dy="4"/>
<feGaussianBlur stdDeviation="2"/>
<feColorMatrix type="matrix" values="0 0 0 0 0 0 0 0 0 0 0 0 0 0 0 0 0 0 0.25 0"/>
<feBlend mode="normal" in2="BackgroundImageFix" result="effect1_dropShadow"/>
<feBlend mode="normal" in="SourceGraphic" in2="effect1_dropShadow" result="shape"/>
</filter>
</defs>
</svg>
