<svg width="853" height="237" viewBox="0 0 853 237" fill="none" xmlns="http://www.w3.org/2000/svg">
<rect width="853" height="237" fill="white"/>
<path d="M141.996 130.469V136.27C141.992 137.074 141.738 137.732 141.234 138.244C140.734 138.756 140.055 139.043 139.195 139.105L138.896 139.117C137.963 139.117 137.219 138.865 136.664 138.361C136.109 137.857 135.828 137.164 135.82 136.281V130.469H136.934V136.246C136.934 136.863 137.104 137.344 137.443 137.688C137.783 138.027 138.268 138.197 138.896 138.197C139.533 138.197 140.02 138.027 140.355 137.688C140.695 137.348 140.865 136.869 140.865 136.252V130.469H141.996ZM147.293 137.318C147.293 137.025 147.182 136.799 146.959 136.639C146.74 136.475 146.355 136.334 145.805 136.217C145.258 136.1 144.822 135.959 144.498 135.795C144.178 135.631 143.939 135.436 143.783 135.209C143.631 134.982 143.555 134.713 143.555 134.4C143.555 133.881 143.773 133.441 144.211 133.082C144.652 132.723 145.215 132.543 145.898 132.543C146.617 132.543 147.199 132.729 147.645 133.1C148.094 133.471 148.318 133.945 148.318 134.523H147.229C147.229 134.227 147.102 133.971 146.848 133.756C146.598 133.541 146.281 133.434 145.898 133.434C145.504 133.434 145.195 133.52 144.973 133.691C144.75 133.863 144.639 134.088 144.639 134.365C144.639 134.627 144.742 134.824 144.949 134.957C145.156 135.09 145.529 135.217 146.068 135.338C146.611 135.459 147.051 135.604 147.387 135.771C147.723 135.939 147.971 136.143 148.131 136.381C148.295 136.615 148.377 136.902 148.377 137.242C148.377 137.809 148.15 138.264 147.697 138.607C147.244 138.947 146.656 139.117 145.934 139.117C145.426 139.117 144.977 139.027 144.586 138.848C144.195 138.668 143.889 138.418 143.666 138.098C143.447 137.773 143.338 137.424 143.338 137.049H144.422C144.441 137.412 144.586 137.701 144.855 137.916C145.129 138.127 145.488 138.232 145.934 138.232C146.344 138.232 146.672 138.15 146.918 137.986C147.168 137.818 147.293 137.596 147.293 137.318ZM152.42 139.117C151.561 139.117 150.861 138.836 150.322 138.273C149.783 137.707 149.514 136.951 149.514 136.006V135.807C149.514 135.178 149.633 134.617 149.871 134.125C150.113 133.629 150.449 133.242 150.879 132.965C151.312 132.684 151.781 132.543 152.285 132.543C153.109 132.543 153.75 132.814 154.207 133.357C154.664 133.9 154.893 134.678 154.893 135.689V136.141H150.598C150.613 136.766 150.795 137.271 151.143 137.658C151.494 138.041 151.939 138.232 152.479 138.232C152.861 138.232 153.186 138.154 153.451 137.998C153.717 137.842 153.949 137.635 154.148 137.377L154.811 137.893C154.279 138.709 153.482 139.117 152.42 139.117ZM152.285 133.434C151.848 133.434 151.48 133.594 151.184 133.914C150.887 134.23 150.703 134.676 150.633 135.25H153.809V135.168C153.777 134.617 153.629 134.191 153.363 133.891C153.098 133.586 152.738 133.434 152.285 133.434ZM159.217 133.633C159.053 133.605 158.875 133.592 158.684 133.592C157.973 133.592 157.49 133.895 157.236 134.5V139H156.152V132.66H157.207L157.225 133.393C157.58 132.826 158.084 132.543 158.736 132.543C158.947 132.543 159.107 132.57 159.217 132.625V133.633ZM164.49 135.66V139H163.365V130.469H166.512C167.445 130.469 168.176 130.707 168.703 131.184C169.234 131.66 169.5 132.291 169.5 133.076C169.5 133.904 169.24 134.543 168.721 134.992C168.205 135.438 167.465 135.66 166.5 135.66H164.49ZM164.49 134.74H166.512C167.113 134.74 167.574 134.6 167.895 134.318C168.215 134.033 168.375 133.623 168.375 133.088C168.375 132.58 168.215 132.174 167.895 131.869C167.574 131.564 167.135 131.406 166.576 131.395H164.49V134.74ZM173.314 139.117C172.455 139.117 171.756 138.836 171.217 138.273C170.678 137.707 170.408 136.951 170.408 136.006V135.807C170.408 135.178 170.527 134.617 170.766 134.125C171.008 133.629 171.344 133.242 171.773 132.965C172.207 132.684 172.676 132.543 173.18 132.543C174.004 132.543 174.645 132.814 175.102 133.357C175.559 133.9 175.787 134.678 175.787 135.689V136.141H171.492C171.508 136.766 171.689 137.271 172.037 137.658C172.389 138.041 172.834 138.232 173.373 138.232C173.756 138.232 174.08 138.154 174.346 137.998C174.611 137.842 174.844 137.635 175.043 137.377L175.705 137.893C175.174 138.709 174.377 139.117 173.314 139.117ZM173.18 133.434C172.742 133.434 172.375 133.594 172.078 133.914C171.781 134.23 171.598 134.676 171.527 135.25H174.703V135.168C174.672 134.617 174.523 134.191 174.258 133.891C173.992 133.586 173.633 133.434 173.18 133.434ZM180.111 133.633C179.947 133.605 179.77 133.592 179.578 133.592C178.867 133.592 178.385 133.895 178.131 134.5V139H177.047V132.66H178.102L178.119 133.393C178.475 132.826 178.979 132.543 179.631 132.543C179.842 132.543 180.002 132.57 180.111 132.625V133.633ZM184.805 137.318C184.805 137.025 184.693 136.799 184.471 136.639C184.252 136.475 183.867 136.334 183.316 136.217C182.77 136.1 182.334 135.959 182.01 135.795C181.689 135.631 181.451 135.436 181.295 135.209C181.143 134.982 181.066 134.713 181.066 134.4C181.066 133.881 181.285 133.441 181.723 133.082C182.164 132.723 182.727 132.543 183.41 132.543C184.129 132.543 184.711 132.729 185.156 133.1C185.605 133.471 185.83 133.945 185.83 134.523H184.74C184.74 134.227 184.613 133.971 184.359 133.756C184.109 133.541 183.793 133.434 183.41 133.434C183.016 133.434 182.707 133.52 182.484 133.691C182.262 133.863 182.15 134.088 182.15 134.365C182.15 134.627 182.254 134.824 182.461 134.957C182.668 135.09 183.041 135.217 183.58 135.338C184.123 135.459 184.562 135.604 184.898 135.771C185.234 135.939 185.482 136.143 185.643 136.381C185.807 136.615 185.889 136.902 185.889 137.242C185.889 137.809 185.662 138.264 185.209 138.607C184.756 138.947 184.168 139.117 183.445 139.117C182.938 139.117 182.488 139.027 182.098 138.848C181.707 138.668 181.4 138.418 181.178 138.098C180.959 137.773 180.85 137.424 180.85 137.049H181.934C181.953 137.412 182.098 137.701 182.367 137.916C182.641 138.127 183 138.232 183.445 138.232C183.855 138.232 184.184 138.15 184.43 137.986C184.68 137.818 184.805 137.596 184.805 137.318ZM187.014 135.771C187.014 135.15 187.135 134.592 187.377 134.096C187.623 133.6 187.963 133.217 188.396 132.947C188.834 132.678 189.332 132.543 189.891 132.543C190.754 132.543 191.451 132.842 191.982 133.439C192.518 134.037 192.785 134.832 192.785 135.824V135.9C192.785 136.518 192.666 137.072 192.428 137.564C192.193 138.053 191.855 138.434 191.414 138.707C190.977 138.98 190.473 139.117 189.902 139.117C189.043 139.117 188.346 138.818 187.811 138.221C187.279 137.623 187.014 136.832 187.014 135.848V135.771ZM188.104 135.9C188.104 136.604 188.266 137.168 188.59 137.594C188.918 138.02 189.355 138.232 189.902 138.232C190.453 138.232 190.891 138.018 191.215 137.588C191.539 137.154 191.701 136.549 191.701 135.771C191.701 135.076 191.535 134.514 191.203 134.084C190.875 133.65 190.438 133.434 189.891 133.434C189.355 133.434 188.924 133.646 188.596 134.072C188.268 134.498 188.104 135.107 188.104 135.9ZM195.17 132.66L195.205 133.457C195.689 132.848 196.322 132.543 197.104 132.543C198.443 132.543 199.119 133.299 199.131 134.811V139H198.047V134.805C198.043 134.348 197.938 134.01 197.73 133.791C197.527 133.572 197.209 133.463 196.775 133.463C196.424 133.463 196.115 133.557 195.85 133.744C195.584 133.932 195.377 134.178 195.229 134.482V139H194.145V132.66H195.17ZM204.68 139C204.617 138.875 204.566 138.652 204.527 138.332C204.023 138.855 203.422 139.117 202.723 139.117C202.098 139.117 201.584 138.941 201.182 138.59C200.783 138.234 200.584 137.785 200.584 137.242C200.584 136.582 200.834 136.07 201.334 135.707C201.838 135.34 202.545 135.156 203.455 135.156H204.51V134.658C204.51 134.279 204.396 133.979 204.17 133.756C203.943 133.529 203.609 133.416 203.168 133.416C202.781 133.416 202.457 133.514 202.195 133.709C201.934 133.904 201.803 134.141 201.803 134.418H200.713C200.713 134.102 200.824 133.797 201.047 133.504C201.273 133.207 201.578 132.973 201.961 132.801C202.348 132.629 202.771 132.543 203.232 132.543C203.963 132.543 204.535 132.727 204.949 133.094C205.363 133.457 205.578 133.959 205.594 134.6V137.518C205.594 138.1 205.668 138.562 205.816 138.906V139H204.68ZM202.881 138.174C203.221 138.174 203.543 138.086 203.848 137.91C204.152 137.734 204.373 137.506 204.51 137.225V135.924H203.66C202.332 135.924 201.668 136.312 201.668 137.09C201.668 137.43 201.781 137.695 202.008 137.887C202.234 138.078 202.525 138.174 202.881 138.174Z" fill="black"/>
<path d="M236.701 137.773H233.127L232.324 140H231.164L234.422 131.469H235.406L238.67 140H237.516L236.701 137.773ZM233.467 136.848H236.367L234.914 132.857L233.467 136.848ZM240.182 140V134.498H239.18V133.66H240.182V133.01C240.182 132.33 240.363 131.805 240.727 131.434C241.09 131.062 241.604 130.877 242.268 130.877C242.518 130.877 242.766 130.91 243.012 130.977L242.953 131.855C242.77 131.82 242.574 131.803 242.367 131.803C242.016 131.803 241.744 131.906 241.553 132.113C241.361 132.316 241.266 132.609 241.266 132.992V133.66H243.609V133.121C243.609 132.414 243.811 131.863 244.213 131.469C244.619 131.074 245.191 130.877 245.93 130.877C246.367 130.877 246.92 130.996 247.588 131.234L247.406 132.148C246.918 131.953 246.451 131.855 246.006 131.855C245.541 131.855 245.205 131.959 244.998 132.166C244.795 132.373 244.693 132.688 244.693 133.109V133.66H245.994V134.498H244.693V140H243.609V134.498H241.266V140H240.182ZM248.121 140H247.037V133.66H248.121V140ZM250.916 133.66L250.951 134.457C251.436 133.848 252.068 133.543 252.85 133.543C254.189 133.543 254.865 134.299 254.877 135.811V140H253.793V135.805C253.789 135.348 253.684 135.01 253.477 134.791C253.273 134.572 252.955 134.463 252.521 134.463C252.17 134.463 251.861 134.557 251.596 134.744C251.33 134.932 251.123 135.178 250.975 135.482V140H249.891V133.66H250.916ZM257.689 140H256.605V133.66H257.689V140ZM256.518 131.979C256.518 131.803 256.57 131.654 256.676 131.533C256.785 131.412 256.945 131.352 257.156 131.352C257.367 131.352 257.527 131.412 257.637 131.533C257.746 131.654 257.801 131.803 257.801 131.979C257.801 132.154 257.746 132.301 257.637 132.418C257.527 132.535 257.367 132.594 257.156 132.594C256.945 132.594 256.785 132.535 256.676 132.418C256.57 132.301 256.518 132.154 256.518 131.979ZM260.9 132.125V133.66H262.084V134.498H260.9V138.43C260.9 138.684 260.953 138.875 261.059 139.004C261.164 139.129 261.344 139.191 261.598 139.191C261.723 139.191 261.895 139.168 262.113 139.121V140C261.828 140.078 261.551 140.117 261.281 140.117C260.797 140.117 260.432 139.971 260.186 139.678C259.939 139.385 259.816 138.969 259.816 138.43V134.498H258.662V133.66H259.816V132.125H260.9ZM265.43 138.412L266.906 133.66H268.066L265.518 140.979C265.123 142.033 264.496 142.561 263.637 142.561L263.432 142.543L263.027 142.467V141.588L263.32 141.611C263.688 141.611 263.973 141.537 264.176 141.389C264.383 141.24 264.553 140.969 264.686 140.574L264.926 139.93L262.664 133.66H263.848L265.43 138.412ZM273.639 131.469L276.428 138.43L279.217 131.469H280.676V140H279.551V136.678L279.656 133.092L276.855 140H275.994L273.199 133.109L273.311 136.678V140H272.186V131.469H273.639ZM286.406 140C286.344 139.875 286.293 139.652 286.254 139.332C285.75 139.855 285.148 140.117 284.449 140.117C283.824 140.117 283.311 139.941 282.908 139.59C282.51 139.234 282.311 138.785 282.311 138.242C282.311 137.582 282.561 137.07 283.061 136.707C283.564 136.34 284.271 136.156 285.182 136.156H286.236V135.658C286.236 135.279 286.123 134.979 285.896 134.756C285.67 134.529 285.336 134.416 284.895 134.416C284.508 134.416 284.184 134.514 283.922 134.709C283.66 134.904 283.529 135.141 283.529 135.418H282.439C282.439 135.102 282.551 134.797 282.773 134.504C283 134.207 283.305 133.973 283.688 133.801C284.074 133.629 284.498 133.543 284.959 133.543C285.689 133.543 286.262 133.727 286.676 134.094C287.09 134.457 287.305 134.959 287.32 135.6V138.518C287.32 139.1 287.395 139.562 287.543 139.906V140H286.406ZM284.607 139.174C284.947 139.174 285.27 139.086 285.574 138.91C285.879 138.734 286.1 138.506 286.236 138.225V136.924H285.387C284.059 136.924 283.395 137.312 283.395 138.09C283.395 138.43 283.508 138.695 283.734 138.887C283.961 139.078 284.252 139.174 284.607 139.174ZM294.375 136.9C294.375 137.865 294.154 138.643 293.713 139.232C293.271 139.822 292.674 140.117 291.92 140.117C291.15 140.117 290.545 139.873 290.104 139.385V142.438H289.02V133.66H290.01L290.062 134.363C290.504 133.816 291.117 133.543 291.902 133.543C292.664 133.543 293.266 133.83 293.707 134.404C294.152 134.979 294.375 135.777 294.375 136.801V136.9ZM293.291 136.777C293.291 136.062 293.139 135.498 292.834 135.084C292.529 134.67 292.111 134.463 291.58 134.463C290.924 134.463 290.432 134.754 290.104 135.336V138.365C290.428 138.943 290.924 139.232 291.592 139.232C292.111 139.232 292.523 139.027 292.828 138.617C293.137 138.203 293.291 137.59 293.291 136.777Z" fill="black"/>
<path d="M14.2656 137.293C14.1602 138.195 13.8262 138.893 13.2637 139.385C12.7051 139.873 11.9609 140.117 11.0312 140.117C10.0234 140.117 9.21484 139.756 8.60547 139.033C8 138.311 7.69727 137.344 7.69727 136.133V135.312C7.69727 134.52 7.83789 133.822 8.11914 133.221C8.4043 132.619 8.80664 132.158 9.32617 131.838C9.8457 131.514 10.4473 131.352 11.1309 131.352C12.0371 131.352 12.7637 131.605 13.3105 132.113C13.8574 132.617 14.1758 133.316 14.2656 134.211H13.1348C13.0371 133.531 12.8242 133.039 12.4961 132.734C12.1719 132.43 11.7168 132.277 11.1309 132.277C10.4121 132.277 9.84766 132.543 9.4375 133.074C9.03125 133.605 8.82812 134.361 8.82812 135.342V136.168C8.82812 137.094 9.02148 137.83 9.4082 138.377C9.79492 138.924 10.3359 139.197 11.0312 139.197C11.6562 139.197 12.1348 139.057 12.4668 138.775C12.8027 138.49 13.0254 137.996 13.1348 137.293H14.2656ZM15.3496 136.771C15.3496 136.15 15.4707 135.592 15.7129 135.096C15.959 134.6 16.2988 134.217 16.7324 133.947C17.1699 133.678 17.668 133.543 18.2266 133.543C19.0898 133.543 19.7871 133.842 20.3184 134.439C20.8535 135.037 21.1211 135.832 21.1211 136.824V136.9C21.1211 137.518 21.002 138.072 20.7637 138.564C20.5293 139.053 20.1914 139.434 19.75 139.707C19.3125 139.98 18.8086 140.117 18.2383 140.117C17.3789 140.117 16.6816 139.818 16.1465 139.221C15.6152 138.623 15.3496 137.832 15.3496 136.848V136.771ZM16.4395 136.9C16.4395 137.604 16.6016 138.168 16.9258 138.594C17.2539 139.02 17.6914 139.232 18.2383 139.232C18.7891 139.232 19.2266 139.018 19.5508 138.588C19.875 138.154 20.0371 137.549 20.0371 136.771C20.0371 136.076 19.8711 135.514 19.5391 135.084C19.2109 134.65 18.7734 134.434 18.2266 134.434C17.6914 134.434 17.2598 134.646 16.9316 135.072C16.6035 135.498 16.4395 136.107 16.4395 136.9ZM23.5 133.66L23.5293 134.363C23.9941 133.816 24.6211 133.543 25.4102 133.543C26.2969 133.543 26.9004 133.883 27.2207 134.562C27.4316 134.258 27.7051 134.012 28.041 133.824C28.3809 133.637 28.7812 133.543 29.2422 133.543C30.6328 133.543 31.3398 134.279 31.3633 135.752V140H30.2793V135.816C30.2793 135.363 30.1758 135.025 29.9688 134.803C29.7617 134.576 29.4141 134.463 28.9258 134.463C28.5234 134.463 28.1895 134.584 27.9238 134.826C27.6582 135.064 27.5039 135.387 27.4609 135.793V140H26.3711V135.846C26.3711 134.924 25.9199 134.463 25.0176 134.463C24.3066 134.463 23.8203 134.766 23.5586 135.371V140H22.4746V133.66H23.5ZM38.3594 136.9C38.3594 137.865 38.1387 138.643 37.6973 139.232C37.2559 139.822 36.6582 140.117 35.9043 140.117C35.1348 140.117 34.5293 139.873 34.0879 139.385V142.438H33.0039V133.66H33.9941L34.0469 134.363C34.4883 133.816 35.1016 133.543 35.8867 133.543C36.6484 133.543 37.25 133.83 37.6914 134.404C38.1367 134.979 38.3594 135.777 38.3594 136.801V136.9ZM37.2754 136.777C37.2754 136.062 37.123 135.498 36.8184 135.084C36.5137 134.67 36.0957 134.463 35.5645 134.463C34.9082 134.463 34.416 134.754 34.0879 135.336V138.365C34.4121 138.943 34.9082 139.232 35.5762 139.232C36.0957 139.232 36.5078 139.027 36.8125 138.617C37.1211 138.203 37.2754 137.59 37.2754 136.777ZM42.373 140.117C41.5137 140.117 40.8145 139.836 40.2754 139.273C39.7363 138.707 39.4668 137.951 39.4668 137.006V136.807C39.4668 136.178 39.5859 135.617 39.8242 135.125C40.0664 134.629 40.4023 134.242 40.832 133.965C41.2656 133.684 41.7344 133.543 42.2383 133.543C43.0625 133.543 43.7031 133.814 44.1602 134.357C44.6172 134.9 44.8457 135.678 44.8457 136.689V137.141H40.5508C40.5664 137.766 40.748 138.271 41.0957 138.658C41.4473 139.041 41.8926 139.232 42.4316 139.232C42.8145 139.232 43.1387 139.154 43.4043 138.998C43.6699 138.842 43.9023 138.635 44.1016 138.377L44.7637 138.893C44.2324 139.709 43.4355 140.117 42.373 140.117ZM42.2383 134.434C41.8008 134.434 41.4336 134.594 41.1367 134.914C40.8398 135.23 40.6562 135.676 40.5859 136.25H43.7617V136.168C43.7305 135.617 43.582 135.191 43.3164 134.891C43.0508 134.586 42.6914 134.434 42.2383 134.434ZM47.5762 132.125V133.66H48.7598V134.498H47.5762V138.43C47.5762 138.684 47.6289 138.875 47.7344 139.004C47.8398 139.129 48.0195 139.191 48.2734 139.191C48.3984 139.191 48.5703 139.168 48.7891 139.121V140C48.5039 140.078 48.2266 140.117 47.957 140.117C47.4727 140.117 47.1074 139.971 46.8613 139.678C46.6152 139.385 46.4922 138.969 46.4922 138.43V134.498H45.3379V133.66H46.4922V132.125H47.5762ZM51.209 140H50.125V133.66H51.209V140ZM50.0371 131.979C50.0371 131.803 50.0898 131.654 50.1953 131.533C50.3047 131.412 50.4648 131.352 50.6758 131.352C50.8867 131.352 51.0469 131.412 51.1562 131.533C51.2656 131.654 51.3203 131.803 51.3203 131.979C51.3203 132.154 51.2656 132.301 51.1562 132.418C51.0469 132.535 50.8867 132.594 50.6758 132.594C50.4648 132.594 50.3047 132.535 50.1953 132.418C50.0898 132.301 50.0371 132.154 50.0371 131.979ZM54.4199 132.125V133.66H55.6035V134.498H54.4199V138.43C54.4199 138.684 54.4727 138.875 54.5781 139.004C54.6836 139.129 54.8633 139.191 55.1172 139.191C55.2422 139.191 55.4141 139.168 55.6328 139.121V140C55.3477 140.078 55.0703 140.117 54.8008 140.117C54.3164 140.117 53.9512 139.971 53.7051 139.678C53.459 139.385 53.3359 138.969 53.3359 138.43V134.498H52.1816V133.66H53.3359V132.125H54.4199ZM58.0527 140H56.9688V133.66H58.0527V140ZM56.8809 131.979C56.8809 131.803 56.9336 131.654 57.0391 131.533C57.1484 131.412 57.3086 131.352 57.5195 131.352C57.7305 131.352 57.8906 131.412 58 131.533C58.1094 131.654 58.1641 131.803 58.1641 131.979C58.1641 132.154 58.1094 132.301 58 132.418C57.8906 132.535 57.7305 132.594 57.5195 132.594C57.3086 132.594 57.1484 132.535 57.0391 132.418C56.9336 132.301 56.8809 132.154 56.8809 131.979ZM61.8848 138.529L63.4551 133.66H64.5625L62.2891 140H61.4629L59.166 133.66H60.2734L61.8848 138.529ZM68.1543 140.117C67.2949 140.117 66.5957 139.836 66.0566 139.273C65.5176 138.707 65.248 137.951 65.248 137.006V136.807C65.248 136.178 65.3672 135.617 65.6055 135.125C65.8477 134.629 66.1836 134.242 66.6133 133.965C67.0469 133.684 67.5156 133.543 68.0195 133.543C68.8438 133.543 69.4844 133.814 69.9414 134.357C70.3984 134.9 70.627 135.678 70.627 136.689V137.141H66.332C66.3477 137.766 66.5293 138.271 66.877 138.658C67.2285 139.041 67.6738 139.232 68.2129 139.232C68.5957 139.232 68.9199 139.154 69.1855 138.998C69.4512 138.842 69.6836 138.635 69.8828 138.377L70.5449 138.893C70.0137 139.709 69.2168 140.117 68.1543 140.117ZM68.0195 134.434C67.582 134.434 67.2148 134.594 66.918 134.914C66.6211 135.23 66.4375 135.676 66.3672 136.25H69.543V136.168C69.5117 135.617 69.3633 135.191 69.0977 134.891C68.832 134.586 68.4727 134.434 68.0195 134.434ZM79.7441 137.773H76.1699L75.3672 140H74.207L77.4648 131.469H78.4492L81.7129 140H80.5586L79.7441 137.773ZM76.5098 136.848H79.4102L77.957 132.857L76.5098 136.848ZM83.7168 133.66L83.752 134.457C84.2363 133.848 84.8691 133.543 85.6504 133.543C86.9902 133.543 87.666 134.299 87.6777 135.811V140H86.5938V135.805C86.5898 135.348 86.4844 135.01 86.2773 134.791C86.0742 134.572 85.7559 134.463 85.3223 134.463C84.9707 134.463 84.6621 134.557 84.3965 134.744C84.1309 134.932 83.9238 135.178 83.7754 135.482V140H82.6914V133.66H83.7168ZM93.2266 140C93.1641 139.875 93.1133 139.652 93.0742 139.332C92.5703 139.855 91.9688 140.117 91.2695 140.117C90.6445 140.117 90.1309 139.941 89.7285 139.59C89.3301 139.234 89.1309 138.785 89.1309 138.242C89.1309 137.582 89.3809 137.07 89.8809 136.707C90.3848 136.34 91.0918 136.156 92.002 136.156H93.0566V135.658C93.0566 135.279 92.9434 134.979 92.7168 134.756C92.4902 134.529 92.1562 134.416 91.7148 134.416C91.3281 134.416 91.0039 134.514 90.7422 134.709C90.4805 134.904 90.3496 135.141 90.3496 135.418H89.2598C89.2598 135.102 89.3711 134.797 89.5938 134.504C89.8203 134.207 90.125 133.973 90.5078 133.801C90.8945 133.629 91.3184 133.543 91.7793 133.543C92.5098 133.543 93.082 133.727 93.4961 134.094C93.9102 134.457 94.125 134.959 94.1406 135.6V138.518C94.1406 139.1 94.2148 139.562 94.3633 139.906V140H93.2266ZM91.4277 139.174C91.7676 139.174 92.0898 139.086 92.3945 138.91C92.6992 138.734 92.9199 138.506 93.0566 138.225V136.924H92.207C90.8789 136.924 90.2148 137.312 90.2148 138.09C90.2148 138.43 90.3281 138.695 90.5547 138.887C90.7812 139.078 91.0723 139.174 91.4277 139.174ZM97.0176 140H95.9336V131H97.0176V140ZM100.832 138.412L102.309 133.66H103.469L100.92 140.979C100.525 142.033 99.8984 142.561 99.0391 142.561L98.834 142.543L98.4297 142.467V141.588L98.7227 141.611C99.0898 141.611 99.375 141.537 99.5781 141.389C99.7852 141.24 99.9551 140.969 100.088 140.574L100.328 139.93L98.0664 133.66H99.25L100.832 138.412ZM108.133 138.318C108.133 138.025 108.021 137.799 107.799 137.639C107.58 137.475 107.195 137.334 106.645 137.217C106.098 137.1 105.662 136.959 105.338 136.795C105.018 136.631 104.779 136.436 104.623 136.209C104.471 135.982 104.395 135.713 104.395 135.4C104.395 134.881 104.613 134.441 105.051 134.082C105.492 133.723 106.055 133.543 106.738 133.543C107.457 133.543 108.039 133.729 108.484 134.1C108.934 134.471 109.158 134.945 109.158 135.523H108.068C108.068 135.227 107.941 134.971 107.688 134.756C107.438 134.541 107.121 134.434 106.738 134.434C106.344 134.434 106.035 134.52 105.812 134.691C105.59 134.863 105.479 135.088 105.479 135.365C105.479 135.627 105.582 135.824 105.789 135.957C105.996 136.09 106.369 136.217 106.908 136.338C107.451 136.459 107.891 136.604 108.227 136.771C108.562 136.939 108.811 137.143 108.971 137.381C109.135 137.615 109.217 137.902 109.217 138.242C109.217 138.809 108.99 139.264 108.537 139.607C108.084 139.947 107.496 140.117 106.773 140.117C106.266 140.117 105.816 140.027 105.426 139.848C105.035 139.668 104.729 139.418 104.506 139.098C104.287 138.773 104.178 138.424 104.178 138.049H105.262C105.281 138.412 105.426 138.701 105.695 138.916C105.969 139.127 106.328 139.232 106.773 139.232C107.184 139.232 107.512 139.15 107.758 138.986C108.008 138.818 108.133 138.596 108.133 138.318ZM111.807 140H110.723V133.66H111.807V140ZM110.635 131.979C110.635 131.803 110.688 131.654 110.793 131.533C110.902 131.412 111.062 131.352 111.273 131.352C111.484 131.352 111.645 131.412 111.754 131.533C111.863 131.654 111.918 131.803 111.918 131.979C111.918 132.154 111.863 132.301 111.754 132.418C111.645 132.535 111.484 132.594 111.273 132.594C111.062 132.594 110.902 132.535 110.793 132.418C110.688 132.301 110.635 132.154 110.635 131.979ZM117.238 138.318C117.238 138.025 117.127 137.799 116.904 137.639C116.686 137.475 116.301 137.334 115.75 137.217C115.203 137.1 114.768 136.959 114.443 136.795C114.123 136.631 113.885 136.436 113.729 136.209C113.576 135.982 113.5 135.713 113.5 135.4C113.5 134.881 113.719 134.441 114.156 134.082C114.598 133.723 115.16 133.543 115.844 133.543C116.562 133.543 117.145 133.729 117.59 134.1C118.039 134.471 118.264 134.945 118.264 135.523H117.174C117.174 135.227 117.047 134.971 116.793 134.756C116.543 134.541 116.227 134.434 115.844 134.434C115.449 134.434 115.141 134.52 114.918 134.691C114.695 134.863 114.584 135.088 114.584 135.365C114.584 135.627 114.688 135.824 114.895 135.957C115.102 136.09 115.475 136.217 116.014 136.338C116.557 136.459 116.996 136.604 117.332 136.771C117.668 136.939 117.916 137.143 118.076 137.381C118.24 137.615 118.322 137.902 118.322 138.242C118.322 138.809 118.096 139.264 117.643 139.607C117.189 139.947 116.602 140.117 115.879 140.117C115.371 140.117 114.922 140.027 114.531 139.848C114.141 139.668 113.834 139.418 113.611 139.098C113.393 138.773 113.283 138.424 113.283 138.049H114.367C114.387 138.412 114.531 138.701 114.801 138.916C115.074 139.127 115.434 139.232 115.879 139.232C116.289 139.232 116.617 139.15 116.863 138.986C117.113 138.818 117.238 138.596 117.238 138.318Z" fill="black"/>
<path d="M120.939 48.4932V52H118.889V42.0469H122.771C123.519 42.0469 124.175 42.1836 124.74 42.457C125.31 42.7305 125.747 43.1201 126.053 43.626C126.358 44.1273 126.511 44.6992 126.511 45.3418C126.511 46.3171 126.176 47.0872 125.506 47.6523C124.84 48.2129 123.918 48.4932 122.737 48.4932H120.939ZM120.939 46.832H122.771C123.314 46.832 123.726 46.7044 124.009 46.4492C124.296 46.194 124.439 45.8294 124.439 45.3555C124.439 44.8678 124.296 44.4736 124.009 44.1729C123.722 43.8721 123.325 43.7171 122.819 43.708H120.939V46.832ZM131.952 46.4561C131.683 46.4196 131.446 46.4014 131.241 46.4014C130.494 46.4014 130.004 46.6543 129.771 47.1602V52H127.796V44.6035H129.662L129.717 45.4854C130.113 44.8063 130.662 44.4668 131.364 44.4668C131.583 44.4668 131.788 44.4964 131.979 44.5557L131.952 46.4561ZM132.355 48.2334C132.355 47.4997 132.497 46.8457 132.779 46.2715C133.062 45.6973 133.467 45.2529 133.996 44.9385C134.529 44.624 135.147 44.4668 135.849 44.4668C136.847 44.4668 137.66 44.7721 138.289 45.3828C138.923 45.9935 139.276 46.8229 139.349 47.8711L139.362 48.377C139.362 49.5117 139.046 50.4232 138.412 51.1113C137.779 51.7949 136.929 52.1367 135.862 52.1367C134.796 52.1367 133.944 51.7949 133.306 51.1113C132.672 50.4277 132.355 49.498 132.355 48.3223V48.2334ZM134.331 48.377C134.331 49.0788 134.463 49.6165 134.728 49.9902C134.992 50.3594 135.37 50.5439 135.862 50.5439C136.341 50.5439 136.715 50.3617 136.983 49.9971C137.252 49.6279 137.387 49.04 137.387 48.2334C137.387 47.5452 137.252 47.012 136.983 46.6338C136.715 46.2555 136.336 46.0664 135.849 46.0664C135.366 46.0664 134.992 46.2555 134.728 46.6338C134.463 47.0075 134.331 47.5885 134.331 48.377ZM147.244 48.3701C147.244 49.555 146.991 50.4801 146.485 51.1455C145.979 51.8063 145.273 52.1367 144.366 52.1367C143.564 52.1367 142.924 51.8291 142.445 51.2139L142.356 52H140.579V41.5H142.555V45.2666C143.01 44.7334 143.61 44.4668 144.353 44.4668C145.255 44.4668 145.961 44.7995 146.472 45.4648C146.987 46.1257 147.244 47.0576 147.244 48.2607V48.3701ZM145.269 48.2266C145.269 47.4792 145.15 46.9346 144.913 46.5928C144.676 46.2464 144.323 46.0732 143.854 46.0732C143.225 46.0732 142.792 46.3307 142.555 46.8457V49.7646C142.796 50.2842 143.234 50.5439 143.867 50.5439C144.505 50.5439 144.924 50.2295 145.125 49.6006C145.221 49.2998 145.269 48.8418 145.269 48.2266ZM150.553 52H148.57V41.5H150.553V52ZM155.591 52.1367C154.506 52.1367 153.622 51.804 152.938 51.1387C152.259 50.4733 151.92 49.5869 151.92 48.4795V48.2881C151.92 47.5452 152.063 46.8822 152.351 46.2988C152.638 45.7109 153.043 45.2598 153.567 44.9453C154.096 44.6263 154.698 44.4668 155.372 44.4668C156.384 44.4668 157.179 44.7858 157.758 45.4238C158.341 46.0618 158.633 46.9665 158.633 48.1377V48.9443H153.923C153.987 49.4274 154.178 49.8148 154.497 50.1064C154.821 50.3981 155.229 50.5439 155.721 50.5439C156.482 50.5439 157.076 50.2682 157.505 49.7168L158.476 50.8037C158.179 51.223 157.778 51.5511 157.272 51.7881C156.767 52.0205 156.206 52.1367 155.591 52.1367ZM155.365 46.0664C154.973 46.0664 154.654 46.1986 154.408 46.4629C154.167 46.7272 154.012 47.1055 153.943 47.5977H156.691V47.4404C156.682 47.0029 156.564 46.6657 156.336 46.4287C156.108 46.1872 155.785 46.0664 155.365 46.0664ZM161.613 44.6035L161.675 45.4307C162.199 44.7881 162.908 44.4668 163.801 44.4668C164.753 44.4668 165.407 44.8428 165.763 45.5947C166.282 44.8428 167.023 44.4668 167.984 44.4668C168.786 44.4668 169.383 44.7015 169.775 45.1709C170.167 45.6357 170.363 46.3376 170.363 47.2764V52H168.381V47.2832C168.381 46.8639 168.299 46.5586 168.135 46.3672C167.971 46.1712 167.681 46.0732 167.267 46.0732C166.674 46.0732 166.264 46.3558 166.036 46.9209L166.043 52H164.067V47.29C164.067 46.8617 163.983 46.5518 163.814 46.3604C163.646 46.1689 163.359 46.0732 162.953 46.0732C162.393 46.0732 161.987 46.3057 161.736 46.7705V52H159.761V44.6035H161.613ZM180.665 49.3887C180.665 49.0013 180.528 48.7051 180.255 48.5C179.981 48.2904 179.489 48.0716 178.778 47.8438C178.067 47.6113 177.505 47.3835 177.09 47.1602C175.96 46.5495 175.395 45.7269 175.395 44.6924C175.395 44.1546 175.545 43.6761 175.846 43.2568C176.151 42.833 176.586 42.5026 177.151 42.2656C177.721 42.0286 178.359 41.9102 179.065 41.9102C179.776 41.9102 180.41 42.04 180.966 42.2998C181.522 42.555 181.952 42.9173 182.258 43.3867C182.568 43.8561 182.723 44.3893 182.723 44.9863H180.672C180.672 44.5306 180.528 44.1774 180.241 43.9268C179.954 43.6715 179.551 43.5439 179.031 43.5439C178.53 43.5439 178.14 43.651 177.862 43.8652C177.584 44.0749 177.445 44.3529 177.445 44.6992C177.445 45.0228 177.607 45.2939 177.931 45.5127C178.259 45.7314 178.74 45.9365 179.373 46.1279C180.54 46.4788 181.39 46.9141 181.923 47.4336C182.456 47.9531 182.723 48.6003 182.723 49.375C182.723 50.2363 182.397 50.9131 181.745 51.4053C181.093 51.8929 180.216 52.1367 179.113 52.1367C178.348 52.1367 177.65 51.9977 177.021 51.7197C176.393 51.4372 175.912 51.0521 175.579 50.5645C175.251 50.0768 175.087 49.5117 175.087 48.8691H177.145C177.145 49.9674 177.801 50.5166 179.113 50.5166C179.601 50.5166 179.981 50.4186 180.255 50.2227C180.528 50.0221 180.665 49.7441 180.665 49.3887ZM187.063 50.5439C187.428 50.5439 187.724 50.4437 187.952 50.2432C188.18 50.0426 188.299 49.776 188.308 49.4434H190.16C190.156 49.9447 190.019 50.4049 189.75 50.8242C189.481 51.2389 189.112 51.5625 188.643 51.7949C188.178 52.0228 187.663 52.1367 187.098 52.1367C186.04 52.1367 185.206 51.8018 184.596 51.1318C183.985 50.4574 183.68 49.5277 183.68 48.3428V48.2129C183.68 47.0736 183.983 46.1644 184.589 45.4854C185.195 44.8063 186.027 44.4668 187.084 44.4668C188.009 44.4668 188.75 44.7311 189.306 45.2598C189.866 45.7839 190.151 46.4834 190.16 47.3584H188.308C188.299 46.9756 188.18 46.6657 187.952 46.4287C187.724 46.1872 187.424 46.0664 187.05 46.0664C186.59 46.0664 186.241 46.235 186.004 46.5723C185.771 46.9049 185.655 47.4473 185.655 48.1992V48.4043C185.655 49.1654 185.771 49.7122 186.004 50.0449C186.236 50.3776 186.59 50.5439 187.063 50.5439ZM190.98 48.2334C190.98 47.4997 191.122 46.8457 191.404 46.2715C191.687 45.6973 192.092 45.2529 192.621 44.9385C193.154 44.624 193.772 44.4668 194.474 44.4668C195.472 44.4668 196.285 44.7721 196.914 45.3828C197.548 45.9935 197.901 46.8229 197.974 47.8711L197.987 48.377C197.987 49.5117 197.671 50.4232 197.037 51.1113C196.404 51.7949 195.554 52.1367 194.487 52.1367C193.421 52.1367 192.569 51.7949 191.931 51.1113C191.297 50.4277 190.98 49.498 190.98 48.3223V48.2334ZM192.956 48.377C192.956 49.0788 193.088 49.6165 193.353 49.9902C193.617 50.3594 193.995 50.5439 194.487 50.5439C194.966 50.5439 195.34 50.3617 195.608 49.9971C195.877 49.6279 196.012 49.04 196.012 48.2334C196.012 47.5452 195.877 47.012 195.608 46.6338C195.34 46.2555 194.961 46.0664 194.474 46.0664C193.991 46.0664 193.617 46.2555 193.353 46.6338C193.088 47.0075 192.956 47.5885 192.956 48.377ZM205.862 48.3701C205.862 49.5094 205.603 50.4232 205.083 51.1113C204.568 51.7949 203.871 52.1367 202.991 52.1367C202.244 52.1367 201.64 51.877 201.18 51.3574V54.8438H199.204V44.6035H201.036L201.104 45.3281C201.583 44.7539 202.207 44.4668 202.978 44.4668C203.889 44.4668 204.598 44.804 205.104 45.4785C205.609 46.153 205.862 47.0827 205.862 48.2676V48.3701ZM203.887 48.2266C203.887 47.5384 203.764 47.0075 203.518 46.6338C203.276 46.2601 202.923 46.0732 202.458 46.0732C201.838 46.0732 201.412 46.3102 201.18 46.7842V49.8125C201.421 50.3001 201.852 50.5439 202.472 50.5439C203.415 50.5439 203.887 49.7715 203.887 48.2266ZM209.178 52H207.195V44.6035H209.178V52ZM207.079 42.6895C207.079 42.3932 207.177 42.1494 207.373 41.958C207.574 41.7666 207.845 41.6709 208.187 41.6709C208.524 41.6709 208.793 41.7666 208.993 41.958C209.194 42.1494 209.294 42.3932 209.294 42.6895C209.294 42.9902 209.191 43.2363 208.986 43.4277C208.786 43.6191 208.519 43.7148 208.187 43.7148C207.854 43.7148 207.585 43.6191 207.38 43.4277C207.179 43.2363 207.079 42.9902 207.079 42.6895ZM212.63 44.6035L212.691 45.458C213.22 44.7972 213.929 44.4668 214.817 44.4668C215.601 44.4668 216.185 44.6969 216.567 45.1572C216.95 45.6175 217.146 46.3057 217.155 47.2217V52H215.18V47.2695C215.18 46.8503 215.089 46.5472 214.906 46.3604C214.724 46.1689 214.421 46.0732 213.997 46.0732C213.441 46.0732 213.024 46.3102 212.746 46.7842V52H210.771V44.6035H212.63ZM218.372 48.2471C218.372 47.1123 218.641 46.1986 219.179 45.5059C219.721 44.8132 220.45 44.4668 221.366 44.4668C222.177 44.4668 222.809 44.7448 223.26 45.3008L223.342 44.6035H225.133V51.7539C225.133 52.401 224.985 52.9639 224.688 53.4424C224.397 53.9209 223.984 54.2855 223.451 54.5361C222.918 54.7868 222.294 54.9121 221.578 54.9121C221.036 54.9121 220.507 54.8027 219.992 54.584C219.477 54.3698 219.088 54.0918 218.823 53.75L219.698 52.5469C220.19 53.0983 220.787 53.374 221.489 53.374C222.013 53.374 222.421 53.2327 222.713 52.9502C223.005 52.6722 223.15 52.2757 223.15 51.7607V51.3643C222.695 51.8792 222.095 52.1367 221.353 52.1367C220.464 52.1367 219.744 51.7904 219.192 51.0977C218.646 50.4004 218.372 49.4775 218.372 48.3291V48.2471ZM220.348 48.3906C220.348 49.0605 220.482 49.5869 220.751 49.9697C221.02 50.348 221.389 50.5371 221.858 50.5371C222.46 50.5371 222.891 50.3115 223.15 49.8604V46.75C222.886 46.2988 222.46 46.0732 221.872 46.0732C221.398 46.0732 221.024 46.2669 220.751 46.6543C220.482 47.0417 220.348 47.6204 220.348 48.3906Z" fill="#657B83"/>
<path d="M82.4461 101.571H67.6481C66.4854 101.571 65.5341 102.554 65.5341 103.756V119.046C65.5341 120.247 66.4854 121.23 67.6481 121.23H82.4461C83.6088 121.23 84.5601 120.247 84.5601 119.046V103.756C84.5601 102.554 83.6088 101.571 82.4461 101.571ZM71.8761 116.862H69.7621V109.217H71.8761V116.862ZM76.1041 116.862H73.9901V105.94H76.1041V116.862ZM80.3321 116.862H78.2181V112.493H80.3321V116.862Z" fill="#657B83"/>
<path d="M191.846 102.664C189.087 103.428 185.852 103.756 182.861 103.756C179.87 103.756 176.635 103.428 173.877 102.664L173.348 104.848C175.314 105.394 177.576 105.754 179.69 105.94V120.138H181.804V113.585H183.918V120.138H186.032V105.94C188.146 105.754 190.408 105.394 192.374 104.848L191.846 102.664ZM182.861 102.664C184.024 102.664 184.975 101.681 184.975 100.479C184.975 99.2779 184.024 98.2949 182.861 98.2949C181.698 98.2949 180.747 99.2779 180.747 100.479C180.747 101.681 181.698 102.664 182.861 102.664Z" fill="#657B83"/>
<path d="M272.318 101.571L272.149 101.604L266.504 103.865L260.162 101.571L254.201 103.647C253.979 103.723 253.82 103.92 253.82 104.171V120.684C253.82 120.99 254.053 121.23 254.349 121.23L254.518 121.198L260.162 118.937L266.504 121.23L272.466 119.155C272.688 119.079 272.846 118.882 272.846 118.631V102.117C272.846 101.812 272.614 101.571 272.318 101.571ZM266.504 119.046L260.162 116.742V103.756L266.504 106.06V119.046Z" fill="#657B83"/>
<path d="M424.889 52V42.0469H427.951C428.826 42.0469 429.608 42.2451 430.296 42.6416C430.989 43.0335 431.529 43.5941 431.916 44.3232C432.303 45.0479 432.497 45.8727 432.497 46.7979V47.2559C432.497 48.181 432.306 49.0036 431.923 49.7236C431.545 50.4437 431.009 51.002 430.316 51.3984C429.624 51.7949 428.842 51.9954 427.972 52H424.889ZM426.939 43.708V50.3525H427.931C428.733 50.3525 429.346 50.0905 429.77 49.5664C430.193 49.0423 430.41 48.2926 430.419 47.3174V46.791C430.419 45.7793 430.209 45.0137 429.79 44.4941C429.371 43.9701 428.758 43.708 427.951 43.708H426.939ZM437.269 52.1367C436.184 52.1367 435.3 51.804 434.616 51.1387C433.937 50.4733 433.598 49.5869 433.598 48.4795V48.2881C433.598 47.5452 433.741 46.8822 434.028 46.2988C434.315 45.7109 434.721 45.2598 435.245 44.9453C435.774 44.6263 436.375 44.4668 437.05 44.4668C438.062 44.4668 438.857 44.7858 439.436 45.4238C440.019 46.0618 440.311 46.9665 440.311 48.1377V48.9443H435.601C435.664 49.4274 435.856 49.8148 436.175 50.1064C436.498 50.3981 436.906 50.5439 437.398 50.5439C438.16 50.5439 438.754 50.2682 439.183 49.7168L440.153 50.8037C439.857 51.223 439.456 51.5511 438.95 51.7881C438.444 52.0205 437.884 52.1367 437.269 52.1367ZM437.043 46.0664C436.651 46.0664 436.332 46.1986 436.086 46.4629C435.844 46.7272 435.689 47.1055 435.621 47.5977H438.369V47.4404C438.36 47.0029 438.242 46.6657 438.014 46.4287C437.786 46.1872 437.462 46.0664 437.043 46.0664ZM445.444 49.9561C445.444 49.7145 445.324 49.5254 445.082 49.3887C444.845 49.2474 444.462 49.1221 443.934 49.0127C442.174 48.6436 441.295 47.8962 441.295 46.7705C441.295 46.1143 441.566 45.5674 442.108 45.1299C442.655 44.6878 443.368 44.4668 444.248 44.4668C445.187 44.4668 445.937 44.6878 446.497 45.1299C447.062 45.5719 447.345 46.1462 447.345 46.8525H445.369C445.369 46.57 445.278 46.3376 445.096 46.1553C444.913 45.9684 444.629 45.875 444.241 45.875C443.909 45.875 443.651 45.9502 443.469 46.1006C443.286 46.251 443.195 46.4424 443.195 46.6748C443.195 46.8936 443.298 47.0713 443.503 47.208C443.713 47.3402 444.063 47.4564 444.556 47.5566C445.048 47.6523 445.463 47.7617 445.8 47.8848C446.843 48.2676 447.365 48.9307 447.365 49.874C447.365 50.5485 447.076 51.0954 446.497 51.5146C445.918 51.9294 445.171 52.1367 444.255 52.1367C443.635 52.1367 443.084 52.0273 442.601 51.8086C442.122 51.5853 441.746 51.2822 441.473 50.8994C441.199 50.512 441.062 50.0951 441.062 49.6484H442.936C442.954 49.9993 443.084 50.2682 443.325 50.4551C443.567 50.6419 443.89 50.7354 444.296 50.7354C444.674 50.7354 444.959 50.6647 445.15 50.5234C445.346 50.3776 445.444 50.1885 445.444 49.9561ZM450.729 52H448.746V44.6035H450.729V52ZM448.63 42.6895C448.63 42.3932 448.728 42.1494 448.924 41.958C449.124 41.7666 449.396 41.6709 449.737 41.6709C450.075 41.6709 450.343 41.7666 450.544 41.958C450.744 42.1494 450.845 42.3932 450.845 42.6895C450.845 42.9902 450.742 43.2363 450.537 43.4277C450.337 43.6191 450.07 43.7148 449.737 43.7148C449.405 43.7148 449.136 43.6191 448.931 43.4277C448.73 43.2363 448.63 42.9902 448.63 42.6895ZM452.075 48.2471C452.075 47.1123 452.344 46.1986 452.882 45.5059C453.424 44.8132 454.153 44.4668 455.069 44.4668C455.881 44.4668 456.512 44.7448 456.963 45.3008L457.045 44.6035H458.836V51.7539C458.836 52.401 458.688 52.9639 458.392 53.4424C458.1 53.9209 457.688 54.2855 457.154 54.5361C456.621 54.7868 455.997 54.9121 455.281 54.9121C454.739 54.9121 454.21 54.8027 453.695 54.584C453.18 54.3698 452.791 54.0918 452.526 53.75L453.401 52.5469C453.894 53.0983 454.491 53.374 455.192 53.374C455.716 53.374 456.124 53.2327 456.416 52.9502C456.708 52.6722 456.854 52.2757 456.854 51.7607V51.3643C456.398 51.8792 455.799 52.1367 455.056 52.1367C454.167 52.1367 453.447 51.7904 452.896 51.0977C452.349 50.4004 452.075 49.4775 452.075 48.3291V48.2471ZM454.051 48.3906C454.051 49.0605 454.185 49.5869 454.454 49.9697C454.723 50.348 455.092 50.5371 455.562 50.5371C456.163 50.5371 456.594 50.3115 456.854 49.8604V46.75C456.589 46.2988 456.163 46.0732 455.575 46.0732C455.101 46.0732 454.728 46.2669 454.454 46.6543C454.185 47.0417 454.051 47.6204 454.051 48.3906ZM462.179 44.6035L462.24 45.458C462.769 44.7972 463.478 44.4668 464.366 44.4668C465.15 44.4668 465.733 44.6969 466.116 45.1572C466.499 45.6175 466.695 46.3057 466.704 47.2217V52H464.729V47.2695C464.729 46.8503 464.637 46.5472 464.455 46.3604C464.273 46.1689 463.97 46.0732 463.546 46.0732C462.99 46.0732 462.573 46.3102 462.295 46.7842V52H460.319V44.6035H462.179ZM470.293 52H468.311V44.6035H470.293V52ZM468.194 42.6895C468.194 42.3932 468.292 42.1494 468.488 41.958C468.689 41.7666 468.96 41.6709 469.302 41.6709C469.639 41.6709 469.908 41.7666 470.108 41.958C470.309 42.1494 470.409 42.3932 470.409 42.6895C470.409 42.9902 470.307 43.2363 470.102 43.4277C469.901 43.6191 469.634 43.7148 469.302 43.7148C468.969 43.7148 468.7 43.6191 468.495 43.4277C468.295 43.2363 468.194 42.9902 468.194 42.6895ZM473.745 44.6035L473.807 45.458C474.335 44.7972 475.044 44.4668 475.933 44.4668C476.716 44.4668 477.3 44.6969 477.683 45.1572C478.065 45.6175 478.261 46.3057 478.271 47.2217V52H476.295V47.2695C476.295 46.8503 476.204 46.5472 476.021 46.3604C475.839 46.1689 475.536 46.0732 475.112 46.0732C474.556 46.0732 474.139 46.3102 473.861 46.7842V52H471.886V44.6035H473.745ZM479.487 48.2471C479.487 47.1123 479.756 46.1986 480.294 45.5059C480.836 44.8132 481.565 44.4668 482.481 44.4668C483.293 44.4668 483.924 44.7448 484.375 45.3008L484.457 44.6035H486.248V51.7539C486.248 52.401 486.1 52.9639 485.804 53.4424C485.512 53.9209 485.1 54.2855 484.566 54.5361C484.033 54.7868 483.409 54.9121 482.693 54.9121C482.151 54.9121 481.622 54.8027 481.107 54.584C480.592 54.3698 480.203 54.0918 479.938 53.75L480.813 52.5469C481.306 53.0983 481.903 53.374 482.604 53.374C483.129 53.374 483.536 53.2327 483.828 52.9502C484.12 52.6722 484.266 52.2757 484.266 51.7607V51.3643C483.81 51.8792 483.211 52.1367 482.468 52.1367C481.579 52.1367 480.859 51.7904 480.308 51.0977C479.761 50.4004 479.487 49.4775 479.487 48.3291V48.2471ZM481.463 48.3906C481.463 49.0605 481.597 49.5869 481.866 49.9697C482.135 50.348 482.504 50.5371 482.974 50.5371C483.575 50.5371 484.006 50.3115 484.266 49.8604V46.75C484.001 46.2988 483.575 46.0732 482.987 46.0732C482.513 46.0732 482.14 46.2669 481.866 46.6543C481.597 47.0417 481.463 47.6204 481.463 48.3906Z" fill="#657B83"/>
<path d="M617.547 140.505H616.416V136.561H612.115V140.505H610.99V131.973H612.115V135.641H616.416V131.973H617.547V140.505ZM620.553 140.505H619.469V134.165H620.553V140.505ZM619.381 132.483C619.381 132.307 619.434 132.159 619.539 132.038C619.648 131.917 619.809 131.856 620.02 131.856C620.23 131.856 620.391 131.917 620.5 132.038C620.609 132.159 620.664 132.307 620.664 132.483C620.664 132.659 620.609 132.805 620.5 132.922C620.391 133.04 620.23 133.098 620.02 133.098C619.809 133.098 619.648 133.04 619.539 132.922C619.434 132.805 619.381 132.659 619.381 132.483ZM624.549 137.323H621.689V136.438H624.549V137.323ZM625.973 140.505V135.003H624.971V134.165H625.973V133.626C625.973 132.919 626.174 132.368 626.576 131.973C626.982 131.579 627.555 131.381 628.293 131.381C628.73 131.381 629.283 131.501 629.951 131.739L629.77 132.653C629.281 132.458 628.816 132.36 628.375 132.36C627.91 132.36 627.574 132.465 627.367 132.676C627.164 132.883 627.062 133.196 627.062 133.614V134.165H628.357V135.003H627.062V140.505H625.973ZM630.49 140.505H629.4V134.165H630.49V140.505ZM640.586 137.405C640.586 138.37 640.365 139.147 639.924 139.737C639.482 140.327 638.885 140.622 638.131 140.622C637.361 140.622 636.756 140.378 636.314 139.889V142.942H635.23V134.165H636.221L636.273 134.868C636.715 134.321 637.328 134.047 638.113 134.047C638.875 134.047 639.477 134.335 639.918 134.909C640.363 135.483 640.586 136.282 640.586 137.305V137.405ZM639.502 137.282C639.502 136.567 639.35 136.003 639.045 135.589C638.74 135.174 638.322 134.967 637.791 134.967C637.135 134.967 636.643 135.258 636.314 135.84V138.87C636.639 139.448 637.135 139.737 637.803 139.737C638.322 139.737 638.734 139.532 639.039 139.122C639.348 138.708 639.502 138.094 639.502 137.282ZM645.033 135.137C644.869 135.11 644.691 135.096 644.5 135.096C643.789 135.096 643.307 135.399 643.053 136.005V140.505H641.969V134.165H643.023L643.041 134.897C643.396 134.331 643.9 134.047 644.553 134.047C644.764 134.047 644.924 134.075 645.033 134.13V135.137ZM645.631 137.276C645.631 136.655 645.752 136.096 645.994 135.6C646.24 135.104 646.58 134.721 647.014 134.452C647.451 134.182 647.949 134.047 648.508 134.047C649.371 134.047 650.068 134.346 650.6 134.944C651.135 135.542 651.402 136.337 651.402 137.329V137.405C651.402 138.022 651.283 138.577 651.045 139.069C650.811 139.557 650.473 139.938 650.031 140.212C649.594 140.485 649.09 140.622 648.52 140.622C647.66 140.622 646.963 140.323 646.428 139.725C645.896 139.128 645.631 138.337 645.631 137.352V137.276ZM646.721 137.405C646.721 138.108 646.883 138.672 647.207 139.098C647.535 139.524 647.973 139.737 648.52 139.737C649.07 139.737 649.508 139.522 649.832 139.092C650.156 138.659 650.318 138.053 650.318 137.276C650.318 136.581 650.152 136.018 649.82 135.589C649.492 135.155 649.055 134.938 648.508 134.938C647.973 134.938 647.541 135.151 647.213 135.577C646.885 136.003 646.721 136.612 646.721 137.405ZM654.232 132.63V134.165H655.416V135.003H654.232V138.934C654.232 139.188 654.285 139.38 654.391 139.508C654.496 139.633 654.676 139.696 654.93 139.696C655.055 139.696 655.227 139.672 655.445 139.626V140.505C655.16 140.583 654.883 140.622 654.613 140.622C654.129 140.622 653.764 140.475 653.518 140.182C653.271 139.889 653.148 139.473 653.148 138.934V135.003H651.994V134.165H653.148V132.63H654.232ZM656.283 137.276C656.283 136.655 656.404 136.096 656.646 135.6C656.893 135.104 657.232 134.721 657.666 134.452C658.104 134.182 658.602 134.047 659.16 134.047C660.023 134.047 660.721 134.346 661.252 134.944C661.787 135.542 662.055 136.337 662.055 137.329V137.405C662.055 138.022 661.936 138.577 661.697 139.069C661.463 139.557 661.125 139.938 660.684 140.212C660.246 140.485 659.742 140.622 659.172 140.622C658.312 140.622 657.615 140.323 657.08 139.725C656.549 139.128 656.283 138.337 656.283 137.352V137.276ZM657.373 137.405C657.373 138.108 657.535 138.672 657.859 139.098C658.188 139.524 658.625 139.737 659.172 139.737C659.723 139.737 660.16 139.522 660.484 139.092C660.809 138.659 660.971 138.053 660.971 137.276C660.971 136.581 660.805 136.018 660.473 135.589C660.145 135.155 659.707 134.938 659.16 134.938C658.625 134.938 658.193 135.151 657.865 135.577C657.537 136.003 657.373 136.612 657.373 137.405ZM664.885 132.63V134.165H666.068V135.003H664.885V138.934C664.885 139.188 664.938 139.38 665.043 139.508C665.148 139.633 665.328 139.696 665.582 139.696C665.707 139.696 665.879 139.672 666.098 139.626V140.505C665.812 140.583 665.535 140.622 665.266 140.622C664.781 140.622 664.416 140.475 664.17 140.182C663.924 139.889 663.801 139.473 663.801 138.934V135.003H662.646V134.165H663.801V132.63H664.885ZM669.414 138.917L670.891 134.165H672.051L669.502 141.483C669.107 142.538 668.48 143.065 667.621 143.065L667.416 143.047L667.012 142.971V142.092L667.305 142.116C667.672 142.116 667.957 142.042 668.16 141.893C668.367 141.745 668.537 141.473 668.67 141.079L668.91 140.434L666.648 134.165H667.832L669.414 138.917ZM678.379 137.405C678.379 138.37 678.158 139.147 677.717 139.737C677.275 140.327 676.678 140.622 675.924 140.622C675.154 140.622 674.549 140.378 674.107 139.889V142.942H673.023V134.165H674.014L674.066 134.868C674.508 134.321 675.121 134.047 675.906 134.047C676.668 134.047 677.27 134.335 677.711 134.909C678.156 135.483 678.379 136.282 678.379 137.305V137.405ZM677.295 137.282C677.295 136.567 677.143 136.003 676.838 135.589C676.533 135.174 676.115 134.967 675.584 134.967C674.928 134.967 674.436 135.258 674.107 135.84V138.87C674.432 139.448 674.928 139.737 675.596 139.737C676.115 139.737 676.527 139.532 676.832 139.122C677.141 138.708 677.295 138.094 677.295 137.282ZM680.939 140.505H679.855V134.165H680.939V140.505ZM679.768 132.483C679.768 132.307 679.82 132.159 679.926 132.038C680.035 131.917 680.195 131.856 680.406 131.856C680.617 131.856 680.777 131.917 680.887 132.038C680.996 132.159 681.051 132.307 681.051 132.483C681.051 132.659 680.996 132.805 680.887 132.922C680.777 133.04 680.617 133.098 680.406 133.098C680.195 133.098 680.035 133.04 679.926 132.922C679.82 132.805 679.768 132.659 679.768 132.483ZM683.705 134.165L683.74 134.962C684.225 134.352 684.857 134.047 685.639 134.047C686.979 134.047 687.654 134.803 687.666 136.315V140.505H686.582V136.309C686.578 135.852 686.473 135.514 686.266 135.296C686.062 135.077 685.744 134.967 685.311 134.967C684.959 134.967 684.65 135.061 684.385 135.249C684.119 135.436 683.912 135.682 683.764 135.987V140.505H682.68V134.165H683.705ZM689.043 137.282C689.043 136.294 689.271 135.508 689.729 134.926C690.186 134.34 690.791 134.047 691.545 134.047C692.318 134.047 692.922 134.321 693.355 134.868L693.408 134.165H694.398V140.352C694.398 141.172 694.154 141.819 693.666 142.292C693.182 142.764 692.529 143.001 691.709 143.001C691.252 143.001 690.805 142.903 690.367 142.708C689.93 142.512 689.596 142.245 689.365 141.905L689.928 141.255C690.393 141.829 690.961 142.116 691.633 142.116C692.16 142.116 692.57 141.967 692.863 141.671C693.16 141.374 693.309 140.956 693.309 140.417V139.872C692.875 140.372 692.283 140.622 691.533 140.622C690.791 140.622 690.189 140.323 689.729 139.725C689.271 139.128 689.043 138.313 689.043 137.282ZM690.133 137.405C690.133 138.12 690.279 138.682 690.572 139.092C690.865 139.499 691.275 139.702 691.803 139.702C692.486 139.702 692.988 139.391 693.309 138.77V135.876C692.977 135.27 692.479 134.967 691.814 134.967C691.287 134.967 690.875 135.172 690.578 135.583C690.281 135.993 690.133 136.6 690.133 137.405Z" fill="black"/>
<path d="M727.996 131.973V137.774C727.992 138.579 727.738 139.237 727.234 139.749C726.734 140.26 726.055 140.547 725.195 140.61L724.896 140.622C723.963 140.622 723.219 140.37 722.664 139.866C722.109 139.362 721.828 138.669 721.82 137.786V131.973H722.934V137.751C722.934 138.368 723.104 138.848 723.443 139.192C723.783 139.532 724.268 139.702 724.896 139.702C725.533 139.702 726.02 139.532 726.355 139.192C726.695 138.852 726.865 138.374 726.865 137.756V131.973H727.996ZM733.293 138.823C733.293 138.53 733.182 138.303 732.959 138.143C732.74 137.979 732.355 137.839 731.805 137.721C731.258 137.604 730.822 137.464 730.498 137.299C730.178 137.135 729.939 136.94 729.783 136.714C729.631 136.487 729.555 136.217 729.555 135.905C729.555 135.385 729.773 134.946 730.211 134.587C730.652 134.227 731.215 134.047 731.898 134.047C732.617 134.047 733.199 134.233 733.645 134.604C734.094 134.975 734.318 135.45 734.318 136.028H733.229C733.229 135.731 733.102 135.475 732.848 135.26C732.598 135.046 732.281 134.938 731.898 134.938C731.504 134.938 731.195 135.024 730.973 135.196C730.75 135.368 730.639 135.592 730.639 135.87C730.639 136.131 730.742 136.329 730.949 136.462C731.156 136.594 731.529 136.721 732.068 136.842C732.611 136.964 733.051 137.108 733.387 137.276C733.723 137.444 733.971 137.647 734.131 137.885C734.295 138.12 734.377 138.407 734.377 138.747C734.377 139.313 734.15 139.768 733.697 140.112C733.244 140.452 732.656 140.622 731.934 140.622C731.426 140.622 730.977 140.532 730.586 140.352C730.195 140.172 729.889 139.922 729.666 139.602C729.447 139.278 729.338 138.928 729.338 138.553H730.422C730.441 138.917 730.586 139.206 730.855 139.421C731.129 139.631 731.488 139.737 731.934 139.737C732.344 139.737 732.672 139.655 732.918 139.491C733.168 139.323 733.293 139.1 733.293 138.823ZM738.42 140.622C737.561 140.622 736.861 140.34 736.322 139.778C735.783 139.212 735.514 138.456 735.514 137.51V137.311C735.514 136.682 735.633 136.122 735.871 135.63C736.113 135.133 736.449 134.747 736.879 134.469C737.312 134.188 737.781 134.047 738.285 134.047C739.109 134.047 739.75 134.319 740.207 134.862C740.664 135.405 740.893 136.182 740.893 137.194V137.645H736.598C736.613 138.27 736.795 138.776 737.143 139.163C737.494 139.546 737.939 139.737 738.479 139.737C738.861 139.737 739.186 139.659 739.451 139.503C739.717 139.346 739.949 139.139 740.148 138.881L740.811 139.397C740.279 140.214 739.482 140.622 738.42 140.622ZM738.285 134.938C737.848 134.938 737.48 135.098 737.184 135.419C736.887 135.735 736.703 136.18 736.633 136.755H739.809V136.672C739.777 136.122 739.629 135.696 739.363 135.395C739.098 135.09 738.738 134.938 738.285 134.938ZM745.217 135.137C745.053 135.11 744.875 135.096 744.684 135.096C743.973 135.096 743.49 135.399 743.236 136.005V140.505H742.152V134.165H743.207L743.225 134.897C743.58 134.331 744.084 134.047 744.736 134.047C744.947 134.047 745.107 134.075 745.217 134.13V135.137ZM749.898 140.505C749.836 140.38 749.785 140.157 749.746 139.837C749.242 140.36 748.641 140.622 747.941 140.622C747.316 140.622 746.803 140.446 746.4 140.094C746.002 139.739 745.803 139.29 745.803 138.747C745.803 138.087 746.053 137.575 746.553 137.212C747.057 136.844 747.764 136.661 748.674 136.661H749.729V136.163C749.729 135.784 749.615 135.483 749.389 135.26C749.162 135.034 748.828 134.921 748.387 134.921C748 134.921 747.676 135.018 747.414 135.214C747.152 135.409 747.021 135.645 747.021 135.922H745.932C745.932 135.606 746.043 135.301 746.266 135.008C746.492 134.712 746.797 134.477 747.18 134.305C747.566 134.133 747.99 134.047 748.451 134.047C749.182 134.047 749.754 134.231 750.168 134.598C750.582 134.962 750.797 135.464 750.812 136.104V139.022C750.812 139.604 750.887 140.067 751.035 140.411V140.505H749.898ZM748.1 139.678C748.439 139.678 748.762 139.59 749.066 139.415C749.371 139.239 749.592 139.01 749.729 138.729V137.428H748.879C747.551 137.428 746.887 137.817 746.887 138.594C746.887 138.934 747 139.2 747.227 139.391C747.453 139.583 747.744 139.678 748.1 139.678ZM757.879 137.405C757.879 138.374 757.656 139.153 757.211 139.743C756.766 140.329 756.168 140.622 755.418 140.622C754.617 140.622 753.998 140.339 753.561 139.772L753.508 140.505H752.512V131.505H753.596V134.862C754.033 134.319 754.637 134.047 755.406 134.047C756.176 134.047 756.779 134.339 757.217 134.921C757.658 135.503 757.879 136.299 757.879 137.311V137.405ZM756.795 137.282C756.795 136.544 756.652 135.973 756.367 135.571C756.082 135.169 755.672 134.967 755.137 134.967C754.422 134.967 753.908 135.299 753.596 135.964V138.706C753.928 139.37 754.445 139.702 755.148 139.702C755.668 139.702 756.072 139.501 756.361 139.098C756.65 138.696 756.795 138.09 756.795 137.282ZM760.428 140.505H759.344V134.165H760.428V140.505ZM759.256 132.483C759.256 132.307 759.309 132.159 759.414 132.038C759.523 131.917 759.684 131.856 759.895 131.856C760.105 131.856 760.266 131.917 760.375 132.038C760.484 132.159 760.539 132.307 760.539 132.483C760.539 132.659 760.484 132.805 760.375 132.922C760.266 133.04 760.105 133.098 759.895 133.098C759.684 133.098 759.523 133.04 759.414 132.922C759.309 132.805 759.256 132.659 759.256 132.483ZM763.346 140.505H762.262V131.505H763.346V140.505ZM766.264 140.505H765.18V134.165H766.264V140.505ZM765.092 132.483C765.092 132.307 765.145 132.159 765.25 132.038C765.359 131.917 765.52 131.856 765.73 131.856C765.941 131.856 766.102 131.917 766.211 132.038C766.32 132.159 766.375 132.307 766.375 132.483C766.375 132.659 766.32 132.805 766.211 132.922C766.102 133.04 765.941 133.098 765.73 133.098C765.52 133.098 765.359 133.04 765.25 132.922C765.145 132.805 765.092 132.659 765.092 132.483ZM769.475 132.63V134.165H770.658V135.003H769.475V138.934C769.475 139.188 769.527 139.38 769.633 139.508C769.738 139.633 769.918 139.696 770.172 139.696C770.297 139.696 770.469 139.672 770.688 139.626V140.505C770.402 140.583 770.125 140.622 769.855 140.622C769.371 140.622 769.006 140.475 768.76 140.182C768.514 139.889 768.391 139.473 768.391 138.934V135.003H767.236V134.165H768.391V132.63H769.475ZM774.004 138.917L775.48 134.165H776.641L774.092 141.483C773.697 142.538 773.07 143.065 772.211 143.065L772.006 143.047L771.602 142.971V142.092L771.895 142.116C772.262 142.116 772.547 142.042 772.75 141.893C772.957 141.745 773.127 141.473 773.26 141.079L773.5 140.434L771.238 134.165H772.422L774.004 138.917ZM786.42 132.899H783.678V140.505H782.559V132.899H779.822V131.973H786.42V132.899ZM789.561 140.622C788.701 140.622 788.002 140.34 787.463 139.778C786.924 139.212 786.654 138.456 786.654 137.51V137.311C786.654 136.682 786.773 136.122 787.012 135.63C787.254 135.133 787.59 134.747 788.02 134.469C788.453 134.188 788.922 134.047 789.426 134.047C790.25 134.047 790.891 134.319 791.348 134.862C791.805 135.405 792.033 136.182 792.033 137.194V137.645H787.738C787.754 138.27 787.936 138.776 788.283 139.163C788.635 139.546 789.08 139.737 789.619 139.737C790.002 139.737 790.326 139.659 790.592 139.503C790.857 139.346 791.09 139.139 791.289 138.881L791.951 139.397C791.42 140.214 790.623 140.622 789.561 140.622ZM789.426 134.938C788.988 134.938 788.621 135.098 788.324 135.419C788.027 135.735 787.844 136.18 787.773 136.755H790.949V136.672C790.918 136.122 790.77 135.696 790.504 135.395C790.238 135.09 789.879 134.938 789.426 134.938ZM796.984 138.823C796.984 138.53 796.873 138.303 796.65 138.143C796.432 137.979 796.047 137.839 795.496 137.721C794.949 137.604 794.514 137.464 794.189 137.299C793.869 137.135 793.631 136.94 793.475 136.714C793.322 136.487 793.246 136.217 793.246 135.905C793.246 135.385 793.465 134.946 793.902 134.587C794.344 134.227 794.906 134.047 795.59 134.047C796.309 134.047 796.891 134.233 797.336 134.604C797.785 134.975 798.01 135.45 798.01 136.028H796.92C796.92 135.731 796.793 135.475 796.539 135.26C796.289 135.046 795.973 134.938 795.59 134.938C795.195 134.938 794.887 135.024 794.664 135.196C794.441 135.368 794.33 135.592 794.33 135.87C794.33 136.131 794.434 136.329 794.641 136.462C794.848 136.594 795.221 136.721 795.76 136.842C796.303 136.964 796.742 137.108 797.078 137.276C797.414 137.444 797.662 137.647 797.822 137.885C797.986 138.12 798.068 138.407 798.068 138.747C798.068 139.313 797.842 139.768 797.389 140.112C796.936 140.452 796.348 140.622 795.625 140.622C795.117 140.622 794.668 140.532 794.277 140.352C793.887 140.172 793.58 139.922 793.357 139.602C793.139 139.278 793.029 138.928 793.029 138.553H794.113C794.133 138.917 794.277 139.206 794.547 139.421C794.82 139.631 795.18 139.737 795.625 139.737C796.035 139.737 796.363 139.655 796.609 139.491C796.859 139.323 796.984 139.1 796.984 138.823ZM800.951 132.63V134.165H802.135V135.003H800.951V138.934C800.951 139.188 801.004 139.38 801.109 139.508C801.215 139.633 801.395 139.696 801.648 139.696C801.773 139.696 801.945 139.672 802.164 139.626V140.505C801.879 140.583 801.602 140.622 801.332 140.622C800.848 140.622 800.482 140.475 800.236 140.182C799.99 139.889 799.867 139.473 799.867 138.934V135.003H798.713V134.165H799.867V132.63H800.951ZM804.584 140.505H803.5V134.165H804.584V140.505ZM803.412 132.483C803.412 132.307 803.465 132.159 803.57 132.038C803.68 131.917 803.84 131.856 804.051 131.856C804.262 131.856 804.422 131.917 804.531 132.038C804.641 132.159 804.695 132.307 804.695 132.483C804.695 132.659 804.641 132.805 804.531 132.922C804.422 133.04 804.262 133.098 804.051 133.098C803.84 133.098 803.68 133.04 803.57 132.922C803.465 132.805 803.412 132.659 803.412 132.483ZM807.35 134.165L807.385 134.962C807.869 134.352 808.502 134.047 809.283 134.047C810.623 134.047 811.299 134.803 811.311 136.315V140.505H810.227V136.309C810.223 135.852 810.117 135.514 809.91 135.296C809.707 135.077 809.389 134.967 808.955 134.967C808.604 134.967 808.295 135.061 808.029 135.249C807.764 135.436 807.557 135.682 807.408 135.987V140.505H806.324V134.165H807.35ZM812.688 137.282C812.688 136.294 812.916 135.508 813.373 134.926C813.83 134.34 814.436 134.047 815.189 134.047C815.963 134.047 816.566 134.321 817 134.868L817.053 134.165H818.043V140.352C818.043 141.172 817.799 141.819 817.311 142.292C816.826 142.764 816.174 143.001 815.354 143.001C814.896 143.001 814.449 142.903 814.012 142.708C813.574 142.512 813.24 142.245 813.01 141.905L813.572 141.255C814.037 141.829 814.605 142.116 815.277 142.116C815.805 142.116 816.215 141.967 816.508 141.671C816.805 141.374 816.953 140.956 816.953 140.417V139.872C816.52 140.372 815.928 140.622 815.178 140.622C814.436 140.622 813.834 140.323 813.373 139.725C812.916 139.128 812.688 138.313 812.688 137.282ZM813.777 137.405C813.777 138.12 813.924 138.682 814.217 139.092C814.51 139.499 814.92 139.702 815.447 139.702C816.131 139.702 816.633 139.391 816.953 138.77V135.876C816.621 135.27 816.123 134.967 815.459 134.967C814.932 134.967 814.52 135.172 814.223 135.583C813.926 135.993 813.777 136.6 813.777 137.405Z" fill="black"/>
<path d="M667.939 48.4932V52H665.889V42.0469H669.771C670.519 42.0469 671.175 42.1836 671.74 42.457C672.31 42.7305 672.747 43.1201 673.053 43.626C673.358 44.1273 673.511 44.6992 673.511 45.3418C673.511 46.3171 673.176 47.0872 672.506 47.6523C671.84 48.2129 670.918 48.4932 669.737 48.4932H667.939ZM667.939 46.832H669.771C670.314 46.832 670.726 46.7044 671.009 46.4492C671.296 46.194 671.439 45.8294 671.439 45.3555C671.439 44.8678 671.296 44.4736 671.009 44.1729C670.722 43.8721 670.325 43.7171 669.819 43.708H667.939V46.832ZM678.952 46.4561C678.683 46.4196 678.446 46.4014 678.241 46.4014C677.494 46.4014 677.004 46.6543 676.771 47.1602V52H674.796V44.6035H676.662L676.717 45.4854C677.113 44.8063 677.662 44.4668 678.364 44.4668C678.583 44.4668 678.788 44.4964 678.979 44.5557L678.952 46.4561ZM679.355 48.2334C679.355 47.4997 679.497 46.8457 679.779 46.2715C680.062 45.6973 680.467 45.2529 680.996 44.9385C681.529 44.624 682.147 44.4668 682.849 44.4668C683.847 44.4668 684.66 44.7721 685.289 45.3828C685.923 45.9935 686.276 46.8229 686.349 47.8711L686.362 48.377C686.362 49.5117 686.046 50.4232 685.412 51.1113C684.779 51.7949 683.929 52.1367 682.862 52.1367C681.796 52.1367 680.944 51.7949 680.306 51.1113C679.672 50.4277 679.355 49.498 679.355 48.3223V48.2334ZM681.331 48.377C681.331 49.0788 681.463 49.6165 681.728 49.9902C681.992 50.3594 682.37 50.5439 682.862 50.5439C683.341 50.5439 683.715 50.3617 683.983 49.9971C684.252 49.6279 684.387 49.04 684.387 48.2334C684.387 47.5452 684.252 47.012 683.983 46.6338C683.715 46.2555 683.336 46.0664 682.849 46.0664C682.366 46.0664 681.992 46.2555 681.728 46.6338C681.463 47.0075 681.331 47.5885 681.331 48.377ZM689.944 42.7852V44.6035H691.209V46.0527H689.944V49.7441C689.944 50.0176 689.997 50.2135 690.102 50.332C690.206 50.4505 690.407 50.5098 690.703 50.5098C690.922 50.5098 691.116 50.4938 691.284 50.4619V51.959C690.897 52.0775 690.498 52.1367 690.088 52.1367C688.702 52.1367 687.996 51.4372 687.969 50.0381V46.0527H686.889V44.6035H687.969V42.7852H689.944ZM691.797 48.2334C691.797 47.4997 691.938 46.8457 692.221 46.2715C692.503 45.6973 692.909 45.2529 693.438 44.9385C693.971 44.624 694.588 44.4668 695.29 44.4668C696.288 44.4668 697.102 44.7721 697.73 45.3828C698.364 45.9935 698.717 46.8229 698.79 47.8711L698.804 48.377C698.804 49.5117 698.487 50.4232 697.854 51.1113C697.22 51.7949 696.37 52.1367 695.304 52.1367C694.237 52.1367 693.385 51.7949 692.747 51.1113C692.114 50.4277 691.797 49.498 691.797 48.3223V48.2334ZM693.772 48.377C693.772 49.0788 693.905 49.6165 694.169 49.9902C694.433 50.3594 694.812 50.5439 695.304 50.5439C695.782 50.5439 696.156 50.3617 696.425 49.9971C696.694 49.6279 696.828 49.04 696.828 48.2334C696.828 47.5452 696.694 47.012 696.425 46.6338C696.156 46.2555 695.778 46.0664 695.29 46.0664C694.807 46.0664 694.433 46.2555 694.169 46.6338C693.905 47.0075 693.772 47.5885 693.772 48.377ZM702.386 42.7852V44.6035H703.65V46.0527H702.386V49.7441C702.386 50.0176 702.438 50.2135 702.543 50.332C702.648 50.4505 702.848 50.5098 703.145 50.5098C703.363 50.5098 703.557 50.4938 703.726 50.4619V51.959C703.338 52.0775 702.939 52.1367 702.529 52.1367C701.144 52.1367 700.438 51.4372 700.41 50.0381V46.0527H699.33V44.6035H700.41V42.7852H702.386ZM707.513 49.2041L708.88 44.6035H710.999L708.025 53.1484L707.861 53.5381C707.419 54.5042 706.69 54.9873 705.674 54.9873C705.387 54.9873 705.095 54.944 704.799 54.8574V53.3604L705.1 53.3672C705.473 53.3672 705.751 53.3102 705.934 53.1963C706.12 53.0824 706.266 52.8932 706.371 52.6289L706.604 52.0205L704.013 44.6035H706.139L707.513 49.2041ZM718.437 48.3701C718.437 49.5094 718.177 50.4232 717.657 51.1113C717.142 51.7949 716.445 52.1367 715.565 52.1367C714.818 52.1367 714.214 51.877 713.754 51.3574V54.8438H711.778V44.6035H713.61L713.679 45.3281C714.157 44.7539 714.782 44.4668 715.552 44.4668C716.463 44.4668 717.172 44.804 717.678 45.4785C718.184 46.153 718.437 47.0827 718.437 48.2676V48.3701ZM716.461 48.2266C716.461 47.5384 716.338 47.0075 716.092 46.6338C715.85 46.2601 715.497 46.0732 715.032 46.0732C714.412 46.0732 713.986 46.3102 713.754 46.7842V49.8125C713.995 50.3001 714.426 50.5439 715.046 50.5439C715.989 50.5439 716.461 49.7715 716.461 48.2266ZM721.752 52H719.77V44.6035H721.752V52ZM719.653 42.6895C719.653 42.3932 719.751 42.1494 719.947 41.958C720.148 41.7666 720.419 41.6709 720.761 41.6709C721.098 41.6709 721.367 41.7666 721.567 41.958C721.768 42.1494 721.868 42.3932 721.868 42.6895C721.868 42.9902 721.766 43.2363 721.561 43.4277C721.36 43.6191 721.093 43.7148 720.761 43.7148C720.428 43.7148 720.159 43.6191 719.954 43.4277C719.754 43.2363 719.653 42.9902 719.653 42.6895ZM725.204 44.6035L725.266 45.458C725.794 44.7972 726.503 44.4668 727.392 44.4668C728.175 44.4668 728.759 44.6969 729.142 45.1572C729.524 45.6175 729.72 46.3057 729.729 47.2217V52H727.754V47.2695C727.754 46.8503 727.663 46.5472 727.48 46.3604C727.298 46.1689 726.995 46.0732 726.571 46.0732C726.015 46.0732 725.598 46.3102 725.32 46.7842V52H723.345V44.6035H725.204ZM730.946 48.2471C730.946 47.1123 731.215 46.1986 731.753 45.5059C732.295 44.8132 733.024 44.4668 733.94 44.4668C734.752 44.4668 735.383 44.7448 735.834 45.3008L735.916 44.6035H737.707V51.7539C737.707 52.401 737.559 52.9639 737.263 53.4424C736.971 53.9209 736.559 54.2855 736.025 54.5361C735.492 54.7868 734.868 54.9121 734.152 54.9121C733.61 54.9121 733.081 54.8027 732.566 54.584C732.051 54.3698 731.662 54.0918 731.397 53.75L732.272 52.5469C732.765 53.0983 733.362 53.374 734.063 53.374C734.588 53.374 734.995 53.2327 735.287 52.9502C735.579 52.6722 735.725 52.2757 735.725 51.7607V51.3643C735.269 51.8792 734.67 52.1367 733.927 52.1367C733.038 52.1367 732.318 51.7904 731.767 51.0977C731.22 50.4004 730.946 49.4775 730.946 48.3291V48.2471ZM732.922 48.3906C732.922 49.0605 733.056 49.5869 733.325 49.9697C733.594 50.348 733.963 50.5371 734.433 50.5371C735.034 50.5371 735.465 50.3115 735.725 49.8604V46.75C735.46 46.2988 735.034 46.0732 734.446 46.0732C733.972 46.0732 733.599 46.2669 733.325 46.6543C733.056 47.0417 732.922 47.6204 732.922 48.3906Z" fill="#657B83"/>
<path d="M650.52 121.261C647.25 119.458 644.91 115.735 644.55 111.332H643.05C643.56 118.545 648.71 124.212 655 124.212L655.66 124.177L651.85 119.716L650.52 121.261ZM651.41 113.627C651.22 113.627 651.04 113.592 650.89 113.533C650.73 113.463 650.6 113.381 650.49 113.252C650.38 113.135 650.29 112.995 650.23 112.819C650.17 112.655 650.14 112.468 650.14 112.269H648.84C648.84 112.69 648.91 113.065 649.05 113.381C649.19 113.697 649.38 113.967 649.61 114.189C649.85 114.4 650.12 114.564 650.43 114.669C650.73 114.786 651.05 114.845 651.39 114.845C651.76 114.845 652.11 114.786 652.42 114.669C652.74 114.552 653.02 114.376 653.25 114.154C653.48 113.931 653.67 113.65 653.8 113.311C653.93 112.971 654 112.597 654 112.175C654 111.953 653.98 111.73 653.93 111.519C653.88 111.309 653.81 111.11 653.7 110.922C653.6 110.735 653.46 110.571 653.3 110.419C653.13 110.267 652.93 110.149 652.69 110.056C652.89 109.95 653.06 109.822 653.21 109.669C653.36 109.517 653.48 109.353 653.58 109.178C653.68 109.002 653.75 108.826 653.8 108.639C653.85 108.452 653.87 108.264 653.87 108.077C653.87 107.655 653.81 107.281 653.69 106.953C653.57 106.625 653.4 106.356 653.18 106.145C652.98 105.923 652.71 105.759 652.41 105.642C652.1 105.536 651.76 105.478 651.39 105.478C651.03 105.478 650.7 105.536 650.39 105.665C650.09 105.794 649.82 105.969 649.6 106.192C649.39 106.414 649.22 106.672 649.09 106.976C648.97 107.281 648.91 107.609 648.91 107.972H650.21C650.21 107.773 650.24 107.597 650.3 107.445C650.36 107.293 650.44 107.152 650.55 107.047C650.66 106.941 650.78 106.848 650.93 106.789C651.08 106.73 651.23 106.695 651.41 106.695C651.81 106.695 652.11 106.812 652.3 107.058C652.49 107.293 652.59 107.632 652.59 108.065C652.59 108.276 652.56 108.463 652.51 108.639C652.46 108.815 652.37 108.955 652.26 109.072C652.15 109.189 652.01 109.283 651.85 109.353C651.69 109.424 651.49 109.459 651.27 109.459H650.5V110.665H651.27C651.49 110.665 651.69 110.688 651.87 110.747C652.05 110.805 652.2 110.899 652.32 111.016C652.44 111.145 652.54 111.297 652.61 111.484C652.68 111.672 652.71 111.894 652.71 112.152C652.71 112.632 652.59 112.995 652.36 113.241C652.13 113.51 651.81 113.627 651.41 113.627V113.627ZM659.96 106.695C659.64 106.309 659.26 106.005 658.82 105.794C658.39 105.583 657.9 105.478 657.36 105.478H655V114.845H657.3C657.85 114.845 658.36 114.739 658.81 114.529C659.26 114.318 659.65 114.025 659.97 113.639C660.29 113.252 660.54 112.784 660.71 112.245C660.88 111.695 660.97 111.086 660.97 110.407V109.939C660.97 109.26 660.88 108.651 660.71 108.1C660.53 107.55 660.28 107.082 659.96 106.695V106.695ZM659.57 110.395C659.57 110.887 659.52 111.32 659.43 111.718C659.33 112.105 659.19 112.444 659 112.714C658.81 112.983 658.57 113.194 658.29 113.334C658 113.475 657.67 113.545 657.3 113.545H656.39V106.789H657.36C658.08 106.789 658.63 107.058 659 107.597C659.38 108.136 659.57 108.908 659.57 109.927V110.395V110.395ZM655 96.1106L654.34 96.1457L658.15 100.607L659.48 99.0495C662.75 100.864 665.09 104.576 665.44 108.979H666.94C666.44 101.778 661.29 96.1106 655 96.1106Z" fill="#657B83"/>
<path d="M762.329 105.759V101.38C762.329 99.7637 763.433 98.4524 764.794 98.4524C766.154 98.4524 767.258 99.7637 767.258 101.38V105.759C768.451 104.81 769.23 103.206 769.23 101.38C769.23 98.4641 767.248 96.1106 764.794 96.1106C762.339 96.1106 760.358 98.4641 760.358 101.38C760.358 103.206 761.137 104.81 762.329 105.759ZM772.029 111.18L767.554 108.534C767.386 108.452 767.209 108.405 767.022 108.405H766.272V101.38C766.272 100.408 765.612 99.6232 764.794 99.6232C763.976 99.6232 763.315 100.408 763.315 101.38V113.955L759.934 113.112C759.855 113.1 759.786 113.077 759.697 113.077C759.392 113.077 759.116 113.229 758.919 113.463L758.14 114.4L763.01 120.184C763.276 120.5 763.65 120.699 764.054 120.699H770.748C771.487 120.699 772.059 120.055 772.167 119.2L772.906 113.03C772.916 112.948 772.926 112.866 772.926 112.796C772.926 112.07 772.552 111.437 772.029 111.18V111.18Z" fill="#657B83"/>
<path d="M458.121 212.715H462.164V213.635H456.99V205.103H458.121V212.715ZM468.152 209.867H464.572V213.635H463.447V205.103H468.732V206.029H464.572V208.947H468.152V209.867ZM474.896 210.945L475.061 212.07L475.301 211.056L476.988 205.103H477.938L479.584 211.056L479.818 212.088L480 210.939L481.324 205.103H482.455L480.387 213.635H479.361L477.604 207.418L477.469 206.767L477.334 207.418L475.512 213.635H474.486L472.424 205.103H473.549L474.896 210.945ZM484.717 213.635H483.633V207.295H484.717V213.635ZM483.545 205.613C483.545 205.437 483.598 205.289 483.703 205.168C483.812 205.047 483.973 204.986 484.184 204.986C484.395 204.986 484.555 205.047 484.664 205.168C484.773 205.289 484.828 205.437 484.828 205.613C484.828 205.789 484.773 205.935 484.664 206.053C484.555 206.17 484.395 206.228 484.184 206.228C483.973 206.228 483.812 206.17 483.703 206.053C483.598 205.935 483.545 205.789 483.545 205.613ZM489.521 208.267C489.357 208.24 489.18 208.226 488.988 208.226C488.277 208.226 487.795 208.529 487.541 209.135V213.635H486.457V207.295H487.512L487.529 208.027C487.885 207.461 488.389 207.178 489.041 207.178C489.252 207.178 489.412 207.205 489.521 207.26V208.267ZM493.037 213.752C492.178 213.752 491.479 213.471 490.939 212.908C490.4 212.342 490.131 211.586 490.131 210.64V210.441C490.131 209.812 490.25 209.252 490.488 208.76C490.73 208.263 491.066 207.877 491.496 207.599C491.93 207.318 492.398 207.178 492.902 207.178C493.727 207.178 494.367 207.449 494.824 207.992C495.281 208.535 495.51 209.312 495.51 210.324V210.775H491.215C491.23 211.4 491.412 211.906 491.76 212.293C492.111 212.676 492.557 212.867 493.096 212.867C493.479 212.867 493.803 212.789 494.068 212.633C494.334 212.476 494.566 212.269 494.766 212.012L495.428 212.527C494.896 213.344 494.1 213.752 493.037 213.752ZM492.902 208.068C492.465 208.068 492.098 208.228 491.801 208.549C491.504 208.865 491.32 209.31 491.25 209.885H494.426V209.803C494.395 209.252 494.246 208.826 493.98 208.525C493.715 208.221 493.355 208.068 492.902 208.068ZM497.303 213.635V208.133H496.301V207.295H497.303V206.644C497.303 205.965 497.484 205.439 497.848 205.068C498.211 204.697 498.725 204.512 499.389 204.512C499.639 204.512 499.887 204.545 500.133 204.611L500.074 205.49C499.891 205.455 499.695 205.437 499.488 205.437C499.137 205.437 498.865 205.541 498.674 205.748C498.482 205.951 498.387 206.244 498.387 206.627V207.295H499.74V208.133H498.387V213.635H497.303ZM504.006 208.267C503.842 208.24 503.664 208.226 503.473 208.226C502.762 208.226 502.279 208.529 502.025 209.135V213.635H500.941V207.295H501.996L502.014 208.027C502.369 207.461 502.873 207.178 503.525 207.178C503.736 207.178 503.896 207.205 504.006 207.26V208.267ZM508.688 213.635C508.625 213.51 508.574 213.287 508.535 212.967C508.031 213.49 507.43 213.752 506.73 213.752C506.105 213.752 505.592 213.576 505.189 213.224C504.791 212.869 504.592 212.42 504.592 211.877C504.592 211.217 504.842 210.705 505.342 210.342C505.846 209.974 506.553 209.791 507.463 209.791H508.518V209.293C508.518 208.914 508.404 208.613 508.178 208.39C507.951 208.164 507.617 208.051 507.176 208.051C506.789 208.051 506.465 208.148 506.203 208.344C505.941 208.539 505.811 208.775 505.811 209.053H504.721C504.721 208.736 504.832 208.431 505.055 208.138C505.281 207.842 505.586 207.607 505.969 207.435C506.355 207.263 506.779 207.178 507.24 207.178C507.971 207.178 508.543 207.361 508.957 207.728C509.371 208.092 509.586 208.594 509.602 209.234V212.152C509.602 212.734 509.676 213.197 509.824 213.541V213.635H508.688ZM506.889 212.808C507.229 212.808 507.551 212.721 507.855 212.545C508.16 212.369 508.381 212.14 508.518 211.859V210.558H507.668C506.34 210.558 505.676 210.947 505.676 211.724C505.676 212.064 505.789 212.33 506.016 212.521C506.242 212.713 506.533 212.808 506.889 212.808ZM512.32 207.295L512.35 207.998C512.814 207.451 513.441 207.178 514.23 207.178C515.117 207.178 515.721 207.517 516.041 208.197C516.252 207.892 516.525 207.646 516.861 207.459C517.201 207.271 517.602 207.178 518.062 207.178C519.453 207.178 520.16 207.914 520.184 209.387V213.635H519.1V209.451C519.1 208.998 518.996 208.66 518.789 208.437C518.582 208.211 518.234 208.097 517.746 208.097C517.344 208.097 517.01 208.219 516.744 208.461C516.479 208.699 516.324 209.021 516.281 209.428V213.635H515.191V209.48C515.191 208.558 514.74 208.097 513.838 208.097C513.127 208.097 512.641 208.4 512.379 209.006V213.635H511.295V207.295H512.32ZM523.002 213.635H521.918V207.295H523.002V213.635ZM521.83 205.613C521.83 205.437 521.883 205.289 521.988 205.168C522.098 205.047 522.258 204.986 522.469 204.986C522.68 204.986 522.84 205.047 522.949 205.168C523.059 205.289 523.113 205.437 523.113 205.613C523.113 205.789 523.059 205.935 522.949 206.053C522.84 206.17 522.68 206.228 522.469 206.228C522.258 206.228 522.098 206.17 521.988 206.053C521.883 205.935 521.83 205.789 521.83 205.613ZM525.768 207.295L525.803 208.092C526.287 207.482 526.92 207.178 527.701 207.178C529.041 207.178 529.717 207.933 529.729 209.445V213.635H528.645V209.439C528.641 208.982 528.535 208.644 528.328 208.426C528.125 208.207 527.807 208.097 527.373 208.097C527.021 208.097 526.713 208.191 526.447 208.379C526.182 208.566 525.975 208.812 525.826 209.117V213.635H524.742V207.295H525.768ZM531.105 210.412C531.105 209.424 531.334 208.638 531.791 208.056C532.248 207.471 532.854 207.178 533.607 207.178C534.381 207.178 534.984 207.451 535.418 207.998L535.471 207.295H536.461V213.482C536.461 214.303 536.217 214.949 535.729 215.422C535.244 215.894 534.592 216.131 533.771 216.131C533.314 216.131 532.867 216.033 532.43 215.838C531.992 215.642 531.658 215.375 531.428 215.035L531.99 214.385C532.455 214.959 533.023 215.246 533.695 215.246C534.223 215.246 534.633 215.097 534.926 214.801C535.223 214.504 535.371 214.086 535.371 213.547V213.002C534.938 213.502 534.346 213.752 533.596 213.752C532.854 213.752 532.252 213.453 531.791 212.855C531.334 212.258 531.105 211.443 531.105 210.412ZM532.195 210.535C532.195 211.25 532.342 211.812 532.635 212.222C532.928 212.629 533.338 212.832 533.865 212.832C534.549 212.832 535.051 212.521 535.371 211.9V209.006C535.039 208.4 534.541 208.097 533.877 208.097C533.35 208.097 532.938 208.303 532.641 208.713C532.344 209.123 532.195 209.73 532.195 210.535Z" fill="black"/>
<path d="M415.121 140.08H419.164V141H413.99V132.469H415.121V140.08ZM425.152 137.232H421.572V141H420.447V132.469H425.732V133.395H421.572V136.312H425.152V137.232ZM431.896 138.311L432.061 139.436L432.301 138.422L433.988 132.469H434.938L436.584 138.422L436.818 139.453L437 138.305L438.324 132.469H439.455L437.387 141H436.361L434.604 134.783L434.469 134.133L434.334 134.783L432.512 141H431.486L429.424 132.469H430.549L431.896 138.311ZM441.717 141H440.633V134.66H441.717V141ZM440.545 132.979C440.545 132.803 440.598 132.654 440.703 132.533C440.812 132.412 440.973 132.352 441.184 132.352C441.395 132.352 441.555 132.412 441.664 132.533C441.773 132.654 441.828 132.803 441.828 132.979C441.828 133.154 441.773 133.301 441.664 133.418C441.555 133.535 441.395 133.594 441.184 133.594C440.973 133.594 440.812 133.535 440.703 133.418C440.598 133.301 440.545 133.154 440.545 132.979ZM446.521 135.633C446.357 135.605 446.18 135.592 445.988 135.592C445.277 135.592 444.795 135.895 444.541 136.5V141H443.457V134.66H444.512L444.529 135.393C444.885 134.826 445.389 134.543 446.041 134.543C446.252 134.543 446.412 134.57 446.521 134.625V135.633ZM450.037 141.117C449.178 141.117 448.479 140.836 447.939 140.273C447.4 139.707 447.131 138.951 447.131 138.006V137.807C447.131 137.178 447.25 136.617 447.488 136.125C447.73 135.629 448.066 135.242 448.496 134.965C448.93 134.684 449.398 134.543 449.902 134.543C450.727 134.543 451.367 134.814 451.824 135.357C452.281 135.9 452.51 136.678 452.51 137.689V138.141H448.215C448.23 138.766 448.412 139.271 448.76 139.658C449.111 140.041 449.557 140.232 450.096 140.232C450.479 140.232 450.803 140.154 451.068 139.998C451.334 139.842 451.566 139.635 451.766 139.377L452.428 139.893C451.896 140.709 451.1 141.117 450.037 141.117ZM449.902 135.434C449.465 135.434 449.098 135.594 448.801 135.914C448.504 136.23 448.32 136.676 448.25 137.25H451.426V137.168C451.395 136.617 451.246 136.191 450.98 135.891C450.715 135.586 450.355 135.434 449.902 135.434ZM454.303 141V135.498H453.301V134.66H454.303V134.01C454.303 133.33 454.484 132.805 454.848 132.434C455.211 132.062 455.725 131.877 456.389 131.877C456.639 131.877 456.887 131.91 457.133 131.977L457.074 132.855C456.891 132.82 456.695 132.803 456.488 132.803C456.137 132.803 455.865 132.906 455.674 133.113C455.482 133.316 455.387 133.609 455.387 133.992V134.66H456.74V135.498H455.387V141H454.303ZM461.006 135.633C460.842 135.605 460.664 135.592 460.473 135.592C459.762 135.592 459.279 135.895 459.025 136.5V141H457.941V134.66H458.996L459.014 135.393C459.369 134.826 459.873 134.543 460.525 134.543C460.736 134.543 460.896 134.57 461.006 134.625V135.633ZM465.688 141C465.625 140.875 465.574 140.652 465.535 140.332C465.031 140.855 464.43 141.117 463.73 141.117C463.105 141.117 462.592 140.941 462.189 140.59C461.791 140.234 461.592 139.785 461.592 139.242C461.592 138.582 461.842 138.07 462.342 137.707C462.846 137.34 463.553 137.156 464.463 137.156H465.518V136.658C465.518 136.279 465.404 135.979 465.178 135.756C464.951 135.529 464.617 135.416 464.176 135.416C463.789 135.416 463.465 135.514 463.203 135.709C462.941 135.904 462.811 136.141 462.811 136.418H461.721C461.721 136.102 461.832 135.797 462.055 135.504C462.281 135.207 462.586 134.973 462.969 134.801C463.355 134.629 463.779 134.543 464.24 134.543C464.971 134.543 465.543 134.727 465.957 135.094C466.371 135.457 466.586 135.959 466.602 136.6V139.518C466.602 140.1 466.676 140.562 466.824 140.906V141H465.688ZM463.889 140.174C464.229 140.174 464.551 140.086 464.855 139.91C465.16 139.734 465.381 139.506 465.518 139.225V137.924H464.668C463.34 137.924 462.676 138.312 462.676 139.09C462.676 139.43 462.789 139.695 463.016 139.887C463.242 140.078 463.533 140.174 463.889 140.174ZM469.32 134.66L469.35 135.363C469.814 134.816 470.441 134.543 471.23 134.543C472.117 134.543 472.721 134.883 473.041 135.562C473.252 135.258 473.525 135.012 473.861 134.824C474.201 134.637 474.602 134.543 475.062 134.543C476.453 134.543 477.16 135.279 477.184 136.752V141H476.1V136.816C476.1 136.363 475.996 136.025 475.789 135.803C475.582 135.576 475.234 135.463 474.746 135.463C474.344 135.463 474.01 135.584 473.744 135.826C473.479 136.064 473.324 136.387 473.281 136.793V141H472.191V136.846C472.191 135.924 471.74 135.463 470.838 135.463C470.127 135.463 469.641 135.766 469.379 136.371V141H468.295V134.66H469.32ZM480.002 141H478.918V134.66H480.002V141ZM478.83 132.979C478.83 132.803 478.883 132.654 478.988 132.533C479.098 132.412 479.258 132.352 479.469 132.352C479.68 132.352 479.84 132.412 479.949 132.533C480.059 132.654 480.113 132.803 480.113 132.979C480.113 133.154 480.059 133.301 479.949 133.418C479.84 133.535 479.68 133.594 479.469 133.594C479.258 133.594 479.098 133.535 478.988 133.418C478.883 133.301 478.83 133.154 478.83 132.979ZM482.768 134.66L482.803 135.457C483.287 134.848 483.92 134.543 484.701 134.543C486.041 134.543 486.717 135.299 486.729 136.811V141H485.645V136.805C485.641 136.348 485.535 136.01 485.328 135.791C485.125 135.572 484.807 135.463 484.373 135.463C484.021 135.463 483.713 135.557 483.447 135.744C483.182 135.932 482.975 136.178 482.826 136.482V141H481.742V134.66H482.768ZM488.105 137.777C488.105 136.789 488.334 136.004 488.791 135.422C489.248 134.836 489.854 134.543 490.607 134.543C491.381 134.543 491.984 134.816 492.418 135.363L492.471 134.66H493.461V140.848C493.461 141.668 493.217 142.314 492.729 142.787C492.244 143.26 491.592 143.496 490.771 143.496C490.314 143.496 489.867 143.398 489.43 143.203C488.992 143.008 488.658 142.74 488.428 142.4L488.99 141.75C489.455 142.324 490.023 142.611 490.695 142.611C491.223 142.611 491.633 142.463 491.926 142.166C492.223 141.869 492.371 141.451 492.371 140.912V140.367C491.938 140.867 491.346 141.117 490.596 141.117C489.854 141.117 489.252 140.818 488.791 140.221C488.334 139.623 488.105 138.809 488.105 137.777ZM489.195 137.9C489.195 138.615 489.342 139.178 489.635 139.588C489.928 139.994 490.338 140.197 490.865 140.197C491.549 140.197 492.051 139.887 492.371 139.266V136.371C492.039 135.766 491.541 135.463 490.877 135.463C490.35 135.463 489.938 135.668 489.641 136.078C489.344 136.488 489.195 137.096 489.195 137.9Z" fill="black"/>
<path d="M487.3 187.247H499.129L493.215 180.221L487.3 187.247ZM502.087 165H484.343C483.259 165 482.372 166.054 482.372 167.342V181.392C482.372 182.68 483.259 183.734 484.343 183.734H488.286V181.392H484.343V167.342H502.087V181.392H498.144V183.734H502.087C503.171 183.734 504.058 182.68 504.058 181.392V167.342C504.058 166.054 503.171 165 502.087 165Z" fill="#657B83"/>
<path d="M386.996 205.928V211.729C386.992 212.534 386.738 213.192 386.234 213.704C385.734 214.215 385.055 214.502 384.195 214.565L383.896 214.577C382.963 214.577 382.219 214.325 381.664 213.821C381.109 213.317 380.828 212.624 380.82 211.741V205.928H381.934V211.706C381.934 212.323 382.104 212.803 382.443 213.147C382.783 213.487 383.268 213.657 383.896 213.657C384.533 213.657 385.02 213.487 385.355 213.147C385.695 212.807 385.865 212.329 385.865 211.711V205.928H386.996ZM392.293 212.778C392.293 212.485 392.182 212.258 391.959 212.098C391.74 211.934 391.355 211.793 390.805 211.676C390.258 211.559 389.822 211.418 389.498 211.254C389.178 211.09 388.939 210.895 388.783 210.668C388.631 210.442 388.555 210.172 388.555 209.86C388.555 209.34 388.773 208.901 389.211 208.542C389.652 208.182 390.215 208.002 390.898 208.002C391.617 208.002 392.199 208.188 392.645 208.559C393.094 208.93 393.318 209.405 393.318 209.983H392.229C392.229 209.686 392.102 209.43 391.848 209.215C391.598 209 391.281 208.893 390.898 208.893C390.504 208.893 390.195 208.979 389.973 209.151C389.75 209.323 389.639 209.547 389.639 209.825C389.639 210.086 389.742 210.284 389.949 210.417C390.156 210.549 390.529 210.676 391.068 210.797C391.611 210.918 392.051 211.063 392.387 211.231C392.723 211.399 392.971 211.602 393.131 211.84C393.295 212.075 393.377 212.362 393.377 212.702C393.377 213.268 393.15 213.723 392.697 214.067C392.244 214.407 391.656 214.577 390.934 214.577C390.426 214.577 389.977 214.487 389.586 214.307C389.195 214.127 388.889 213.877 388.666 213.557C388.447 213.233 388.338 212.883 388.338 212.508H389.422C389.441 212.872 389.586 213.161 389.855 213.375C390.129 213.586 390.488 213.692 390.934 213.692C391.344 213.692 391.672 213.61 391.918 213.446C392.168 213.278 392.293 213.055 392.293 212.778ZM397.42 214.577C396.561 214.577 395.861 214.295 395.322 213.733C394.783 213.167 394.514 212.411 394.514 211.465V211.266C394.514 210.637 394.633 210.077 394.871 209.584C395.113 209.088 395.449 208.702 395.879 208.424C396.312 208.143 396.781 208.002 397.285 208.002C398.109 208.002 398.75 208.274 399.207 208.817C399.664 209.36 399.893 210.137 399.893 211.149V211.6H395.598C395.613 212.225 395.795 212.731 396.143 213.118C396.494 213.5 396.939 213.692 397.479 213.692C397.861 213.692 398.186 213.614 398.451 213.458C398.717 213.301 398.949 213.094 399.148 212.836L399.811 213.352C399.279 214.168 398.482 214.577 397.42 214.577ZM397.285 208.893C396.848 208.893 396.48 209.053 396.184 209.374C395.887 209.69 395.703 210.135 395.633 210.709H398.809V210.627C398.777 210.077 398.629 209.651 398.363 209.35C398.098 209.045 397.738 208.893 397.285 208.893ZM404.217 209.092C404.053 209.065 403.875 209.051 403.684 209.051C402.973 209.051 402.49 209.354 402.236 209.959V214.459H401.152V208.12H402.207L402.225 208.852C402.58 208.286 403.084 208.002 403.736 208.002C403.947 208.002 404.107 208.03 404.217 208.084V209.092ZM412.156 206.379C411.672 206.301 411.281 206.262 410.984 206.262C410.203 206.262 409.812 206.672 409.812 207.493V208.12H411.166V208.958H409.812V214.459H408.729V208.958H407.727V208.12H408.729V207.428C408.732 206.752 408.922 206.235 409.297 205.875C409.672 205.516 410.205 205.336 410.896 205.336C411.291 205.336 412.072 205.456 413.24 205.694V214.459H412.156V206.379ZM414.729 211.231C414.729 210.61 414.85 210.051 415.092 209.555C415.338 209.059 415.678 208.676 416.111 208.407C416.549 208.137 417.047 208.002 417.605 208.002C418.469 208.002 419.166 208.301 419.697 208.899C420.232 209.497 420.5 210.292 420.5 211.284V211.36C420.5 211.977 420.381 212.532 420.143 213.024C419.908 213.512 419.57 213.893 419.129 214.167C418.691 214.44 418.188 214.577 417.617 214.577C416.758 214.577 416.061 214.278 415.525 213.68C414.994 213.083 414.729 212.292 414.729 211.307V211.231ZM415.818 211.36C415.818 212.063 415.98 212.627 416.305 213.053C416.633 213.479 417.07 213.692 417.617 213.692C418.168 213.692 418.605 213.477 418.93 213.047C419.254 212.614 419.416 212.008 419.416 211.231C419.416 210.536 419.25 209.973 418.918 209.543C418.59 209.11 418.152 208.893 417.605 208.893C417.07 208.893 416.639 209.106 416.311 209.532C415.982 209.958 415.818 210.567 415.818 211.36ZM427.473 212.965L428.691 208.12H429.775L427.93 214.459H427.051L425.51 209.655L424.01 214.459H423.131L421.291 208.12H422.369L423.617 212.866L425.094 208.12H425.967L427.473 212.965Z" fill="black"/>
<path d="M407.839 173.85H396V176.192H407.839V179.705L411.772 175.021L407.839 170.338V173.85Z" fill="#657B83"/>
<path d="M457 102.751V99.3871C452 99.9332 448 104.64 448 110.309C448 115.977 452 120.684 457 121.23V117.867C454 117.342 451 114.153 451 110.309C451 106.464 454 103.275 457 102.751V102.751ZM464.97 109.217H468C467.53 103.756 464 99.9004 459 99.3871V102.751C462 103.221 464.54 105.94 464.97 109.217ZM459 117.867V121.23C464 120.717 467.53 116.862 468 111.401H464.97C464.54 114.677 462 117.397 459 117.867Z" fill="#657B83"/>
</svg>
