<svg width="793" height="123" viewBox="0 0 793 123" fill="none" xmlns="http://www.w3.org/2000/svg">
<path d="M7.55273 88.0098C7.55273 88.8457 7.41211 89.5762 7.13086 90.2012C6.84961 90.8223 6.45117 91.2969 5.93555 91.625C5.41992 91.9531 4.81836 92.1172 4.13086 92.1172C3.45898 92.1172 2.86328 91.9531 2.34375 91.625C1.82422 91.293 1.41992 90.8223 1.13086 90.2129C0.845703 89.5996 0.699219 88.8906 0.691406 88.0859V87.4707C0.691406 86.6504 0.833984 85.9258 1.11914 85.2969C1.4043 84.668 1.80664 84.1875 2.32617 83.8555C2.84961 83.5195 3.44727 83.3516 4.11914 83.3516C4.80273 83.3516 5.4043 83.5176 5.92383 83.8496C6.44727 84.1777 6.84961 84.6562 7.13086 85.2852C7.41211 85.9102 7.55273 86.6387 7.55273 87.4707V88.0098ZM6.43359 87.459C6.43359 86.4473 6.23047 85.6719 5.82422 85.1328C5.41797 84.5898 4.84961 84.3184 4.11914 84.3184C3.4082 84.3184 2.84766 84.5898 2.4375 85.1328C2.03125 85.6719 1.82227 86.4219 1.81055 87.3828V88.0098C1.81055 88.9902 2.01562 89.7617 2.42578 90.3242C2.83984 90.8828 3.4082 91.1621 4.13086 91.1621C4.85742 91.1621 5.41992 90.8984 5.81836 90.3711C6.2168 89.8398 6.42188 89.0801 6.43359 88.0918V87.459ZM14.4375 88.9004C14.4375 89.8691 14.2148 90.6484 13.7695 91.2383C13.3242 91.8242 12.7266 92.1172 11.9766 92.1172C11.1758 92.1172 10.5566 91.834 10.1191 91.2676L10.0664 92H9.07031V83H10.1543V86.3574C10.5918 85.8145 11.1953 85.543 11.9648 85.543C12.7344 85.543 13.3379 85.834 13.7754 86.416C14.2168 86.998 14.4375 87.7949 14.4375 88.8066V88.9004ZM13.3535 88.7773C13.3535 88.0391 13.2109 87.4688 12.9258 87.0664C12.6406 86.6641 12.2305 86.4629 11.6953 86.4629C10.9805 86.4629 10.4668 86.7949 10.1543 87.459V90.2012C10.4863 90.8652 11.0039 91.1973 11.707 91.1973C12.2266 91.1973 12.6309 90.9961 12.9199 90.5938C13.209 90.1914 13.3535 89.5859 13.3535 88.7773ZM19.5 90.3184C19.5 90.0254 19.3887 89.7988 19.166 89.6387C18.9473 89.4746 18.5625 89.334 18.0117 89.2168C17.4648 89.0996 17.0293 88.959 16.7051 88.7949C16.3848 88.6309 16.1465 88.4355 15.9902 88.209C15.8379 87.9824 15.7617 87.7129 15.7617 87.4004C15.7617 86.8809 15.9805 86.4414 16.418 86.082C16.8594 85.7227 17.4219 85.543 18.1055 85.543C18.8242 85.543 19.4062 85.7285 19.8516 86.0996C20.3008 86.4707 20.5254 86.9453 20.5254 87.5234H19.4355C19.4355 87.2266 19.3086 86.9707 19.0547 86.7559C18.8047 86.541 18.4883 86.4336 18.1055 86.4336C17.7109 86.4336 17.4023 86.5195 17.1797 86.6914C16.957 86.8633 16.8457 87.0879 16.8457 87.3652C16.8457 87.627 16.9492 87.8242 17.1562 87.957C17.3633 88.0898 17.7363 88.2168 18.2754 88.3379C18.8184 88.459 19.2578 88.6035 19.5938 88.7715C19.9297 88.9395 20.1777 89.1426 20.3379 89.3809C20.502 89.6152 20.584 89.9023 20.584 90.2422C20.584 90.8086 20.3574 91.2637 19.9043 91.6074C19.4512 91.9473 18.8633 92.1172 18.1406 92.1172C17.6328 92.1172 17.1836 92.0273 16.793 91.8477C16.4023 91.668 16.0957 91.418 15.873 91.0977C15.6543 90.7734 15.5449 90.4238 15.5449 90.0488H16.6289C16.6484 90.4121 16.793 90.7012 17.0625 90.916C17.3359 91.127 17.6953 91.2324 18.1406 91.2324C18.5508 91.2324 18.8789 91.1504 19.125 90.9863C19.375 90.8184 19.5 90.5957 19.5 90.3184ZM24.627 92.1172C23.7676 92.1172 23.0684 91.8359 22.5293 91.2734C21.9902 90.707 21.7207 89.9512 21.7207 89.0059V88.8066C21.7207 88.1777 21.8398 87.6172 22.0781 87.125C22.3203 86.6289 22.6562 86.2422 23.0859 85.9648C23.5195 85.6836 23.9883 85.543 24.4922 85.543C25.3164 85.543 25.957 85.8145 26.4141 86.3574C26.8711 86.9004 27.0996 87.6777 27.0996 88.6895V89.1406H22.8047C22.8203 89.7656 23.002 90.2715 23.3496 90.6582C23.7012 91.041 24.1465 91.2324 24.6855 91.2324C25.0684 91.2324 25.3926 91.1543 25.6582 90.998C25.9238 90.8418 26.1562 90.6348 26.3555 90.377L27.0176 90.8926C26.4863 91.709 25.6895 92.1172 24.627 92.1172ZM24.4922 86.4336C24.0547 86.4336 23.6875 86.5938 23.3906 86.9141C23.0938 87.2305 22.9102 87.6758 22.8398 88.25H26.0156V88.168C25.9844 87.6172 25.8359 87.1914 25.5703 86.8906C25.3047 86.5859 24.9453 86.4336 24.4922 86.4336ZM31.4238 86.6328C31.2598 86.6055 31.082 86.5918 30.8906 86.5918C30.1797 86.5918 29.6973 86.8945 29.4434 87.5V92H28.3594V85.6602H29.4141L29.4316 86.3926C29.7871 85.8262 30.291 85.543 30.9434 85.543C31.1543 85.543 31.3145 85.5703 31.4238 85.625V86.6328ZM34.623 90.5293L36.1934 85.6602H37.3008L35.0273 92H34.2012L31.9043 85.6602H33.0117L34.623 90.5293ZM42.1641 92C42.1016 91.875 42.0508 91.6523 42.0117 91.332C41.5078 91.8555 40.9062 92.1172 40.207 92.1172C39.582 92.1172 39.0684 91.9414 38.666 91.5898C38.2676 91.2344 38.0684 90.7852 38.0684 90.2422C38.0684 89.582 38.3184 89.0703 38.8184 88.707C39.3223 88.3398 40.0293 88.1562 40.9395 88.1562H41.9941V87.6582C41.9941 87.2793 41.8809 86.9785 41.6543 86.7559C41.4277 86.5293 41.0938 86.416 40.6523 86.416C40.2656 86.416 39.9414 86.5137 39.6797 86.709C39.418 86.9043 39.2871 87.1406 39.2871 87.418H38.1973C38.1973 87.1016 38.3086 86.7969 38.5312 86.5039C38.7578 86.207 39.0625 85.9727 39.4453 85.8008C39.832 85.6289 40.2559 85.543 40.7168 85.543C41.4473 85.543 42.0195 85.7266 42.4336 86.0938C42.8477 86.457 43.0625 86.959 43.0781 87.5996V90.5176C43.0781 91.0996 43.1523 91.5625 43.3008 91.9062V92H42.1641ZM40.3652 91.1738C40.7051 91.1738 41.0273 91.0859 41.332 90.9102C41.6367 90.7344 41.8574 90.5059 41.9941 90.2246V88.9238H41.1445C39.8164 88.9238 39.1523 89.3125 39.1523 90.0898C39.1523 90.4297 39.2656 90.6953 39.4922 90.8867C39.7188 91.0781 40.0098 91.1738 40.3652 91.1738ZM46.248 84.125V85.6602H47.4316V86.498H46.248V90.4297C46.248 90.6836 46.3008 90.875 46.4062 91.0039C46.5117 91.1289 46.6914 91.1914 46.9453 91.1914C47.0703 91.1914 47.2422 91.168 47.4609 91.1211V92C47.1758 92.0781 46.8984 92.1172 46.6289 92.1172C46.1445 92.1172 45.7793 91.9707 45.5332 91.6777C45.2871 91.3848 45.1641 90.9688 45.1641 90.4297V86.498H44.0098V85.6602H45.1641V84.125H46.248ZM49.8809 92H48.7969V85.6602H49.8809V92ZM48.709 83.9785C48.709 83.8027 48.7617 83.6543 48.8672 83.5332C48.9766 83.4121 49.1367 83.3516 49.3477 83.3516C49.5586 83.3516 49.7188 83.4121 49.8281 83.5332C49.9375 83.6543 49.9922 83.8027 49.9922 83.9785C49.9922 84.1543 49.9375 84.3008 49.8281 84.418C49.7188 84.5352 49.5586 84.5938 49.3477 84.5938C49.1367 84.5938 48.9766 84.5352 48.8672 84.418C48.7617 84.3008 48.709 84.1543 48.709 83.9785ZM51.334 88.7715C51.334 88.1504 51.4551 87.5918 51.6973 87.0957C51.9434 86.5996 52.2832 86.2168 52.7168 85.9473C53.1543 85.6777 53.6523 85.543 54.2109 85.543C55.0742 85.543 55.7715 85.8418 56.3027 86.4395C56.8379 87.0371 57.1055 87.832 57.1055 88.8242V88.9004C57.1055 89.5176 56.9863 90.0723 56.748 90.5645C56.5137 91.0527 56.1758 91.4336 55.7344 91.707C55.2969 91.9805 54.793 92.1172 54.2227 92.1172C53.3633 92.1172 52.666 91.8184 52.1309 91.2207C51.5996 90.623 51.334 89.832 51.334 88.8477V88.7715ZM52.4238 88.9004C52.4238 89.6035 52.5859 90.168 52.9102 90.5938C53.2383 91.0195 53.6758 91.2324 54.2227 91.2324C54.7734 91.2324 55.2109 91.0176 55.5352 90.5879C55.8594 90.1543 56.0215 89.5488 56.0215 88.7715C56.0215 88.0762 55.8555 87.5137 55.5234 87.084C55.1953 86.6504 54.7578 86.4336 54.2109 86.4336C53.6758 86.4336 53.2441 86.6465 52.916 87.0723C52.5879 87.498 52.4238 88.1074 52.4238 88.9004ZM59.4902 85.6602L59.5254 86.457C60.0098 85.8477 60.6426 85.543 61.4238 85.543C62.7637 85.543 63.4395 86.2988 63.4512 87.8105V92H62.3672V87.8047C62.3633 87.3477 62.2578 87.0098 62.0508 86.791C61.8477 86.5723 61.5293 86.4629 61.0957 86.4629C60.7441 86.4629 60.4355 86.5566 60.1699 86.7441C59.9043 86.9316 59.6973 87.1777 59.5488 87.4824V92H58.4648V85.6602H59.4902Z" fill="black"/>
<path d="M92.5039 89.1973C91.5391 88.9199 90.8359 88.5801 90.3945 88.1777C89.957 87.7715 89.7383 87.2715 89.7383 86.6777C89.7383 86.0059 90.0059 85.4512 90.541 85.0137C91.0801 84.5723 91.7793 84.3516 92.6387 84.3516C93.2246 84.3516 93.7461 84.4648 94.2031 84.6914C94.6641 84.918 95.0195 85.2305 95.2695 85.6289C95.5234 86.0273 95.6504 86.4629 95.6504 86.9355H94.5195C94.5195 86.4199 94.3555 86.0156 94.0273 85.7227C93.6992 85.4258 93.2363 85.2773 92.6387 85.2773C92.084 85.2773 91.6504 85.4004 91.3379 85.6465C91.0293 85.8887 90.875 86.2266 90.875 86.6602C90.875 87.0078 91.0215 87.3027 91.3145 87.5449C91.6113 87.7832 92.1133 88.002 92.8203 88.2012C93.5312 88.4004 94.0859 88.6211 94.4844 88.8633C94.8867 89.1016 95.1836 89.3809 95.375 89.7012C95.5703 90.0215 95.668 90.3984 95.668 90.832C95.668 91.5234 95.3984 92.0781 94.8594 92.4961C94.3203 92.9102 93.5996 93.1172 92.6973 93.1172C92.1113 93.1172 91.5645 93.0059 91.0566 92.7832C90.5488 92.5566 90.1562 92.248 89.8789 91.8574C89.6055 91.4668 89.4688 91.0234 89.4688 90.5273H90.5996C90.5996 91.043 90.7891 91.4512 91.168 91.752C91.5508 92.0488 92.0605 92.1973 92.6973 92.1973C93.291 92.1973 93.7461 92.0762 94.0625 91.834C94.3789 91.5918 94.5371 91.2617 94.5371 90.8438C94.5371 90.4258 94.3906 90.1035 94.0977 89.877C93.8047 89.6465 93.2734 89.4199 92.5039 89.1973ZM100.859 92.373C100.438 92.8691 99.8184 93.1172 99.002 93.1172C98.3262 93.1172 97.8105 92.9219 97.4551 92.5312C97.1035 92.1367 96.9258 91.5547 96.9219 90.7852V86.6602H98.0059V90.7559C98.0059 91.7168 98.3965 92.1973 99.1777 92.1973C100.006 92.1973 100.557 91.8887 100.83 91.2715V86.6602H101.914V93H100.883L100.859 92.373ZM106.631 87.6328C106.467 87.6055 106.289 87.5918 106.098 87.5918C105.387 87.5918 104.904 87.8945 104.65 88.5V93H103.566V86.6602H104.621L104.639 87.3926C104.994 86.8262 105.498 86.543 106.15 86.543C106.361 86.543 106.521 86.5703 106.631 86.625V87.6328ZM109.83 91.5293L111.4 86.6602H112.508L110.234 93H109.408L107.111 86.6602H108.219L109.83 91.5293ZM116.1 93.1172C115.24 93.1172 114.541 92.8359 114.002 92.2734C113.463 91.707 113.193 90.9512 113.193 90.0059V89.8066C113.193 89.1777 113.312 88.6172 113.551 88.125C113.793 87.6289 114.129 87.2422 114.559 86.9648C114.992 86.6836 115.461 86.543 115.965 86.543C116.789 86.543 117.43 86.8145 117.887 87.3574C118.344 87.9004 118.572 88.6777 118.572 89.6895V90.1406H114.277C114.293 90.7656 114.475 91.2715 114.822 91.6582C115.174 92.041 115.619 92.2324 116.158 92.2324C116.541 92.2324 116.865 92.1543 117.131 91.998C117.396 91.8418 117.629 91.6348 117.828 91.377L118.49 91.8926C117.959 92.709 117.162 93.1172 116.1 93.1172ZM115.965 87.4336C115.527 87.4336 115.16 87.5938 114.863 87.9141C114.566 88.2305 114.383 88.6758 114.312 89.25H117.488V89.168C117.457 88.6172 117.309 88.1914 117.043 87.8906C116.777 87.5859 116.418 87.4336 115.965 87.4336ZM121.824 91.4121L123.301 86.6602H124.461L121.912 93.9785C121.518 95.0332 120.891 95.5605 120.031 95.5605L119.826 95.543L119.422 95.4668V94.5879L119.715 94.6113C120.082 94.6113 120.367 94.5371 120.57 94.3887C120.777 94.2402 120.947 93.9688 121.08 93.5742L121.32 92.9297L119.059 86.6602H120.242L121.824 91.4121Z" fill="black"/>
<path d="M58.9395 9.49316V13H56.8887V3.04688H60.7715C61.5189 3.04688 62.1751 3.18359 62.7402 3.45703C63.3099 3.73047 63.7474 4.12012 64.0527 4.62598C64.3581 5.12728 64.5107 5.69922 64.5107 6.3418C64.5107 7.31706 64.1758 8.08724 63.5059 8.65234C62.8405 9.21289 61.9176 9.49316 60.7373 9.49316H58.9395ZM58.9395 7.83203H60.7715C61.3138 7.83203 61.7262 7.70443 62.0088 7.44922C62.2959 7.19401 62.4395 6.82943 62.4395 6.35547C62.4395 5.86784 62.2959 5.47363 62.0088 5.17285C61.7217 4.87207 61.3252 4.71712 60.8193 4.70801H58.9395V7.83203ZM69.9521 7.45605C69.6833 7.4196 69.4463 7.40137 69.2412 7.40137C68.4938 7.40137 68.0039 7.6543 67.7715 8.16016V13H65.7959V5.60352H67.6621L67.7168 6.48535C68.1133 5.80632 68.6624 5.4668 69.3643 5.4668C69.583 5.4668 69.7881 5.49642 69.9795 5.55566L69.9521 7.45605ZM70.3555 9.2334C70.3555 8.49967 70.4967 7.8457 70.7793 7.27148C71.0618 6.69727 71.4674 6.25293 71.9961 5.93848C72.5293 5.62402 73.1468 5.4668 73.8486 5.4668C74.8467 5.4668 75.6602 5.77214 76.2891 6.38281C76.9225 6.99349 77.2757 7.82292 77.3486 8.87109L77.3623 9.37695C77.3623 10.5117 77.0456 11.4232 76.4121 12.1113C75.7786 12.7949 74.9287 13.1367 73.8623 13.1367C72.7959 13.1367 71.9437 12.7949 71.3057 12.1113C70.6722 11.4277 70.3555 10.498 70.3555 9.32227V9.2334ZM72.3311 9.37695C72.3311 10.0788 72.4632 10.6165 72.7275 10.9902C72.9919 11.3594 73.3701 11.5439 73.8623 11.5439C74.3408 11.5439 74.7145 11.3617 74.9834 10.9971C75.2523 10.6279 75.3867 10.04 75.3867 9.2334C75.3867 8.54525 75.2523 8.01204 74.9834 7.63379C74.7145 7.25553 74.3363 7.06641 73.8486 7.06641C73.3656 7.06641 72.9919 7.25553 72.7275 7.63379C72.4632 8.00749 72.3311 8.58854 72.3311 9.37695ZM85.2441 9.37012C85.2441 10.555 84.9912 11.4801 84.4854 12.1455C83.9795 12.8063 83.2731 13.1367 82.3662 13.1367C81.5641 13.1367 80.9238 12.8291 80.4453 12.2139L80.3564 13H78.5791V2.5H80.5547V6.2666C81.0104 5.7334 81.6097 5.4668 82.3525 5.4668C83.2549 5.4668 83.9613 5.79948 84.4717 6.46484C84.9867 7.12565 85.2441 8.05762 85.2441 9.26074V9.37012ZM83.2686 9.22656C83.2686 8.47917 83.1501 7.93457 82.9131 7.59277C82.6761 7.24642 82.3229 7.07324 81.8535 7.07324C81.2246 7.07324 80.7917 7.33073 80.5547 7.8457V10.7646C80.7962 11.2842 81.2337 11.5439 81.8672 11.5439C82.5052 11.5439 82.9245 11.2295 83.125 10.6006C83.2207 10.2998 83.2686 9.8418 83.2686 9.22656ZM88.5527 13H86.5703V2.5H88.5527V13ZM93.5908 13.1367C92.5062 13.1367 91.6221 12.804 90.9385 12.1387C90.2594 11.4733 89.9199 10.5869 89.9199 9.47949V9.28809C89.9199 8.54525 90.0635 7.88216 90.3506 7.29883C90.6377 6.71094 91.0433 6.25977 91.5674 5.94531C92.096 5.6263 92.6976 5.4668 93.3721 5.4668C94.3838 5.4668 95.179 5.78581 95.7578 6.42383C96.3411 7.06185 96.6328 7.96647 96.6328 9.1377V9.94434H91.9229C91.9867 10.4274 92.1781 10.8148 92.4971 11.1064C92.8206 11.3981 93.2285 11.5439 93.7207 11.5439C94.4818 11.5439 95.0765 11.2682 95.5049 10.7168L96.4756 11.8037C96.1794 12.223 95.7783 12.5511 95.2725 12.7881C94.7666 13.0205 94.2061 13.1367 93.5908 13.1367ZM93.3652 7.06641C92.9733 7.06641 92.6543 7.19857 92.4082 7.46289C92.1667 7.72721 92.0117 8.10547 91.9434 8.59766H94.6914V8.44043C94.6823 8.00293 94.5638 7.66569 94.3359 7.42871C94.1081 7.18717 93.7845 7.06641 93.3652 7.06641ZM99.6133 5.60352L99.6748 6.43066C100.199 5.78809 100.908 5.4668 101.801 5.4668C102.753 5.4668 103.407 5.84277 103.763 6.59473C104.282 5.84277 105.023 5.4668 105.984 5.4668C106.786 5.4668 107.383 5.7015 107.775 6.1709C108.167 6.63574 108.363 7.33757 108.363 8.27637V13H106.381V8.2832C106.381 7.86393 106.299 7.55859 106.135 7.36719C105.971 7.17122 105.681 7.07324 105.267 7.07324C104.674 7.07324 104.264 7.35579 104.036 7.9209L104.043 13H102.067V8.29004C102.067 7.86165 101.983 7.55176 101.814 7.36035C101.646 7.16895 101.359 7.07324 100.953 7.07324C100.393 7.07324 99.987 7.30566 99.7363 7.77051V13H97.7607V5.60352H99.6133ZM118.665 10.3887C118.665 10.0013 118.528 9.70508 118.255 9.5C117.981 9.29036 117.489 9.07161 116.778 8.84375C116.067 8.61133 115.505 8.38346 115.09 8.16016C113.96 7.54948 113.395 6.72689 113.395 5.69238C113.395 5.15462 113.545 4.67611 113.846 4.25684C114.151 3.83301 114.586 3.5026 115.151 3.26562C115.721 3.02865 116.359 2.91016 117.065 2.91016C117.776 2.91016 118.41 3.04004 118.966 3.2998C119.522 3.55501 119.952 3.91732 120.258 4.38672C120.568 4.85612 120.723 5.38932 120.723 5.98633H118.672C118.672 5.5306 118.528 5.17741 118.241 4.92676C117.954 4.67155 117.551 4.54395 117.031 4.54395C116.53 4.54395 116.14 4.65104 115.862 4.86523C115.584 5.07487 115.445 5.35286 115.445 5.69922C115.445 6.02279 115.607 6.29395 115.931 6.5127C116.259 6.73145 116.74 6.93652 117.373 7.12793C118.54 7.47884 119.39 7.91406 119.923 8.43359C120.456 8.95312 120.723 9.60026 120.723 10.375C120.723 11.2363 120.397 11.9131 119.745 12.4053C119.093 12.8929 118.216 13.1367 117.113 13.1367C116.348 13.1367 115.65 12.9977 115.021 12.7197C114.393 12.4372 113.912 12.0521 113.579 11.5645C113.251 11.0768 113.087 10.5117 113.087 9.86914H115.145C115.145 10.9674 115.801 11.5166 117.113 11.5166C117.601 11.5166 117.981 11.4186 118.255 11.2227C118.528 11.0221 118.665 10.7441 118.665 10.3887ZM125.063 11.5439C125.428 11.5439 125.724 11.4437 125.952 11.2432C126.18 11.0426 126.299 10.776 126.308 10.4434H128.16C128.156 10.9447 128.019 11.4049 127.75 11.8242C127.481 12.2389 127.112 12.5625 126.643 12.7949C126.178 13.0228 125.663 13.1367 125.098 13.1367C124.04 13.1367 123.206 12.8018 122.596 12.1318C121.985 11.4574 121.68 10.5277 121.68 9.34277V9.21289C121.68 8.07357 121.983 7.16439 122.589 6.48535C123.195 5.80632 124.027 5.4668 125.084 5.4668C126.009 5.4668 126.75 5.73112 127.306 6.25977C127.866 6.78385 128.151 7.4834 128.16 8.3584H126.308C126.299 7.97559 126.18 7.66569 125.952 7.42871C125.724 7.18717 125.424 7.06641 125.05 7.06641C124.59 7.06641 124.241 7.23503 124.004 7.57227C123.771 7.90495 123.655 8.44727 123.655 9.19922V9.4043C123.655 10.1654 123.771 10.7122 124.004 11.0449C124.236 11.3776 124.59 11.5439 125.063 11.5439ZM128.98 9.2334C128.98 8.49967 129.122 7.8457 129.404 7.27148C129.687 6.69727 130.092 6.25293 130.621 5.93848C131.154 5.62402 131.772 5.4668 132.474 5.4668C133.472 5.4668 134.285 5.77214 134.914 6.38281C135.548 6.99349 135.901 7.82292 135.974 8.87109L135.987 9.37695C135.987 10.5117 135.671 11.4232 135.037 12.1113C134.404 12.7949 133.554 13.1367 132.487 13.1367C131.421 13.1367 130.569 12.7949 129.931 12.1113C129.297 11.4277 128.98 10.498 128.98 9.32227V9.2334ZM130.956 9.37695C130.956 10.0788 131.088 10.6165 131.353 10.9902C131.617 11.3594 131.995 11.5439 132.487 11.5439C132.966 11.5439 133.34 11.3617 133.608 10.9971C133.877 10.6279 134.012 10.04 134.012 9.2334C134.012 8.54525 133.877 8.01204 133.608 7.63379C133.34 7.25553 132.961 7.06641 132.474 7.06641C131.991 7.06641 131.617 7.25553 131.353 7.63379C131.088 8.00749 130.956 8.58854 130.956 9.37695ZM143.862 9.37012C143.862 10.5094 143.603 11.4232 143.083 12.1113C142.568 12.7949 141.871 13.1367 140.991 13.1367C140.244 13.1367 139.64 12.877 139.18 12.3574V15.8438H137.204V5.60352H139.036L139.104 6.32812C139.583 5.75391 140.207 5.4668 140.978 5.4668C141.889 5.4668 142.598 5.80404 143.104 6.47852C143.609 7.15299 143.862 8.08268 143.862 9.26758V9.37012ZM141.887 9.22656C141.887 8.53841 141.764 8.00749 141.518 7.63379C141.276 7.26009 140.923 7.07324 140.458 7.07324C139.838 7.07324 139.412 7.31022 139.18 7.78418V10.8125C139.421 11.3001 139.852 11.5439 140.472 11.5439C141.415 11.5439 141.887 10.7715 141.887 9.22656ZM147.178 13H145.195V5.60352H147.178V13ZM145.079 3.68945C145.079 3.39323 145.177 3.14941 145.373 2.95801C145.574 2.7666 145.845 2.6709 146.187 2.6709C146.524 2.6709 146.793 2.7666 146.993 2.95801C147.194 3.14941 147.294 3.39323 147.294 3.68945C147.294 3.99023 147.191 4.23633 146.986 4.42773C146.786 4.61914 146.519 4.71484 146.187 4.71484C145.854 4.71484 145.585 4.61914 145.38 4.42773C145.179 4.23633 145.079 3.99023 145.079 3.68945ZM150.63 5.60352L150.691 6.45801C151.22 5.7972 151.929 5.4668 152.817 5.4668C153.601 5.4668 154.185 5.69694 154.567 6.15723C154.95 6.61751 155.146 7.30566 155.155 8.22168V13H153.18V8.26953C153.18 7.85026 153.089 7.5472 152.906 7.36035C152.724 7.16895 152.421 7.07324 151.997 7.07324C151.441 7.07324 151.024 7.31022 150.746 7.78418V13H148.771V5.60352H150.63ZM156.372 9.24707C156.372 8.1123 156.641 7.19857 157.179 6.50586C157.721 5.81315 158.45 5.4668 159.366 5.4668C160.177 5.4668 160.809 5.74479 161.26 6.30078L161.342 5.60352H163.133V12.7539C163.133 13.401 162.985 13.9639 162.688 14.4424C162.397 14.9209 161.984 15.2855 161.451 15.5361C160.918 15.7868 160.294 15.9121 159.578 15.9121C159.036 15.9121 158.507 15.8027 157.992 15.584C157.477 15.3698 157.088 15.0918 156.823 14.75L157.698 13.5469C158.19 14.0983 158.787 14.374 159.489 14.374C160.013 14.374 160.421 14.2327 160.713 13.9502C161.005 13.6722 161.15 13.2757 161.15 12.7607V12.3643C160.695 12.8792 160.095 13.1367 159.353 13.1367C158.464 13.1367 157.744 12.7904 157.192 12.0977C156.646 11.4004 156.372 10.4775 156.372 9.3291V9.24707ZM158.348 9.39062C158.348 10.0605 158.482 10.5869 158.751 10.9697C159.02 11.348 159.389 11.5371 159.858 11.5371C160.46 11.5371 160.891 11.3115 161.15 10.8604V7.75C160.886 7.29883 160.46 7.07324 159.872 7.07324C159.398 7.07324 159.024 7.26693 158.751 7.6543C158.482 8.04167 158.348 8.62044 158.348 9.39062Z" fill="#657B83"/>
<path d="M363.889 13V3.04688H366.951C367.826 3.04688 368.608 3.24512 369.296 3.6416C369.989 4.03353 370.529 4.59408 370.916 5.32324C371.303 6.04785 371.497 6.87272 371.497 7.79785V8.25586C371.497 9.18099 371.306 10.0036 370.923 10.7236C370.545 11.4437 370.009 12.002 369.316 12.3984C368.624 12.7949 367.842 12.9954 366.972 13H363.889ZM365.939 4.70801V11.3525H366.931C367.733 11.3525 368.346 11.0905 368.77 10.5664C369.193 10.0423 369.41 9.29264 369.419 8.31738V7.79102C369.419 6.7793 369.209 6.01367 368.79 5.49414C368.371 4.97005 367.758 4.70801 366.951 4.70801H365.939ZM376.269 13.1367C375.184 13.1367 374.3 12.804 373.616 12.1387C372.937 11.4733 372.598 10.5869 372.598 9.47949V9.28809C372.598 8.54525 372.741 7.88216 373.028 7.29883C373.315 6.71094 373.721 6.25977 374.245 5.94531C374.774 5.6263 375.375 5.4668 376.05 5.4668C377.062 5.4668 377.857 5.78581 378.436 6.42383C379.019 7.06185 379.311 7.96647 379.311 9.1377V9.94434H374.601C374.664 10.4274 374.856 10.8148 375.175 11.1064C375.498 11.3981 375.906 11.5439 376.398 11.5439C377.16 11.5439 377.754 11.2682 378.183 10.7168L379.153 11.8037C378.857 12.223 378.456 12.5511 377.95 12.7881C377.444 13.0205 376.884 13.1367 376.269 13.1367ZM376.043 7.06641C375.651 7.06641 375.332 7.19857 375.086 7.46289C374.844 7.72721 374.689 8.10547 374.621 8.59766H377.369V8.44043C377.36 8.00293 377.242 7.66569 377.014 7.42871C376.786 7.18717 376.462 7.06641 376.043 7.06641ZM384.444 10.9561C384.444 10.7145 384.324 10.5254 384.082 10.3887C383.845 10.2474 383.462 10.1221 382.934 10.0127C381.174 9.64355 380.295 8.89616 380.295 7.77051C380.295 7.11426 380.566 6.56738 381.108 6.12988C381.655 5.68783 382.368 5.4668 383.248 5.4668C384.187 5.4668 384.937 5.68783 385.497 6.12988C386.062 6.57194 386.345 7.14616 386.345 7.85254H384.369C384.369 7.56999 384.278 7.33757 384.096 7.15527C383.913 6.96842 383.629 6.875 383.241 6.875C382.909 6.875 382.651 6.9502 382.469 7.10059C382.286 7.25098 382.195 7.44238 382.195 7.6748C382.195 7.89355 382.298 8.07129 382.503 8.20801C382.713 8.34017 383.063 8.45638 383.556 8.55664C384.048 8.65234 384.463 8.76172 384.8 8.88477C385.843 9.26758 386.365 9.93066 386.365 10.874C386.365 11.5485 386.076 12.0954 385.497 12.5146C384.918 12.9294 384.171 13.1367 383.255 13.1367C382.635 13.1367 382.084 13.0273 381.601 12.8086C381.122 12.5853 380.746 12.2822 380.473 11.8994C380.199 11.512 380.062 11.0951 380.062 10.6484H381.936C381.954 10.9993 382.084 11.2682 382.325 11.4551C382.567 11.6419 382.89 11.7354 383.296 11.7354C383.674 11.7354 383.959 11.6647 384.15 11.5234C384.346 11.3776 384.444 11.1885 384.444 10.9561ZM389.729 13H387.746V5.60352H389.729V13ZM387.63 3.68945C387.63 3.39323 387.728 3.14941 387.924 2.95801C388.124 2.7666 388.396 2.6709 388.737 2.6709C389.075 2.6709 389.343 2.7666 389.544 2.95801C389.744 3.14941 389.845 3.39323 389.845 3.68945C389.845 3.99023 389.742 4.23633 389.537 4.42773C389.337 4.61914 389.07 4.71484 388.737 4.71484C388.405 4.71484 388.136 4.61914 387.931 4.42773C387.73 4.23633 387.63 3.99023 387.63 3.68945ZM391.075 9.24707C391.075 8.1123 391.344 7.19857 391.882 6.50586C392.424 5.81315 393.153 5.4668 394.069 5.4668C394.881 5.4668 395.512 5.74479 395.963 6.30078L396.045 5.60352H397.836V12.7539C397.836 13.401 397.688 13.9639 397.392 14.4424C397.1 14.9209 396.688 15.2855 396.154 15.5361C395.621 15.7868 394.997 15.9121 394.281 15.9121C393.739 15.9121 393.21 15.8027 392.695 15.584C392.18 15.3698 391.791 15.0918 391.526 14.75L392.401 13.5469C392.894 14.0983 393.491 14.374 394.192 14.374C394.716 14.374 395.124 14.2327 395.416 13.9502C395.708 13.6722 395.854 13.2757 395.854 12.7607V12.3643C395.398 12.8792 394.799 13.1367 394.056 13.1367C393.167 13.1367 392.447 12.7904 391.896 12.0977C391.349 11.4004 391.075 10.4775 391.075 9.3291V9.24707ZM393.051 9.39062C393.051 10.0605 393.185 10.5869 393.454 10.9697C393.723 11.348 394.092 11.5371 394.562 11.5371C395.163 11.5371 395.594 11.3115 395.854 10.8604V7.75C395.589 7.29883 395.163 7.07324 394.575 7.07324C394.101 7.07324 393.728 7.26693 393.454 7.6543C393.185 8.04167 393.051 8.62044 393.051 9.39062ZM401.179 5.60352L401.24 6.45801C401.769 5.7972 402.478 5.4668 403.366 5.4668C404.15 5.4668 404.733 5.69694 405.116 6.15723C405.499 6.61751 405.695 7.30566 405.704 8.22168V13H403.729V8.26953C403.729 7.85026 403.637 7.5472 403.455 7.36035C403.273 7.16895 402.97 7.07324 402.546 7.07324C401.99 7.07324 401.573 7.31022 401.295 7.78418V13H399.319V5.60352H401.179ZM409.293 13H407.311V5.60352H409.293V13ZM407.194 3.68945C407.194 3.39323 407.292 3.14941 407.488 2.95801C407.689 2.7666 407.96 2.6709 408.302 2.6709C408.639 2.6709 408.908 2.7666 409.108 2.95801C409.309 3.14941 409.409 3.39323 409.409 3.68945C409.409 3.99023 409.307 4.23633 409.102 4.42773C408.901 4.61914 408.634 4.71484 408.302 4.71484C407.969 4.71484 407.7 4.61914 407.495 4.42773C407.295 4.23633 407.194 3.99023 407.194 3.68945ZM412.745 5.60352L412.807 6.45801C413.335 5.7972 414.044 5.4668 414.933 5.4668C415.716 5.4668 416.3 5.69694 416.683 6.15723C417.065 6.61751 417.261 7.30566 417.271 8.22168V13H415.295V8.26953C415.295 7.85026 415.204 7.5472 415.021 7.36035C414.839 7.16895 414.536 7.07324 414.112 7.07324C413.556 7.07324 413.139 7.31022 412.861 7.78418V13H410.886V5.60352H412.745ZM418.487 9.24707C418.487 8.1123 418.756 7.19857 419.294 6.50586C419.836 5.81315 420.565 5.4668 421.481 5.4668C422.293 5.4668 422.924 5.74479 423.375 6.30078L423.457 5.60352H425.248V12.7539C425.248 13.401 425.1 13.9639 424.804 14.4424C424.512 14.9209 424.1 15.2855 423.566 15.5361C423.033 15.7868 422.409 15.9121 421.693 15.9121C421.151 15.9121 420.622 15.8027 420.107 15.584C419.592 15.3698 419.203 15.0918 418.938 14.75L419.813 13.5469C420.306 14.0983 420.903 14.374 421.604 14.374C422.129 14.374 422.536 14.2327 422.828 13.9502C423.12 13.6722 423.266 13.2757 423.266 12.7607V12.3643C422.81 12.8792 422.211 13.1367 421.468 13.1367C420.579 13.1367 419.859 12.7904 419.308 12.0977C418.761 11.4004 418.487 10.4775 418.487 9.3291V9.24707ZM420.463 9.39062C420.463 10.0605 420.597 10.5869 420.866 10.9697C421.135 11.348 421.504 11.5371 421.974 11.5371C422.575 11.5371 423.006 11.3115 423.266 10.8604V7.75C423.001 7.29883 422.575 7.07324 421.987 7.07324C421.513 7.07324 421.14 7.26693 420.866 7.6543C420.597 8.04167 420.463 8.62044 420.463 9.39062Z" fill="#657B83"/>
<path d="M635.939 9.49316V13H633.889V3.04688H637.771C638.519 3.04688 639.175 3.18359 639.74 3.45703C640.31 3.73047 640.747 4.12012 641.053 4.62598C641.358 5.12728 641.511 5.69922 641.511 6.3418C641.511 7.31706 641.176 8.08724 640.506 8.65234C639.84 9.21289 638.918 9.49316 637.737 9.49316H635.939ZM635.939 7.83203H637.771C638.314 7.83203 638.726 7.70443 639.009 7.44922C639.296 7.19401 639.439 6.82943 639.439 6.35547C639.439 5.86784 639.296 5.47363 639.009 5.17285C638.722 4.87207 638.325 4.71712 637.819 4.70801H635.939V7.83203ZM646.952 7.45605C646.683 7.4196 646.446 7.40137 646.241 7.40137C645.494 7.40137 645.004 7.6543 644.771 8.16016V13H642.796V5.60352H644.662L644.717 6.48535C645.113 5.80632 645.662 5.4668 646.364 5.4668C646.583 5.4668 646.788 5.49642 646.979 5.55566L646.952 7.45605ZM647.355 9.2334C647.355 8.49967 647.497 7.8457 647.779 7.27148C648.062 6.69727 648.467 6.25293 648.996 5.93848C649.529 5.62402 650.147 5.4668 650.849 5.4668C651.847 5.4668 652.66 5.77214 653.289 6.38281C653.923 6.99349 654.276 7.82292 654.349 8.87109L654.362 9.37695C654.362 10.5117 654.046 11.4232 653.412 12.1113C652.779 12.7949 651.929 13.1367 650.862 13.1367C649.796 13.1367 648.944 12.7949 648.306 12.1113C647.672 11.4277 647.355 10.498 647.355 9.32227V9.2334ZM649.331 9.37695C649.331 10.0788 649.463 10.6165 649.728 10.9902C649.992 11.3594 650.37 11.5439 650.862 11.5439C651.341 11.5439 651.715 11.3617 651.983 10.9971C652.252 10.6279 652.387 10.04 652.387 9.2334C652.387 8.54525 652.252 8.01204 651.983 7.63379C651.715 7.25553 651.336 7.06641 650.849 7.06641C650.366 7.06641 649.992 7.25553 649.728 7.63379C649.463 8.00749 649.331 8.58854 649.331 9.37695ZM657.944 3.78516V5.60352H659.209V7.05273H657.944V10.7441C657.944 11.0176 657.997 11.2135 658.102 11.332C658.206 11.4505 658.407 11.5098 658.703 11.5098C658.922 11.5098 659.116 11.4938 659.284 11.4619V12.959C658.897 13.0775 658.498 13.1367 658.088 13.1367C656.702 13.1367 655.996 12.4372 655.969 11.0381V7.05273H654.889V5.60352H655.969V3.78516H657.944ZM659.797 9.2334C659.797 8.49967 659.938 7.8457 660.221 7.27148C660.503 6.69727 660.909 6.25293 661.438 5.93848C661.971 5.62402 662.588 5.4668 663.29 5.4668C664.288 5.4668 665.102 5.77214 665.73 6.38281C666.364 6.99349 666.717 7.82292 666.79 8.87109L666.804 9.37695C666.804 10.5117 666.487 11.4232 665.854 12.1113C665.22 12.7949 664.37 13.1367 663.304 13.1367C662.237 13.1367 661.385 12.7949 660.747 12.1113C660.114 11.4277 659.797 10.498 659.797 9.32227V9.2334ZM661.772 9.37695C661.772 10.0788 661.905 10.6165 662.169 10.9902C662.433 11.3594 662.812 11.5439 663.304 11.5439C663.782 11.5439 664.156 11.3617 664.425 10.9971C664.694 10.6279 664.828 10.04 664.828 9.2334C664.828 8.54525 664.694 8.01204 664.425 7.63379C664.156 7.25553 663.778 7.06641 663.29 7.06641C662.807 7.06641 662.433 7.25553 662.169 7.63379C661.905 8.00749 661.772 8.58854 661.772 9.37695ZM670.386 3.78516V5.60352H671.65V7.05273H670.386V10.7441C670.386 11.0176 670.438 11.2135 670.543 11.332C670.648 11.4505 670.848 11.5098 671.145 11.5098C671.363 11.5098 671.557 11.4938 671.726 11.4619V12.959C671.338 13.0775 670.939 13.1367 670.529 13.1367C669.144 13.1367 668.438 12.4372 668.41 11.0381V7.05273H667.33V5.60352H668.41V3.78516H670.386ZM675.513 10.2041L676.88 5.60352H678.999L676.025 14.1484L675.861 14.5381C675.419 15.5042 674.69 15.9873 673.674 15.9873C673.387 15.9873 673.095 15.944 672.799 15.8574V14.3604L673.1 14.3672C673.473 14.3672 673.751 14.3102 673.934 14.1963C674.12 14.0824 674.266 13.8932 674.371 13.6289L674.604 13.0205L672.013 5.60352H674.139L675.513 10.2041ZM686.437 9.37012C686.437 10.5094 686.177 11.4232 685.657 12.1113C685.142 12.7949 684.445 13.1367 683.565 13.1367C682.818 13.1367 682.214 12.877 681.754 12.3574V15.8438H679.778V5.60352H681.61L681.679 6.32812C682.157 5.75391 682.782 5.4668 683.552 5.4668C684.463 5.4668 685.172 5.80404 685.678 6.47852C686.184 7.15299 686.437 8.08268 686.437 9.26758V9.37012ZM684.461 9.22656C684.461 8.53841 684.338 8.00749 684.092 7.63379C683.85 7.26009 683.497 7.07324 683.032 7.07324C682.412 7.07324 681.986 7.31022 681.754 7.78418V10.8125C681.995 11.3001 682.426 11.5439 683.046 11.5439C683.989 11.5439 684.461 10.7715 684.461 9.22656ZM689.752 13H687.77V5.60352H689.752V13ZM687.653 3.68945C687.653 3.39323 687.751 3.14941 687.947 2.95801C688.148 2.7666 688.419 2.6709 688.761 2.6709C689.098 2.6709 689.367 2.7666 689.567 2.95801C689.768 3.14941 689.868 3.39323 689.868 3.68945C689.868 3.99023 689.766 4.23633 689.561 4.42773C689.36 4.61914 689.093 4.71484 688.761 4.71484C688.428 4.71484 688.159 4.61914 687.954 4.42773C687.754 4.23633 687.653 3.99023 687.653 3.68945ZM693.204 5.60352L693.266 6.45801C693.794 5.7972 694.503 5.4668 695.392 5.4668C696.175 5.4668 696.759 5.69694 697.142 6.15723C697.524 6.61751 697.72 7.30566 697.729 8.22168V13H695.754V8.26953C695.754 7.85026 695.663 7.5472 695.48 7.36035C695.298 7.16895 694.995 7.07324 694.571 7.07324C694.015 7.07324 693.598 7.31022 693.32 7.78418V13H691.345V5.60352H693.204ZM698.946 9.24707C698.946 8.1123 699.215 7.19857 699.753 6.50586C700.295 5.81315 701.024 5.4668 701.94 5.4668C702.752 5.4668 703.383 5.74479 703.834 6.30078L703.916 5.60352H705.707V12.7539C705.707 13.401 705.559 13.9639 705.263 14.4424C704.971 14.9209 704.559 15.2855 704.025 15.5361C703.492 15.7868 702.868 15.9121 702.152 15.9121C701.61 15.9121 701.081 15.8027 700.566 15.584C700.051 15.3698 699.662 15.0918 699.397 14.75L700.272 13.5469C700.765 14.0983 701.362 14.374 702.063 14.374C702.588 14.374 702.995 14.2327 703.287 13.9502C703.579 13.6722 703.725 13.2757 703.725 12.7607V12.3643C703.269 12.8792 702.67 13.1367 701.927 13.1367C701.038 13.1367 700.318 12.7904 699.767 12.0977C699.22 11.4004 698.946 10.4775 698.946 9.3291V9.24707ZM700.922 9.39062C700.922 10.0605 701.056 10.5869 701.325 10.9697C701.594 11.348 701.963 11.5371 702.433 11.5371C703.034 11.5371 703.465 11.3115 703.725 10.8604V7.75C703.46 7.29883 703.034 7.07324 702.446 7.07324C701.972 7.07324 701.599 7.26693 701.325 7.6543C701.056 8.04167 700.922 8.62044 700.922 9.39062Z" fill="#657B83"/>
<path d="M284.504 88.1973C283.539 87.9199 282.836 87.5801 282.395 87.1777C281.957 86.7715 281.738 86.2715 281.738 85.6777C281.738 85.0059 282.006 84.4512 282.541 84.0137C283.08 83.5723 283.779 83.3516 284.639 83.3516C285.225 83.3516 285.746 83.4648 286.203 83.6914C286.664 83.918 287.02 84.2305 287.27 84.6289C287.523 85.0273 287.65 85.4629 287.65 85.9355H286.52C286.52 85.4199 286.355 85.0156 286.027 84.7227C285.699 84.4258 285.236 84.2773 284.639 84.2773C284.084 84.2773 283.65 84.4004 283.338 84.6465C283.029 84.8887 282.875 85.2266 282.875 85.6602C282.875 86.0078 283.021 86.3027 283.314 86.5449C283.611 86.7832 284.113 87.002 284.82 87.2012C285.531 87.4004 286.086 87.6211 286.484 87.8633C286.887 88.1016 287.184 88.3809 287.375 88.7012C287.57 89.0215 287.668 89.3984 287.668 89.832C287.668 90.5234 287.398 91.0781 286.859 91.4961C286.32 91.9102 285.6 92.1172 284.697 92.1172C284.111 92.1172 283.564 92.0059 283.057 91.7832C282.549 91.5566 282.156 91.248 281.879 90.8574C281.605 90.4668 281.469 90.0234 281.469 89.5273H282.6C282.6 90.043 282.789 90.4512 283.168 90.752C283.551 91.0488 284.061 91.1973 284.697 91.1973C285.291 91.1973 285.746 91.0762 286.062 90.834C286.379 90.5918 286.537 90.2617 286.537 89.8438C286.537 89.4258 286.391 89.1035 286.098 88.877C285.805 88.6465 285.273 88.4199 284.504 88.1973ZM290.416 84.125V85.6602H291.6V86.498H290.416V90.4297C290.416 90.6836 290.469 90.875 290.574 91.0039C290.68 91.1289 290.859 91.1914 291.113 91.1914C291.238 91.1914 291.41 91.168 291.629 91.1211V92C291.344 92.0781 291.066 92.1172 290.797 92.1172C290.312 92.1172 289.947 91.9707 289.701 91.6777C289.455 91.3848 289.332 90.9688 289.332 90.4297V86.498H288.178V85.6602H289.332V84.125H290.416ZM292.467 88.7715C292.467 88.1504 292.588 87.5918 292.83 87.0957C293.076 86.5996 293.416 86.2168 293.85 85.9473C294.287 85.6777 294.785 85.543 295.344 85.543C296.207 85.543 296.904 85.8418 297.436 86.4395C297.971 87.0371 298.238 87.832 298.238 88.8242V88.9004C298.238 89.5176 298.119 90.0723 297.881 90.5645C297.646 91.0527 297.309 91.4336 296.867 91.707C296.43 91.9805 295.926 92.1172 295.355 92.1172C294.496 92.1172 293.799 91.8184 293.264 91.2207C292.732 90.623 292.467 89.832 292.467 88.8477V88.7715ZM293.557 88.9004C293.557 89.6035 293.719 90.168 294.043 90.5938C294.371 91.0195 294.809 91.2324 295.355 91.2324C295.906 91.2324 296.344 91.0176 296.668 90.5879C296.992 90.1543 297.154 89.5488 297.154 88.7715C297.154 88.0762 296.988 87.5137 296.656 87.084C296.328 86.6504 295.891 86.4336 295.344 86.4336C294.809 86.4336 294.377 86.6465 294.049 87.0723C293.721 87.498 293.557 88.1074 293.557 88.9004ZM302.662 86.6328C302.498 86.6055 302.32 86.5918 302.129 86.5918C301.418 86.5918 300.936 86.8945 300.682 87.5V92H299.598V85.6602H300.652L300.67 86.3926C301.025 85.8262 301.529 85.543 302.182 85.543C302.393 85.543 302.553 85.5703 302.662 85.625V86.6328ZM305.844 90.4121L307.32 85.6602H308.48L305.932 92.9785C305.537 94.0332 304.91 94.5605 304.051 94.5605L303.846 94.543L303.441 94.4668V93.5879L303.734 93.6113C304.102 93.6113 304.387 93.5371 304.59 93.3887C304.797 93.2402 304.967 92.9688 305.1 92.5742L305.34 91.9297L303.078 85.6602H304.262L305.844 90.4121ZM314.82 88.9004C314.82 89.8691 314.598 90.6484 314.152 91.2383C313.707 91.8242 313.109 92.1172 312.359 92.1172C311.559 92.1172 310.939 91.834 310.502 91.2676L310.449 92H309.453V83H310.537V86.3574C310.975 85.8145 311.578 85.543 312.348 85.543C313.117 85.543 313.721 85.834 314.158 86.416C314.6 86.998 314.82 87.7949 314.82 88.8066V88.9004ZM313.736 88.7773C313.736 88.0391 313.594 87.4688 313.309 87.0664C313.023 86.6641 312.613 86.4629 312.078 86.4629C311.363 86.4629 310.85 86.7949 310.537 87.459V90.2012C310.869 90.8652 311.387 91.1973 312.09 91.1973C312.609 91.1973 313.014 90.9961 313.303 90.5938C313.592 90.1914 313.736 89.5859 313.736 88.7773ZM315.904 88.7715C315.904 88.1504 316.025 87.5918 316.268 87.0957C316.514 86.5996 316.854 86.2168 317.287 85.9473C317.725 85.6777 318.223 85.543 318.781 85.543C319.645 85.543 320.342 85.8418 320.873 86.4395C321.408 87.0371 321.676 87.832 321.676 88.8242V88.9004C321.676 89.5176 321.557 90.0723 321.318 90.5645C321.084 91.0527 320.746 91.4336 320.305 91.707C319.867 91.9805 319.363 92.1172 318.793 92.1172C317.934 92.1172 317.236 91.8184 316.701 91.2207C316.17 90.623 315.904 89.832 315.904 88.8477V88.7715ZM316.994 88.9004C316.994 89.6035 317.156 90.168 317.48 90.5938C317.809 91.0195 318.246 91.2324 318.793 91.2324C319.344 91.2324 319.781 91.0176 320.105 90.5879C320.43 90.1543 320.592 89.5488 320.592 88.7715C320.592 88.0762 320.426 87.5137 320.094 87.084C319.766 86.6504 319.328 86.4336 318.781 86.4336C318.246 86.4336 317.814 86.6465 317.486 87.0723C317.158 87.498 316.994 88.1074 316.994 88.9004ZM326.949 92C326.887 91.875 326.836 91.6523 326.797 91.332C326.293 91.8555 325.691 92.1172 324.992 92.1172C324.367 92.1172 323.854 91.9414 323.451 91.5898C323.053 91.2344 322.854 90.7852 322.854 90.2422C322.854 89.582 323.104 89.0703 323.604 88.707C324.107 88.3398 324.814 88.1562 325.725 88.1562H326.779V87.6582C326.779 87.2793 326.666 86.9785 326.439 86.7559C326.213 86.5293 325.879 86.416 325.438 86.416C325.051 86.416 324.727 86.5137 324.465 86.709C324.203 86.9043 324.072 87.1406 324.072 87.418H322.982C322.982 87.1016 323.094 86.7969 323.316 86.5039C323.543 86.207 323.848 85.9727 324.23 85.8008C324.617 85.6289 325.041 85.543 325.502 85.543C326.232 85.543 326.805 85.7266 327.219 86.0938C327.633 86.457 327.848 86.959 327.863 87.5996V90.5176C327.863 91.0996 327.938 91.5625 328.086 91.9062V92H326.949ZM325.15 91.1738C325.49 91.1738 325.812 91.0859 326.117 90.9102C326.422 90.7344 326.643 90.5059 326.779 90.2246V88.9238H325.93C324.602 88.9238 323.938 89.3125 323.938 90.0898C323.938 90.4297 324.051 90.6953 324.277 90.8867C324.504 91.0781 324.795 91.1738 325.15 91.1738ZM332.627 86.6328C332.463 86.6055 332.285 86.5918 332.094 86.5918C331.383 86.5918 330.9 86.8945 330.646 87.5V92H329.562V85.6602H330.617L330.635 86.3926C330.99 85.8262 331.494 85.543 332.146 85.543C332.357 85.543 332.518 85.5703 332.627 85.625V86.6328ZM333.248 88.7773C333.248 87.8047 333.479 87.0234 333.939 86.4336C334.4 85.8398 335.004 85.543 335.75 85.543C336.492 85.543 337.08 85.7969 337.514 86.3047V83H338.598V92H337.602L337.549 91.3203C337.115 91.8516 336.512 92.1172 335.738 92.1172C335.004 92.1172 334.404 91.8164 333.939 91.2148C333.479 90.6133 333.248 89.8281 333.248 88.8594V88.7773ZM334.332 88.9004C334.332 89.6191 334.48 90.1816 334.777 90.5879C335.074 90.9941 335.484 91.1973 336.008 91.1973C336.695 91.1973 337.197 90.8887 337.514 90.2715V87.3594C337.189 86.7617 336.691 86.4629 336.02 86.4629C335.488 86.4629 335.074 86.668 334.777 87.0781C334.48 87.4883 334.332 88.0957 334.332 88.9004Z" fill="black"/>
<path d="M374.504 88.1973C373.539 87.9199 372.836 87.5801 372.395 87.1777C371.957 86.7715 371.738 86.2715 371.738 85.6777C371.738 85.0059 372.006 84.4512 372.541 84.0137C373.08 83.5723 373.779 83.3516 374.639 83.3516C375.225 83.3516 375.746 83.4648 376.203 83.6914C376.664 83.918 377.02 84.2305 377.27 84.6289C377.523 85.0273 377.65 85.4629 377.65 85.9355H376.52C376.52 85.4199 376.355 85.0156 376.027 84.7227C375.699 84.4258 375.236 84.2773 374.639 84.2773C374.084 84.2773 373.65 84.4004 373.338 84.6465C373.029 84.8887 372.875 85.2266 372.875 85.6602C372.875 86.0078 373.021 86.3027 373.314 86.5449C373.611 86.7832 374.113 87.002 374.82 87.2012C375.531 87.4004 376.086 87.6211 376.484 87.8633C376.887 88.1016 377.184 88.3809 377.375 88.7012C377.57 89.0215 377.668 89.3984 377.668 89.832C377.668 90.5234 377.398 91.0781 376.859 91.4961C376.32 91.9102 375.6 92.1172 374.697 92.1172C374.111 92.1172 373.564 92.0059 373.057 91.7832C372.549 91.5566 372.156 91.248 371.879 90.8574C371.605 90.4668 371.469 90.0234 371.469 89.5273H372.6C372.6 90.043 372.789 90.4512 373.168 90.752C373.551 91.0488 374.061 91.1973 374.697 91.1973C375.291 91.1973 375.746 91.0762 376.062 90.834C376.379 90.5918 376.537 90.2617 376.537 89.8438C376.537 89.4258 376.391 89.1035 376.098 88.877C375.805 88.6465 375.273 88.4199 374.504 88.1973ZM380.715 89.0645L380.035 89.7734V92H378.951V83H380.035V88.4434L380.615 87.7461L382.59 85.6602H383.908L381.441 88.3086L384.195 92H382.924L380.715 89.0645ZM387.541 92.1172C386.682 92.1172 385.982 91.8359 385.443 91.2734C384.904 90.707 384.635 89.9512 384.635 89.0059V88.8066C384.635 88.1777 384.754 87.6172 384.992 87.125C385.234 86.6289 385.57 86.2422 386 85.9648C386.434 85.6836 386.902 85.543 387.406 85.543C388.23 85.543 388.871 85.8145 389.328 86.3574C389.785 86.9004 390.014 87.6777 390.014 88.6895V89.1406H385.719C385.734 89.7656 385.916 90.2715 386.264 90.6582C386.615 91.041 387.061 91.2324 387.6 91.2324C387.982 91.2324 388.307 91.1543 388.572 90.998C388.838 90.8418 389.07 90.6348 389.27 90.377L389.932 90.8926C389.4 91.709 388.604 92.1172 387.541 92.1172ZM387.406 86.4336C386.969 86.4336 386.602 86.5938 386.305 86.9141C386.008 87.2305 385.824 87.6758 385.754 88.25H388.93V88.168C388.898 87.6172 388.75 87.1914 388.484 86.8906C388.219 86.5859 387.859 86.4336 387.406 86.4336ZM392.744 84.125V85.6602H393.928V86.498H392.744V90.4297C392.744 90.6836 392.797 90.875 392.902 91.0039C393.008 91.1289 393.188 91.1914 393.441 91.1914C393.566 91.1914 393.738 91.168 393.957 91.1211V92C393.672 92.0781 393.395 92.1172 393.125 92.1172C392.641 92.1172 392.275 91.9707 392.029 91.6777C391.783 91.3848 391.66 90.9688 391.66 90.4297V86.498H390.506V85.6602H391.66V84.125H392.744ZM397.742 91.2324C398.129 91.2324 398.467 91.1152 398.756 90.8809C399.045 90.6465 399.205 90.3535 399.236 90.002H400.262C400.242 90.3652 400.117 90.7109 399.887 91.0391C399.656 91.3672 399.348 91.6289 398.961 91.8242C398.578 92.0195 398.172 92.1172 397.742 92.1172C396.879 92.1172 396.191 91.8301 395.68 91.2559C395.172 90.6777 394.918 89.8887 394.918 88.8887V88.707C394.918 88.0898 395.031 87.541 395.258 87.0605C395.484 86.5801 395.809 86.207 396.23 85.9414C396.656 85.6758 397.158 85.543 397.736 85.543C398.447 85.543 399.037 85.7559 399.506 86.1816C399.979 86.6074 400.23 87.1602 400.262 87.8398H399.236C399.205 87.4297 399.049 87.0938 398.768 86.832C398.49 86.5664 398.146 86.4336 397.736 86.4336C397.186 86.4336 396.758 86.6328 396.453 87.0312C396.152 87.4258 396.002 87.998 396.002 88.748V88.9531C396.002 89.6836 396.152 90.2461 396.453 90.6406C396.754 91.0352 397.184 91.2324 397.742 91.2324ZM402.564 86.4277C403.045 85.8379 403.67 85.543 404.439 85.543C405.779 85.543 406.455 86.2988 406.467 87.8105V92H405.383V87.8047C405.379 87.3477 405.273 87.0098 405.066 86.791C404.863 86.5723 404.545 86.4629 404.111 86.4629C403.76 86.4629 403.451 86.5566 403.186 86.7441C402.92 86.9316 402.713 87.1777 402.564 87.4824V92H401.48V83H402.564V86.4277ZM409.268 92H408.184V85.6602H409.268V92ZM408.096 83.9785C408.096 83.8027 408.148 83.6543 408.254 83.5332C408.363 83.4121 408.523 83.3516 408.734 83.3516C408.945 83.3516 409.105 83.4121 409.215 83.5332C409.324 83.6543 409.379 83.8027 409.379 83.9785C409.379 84.1543 409.324 84.3008 409.215 84.418C409.105 84.5352 408.945 84.5938 408.734 84.5938C408.523 84.5938 408.363 84.5352 408.254 84.418C408.148 84.3008 408.096 84.1543 408.096 83.9785ZM412.033 85.6602L412.068 86.457C412.553 85.8477 413.186 85.543 413.967 85.543C415.307 85.543 415.982 86.2988 415.994 87.8105V92H414.91V87.8047C414.906 87.3477 414.801 87.0098 414.594 86.791C414.391 86.5723 414.072 86.4629 413.639 86.4629C413.287 86.4629 412.979 86.5566 412.713 86.7441C412.447 86.9316 412.24 87.1777 412.092 87.4824V92H411.008V85.6602H412.033ZM417.371 88.7773C417.371 87.7891 417.6 87.0039 418.057 86.4219C418.514 85.8359 419.119 85.543 419.873 85.543C420.646 85.543 421.25 85.8164 421.684 86.3633L421.736 85.6602H422.727V91.8477C422.727 92.668 422.482 93.3145 421.994 93.7871C421.51 94.2598 420.857 94.4961 420.037 94.4961C419.58 94.4961 419.133 94.3984 418.695 94.2031C418.258 94.0078 417.924 93.7402 417.693 93.4004L418.256 92.75C418.721 93.3242 419.289 93.6113 419.961 93.6113C420.488 93.6113 420.898 93.4629 421.191 93.166C421.488 92.8691 421.637 92.4512 421.637 91.9121V91.3672C421.203 91.8672 420.611 92.1172 419.861 92.1172C419.119 92.1172 418.518 91.8184 418.057 91.2207C417.6 90.623 417.371 89.8086 417.371 88.7773ZM418.461 88.9004C418.461 89.6152 418.607 90.1777 418.9 90.5879C419.193 90.9941 419.604 91.1973 420.131 91.1973C420.814 91.1973 421.316 90.8867 421.637 90.2656V87.3711C421.305 86.7656 420.807 86.4629 420.143 86.4629C419.615 86.4629 419.203 86.668 418.906 87.0781C418.609 87.4883 418.461 88.0957 418.461 88.9004Z" fill="black"/>
<path d="M450.121 91.0801H454.164V92H448.99V83.4688H450.121V91.0801ZM460.152 88.2324H456.572V92H455.447V83.4688H460.732V84.3945H456.572V87.3125H460.152V88.2324ZM466.896 89.3105L467.061 90.4355L467.301 89.4219L468.988 83.4688H469.938L471.584 89.4219L471.818 90.4531L472 89.3047L473.324 83.4688H474.455L472.387 92H471.361L469.604 85.7832L469.469 85.1328L469.334 85.7832L467.512 92H466.486L464.424 83.4688H465.549L466.896 89.3105ZM476.717 92H475.633V85.6602H476.717V92ZM475.545 83.9785C475.545 83.8027 475.598 83.6543 475.703 83.5332C475.812 83.4121 475.973 83.3516 476.184 83.3516C476.395 83.3516 476.555 83.4121 476.664 83.5332C476.773 83.6543 476.828 83.8027 476.828 83.9785C476.828 84.1543 476.773 84.3008 476.664 84.418C476.555 84.5352 476.395 84.5938 476.184 84.5938C475.973 84.5938 475.812 84.5352 475.703 84.418C475.598 84.3008 475.545 84.1543 475.545 83.9785ZM481.521 86.6328C481.357 86.6055 481.18 86.5918 480.988 86.5918C480.277 86.5918 479.795 86.8945 479.541 87.5V92H478.457V85.6602H479.512L479.529 86.3926C479.885 85.8262 480.389 85.543 481.041 85.543C481.252 85.543 481.412 85.5703 481.521 85.625V86.6328ZM485.037 92.1172C484.178 92.1172 483.479 91.8359 482.939 91.2734C482.4 90.707 482.131 89.9512 482.131 89.0059V88.8066C482.131 88.1777 482.25 87.6172 482.488 87.125C482.73 86.6289 483.066 86.2422 483.496 85.9648C483.93 85.6836 484.398 85.543 484.902 85.543C485.727 85.543 486.367 85.8145 486.824 86.3574C487.281 86.9004 487.51 87.6777 487.51 88.6895V89.1406H483.215C483.23 89.7656 483.412 90.2715 483.76 90.6582C484.111 91.041 484.557 91.2324 485.096 91.2324C485.479 91.2324 485.803 91.1543 486.068 90.998C486.334 90.8418 486.566 90.6348 486.766 90.377L487.428 90.8926C486.896 91.709 486.1 92.1172 485.037 92.1172ZM484.902 86.4336C484.465 86.4336 484.098 86.5938 483.801 86.9141C483.504 87.2305 483.32 87.6758 483.25 88.25H486.426V88.168C486.395 87.6172 486.246 87.1914 485.98 86.8906C485.715 86.5859 485.355 86.4336 484.902 86.4336ZM489.303 92V86.498H488.301V85.6602H489.303V85.0098C489.303 84.3301 489.484 83.8047 489.848 83.4336C490.211 83.0625 490.725 82.877 491.389 82.877C491.639 82.877 491.887 82.9102 492.133 82.9766L492.074 83.8555C491.891 83.8203 491.695 83.8027 491.488 83.8027C491.137 83.8027 490.865 83.9062 490.674 84.1133C490.482 84.3164 490.387 84.6094 490.387 84.9922V85.6602H491.74V86.498H490.387V92H489.303ZM496.006 86.6328C495.842 86.6055 495.664 86.5918 495.473 86.5918C494.762 86.5918 494.279 86.8945 494.025 87.5V92H492.941V85.6602H493.996L494.014 86.3926C494.369 85.8262 494.873 85.543 495.525 85.543C495.736 85.543 495.896 85.5703 496.006 85.625V86.6328ZM500.688 92C500.625 91.875 500.574 91.6523 500.535 91.332C500.031 91.8555 499.43 92.1172 498.73 92.1172C498.105 92.1172 497.592 91.9414 497.189 91.5898C496.791 91.2344 496.592 90.7852 496.592 90.2422C496.592 89.582 496.842 89.0703 497.342 88.707C497.846 88.3398 498.553 88.1562 499.463 88.1562H500.518V87.6582C500.518 87.2793 500.404 86.9785 500.178 86.7559C499.951 86.5293 499.617 86.416 499.176 86.416C498.789 86.416 498.465 86.5137 498.203 86.709C497.941 86.9043 497.811 87.1406 497.811 87.418H496.721C496.721 87.1016 496.832 86.7969 497.055 86.5039C497.281 86.207 497.586 85.9727 497.969 85.8008C498.355 85.6289 498.779 85.543 499.24 85.543C499.971 85.543 500.543 85.7266 500.957 86.0938C501.371 86.457 501.586 86.959 501.602 87.5996V90.5176C501.602 91.0996 501.676 91.5625 501.824 91.9062V92H500.688ZM498.889 91.1738C499.229 91.1738 499.551 91.0859 499.855 90.9102C500.16 90.7344 500.381 90.5059 500.518 90.2246V88.9238H499.668C498.34 88.9238 497.676 89.3125 497.676 90.0898C497.676 90.4297 497.789 90.6953 498.016 90.8867C498.242 91.0781 498.533 91.1738 498.889 91.1738ZM504.32 85.6602L504.35 86.3633C504.814 85.8164 505.441 85.543 506.23 85.543C507.117 85.543 507.721 85.8828 508.041 86.5625C508.252 86.2578 508.525 86.0117 508.861 85.8242C509.201 85.6367 509.602 85.543 510.062 85.543C511.453 85.543 512.16 86.2793 512.184 87.752V92H511.1V87.8164C511.1 87.3633 510.996 87.0254 510.789 86.8027C510.582 86.5762 510.234 86.4629 509.746 86.4629C509.344 86.4629 509.01 86.584 508.744 86.8262C508.479 87.0645 508.324 87.3867 508.281 87.793V92H507.191V87.8457C507.191 86.9238 506.74 86.4629 505.838 86.4629C505.127 86.4629 504.641 86.7656 504.379 87.3711V92H503.295V85.6602H504.32ZM516.455 92.1172C515.596 92.1172 514.896 91.8359 514.357 91.2734C513.818 90.707 513.549 89.9512 513.549 89.0059V88.8066C513.549 88.1777 513.668 87.6172 513.906 87.125C514.148 86.6289 514.484 86.2422 514.914 85.9648C515.348 85.6836 515.816 85.543 516.32 85.543C517.145 85.543 517.785 85.8145 518.242 86.3574C518.699 86.9004 518.928 87.6777 518.928 88.6895V89.1406H514.633C514.648 89.7656 514.83 90.2715 515.178 90.6582C515.529 91.041 515.975 91.2324 516.514 91.2324C516.896 91.2324 517.221 91.1543 517.486 90.998C517.752 90.8418 517.984 90.6348 518.184 90.377L518.846 90.8926C518.314 91.709 517.518 92.1172 516.455 92.1172ZM516.32 86.4336C515.883 86.4336 515.516 86.5938 515.219 86.9141C514.922 87.2305 514.738 87.6758 514.668 88.25H517.844V88.168C517.812 87.6172 517.664 87.1914 517.398 86.8906C517.133 86.5859 516.773 86.4336 516.32 86.4336Z" fill="black"/>
<path d="M589.547 92H588.416V88.0566H584.115V92H582.99V83.4688H584.115V87.1367H588.416V83.4688H589.547V92ZM596.25 88.2324H592.67V92H591.545V83.4688H596.83V84.3945H592.67V87.3125H596.25V88.2324ZM602.994 89.3105L603.158 90.4355L603.398 89.4219L605.086 83.4688H606.035L607.682 89.4219L607.916 90.4531L608.098 89.3047L609.422 83.4688H610.553L608.484 92H607.459L605.701 85.7832L605.566 85.1328L605.432 85.7832L603.609 92H602.584L600.521 83.4688H601.646L602.994 89.3105ZM612.814 92H611.73V85.6602H612.814V92ZM611.643 83.9785C611.643 83.8027 611.695 83.6543 611.801 83.5332C611.91 83.4121 612.07 83.3516 612.281 83.3516C612.492 83.3516 612.652 83.4121 612.762 83.5332C612.871 83.6543 612.926 83.8027 612.926 83.9785C612.926 84.1543 612.871 84.3008 612.762 84.418C612.652 84.5352 612.492 84.5938 612.281 84.5938C612.07 84.5938 611.91 84.5352 611.801 84.418C611.695 84.3008 611.643 84.1543 611.643 83.9785ZM617.619 86.6328C617.455 86.6055 617.277 86.5918 617.086 86.5918C616.375 86.5918 615.893 86.8945 615.639 87.5V92H614.555V85.6602H615.609L615.627 86.3926C615.982 85.8262 616.486 85.543 617.139 85.543C617.35 85.543 617.51 85.5703 617.619 85.625V86.6328ZM621.135 92.1172C620.275 92.1172 619.576 91.8359 619.037 91.2734C618.498 90.707 618.229 89.9512 618.229 89.0059V88.8066C618.229 88.1777 618.348 87.6172 618.586 87.125C618.828 86.6289 619.164 86.2422 619.594 85.9648C620.027 85.6836 620.496 85.543 621 85.543C621.824 85.543 622.465 85.8145 622.922 86.3574C623.379 86.9004 623.607 87.6777 623.607 88.6895V89.1406H619.312C619.328 89.7656 619.51 90.2715 619.857 90.6582C620.209 91.041 620.654 91.2324 621.193 91.2324C621.576 91.2324 621.9 91.1543 622.166 90.998C622.432 90.8418 622.664 90.6348 622.863 90.377L623.525 90.8926C622.994 91.709 622.197 92.1172 621.135 92.1172ZM621 86.4336C620.562 86.4336 620.195 86.5938 619.898 86.9141C619.602 87.2305 619.418 87.6758 619.348 88.25H622.523V88.168C622.492 87.6172 622.344 87.1914 622.078 86.8906C621.812 86.5859 621.453 86.4336 621 86.4336ZM625.4 92V86.498H624.398V85.6602H625.4V85.0098C625.4 84.3301 625.582 83.8047 625.945 83.4336C626.309 83.0625 626.822 82.877 627.486 82.877C627.736 82.877 627.984 82.9102 628.23 82.9766L628.172 83.8555C627.988 83.8203 627.793 83.8027 627.586 83.8027C627.234 83.8027 626.963 83.9062 626.771 84.1133C626.58 84.3164 626.484 84.6094 626.484 84.9922V85.6602H627.838V86.498H626.484V92H625.4ZM632.104 86.6328C631.939 86.6055 631.762 86.5918 631.57 86.5918C630.859 86.5918 630.377 86.8945 630.123 87.5V92H629.039V85.6602H630.094L630.111 86.3926C630.467 85.8262 630.971 85.543 631.623 85.543C631.834 85.543 631.994 85.5703 632.104 85.625V86.6328ZM636.785 92C636.723 91.875 636.672 91.6523 636.633 91.332C636.129 91.8555 635.527 92.1172 634.828 92.1172C634.203 92.1172 633.689 91.9414 633.287 91.5898C632.889 91.2344 632.689 90.7852 632.689 90.2422C632.689 89.582 632.939 89.0703 633.439 88.707C633.943 88.3398 634.65 88.1562 635.561 88.1562H636.615V87.6582C636.615 87.2793 636.502 86.9785 636.275 86.7559C636.049 86.5293 635.715 86.416 635.273 86.416C634.887 86.416 634.562 86.5137 634.301 86.709C634.039 86.9043 633.908 87.1406 633.908 87.418H632.818C632.818 87.1016 632.93 86.7969 633.152 86.5039C633.379 86.207 633.684 85.9727 634.066 85.8008C634.453 85.6289 634.877 85.543 635.338 85.543C636.068 85.543 636.641 85.7266 637.055 86.0938C637.469 86.457 637.684 86.959 637.699 87.5996V90.5176C637.699 91.0996 637.773 91.5625 637.922 91.9062V92H636.785ZM634.986 91.1738C635.326 91.1738 635.648 91.0859 635.953 90.9102C636.258 90.7344 636.479 90.5059 636.615 90.2246V88.9238H635.766C634.438 88.9238 633.773 89.3125 633.773 90.0898C633.773 90.4297 633.887 90.6953 634.113 90.8867C634.34 91.0781 634.631 91.1738 634.986 91.1738ZM640.418 85.6602L640.447 86.3633C640.912 85.8164 641.539 85.543 642.328 85.543C643.215 85.543 643.818 85.8828 644.139 86.5625C644.35 86.2578 644.623 86.0117 644.959 85.8242C645.299 85.6367 645.699 85.543 646.16 85.543C647.551 85.543 648.258 86.2793 648.281 87.752V92H647.197V87.8164C647.197 87.3633 647.094 87.0254 646.887 86.8027C646.68 86.5762 646.332 86.4629 645.844 86.4629C645.441 86.4629 645.107 86.584 644.842 86.8262C644.576 87.0645 644.422 87.3867 644.379 87.793V92H643.289V87.8457C643.289 86.9238 642.838 86.4629 641.936 86.4629C641.225 86.4629 640.738 86.7656 640.477 87.3711V92H639.393V85.6602H640.418ZM652.553 92.1172C651.693 92.1172 650.994 91.8359 650.455 91.2734C649.916 90.707 649.646 89.9512 649.646 89.0059V88.8066C649.646 88.1777 649.766 87.6172 650.004 87.125C650.246 86.6289 650.582 86.2422 651.012 85.9648C651.445 85.6836 651.914 85.543 652.418 85.543C653.242 85.543 653.883 85.8145 654.34 86.3574C654.797 86.9004 655.025 87.6777 655.025 88.6895V89.1406H650.73C650.746 89.7656 650.928 90.2715 651.275 90.6582C651.627 91.041 652.072 91.2324 652.611 91.2324C652.994 91.2324 653.318 91.1543 653.584 90.998C653.85 90.8418 654.082 90.6348 654.281 90.377L654.943 90.8926C654.412 91.709 653.615 92.1172 652.553 92.1172ZM652.418 86.4336C651.98 86.4336 651.613 86.5938 651.316 86.9141C651.02 87.2305 650.836 87.6758 650.766 88.25H653.941V88.168C653.91 87.6172 653.762 87.1914 653.496 86.8906C653.23 86.5859 652.871 86.4336 652.418 86.4336Z" fill="black"/>
<path d="M691.996 83.4688V89.2695C691.992 90.0742 691.738 90.7324 691.234 91.2441C690.734 91.7559 690.055 92.043 689.195 92.1055L688.896 92.1172C687.963 92.1172 687.219 91.8652 686.664 91.3613C686.109 90.8574 685.828 90.1641 685.82 89.2812V83.4688H686.934V89.2461C686.934 89.8633 687.104 90.3438 687.443 90.6875C687.783 91.0273 688.268 91.1973 688.896 91.1973C689.533 91.1973 690.02 91.0273 690.355 90.6875C690.695 90.3477 690.865 89.8691 690.865 89.252V83.4688H691.996ZM697.293 90.3184C697.293 90.0254 697.182 89.7988 696.959 89.6387C696.74 89.4746 696.355 89.334 695.805 89.2168C695.258 89.0996 694.822 88.959 694.498 88.7949C694.178 88.6309 693.939 88.4355 693.783 88.209C693.631 87.9824 693.555 87.7129 693.555 87.4004C693.555 86.8809 693.773 86.4414 694.211 86.082C694.652 85.7227 695.215 85.543 695.898 85.543C696.617 85.543 697.199 85.7285 697.645 86.0996C698.094 86.4707 698.318 86.9453 698.318 87.5234H697.229C697.229 87.2266 697.102 86.9707 696.848 86.7559C696.598 86.541 696.281 86.4336 695.898 86.4336C695.504 86.4336 695.195 86.5195 694.973 86.6914C694.75 86.8633 694.639 87.0879 694.639 87.3652C694.639 87.627 694.742 87.8242 694.949 87.957C695.156 88.0898 695.529 88.2168 696.068 88.3379C696.611 88.459 697.051 88.6035 697.387 88.7715C697.723 88.9395 697.971 89.1426 698.131 89.3809C698.295 89.6152 698.377 89.9023 698.377 90.2422C698.377 90.8086 698.15 91.2637 697.697 91.6074C697.244 91.9473 696.656 92.1172 695.934 92.1172C695.426 92.1172 694.977 92.0273 694.586 91.8477C694.195 91.668 693.889 91.418 693.666 91.0977C693.447 90.7734 693.338 90.4238 693.338 90.0488H694.422C694.441 90.4121 694.586 90.7012 694.855 90.916C695.129 91.127 695.488 91.2324 695.934 91.2324C696.344 91.2324 696.672 91.1504 696.918 90.9863C697.168 90.8184 697.293 90.5957 697.293 90.3184ZM702.42 92.1172C701.561 92.1172 700.861 91.8359 700.322 91.2734C699.783 90.707 699.514 89.9512 699.514 89.0059V88.8066C699.514 88.1777 699.633 87.6172 699.871 87.125C700.113 86.6289 700.449 86.2422 700.879 85.9648C701.312 85.6836 701.781 85.543 702.285 85.543C703.109 85.543 703.75 85.8145 704.207 86.3574C704.664 86.9004 704.893 87.6777 704.893 88.6895V89.1406H700.598C700.613 89.7656 700.795 90.2715 701.143 90.6582C701.494 91.041 701.939 91.2324 702.479 91.2324C702.861 91.2324 703.186 91.1543 703.451 90.998C703.717 90.8418 703.949 90.6348 704.148 90.377L704.811 90.8926C704.279 91.709 703.482 92.1172 702.42 92.1172ZM702.285 86.4336C701.848 86.4336 701.48 86.5938 701.184 86.9141C700.887 87.2305 700.703 87.6758 700.633 88.25H703.809V88.168C703.777 87.6172 703.629 87.1914 703.363 86.8906C703.098 86.5859 702.738 86.4336 702.285 86.4336ZM709.217 86.6328C709.053 86.6055 708.875 86.5918 708.684 86.5918C707.973 86.5918 707.49 86.8945 707.236 87.5V92H706.152V85.6602H707.207L707.225 86.3926C707.58 85.8262 708.084 85.543 708.736 85.543C708.947 85.543 709.107 85.5703 709.217 85.625V86.6328ZM713.898 92C713.836 91.875 713.785 91.6523 713.746 91.332C713.242 91.8555 712.641 92.1172 711.941 92.1172C711.316 92.1172 710.803 91.9414 710.4 91.5898C710.002 91.2344 709.803 90.7852 709.803 90.2422C709.803 89.582 710.053 89.0703 710.553 88.707C711.057 88.3398 711.764 88.1562 712.674 88.1562H713.729V87.6582C713.729 87.2793 713.615 86.9785 713.389 86.7559C713.162 86.5293 712.828 86.416 712.387 86.416C712 86.416 711.676 86.5137 711.414 86.709C711.152 86.9043 711.021 87.1406 711.021 87.418H709.932C709.932 87.1016 710.043 86.7969 710.266 86.5039C710.492 86.207 710.797 85.9727 711.18 85.8008C711.566 85.6289 711.99 85.543 712.451 85.543C713.182 85.543 713.754 85.7266 714.168 86.0938C714.582 86.457 714.797 86.959 714.812 87.5996V90.5176C714.812 91.0996 714.887 91.5625 715.035 91.9062V92H713.898ZM712.1 91.1738C712.439 91.1738 712.762 91.0859 713.066 90.9102C713.371 90.7344 713.592 90.5059 713.729 90.2246V88.9238H712.879C711.551 88.9238 710.887 89.3125 710.887 90.0898C710.887 90.4297 711 90.6953 711.227 90.8867C711.453 91.0781 711.744 91.1738 712.1 91.1738ZM721.879 88.9004C721.879 89.8691 721.656 90.6484 721.211 91.2383C720.766 91.8242 720.168 92.1172 719.418 92.1172C718.617 92.1172 717.998 91.834 717.561 91.2676L717.508 92H716.512V83H717.596V86.3574C718.033 85.8145 718.637 85.543 719.406 85.543C720.176 85.543 720.779 85.834 721.217 86.416C721.658 86.998 721.879 87.7949 721.879 88.8066V88.9004ZM720.795 88.7773C720.795 88.0391 720.652 87.4688 720.367 87.0664C720.082 86.6641 719.672 86.4629 719.137 86.4629C718.422 86.4629 717.908 86.7949 717.596 87.459V90.2012C717.928 90.8652 718.445 91.1973 719.148 91.1973C719.668 91.1973 720.072 90.9961 720.361 90.5938C720.65 90.1914 720.795 89.5859 720.795 88.7773ZM724.428 92H723.344V85.6602H724.428V92ZM723.256 83.9785C723.256 83.8027 723.309 83.6543 723.414 83.5332C723.523 83.4121 723.684 83.3516 723.895 83.3516C724.105 83.3516 724.266 83.4121 724.375 83.5332C724.484 83.6543 724.539 83.8027 724.539 83.9785C724.539 84.1543 724.484 84.3008 724.375 84.418C724.266 84.5352 724.105 84.5938 723.895 84.5938C723.684 84.5938 723.523 84.5352 723.414 84.418C723.309 84.3008 723.256 84.1543 723.256 83.9785ZM727.346 92H726.262V83H727.346V92ZM730.264 92H729.18V85.6602H730.264V92ZM729.092 83.9785C729.092 83.8027 729.145 83.6543 729.25 83.5332C729.359 83.4121 729.52 83.3516 729.73 83.3516C729.941 83.3516 730.102 83.4121 730.211 83.5332C730.32 83.6543 730.375 83.8027 730.375 83.9785C730.375 84.1543 730.32 84.3008 730.211 84.418C730.102 84.5352 729.941 84.5938 729.73 84.5938C729.52 84.5938 729.359 84.5352 729.25 84.418C729.145 84.3008 729.092 84.1543 729.092 83.9785ZM733.475 84.125V85.6602H734.658V86.498H733.475V90.4297C733.475 90.6836 733.527 90.875 733.633 91.0039C733.738 91.1289 733.918 91.1914 734.172 91.1914C734.297 91.1914 734.469 91.168 734.688 91.1211V92C734.402 92.0781 734.125 92.1172 733.855 92.1172C733.371 92.1172 733.006 91.9707 732.76 91.6777C732.514 91.3848 732.391 90.9688 732.391 90.4297V86.498H731.236V85.6602H732.391V84.125H733.475ZM738.004 90.4121L739.48 85.6602H740.641L738.092 92.9785C737.697 94.0332 737.07 94.5605 736.211 94.5605L736.006 94.543L735.602 94.4668V93.5879L735.895 93.6113C736.262 93.6113 736.547 93.5371 736.75 93.3887C736.957 93.2402 737.127 92.9688 737.26 92.5742L737.5 91.9297L735.238 85.6602H736.422L738.004 90.4121ZM750.42 84.3945H747.678V92H746.559V84.3945H743.822V83.4688H750.42V84.3945ZM753.561 92.1172C752.701 92.1172 752.002 91.8359 751.463 91.2734C750.924 90.707 750.654 89.9512 750.654 89.0059V88.8066C750.654 88.1777 750.773 87.6172 751.012 87.125C751.254 86.6289 751.59 86.2422 752.02 85.9648C752.453 85.6836 752.922 85.543 753.426 85.543C754.25 85.543 754.891 85.8145 755.348 86.3574C755.805 86.9004 756.033 87.6777 756.033 88.6895V89.1406H751.738C751.754 89.7656 751.936 90.2715 752.283 90.6582C752.635 91.041 753.08 91.2324 753.619 91.2324C754.002 91.2324 754.326 91.1543 754.592 90.998C754.857 90.8418 755.09 90.6348 755.289 90.377L755.951 90.8926C755.42 91.709 754.623 92.1172 753.561 92.1172ZM753.426 86.4336C752.988 86.4336 752.621 86.5938 752.324 86.9141C752.027 87.2305 751.844 87.6758 751.773 88.25H754.949V88.168C754.918 87.6172 754.77 87.1914 754.504 86.8906C754.238 86.5859 753.879 86.4336 753.426 86.4336ZM760.984 90.3184C760.984 90.0254 760.873 89.7988 760.65 89.6387C760.432 89.4746 760.047 89.334 759.496 89.2168C758.949 89.0996 758.514 88.959 758.189 88.7949C757.869 88.6309 757.631 88.4355 757.475 88.209C757.322 87.9824 757.246 87.7129 757.246 87.4004C757.246 86.8809 757.465 86.4414 757.902 86.082C758.344 85.7227 758.906 85.543 759.59 85.543C760.309 85.543 760.891 85.7285 761.336 86.0996C761.785 86.4707 762.01 86.9453 762.01 87.5234H760.92C760.92 87.2266 760.793 86.9707 760.539 86.7559C760.289 86.541 759.973 86.4336 759.59 86.4336C759.195 86.4336 758.887 86.5195 758.664 86.6914C758.441 86.8633 758.33 87.0879 758.33 87.3652C758.33 87.627 758.434 87.8242 758.641 87.957C758.848 88.0898 759.221 88.2168 759.76 88.3379C760.303 88.459 760.742 88.6035 761.078 88.7715C761.414 88.9395 761.662 89.1426 761.822 89.3809C761.986 89.6152 762.068 89.9023 762.068 90.2422C762.068 90.8086 761.842 91.2637 761.389 91.6074C760.936 91.9473 760.348 92.1172 759.625 92.1172C759.117 92.1172 758.668 92.0273 758.277 91.8477C757.887 91.668 757.58 91.418 757.357 91.0977C757.139 90.7734 757.029 90.4238 757.029 90.0488H758.113C758.133 90.4121 758.277 90.7012 758.547 90.916C758.82 91.127 759.18 91.2324 759.625 91.2324C760.035 91.2324 760.363 91.1504 760.609 90.9863C760.859 90.8184 760.984 90.5957 760.984 90.3184ZM764.951 84.125V85.6602H766.135V86.498H764.951V90.4297C764.951 90.6836 765.004 90.875 765.109 91.0039C765.215 91.1289 765.395 91.1914 765.648 91.1914C765.773 91.1914 765.945 91.168 766.164 91.1211V92C765.879 92.0781 765.602 92.1172 765.332 92.1172C764.848 92.1172 764.482 91.9707 764.236 91.6777C763.99 91.3848 763.867 90.9688 763.867 90.4297V86.498H762.713V85.6602H763.867V84.125H764.951ZM768.584 92H767.5V85.6602H768.584V92ZM767.412 83.9785C767.412 83.8027 767.465 83.6543 767.57 83.5332C767.68 83.4121 767.84 83.3516 768.051 83.3516C768.262 83.3516 768.422 83.4121 768.531 83.5332C768.641 83.6543 768.695 83.8027 768.695 83.9785C768.695 84.1543 768.641 84.3008 768.531 84.418C768.422 84.5352 768.262 84.5938 768.051 84.5938C767.84 84.5938 767.68 84.5352 767.57 84.418C767.465 84.3008 767.412 84.1543 767.412 83.9785ZM771.35 85.6602L771.385 86.457C771.869 85.8477 772.502 85.543 773.283 85.543C774.623 85.543 775.299 86.2988 775.311 87.8105V92H774.227V87.8047C774.223 87.3477 774.117 87.0098 773.91 86.791C773.707 86.5723 773.389 86.4629 772.955 86.4629C772.604 86.4629 772.295 86.5566 772.029 86.7441C771.764 86.9316 771.557 87.1777 771.408 87.4824V92H770.324V85.6602H771.35ZM776.688 88.7773C776.688 87.7891 776.916 87.0039 777.373 86.4219C777.83 85.8359 778.436 85.543 779.189 85.543C779.963 85.543 780.566 85.8164 781 86.3633L781.053 85.6602H782.043V91.8477C782.043 92.668 781.799 93.3145 781.311 93.7871C780.826 94.2598 780.174 94.4961 779.354 94.4961C778.896 94.4961 778.449 94.3984 778.012 94.2031C777.574 94.0078 777.24 93.7402 777.01 93.4004L777.572 92.75C778.037 93.3242 778.605 93.6113 779.277 93.6113C779.805 93.6113 780.215 93.4629 780.508 93.166C780.805 92.8691 780.953 92.4512 780.953 91.9121V91.3672C780.52 91.8672 779.928 92.1172 779.178 92.1172C778.436 92.1172 777.834 91.8184 777.373 91.2207C776.916 90.623 776.688 89.8086 776.688 88.7773ZM777.777 88.9004C777.777 89.6152 777.924 90.1777 778.217 90.5879C778.51 90.9941 778.92 91.1973 779.447 91.1973C780.131 91.1973 780.633 90.8867 780.953 90.2656V87.3711C780.621 86.7656 780.123 86.4629 779.459 86.4629C778.932 86.4629 778.52 86.668 778.223 87.0781C777.926 87.4883 777.777 88.0957 777.777 88.9004Z" fill="black"/>
<path d="M39 46H34.82C34.4 44.84 33.3 44 32 44C30.7 44 29.6 44.84 29.18 46H25C23.9 46 23 46.9 23 48V62C23 63.1 23.9 64 25 64H39C40.1 64 41 63.1 41 62V48C41 46.9 40.1 46 39 46ZM32 46C32.55 46 33 46.45 33 47C33 47.55 32.55 48 32 48C31.45 48 31 47.55 31 47C31 46.45 31.45 46 32 46ZM34 60H27V58H34V60ZM37 56H27V54H37V56ZM37 52H27V50H37V52Z" fill="#657B83"/>
<path d="M114 44H100C98.9 44 98 44.9 98 46V60C98 61.1 98.9 62 100 62H114C115.1 62 116 61.1 116 60V46C116 44.9 115.1 44 114 44ZM104 58H102V51H104V58ZM108 58H106V48H108V58ZM112 58H110V54H112V58Z" fill="#657B83"/>
<path d="M326.35 53.04C325.67 49.59 322.64 47 319 47C316.11 47 313.6 48.64 312.35 51.04C309.34 51.36 307 53.91 307 57C307 60.31 309.69 63 313 63H326C328.76 63 331 60.76 331 58C331 55.36 328.95 53.22 326.35 53.04Z" fill="#657B83"/>
<path d="M620.52 66.48C617.25 64.94 614.91 61.76 614.55 58H613.05C613.56 64.16 618.71 69 625 69L625.66 68.97L621.85 65.16L620.52 66.48ZM621.41 59.96C621.22 59.96 621.04 59.93 620.89 59.88C620.73 59.82 620.6 59.75 620.49 59.64C620.38 59.54 620.29 59.42 620.23 59.27C620.17 59.13 620.14 58.97 620.14 58.8H618.84C618.84 59.16 618.91 59.48 619.05 59.75C619.19 60.02 619.38 60.25 619.61 60.44C619.85 60.62 620.12 60.76 620.43 60.85C620.73 60.95 621.05 61 621.39 61C621.76 61 622.11 60.95 622.42 60.85C622.74 60.75 623.02 60.6 623.25 60.41C623.48 60.22 623.67 59.98 623.8 59.69C623.93 59.4 624 59.08 624 58.72C624 58.53 623.98 58.34 623.93 58.16C623.88 57.98 623.81 57.81 623.7 57.65C623.6 57.49 623.46 57.35 623.3 57.22C623.13 57.09 622.93 56.99 622.69 56.91C622.89 56.82 623.06 56.71 623.21 56.58C623.36 56.45 623.48 56.31 623.58 56.16C623.68 56.01 623.75 55.86 623.8 55.7C623.85 55.54 623.87 55.38 623.87 55.22C623.87 54.86 623.81 54.54 623.69 54.26C623.57 53.98 623.4 53.75 623.18 53.57C622.98 53.38 622.71 53.24 622.41 53.14C622.1 53.05 621.76 53 621.39 53C621.03 53 620.7 53.05 620.39 53.16C620.09 53.27 619.82 53.42 619.6 53.61C619.39 53.8 619.22 54.02 619.09 54.28C618.97 54.54 618.91 54.82 618.91 55.13H620.21C620.21 54.96 620.24 54.81 620.3 54.68C620.36 54.55 620.44 54.43 620.55 54.34C620.66 54.25 620.78 54.17 620.93 54.12C621.08 54.07 621.23 54.04 621.41 54.04C621.81 54.04 622.11 54.14 622.3 54.35C622.49 54.55 622.59 54.84 622.59 55.21C622.59 55.39 622.56 55.55 622.51 55.7C622.46 55.85 622.37 55.97 622.26 56.07C622.15 56.17 622.01 56.25 621.85 56.31C621.69 56.37 621.49 56.4 621.27 56.4H620.5V57.43H621.27C621.49 57.43 621.69 57.45 621.87 57.5C622.05 57.55 622.2 57.63 622.32 57.73C622.44 57.84 622.54 57.97 622.61 58.13C622.68 58.29 622.71 58.48 622.71 58.7C622.71 59.11 622.59 59.42 622.36 59.63C622.13 59.86 621.81 59.96 621.41 59.96ZM629.96 54.04C629.64 53.71 629.26 53.45 628.82 53.27C628.39 53.09 627.9 53 627.36 53H625V61H627.3C627.85 61 628.36 60.91 628.81 60.73C629.26 60.55 629.65 60.3 629.97 59.97C630.29 59.64 630.54 59.24 630.71 58.78C630.88 58.31 630.97 57.79 630.97 57.21V56.81C630.97 56.23 630.88 55.71 630.71 55.24C630.53 54.77 630.28 54.37 629.96 54.04ZM629.57 57.2C629.57 57.62 629.52 57.99 629.43 58.33C629.33 58.66 629.19 58.95 629 59.18C628.81 59.41 628.57 59.59 628.29 59.71C628 59.83 627.67 59.89 627.3 59.89H626.39V54.12H627.36C628.08 54.12 628.63 54.35 629 54.81C629.38 55.27 629.57 55.93 629.57 56.8V57.2ZM625 45L624.34 45.03L628.15 48.84L629.48 47.51C632.75 49.06 635.09 52.23 635.44 55.99H636.94C636.44 49.84 631.29 45 625 45Z" fill="#657B83"/>
<path d="M476 67H488L482 61L476 67ZM491 48H473C471.9 48 471 48.9 471 50V62C471 63.1 471.9 64 473 64H477V62H473V50H491V62H487V64H491C492.1 64 493 63.1 493 62V50C493 48.9 492.1 48 491 48Z" fill="#657B83"/>
<path d="M391 61.25V65H394.75L405.81 53.94L402.06 50.19L391 61.25ZM408.71 51.04C409.1 50.65 409.1 50.02 408.71 49.63L406.37 47.29C405.98 46.9 405.35 46.9 404.96 47.29L403.13 49.12L406.88 52.87L408.71 51.04Z" fill="#657B83"/>
<path d="M720.25 54.24V50.5C720.25 49.12 721.37 48 722.75 48C724.13 48 725.25 49.12 725.25 50.5V54.24C726.46 53.43 727.25 52.06 727.25 50.5C727.25 48.01 725.24 46 722.75 46C720.26 46 718.25 48.01 718.25 50.5C718.25 52.06 719.04 53.43 720.25 54.24ZM730.09 58.87L725.55 56.61C725.38 56.54 725.2 56.5 725.01 56.5H724.25V50.5C724.25 49.67 723.58 49 722.75 49C721.92 49 721.25 49.67 721.25 50.5V61.24L717.82 60.52C717.74 60.51 717.67 60.49 717.58 60.49C717.27 60.49 716.99 60.62 716.79 60.82L716 61.62L720.94 66.56C721.21 66.83 721.59 67 722 67H728.79C729.54 67 730.12 66.45 730.23 65.72L730.98 60.45C730.99 60.38 731 60.31 731 60.25C731 59.63 730.62 59.09 730.09 58.87Z" fill="#657B83"/>
<path d="M161.996 84.4688V90.2695C161.992 91.0742 161.738 91.7324 161.234 92.2441C160.734 92.7559 160.055 93.043 159.195 93.1055L158.896 93.1172C157.963 93.1172 157.219 92.8652 156.664 92.3613C156.109 91.8574 155.828 91.1641 155.82 90.2812V84.4688H156.934V90.2461C156.934 90.8633 157.104 91.3438 157.443 91.6875C157.783 92.0273 158.268 92.1973 158.896 92.1973C159.533 92.1973 160.02 92.0273 160.355 91.6875C160.695 91.3477 160.865 90.8691 160.865 90.252V84.4688H161.996ZM167.293 91.3184C167.293 91.0254 167.182 90.7988 166.959 90.6387C166.74 90.4746 166.355 90.334 165.805 90.2168C165.258 90.0996 164.822 89.959 164.498 89.7949C164.178 89.6309 163.939 89.4355 163.783 89.209C163.631 88.9824 163.555 88.7129 163.555 88.4004C163.555 87.8809 163.773 87.4414 164.211 87.082C164.652 86.7227 165.215 86.543 165.898 86.543C166.617 86.543 167.199 86.7285 167.645 87.0996C168.094 87.4707 168.318 87.9453 168.318 88.5234H167.229C167.229 88.2266 167.102 87.9707 166.848 87.7559C166.598 87.541 166.281 87.4336 165.898 87.4336C165.504 87.4336 165.195 87.5195 164.973 87.6914C164.75 87.8633 164.639 88.0879 164.639 88.3652C164.639 88.627 164.742 88.8242 164.949 88.957C165.156 89.0898 165.529 89.2168 166.068 89.3379C166.611 89.459 167.051 89.6035 167.387 89.7715C167.723 89.9395 167.971 90.1426 168.131 90.3809C168.295 90.6152 168.377 90.9023 168.377 91.2422C168.377 91.8086 168.15 92.2637 167.697 92.6074C167.244 92.9473 166.656 93.1172 165.934 93.1172C165.426 93.1172 164.977 93.0273 164.586 92.8477C164.195 92.668 163.889 92.418 163.666 92.0977C163.447 91.7734 163.338 91.4238 163.338 91.0488H164.422C164.441 91.4121 164.586 91.7012 164.855 91.916C165.129 92.127 165.488 92.2324 165.934 92.2324C166.344 92.2324 166.672 92.1504 166.918 91.9863C167.168 91.8184 167.293 91.5957 167.293 91.3184ZM172.42 93.1172C171.561 93.1172 170.861 92.8359 170.322 92.2734C169.783 91.707 169.514 90.9512 169.514 90.0059V89.8066C169.514 89.1777 169.633 88.6172 169.871 88.125C170.113 87.6289 170.449 87.2422 170.879 86.9648C171.312 86.6836 171.781 86.543 172.285 86.543C173.109 86.543 173.75 86.8145 174.207 87.3574C174.664 87.9004 174.893 88.6777 174.893 89.6895V90.1406H170.598C170.613 90.7656 170.795 91.2715 171.143 91.6582C171.494 92.041 171.939 92.2324 172.479 92.2324C172.861 92.2324 173.186 92.1543 173.451 91.998C173.717 91.8418 173.949 91.6348 174.148 91.377L174.811 91.8926C174.279 92.709 173.482 93.1172 172.42 93.1172ZM172.285 87.4336C171.848 87.4336 171.48 87.5938 171.184 87.9141C170.887 88.2305 170.703 88.6758 170.633 89.25H173.809V89.168C173.777 88.6172 173.629 88.1914 173.363 87.8906C173.098 87.5859 172.738 87.4336 172.285 87.4336ZM179.217 87.6328C179.053 87.6055 178.875 87.5918 178.684 87.5918C177.973 87.5918 177.49 87.8945 177.236 88.5V93H176.152V86.6602H177.207L177.225 87.3926C177.58 86.8262 178.084 86.543 178.736 86.543C178.947 86.543 179.107 86.5703 179.217 86.625V87.6328ZM184.49 89.6602V93H183.365V84.4688H186.512C187.445 84.4688 188.176 84.707 188.703 85.1836C189.234 85.6602 189.5 86.291 189.5 87.0762C189.5 87.9043 189.24 88.543 188.721 88.9922C188.205 89.4375 187.465 89.6602 186.5 89.6602H184.49ZM184.49 88.7402H186.512C187.113 88.7402 187.574 88.5996 187.895 88.3184C188.215 88.0332 188.375 87.623 188.375 87.0879C188.375 86.5801 188.215 86.1738 187.895 85.8691C187.574 85.5645 187.135 85.4062 186.576 85.3945H184.49V88.7402ZM193.314 93.1172C192.455 93.1172 191.756 92.8359 191.217 92.2734C190.678 91.707 190.408 90.9512 190.408 90.0059V89.8066C190.408 89.1777 190.527 88.6172 190.766 88.125C191.008 87.6289 191.344 87.2422 191.773 86.9648C192.207 86.6836 192.676 86.543 193.18 86.543C194.004 86.543 194.645 86.8145 195.102 87.3574C195.559 87.9004 195.787 88.6777 195.787 89.6895V90.1406H191.492C191.508 90.7656 191.689 91.2715 192.037 91.6582C192.389 92.041 192.834 92.2324 193.373 92.2324C193.756 92.2324 194.08 92.1543 194.346 91.998C194.611 91.8418 194.844 91.6348 195.043 91.377L195.705 91.8926C195.174 92.709 194.377 93.1172 193.314 93.1172ZM193.18 87.4336C192.742 87.4336 192.375 87.5938 192.078 87.9141C191.781 88.2305 191.598 88.6758 191.527 89.25H194.703V89.168C194.672 88.6172 194.523 88.1914 194.258 87.8906C193.992 87.5859 193.633 87.4336 193.18 87.4336ZM200.111 87.6328C199.947 87.6055 199.77 87.5918 199.578 87.5918C198.867 87.5918 198.385 87.8945 198.131 88.5V93H197.047V86.6602H198.102L198.119 87.3926C198.475 86.8262 198.979 86.543 199.631 86.543C199.842 86.543 200.002 86.5703 200.111 86.625V87.6328ZM204.805 91.3184C204.805 91.0254 204.693 90.7988 204.471 90.6387C204.252 90.4746 203.867 90.334 203.316 90.2168C202.77 90.0996 202.334 89.959 202.01 89.7949C201.689 89.6309 201.451 89.4355 201.295 89.209C201.143 88.9824 201.066 88.7129 201.066 88.4004C201.066 87.8809 201.285 87.4414 201.723 87.082C202.164 86.7227 202.727 86.543 203.41 86.543C204.129 86.543 204.711 86.7285 205.156 87.0996C205.605 87.4707 205.83 87.9453 205.83 88.5234H204.74C204.74 88.2266 204.613 87.9707 204.359 87.7559C204.109 87.541 203.793 87.4336 203.41 87.4336C203.016 87.4336 202.707 87.5195 202.484 87.6914C202.262 87.8633 202.15 88.0879 202.15 88.3652C202.15 88.627 202.254 88.8242 202.461 88.957C202.668 89.0898 203.041 89.2168 203.58 89.3379C204.123 89.459 204.562 89.6035 204.898 89.7715C205.234 89.9395 205.482 90.1426 205.643 90.3809C205.807 90.6152 205.889 90.9023 205.889 91.2422C205.889 91.8086 205.662 92.2637 205.209 92.6074C204.756 92.9473 204.168 93.1172 203.445 93.1172C202.938 93.1172 202.488 93.0273 202.098 92.8477C201.707 92.668 201.4 92.418 201.178 92.0977C200.959 91.7734 200.85 91.4238 200.85 91.0488H201.934C201.953 91.4121 202.098 91.7012 202.367 91.916C202.641 92.127 203 92.2324 203.445 92.2324C203.855 92.2324 204.184 92.1504 204.43 91.9863C204.68 91.8184 204.805 91.5957 204.805 91.3184ZM207.014 89.7715C207.014 89.1504 207.135 88.5918 207.377 88.0957C207.623 87.5996 207.963 87.2168 208.396 86.9473C208.834 86.6777 209.332 86.543 209.891 86.543C210.754 86.543 211.451 86.8418 211.982 87.4395C212.518 88.0371 212.785 88.832 212.785 89.8242V89.9004C212.785 90.5176 212.666 91.0723 212.428 91.5645C212.193 92.0527 211.855 92.4336 211.414 92.707C210.977 92.9805 210.473 93.1172 209.902 93.1172C209.043 93.1172 208.346 92.8184 207.811 92.2207C207.279 91.623 207.014 90.832 207.014 89.8477V89.7715ZM208.104 89.9004C208.104 90.6035 208.266 91.168 208.59 91.5938C208.918 92.0195 209.355 92.2324 209.902 92.2324C210.453 92.2324 210.891 92.0176 211.215 91.5879C211.539 91.1543 211.701 90.5488 211.701 89.7715C211.701 89.0762 211.535 88.5137 211.203 88.084C210.875 87.6504 210.438 87.4336 209.891 87.4336C209.355 87.4336 208.924 87.6465 208.596 88.0723C208.268 88.498 208.104 89.1074 208.104 89.9004ZM215.17 86.6602L215.205 87.457C215.689 86.8477 216.322 86.543 217.104 86.543C218.443 86.543 219.119 87.2988 219.131 88.8105V93H218.047V88.8047C218.043 88.3477 217.938 88.0098 217.73 87.791C217.527 87.5723 217.209 87.4629 216.775 87.4629C216.424 87.4629 216.115 87.5566 215.85 87.7441C215.584 87.9316 215.377 88.1777 215.229 88.4824V93H214.145V86.6602H215.17ZM224.68 93C224.617 92.875 224.566 92.6523 224.527 92.332C224.023 92.8555 223.422 93.1172 222.723 93.1172C222.098 93.1172 221.584 92.9414 221.182 92.5898C220.783 92.2344 220.584 91.7852 220.584 91.2422C220.584 90.582 220.834 90.0703 221.334 89.707C221.838 89.3398 222.545 89.1562 223.455 89.1562H224.51V88.6582C224.51 88.2793 224.396 87.9785 224.17 87.7559C223.943 87.5293 223.609 87.416 223.168 87.416C222.781 87.416 222.457 87.5137 222.195 87.709C221.934 87.9043 221.803 88.1406 221.803 88.418H220.713C220.713 88.1016 220.824 87.7969 221.047 87.5039C221.273 87.207 221.578 86.9727 221.961 86.8008C222.348 86.6289 222.771 86.543 223.232 86.543C223.963 86.543 224.535 86.7266 224.949 87.0938C225.363 87.457 225.578 87.959 225.594 88.5996V91.5176C225.594 92.0996 225.668 92.5625 225.816 92.9062V93H224.68ZM222.881 92.1738C223.221 92.1738 223.543 92.0859 223.848 91.9102C224.152 91.7344 224.373 91.5059 224.51 91.2246V89.9238H223.66C222.332 89.9238 221.668 90.3125 221.668 91.0898C221.668 91.4297 221.781 91.6953 222.008 91.8867C222.234 92.0781 222.525 92.1738 222.881 92.1738Z" fill="black"/>
<path d="M197.5 47C194.89 47.7 191.83 48 189 48C186.17 48 183.11 47.7 180.5 47L180 49C181.86 49.5 184 49.83 186 50V63H188V57H190V63H192V50C194 49.83 196.14 49.5 198 49L197.5 47ZM189 47C190.1 47 191 46.1 191 45C191 43.9 190.1 43 189 43C187.9 43 187 43.9 187 45C187 46.1 187.9 47 189 47Z" fill="#657B83"/>
</svg>
